M48
; DRILL file {KiCad 5.1.9+dfsg1-1~bpo10+1} date Sun Jul  4 13:04:25 2021
; FORMAT={-:-/ absolute / metric / decimal}
; #@! TF.CreationDate,2021-07-04T13:04:25+00:00
; #@! TF.GenerationSoftware,Kicad,Pcbnew,5.1.9+dfsg1-1~bpo10+1
FMAT,2
METRIC
T1C0.400
T2C0.800
T3C0.900
T4C1.000
T5C1.016
T6C1.100
T7C1.150
T8C1.100
%
G90
G05
T1
X123.87Y-86.882
X127.37Y-84.882
X128.37Y-85.382
X128.37Y-86.882
T2
X129.37Y-111.382
X135.37Y-72.382
X135.37Y-80.002
X136.99Y-111.382
X138.37Y-99.762
X138.37Y-107.382
X140.37Y-72.382
X140.37Y-80.002
X140.37Y-89.382
X140.37Y-97.002
X140.91Y-99.762
X140.91Y-107.382
X143.45Y-99.762
X143.45Y-107.382
X144.37Y-89.382
X144.37Y-97.002
X145.37Y-72.382
X145.37Y-80.002
X145.99Y-99.762
X145.99Y-107.382
X146.37Y-111.382
X150.37Y-72.382
X150.37Y-80.002
X153.99Y-111.382
T3
X135.37Y-66.842
X135.37Y-69.382
X140.37Y-66.842
X140.37Y-69.382
X145.37Y-66.842
X145.37Y-69.382
X150.37Y-66.842
X150.37Y-69.382
T4
X126.08Y-57.132
X128.62Y-57.132
X131.16Y-57.132
T5
X116.37Y-62.382
X116.37Y-64.922
X116.37Y-67.462
X116.37Y-70.002
X116.37Y-72.542
X116.37Y-75.082
X116.37Y-77.622
X116.37Y-80.162
X116.37Y-82.702
X116.37Y-85.242
X116.37Y-87.782
X116.37Y-90.322
X116.37Y-92.862
X116.37Y-95.402
X116.37Y-97.942
X116.37Y-100.482
X116.37Y-103.022
X116.37Y-105.562
X116.37Y-108.102
X116.37Y-110.642
X116.37Y-113.182
X116.37Y-115.722
X116.37Y-118.262
X118.91Y-62.382
X118.91Y-64.922
X118.91Y-67.462
X118.91Y-70.002
X118.91Y-72.542
X118.91Y-75.082
X118.91Y-77.622
X118.91Y-80.162
X118.91Y-82.702
X118.91Y-85.242
X118.91Y-87.782
X118.91Y-90.322
X118.91Y-92.862
X118.91Y-95.402
X118.91Y-97.942
X118.91Y-100.482
X118.91Y-103.022
X118.91Y-105.562
X118.91Y-108.102
X118.91Y-110.642
X118.91Y-113.182
X118.91Y-115.722
X118.91Y-118.262
X164.63Y-62.382
X164.63Y-64.922
X164.63Y-67.462
X164.63Y-70.002
X164.63Y-72.542
X164.63Y-75.082
X164.63Y-77.622
X164.63Y-80.162
X164.63Y-82.702
X164.63Y-85.242
X164.63Y-87.782
X164.63Y-90.322
X164.63Y-92.862
X164.63Y-95.402
X164.63Y-97.942
X164.63Y-100.482
X164.63Y-103.022
X164.63Y-105.562
X164.63Y-108.102
X164.63Y-110.642
X164.63Y-113.182
X164.63Y-115.722
X164.63Y-118.262
X167.17Y-62.382
X167.17Y-64.922
X167.17Y-67.462
X167.17Y-70.002
X167.17Y-72.542
X167.17Y-75.082
X167.17Y-77.622
X167.17Y-80.162
X167.17Y-82.702
X167.17Y-85.242
X167.17Y-87.782
X167.17Y-90.322
X167.17Y-92.862
X167.17Y-95.402
X167.17Y-97.942
X167.17Y-100.482
X167.17Y-103.022
X167.17Y-105.562
X167.17Y-108.102
X167.17Y-110.642
X167.17Y-113.182
X167.17Y-115.722
X167.17Y-118.262
T6
X118.37Y-53.632
X118.37Y-56.172
X121.46Y-47.132
X125.37Y-65.882
X125.37Y-72.382
X129.87Y-65.882
X129.87Y-72.382
X131.62Y-47.132
X155.37Y-65.882
X155.37Y-72.382
X156.87Y-51.842
X156.87Y-54.382
X156.87Y-56.922
X159.87Y-65.882
X159.87Y-72.382
X165.37Y-51.802
X165.37Y-54.342
X165.37Y-56.882
T7
X130.37Y-119.382
X135.37Y-119.382
X147.37Y-119.382
X152.37Y-119.382
T8
X115.83Y-53.632
X115.83Y-56.172
X154.33Y-51.842
X154.33Y-54.382
X154.33Y-56.922
X167.91Y-51.802
X167.91Y-54.342
X167.91Y-56.882
T0
M30
