G04 #@! TF.GenerationSoftware,KiCad,Pcbnew,5.1.9+dfsg1-1~bpo10+1*
G04 #@! TF.CreationDate,2021-07-04T13:04:25+00:00*
G04 #@! TF.ProjectId,bbbalarm,62626261-6c61-4726-9d2e-6b696361645f,rev?*
G04 #@! TF.SameCoordinates,Original*
G04 #@! TF.FileFunction,Legend,Top*
G04 #@! TF.FilePolarity,Positive*
%FSLAX46Y46*%
G04 Gerber Fmt 4.6, Leading zero omitted, Abs format (unit mm)*
G04 Created by KiCad (PCBNEW 5.1.9+dfsg1-1~bpo10+1) date 2021-07-04 13:04:25*
%MOMM*%
%LPD*%
G01*
G04 APERTURE LIST*
%ADD10C,0.150000*%
%ADD11C,0.120000*%
G04 APERTURE END LIST*
D10*
X114820100Y-60832400D02*
X114820100Y-62382400D01*
X117640100Y-63652400D02*
X115100100Y-63652400D01*
X117640100Y-61112400D02*
X117640100Y-63652400D01*
X116370100Y-60832400D02*
X114820100Y-60832400D01*
X120180100Y-61112400D02*
X117640100Y-61112400D01*
X120180100Y-119532400D02*
X115100100Y-119532400D01*
X115100100Y-119532400D02*
X115100100Y-63652400D01*
X120180100Y-119532400D02*
X120180100Y-61112400D01*
X163080100Y-60832400D02*
X163080100Y-62382400D01*
X165900100Y-63652400D02*
X163360100Y-63652400D01*
X165900100Y-61112400D02*
X165900100Y-63652400D01*
X164630100Y-60832400D02*
X163080100Y-60832400D01*
X168440100Y-61112400D02*
X165900100Y-61112400D01*
X168440100Y-119532400D02*
X163360100Y-119532400D01*
X163360100Y-119532400D02*
X163360100Y-63652400D01*
X168440100Y-119532400D02*
X168440100Y-61112400D01*
D11*
X124760100Y-91274564D02*
X124760100Y-91490236D01*
X125480100Y-91274564D02*
X125480100Y-91490236D01*
X129370100Y-91682400D02*
X129370100Y-93082400D01*
X128670100Y-93782400D02*
X128070100Y-93782400D01*
X127370100Y-93082400D02*
X127370100Y-91682400D01*
X128070100Y-90982400D02*
X128670100Y-90982400D01*
X129370100Y-93082400D02*
G75*
G02*
X128670100Y-93782400I-700000J0D01*
G01*
X128070100Y-93782400D02*
G75*
G02*
X127370100Y-93082400I0J700000D01*
G01*
X127370100Y-91682400D02*
G75*
G02*
X128070100Y-90982400I700000J0D01*
G01*
X128670100Y-90982400D02*
G75*
G02*
X129370100Y-91682400I0J-700000D01*
G01*
X131070100Y-90982400D02*
X131670100Y-90982400D01*
X130370100Y-93082400D02*
X130370100Y-91682400D01*
X131670100Y-93782400D02*
X131070100Y-93782400D01*
X132370100Y-91682400D02*
X132370100Y-93082400D01*
X131670100Y-90982400D02*
G75*
G02*
X132370100Y-91682400I0J-700000D01*
G01*
X130370100Y-91682400D02*
G75*
G02*
X131070100Y-90982400I700000J0D01*
G01*
X131070100Y-93782400D02*
G75*
G02*
X130370100Y-93082400I0J700000D01*
G01*
X132370100Y-93082400D02*
G75*
G02*
X131670100Y-93782400I-700000J0D01*
G01*
X135370100Y-91682400D02*
X135370100Y-93082400D01*
X134670100Y-93782400D02*
X134070100Y-93782400D01*
X133370100Y-93082400D02*
X133370100Y-91682400D01*
X134070100Y-90982400D02*
X134670100Y-90982400D01*
X135370100Y-93082400D02*
G75*
G02*
X134670100Y-93782400I-700000J0D01*
G01*
X134070100Y-93782400D02*
G75*
G02*
X133370100Y-93082400I0J700000D01*
G01*
X133370100Y-91682400D02*
G75*
G02*
X134070100Y-90982400I700000J0D01*
G01*
X134670100Y-90982400D02*
G75*
G02*
X135370100Y-91682400I0J-700000D01*
G01*
X122670100Y-88782400D02*
X122070100Y-88782400D01*
X123370100Y-86682400D02*
X123370100Y-88082400D01*
X122070100Y-85982400D02*
X122670100Y-85982400D01*
X121370100Y-88082400D02*
X121370100Y-86682400D01*
X122070100Y-88782400D02*
G75*
G02*
X121370100Y-88082400I0J700000D01*
G01*
X123370100Y-88082400D02*
G75*
G02*
X122670100Y-88782400I-700000J0D01*
G01*
X122670100Y-85982400D02*
G75*
G02*
X123370100Y-86682400I0J-700000D01*
G01*
X121370100Y-86682400D02*
G75*
G02*
X122070100Y-85982400I700000J0D01*
G01*
X133523741Y-87012400D02*
X133216459Y-87012400D01*
X133523741Y-86252400D02*
X133216459Y-86252400D01*
X133523741Y-87502400D02*
X133216459Y-87502400D01*
X133523741Y-88262400D02*
X133216459Y-88262400D01*
X133523741Y-89512400D02*
X133216459Y-89512400D01*
X133523741Y-88752400D02*
X133216459Y-88752400D01*
X122750100Y-90536041D02*
X122750100Y-90228759D01*
X121990100Y-90536041D02*
X121990100Y-90228759D01*
X158370100Y-65632400D02*
X156870100Y-65632400D01*
X154370100Y-66882400D02*
X154370100Y-71382400D01*
X156870100Y-72632400D02*
X158370100Y-72632400D01*
X160870100Y-71382400D02*
X160870100Y-66882400D01*
X130870100Y-71382400D02*
X130870100Y-66882400D01*
X126870100Y-72632400D02*
X128370100Y-72632400D01*
X124370100Y-66882400D02*
X124370100Y-71382400D01*
X128370100Y-65632400D02*
X126870100Y-65632400D01*
X128370100Y-89942400D02*
X131820100Y-89942400D01*
X128370100Y-89942400D02*
X126420100Y-89942400D01*
X128370100Y-84822400D02*
X130320100Y-84822400D01*
X128370100Y-84822400D02*
X126420100Y-84822400D01*
X129260100Y-48602400D02*
X129260100Y-45662400D01*
X129260100Y-45662400D02*
X123820100Y-45662400D01*
X123820100Y-45662400D02*
X123820100Y-48602400D01*
X123820100Y-48602400D02*
X129260100Y-48602400D01*
X130280100Y-47132400D02*
X129260100Y-47132400D01*
X122800100Y-47132400D02*
X123820100Y-47132400D01*
X128360100Y-48602400D02*
X128360100Y-45662400D01*
X128240100Y-48602400D02*
X128240100Y-45662400D01*
X128480100Y-48602400D02*
X128480100Y-45662400D01*
X115770100Y-52072400D02*
X115770100Y-52842400D01*
X115770100Y-54422400D02*
X115770100Y-55382400D01*
X115770100Y-56962400D02*
X115770100Y-57732400D01*
X121070100Y-52072400D02*
X121070100Y-57732400D01*
X121530100Y-52072400D02*
X121530100Y-57732400D01*
X115210100Y-52072400D02*
X115210100Y-52842400D01*
X115210100Y-54422400D02*
X115210100Y-55382400D01*
X115210100Y-56962400D02*
X115210100Y-57732400D01*
X121530100Y-52072400D02*
X115210100Y-52072400D01*
X121530100Y-57732400D02*
X115210100Y-57732400D01*
X115710100Y-51832400D02*
X114970100Y-51832400D01*
X114970100Y-51832400D02*
X114970100Y-52332400D01*
D10*
X122620100Y-59132400D02*
X134620100Y-59132400D01*
X134620100Y-59132400D02*
X134620100Y-50632400D01*
X134620100Y-50632400D02*
X122620100Y-50632400D01*
X122620100Y-50632400D02*
X122620100Y-59132400D01*
D11*
X136450100Y-69672400D02*
X136606100Y-69672400D01*
X134134100Y-69672400D02*
X134290100Y-69672400D01*
X136449937Y-67071270D02*
G75*
G02*
X136450100Y-69153361I-1079837J-1041130D01*
G01*
X134290263Y-67071270D02*
G75*
G03*
X134290100Y-69153361I1079837J-1041130D01*
G01*
X136448708Y-66440065D02*
G75*
G02*
X136605616Y-69672400I-1078608J-1672335D01*
G01*
X134291492Y-66440065D02*
G75*
G03*
X134134584Y-69672400I1078608J-1672335D01*
G01*
X139134100Y-69672400D02*
X139290100Y-69672400D01*
X141450100Y-69672400D02*
X141606100Y-69672400D01*
X139291492Y-66440065D02*
G75*
G03*
X139134584Y-69672400I1078608J-1672335D01*
G01*
X141448708Y-66440065D02*
G75*
G02*
X141605616Y-69672400I-1078608J-1672335D01*
G01*
X139290263Y-67071270D02*
G75*
G03*
X139290100Y-69153361I1079837J-1041130D01*
G01*
X141449937Y-67071270D02*
G75*
G02*
X141450100Y-69153361I-1079837J-1041130D01*
G01*
X146450100Y-69672400D02*
X146606100Y-69672400D01*
X144134100Y-69672400D02*
X144290100Y-69672400D01*
X146449937Y-67071270D02*
G75*
G02*
X146450100Y-69153361I-1079837J-1041130D01*
G01*
X144290263Y-67071270D02*
G75*
G03*
X144290100Y-69153361I1079837J-1041130D01*
G01*
X146448708Y-66440065D02*
G75*
G02*
X146605616Y-69672400I-1078608J-1672335D01*
G01*
X144291492Y-66440065D02*
G75*
G03*
X144134584Y-69672400I1078608J-1672335D01*
G01*
X149134100Y-69672400D02*
X149290100Y-69672400D01*
X151450100Y-69672400D02*
X151606100Y-69672400D01*
X149291492Y-66440065D02*
G75*
G03*
X149134584Y-69672400I1078608J-1672335D01*
G01*
X151448708Y-66440065D02*
G75*
G02*
X151605616Y-69672400I-1078608J-1672335D01*
G01*
X149290263Y-67071270D02*
G75*
G03*
X149290100Y-69153361I1079837J-1041130D01*
G01*
X151449937Y-67071270D02*
G75*
G02*
X151450100Y-69153361I-1079837J-1041130D01*
G01*
X126750100Y-127382400D02*
X139291100Y-127382400D01*
X126750100Y-121682400D02*
X139291100Y-121682400D01*
X126750100Y-118882400D02*
X129140100Y-118882400D01*
X131600100Y-118882400D02*
X134140100Y-118882400D01*
X136600100Y-118882400D02*
X139291100Y-118882400D01*
X126750100Y-114262400D02*
X139291100Y-114262400D01*
X126750100Y-128502400D02*
X139291100Y-128502400D01*
X126750100Y-114262400D02*
X126750100Y-128502400D01*
X139291100Y-114262400D02*
X139291100Y-128502400D01*
X128870100Y-123782400D02*
X132870100Y-123782400D01*
X128870100Y-127082400D02*
X132870100Y-127082400D01*
X128870100Y-123782400D02*
X128870100Y-127082400D01*
X132870100Y-123782400D02*
X132870100Y-127082400D01*
X128370100Y-114382400D02*
X133370100Y-114382400D01*
X128370100Y-128382400D02*
X133370100Y-128382400D01*
X128370100Y-114382400D02*
X128370100Y-128382400D01*
X133370100Y-114382400D02*
X133370100Y-128382400D01*
X128870100Y-122082400D02*
X132870100Y-122082400D01*
X128870100Y-123082400D02*
X132870100Y-123082400D01*
X128870100Y-122082400D02*
X128870100Y-123082400D01*
X132870100Y-122082400D02*
X132870100Y-123082400D01*
X130370100Y-114732400D02*
X131370100Y-114732400D01*
X130370100Y-117231400D02*
X131370100Y-117231400D01*
X130370100Y-114732400D02*
X130370100Y-117231400D01*
X131370100Y-114732400D02*
X131370100Y-117231400D01*
X133870100Y-123782400D02*
X137870100Y-123782400D01*
X133870100Y-127082400D02*
X137870100Y-127082400D01*
X133870100Y-123782400D02*
X133870100Y-127082400D01*
X137870100Y-123782400D02*
X137870100Y-127082400D01*
X133370100Y-114382400D02*
X138370100Y-114382400D01*
X133370100Y-128382400D02*
X138370100Y-128382400D01*
X133370100Y-114382400D02*
X133370100Y-128382400D01*
X138370100Y-114382400D02*
X138370100Y-128382400D01*
X133870100Y-122082400D02*
X137870100Y-122082400D01*
X133870100Y-123082400D02*
X137870100Y-123082400D01*
X133870100Y-122082400D02*
X133870100Y-123082400D01*
X137870100Y-122082400D02*
X137870100Y-123082400D01*
X135370100Y-114732400D02*
X136370100Y-114732400D01*
X135370100Y-117231400D02*
X136370100Y-117231400D01*
X135370100Y-114732400D02*
X135370100Y-117231400D01*
X136370100Y-114732400D02*
X136370100Y-117231400D01*
X126510100Y-127502400D02*
X126510100Y-128742400D01*
X126510100Y-128742400D02*
X127510100Y-128742400D01*
X143510100Y-128742400D02*
X144510100Y-128742400D01*
X143510100Y-127502400D02*
X143510100Y-128742400D01*
X153370100Y-114732400D02*
X153370100Y-117231400D01*
X152370100Y-114732400D02*
X152370100Y-117231400D01*
X152370100Y-117231400D02*
X153370100Y-117231400D01*
X152370100Y-114732400D02*
X153370100Y-114732400D01*
X154870100Y-122082400D02*
X154870100Y-123082400D01*
X150870100Y-122082400D02*
X150870100Y-123082400D01*
X150870100Y-123082400D02*
X154870100Y-123082400D01*
X150870100Y-122082400D02*
X154870100Y-122082400D01*
X155370100Y-114382400D02*
X155370100Y-128382400D01*
X150370100Y-114382400D02*
X150370100Y-128382400D01*
X150370100Y-128382400D02*
X155370100Y-128382400D01*
X150370100Y-114382400D02*
X155370100Y-114382400D01*
X154870100Y-123782400D02*
X154870100Y-127082400D01*
X150870100Y-123782400D02*
X150870100Y-127082400D01*
X150870100Y-127082400D02*
X154870100Y-127082400D01*
X150870100Y-123782400D02*
X154870100Y-123782400D01*
X148370100Y-114732400D02*
X148370100Y-117231400D01*
X147370100Y-114732400D02*
X147370100Y-117231400D01*
X147370100Y-117231400D02*
X148370100Y-117231400D01*
X147370100Y-114732400D02*
X148370100Y-114732400D01*
X149870100Y-122082400D02*
X149870100Y-123082400D01*
X145870100Y-122082400D02*
X145870100Y-123082400D01*
X145870100Y-123082400D02*
X149870100Y-123082400D01*
X145870100Y-122082400D02*
X149870100Y-122082400D01*
X150370100Y-114382400D02*
X150370100Y-128382400D01*
X145370100Y-114382400D02*
X145370100Y-128382400D01*
X145370100Y-128382400D02*
X150370100Y-128382400D01*
X145370100Y-114382400D02*
X150370100Y-114382400D01*
X149870100Y-123782400D02*
X149870100Y-127082400D01*
X145870100Y-123782400D02*
X145870100Y-127082400D01*
X145870100Y-127082400D02*
X149870100Y-127082400D01*
X145870100Y-123782400D02*
X149870100Y-123782400D01*
X156291100Y-114262400D02*
X156291100Y-128502400D01*
X143750100Y-114262400D02*
X143750100Y-128502400D01*
X143750100Y-128502400D02*
X156291100Y-128502400D01*
X143750100Y-114262400D02*
X156291100Y-114262400D01*
X153600100Y-118882400D02*
X156291100Y-118882400D01*
X148600100Y-118882400D02*
X151140100Y-118882400D01*
X143750100Y-118882400D02*
X146140100Y-118882400D01*
X143750100Y-121682400D02*
X156291100Y-121682400D01*
X143750100Y-127382400D02*
X156291100Y-127382400D01*
X136410100Y-72922400D02*
X136740100Y-72922400D01*
X136740100Y-72922400D02*
X136740100Y-79462400D01*
X136740100Y-79462400D02*
X136410100Y-79462400D01*
X134330100Y-72922400D02*
X134000100Y-72922400D01*
X134000100Y-72922400D02*
X134000100Y-79462400D01*
X134000100Y-79462400D02*
X134330100Y-79462400D01*
X139000100Y-79462400D02*
X139330100Y-79462400D01*
X139000100Y-72922400D02*
X139000100Y-79462400D01*
X139330100Y-72922400D02*
X139000100Y-72922400D01*
X141740100Y-79462400D02*
X141410100Y-79462400D01*
X141740100Y-72922400D02*
X141740100Y-79462400D01*
X141410100Y-72922400D02*
X141740100Y-72922400D01*
X146410100Y-72922400D02*
X146740100Y-72922400D01*
X146740100Y-72922400D02*
X146740100Y-79462400D01*
X146740100Y-79462400D02*
X146410100Y-79462400D01*
X144330100Y-72922400D02*
X144000100Y-72922400D01*
X144000100Y-72922400D02*
X144000100Y-79462400D01*
X144000100Y-79462400D02*
X144330100Y-79462400D01*
X149000100Y-79462400D02*
X149330100Y-79462400D01*
X149000100Y-72922400D02*
X149000100Y-79462400D01*
X149330100Y-72922400D02*
X149000100Y-72922400D01*
X151740100Y-79462400D02*
X151410100Y-79462400D01*
X151740100Y-72922400D02*
X151740100Y-79462400D01*
X151410100Y-72922400D02*
X151740100Y-72922400D01*
X141410100Y-89922400D02*
X141740100Y-89922400D01*
X141740100Y-89922400D02*
X141740100Y-96462400D01*
X141740100Y-96462400D02*
X141410100Y-96462400D01*
X139330100Y-89922400D02*
X139000100Y-89922400D01*
X139000100Y-89922400D02*
X139000100Y-96462400D01*
X139000100Y-96462400D02*
X139330100Y-96462400D01*
X143000100Y-96462400D02*
X143330100Y-96462400D01*
X143000100Y-89922400D02*
X143000100Y-96462400D01*
X143330100Y-89922400D02*
X143000100Y-89922400D01*
X145740100Y-96462400D02*
X145410100Y-96462400D01*
X145740100Y-89922400D02*
X145740100Y-96462400D01*
X145410100Y-89922400D02*
X145740100Y-89922400D01*
X129910100Y-110342400D02*
X129910100Y-110012400D01*
X129910100Y-110012400D02*
X136450100Y-110012400D01*
X136450100Y-110012400D02*
X136450100Y-110342400D01*
X129910100Y-112422400D02*
X129910100Y-112752400D01*
X129910100Y-112752400D02*
X136450100Y-112752400D01*
X136450100Y-112752400D02*
X136450100Y-112422400D01*
X153450100Y-112752400D02*
X153450100Y-112422400D01*
X146910100Y-112752400D02*
X153450100Y-112752400D01*
X146910100Y-112422400D02*
X146910100Y-112752400D01*
X153450100Y-110012400D02*
X153450100Y-110342400D01*
X146910100Y-110012400D02*
X153450100Y-110012400D01*
X146910100Y-110342400D02*
X146910100Y-110012400D01*
X154270100Y-50282400D02*
X154270100Y-51052400D01*
X154270100Y-52632400D02*
X154270100Y-53592400D01*
X154270100Y-55172400D02*
X154270100Y-56132400D01*
X154270100Y-57712400D02*
X154270100Y-58482400D01*
X159570100Y-50282400D02*
X159570100Y-58482400D01*
X160030100Y-50282400D02*
X160030100Y-58482400D01*
X153710100Y-50282400D02*
X153710100Y-51052400D01*
X153710100Y-52632400D02*
X153710100Y-53592400D01*
X153710100Y-55172400D02*
X153710100Y-56132400D01*
X153710100Y-57712400D02*
X153710100Y-58482400D01*
X160030100Y-50282400D02*
X153710100Y-50282400D01*
X160030100Y-58482400D02*
X153710100Y-58482400D01*
X154210100Y-50042400D02*
X153470100Y-50042400D01*
X153470100Y-50042400D02*
X153470100Y-50542400D01*
X168770100Y-58682400D02*
X168770100Y-58182400D01*
X168030100Y-58682400D02*
X168770100Y-58682400D01*
X162210100Y-50242400D02*
X168530100Y-50242400D01*
X162210100Y-58442400D02*
X168530100Y-58442400D01*
X168530100Y-51012400D02*
X168530100Y-50242400D01*
X168530100Y-53552400D02*
X168530100Y-52592400D01*
X168530100Y-56092400D02*
X168530100Y-55132400D01*
X168530100Y-58442400D02*
X168530100Y-57672400D01*
X162210100Y-58442400D02*
X162210100Y-50242400D01*
X162670100Y-58442400D02*
X162670100Y-50242400D01*
X167970100Y-51012400D02*
X167970100Y-50242400D01*
X167970100Y-53552400D02*
X167970100Y-52592400D01*
X167970100Y-56092400D02*
X167970100Y-55132400D01*
X167970100Y-58442400D02*
X167970100Y-57672400D01*
X137040100Y-104572400D02*
X137040100Y-106222400D01*
X137040100Y-106222400D02*
X147320100Y-106222400D01*
X147320100Y-106222400D02*
X147320100Y-100922400D01*
X147320100Y-100922400D02*
X137040100Y-100922400D01*
X137040100Y-100922400D02*
X137040100Y-102572400D01*
X137040100Y-102572400D02*
G75*
G02*
X137040100Y-104572400I0J-1000000D01*
G01*
D10*
X114882004Y-60234780D02*
X114882004Y-59234780D01*
X115262957Y-59234780D01*
X115358195Y-59282400D01*
X115405814Y-59330019D01*
X115453433Y-59425257D01*
X115453433Y-59568114D01*
X115405814Y-59663352D01*
X115358195Y-59710971D01*
X115262957Y-59758590D01*
X114882004Y-59758590D01*
X115929623Y-60234780D02*
X116120100Y-60234780D01*
X116215338Y-60187161D01*
X116262957Y-60139542D01*
X116358195Y-59996685D01*
X116405814Y-59806209D01*
X116405814Y-59425257D01*
X116358195Y-59330019D01*
X116310576Y-59282400D01*
X116215338Y-59234780D01*
X116024861Y-59234780D01*
X115929623Y-59282400D01*
X115882004Y-59330019D01*
X115834385Y-59425257D01*
X115834385Y-59663352D01*
X115882004Y-59758590D01*
X115929623Y-59806209D01*
X116024861Y-59853828D01*
X116215338Y-59853828D01*
X116310576Y-59806209D01*
X116358195Y-59758590D01*
X116405814Y-59663352D01*
X162882004Y-60334780D02*
X162882004Y-59334780D01*
X163262957Y-59334780D01*
X163358195Y-59382400D01*
X163405814Y-59430019D01*
X163453433Y-59525257D01*
X163453433Y-59668114D01*
X163405814Y-59763352D01*
X163358195Y-59810971D01*
X163262957Y-59858590D01*
X162882004Y-59858590D01*
X164024861Y-59763352D02*
X163929623Y-59715733D01*
X163882004Y-59668114D01*
X163834385Y-59572876D01*
X163834385Y-59525257D01*
X163882004Y-59430019D01*
X163929623Y-59382400D01*
X164024861Y-59334780D01*
X164215338Y-59334780D01*
X164310576Y-59382400D01*
X164358195Y-59430019D01*
X164405814Y-59525257D01*
X164405814Y-59572876D01*
X164358195Y-59668114D01*
X164310576Y-59715733D01*
X164215338Y-59763352D01*
X164024861Y-59763352D01*
X163929623Y-59810971D01*
X163882004Y-59858590D01*
X163834385Y-59953828D01*
X163834385Y-60144304D01*
X163882004Y-60239542D01*
X163929623Y-60287161D01*
X164024861Y-60334780D01*
X164215338Y-60334780D01*
X164310576Y-60287161D01*
X164358195Y-60239542D01*
X164405814Y-60144304D01*
X164405814Y-59953828D01*
X164358195Y-59858590D01*
X164310576Y-59810971D01*
X164215338Y-59763352D01*
X125477242Y-95501447D02*
X125524861Y-95549066D01*
X125572480Y-95691923D01*
X125572480Y-95787161D01*
X125524861Y-95930019D01*
X125429623Y-96025257D01*
X125334385Y-96072876D01*
X125143909Y-96120495D01*
X125001052Y-96120495D01*
X124810576Y-96072876D01*
X124715338Y-96025257D01*
X124620100Y-95930019D01*
X124572480Y-95787161D01*
X124572480Y-95691923D01*
X124620100Y-95549066D01*
X124667719Y-95501447D01*
X125572480Y-94549066D02*
X125572480Y-95120495D01*
X125572480Y-94834780D02*
X124572480Y-94834780D01*
X124715338Y-94930019D01*
X124810576Y-95025257D01*
X124858195Y-95120495D01*
X124572480Y-93930019D02*
X124572480Y-93834780D01*
X124620100Y-93739542D01*
X124667719Y-93691923D01*
X124762957Y-93644304D01*
X124953433Y-93596685D01*
X125191528Y-93596685D01*
X125382004Y-93644304D01*
X125477242Y-93691923D01*
X125524861Y-93739542D01*
X125572480Y-93834780D01*
X125572480Y-93930019D01*
X125524861Y-94025257D01*
X125477242Y-94072876D01*
X125382004Y-94120495D01*
X125191528Y-94168114D01*
X124953433Y-94168114D01*
X124762957Y-94120495D01*
X124667719Y-94072876D01*
X124620100Y-94025257D01*
X124572480Y-93930019D01*
X125572480Y-92644304D02*
X125572480Y-93215733D01*
X125572480Y-92930019D02*
X124572480Y-92930019D01*
X124715338Y-93025257D01*
X124810576Y-93120495D01*
X124858195Y-93215733D01*
X127822480Y-99668114D02*
X128536766Y-99668114D01*
X128679623Y-99715733D01*
X128774861Y-99810971D01*
X128822480Y-99953828D01*
X128822480Y-100049066D01*
X128822480Y-99191923D02*
X127822480Y-99191923D01*
X127822480Y-98810971D01*
X127870100Y-98715733D01*
X127917719Y-98668114D01*
X128012957Y-98620495D01*
X128155814Y-98620495D01*
X128251052Y-98668114D01*
X128298671Y-98715733D01*
X128346290Y-98810971D01*
X128346290Y-99191923D01*
X128822480Y-97668114D02*
X128822480Y-98239542D01*
X128822480Y-97953828D02*
X127822480Y-97953828D01*
X127965338Y-98049066D01*
X128060576Y-98144304D01*
X128108195Y-98239542D01*
X127822480Y-97049066D02*
X127822480Y-96953828D01*
X127870100Y-96858590D01*
X127917719Y-96810971D01*
X128012957Y-96763352D01*
X128203433Y-96715733D01*
X128441528Y-96715733D01*
X128632004Y-96763352D01*
X128727242Y-96810971D01*
X128774861Y-96858590D01*
X128822480Y-96953828D01*
X128822480Y-97049066D01*
X128774861Y-97144304D01*
X128727242Y-97191923D01*
X128632004Y-97239542D01*
X128441528Y-97287161D01*
X128203433Y-97287161D01*
X128012957Y-97239542D01*
X127917719Y-97191923D01*
X127870100Y-97144304D01*
X127822480Y-97049066D01*
X127822480Y-95810971D02*
X127822480Y-96287161D01*
X128298671Y-96334780D01*
X128251052Y-96287161D01*
X128203433Y-96191923D01*
X128203433Y-95953828D01*
X128251052Y-95858590D01*
X128298671Y-95810971D01*
X128393909Y-95763352D01*
X128632004Y-95763352D01*
X128727242Y-95810971D01*
X128774861Y-95858590D01*
X128822480Y-95953828D01*
X128822480Y-96191923D01*
X128774861Y-96287161D01*
X128727242Y-96334780D01*
X127655814Y-95049066D02*
X128132004Y-95049066D01*
X127560576Y-95334780D02*
X127893909Y-94334780D01*
X128227242Y-95334780D01*
X128512957Y-94430019D02*
X128560576Y-94382400D01*
X128655814Y-94334780D01*
X128893909Y-94334780D01*
X128989147Y-94382400D01*
X129036766Y-94430019D01*
X129084385Y-94525257D01*
X129084385Y-94620495D01*
X129036766Y-94763352D01*
X128465338Y-95334780D01*
X129084385Y-95334780D01*
X130822480Y-99668114D02*
X131536766Y-99668114D01*
X131679623Y-99715733D01*
X131774861Y-99810971D01*
X131822480Y-99953828D01*
X131822480Y-100049066D01*
X131822480Y-99191923D02*
X130822480Y-99191923D01*
X130822480Y-98810971D01*
X130870100Y-98715733D01*
X130917719Y-98668114D01*
X131012957Y-98620495D01*
X131155814Y-98620495D01*
X131251052Y-98668114D01*
X131298671Y-98715733D01*
X131346290Y-98810971D01*
X131346290Y-99191923D01*
X131822480Y-97668114D02*
X131822480Y-98239542D01*
X131822480Y-97953828D02*
X130822480Y-97953828D01*
X130965338Y-98049066D01*
X131060576Y-98144304D01*
X131108195Y-98239542D01*
X130822480Y-97049066D02*
X130822480Y-96953828D01*
X130870100Y-96858590D01*
X130917719Y-96810971D01*
X131012957Y-96763352D01*
X131203433Y-96715733D01*
X131441528Y-96715733D01*
X131632004Y-96763352D01*
X131727242Y-96810971D01*
X131774861Y-96858590D01*
X131822480Y-96953828D01*
X131822480Y-97049066D01*
X131774861Y-97144304D01*
X131727242Y-97191923D01*
X131632004Y-97239542D01*
X131441528Y-97287161D01*
X131203433Y-97287161D01*
X131012957Y-97239542D01*
X130917719Y-97191923D01*
X130870100Y-97144304D01*
X130822480Y-97049066D01*
X130822480Y-95858590D02*
X130822480Y-96049066D01*
X130870100Y-96144304D01*
X130917719Y-96191923D01*
X131060576Y-96287161D01*
X131251052Y-96334780D01*
X131632004Y-96334780D01*
X131727242Y-96287161D01*
X131774861Y-96239542D01*
X131822480Y-96144304D01*
X131822480Y-95953828D01*
X131774861Y-95858590D01*
X131727242Y-95810971D01*
X131632004Y-95763352D01*
X131393909Y-95763352D01*
X131298671Y-95810971D01*
X131251052Y-95858590D01*
X131203433Y-95953828D01*
X131203433Y-96144304D01*
X131251052Y-96239542D01*
X131298671Y-96287161D01*
X131393909Y-96334780D01*
X130655814Y-95049066D02*
X131132004Y-95049066D01*
X130560576Y-95334780D02*
X130893909Y-94334780D01*
X131227242Y-95334780D01*
X132084385Y-95334780D02*
X131512957Y-95334780D01*
X131798671Y-95334780D02*
X131798671Y-94334780D01*
X131703433Y-94477638D01*
X131608195Y-94572876D01*
X131512957Y-94620495D01*
X133822480Y-99668114D02*
X134536766Y-99668114D01*
X134679623Y-99715733D01*
X134774861Y-99810971D01*
X134822480Y-99953828D01*
X134822480Y-100049066D01*
X134822480Y-99191923D02*
X133822480Y-99191923D01*
X133822480Y-98810971D01*
X133870100Y-98715733D01*
X133917719Y-98668114D01*
X134012957Y-98620495D01*
X134155814Y-98620495D01*
X134251052Y-98668114D01*
X134298671Y-98715733D01*
X134346290Y-98810971D01*
X134346290Y-99191923D01*
X134822480Y-97668114D02*
X134822480Y-98239542D01*
X134822480Y-97953828D02*
X133822480Y-97953828D01*
X133965338Y-98049066D01*
X134060576Y-98144304D01*
X134108195Y-98239542D01*
X133822480Y-97049066D02*
X133822480Y-96953828D01*
X133870100Y-96858590D01*
X133917719Y-96810971D01*
X134012957Y-96763352D01*
X134203433Y-96715733D01*
X134441528Y-96715733D01*
X134632004Y-96763352D01*
X134727242Y-96810971D01*
X134774861Y-96858590D01*
X134822480Y-96953828D01*
X134822480Y-97049066D01*
X134774861Y-97144304D01*
X134727242Y-97191923D01*
X134632004Y-97239542D01*
X134441528Y-97287161D01*
X134203433Y-97287161D01*
X134012957Y-97239542D01*
X133917719Y-97191923D01*
X133870100Y-97144304D01*
X133822480Y-97049066D01*
X133822480Y-96382400D02*
X133822480Y-95715733D01*
X134822480Y-96144304D01*
X133655814Y-95049066D02*
X134132004Y-95049066D01*
X133560576Y-95334780D02*
X133893909Y-94334780D01*
X134227242Y-95334780D01*
X134751052Y-94334780D02*
X134846290Y-94334780D01*
X134941528Y-94382400D01*
X134989147Y-94430019D01*
X135036766Y-94525257D01*
X135084385Y-94715733D01*
X135084385Y-94953828D01*
X135036766Y-95144304D01*
X134989147Y-95239542D01*
X134941528Y-95287161D01*
X134846290Y-95334780D01*
X134751052Y-95334780D01*
X134655814Y-95287161D01*
X134608195Y-95239542D01*
X134560576Y-95144304D01*
X134512957Y-94953828D01*
X134512957Y-94715733D01*
X134560576Y-94525257D01*
X134608195Y-94430019D01*
X134655814Y-94382400D01*
X134751052Y-94334780D01*
X121384385Y-83034780D02*
X121384385Y-83749066D01*
X121336766Y-83891923D01*
X121241528Y-83987161D01*
X121098671Y-84034780D01*
X121003433Y-84034780D01*
X121860576Y-84034780D02*
X121860576Y-83034780D01*
X122241528Y-83034780D01*
X122336766Y-83082400D01*
X122384385Y-83130019D01*
X122432004Y-83225257D01*
X122432004Y-83368114D01*
X122384385Y-83463352D01*
X122336766Y-83510971D01*
X122241528Y-83558590D01*
X121860576Y-83558590D01*
X123384385Y-84034780D02*
X122812957Y-84034780D01*
X123098671Y-84034780D02*
X123098671Y-83034780D01*
X123003433Y-83177638D01*
X122908195Y-83272876D01*
X122812957Y-83320495D01*
X124003433Y-83034780D02*
X124098671Y-83034780D01*
X124193909Y-83082400D01*
X124241528Y-83130019D01*
X124289147Y-83225257D01*
X124336766Y-83415733D01*
X124336766Y-83653828D01*
X124289147Y-83844304D01*
X124241528Y-83939542D01*
X124193909Y-83987161D01*
X124098671Y-84034780D01*
X124003433Y-84034780D01*
X123908195Y-83987161D01*
X123860576Y-83939542D01*
X123812957Y-83844304D01*
X123765338Y-83653828D01*
X123765338Y-83415733D01*
X123812957Y-83225257D01*
X123860576Y-83130019D01*
X123908195Y-83082400D01*
X124003433Y-83034780D01*
X124908195Y-83463352D02*
X124812957Y-83415733D01*
X124765338Y-83368114D01*
X124717719Y-83272876D01*
X124717719Y-83225257D01*
X124765338Y-83130019D01*
X124812957Y-83082400D01*
X124908195Y-83034780D01*
X125098671Y-83034780D01*
X125193909Y-83082400D01*
X125241528Y-83130019D01*
X125289147Y-83225257D01*
X125289147Y-83272876D01*
X125241528Y-83368114D01*
X125193909Y-83415733D01*
X125098671Y-83463352D01*
X124908195Y-83463352D01*
X124812957Y-83510971D01*
X124765338Y-83558590D01*
X124717719Y-83653828D01*
X124717719Y-83844304D01*
X124765338Y-83939542D01*
X124812957Y-83987161D01*
X124908195Y-84034780D01*
X125098671Y-84034780D01*
X125193909Y-83987161D01*
X125241528Y-83939542D01*
X125289147Y-83844304D01*
X125289147Y-83653828D01*
X125241528Y-83558590D01*
X125193909Y-83510971D01*
X125098671Y-83463352D01*
X121441528Y-84434780D02*
X121679623Y-85434780D01*
X121870100Y-84720495D01*
X122060576Y-85434780D01*
X122298671Y-84434780D01*
X122679623Y-85434780D02*
X122679623Y-84434780D01*
X123060576Y-84434780D01*
X123155814Y-84482400D01*
X123203433Y-84530019D01*
X123251052Y-84625257D01*
X123251052Y-84768114D01*
X123203433Y-84863352D01*
X123155814Y-84910971D01*
X123060576Y-84958590D01*
X122679623Y-84958590D01*
X135251052Y-87034780D02*
X134917719Y-86558590D01*
X134679623Y-87034780D02*
X134679623Y-86034780D01*
X135060576Y-86034780D01*
X135155814Y-86082400D01*
X135203433Y-86130019D01*
X135251052Y-86225257D01*
X135251052Y-86368114D01*
X135203433Y-86463352D01*
X135155814Y-86510971D01*
X135060576Y-86558590D01*
X134679623Y-86558590D01*
X136203433Y-87034780D02*
X135632004Y-87034780D01*
X135917719Y-87034780D02*
X135917719Y-86034780D01*
X135822480Y-86177638D01*
X135727242Y-86272876D01*
X135632004Y-86320495D01*
X136822480Y-86034780D02*
X136917719Y-86034780D01*
X137012957Y-86082400D01*
X137060576Y-86130019D01*
X137108195Y-86225257D01*
X137155814Y-86415733D01*
X137155814Y-86653828D01*
X137108195Y-86844304D01*
X137060576Y-86939542D01*
X137012957Y-86987161D01*
X136917719Y-87034780D01*
X136822480Y-87034780D01*
X136727242Y-86987161D01*
X136679623Y-86939542D01*
X136632004Y-86844304D01*
X136584385Y-86653828D01*
X136584385Y-86415733D01*
X136632004Y-86225257D01*
X136679623Y-86130019D01*
X136727242Y-86082400D01*
X136822480Y-86034780D01*
X138108195Y-87034780D02*
X137536766Y-87034780D01*
X137822480Y-87034780D02*
X137822480Y-86034780D01*
X137727242Y-86177638D01*
X137632004Y-86272876D01*
X137536766Y-86320495D01*
X135251052Y-88334780D02*
X134917719Y-87858590D01*
X134679623Y-88334780D02*
X134679623Y-87334780D01*
X135060576Y-87334780D01*
X135155814Y-87382400D01*
X135203433Y-87430019D01*
X135251052Y-87525257D01*
X135251052Y-87668114D01*
X135203433Y-87763352D01*
X135155814Y-87810971D01*
X135060576Y-87858590D01*
X134679623Y-87858590D01*
X136203433Y-88334780D02*
X135632004Y-88334780D01*
X135917719Y-88334780D02*
X135917719Y-87334780D01*
X135822480Y-87477638D01*
X135727242Y-87572876D01*
X135632004Y-87620495D01*
X136822480Y-87334780D02*
X136917719Y-87334780D01*
X137012957Y-87382400D01*
X137060576Y-87430019D01*
X137108195Y-87525257D01*
X137155814Y-87715733D01*
X137155814Y-87953828D01*
X137108195Y-88144304D01*
X137060576Y-88239542D01*
X137012957Y-88287161D01*
X136917719Y-88334780D01*
X136822480Y-88334780D01*
X136727242Y-88287161D01*
X136679623Y-88239542D01*
X136632004Y-88144304D01*
X136584385Y-87953828D01*
X136584385Y-87715733D01*
X136632004Y-87525257D01*
X136679623Y-87430019D01*
X136727242Y-87382400D01*
X136822480Y-87334780D01*
X137536766Y-87430019D02*
X137584385Y-87382400D01*
X137679623Y-87334780D01*
X137917719Y-87334780D01*
X138012957Y-87382400D01*
X138060576Y-87430019D01*
X138108195Y-87525257D01*
X138108195Y-87620495D01*
X138060576Y-87763352D01*
X137489147Y-88334780D01*
X138108195Y-88334780D01*
X135251052Y-89634780D02*
X134917719Y-89158590D01*
X134679623Y-89634780D02*
X134679623Y-88634780D01*
X135060576Y-88634780D01*
X135155814Y-88682400D01*
X135203433Y-88730019D01*
X135251052Y-88825257D01*
X135251052Y-88968114D01*
X135203433Y-89063352D01*
X135155814Y-89110971D01*
X135060576Y-89158590D01*
X134679623Y-89158590D01*
X136203433Y-89634780D02*
X135632004Y-89634780D01*
X135917719Y-89634780D02*
X135917719Y-88634780D01*
X135822480Y-88777638D01*
X135727242Y-88872876D01*
X135632004Y-88920495D01*
X136822480Y-88634780D02*
X136917719Y-88634780D01*
X137012957Y-88682400D01*
X137060576Y-88730019D01*
X137108195Y-88825257D01*
X137155814Y-89015733D01*
X137155814Y-89253828D01*
X137108195Y-89444304D01*
X137060576Y-89539542D01*
X137012957Y-89587161D01*
X136917719Y-89634780D01*
X136822480Y-89634780D01*
X136727242Y-89587161D01*
X136679623Y-89539542D01*
X136632004Y-89444304D01*
X136584385Y-89253828D01*
X136584385Y-89015733D01*
X136632004Y-88825257D01*
X136679623Y-88730019D01*
X136727242Y-88682400D01*
X136822480Y-88634780D01*
X137489147Y-88634780D02*
X138108195Y-88634780D01*
X137774861Y-89015733D01*
X137917719Y-89015733D01*
X138012957Y-89063352D01*
X138060576Y-89110971D01*
X138108195Y-89206209D01*
X138108195Y-89444304D01*
X138060576Y-89539542D01*
X138012957Y-89587161D01*
X137917719Y-89634780D01*
X137632004Y-89634780D01*
X137536766Y-89587161D01*
X137489147Y-89539542D01*
X122822480Y-94501447D02*
X122346290Y-94834780D01*
X122822480Y-95072876D02*
X121822480Y-95072876D01*
X121822480Y-94691923D01*
X121870100Y-94596685D01*
X121917719Y-94549066D01*
X122012957Y-94501447D01*
X122155814Y-94501447D01*
X122251052Y-94549066D01*
X122298671Y-94596685D01*
X122346290Y-94691923D01*
X122346290Y-95072876D01*
X122822480Y-93549066D02*
X122822480Y-94120495D01*
X122822480Y-93834780D02*
X121822480Y-93834780D01*
X121965338Y-93930019D01*
X122060576Y-94025257D01*
X122108195Y-94120495D01*
X121822480Y-92930019D02*
X121822480Y-92834780D01*
X121870100Y-92739542D01*
X121917719Y-92691923D01*
X122012957Y-92644304D01*
X122203433Y-92596685D01*
X122441528Y-92596685D01*
X122632004Y-92644304D01*
X122727242Y-92691923D01*
X122774861Y-92739542D01*
X122822480Y-92834780D01*
X122822480Y-92930019D01*
X122774861Y-93025257D01*
X122727242Y-93072876D01*
X122632004Y-93120495D01*
X122441528Y-93168114D01*
X122203433Y-93168114D01*
X122012957Y-93120495D01*
X121917719Y-93072876D01*
X121870100Y-93025257D01*
X121822480Y-92930019D01*
X122155814Y-91739542D02*
X122822480Y-91739542D01*
X121774861Y-91977638D02*
X122489147Y-92215733D01*
X122489147Y-91596685D01*
X155334385Y-75287161D02*
X155477242Y-75334780D01*
X155715338Y-75334780D01*
X155810576Y-75287161D01*
X155858195Y-75239542D01*
X155905814Y-75144304D01*
X155905814Y-75049066D01*
X155858195Y-74953828D01*
X155810576Y-74906209D01*
X155715338Y-74858590D01*
X155524861Y-74810971D01*
X155429623Y-74763352D01*
X155382004Y-74715733D01*
X155334385Y-74620495D01*
X155334385Y-74525257D01*
X155382004Y-74430019D01*
X155429623Y-74382400D01*
X155524861Y-74334780D01*
X155762957Y-74334780D01*
X155905814Y-74382400D01*
X156239147Y-74334780D02*
X156477242Y-75334780D01*
X156667719Y-74620495D01*
X156858195Y-75334780D01*
X157096290Y-74334780D01*
X158001052Y-75334780D02*
X157429623Y-75334780D01*
X157715338Y-75334780D02*
X157715338Y-74334780D01*
X157620100Y-74477638D01*
X157524861Y-74572876D01*
X157429623Y-74620495D01*
X158620100Y-74334780D02*
X158715338Y-74334780D01*
X158810576Y-74382400D01*
X158858195Y-74430019D01*
X158905814Y-74525257D01*
X158953433Y-74715733D01*
X158953433Y-74953828D01*
X158905814Y-75144304D01*
X158858195Y-75239542D01*
X158810576Y-75287161D01*
X158715338Y-75334780D01*
X158620100Y-75334780D01*
X158524861Y-75287161D01*
X158477242Y-75239542D01*
X158429623Y-75144304D01*
X158382004Y-74953828D01*
X158382004Y-74715733D01*
X158429623Y-74525257D01*
X158477242Y-74430019D01*
X158524861Y-74382400D01*
X158620100Y-74334780D01*
X159905814Y-75334780D02*
X159334385Y-75334780D01*
X159620100Y-75334780D02*
X159620100Y-74334780D01*
X159524861Y-74477638D01*
X159429623Y-74572876D01*
X159334385Y-74620495D01*
X156382004Y-63834780D02*
X156048671Y-63358590D01*
X155810576Y-63834780D02*
X155810576Y-62834780D01*
X156191528Y-62834780D01*
X156286766Y-62882400D01*
X156334385Y-62930019D01*
X156382004Y-63025257D01*
X156382004Y-63168114D01*
X156334385Y-63263352D01*
X156286766Y-63310971D01*
X156191528Y-63358590D01*
X155810576Y-63358590D01*
X157191528Y-63787161D02*
X157096290Y-63834780D01*
X156905814Y-63834780D01*
X156810576Y-63787161D01*
X156762957Y-63691923D01*
X156762957Y-63310971D01*
X156810576Y-63215733D01*
X156905814Y-63168114D01*
X157096290Y-63168114D01*
X157191528Y-63215733D01*
X157239147Y-63310971D01*
X157239147Y-63406209D01*
X156762957Y-63501447D01*
X157620100Y-63787161D02*
X157715338Y-63834780D01*
X157905814Y-63834780D01*
X158001052Y-63787161D01*
X158048671Y-63691923D01*
X158048671Y-63644304D01*
X158001052Y-63549066D01*
X157905814Y-63501447D01*
X157762957Y-63501447D01*
X157667719Y-63453828D01*
X157620100Y-63358590D01*
X157620100Y-63310971D01*
X157667719Y-63215733D01*
X157762957Y-63168114D01*
X157905814Y-63168114D01*
X158001052Y-63215733D01*
X158858195Y-63787161D02*
X158762957Y-63834780D01*
X158572480Y-63834780D01*
X158477242Y-63787161D01*
X158429623Y-63691923D01*
X158429623Y-63310971D01*
X158477242Y-63215733D01*
X158572480Y-63168114D01*
X158762957Y-63168114D01*
X158858195Y-63215733D01*
X158905814Y-63310971D01*
X158905814Y-63406209D01*
X158429623Y-63501447D01*
X159191528Y-63168114D02*
X159572480Y-63168114D01*
X159334385Y-62834780D02*
X159334385Y-63691923D01*
X159382004Y-63787161D01*
X159477242Y-63834780D01*
X159572480Y-63834780D01*
X125334385Y-75287161D02*
X125477242Y-75334780D01*
X125715338Y-75334780D01*
X125810576Y-75287161D01*
X125858195Y-75239542D01*
X125905814Y-75144304D01*
X125905814Y-75049066D01*
X125858195Y-74953828D01*
X125810576Y-74906209D01*
X125715338Y-74858590D01*
X125524861Y-74810971D01*
X125429623Y-74763352D01*
X125382004Y-74715733D01*
X125334385Y-74620495D01*
X125334385Y-74525257D01*
X125382004Y-74430019D01*
X125429623Y-74382400D01*
X125524861Y-74334780D01*
X125762957Y-74334780D01*
X125905814Y-74382400D01*
X126239147Y-74334780D02*
X126477242Y-75334780D01*
X126667719Y-74620495D01*
X126858195Y-75334780D01*
X127096290Y-74334780D01*
X128001052Y-75334780D02*
X127429623Y-75334780D01*
X127715338Y-75334780D02*
X127715338Y-74334780D01*
X127620100Y-74477638D01*
X127524861Y-74572876D01*
X127429623Y-74620495D01*
X128620100Y-74334780D02*
X128715338Y-74334780D01*
X128810576Y-74382400D01*
X128858195Y-74430019D01*
X128905814Y-74525257D01*
X128953433Y-74715733D01*
X128953433Y-74953828D01*
X128905814Y-75144304D01*
X128858195Y-75239542D01*
X128810576Y-75287161D01*
X128715338Y-75334780D01*
X128620100Y-75334780D01*
X128524861Y-75287161D01*
X128477242Y-75239542D01*
X128429623Y-75144304D01*
X128382004Y-74953828D01*
X128382004Y-74715733D01*
X128429623Y-74525257D01*
X128477242Y-74430019D01*
X128524861Y-74382400D01*
X128620100Y-74334780D01*
X129334385Y-74430019D02*
X129382004Y-74382400D01*
X129477242Y-74334780D01*
X129715338Y-74334780D01*
X129810576Y-74382400D01*
X129858195Y-74430019D01*
X129905814Y-74525257D01*
X129905814Y-74620495D01*
X129858195Y-74763352D01*
X129286766Y-75334780D01*
X129905814Y-75334780D01*
X126286766Y-63834780D02*
X126286766Y-62834780D01*
X126667719Y-62834780D01*
X126762957Y-62882400D01*
X126810576Y-62930019D01*
X126858195Y-63025257D01*
X126858195Y-63168114D01*
X126810576Y-63263352D01*
X126762957Y-63310971D01*
X126667719Y-63358590D01*
X126286766Y-63358590D01*
X127191528Y-62834780D02*
X127429623Y-63834780D01*
X127620100Y-63120495D01*
X127810576Y-63834780D01*
X128048671Y-62834780D01*
X129001052Y-63834780D02*
X128667719Y-63358590D01*
X128429623Y-63834780D02*
X128429623Y-62834780D01*
X128810576Y-62834780D01*
X128905814Y-62882400D01*
X128953433Y-62930019D01*
X129001052Y-63025257D01*
X129001052Y-63168114D01*
X128953433Y-63263352D01*
X128905814Y-63310971D01*
X128810576Y-63358590D01*
X128429623Y-63358590D01*
X126655814Y-83334780D02*
X126655814Y-84144304D01*
X126703433Y-84239542D01*
X126751052Y-84287161D01*
X126846290Y-84334780D01*
X127036766Y-84334780D01*
X127132004Y-84287161D01*
X127179623Y-84239542D01*
X127227242Y-84144304D01*
X127227242Y-83334780D01*
X128227242Y-84334780D02*
X127655814Y-84334780D01*
X127941528Y-84334780D02*
X127941528Y-83334780D01*
X127846290Y-83477638D01*
X127751052Y-83572876D01*
X127655814Y-83620495D01*
X128846290Y-83334780D02*
X128941528Y-83334780D01*
X129036766Y-83382400D01*
X129084385Y-83430019D01*
X129132004Y-83525257D01*
X129179623Y-83715733D01*
X129179623Y-83953828D01*
X129132004Y-84144304D01*
X129084385Y-84239542D01*
X129036766Y-84287161D01*
X128941528Y-84334780D01*
X128846290Y-84334780D01*
X128751052Y-84287161D01*
X128703433Y-84239542D01*
X128655814Y-84144304D01*
X128608195Y-83953828D01*
X128608195Y-83715733D01*
X128655814Y-83525257D01*
X128703433Y-83430019D01*
X128751052Y-83382400D01*
X128846290Y-83334780D01*
X129512957Y-83334780D02*
X130132004Y-83334780D01*
X129798671Y-83715733D01*
X129941528Y-83715733D01*
X130036766Y-83763352D01*
X130084385Y-83810971D01*
X130132004Y-83906209D01*
X130132004Y-84144304D01*
X130084385Y-84239542D01*
X130036766Y-84287161D01*
X129941528Y-84334780D01*
X129655814Y-84334780D01*
X129560576Y-84287161D01*
X129512957Y-84239542D01*
X124849623Y-45084780D02*
X124849623Y-44084780D01*
X125087719Y-44084780D01*
X125230576Y-44132400D01*
X125325814Y-44227638D01*
X125373433Y-44322876D01*
X125421052Y-44513352D01*
X125421052Y-44656209D01*
X125373433Y-44846685D01*
X125325814Y-44941923D01*
X125230576Y-45037161D01*
X125087719Y-45084780D01*
X124849623Y-45084780D01*
X126373433Y-45084780D02*
X125802004Y-45084780D01*
X126087719Y-45084780D02*
X126087719Y-44084780D01*
X125992480Y-44227638D01*
X125897242Y-44322876D01*
X125802004Y-44370495D01*
X127325814Y-45084780D02*
X126754385Y-45084780D01*
X127040100Y-45084780D02*
X127040100Y-44084780D01*
X126944861Y-44227638D01*
X126849623Y-44322876D01*
X126754385Y-44370495D01*
X128182957Y-44418114D02*
X128182957Y-45084780D01*
X127944861Y-44037161D02*
X127706766Y-44751447D01*
X128325814Y-44751447D01*
X131358195Y-49684780D02*
X131358195Y-48684780D01*
X131929623Y-49684780D02*
X131501052Y-49113352D01*
X131929623Y-48684780D02*
X131358195Y-49256209D01*
X118834385Y-58584780D02*
X118834385Y-59299066D01*
X118786766Y-59441923D01*
X118691528Y-59537161D01*
X118548671Y-59584780D01*
X118453433Y-59584780D01*
X119834385Y-59584780D02*
X119262957Y-59584780D01*
X119548671Y-59584780D02*
X119548671Y-58584780D01*
X119453433Y-58727638D01*
X119358195Y-58822876D01*
X119262957Y-58870495D01*
X120453433Y-58584780D02*
X120548671Y-58584780D01*
X120643909Y-58632400D01*
X120691528Y-58680019D01*
X120739147Y-58775257D01*
X120786766Y-58965733D01*
X120786766Y-59203828D01*
X120739147Y-59394304D01*
X120691528Y-59489542D01*
X120643909Y-59537161D01*
X120548671Y-59584780D01*
X120453433Y-59584780D01*
X120358195Y-59537161D01*
X120310576Y-59489542D01*
X120262957Y-59394304D01*
X120215338Y-59203828D01*
X120215338Y-58965733D01*
X120262957Y-58775257D01*
X120310576Y-58680019D01*
X120358195Y-58632400D01*
X120453433Y-58584780D01*
X121167719Y-58680019D02*
X121215338Y-58632400D01*
X121310576Y-58584780D01*
X121548671Y-58584780D01*
X121643909Y-58632400D01*
X121691528Y-58680019D01*
X121739147Y-58775257D01*
X121739147Y-58870495D01*
X121691528Y-59013352D01*
X121120100Y-59584780D01*
X121739147Y-59584780D01*
X116786766Y-51084780D02*
X116786766Y-50084780D01*
X117167719Y-50084780D01*
X117262957Y-50132400D01*
X117310576Y-50180019D01*
X117358195Y-50275257D01*
X117358195Y-50418114D01*
X117310576Y-50513352D01*
X117262957Y-50560971D01*
X117167719Y-50608590D01*
X116786766Y-50608590D01*
X117691528Y-50084780D02*
X117929623Y-51084780D01*
X118120100Y-50370495D01*
X118310576Y-51084780D01*
X118548671Y-50084780D01*
X119501052Y-51084780D02*
X119167719Y-50608590D01*
X118929623Y-51084780D02*
X118929623Y-50084780D01*
X119310576Y-50084780D01*
X119405814Y-50132400D01*
X119453433Y-50180019D01*
X119501052Y-50275257D01*
X119501052Y-50418114D01*
X119453433Y-50513352D01*
X119405814Y-50560971D01*
X119310576Y-50608590D01*
X118929623Y-50608590D01*
X126905814Y-59584780D02*
X126905814Y-60394304D01*
X126953433Y-60489542D01*
X127001052Y-60537161D01*
X127096290Y-60584780D01*
X127286766Y-60584780D01*
X127382004Y-60537161D01*
X127429623Y-60489542D01*
X127477242Y-60394304D01*
X127477242Y-59584780D01*
X128477242Y-60584780D02*
X127905814Y-60584780D01*
X128191528Y-60584780D02*
X128191528Y-59584780D01*
X128096290Y-59727638D01*
X128001052Y-59822876D01*
X127905814Y-59870495D01*
X129096290Y-59584780D02*
X129191528Y-59584780D01*
X129286766Y-59632400D01*
X129334385Y-59680019D01*
X129382004Y-59775257D01*
X129429623Y-59965733D01*
X129429623Y-60203828D01*
X129382004Y-60394304D01*
X129334385Y-60489542D01*
X129286766Y-60537161D01*
X129191528Y-60584780D01*
X129096290Y-60584780D01*
X129001052Y-60537161D01*
X128953433Y-60489542D01*
X128905814Y-60394304D01*
X128858195Y-60203828D01*
X128858195Y-59965733D01*
X128905814Y-59775257D01*
X128953433Y-59680019D01*
X129001052Y-59632400D01*
X129096290Y-59584780D01*
X130286766Y-59918114D02*
X130286766Y-60584780D01*
X130048671Y-59537161D02*
X129810576Y-60251447D01*
X130429623Y-60251447D01*
X133679623Y-65584780D02*
X133679623Y-64584780D01*
X133917719Y-64584780D01*
X134060576Y-64632400D01*
X134155814Y-64727638D01*
X134203433Y-64822876D01*
X134251052Y-65013352D01*
X134251052Y-65156209D01*
X134203433Y-65346685D01*
X134155814Y-65441923D01*
X134060576Y-65537161D01*
X133917719Y-65584780D01*
X133679623Y-65584780D01*
X135203433Y-65584780D02*
X134632004Y-65584780D01*
X134917719Y-65584780D02*
X134917719Y-64584780D01*
X134822480Y-64727638D01*
X134727242Y-64822876D01*
X134632004Y-64870495D01*
X135822480Y-64584780D02*
X135917719Y-64584780D01*
X136012957Y-64632400D01*
X136060576Y-64680019D01*
X136108195Y-64775257D01*
X136155814Y-64965733D01*
X136155814Y-65203828D01*
X136108195Y-65394304D01*
X136060576Y-65489542D01*
X136012957Y-65537161D01*
X135917719Y-65584780D01*
X135822480Y-65584780D01*
X135727242Y-65537161D01*
X135679623Y-65489542D01*
X135632004Y-65394304D01*
X135584385Y-65203828D01*
X135584385Y-64965733D01*
X135632004Y-64775257D01*
X135679623Y-64680019D01*
X135727242Y-64632400D01*
X135822480Y-64584780D01*
X137108195Y-65584780D02*
X136536766Y-65584780D01*
X136822480Y-65584780D02*
X136822480Y-64584780D01*
X136727242Y-64727638D01*
X136632004Y-64822876D01*
X136536766Y-64870495D01*
X138679623Y-65584780D02*
X138679623Y-64584780D01*
X138917719Y-64584780D01*
X139060576Y-64632400D01*
X139155814Y-64727638D01*
X139203433Y-64822876D01*
X139251052Y-65013352D01*
X139251052Y-65156209D01*
X139203433Y-65346685D01*
X139155814Y-65441923D01*
X139060576Y-65537161D01*
X138917719Y-65584780D01*
X138679623Y-65584780D01*
X140203433Y-65584780D02*
X139632004Y-65584780D01*
X139917719Y-65584780D02*
X139917719Y-64584780D01*
X139822480Y-64727638D01*
X139727242Y-64822876D01*
X139632004Y-64870495D01*
X140822480Y-64584780D02*
X140917719Y-64584780D01*
X141012957Y-64632400D01*
X141060576Y-64680019D01*
X141108195Y-64775257D01*
X141155814Y-64965733D01*
X141155814Y-65203828D01*
X141108195Y-65394304D01*
X141060576Y-65489542D01*
X141012957Y-65537161D01*
X140917719Y-65584780D01*
X140822480Y-65584780D01*
X140727242Y-65537161D01*
X140679623Y-65489542D01*
X140632004Y-65394304D01*
X140584385Y-65203828D01*
X140584385Y-64965733D01*
X140632004Y-64775257D01*
X140679623Y-64680019D01*
X140727242Y-64632400D01*
X140822480Y-64584780D01*
X141536766Y-64680019D02*
X141584385Y-64632400D01*
X141679623Y-64584780D01*
X141917719Y-64584780D01*
X142012957Y-64632400D01*
X142060576Y-64680019D01*
X142108195Y-64775257D01*
X142108195Y-64870495D01*
X142060576Y-65013352D01*
X141489147Y-65584780D01*
X142108195Y-65584780D01*
X143679623Y-65584780D02*
X143679623Y-64584780D01*
X143917719Y-64584780D01*
X144060576Y-64632400D01*
X144155814Y-64727638D01*
X144203433Y-64822876D01*
X144251052Y-65013352D01*
X144251052Y-65156209D01*
X144203433Y-65346685D01*
X144155814Y-65441923D01*
X144060576Y-65537161D01*
X143917719Y-65584780D01*
X143679623Y-65584780D01*
X145203433Y-65584780D02*
X144632004Y-65584780D01*
X144917719Y-65584780D02*
X144917719Y-64584780D01*
X144822480Y-64727638D01*
X144727242Y-64822876D01*
X144632004Y-64870495D01*
X145822480Y-64584780D02*
X145917719Y-64584780D01*
X146012957Y-64632400D01*
X146060576Y-64680019D01*
X146108195Y-64775257D01*
X146155814Y-64965733D01*
X146155814Y-65203828D01*
X146108195Y-65394304D01*
X146060576Y-65489542D01*
X146012957Y-65537161D01*
X145917719Y-65584780D01*
X145822480Y-65584780D01*
X145727242Y-65537161D01*
X145679623Y-65489542D01*
X145632004Y-65394304D01*
X145584385Y-65203828D01*
X145584385Y-64965733D01*
X145632004Y-64775257D01*
X145679623Y-64680019D01*
X145727242Y-64632400D01*
X145822480Y-64584780D01*
X146489147Y-64584780D02*
X147108195Y-64584780D01*
X146774861Y-64965733D01*
X146917719Y-64965733D01*
X147012957Y-65013352D01*
X147060576Y-65060971D01*
X147108195Y-65156209D01*
X147108195Y-65394304D01*
X147060576Y-65489542D01*
X147012957Y-65537161D01*
X146917719Y-65584780D01*
X146632004Y-65584780D01*
X146536766Y-65537161D01*
X146489147Y-65489542D01*
X148679623Y-65584780D02*
X148679623Y-64584780D01*
X148917719Y-64584780D01*
X149060576Y-64632400D01*
X149155814Y-64727638D01*
X149203433Y-64822876D01*
X149251052Y-65013352D01*
X149251052Y-65156209D01*
X149203433Y-65346685D01*
X149155814Y-65441923D01*
X149060576Y-65537161D01*
X148917719Y-65584780D01*
X148679623Y-65584780D01*
X150203433Y-65584780D02*
X149632004Y-65584780D01*
X149917719Y-65584780D02*
X149917719Y-64584780D01*
X149822480Y-64727638D01*
X149727242Y-64822876D01*
X149632004Y-64870495D01*
X150822480Y-64584780D02*
X150917719Y-64584780D01*
X151012957Y-64632400D01*
X151060576Y-64680019D01*
X151108195Y-64775257D01*
X151155814Y-64965733D01*
X151155814Y-65203828D01*
X151108195Y-65394304D01*
X151060576Y-65489542D01*
X151012957Y-65537161D01*
X150917719Y-65584780D01*
X150822480Y-65584780D01*
X150727242Y-65537161D01*
X150679623Y-65489542D01*
X150632004Y-65394304D01*
X150584385Y-65203828D01*
X150584385Y-64965733D01*
X150632004Y-64775257D01*
X150679623Y-64680019D01*
X150727242Y-64632400D01*
X150822480Y-64584780D01*
X152012957Y-64918114D02*
X152012957Y-65584780D01*
X151774861Y-64537161D02*
X151536766Y-65251447D01*
X152155814Y-65251447D01*
X131734385Y-112714780D02*
X131734385Y-113429066D01*
X131686766Y-113571923D01*
X131591528Y-113667161D01*
X131448671Y-113714780D01*
X131353433Y-113714780D01*
X132734385Y-113714780D02*
X132162957Y-113714780D01*
X132448671Y-113714780D02*
X132448671Y-112714780D01*
X132353433Y-112857638D01*
X132258195Y-112952876D01*
X132162957Y-113000495D01*
X133353433Y-112714780D02*
X133448671Y-112714780D01*
X133543909Y-112762400D01*
X133591528Y-112810019D01*
X133639147Y-112905257D01*
X133686766Y-113095733D01*
X133686766Y-113333828D01*
X133639147Y-113524304D01*
X133591528Y-113619542D01*
X133543909Y-113667161D01*
X133448671Y-113714780D01*
X133353433Y-113714780D01*
X133258195Y-113667161D01*
X133210576Y-113619542D01*
X133162957Y-113524304D01*
X133115338Y-113333828D01*
X133115338Y-113095733D01*
X133162957Y-112905257D01*
X133210576Y-112810019D01*
X133258195Y-112762400D01*
X133353433Y-112714780D01*
X134639147Y-113714780D02*
X134067719Y-113714780D01*
X134353433Y-113714780D02*
X134353433Y-112714780D01*
X134258195Y-112857638D01*
X134162957Y-112952876D01*
X134067719Y-113000495D01*
X148734385Y-112714780D02*
X148734385Y-113429066D01*
X148686766Y-113571923D01*
X148591528Y-113667161D01*
X148448671Y-113714780D01*
X148353433Y-113714780D01*
X149734385Y-113714780D02*
X149162957Y-113714780D01*
X149448671Y-113714780D02*
X149448671Y-112714780D01*
X149353433Y-112857638D01*
X149258195Y-112952876D01*
X149162957Y-113000495D01*
X150353433Y-112714780D02*
X150448671Y-112714780D01*
X150543909Y-112762400D01*
X150591528Y-112810019D01*
X150639147Y-112905257D01*
X150686766Y-113095733D01*
X150686766Y-113333828D01*
X150639147Y-113524304D01*
X150591528Y-113619542D01*
X150543909Y-113667161D01*
X150448671Y-113714780D01*
X150353433Y-113714780D01*
X150258195Y-113667161D01*
X150210576Y-113619542D01*
X150162957Y-113524304D01*
X150115338Y-113333828D01*
X150115338Y-113095733D01*
X150162957Y-112905257D01*
X150210576Y-112810019D01*
X150258195Y-112762400D01*
X150353433Y-112714780D01*
X151020100Y-112714780D02*
X151639147Y-112714780D01*
X151305814Y-113095733D01*
X151448671Y-113095733D01*
X151543909Y-113143352D01*
X151591528Y-113190971D01*
X151639147Y-113286209D01*
X151639147Y-113524304D01*
X151591528Y-113619542D01*
X151543909Y-113667161D01*
X151448671Y-113714780D01*
X151162957Y-113714780D01*
X151067719Y-113667161D01*
X151020100Y-113619542D01*
X135822480Y-77311447D02*
X135346290Y-77644780D01*
X135822480Y-77882876D02*
X134822480Y-77882876D01*
X134822480Y-77501923D01*
X134870100Y-77406685D01*
X134917719Y-77359066D01*
X135012957Y-77311447D01*
X135155814Y-77311447D01*
X135251052Y-77359066D01*
X135298671Y-77406685D01*
X135346290Y-77501923D01*
X135346290Y-77882876D01*
X135822480Y-76359066D02*
X135822480Y-76930495D01*
X135822480Y-76644780D02*
X134822480Y-76644780D01*
X134965338Y-76740019D01*
X135060576Y-76835257D01*
X135108195Y-76930495D01*
X134822480Y-75740019D02*
X134822480Y-75644780D01*
X134870100Y-75549542D01*
X134917719Y-75501923D01*
X135012957Y-75454304D01*
X135203433Y-75406685D01*
X135441528Y-75406685D01*
X135632004Y-75454304D01*
X135727242Y-75501923D01*
X135774861Y-75549542D01*
X135822480Y-75644780D01*
X135822480Y-75740019D01*
X135774861Y-75835257D01*
X135727242Y-75882876D01*
X135632004Y-75930495D01*
X135441528Y-75978114D01*
X135203433Y-75978114D01*
X135012957Y-75930495D01*
X134917719Y-75882876D01*
X134870100Y-75835257D01*
X134822480Y-75740019D01*
X134822480Y-74501923D02*
X134822480Y-74978114D01*
X135298671Y-75025733D01*
X135251052Y-74978114D01*
X135203433Y-74882876D01*
X135203433Y-74644780D01*
X135251052Y-74549542D01*
X135298671Y-74501923D01*
X135393909Y-74454304D01*
X135632004Y-74454304D01*
X135727242Y-74501923D01*
X135774861Y-74549542D01*
X135822480Y-74644780D01*
X135822480Y-74882876D01*
X135774861Y-74978114D01*
X135727242Y-75025733D01*
X140822480Y-77311447D02*
X140346290Y-77644780D01*
X140822480Y-77882876D02*
X139822480Y-77882876D01*
X139822480Y-77501923D01*
X139870100Y-77406685D01*
X139917719Y-77359066D01*
X140012957Y-77311447D01*
X140155814Y-77311447D01*
X140251052Y-77359066D01*
X140298671Y-77406685D01*
X140346290Y-77501923D01*
X140346290Y-77882876D01*
X140822480Y-76359066D02*
X140822480Y-76930495D01*
X140822480Y-76644780D02*
X139822480Y-76644780D01*
X139965338Y-76740019D01*
X140060576Y-76835257D01*
X140108195Y-76930495D01*
X139822480Y-75740019D02*
X139822480Y-75644780D01*
X139870100Y-75549542D01*
X139917719Y-75501923D01*
X140012957Y-75454304D01*
X140203433Y-75406685D01*
X140441528Y-75406685D01*
X140632004Y-75454304D01*
X140727242Y-75501923D01*
X140774861Y-75549542D01*
X140822480Y-75644780D01*
X140822480Y-75740019D01*
X140774861Y-75835257D01*
X140727242Y-75882876D01*
X140632004Y-75930495D01*
X140441528Y-75978114D01*
X140203433Y-75978114D01*
X140012957Y-75930495D01*
X139917719Y-75882876D01*
X139870100Y-75835257D01*
X139822480Y-75740019D01*
X139822480Y-74549542D02*
X139822480Y-74740019D01*
X139870100Y-74835257D01*
X139917719Y-74882876D01*
X140060576Y-74978114D01*
X140251052Y-75025733D01*
X140632004Y-75025733D01*
X140727242Y-74978114D01*
X140774861Y-74930495D01*
X140822480Y-74835257D01*
X140822480Y-74644780D01*
X140774861Y-74549542D01*
X140727242Y-74501923D01*
X140632004Y-74454304D01*
X140393909Y-74454304D01*
X140298671Y-74501923D01*
X140251052Y-74549542D01*
X140203433Y-74644780D01*
X140203433Y-74835257D01*
X140251052Y-74930495D01*
X140298671Y-74978114D01*
X140393909Y-75025733D01*
X145822480Y-77311447D02*
X145346290Y-77644780D01*
X145822480Y-77882876D02*
X144822480Y-77882876D01*
X144822480Y-77501923D01*
X144870100Y-77406685D01*
X144917719Y-77359066D01*
X145012957Y-77311447D01*
X145155814Y-77311447D01*
X145251052Y-77359066D01*
X145298671Y-77406685D01*
X145346290Y-77501923D01*
X145346290Y-77882876D01*
X145822480Y-76359066D02*
X145822480Y-76930495D01*
X145822480Y-76644780D02*
X144822480Y-76644780D01*
X144965338Y-76740019D01*
X145060576Y-76835257D01*
X145108195Y-76930495D01*
X144822480Y-75740019D02*
X144822480Y-75644780D01*
X144870100Y-75549542D01*
X144917719Y-75501923D01*
X145012957Y-75454304D01*
X145203433Y-75406685D01*
X145441528Y-75406685D01*
X145632004Y-75454304D01*
X145727242Y-75501923D01*
X145774861Y-75549542D01*
X145822480Y-75644780D01*
X145822480Y-75740019D01*
X145774861Y-75835257D01*
X145727242Y-75882876D01*
X145632004Y-75930495D01*
X145441528Y-75978114D01*
X145203433Y-75978114D01*
X145012957Y-75930495D01*
X144917719Y-75882876D01*
X144870100Y-75835257D01*
X144822480Y-75740019D01*
X144822480Y-75073352D02*
X144822480Y-74406685D01*
X145822480Y-74835257D01*
X150822480Y-77311447D02*
X150346290Y-77644780D01*
X150822480Y-77882876D02*
X149822480Y-77882876D01*
X149822480Y-77501923D01*
X149870100Y-77406685D01*
X149917719Y-77359066D01*
X150012957Y-77311447D01*
X150155814Y-77311447D01*
X150251052Y-77359066D01*
X150298671Y-77406685D01*
X150346290Y-77501923D01*
X150346290Y-77882876D01*
X150822480Y-76359066D02*
X150822480Y-76930495D01*
X150822480Y-76644780D02*
X149822480Y-76644780D01*
X149965338Y-76740019D01*
X150060576Y-76835257D01*
X150108195Y-76930495D01*
X149822480Y-75740019D02*
X149822480Y-75644780D01*
X149870100Y-75549542D01*
X149917719Y-75501923D01*
X150012957Y-75454304D01*
X150203433Y-75406685D01*
X150441528Y-75406685D01*
X150632004Y-75454304D01*
X150727242Y-75501923D01*
X150774861Y-75549542D01*
X150822480Y-75644780D01*
X150822480Y-75740019D01*
X150774861Y-75835257D01*
X150727242Y-75882876D01*
X150632004Y-75930495D01*
X150441528Y-75978114D01*
X150203433Y-75978114D01*
X150012957Y-75930495D01*
X149917719Y-75882876D01*
X149870100Y-75835257D01*
X149822480Y-75740019D01*
X150251052Y-74835257D02*
X150203433Y-74930495D01*
X150155814Y-74978114D01*
X150060576Y-75025733D01*
X150012957Y-75025733D01*
X149917719Y-74978114D01*
X149870100Y-74930495D01*
X149822480Y-74835257D01*
X149822480Y-74644780D01*
X149870100Y-74549542D01*
X149917719Y-74501923D01*
X150012957Y-74454304D01*
X150060576Y-74454304D01*
X150155814Y-74501923D01*
X150203433Y-74549542D01*
X150251052Y-74644780D01*
X150251052Y-74835257D01*
X150298671Y-74930495D01*
X150346290Y-74978114D01*
X150441528Y-75025733D01*
X150632004Y-75025733D01*
X150727242Y-74978114D01*
X150774861Y-74930495D01*
X150822480Y-74835257D01*
X150822480Y-74644780D01*
X150774861Y-74549542D01*
X150727242Y-74501923D01*
X150632004Y-74454304D01*
X150441528Y-74454304D01*
X150346290Y-74501923D01*
X150298671Y-74549542D01*
X150251052Y-74644780D01*
X143192480Y-94311447D02*
X142716290Y-94644780D01*
X143192480Y-94882876D02*
X142192480Y-94882876D01*
X142192480Y-94501923D01*
X142240100Y-94406685D01*
X142287719Y-94359066D01*
X142382957Y-94311447D01*
X142525814Y-94311447D01*
X142621052Y-94359066D01*
X142668671Y-94406685D01*
X142716290Y-94501923D01*
X142716290Y-94882876D01*
X143192480Y-93359066D02*
X143192480Y-93930495D01*
X143192480Y-93644780D02*
X142192480Y-93644780D01*
X142335338Y-93740019D01*
X142430576Y-93835257D01*
X142478195Y-93930495D01*
X142192480Y-92740019D02*
X142192480Y-92644780D01*
X142240100Y-92549542D01*
X142287719Y-92501923D01*
X142382957Y-92454304D01*
X142573433Y-92406685D01*
X142811528Y-92406685D01*
X143002004Y-92454304D01*
X143097242Y-92501923D01*
X143144861Y-92549542D01*
X143192480Y-92644780D01*
X143192480Y-92740019D01*
X143144861Y-92835257D01*
X143097242Y-92882876D01*
X143002004Y-92930495D01*
X142811528Y-92978114D01*
X142573433Y-92978114D01*
X142382957Y-92930495D01*
X142287719Y-92882876D01*
X142240100Y-92835257D01*
X142192480Y-92740019D01*
X143192480Y-91930495D02*
X143192480Y-91740019D01*
X143144861Y-91644780D01*
X143097242Y-91597161D01*
X142954385Y-91501923D01*
X142763909Y-91454304D01*
X142382957Y-91454304D01*
X142287719Y-91501923D01*
X142240100Y-91549542D01*
X142192480Y-91644780D01*
X142192480Y-91835257D01*
X142240100Y-91930495D01*
X142287719Y-91978114D01*
X142382957Y-92025733D01*
X142621052Y-92025733D01*
X142716290Y-91978114D01*
X142763909Y-91930495D01*
X142811528Y-91835257D01*
X142811528Y-91644780D01*
X142763909Y-91549542D01*
X142716290Y-91501923D01*
X142621052Y-91454304D01*
X147192480Y-94311447D02*
X146716290Y-94644780D01*
X147192480Y-94882876D02*
X146192480Y-94882876D01*
X146192480Y-94501923D01*
X146240100Y-94406685D01*
X146287719Y-94359066D01*
X146382957Y-94311447D01*
X146525814Y-94311447D01*
X146621052Y-94359066D01*
X146668671Y-94406685D01*
X146716290Y-94501923D01*
X146716290Y-94882876D01*
X147192480Y-93359066D02*
X147192480Y-93930495D01*
X147192480Y-93644780D02*
X146192480Y-93644780D01*
X146335338Y-93740019D01*
X146430576Y-93835257D01*
X146478195Y-93930495D01*
X147192480Y-92406685D02*
X147192480Y-92978114D01*
X147192480Y-92692400D02*
X146192480Y-92692400D01*
X146335338Y-92787638D01*
X146430576Y-92882876D01*
X146478195Y-92978114D01*
X146192480Y-91787638D02*
X146192480Y-91692400D01*
X146240100Y-91597161D01*
X146287719Y-91549542D01*
X146382957Y-91501923D01*
X146573433Y-91454304D01*
X146811528Y-91454304D01*
X147002004Y-91501923D01*
X147097242Y-91549542D01*
X147144861Y-91597161D01*
X147192480Y-91692400D01*
X147192480Y-91787638D01*
X147144861Y-91882876D01*
X147097242Y-91930495D01*
X147002004Y-91978114D01*
X146811528Y-92025733D01*
X146573433Y-92025733D01*
X146382957Y-91978114D01*
X146287719Y-91930495D01*
X146240100Y-91882876D01*
X146192480Y-91787638D01*
X132061052Y-109464780D02*
X131727719Y-108988590D01*
X131489623Y-109464780D02*
X131489623Y-108464780D01*
X131870576Y-108464780D01*
X131965814Y-108512400D01*
X132013433Y-108560019D01*
X132061052Y-108655257D01*
X132061052Y-108798114D01*
X132013433Y-108893352D01*
X131965814Y-108940971D01*
X131870576Y-108988590D01*
X131489623Y-108988590D01*
X133013433Y-109464780D02*
X132442004Y-109464780D01*
X132727719Y-109464780D02*
X132727719Y-108464780D01*
X132632480Y-108607638D01*
X132537242Y-108702876D01*
X132442004Y-108750495D01*
X133965814Y-109464780D02*
X133394385Y-109464780D01*
X133680100Y-109464780D02*
X133680100Y-108464780D01*
X133584861Y-108607638D01*
X133489623Y-108702876D01*
X133394385Y-108750495D01*
X134918195Y-109464780D02*
X134346766Y-109464780D01*
X134632480Y-109464780D02*
X134632480Y-108464780D01*
X134537242Y-108607638D01*
X134442004Y-108702876D01*
X134346766Y-108750495D01*
X149061052Y-109464780D02*
X148727719Y-108988590D01*
X148489623Y-109464780D02*
X148489623Y-108464780D01*
X148870576Y-108464780D01*
X148965814Y-108512400D01*
X149013433Y-108560019D01*
X149061052Y-108655257D01*
X149061052Y-108798114D01*
X149013433Y-108893352D01*
X148965814Y-108940971D01*
X148870576Y-108988590D01*
X148489623Y-108988590D01*
X150013433Y-109464780D02*
X149442004Y-109464780D01*
X149727719Y-109464780D02*
X149727719Y-108464780D01*
X149632480Y-108607638D01*
X149537242Y-108702876D01*
X149442004Y-108750495D01*
X150965814Y-109464780D02*
X150394385Y-109464780D01*
X150680100Y-109464780D02*
X150680100Y-108464780D01*
X150584861Y-108607638D01*
X150489623Y-108702876D01*
X150394385Y-108750495D01*
X151346766Y-108560019D02*
X151394385Y-108512400D01*
X151489623Y-108464780D01*
X151727719Y-108464780D01*
X151822957Y-108512400D01*
X151870576Y-108560019D01*
X151918195Y-108655257D01*
X151918195Y-108750495D01*
X151870576Y-108893352D01*
X151299147Y-109464780D01*
X151918195Y-109464780D01*
X160572480Y-58168114D02*
X161286766Y-58168114D01*
X161429623Y-58215733D01*
X161524861Y-58310971D01*
X161572480Y-58453828D01*
X161572480Y-58549066D01*
X161572480Y-57168114D02*
X161572480Y-57739542D01*
X161572480Y-57453828D02*
X160572480Y-57453828D01*
X160715338Y-57549066D01*
X160810576Y-57644304D01*
X160858195Y-57739542D01*
X160572480Y-56549066D02*
X160572480Y-56453828D01*
X160620100Y-56358590D01*
X160667719Y-56310971D01*
X160762957Y-56263352D01*
X160953433Y-56215733D01*
X161191528Y-56215733D01*
X161382004Y-56263352D01*
X161477242Y-56310971D01*
X161524861Y-56358590D01*
X161572480Y-56453828D01*
X161572480Y-56549066D01*
X161524861Y-56644304D01*
X161477242Y-56691923D01*
X161382004Y-56739542D01*
X161191528Y-56787161D01*
X160953433Y-56787161D01*
X160762957Y-56739542D01*
X160667719Y-56691923D01*
X160620100Y-56644304D01*
X160572480Y-56549066D01*
X160905814Y-55358590D02*
X161572480Y-55358590D01*
X160524861Y-55596685D02*
X161239147Y-55834780D01*
X161239147Y-55215733D01*
X153393909Y-60334780D02*
X153393909Y-59334780D01*
X153774861Y-59334780D01*
X153870100Y-59382400D01*
X153917719Y-59430019D01*
X153965338Y-59525257D01*
X153965338Y-59668114D01*
X153917719Y-59763352D01*
X153870100Y-59810971D01*
X153774861Y-59858590D01*
X153393909Y-59858590D01*
X154393909Y-60334780D02*
X154393909Y-59334780D01*
X155441528Y-60334780D02*
X155108195Y-59858590D01*
X154870100Y-60334780D02*
X154870100Y-59334780D01*
X155251052Y-59334780D01*
X155346290Y-59382400D01*
X155393909Y-59430019D01*
X155441528Y-59525257D01*
X155441528Y-59668114D01*
X155393909Y-59763352D01*
X155346290Y-59810971D01*
X155251052Y-59858590D01*
X154870100Y-59858590D01*
X156060576Y-59334780D02*
X156155814Y-59334780D01*
X156251052Y-59382400D01*
X156298671Y-59430019D01*
X156346290Y-59525257D01*
X156393909Y-59715733D01*
X156393909Y-59953828D01*
X156346290Y-60144304D01*
X156298671Y-60239542D01*
X156251052Y-60287161D01*
X156155814Y-60334780D01*
X156060576Y-60334780D01*
X155965338Y-60287161D01*
X155917719Y-60239542D01*
X155870100Y-60144304D01*
X155822480Y-59953828D01*
X155822480Y-59715733D01*
X155870100Y-59525257D01*
X155917719Y-59430019D01*
X155965338Y-59382400D01*
X156060576Y-59334780D01*
X160572480Y-53168114D02*
X161286766Y-53168114D01*
X161429623Y-53215733D01*
X161524861Y-53310971D01*
X161572480Y-53453828D01*
X161572480Y-53549066D01*
X161572480Y-52168114D02*
X161572480Y-52739542D01*
X161572480Y-52453828D02*
X160572480Y-52453828D01*
X160715338Y-52549066D01*
X160810576Y-52644304D01*
X160858195Y-52739542D01*
X160572480Y-51549066D02*
X160572480Y-51453828D01*
X160620100Y-51358590D01*
X160667719Y-51310971D01*
X160762957Y-51263352D01*
X160953433Y-51215733D01*
X161191528Y-51215733D01*
X161382004Y-51263352D01*
X161477242Y-51310971D01*
X161524861Y-51358590D01*
X161572480Y-51453828D01*
X161572480Y-51549066D01*
X161524861Y-51644304D01*
X161477242Y-51691923D01*
X161382004Y-51739542D01*
X161191528Y-51787161D01*
X160953433Y-51787161D01*
X160762957Y-51739542D01*
X160667719Y-51691923D01*
X160620100Y-51644304D01*
X160572480Y-51549066D01*
X160572480Y-50310971D02*
X160572480Y-50787161D01*
X161048671Y-50834780D01*
X161001052Y-50787161D01*
X160953433Y-50691923D01*
X160953433Y-50453828D01*
X161001052Y-50358590D01*
X161048671Y-50310971D01*
X161143909Y-50263352D01*
X161382004Y-50263352D01*
X161477242Y-50310971D01*
X161524861Y-50358590D01*
X161572480Y-50453828D01*
X161572480Y-50691923D01*
X161524861Y-50787161D01*
X161477242Y-50834780D01*
X165893909Y-60334780D02*
X165893909Y-59334780D01*
X166274861Y-59334780D01*
X166370100Y-59382400D01*
X166417719Y-59430019D01*
X166465338Y-59525257D01*
X166465338Y-59668114D01*
X166417719Y-59763352D01*
X166370100Y-59810971D01*
X166274861Y-59858590D01*
X165893909Y-59858590D01*
X166893909Y-60334780D02*
X166893909Y-59334780D01*
X167941528Y-60334780D02*
X167608195Y-59858590D01*
X167370100Y-60334780D02*
X167370100Y-59334780D01*
X167751052Y-59334780D01*
X167846290Y-59382400D01*
X167893909Y-59430019D01*
X167941528Y-59525257D01*
X167941528Y-59668114D01*
X167893909Y-59763352D01*
X167846290Y-59810971D01*
X167751052Y-59858590D01*
X167370100Y-59858590D01*
X168893909Y-60334780D02*
X168322480Y-60334780D01*
X168608195Y-60334780D02*
X168608195Y-59334780D01*
X168512957Y-59477638D01*
X168417719Y-59572876D01*
X168322480Y-59620495D01*
X135492480Y-105286685D02*
X136302004Y-105286685D01*
X136397242Y-105239066D01*
X136444861Y-105191447D01*
X136492480Y-105096209D01*
X136492480Y-104905733D01*
X136444861Y-104810495D01*
X136397242Y-104762876D01*
X136302004Y-104715257D01*
X135492480Y-104715257D01*
X136492480Y-103715257D02*
X136492480Y-104286685D01*
X136492480Y-104000971D02*
X135492480Y-104000971D01*
X135635338Y-104096209D01*
X135730576Y-104191447D01*
X135778195Y-104286685D01*
X135492480Y-103096209D02*
X135492480Y-103000971D01*
X135540100Y-102905733D01*
X135587719Y-102858114D01*
X135682957Y-102810495D01*
X135873433Y-102762876D01*
X136111528Y-102762876D01*
X136302004Y-102810495D01*
X136397242Y-102858114D01*
X136444861Y-102905733D01*
X136492480Y-103000971D01*
X136492480Y-103096209D01*
X136444861Y-103191447D01*
X136397242Y-103239066D01*
X136302004Y-103286685D01*
X136111528Y-103334304D01*
X135873433Y-103334304D01*
X135682957Y-103286685D01*
X135587719Y-103239066D01*
X135540100Y-103191447D01*
X135492480Y-103096209D01*
X136492480Y-101810495D02*
X136492480Y-102381923D01*
X136492480Y-102096209D02*
X135492480Y-102096209D01*
X135635338Y-102191447D01*
X135730576Y-102286685D01*
X135778195Y-102381923D01*
M02*
