M48
; DRILL file {KiCad 5.1.9+dfsg1-1~bpo10+1} date Sun Jul  4 13:04:41 2021
; FORMAT={-:-/ absolute / inch / decimal}
; #@! TF.CreationDate,2021-07-04T13:04:41+00:00
; #@! TF.GenerationSoftware,Kicad,Pcbnew,5.1.9+dfsg1-1~bpo10+1
; #@! TF.FileFunction,Plated,1,2,PTH
FMAT,2
INCH
T1C0.0157
T2C0.0315
T3C0.0354
T4C0.0394
T5C0.0400
T6C0.0433
T7C0.0453
%
G90
G05
T1
X4.8768Y-3.4206
X5.0146Y-3.3418
X5.0539Y-3.3615
X5.0539Y-3.4206
T2
X5.0933Y-4.3851
X5.3295Y-2.8497
X5.3295Y-3.1497
X5.3933Y-4.3851
X5.4476Y-3.9277
X5.4476Y-4.2277
X5.5264Y-2.8497
X5.5264Y-3.1497
X5.5264Y-3.519
X5.5264Y-3.819
X5.5476Y-3.9277
X5.5476Y-4.2277
X5.6476Y-3.9277
X5.6476Y-4.2277
X5.6839Y-3.519
X5.6839Y-3.819
X5.7232Y-2.8497
X5.7232Y-3.1497
X5.7476Y-3.9277
X5.7476Y-4.2277
X5.7626Y-4.3851
X5.9201Y-2.8497
X5.9201Y-3.1497
X6.0626Y-4.3851
T3
X5.3295Y-2.6316
X5.3295Y-2.7316
X5.5264Y-2.6316
X5.5264Y-2.7316
X5.7232Y-2.6316
X5.7232Y-2.7316
X5.9201Y-2.6316
X5.9201Y-2.7316
T4
X4.9638Y-2.2493
X5.0638Y-2.2493
X5.1638Y-2.2493
T5
X4.5815Y-2.456
X4.5815Y-2.556
X4.5815Y-2.656
X4.5815Y-2.756
X4.5815Y-2.856
X4.5815Y-2.956
X4.5815Y-3.056
X4.5815Y-3.156
X4.5815Y-3.256
X4.5815Y-3.356
X4.5815Y-3.456
X4.5815Y-3.556
X4.5815Y-3.656
X4.5815Y-3.756
X4.5815Y-3.856
X4.5815Y-3.956
X4.5815Y-4.056
X4.5815Y-4.156
X4.5815Y-4.256
X4.5815Y-4.356
X4.5815Y-4.456
X4.5815Y-4.556
X4.5815Y-4.656
X4.6815Y-2.456
X4.6815Y-2.556
X4.6815Y-2.656
X4.6815Y-2.756
X4.6815Y-2.856
X4.6815Y-2.956
X4.6815Y-3.056
X4.6815Y-3.156
X4.6815Y-3.256
X4.6815Y-3.356
X4.6815Y-3.456
X4.6815Y-3.556
X4.6815Y-3.656
X4.6815Y-3.756
X4.6815Y-3.856
X4.6815Y-3.956
X4.6815Y-4.056
X4.6815Y-4.156
X4.6815Y-4.256
X4.6815Y-4.356
X4.6815Y-4.456
X4.6815Y-4.556
X4.6815Y-4.656
X6.4815Y-2.456
X6.4815Y-2.556
X6.4815Y-2.656
X6.4815Y-2.756
X6.4815Y-2.856
X6.4815Y-2.956
X6.4815Y-3.056
X6.4815Y-3.156
X6.4815Y-3.256
X6.4815Y-3.356
X6.4815Y-3.456
X6.4815Y-3.556
X6.4815Y-3.656
X6.4815Y-3.756
X6.4815Y-3.856
X6.4815Y-3.956
X6.4815Y-4.056
X6.4815Y-4.156
X6.4815Y-4.256
X6.4815Y-4.356
X6.4815Y-4.456
X6.4815Y-4.556
X6.4815Y-4.656
X6.5815Y-2.456
X6.5815Y-2.556
X6.5815Y-2.656
X6.5815Y-2.756
X6.5815Y-2.856
X6.5815Y-2.956
X6.5815Y-3.056
X6.5815Y-3.156
X6.5815Y-3.256
X6.5815Y-3.356
X6.5815Y-3.456
X6.5815Y-3.556
X6.5815Y-3.656
X6.5815Y-3.756
X6.5815Y-3.856
X6.5815Y-3.956
X6.5815Y-4.056
X6.5815Y-4.156
X6.5815Y-4.256
X6.5815Y-4.356
X6.5815Y-4.456
X6.5815Y-4.556
X6.5815Y-4.656
T6
X4.6602Y-2.1115
X4.6602Y-2.2115
X4.7819Y-1.8556
X4.9358Y-2.5938
X4.9358Y-2.8497
X5.113Y-2.5938
X5.113Y-2.8497
X5.1819Y-1.8556
X6.1169Y-2.5938
X6.1169Y-2.8497
X6.176Y-2.041
X6.176Y-2.141
X6.176Y-2.241
X6.2941Y-2.5938
X6.2941Y-2.8497
X6.5106Y-2.0395
X6.5106Y-2.1395
X6.5106Y-2.2395
T7
X5.1327Y-4.7001
X5.3295Y-4.7001
X5.802Y-4.7001
X5.9988Y-4.7001
T0
M30
