%TF.GenerationSoftware,KiCad,Pcbnew,5.1.9+dfsg1-1~bpo10+1*%
%TF.CreationDate,2021-07-04T13:04:41+00:00*%
%TF.ProjectId,bbbalarm,62626261-6c61-4726-9d2e-6b696361645f,rev?*%
%TF.SameCoordinates,Original*%
%TF.FileFunction,Copper,L2,Bot*%
%TF.FilePolarity,Positive*%
%FSLAX46Y46*%
G04 Gerber Fmt 4.6, Leading zero omitted, Abs format (unit mm)*
G04 Created by KiCad (PCBNEW 5.1.9+dfsg1-1~bpo10+1) date 2021-07-04 13:04:41*
%MOMM*%
%LPD*%
G01*
G04 APERTURE LIST*
%TA.AperFunction,ComponentPad*%
%ADD10R,1.727200X1.727200*%
%TD*%
%TA.AperFunction,ComponentPad*%
%ADD11O,1.727200X1.727200*%
%TD*%
%TA.AperFunction,ComponentPad*%
%ADD12C,2.000000*%
%TD*%
%TA.AperFunction,ComponentPad*%
%ADD13R,2.200000X2.200000*%
%TD*%
%TA.AperFunction,ComponentPad*%
%ADD14O,2.200000X2.200000*%
%TD*%
%TA.AperFunction,ComponentPad*%
%ADD15C,2.200000*%
%TD*%
%TA.AperFunction,ComponentPad*%
%ADD16C,1.800000*%
%TD*%
%TA.AperFunction,ComponentPad*%
%ADD17R,1.800000X1.800000*%
%TD*%
%TA.AperFunction,ComponentPad*%
%ADD18R,1.500000X3.000000*%
%TD*%
%TA.AperFunction,ComponentPad*%
%ADD19O,1.500000X3.000000*%
%TD*%
%TA.AperFunction,ComponentPad*%
%ADD20C,1.600000*%
%TD*%
%TA.AperFunction,ComponentPad*%
%ADD21O,1.600000X1.600000*%
%TD*%
%TA.AperFunction,ComponentPad*%
%ADD22R,1.600000X1.600000*%
%TD*%
%TA.AperFunction,ViaPad*%
%ADD23C,0.600000*%
%TD*%
%TA.AperFunction,Conductor*%
%ADD24C,0.500000*%
%TD*%
%TA.AperFunction,Conductor*%
%ADD25C,0.250000*%
%TD*%
%TA.AperFunction,Conductor*%
%ADD26C,0.254000*%
%TD*%
%TA.AperFunction,Conductor*%
%ADD27C,0.100000*%
%TD*%
G04 APERTURE END LIST*
D10*
%TO.P,P9,1*%
%TO.N,GNDD*%
X116370100Y-62382400D03*
D11*
%TO.P,P9,2*%
X118910100Y-62382400D03*
%TO.P,P9,3*%
%TO.N,+3V3*%
X116370100Y-64922400D03*
%TO.P,P9,4*%
X118910100Y-64922400D03*
%TO.P,P9,5*%
%TO.N,+5V*%
X116370100Y-67462400D03*
%TO.P,P9,6*%
X118910100Y-67462400D03*
%TO.P,P9,7*%
%TO.N,SYS_5V*%
X116370100Y-70002400D03*
%TO.P,P9,8*%
X118910100Y-70002400D03*
%TO.P,P9,9*%
%TO.N,PWR_BUT*%
X116370100Y-72542400D03*
%TO.P,P9,10*%
%TO.N,SYS_RESETN*%
X118910100Y-72542400D03*
%TO.P,P9,11*%
%TO.N,N/C*%
X116370100Y-75082400D03*
%TO.P,P9,12*%
X118910100Y-75082400D03*
%TO.P,P9,13*%
X116370100Y-77622400D03*
%TO.P,P9,14*%
X118910100Y-77622400D03*
%TO.P,P9,15*%
X116370100Y-80162400D03*
%TO.P,P9,16*%
X118910100Y-80162400D03*
%TO.P,P9,17*%
X116370100Y-82702400D03*
%TO.P,P9,18*%
X118910100Y-82702400D03*
%TO.P,P9,19*%
%TO.N,/SCL*%
X116370100Y-85242400D03*
%TO.P,P9,20*%
%TO.N,/SDA*%
X118910100Y-85242400D03*
%TO.P,P9,21*%
%TO.N,N/C*%
X116370100Y-87782400D03*
%TO.P,P9,22*%
X118910100Y-87782400D03*
%TO.P,P9,23*%
X116370100Y-90322400D03*
%TO.P,P9,24*%
X118910100Y-90322400D03*
%TO.P,P9,25*%
X116370100Y-92862400D03*
%TO.P,P9,26*%
X118910100Y-92862400D03*
%TO.P,P9,27*%
X116370100Y-95402400D03*
%TO.P,P9,28*%
X118910100Y-95402400D03*
%TO.P,P9,29*%
X116370100Y-97942400D03*
%TO.P,P9,30*%
X118910100Y-97942400D03*
%TO.P,P9,31*%
X116370100Y-100482400D03*
%TO.P,P9,32*%
X118910100Y-100482400D03*
%TO.P,P9,33*%
X116370100Y-103022400D03*
%TO.P,P9,34*%
X118910100Y-103022400D03*
%TO.P,P9,35*%
X116370100Y-105562400D03*
%TO.P,P9,36*%
X118910100Y-105562400D03*
%TO.P,P9,37*%
X116370100Y-108102400D03*
%TO.P,P9,38*%
X118910100Y-108102400D03*
%TO.P,P9,39*%
X116370100Y-110642400D03*
%TO.P,P9,40*%
X118910100Y-110642400D03*
%TO.P,P9,41*%
X116370100Y-113182400D03*
%TO.P,P9,42*%
X118910100Y-113182400D03*
%TO.P,P9,43*%
%TO.N,GNDD*%
X116370100Y-115722400D03*
%TO.P,P9,44*%
X118910100Y-115722400D03*
%TO.P,P9,45*%
X116370100Y-118262400D03*
%TO.P,P9,46*%
X118910100Y-118262400D03*
%TD*%
D10*
%TO.P,P8,1*%
%TO.N,GNDD*%
X164630100Y-62382400D03*
D11*
%TO.P,P8,2*%
X167170100Y-62382400D03*
%TO.P,P8,3*%
%TO.N,N/C*%
X164630100Y-64922400D03*
%TO.P,P8,4*%
X167170100Y-64922400D03*
%TO.P,P8,5*%
X164630100Y-67462400D03*
%TO.P,P8,6*%
X167170100Y-67462400D03*
%TO.P,P8,7*%
%TO.N,/LED0*%
X164630100Y-70002400D03*
%TO.P,P8,8*%
%TO.N,/PIR0*%
X167170100Y-70002400D03*
%TO.P,P8,9*%
%TO.N,/LED1*%
X164630100Y-72542400D03*
%TO.P,P8,10*%
%TO.N,/PIR1*%
X167170100Y-72542400D03*
%TO.P,P8,11*%
%TO.N,/LED2*%
X164630100Y-75082400D03*
%TO.P,P8,12*%
%TO.N,/IN0*%
X167170100Y-75082400D03*
%TO.P,P8,13*%
%TO.N,/LED3*%
X164630100Y-77622400D03*
%TO.P,P8,14*%
%TO.N,/IN1*%
X167170100Y-77622400D03*
%TO.P,P8,15*%
%TO.N,N/C*%
X164630100Y-80162400D03*
%TO.P,P8,16*%
X167170100Y-80162400D03*
%TO.P,P8,17*%
X164630100Y-82702400D03*
%TO.P,P8,18*%
X167170100Y-82702400D03*
%TO.P,P8,19*%
X164630100Y-85242400D03*
%TO.P,P8,20*%
X167170100Y-85242400D03*
%TO.P,P8,21*%
X164630100Y-87782400D03*
%TO.P,P8,22*%
X167170100Y-87782400D03*
%TO.P,P8,23*%
X164630100Y-90322400D03*
%TO.P,P8,24*%
X167170100Y-90322400D03*
%TO.P,P8,25*%
X164630100Y-92862400D03*
%TO.P,P8,26*%
X167170100Y-92862400D03*
%TO.P,P8,27*%
X164630100Y-95402400D03*
%TO.P,P8,28*%
X167170100Y-95402400D03*
%TO.P,P8,29*%
X164630100Y-97942400D03*
%TO.P,P8,30*%
X167170100Y-97942400D03*
%TO.P,P8,31*%
X164630100Y-100482400D03*
%TO.P,P8,32*%
X167170100Y-100482400D03*
%TO.P,P8,33*%
X164630100Y-103022400D03*
%TO.P,P8,34*%
X167170100Y-103022400D03*
%TO.P,P8,35*%
X164630100Y-105562400D03*
%TO.P,P8,36*%
X167170100Y-105562400D03*
%TO.P,P8,37*%
X164630100Y-108102400D03*
%TO.P,P8,38*%
X167170100Y-108102400D03*
%TO.P,P8,39*%
X164630100Y-110642400D03*
%TO.P,P8,40*%
X167170100Y-110642400D03*
%TO.P,P8,41*%
X164630100Y-113182400D03*
%TO.P,P8,42*%
X167170100Y-113182400D03*
%TO.P,P8,43*%
X164630100Y-115722400D03*
%TO.P,P8,44*%
X167170100Y-115722400D03*
%TO.P,P8,45*%
X164630100Y-118262400D03*
%TO.P,P8,46*%
X167170100Y-118262400D03*
%TD*%
D12*
%TO.P,SW101,2*%
%TO.N,GNDD*%
X159870100Y-72382400D03*
%TO.P,SW101,1*%
%TO.N,SYS_RESETN*%
X155370100Y-72382400D03*
%TO.P,SW101,2*%
%TO.N,GNDD*%
X159870100Y-65882400D03*
%TO.P,SW101,1*%
%TO.N,SYS_RESETN*%
X155370100Y-65882400D03*
%TD*%
%TO.P,SW102,1*%
%TO.N,PWR_BUT*%
X125370100Y-65882400D03*
%TO.P,SW102,2*%
%TO.N,GNDD*%
X129870100Y-65882400D03*
%TO.P,SW102,1*%
%TO.N,PWR_BUT*%
X125370100Y-72382400D03*
%TO.P,SW102,2*%
%TO.N,GNDD*%
X129870100Y-72382400D03*
%TD*%
D13*
%TO.P,D114,1*%
%TO.N,Net-(D114-Pad1)*%
X131620100Y-47132400D03*
D14*
%TO.P,D114,2*%
%TO.N,Net-(D114-Pad2)*%
X121460100Y-47132400D03*
%TD*%
D13*
%TO.P,J102,1*%
%TO.N,GNDD*%
X118370100Y-53632400D03*
D15*
%TO.P,J102,2*%
%TO.N,Net-(D114-Pad2)*%
X118370100Y-56172400D03*
%TD*%
D12*
%TO.P,U104,1*%
%TO.N,Net-(D114-Pad1)*%
X126080100Y-57132400D03*
%TO.P,U104,2*%
%TO.N,GNDD*%
X128620100Y-57132400D03*
%TO.P,U104,3*%
%TO.N,+5V*%
X131160100Y-57132400D03*
%TD*%
D16*
%TO.P,D101,2*%
%TO.N,+3V3*%
X135370100Y-66842400D03*
D17*
%TO.P,D101,1*%
%TO.N,Net-(D101-Pad1)*%
X135370100Y-69382400D03*
%TD*%
%TO.P,D102,1*%
%TO.N,Net-(D102-Pad1)*%
X140370100Y-69382400D03*
D16*
%TO.P,D102,2*%
%TO.N,+3V3*%
X140370100Y-66842400D03*
%TD*%
%TO.P,D103,2*%
%TO.N,+3V3*%
X145370100Y-66842400D03*
D17*
%TO.P,D103,1*%
%TO.N,Net-(D103-Pad1)*%
X145370100Y-69382400D03*
%TD*%
%TO.P,D104,1*%
%TO.N,Net-(D104-Pad1)*%
X150370100Y-69382400D03*
D16*
%TO.P,D104,2*%
%TO.N,+3V3*%
X150370100Y-66842400D03*
%TD*%
D18*
%TO.P,J101,1*%
%TO.N,Net-(J101-Pad1)*%
X130370100Y-119382400D03*
D19*
%TO.P,J101,2*%
%TO.N,Net-(J101-Pad2)*%
X135370100Y-119382400D03*
%TD*%
%TO.P,J103,2*%
%TO.N,Net-(J103-Pad2)*%
X152370100Y-119382400D03*
D18*
%TO.P,J103,1*%
%TO.N,Net-(J103-Pad1)*%
X147370100Y-119382400D03*
%TD*%
D20*
%TO.P,R105,1*%
%TO.N,Net-(D101-Pad1)*%
X135370100Y-72382400D03*
D21*
%TO.P,R105,2*%
%TO.N,/LED0*%
X135370100Y-80002400D03*
%TD*%
%TO.P,R106,2*%
%TO.N,/LED1*%
X140370100Y-80002400D03*
D20*
%TO.P,R106,1*%
%TO.N,Net-(D102-Pad1)*%
X140370100Y-72382400D03*
%TD*%
%TO.P,R107,1*%
%TO.N,Net-(D103-Pad1)*%
X145370100Y-72382400D03*
D21*
%TO.P,R107,2*%
%TO.N,/LED2*%
X145370100Y-80002400D03*
%TD*%
%TO.P,R108,2*%
%TO.N,/LED3*%
X150370100Y-80002400D03*
D20*
%TO.P,R108,1*%
%TO.N,Net-(D104-Pad1)*%
X150370100Y-72382400D03*
%TD*%
%TO.P,R109,1*%
%TO.N,+3V3*%
X140370100Y-89382400D03*
D21*
%TO.P,R109,2*%
%TO.N,/IN0*%
X140370100Y-97002400D03*
%TD*%
%TO.P,R110,2*%
%TO.N,/IN1*%
X144370100Y-97002400D03*
D20*
%TO.P,R110,1*%
%TO.N,+3V3*%
X144370100Y-89382400D03*
%TD*%
%TO.P,R111,1*%
%TO.N,Net-(R111-Pad1)*%
X129370100Y-111382400D03*
D21*
%TO.P,R111,2*%
%TO.N,Net-(J101-Pad2)*%
X136990100Y-111382400D03*
%TD*%
%TO.P,R112,2*%
%TO.N,Net-(J103-Pad2)*%
X153990100Y-111382400D03*
D20*
%TO.P,R112,1*%
%TO.N,Net-(R112-Pad1)*%
X146370100Y-111382400D03*
%TD*%
D13*
%TO.P,J104,1*%
%TO.N,+5V*%
X156870100Y-51842400D03*
D15*
%TO.P,J104,2*%
%TO.N,/PIR0*%
X156870100Y-54382400D03*
%TO.P,J104,3*%
%TO.N,GNDD*%
X156870100Y-56922400D03*
%TD*%
%TO.P,J105,3*%
%TO.N,GNDD*%
X165370100Y-51802400D03*
%TO.P,J105,2*%
%TO.N,/PIR1*%
X165370100Y-54342400D03*
D13*
%TO.P,J105,1*%
%TO.N,+5V*%
X165370100Y-56882400D03*
%TD*%
D22*
%TO.P,U101,1*%
%TO.N,Net-(R111-Pad1)*%
X138370100Y-107382400D03*
D21*
%TO.P,U101,5*%
%TO.N,GNDD*%
X145990100Y-99762400D03*
%TO.P,U101,2*%
%TO.N,Net-(J101-Pad1)*%
X140910100Y-107382400D03*
%TO.P,U101,6*%
%TO.N,/IN1*%
X143450100Y-99762400D03*
%TO.P,U101,3*%
%TO.N,Net-(R112-Pad1)*%
X143450100Y-107382400D03*
%TO.P,U101,7*%
%TO.N,/IN0*%
X140910100Y-99762400D03*
%TO.P,U101,4*%
%TO.N,Net-(J103-Pad1)*%
X145990100Y-107382400D03*
%TO.P,U101,8*%
%TO.N,+5V*%
X138370100Y-99762400D03*
%TD*%
D23*
%TO.N,GNDD*%
X123870100Y-86882400D03*
X128370100Y-85382400D03*
X128370100Y-86882400D03*
%TO.N,+3V3*%
X127370100Y-84882400D03*
%TD*%
D24*
%TO.N,+3V3*%
X150370100Y-66842400D02*
X135370100Y-66842400D01*
X119400101Y-64432399D02*
X118910100Y-64922400D01*
X132960099Y-64432399D02*
X119400101Y-64432399D01*
X135370100Y-66842400D02*
X132960099Y-64432399D01*
X120923711Y-78436011D02*
X127370100Y-84882400D01*
X118910100Y-64922400D02*
X120923711Y-66936011D01*
X120923711Y-66936011D02*
X120923711Y-78436011D01*
%TO.N,+5V*%
X120223701Y-68776001D02*
X118910100Y-67462400D01*
X120223701Y-85625999D02*
X120223701Y-68776001D01*
X134360102Y-99762400D02*
X120223701Y-85625999D01*
X138370100Y-99762400D02*
X134360102Y-99762400D01*
D25*
%TO.N,/PIR0*%
X165981499Y-68813799D02*
X167170100Y-70002400D01*
X164222369Y-68813799D02*
X165981499Y-68813799D01*
X163441499Y-68032929D02*
X164222369Y-68813799D01*
X163441499Y-61384797D02*
X163441499Y-68032929D01*
X156870100Y-54813398D02*
X163441499Y-61384797D01*
X156870100Y-54382400D02*
X156870100Y-54813398D01*
%TO.N,/PIR1*%
X167035099Y-60488269D02*
X168358701Y-61811871D01*
X167035099Y-55762397D02*
X167035099Y-60488269D01*
X168358701Y-71353799D02*
X167170100Y-72542400D01*
X165615102Y-54342400D02*
X167035099Y-55762397D01*
X168358701Y-61811871D02*
X168358701Y-71353799D01*
X165370100Y-54342400D02*
X165615102Y-54342400D01*
%TD*%
D26*
%TO.N,GNDD*%
X134783830Y-64256149D02*
X134780752Y-64287400D01*
X134793037Y-64412131D01*
X134829419Y-64532068D01*
X134888502Y-64642603D01*
X134968013Y-64739487D01*
X135064897Y-64818998D01*
X135175432Y-64878081D01*
X135295369Y-64914463D01*
X135420100Y-64926748D01*
X135451351Y-64923670D01*
X153168849Y-64923670D01*
X153200100Y-64926748D01*
X153231351Y-64923670D01*
X153244246Y-64922400D01*
X153324831Y-64914463D01*
X153444768Y-64878081D01*
X153555303Y-64818998D01*
X153652187Y-64739487D01*
X153731698Y-64642603D01*
X153790781Y-64532068D01*
X153827163Y-64412131D01*
X153836370Y-64318651D01*
X153836370Y-64318650D01*
X153839448Y-64287400D01*
X153836370Y-64256149D01*
X153836370Y-58129112D01*
X155842993Y-58129112D01*
X155950826Y-58403738D01*
X156257484Y-58554616D01*
X156587685Y-58642769D01*
X156928739Y-58664809D01*
X157267539Y-58619889D01*
X157591066Y-58509736D01*
X157789374Y-58403738D01*
X157897207Y-58129112D01*
X156870100Y-57102005D01*
X155842993Y-58129112D01*
X153836370Y-58129112D01*
X153836370Y-58000526D01*
X153984448Y-58061861D01*
X154213388Y-58107400D01*
X154446812Y-58107400D01*
X154675752Y-58061861D01*
X154891408Y-57972534D01*
X155085494Y-57842850D01*
X155250550Y-57677794D01*
X155279655Y-57634235D01*
X155282764Y-57643366D01*
X155388762Y-57841674D01*
X155663388Y-57949507D01*
X156690495Y-56922400D01*
X155663388Y-55895293D01*
X155388762Y-56003126D01*
X155283713Y-56216638D01*
X155250550Y-56167006D01*
X155085494Y-56001950D01*
X154891408Y-55872266D01*
X154675752Y-55782939D01*
X154446812Y-55737400D01*
X154213388Y-55737400D01*
X153984448Y-55782939D01*
X153836370Y-55844274D01*
X153836370Y-55460526D01*
X153984448Y-55521861D01*
X154213388Y-55567400D01*
X154446812Y-55567400D01*
X154675752Y-55521861D01*
X154891408Y-55432534D01*
X155085494Y-55302850D01*
X155250550Y-55137794D01*
X155284190Y-55087448D01*
X155332563Y-55204231D01*
X155522437Y-55488398D01*
X155764102Y-55730063D01*
X156045174Y-55917869D01*
X156870100Y-56742795D01*
X156884243Y-56728653D01*
X157063848Y-56908258D01*
X157049705Y-56922400D01*
X158076812Y-57949507D01*
X158351438Y-57841674D01*
X158502316Y-57535016D01*
X158505393Y-57523492D01*
X162681499Y-61699599D01*
X162681500Y-67995597D01*
X162677823Y-68032929D01*
X162692497Y-68181914D01*
X162735953Y-68325175D01*
X162806525Y-68457205D01*
X162859334Y-68521552D01*
X162901499Y-68572930D01*
X162930497Y-68596728D01*
X163431937Y-69098169D01*
X163302058Y-69292547D01*
X163189090Y-69565275D01*
X163131500Y-69854801D01*
X163131500Y-70149999D01*
X163189090Y-70439525D01*
X163302058Y-70712253D01*
X163466061Y-70957702D01*
X163674798Y-71166439D01*
X163833381Y-71272400D01*
X163674798Y-71378361D01*
X163466061Y-71587098D01*
X163302058Y-71832547D01*
X163189090Y-72105275D01*
X163131500Y-72394801D01*
X163131500Y-72689999D01*
X163189090Y-72979525D01*
X163302058Y-73252253D01*
X163466061Y-73497702D01*
X163674798Y-73706439D01*
X163833381Y-73812400D01*
X163674798Y-73918361D01*
X163466061Y-74127098D01*
X163302058Y-74372547D01*
X163189090Y-74645275D01*
X163131500Y-74934801D01*
X163131500Y-75229999D01*
X163189090Y-75519525D01*
X163302058Y-75792253D01*
X163466061Y-76037702D01*
X163674798Y-76246439D01*
X163833381Y-76352400D01*
X163674798Y-76458361D01*
X163466061Y-76667098D01*
X163302058Y-76912547D01*
X163189090Y-77185275D01*
X163131500Y-77474801D01*
X163131500Y-77769999D01*
X163189090Y-78059525D01*
X163302058Y-78332253D01*
X163466061Y-78577702D01*
X163674798Y-78786439D01*
X163833381Y-78892400D01*
X163674798Y-78998361D01*
X163466061Y-79207098D01*
X163302058Y-79452547D01*
X163189090Y-79725275D01*
X163131500Y-80014801D01*
X163131500Y-80309999D01*
X163189090Y-80599525D01*
X163302058Y-80872253D01*
X163466061Y-81117702D01*
X163674798Y-81326439D01*
X163833381Y-81432400D01*
X163674798Y-81538361D01*
X163466061Y-81747098D01*
X163302058Y-81992547D01*
X163189090Y-82265275D01*
X163131500Y-82554801D01*
X163131500Y-82849999D01*
X163189090Y-83139525D01*
X163302058Y-83412253D01*
X163466061Y-83657702D01*
X163674798Y-83866439D01*
X163833381Y-83972400D01*
X163674798Y-84078361D01*
X163466061Y-84287098D01*
X163302058Y-84532547D01*
X163189090Y-84805275D01*
X163131500Y-85094801D01*
X163131500Y-85389999D01*
X163189090Y-85679525D01*
X163302058Y-85952253D01*
X163466061Y-86197702D01*
X163674798Y-86406439D01*
X163833381Y-86512400D01*
X163674798Y-86618361D01*
X163466061Y-86827098D01*
X163302058Y-87072547D01*
X163189090Y-87345275D01*
X163131500Y-87634801D01*
X163131500Y-87929999D01*
X163189090Y-88219525D01*
X163302058Y-88492253D01*
X163466061Y-88737702D01*
X163674798Y-88946439D01*
X163833381Y-89052400D01*
X163674798Y-89158361D01*
X163466061Y-89367098D01*
X163302058Y-89612547D01*
X163189090Y-89885275D01*
X163131500Y-90174801D01*
X163131500Y-90469999D01*
X163189090Y-90759525D01*
X163302058Y-91032253D01*
X163466061Y-91277702D01*
X163674798Y-91486439D01*
X163833381Y-91592400D01*
X163674798Y-91698361D01*
X163466061Y-91907098D01*
X163302058Y-92152547D01*
X163189090Y-92425275D01*
X163131500Y-92714801D01*
X163131500Y-93009999D01*
X163189090Y-93299525D01*
X163302058Y-93572253D01*
X163466061Y-93817702D01*
X163674798Y-94026439D01*
X163833381Y-94132400D01*
X163674798Y-94238361D01*
X163466061Y-94447098D01*
X163302058Y-94692547D01*
X163189090Y-94965275D01*
X163131500Y-95254801D01*
X163131500Y-95549999D01*
X163189090Y-95839525D01*
X163302058Y-96112253D01*
X163466061Y-96357702D01*
X163674798Y-96566439D01*
X163833381Y-96672400D01*
X163674798Y-96778361D01*
X163466061Y-96987098D01*
X163302058Y-97232547D01*
X163189090Y-97505275D01*
X163131500Y-97794801D01*
X163131500Y-98089999D01*
X163189090Y-98379525D01*
X163302058Y-98652253D01*
X163466061Y-98897702D01*
X163674798Y-99106439D01*
X163833381Y-99212400D01*
X163674798Y-99318361D01*
X163466061Y-99527098D01*
X163302058Y-99772547D01*
X163189090Y-100045275D01*
X163131500Y-100334801D01*
X163131500Y-100629999D01*
X163189090Y-100919525D01*
X163302058Y-101192253D01*
X163466061Y-101437702D01*
X163674798Y-101646439D01*
X163833381Y-101752400D01*
X163674798Y-101858361D01*
X163466061Y-102067098D01*
X163302058Y-102312547D01*
X163189090Y-102585275D01*
X163131500Y-102874801D01*
X163131500Y-103169999D01*
X163189090Y-103459525D01*
X163302058Y-103732253D01*
X163466061Y-103977702D01*
X163674798Y-104186439D01*
X163833381Y-104292400D01*
X163674798Y-104398361D01*
X163466061Y-104607098D01*
X163302058Y-104852547D01*
X163189090Y-105125275D01*
X163131500Y-105414801D01*
X163131500Y-105709999D01*
X163189090Y-105999525D01*
X163302058Y-106272253D01*
X163466061Y-106517702D01*
X163674798Y-106726439D01*
X163833381Y-106832400D01*
X163674798Y-106938361D01*
X163466061Y-107147098D01*
X163302058Y-107392547D01*
X163189090Y-107665275D01*
X163131500Y-107954801D01*
X163131500Y-108249999D01*
X163189090Y-108539525D01*
X163302058Y-108812253D01*
X163466061Y-109057702D01*
X163674798Y-109266439D01*
X163833381Y-109372400D01*
X163674798Y-109478361D01*
X163466061Y-109687098D01*
X163302058Y-109932547D01*
X163189090Y-110205275D01*
X163131500Y-110494801D01*
X163131500Y-110789999D01*
X163189090Y-111079525D01*
X163302058Y-111352253D01*
X163466061Y-111597702D01*
X163674798Y-111806439D01*
X163833381Y-111912400D01*
X163674798Y-112018361D01*
X163466061Y-112227098D01*
X163302058Y-112472547D01*
X163189090Y-112745275D01*
X163131500Y-113034801D01*
X163131500Y-113329999D01*
X163189090Y-113619525D01*
X163302058Y-113892253D01*
X163466061Y-114137702D01*
X163674798Y-114346439D01*
X163833381Y-114452400D01*
X163674798Y-114558361D01*
X163466061Y-114767098D01*
X163302058Y-115012547D01*
X163189090Y-115285275D01*
X163131500Y-115574801D01*
X163131500Y-115869999D01*
X163189090Y-116159525D01*
X163302058Y-116432253D01*
X163466061Y-116677702D01*
X163674798Y-116886439D01*
X163833381Y-116992400D01*
X163674798Y-117098361D01*
X163466061Y-117307098D01*
X163302058Y-117552547D01*
X163189090Y-117825275D01*
X163131500Y-118114801D01*
X163131500Y-118409999D01*
X163189090Y-118699525D01*
X163302058Y-118972253D01*
X163466061Y-119217702D01*
X163674798Y-119426439D01*
X163920247Y-119590442D01*
X164192975Y-119703410D01*
X164482501Y-119761000D01*
X164777699Y-119761000D01*
X165067225Y-119703410D01*
X165339953Y-119590442D01*
X165585402Y-119426439D01*
X165794139Y-119217702D01*
X165900100Y-119059119D01*
X166006061Y-119217702D01*
X166214798Y-119426439D01*
X166460247Y-119590442D01*
X166732975Y-119703410D01*
X167022501Y-119761000D01*
X167317699Y-119761000D01*
X167607225Y-119703410D01*
X167879953Y-119590442D01*
X168000411Y-119509955D01*
X167766864Y-120324430D01*
X167253667Y-121569537D01*
X166604882Y-122749674D01*
X165828586Y-123850144D01*
X164934462Y-124857219D01*
X163933653Y-125758351D01*
X162838639Y-126542304D01*
X161663061Y-127199313D01*
X160421563Y-127721191D01*
X159129638Y-128101425D01*
X157803368Y-128335282D01*
X156442664Y-128420891D01*
X156374031Y-128421130D01*
X127182875Y-128421130D01*
X125820482Y-128344961D01*
X124492617Y-128120369D01*
X123198070Y-127749164D01*
X121952963Y-127235967D01*
X120772826Y-126587182D01*
X119672356Y-125810886D01*
X118665281Y-124916762D01*
X117764149Y-123915953D01*
X116980196Y-122820939D01*
X116323187Y-121645361D01*
X115801309Y-120403863D01*
X115535692Y-119501374D01*
X115734122Y-119619364D01*
X116011073Y-119717363D01*
X116243100Y-119596864D01*
X116243100Y-118389400D01*
X116497100Y-118389400D01*
X116497100Y-119596864D01*
X116729127Y-119717363D01*
X117006078Y-119619364D01*
X117258588Y-119469217D01*
X117476954Y-119272693D01*
X117640100Y-119054322D01*
X117803246Y-119272693D01*
X118021612Y-119469217D01*
X118274122Y-119619364D01*
X118551073Y-119717363D01*
X118783100Y-119596864D01*
X118783100Y-118389400D01*
X119037100Y-118389400D01*
X119037100Y-119596864D01*
X119269127Y-119717363D01*
X119546078Y-119619364D01*
X119798588Y-119469217D01*
X120016954Y-119272693D01*
X120192784Y-119037344D01*
X120319322Y-118772214D01*
X120365058Y-118621426D01*
X120243917Y-118389400D01*
X119037100Y-118389400D01*
X118783100Y-118389400D01*
X116497100Y-118389400D01*
X116243100Y-118389400D01*
X116223100Y-118389400D01*
X116223100Y-118135400D01*
X116243100Y-118135400D01*
X116243100Y-115849400D01*
X116497100Y-115849400D01*
X116497100Y-118135400D01*
X118783100Y-118135400D01*
X118783100Y-115849400D01*
X119037100Y-115849400D01*
X119037100Y-118135400D01*
X120243917Y-118135400D01*
X120365058Y-117903374D01*
X120358697Y-117882400D01*
X128982028Y-117882400D01*
X128982028Y-120882400D01*
X128994288Y-121006882D01*
X129030598Y-121126580D01*
X129089563Y-121236894D01*
X129168915Y-121333585D01*
X129265606Y-121412937D01*
X129375920Y-121471902D01*
X129495618Y-121508212D01*
X129620100Y-121520472D01*
X131120100Y-121520472D01*
X131244582Y-121508212D01*
X131364280Y-121471902D01*
X131474594Y-121412937D01*
X131571285Y-121333585D01*
X131650637Y-121236894D01*
X131709602Y-121126580D01*
X131745912Y-121006882D01*
X131758172Y-120882400D01*
X131758172Y-118564364D01*
X133985100Y-118564364D01*
X133985100Y-120200437D01*
X134005140Y-120403907D01*
X134084337Y-120664981D01*
X134212944Y-120905588D01*
X134386020Y-121116481D01*
X134596913Y-121289557D01*
X134837520Y-121418164D01*
X135098594Y-121497360D01*
X135370100Y-121524101D01*
X135641607Y-121497360D01*
X135902681Y-121418164D01*
X136143288Y-121289557D01*
X136354181Y-121116481D01*
X136527257Y-120905588D01*
X136655864Y-120664981D01*
X136735060Y-120403907D01*
X136755100Y-120200437D01*
X136755100Y-118564363D01*
X136735060Y-118360893D01*
X136655864Y-118099819D01*
X136539652Y-117882400D01*
X145982028Y-117882400D01*
X145982028Y-120882400D01*
X145994288Y-121006882D01*
X146030598Y-121126580D01*
X146089563Y-121236894D01*
X146168915Y-121333585D01*
X146265606Y-121412937D01*
X146375920Y-121471902D01*
X146495618Y-121508212D01*
X146620100Y-121520472D01*
X148120100Y-121520472D01*
X148244582Y-121508212D01*
X148364280Y-121471902D01*
X148474594Y-121412937D01*
X148571285Y-121333585D01*
X148650637Y-121236894D01*
X148709602Y-121126580D01*
X148745912Y-121006882D01*
X148758172Y-120882400D01*
X148758172Y-118564364D01*
X150985100Y-118564364D01*
X150985100Y-120200437D01*
X151005140Y-120403907D01*
X151084337Y-120664981D01*
X151212944Y-120905588D01*
X151386020Y-121116481D01*
X151596913Y-121289557D01*
X151837520Y-121418164D01*
X152098594Y-121497360D01*
X152370100Y-121524101D01*
X152641607Y-121497360D01*
X152902681Y-121418164D01*
X153143288Y-121289557D01*
X153354181Y-121116481D01*
X153527257Y-120905588D01*
X153655864Y-120664981D01*
X153735060Y-120403907D01*
X153755100Y-120200437D01*
X153755100Y-118564363D01*
X153735060Y-118360893D01*
X153655864Y-118099819D01*
X153527257Y-117859212D01*
X153354180Y-117648319D01*
X153143287Y-117475243D01*
X152902680Y-117346636D01*
X152641606Y-117267440D01*
X152370100Y-117240699D01*
X152098593Y-117267440D01*
X151837519Y-117346636D01*
X151596912Y-117475243D01*
X151386019Y-117648320D01*
X151212943Y-117859213D01*
X151084336Y-118099820D01*
X151005140Y-118360894D01*
X150985100Y-118564364D01*
X148758172Y-118564364D01*
X148758172Y-117882400D01*
X148745912Y-117757918D01*
X148709602Y-117638220D01*
X148650637Y-117527906D01*
X148571285Y-117431215D01*
X148474594Y-117351863D01*
X148364280Y-117292898D01*
X148244582Y-117256588D01*
X148120100Y-117244328D01*
X146620100Y-117244328D01*
X146495618Y-117256588D01*
X146375920Y-117292898D01*
X146265606Y-117351863D01*
X146168915Y-117431215D01*
X146089563Y-117527906D01*
X146030598Y-117638220D01*
X145994288Y-117757918D01*
X145982028Y-117882400D01*
X136539652Y-117882400D01*
X136527257Y-117859212D01*
X136354180Y-117648319D01*
X136143287Y-117475243D01*
X135902680Y-117346636D01*
X135641606Y-117267440D01*
X135370100Y-117240699D01*
X135098593Y-117267440D01*
X134837519Y-117346636D01*
X134596912Y-117475243D01*
X134386019Y-117648320D01*
X134212943Y-117859213D01*
X134084336Y-118099820D01*
X134005140Y-118360894D01*
X133985100Y-118564364D01*
X131758172Y-118564364D01*
X131758172Y-117882400D01*
X131745912Y-117757918D01*
X131709602Y-117638220D01*
X131650637Y-117527906D01*
X131571285Y-117431215D01*
X131474594Y-117351863D01*
X131364280Y-117292898D01*
X131244582Y-117256588D01*
X131120100Y-117244328D01*
X129620100Y-117244328D01*
X129495618Y-117256588D01*
X129375920Y-117292898D01*
X129265606Y-117351863D01*
X129168915Y-117431215D01*
X129089563Y-117527906D01*
X129030598Y-117638220D01*
X128994288Y-117757918D01*
X128982028Y-117882400D01*
X120358697Y-117882400D01*
X120319322Y-117752586D01*
X120192784Y-117487456D01*
X120016954Y-117252107D01*
X119798588Y-117055583D01*
X119692330Y-116992400D01*
X119798588Y-116929217D01*
X120016954Y-116732693D01*
X120192784Y-116497344D01*
X120319322Y-116232214D01*
X120365058Y-116081426D01*
X120243917Y-115849400D01*
X119037100Y-115849400D01*
X118783100Y-115849400D01*
X116497100Y-115849400D01*
X116243100Y-115849400D01*
X116223100Y-115849400D01*
X116223100Y-115595400D01*
X116243100Y-115595400D01*
X116243100Y-115575400D01*
X116497100Y-115575400D01*
X116497100Y-115595400D01*
X118783100Y-115595400D01*
X118783100Y-115575400D01*
X119037100Y-115575400D01*
X119037100Y-115595400D01*
X120243917Y-115595400D01*
X120365058Y-115363374D01*
X120319322Y-115212586D01*
X120192784Y-114947456D01*
X120016954Y-114712107D01*
X119798588Y-114515583D01*
X119699997Y-114456959D01*
X119865402Y-114346439D01*
X120074139Y-114137702D01*
X120238142Y-113892253D01*
X120351110Y-113619525D01*
X120408700Y-113329999D01*
X120408700Y-113034801D01*
X120351110Y-112745275D01*
X120238142Y-112472547D01*
X120074139Y-112227098D01*
X119865402Y-112018361D01*
X119706819Y-111912400D01*
X119865402Y-111806439D01*
X120074139Y-111597702D01*
X120238142Y-111352253D01*
X120284197Y-111241065D01*
X127935100Y-111241065D01*
X127935100Y-111523735D01*
X127990247Y-111800974D01*
X128098420Y-112062127D01*
X128255463Y-112297159D01*
X128455341Y-112497037D01*
X128690373Y-112654080D01*
X128951526Y-112762253D01*
X129228765Y-112817400D01*
X129511435Y-112817400D01*
X129788674Y-112762253D01*
X130049827Y-112654080D01*
X130284859Y-112497037D01*
X130484737Y-112297159D01*
X130641780Y-112062127D01*
X130749953Y-111800974D01*
X130805100Y-111523735D01*
X130805100Y-111241065D01*
X135555100Y-111241065D01*
X135555100Y-111523735D01*
X135610247Y-111800974D01*
X135718420Y-112062127D01*
X135875463Y-112297159D01*
X136075341Y-112497037D01*
X136310373Y-112654080D01*
X136571526Y-112762253D01*
X136848765Y-112817400D01*
X137131435Y-112817400D01*
X137408674Y-112762253D01*
X137669827Y-112654080D01*
X137904859Y-112497037D01*
X138104737Y-112297159D01*
X138261780Y-112062127D01*
X138369953Y-111800974D01*
X138425100Y-111523735D01*
X138425100Y-111241065D01*
X144935100Y-111241065D01*
X144935100Y-111523735D01*
X144990247Y-111800974D01*
X145098420Y-112062127D01*
X145255463Y-112297159D01*
X145455341Y-112497037D01*
X145690373Y-112654080D01*
X145951526Y-112762253D01*
X146228765Y-112817400D01*
X146511435Y-112817400D01*
X146788674Y-112762253D01*
X147049827Y-112654080D01*
X147284859Y-112497037D01*
X147484737Y-112297159D01*
X147641780Y-112062127D01*
X147749953Y-111800974D01*
X147805100Y-111523735D01*
X147805100Y-111241065D01*
X152555100Y-111241065D01*
X152555100Y-111523735D01*
X152610247Y-111800974D01*
X152718420Y-112062127D01*
X152875463Y-112297159D01*
X153075341Y-112497037D01*
X153310373Y-112654080D01*
X153571526Y-112762253D01*
X153848765Y-112817400D01*
X154131435Y-112817400D01*
X154408674Y-112762253D01*
X154669827Y-112654080D01*
X154904859Y-112497037D01*
X155104737Y-112297159D01*
X155261780Y-112062127D01*
X155369953Y-111800974D01*
X155425100Y-111523735D01*
X155425100Y-111241065D01*
X155369953Y-110963826D01*
X155261780Y-110702673D01*
X155104737Y-110467641D01*
X154904859Y-110267763D01*
X154669827Y-110110720D01*
X154408674Y-110002547D01*
X154131435Y-109947400D01*
X153848765Y-109947400D01*
X153571526Y-110002547D01*
X153310373Y-110110720D01*
X153075341Y-110267763D01*
X152875463Y-110467641D01*
X152718420Y-110702673D01*
X152610247Y-110963826D01*
X152555100Y-111241065D01*
X147805100Y-111241065D01*
X147749953Y-110963826D01*
X147641780Y-110702673D01*
X147484737Y-110467641D01*
X147284859Y-110267763D01*
X147049827Y-110110720D01*
X146788674Y-110002547D01*
X146511435Y-109947400D01*
X146228765Y-109947400D01*
X145951526Y-110002547D01*
X145690373Y-110110720D01*
X145455341Y-110267763D01*
X145255463Y-110467641D01*
X145098420Y-110702673D01*
X144990247Y-110963826D01*
X144935100Y-111241065D01*
X138425100Y-111241065D01*
X138369953Y-110963826D01*
X138261780Y-110702673D01*
X138104737Y-110467641D01*
X137904859Y-110267763D01*
X137669827Y-110110720D01*
X137408674Y-110002547D01*
X137131435Y-109947400D01*
X136848765Y-109947400D01*
X136571526Y-110002547D01*
X136310373Y-110110720D01*
X136075341Y-110267763D01*
X135875463Y-110467641D01*
X135718420Y-110702673D01*
X135610247Y-110963826D01*
X135555100Y-111241065D01*
X130805100Y-111241065D01*
X130749953Y-110963826D01*
X130641780Y-110702673D01*
X130484737Y-110467641D01*
X130284859Y-110267763D01*
X130049827Y-110110720D01*
X129788674Y-110002547D01*
X129511435Y-109947400D01*
X129228765Y-109947400D01*
X128951526Y-110002547D01*
X128690373Y-110110720D01*
X128455341Y-110267763D01*
X128255463Y-110467641D01*
X128098420Y-110702673D01*
X127990247Y-110963826D01*
X127935100Y-111241065D01*
X120284197Y-111241065D01*
X120351110Y-111079525D01*
X120408700Y-110789999D01*
X120408700Y-110494801D01*
X120351110Y-110205275D01*
X120238142Y-109932547D01*
X120074139Y-109687098D01*
X119865402Y-109478361D01*
X119706819Y-109372400D01*
X119865402Y-109266439D01*
X120074139Y-109057702D01*
X120238142Y-108812253D01*
X120351110Y-108539525D01*
X120408700Y-108249999D01*
X120408700Y-107954801D01*
X120351110Y-107665275D01*
X120238142Y-107392547D01*
X120074139Y-107147098D01*
X119865402Y-106938361D01*
X119706819Y-106832400D01*
X119865402Y-106726439D01*
X120009441Y-106582400D01*
X136932028Y-106582400D01*
X136932028Y-108182400D01*
X136944288Y-108306882D01*
X136980598Y-108426580D01*
X137039563Y-108536894D01*
X137118915Y-108633585D01*
X137215606Y-108712937D01*
X137325920Y-108771902D01*
X137445618Y-108808212D01*
X137570100Y-108820472D01*
X139170100Y-108820472D01*
X139294582Y-108808212D01*
X139414280Y-108771902D01*
X139524594Y-108712937D01*
X139621285Y-108633585D01*
X139700637Y-108536894D01*
X139759602Y-108426580D01*
X139795912Y-108306882D01*
X139796743Y-108298439D01*
X139995341Y-108497037D01*
X140230373Y-108654080D01*
X140491526Y-108762253D01*
X140768765Y-108817400D01*
X141051435Y-108817400D01*
X141328674Y-108762253D01*
X141589827Y-108654080D01*
X141824859Y-108497037D01*
X142024737Y-108297159D01*
X142180100Y-108064641D01*
X142335463Y-108297159D01*
X142535341Y-108497037D01*
X142770373Y-108654080D01*
X143031526Y-108762253D01*
X143308765Y-108817400D01*
X143591435Y-108817400D01*
X143868674Y-108762253D01*
X144129827Y-108654080D01*
X144364859Y-108497037D01*
X144564737Y-108297159D01*
X144720100Y-108064641D01*
X144875463Y-108297159D01*
X145075341Y-108497037D01*
X145310373Y-108654080D01*
X145571526Y-108762253D01*
X145848765Y-108817400D01*
X146131435Y-108817400D01*
X146408674Y-108762253D01*
X146669827Y-108654080D01*
X146904859Y-108497037D01*
X147104737Y-108297159D01*
X147261780Y-108062127D01*
X147369953Y-107800974D01*
X147425100Y-107523735D01*
X147425100Y-107241065D01*
X147369953Y-106963826D01*
X147261780Y-106702673D01*
X147104737Y-106467641D01*
X146904859Y-106267763D01*
X146669827Y-106110720D01*
X146408674Y-106002547D01*
X146131435Y-105947400D01*
X145848765Y-105947400D01*
X145571526Y-106002547D01*
X145310373Y-106110720D01*
X145075341Y-106267763D01*
X144875463Y-106467641D01*
X144720100Y-106700159D01*
X144564737Y-106467641D01*
X144364859Y-106267763D01*
X144129827Y-106110720D01*
X143868674Y-106002547D01*
X143591435Y-105947400D01*
X143308765Y-105947400D01*
X143031526Y-106002547D01*
X142770373Y-106110720D01*
X142535341Y-106267763D01*
X142335463Y-106467641D01*
X142180100Y-106700159D01*
X142024737Y-106467641D01*
X141824859Y-106267763D01*
X141589827Y-106110720D01*
X141328674Y-106002547D01*
X141051435Y-105947400D01*
X140768765Y-105947400D01*
X140491526Y-106002547D01*
X140230373Y-106110720D01*
X139995341Y-106267763D01*
X139796743Y-106466361D01*
X139795912Y-106457918D01*
X139759602Y-106338220D01*
X139700637Y-106227906D01*
X139621285Y-106131215D01*
X139524594Y-106051863D01*
X139414280Y-105992898D01*
X139294582Y-105956588D01*
X139170100Y-105944328D01*
X137570100Y-105944328D01*
X137445618Y-105956588D01*
X137325920Y-105992898D01*
X137215606Y-106051863D01*
X137118915Y-106131215D01*
X137039563Y-106227906D01*
X136980598Y-106338220D01*
X136944288Y-106457918D01*
X136932028Y-106582400D01*
X120009441Y-106582400D01*
X120074139Y-106517702D01*
X120238142Y-106272253D01*
X120351110Y-105999525D01*
X120408700Y-105709999D01*
X120408700Y-105414801D01*
X120351110Y-105125275D01*
X120238142Y-104852547D01*
X120074139Y-104607098D01*
X119865402Y-104398361D01*
X119706819Y-104292400D01*
X119865402Y-104186439D01*
X120074139Y-103977702D01*
X120238142Y-103732253D01*
X120351110Y-103459525D01*
X120408700Y-103169999D01*
X120408700Y-102874801D01*
X120351110Y-102585275D01*
X120238142Y-102312547D01*
X120074139Y-102067098D01*
X119865402Y-101858361D01*
X119706819Y-101752400D01*
X119865402Y-101646439D01*
X120074139Y-101437702D01*
X120238142Y-101192253D01*
X120351110Y-100919525D01*
X120408700Y-100629999D01*
X120408700Y-100334801D01*
X120351110Y-100045275D01*
X120238142Y-99772547D01*
X120074139Y-99527098D01*
X119865402Y-99318361D01*
X119706819Y-99212400D01*
X119865402Y-99106439D01*
X120074139Y-98897702D01*
X120238142Y-98652253D01*
X120351110Y-98379525D01*
X120408700Y-98089999D01*
X120408700Y-97794801D01*
X120351110Y-97505275D01*
X120238142Y-97232547D01*
X120074139Y-96987098D01*
X119865402Y-96778361D01*
X119706819Y-96672400D01*
X119865402Y-96566439D01*
X120074139Y-96357702D01*
X120238142Y-96112253D01*
X120351110Y-95839525D01*
X120408700Y-95549999D01*
X120408700Y-95254801D01*
X120351110Y-94965275D01*
X120238142Y-94692547D01*
X120074139Y-94447098D01*
X119865402Y-94238361D01*
X119706819Y-94132400D01*
X119865402Y-94026439D01*
X120074139Y-93817702D01*
X120238142Y-93572253D01*
X120351110Y-93299525D01*
X120408700Y-93009999D01*
X120408700Y-92714801D01*
X120351110Y-92425275D01*
X120238142Y-92152547D01*
X120074139Y-91907098D01*
X119865402Y-91698361D01*
X119706819Y-91592400D01*
X119865402Y-91486439D01*
X120074139Y-91277702D01*
X120238142Y-91032253D01*
X120351110Y-90759525D01*
X120408700Y-90469999D01*
X120408700Y-90174801D01*
X120351110Y-89885275D01*
X120238142Y-89612547D01*
X120074139Y-89367098D01*
X119865402Y-89158361D01*
X119706819Y-89052400D01*
X119865402Y-88946439D01*
X120074139Y-88737702D01*
X120238142Y-88492253D01*
X120351110Y-88219525D01*
X120408700Y-87929999D01*
X120408700Y-87634801D01*
X120351110Y-87345275D01*
X120238142Y-87072547D01*
X120074139Y-86827098D01*
X119865402Y-86618361D01*
X119706819Y-86512400D01*
X119797760Y-86451636D01*
X133703572Y-100357449D01*
X133731285Y-100391217D01*
X133765053Y-100418930D01*
X133765055Y-100418932D01*
X133793318Y-100442127D01*
X133866043Y-100501811D01*
X134019789Y-100583989D01*
X134186612Y-100634595D01*
X134316625Y-100647400D01*
X134316635Y-100647400D01*
X134360101Y-100651681D01*
X134403568Y-100647400D01*
X137235579Y-100647400D01*
X137255463Y-100677159D01*
X137455341Y-100877037D01*
X137690373Y-101034080D01*
X137951526Y-101142253D01*
X138228765Y-101197400D01*
X138511435Y-101197400D01*
X138788674Y-101142253D01*
X139049827Y-101034080D01*
X139284859Y-100877037D01*
X139484737Y-100677159D01*
X139640100Y-100444641D01*
X139795463Y-100677159D01*
X139995341Y-100877037D01*
X140230373Y-101034080D01*
X140491526Y-101142253D01*
X140768765Y-101197400D01*
X141051435Y-101197400D01*
X141328674Y-101142253D01*
X141589827Y-101034080D01*
X141824859Y-100877037D01*
X142024737Y-100677159D01*
X142180100Y-100444641D01*
X142335463Y-100677159D01*
X142535341Y-100877037D01*
X142770373Y-101034080D01*
X143031526Y-101142253D01*
X143308765Y-101197400D01*
X143591435Y-101197400D01*
X143868674Y-101142253D01*
X144129827Y-101034080D01*
X144364859Y-100877037D01*
X144564737Y-100677159D01*
X144721780Y-100442127D01*
X144726167Y-100431535D01*
X144837715Y-100617531D01*
X145026686Y-100825919D01*
X145252680Y-100993437D01*
X145507013Y-101113646D01*
X145641061Y-101154304D01*
X145863100Y-101032315D01*
X145863100Y-99889400D01*
X146117100Y-99889400D01*
X146117100Y-101032315D01*
X146339139Y-101154304D01*
X146473187Y-101113646D01*
X146727520Y-100993437D01*
X146953514Y-100825919D01*
X147142485Y-100617531D01*
X147287170Y-100376281D01*
X147382009Y-100111440D01*
X147260724Y-99889400D01*
X146117100Y-99889400D01*
X145863100Y-99889400D01*
X145843100Y-99889400D01*
X145843100Y-99635400D01*
X145863100Y-99635400D01*
X145863100Y-98492485D01*
X146117100Y-98492485D01*
X146117100Y-99635400D01*
X147260724Y-99635400D01*
X147382009Y-99413360D01*
X147287170Y-99148519D01*
X147142485Y-98907269D01*
X146953514Y-98698881D01*
X146727520Y-98531363D01*
X146473187Y-98411154D01*
X146339139Y-98370496D01*
X146117100Y-98492485D01*
X145863100Y-98492485D01*
X145641061Y-98370496D01*
X145507013Y-98411154D01*
X145252680Y-98531363D01*
X145026686Y-98698881D01*
X144837715Y-98907269D01*
X144726167Y-99093265D01*
X144721780Y-99082673D01*
X144564737Y-98847641D01*
X144364859Y-98647763D01*
X144129827Y-98490720D01*
X143868674Y-98382547D01*
X143591435Y-98327400D01*
X143308765Y-98327400D01*
X143031526Y-98382547D01*
X142770373Y-98490720D01*
X142535341Y-98647763D01*
X142335463Y-98847641D01*
X142180100Y-99080159D01*
X142024737Y-98847641D01*
X141824859Y-98647763D01*
X141589827Y-98490720D01*
X141328674Y-98382547D01*
X141051435Y-98327400D01*
X140921101Y-98327400D01*
X141049827Y-98274080D01*
X141284859Y-98117037D01*
X141484737Y-97917159D01*
X141641780Y-97682127D01*
X141749953Y-97420974D01*
X141805100Y-97143735D01*
X141805100Y-96861065D01*
X142935100Y-96861065D01*
X142935100Y-97143735D01*
X142990247Y-97420974D01*
X143098420Y-97682127D01*
X143255463Y-97917159D01*
X143455341Y-98117037D01*
X143690373Y-98274080D01*
X143951526Y-98382253D01*
X144228765Y-98437400D01*
X144511435Y-98437400D01*
X144788674Y-98382253D01*
X145049827Y-98274080D01*
X145284859Y-98117037D01*
X145484737Y-97917159D01*
X145641780Y-97682127D01*
X145749953Y-97420974D01*
X145805100Y-97143735D01*
X145805100Y-96861065D01*
X145749953Y-96583826D01*
X145641780Y-96322673D01*
X145484737Y-96087641D01*
X145284859Y-95887763D01*
X145049827Y-95730720D01*
X144788674Y-95622547D01*
X144511435Y-95567400D01*
X144228765Y-95567400D01*
X143951526Y-95622547D01*
X143690373Y-95730720D01*
X143455341Y-95887763D01*
X143255463Y-96087641D01*
X143098420Y-96322673D01*
X142990247Y-96583826D01*
X142935100Y-96861065D01*
X141805100Y-96861065D01*
X141749953Y-96583826D01*
X141641780Y-96322673D01*
X141484737Y-96087641D01*
X141284859Y-95887763D01*
X141049827Y-95730720D01*
X140788674Y-95622547D01*
X140511435Y-95567400D01*
X140228765Y-95567400D01*
X139951526Y-95622547D01*
X139690373Y-95730720D01*
X139455341Y-95887763D01*
X139255463Y-96087641D01*
X139098420Y-96322673D01*
X138990247Y-96583826D01*
X138935100Y-96861065D01*
X138935100Y-97143735D01*
X138990247Y-97420974D01*
X139098420Y-97682127D01*
X139255463Y-97917159D01*
X139455341Y-98117037D01*
X139690373Y-98274080D01*
X139951526Y-98382253D01*
X140228765Y-98437400D01*
X140359099Y-98437400D01*
X140230373Y-98490720D01*
X139995341Y-98647763D01*
X139795463Y-98847641D01*
X139640100Y-99080159D01*
X139484737Y-98847641D01*
X139284859Y-98647763D01*
X139049827Y-98490720D01*
X138788674Y-98382547D01*
X138511435Y-98327400D01*
X138228765Y-98327400D01*
X137951526Y-98382547D01*
X137690373Y-98490720D01*
X137455341Y-98647763D01*
X137255463Y-98847641D01*
X137235579Y-98877400D01*
X134726681Y-98877400D01*
X125090346Y-89241065D01*
X138935100Y-89241065D01*
X138935100Y-89523735D01*
X138990247Y-89800974D01*
X139098420Y-90062127D01*
X139255463Y-90297159D01*
X139455341Y-90497037D01*
X139690373Y-90654080D01*
X139951526Y-90762253D01*
X140228765Y-90817400D01*
X140511435Y-90817400D01*
X140788674Y-90762253D01*
X141049827Y-90654080D01*
X141284859Y-90497037D01*
X141484737Y-90297159D01*
X141641780Y-90062127D01*
X141749953Y-89800974D01*
X141805100Y-89523735D01*
X141805100Y-89241065D01*
X142935100Y-89241065D01*
X142935100Y-89523735D01*
X142990247Y-89800974D01*
X143098420Y-90062127D01*
X143255463Y-90297159D01*
X143455341Y-90497037D01*
X143690373Y-90654080D01*
X143951526Y-90762253D01*
X144228765Y-90817400D01*
X144511435Y-90817400D01*
X144788674Y-90762253D01*
X145049827Y-90654080D01*
X145284859Y-90497037D01*
X145484737Y-90297159D01*
X145641780Y-90062127D01*
X145749953Y-89800974D01*
X145805100Y-89523735D01*
X145805100Y-89241065D01*
X145749953Y-88963826D01*
X145641780Y-88702673D01*
X145484737Y-88467641D01*
X145284859Y-88267763D01*
X145049827Y-88110720D01*
X144788674Y-88002547D01*
X144511435Y-87947400D01*
X144228765Y-87947400D01*
X143951526Y-88002547D01*
X143690373Y-88110720D01*
X143455341Y-88267763D01*
X143255463Y-88467641D01*
X143098420Y-88702673D01*
X142990247Y-88963826D01*
X142935100Y-89241065D01*
X141805100Y-89241065D01*
X141749953Y-88963826D01*
X141641780Y-88702673D01*
X141484737Y-88467641D01*
X141284859Y-88267763D01*
X141049827Y-88110720D01*
X140788674Y-88002547D01*
X140511435Y-87947400D01*
X140228765Y-87947400D01*
X139951526Y-88002547D01*
X139690373Y-88110720D01*
X139455341Y-88267763D01*
X139255463Y-88467641D01*
X139098420Y-88702673D01*
X138990247Y-88963826D01*
X138935100Y-89241065D01*
X125090346Y-89241065D01*
X121108701Y-85259421D01*
X121108701Y-79872579D01*
X126527446Y-85291325D01*
X126541514Y-85325289D01*
X126643838Y-85478428D01*
X126774072Y-85608662D01*
X126927211Y-85710986D01*
X127097371Y-85781468D01*
X127278011Y-85817400D01*
X127462189Y-85817400D01*
X127642829Y-85781468D01*
X127812989Y-85710986D01*
X127966128Y-85608662D01*
X128096362Y-85478428D01*
X128198686Y-85325289D01*
X128269168Y-85155129D01*
X128305100Y-84974489D01*
X128305100Y-84790311D01*
X128269168Y-84609671D01*
X128198686Y-84439511D01*
X128096362Y-84286372D01*
X127966128Y-84156138D01*
X127812989Y-84053814D01*
X127779025Y-84039746D01*
X123600344Y-79861065D01*
X133935100Y-79861065D01*
X133935100Y-80143735D01*
X133990247Y-80420974D01*
X134098420Y-80682127D01*
X134255463Y-80917159D01*
X134455341Y-81117037D01*
X134690373Y-81274080D01*
X134951526Y-81382253D01*
X135228765Y-81437400D01*
X135511435Y-81437400D01*
X135788674Y-81382253D01*
X136049827Y-81274080D01*
X136284859Y-81117037D01*
X136484737Y-80917159D01*
X136641780Y-80682127D01*
X136749953Y-80420974D01*
X136805100Y-80143735D01*
X136805100Y-79861065D01*
X138935100Y-79861065D01*
X138935100Y-80143735D01*
X138990247Y-80420974D01*
X139098420Y-80682127D01*
X139255463Y-80917159D01*
X139455341Y-81117037D01*
X139690373Y-81274080D01*
X139951526Y-81382253D01*
X140228765Y-81437400D01*
X140511435Y-81437400D01*
X140788674Y-81382253D01*
X141049827Y-81274080D01*
X141284859Y-81117037D01*
X141484737Y-80917159D01*
X141641780Y-80682127D01*
X141749953Y-80420974D01*
X141805100Y-80143735D01*
X141805100Y-79861065D01*
X143935100Y-79861065D01*
X143935100Y-80143735D01*
X143990247Y-80420974D01*
X144098420Y-80682127D01*
X144255463Y-80917159D01*
X144455341Y-81117037D01*
X144690373Y-81274080D01*
X144951526Y-81382253D01*
X145228765Y-81437400D01*
X145511435Y-81437400D01*
X145788674Y-81382253D01*
X146049827Y-81274080D01*
X146284859Y-81117037D01*
X146484737Y-80917159D01*
X146641780Y-80682127D01*
X146749953Y-80420974D01*
X146805100Y-80143735D01*
X146805100Y-79861065D01*
X148935100Y-79861065D01*
X148935100Y-80143735D01*
X148990247Y-80420974D01*
X149098420Y-80682127D01*
X149255463Y-80917159D01*
X149455341Y-81117037D01*
X149690373Y-81274080D01*
X149951526Y-81382253D01*
X150228765Y-81437400D01*
X150511435Y-81437400D01*
X150788674Y-81382253D01*
X151049827Y-81274080D01*
X151284859Y-81117037D01*
X151484737Y-80917159D01*
X151641780Y-80682127D01*
X151749953Y-80420974D01*
X151805100Y-80143735D01*
X151805100Y-79861065D01*
X151749953Y-79583826D01*
X151641780Y-79322673D01*
X151484737Y-79087641D01*
X151284859Y-78887763D01*
X151049827Y-78730720D01*
X150788674Y-78622547D01*
X150511435Y-78567400D01*
X150228765Y-78567400D01*
X149951526Y-78622547D01*
X149690373Y-78730720D01*
X149455341Y-78887763D01*
X149255463Y-79087641D01*
X149098420Y-79322673D01*
X148990247Y-79583826D01*
X148935100Y-79861065D01*
X146805100Y-79861065D01*
X146749953Y-79583826D01*
X146641780Y-79322673D01*
X146484737Y-79087641D01*
X146284859Y-78887763D01*
X146049827Y-78730720D01*
X145788674Y-78622547D01*
X145511435Y-78567400D01*
X145228765Y-78567400D01*
X144951526Y-78622547D01*
X144690373Y-78730720D01*
X144455341Y-78887763D01*
X144255463Y-79087641D01*
X144098420Y-79322673D01*
X143990247Y-79583826D01*
X143935100Y-79861065D01*
X141805100Y-79861065D01*
X141749953Y-79583826D01*
X141641780Y-79322673D01*
X141484737Y-79087641D01*
X141284859Y-78887763D01*
X141049827Y-78730720D01*
X140788674Y-78622547D01*
X140511435Y-78567400D01*
X140228765Y-78567400D01*
X139951526Y-78622547D01*
X139690373Y-78730720D01*
X139455341Y-78887763D01*
X139255463Y-79087641D01*
X139098420Y-79322673D01*
X138990247Y-79583826D01*
X138935100Y-79861065D01*
X136805100Y-79861065D01*
X136749953Y-79583826D01*
X136641780Y-79322673D01*
X136484737Y-79087641D01*
X136284859Y-78887763D01*
X136049827Y-78730720D01*
X135788674Y-78622547D01*
X135511435Y-78567400D01*
X135228765Y-78567400D01*
X134951526Y-78622547D01*
X134690373Y-78730720D01*
X134455341Y-78887763D01*
X134255463Y-79087641D01*
X134098420Y-79322673D01*
X133990247Y-79583826D01*
X133935100Y-79861065D01*
X123600344Y-79861065D01*
X121808711Y-78069433D01*
X121808711Y-72221367D01*
X123735100Y-72221367D01*
X123735100Y-72543433D01*
X123797932Y-72859312D01*
X123921182Y-73156863D01*
X124100113Y-73424652D01*
X124327848Y-73652387D01*
X124595637Y-73831318D01*
X124893188Y-73954568D01*
X125209067Y-74017400D01*
X125531133Y-74017400D01*
X125847012Y-73954568D01*
X126144563Y-73831318D01*
X126412352Y-73652387D01*
X126546926Y-73517813D01*
X128914292Y-73517813D01*
X129010056Y-73782214D01*
X129299671Y-73923104D01*
X129611208Y-74004784D01*
X129932695Y-74024118D01*
X130251775Y-73980361D01*
X130556188Y-73875195D01*
X130730144Y-73782214D01*
X130825908Y-73517813D01*
X129870100Y-72562005D01*
X128914292Y-73517813D01*
X126546926Y-73517813D01*
X126640087Y-73424652D01*
X126819018Y-73156863D01*
X126942268Y-72859312D01*
X127005100Y-72543433D01*
X127005100Y-72444995D01*
X128228382Y-72444995D01*
X128272139Y-72764075D01*
X128377305Y-73068488D01*
X128470286Y-73242444D01*
X128734687Y-73338208D01*
X129690495Y-72382400D01*
X130049705Y-72382400D01*
X131005513Y-73338208D01*
X131269914Y-73242444D01*
X131410804Y-72952829D01*
X131492484Y-72641292D01*
X131511818Y-72319805D01*
X131501020Y-72241065D01*
X133935100Y-72241065D01*
X133935100Y-72523735D01*
X133990247Y-72800974D01*
X134098420Y-73062127D01*
X134255463Y-73297159D01*
X134455341Y-73497037D01*
X134690373Y-73654080D01*
X134951526Y-73762253D01*
X135228765Y-73817400D01*
X135511435Y-73817400D01*
X135788674Y-73762253D01*
X136049827Y-73654080D01*
X136284859Y-73497037D01*
X136484737Y-73297159D01*
X136641780Y-73062127D01*
X136749953Y-72800974D01*
X136805100Y-72523735D01*
X136805100Y-72241065D01*
X138935100Y-72241065D01*
X138935100Y-72523735D01*
X138990247Y-72800974D01*
X139098420Y-73062127D01*
X139255463Y-73297159D01*
X139455341Y-73497037D01*
X139690373Y-73654080D01*
X139951526Y-73762253D01*
X140228765Y-73817400D01*
X140511435Y-73817400D01*
X140788674Y-73762253D01*
X141049827Y-73654080D01*
X141284859Y-73497037D01*
X141484737Y-73297159D01*
X141641780Y-73062127D01*
X141749953Y-72800974D01*
X141805100Y-72523735D01*
X141805100Y-72241065D01*
X143935100Y-72241065D01*
X143935100Y-72523735D01*
X143990247Y-72800974D01*
X144098420Y-73062127D01*
X144255463Y-73297159D01*
X144455341Y-73497037D01*
X144690373Y-73654080D01*
X144951526Y-73762253D01*
X145228765Y-73817400D01*
X145511435Y-73817400D01*
X145788674Y-73762253D01*
X146049827Y-73654080D01*
X146284859Y-73497037D01*
X146484737Y-73297159D01*
X146641780Y-73062127D01*
X146749953Y-72800974D01*
X146805100Y-72523735D01*
X146805100Y-72241065D01*
X148935100Y-72241065D01*
X148935100Y-72523735D01*
X148990247Y-72800974D01*
X149098420Y-73062127D01*
X149255463Y-73297159D01*
X149455341Y-73497037D01*
X149690373Y-73654080D01*
X149951526Y-73762253D01*
X150228765Y-73817400D01*
X150511435Y-73817400D01*
X150788674Y-73762253D01*
X151049827Y-73654080D01*
X151284859Y-73497037D01*
X151484737Y-73297159D01*
X151641780Y-73062127D01*
X151749953Y-72800974D01*
X151805100Y-72523735D01*
X151805100Y-72241065D01*
X151801182Y-72221367D01*
X153735100Y-72221367D01*
X153735100Y-72543433D01*
X153797932Y-72859312D01*
X153921182Y-73156863D01*
X154100113Y-73424652D01*
X154327848Y-73652387D01*
X154595637Y-73831318D01*
X154893188Y-73954568D01*
X155209067Y-74017400D01*
X155531133Y-74017400D01*
X155847012Y-73954568D01*
X156144563Y-73831318D01*
X156412352Y-73652387D01*
X156546926Y-73517813D01*
X158914292Y-73517813D01*
X159010056Y-73782214D01*
X159299671Y-73923104D01*
X159611208Y-74004784D01*
X159932695Y-74024118D01*
X160251775Y-73980361D01*
X160556188Y-73875195D01*
X160730144Y-73782214D01*
X160825908Y-73517813D01*
X159870100Y-72562005D01*
X158914292Y-73517813D01*
X156546926Y-73517813D01*
X156640087Y-73424652D01*
X156819018Y-73156863D01*
X156942268Y-72859312D01*
X157005100Y-72543433D01*
X157005100Y-72444995D01*
X158228382Y-72444995D01*
X158272139Y-72764075D01*
X158377305Y-73068488D01*
X158470286Y-73242444D01*
X158734687Y-73338208D01*
X159690495Y-72382400D01*
X160049705Y-72382400D01*
X161005513Y-73338208D01*
X161269914Y-73242444D01*
X161410804Y-72952829D01*
X161492484Y-72641292D01*
X161511818Y-72319805D01*
X161468061Y-72000725D01*
X161362895Y-71696312D01*
X161269914Y-71522356D01*
X161005513Y-71426592D01*
X160049705Y-72382400D01*
X159690495Y-72382400D01*
X158734687Y-71426592D01*
X158470286Y-71522356D01*
X158329396Y-71811971D01*
X158247716Y-72123508D01*
X158228382Y-72444995D01*
X157005100Y-72444995D01*
X157005100Y-72221367D01*
X156942268Y-71905488D01*
X156819018Y-71607937D01*
X156640087Y-71340148D01*
X156546926Y-71246987D01*
X158914292Y-71246987D01*
X159870100Y-72202795D01*
X160825908Y-71246987D01*
X160730144Y-70982586D01*
X160440529Y-70841696D01*
X160128992Y-70760016D01*
X159807505Y-70740682D01*
X159488425Y-70784439D01*
X159184012Y-70889605D01*
X159010056Y-70982586D01*
X158914292Y-71246987D01*
X156546926Y-71246987D01*
X156412352Y-71112413D01*
X156144563Y-70933482D01*
X155847012Y-70810232D01*
X155531133Y-70747400D01*
X155209067Y-70747400D01*
X154893188Y-70810232D01*
X154595637Y-70933482D01*
X154327848Y-71112413D01*
X154100113Y-71340148D01*
X153921182Y-71607937D01*
X153797932Y-71905488D01*
X153735100Y-72221367D01*
X151801182Y-72221367D01*
X151749953Y-71963826D01*
X151641780Y-71702673D01*
X151484737Y-71467641D01*
X151284859Y-71267763D01*
X151049827Y-71110720D01*
X150788674Y-71002547D01*
X150511435Y-70947400D01*
X150228765Y-70947400D01*
X149951526Y-71002547D01*
X149690373Y-71110720D01*
X149455341Y-71267763D01*
X149255463Y-71467641D01*
X149098420Y-71702673D01*
X148990247Y-71963826D01*
X148935100Y-72241065D01*
X146805100Y-72241065D01*
X146749953Y-71963826D01*
X146641780Y-71702673D01*
X146484737Y-71467641D01*
X146284859Y-71267763D01*
X146049827Y-71110720D01*
X145788674Y-71002547D01*
X145511435Y-70947400D01*
X145228765Y-70947400D01*
X144951526Y-71002547D01*
X144690373Y-71110720D01*
X144455341Y-71267763D01*
X144255463Y-71467641D01*
X144098420Y-71702673D01*
X143990247Y-71963826D01*
X143935100Y-72241065D01*
X141805100Y-72241065D01*
X141749953Y-71963826D01*
X141641780Y-71702673D01*
X141484737Y-71467641D01*
X141284859Y-71267763D01*
X141049827Y-71110720D01*
X140788674Y-71002547D01*
X140511435Y-70947400D01*
X140228765Y-70947400D01*
X139951526Y-71002547D01*
X139690373Y-71110720D01*
X139455341Y-71267763D01*
X139255463Y-71467641D01*
X139098420Y-71702673D01*
X138990247Y-71963826D01*
X138935100Y-72241065D01*
X136805100Y-72241065D01*
X136749953Y-71963826D01*
X136641780Y-71702673D01*
X136484737Y-71467641D01*
X136284859Y-71267763D01*
X136049827Y-71110720D01*
X135788674Y-71002547D01*
X135511435Y-70947400D01*
X135228765Y-70947400D01*
X134951526Y-71002547D01*
X134690373Y-71110720D01*
X134455341Y-71267763D01*
X134255463Y-71467641D01*
X134098420Y-71702673D01*
X133990247Y-71963826D01*
X133935100Y-72241065D01*
X131501020Y-72241065D01*
X131468061Y-72000725D01*
X131362895Y-71696312D01*
X131269914Y-71522356D01*
X131005513Y-71426592D01*
X130049705Y-72382400D01*
X129690495Y-72382400D01*
X128734687Y-71426592D01*
X128470286Y-71522356D01*
X128329396Y-71811971D01*
X128247716Y-72123508D01*
X128228382Y-72444995D01*
X127005100Y-72444995D01*
X127005100Y-72221367D01*
X126942268Y-71905488D01*
X126819018Y-71607937D01*
X126640087Y-71340148D01*
X126546926Y-71246987D01*
X128914292Y-71246987D01*
X129870100Y-72202795D01*
X130825908Y-71246987D01*
X130730144Y-70982586D01*
X130440529Y-70841696D01*
X130128992Y-70760016D01*
X129807505Y-70740682D01*
X129488425Y-70784439D01*
X129184012Y-70889605D01*
X129010056Y-70982586D01*
X128914292Y-71246987D01*
X126546926Y-71246987D01*
X126412352Y-71112413D01*
X126144563Y-70933482D01*
X125847012Y-70810232D01*
X125531133Y-70747400D01*
X125209067Y-70747400D01*
X124893188Y-70810232D01*
X124595637Y-70933482D01*
X124327848Y-71112413D01*
X124100113Y-71340148D01*
X123921182Y-71607937D01*
X123797932Y-71905488D01*
X123735100Y-72221367D01*
X121808711Y-72221367D01*
X121808711Y-66979480D01*
X121812992Y-66936011D01*
X121808711Y-66892542D01*
X121808711Y-66892534D01*
X121795906Y-66762521D01*
X121792881Y-66752547D01*
X121780554Y-66711914D01*
X121745300Y-66595698D01*
X121663122Y-66441952D01*
X121552528Y-66307194D01*
X121518761Y-66279482D01*
X120556678Y-65317399D01*
X123834420Y-65317399D01*
X123797932Y-65405488D01*
X123735100Y-65721367D01*
X123735100Y-66043433D01*
X123797932Y-66359312D01*
X123921182Y-66656863D01*
X124100113Y-66924652D01*
X124327848Y-67152387D01*
X124595637Y-67331318D01*
X124893188Y-67454568D01*
X125209067Y-67517400D01*
X125531133Y-67517400D01*
X125847012Y-67454568D01*
X126144563Y-67331318D01*
X126412352Y-67152387D01*
X126546926Y-67017813D01*
X128914292Y-67017813D01*
X129010056Y-67282214D01*
X129299671Y-67423104D01*
X129611208Y-67504784D01*
X129932695Y-67524118D01*
X130251775Y-67480361D01*
X130556188Y-67375195D01*
X130730144Y-67282214D01*
X130825908Y-67017813D01*
X129870100Y-66062005D01*
X128914292Y-67017813D01*
X126546926Y-67017813D01*
X126640087Y-66924652D01*
X126819018Y-66656863D01*
X126942268Y-66359312D01*
X127005100Y-66043433D01*
X127005100Y-65721367D01*
X126942268Y-65405488D01*
X126905780Y-65317399D01*
X128327973Y-65317399D01*
X128247716Y-65623508D01*
X128228382Y-65944995D01*
X128272139Y-66264075D01*
X128377305Y-66568488D01*
X128470286Y-66742444D01*
X128734687Y-66838208D01*
X129690495Y-65882400D01*
X129676353Y-65868258D01*
X129855958Y-65688653D01*
X129870100Y-65702795D01*
X129884243Y-65688653D01*
X130063848Y-65868258D01*
X130049705Y-65882400D01*
X131005513Y-66838208D01*
X131269914Y-66742444D01*
X131410804Y-66452829D01*
X131492484Y-66141292D01*
X131511818Y-65819805D01*
X131468061Y-65500725D01*
X131404727Y-65317399D01*
X132593521Y-65317399D01*
X133857040Y-66580918D01*
X133835100Y-66691216D01*
X133835100Y-66993584D01*
X133894089Y-67290143D01*
X134009801Y-67569495D01*
X134177788Y-67820905D01*
X134244227Y-67887344D01*
X134225920Y-67892898D01*
X134115606Y-67951863D01*
X134018915Y-68031215D01*
X133939563Y-68127906D01*
X133880598Y-68238220D01*
X133844288Y-68357918D01*
X133832028Y-68482400D01*
X133832028Y-70282400D01*
X133844288Y-70406882D01*
X133880598Y-70526580D01*
X133939563Y-70636894D01*
X134018915Y-70733585D01*
X134115606Y-70812937D01*
X134225920Y-70871902D01*
X134345618Y-70908212D01*
X134470100Y-70920472D01*
X136270100Y-70920472D01*
X136394582Y-70908212D01*
X136514280Y-70871902D01*
X136624594Y-70812937D01*
X136721285Y-70733585D01*
X136800637Y-70636894D01*
X136859602Y-70526580D01*
X136895912Y-70406882D01*
X136908172Y-70282400D01*
X136908172Y-68482400D01*
X136895912Y-68357918D01*
X136859602Y-68238220D01*
X136800637Y-68127906D01*
X136721285Y-68031215D01*
X136624594Y-67951863D01*
X136514280Y-67892898D01*
X136495973Y-67887344D01*
X136562412Y-67820905D01*
X136624890Y-67727400D01*
X139115310Y-67727400D01*
X139177788Y-67820905D01*
X139244227Y-67887344D01*
X139225920Y-67892898D01*
X139115606Y-67951863D01*
X139018915Y-68031215D01*
X138939563Y-68127906D01*
X138880598Y-68238220D01*
X138844288Y-68357918D01*
X138832028Y-68482400D01*
X138832028Y-70282400D01*
X138844288Y-70406882D01*
X138880598Y-70526580D01*
X138939563Y-70636894D01*
X139018915Y-70733585D01*
X139115606Y-70812937D01*
X139225920Y-70871902D01*
X139345618Y-70908212D01*
X139470100Y-70920472D01*
X141270100Y-70920472D01*
X141394582Y-70908212D01*
X141514280Y-70871902D01*
X141624594Y-70812937D01*
X141721285Y-70733585D01*
X141800637Y-70636894D01*
X141859602Y-70526580D01*
X141895912Y-70406882D01*
X141908172Y-70282400D01*
X141908172Y-68482400D01*
X141895912Y-68357918D01*
X141859602Y-68238220D01*
X141800637Y-68127906D01*
X141721285Y-68031215D01*
X141624594Y-67951863D01*
X141514280Y-67892898D01*
X141495973Y-67887344D01*
X141562412Y-67820905D01*
X141624890Y-67727400D01*
X144115310Y-67727400D01*
X144177788Y-67820905D01*
X144244227Y-67887344D01*
X144225920Y-67892898D01*
X144115606Y-67951863D01*
X144018915Y-68031215D01*
X143939563Y-68127906D01*
X143880598Y-68238220D01*
X143844288Y-68357918D01*
X143832028Y-68482400D01*
X143832028Y-70282400D01*
X143844288Y-70406882D01*
X143880598Y-70526580D01*
X143939563Y-70636894D01*
X144018915Y-70733585D01*
X144115606Y-70812937D01*
X144225920Y-70871902D01*
X144345618Y-70908212D01*
X144470100Y-70920472D01*
X146270100Y-70920472D01*
X146394582Y-70908212D01*
X146514280Y-70871902D01*
X146624594Y-70812937D01*
X146721285Y-70733585D01*
X146800637Y-70636894D01*
X146859602Y-70526580D01*
X146895912Y-70406882D01*
X146908172Y-70282400D01*
X146908172Y-68482400D01*
X146895912Y-68357918D01*
X146859602Y-68238220D01*
X146800637Y-68127906D01*
X146721285Y-68031215D01*
X146624594Y-67951863D01*
X146514280Y-67892898D01*
X146495973Y-67887344D01*
X146562412Y-67820905D01*
X146624890Y-67727400D01*
X149115310Y-67727400D01*
X149177788Y-67820905D01*
X149244227Y-67887344D01*
X149225920Y-67892898D01*
X149115606Y-67951863D01*
X149018915Y-68031215D01*
X148939563Y-68127906D01*
X148880598Y-68238220D01*
X148844288Y-68357918D01*
X148832028Y-68482400D01*
X148832028Y-70282400D01*
X148844288Y-70406882D01*
X148880598Y-70526580D01*
X148939563Y-70636894D01*
X149018915Y-70733585D01*
X149115606Y-70812937D01*
X149225920Y-70871902D01*
X149345618Y-70908212D01*
X149470100Y-70920472D01*
X151270100Y-70920472D01*
X151394582Y-70908212D01*
X151514280Y-70871902D01*
X151624594Y-70812937D01*
X151721285Y-70733585D01*
X151800637Y-70636894D01*
X151859602Y-70526580D01*
X151895912Y-70406882D01*
X151908172Y-70282400D01*
X151908172Y-68482400D01*
X151895912Y-68357918D01*
X151859602Y-68238220D01*
X151800637Y-68127906D01*
X151721285Y-68031215D01*
X151624594Y-67951863D01*
X151514280Y-67892898D01*
X151495973Y-67887344D01*
X151562412Y-67820905D01*
X151730399Y-67569495D01*
X151846111Y-67290143D01*
X151905100Y-66993584D01*
X151905100Y-66691216D01*
X151846111Y-66394657D01*
X151730399Y-66115305D01*
X151562412Y-65863895D01*
X151419884Y-65721367D01*
X153735100Y-65721367D01*
X153735100Y-66043433D01*
X153797932Y-66359312D01*
X153921182Y-66656863D01*
X154100113Y-66924652D01*
X154327848Y-67152387D01*
X154595637Y-67331318D01*
X154893188Y-67454568D01*
X155209067Y-67517400D01*
X155531133Y-67517400D01*
X155847012Y-67454568D01*
X156144563Y-67331318D01*
X156412352Y-67152387D01*
X156546926Y-67017813D01*
X158914292Y-67017813D01*
X159010056Y-67282214D01*
X159299671Y-67423104D01*
X159611208Y-67504784D01*
X159932695Y-67524118D01*
X160251775Y-67480361D01*
X160556188Y-67375195D01*
X160730144Y-67282214D01*
X160825908Y-67017813D01*
X159870100Y-66062005D01*
X158914292Y-67017813D01*
X156546926Y-67017813D01*
X156640087Y-66924652D01*
X156819018Y-66656863D01*
X156942268Y-66359312D01*
X157005100Y-66043433D01*
X157005100Y-65944995D01*
X158228382Y-65944995D01*
X158272139Y-66264075D01*
X158377305Y-66568488D01*
X158470286Y-66742444D01*
X158734687Y-66838208D01*
X159690495Y-65882400D01*
X160049705Y-65882400D01*
X161005513Y-66838208D01*
X161269914Y-66742444D01*
X161410804Y-66452829D01*
X161492484Y-66141292D01*
X161511818Y-65819805D01*
X161468061Y-65500725D01*
X161362895Y-65196312D01*
X161269914Y-65022356D01*
X161005513Y-64926592D01*
X160049705Y-65882400D01*
X159690495Y-65882400D01*
X158734687Y-64926592D01*
X158470286Y-65022356D01*
X158329396Y-65311971D01*
X158247716Y-65623508D01*
X158228382Y-65944995D01*
X157005100Y-65944995D01*
X157005100Y-65721367D01*
X156942268Y-65405488D01*
X156819018Y-65107937D01*
X156640087Y-64840148D01*
X156546926Y-64746987D01*
X158914292Y-64746987D01*
X159870100Y-65702795D01*
X160825908Y-64746987D01*
X160730144Y-64482586D01*
X160440529Y-64341696D01*
X160128992Y-64260016D01*
X159807505Y-64240682D01*
X159488425Y-64284439D01*
X159184012Y-64389605D01*
X159010056Y-64482586D01*
X158914292Y-64746987D01*
X156546926Y-64746987D01*
X156412352Y-64612413D01*
X156144563Y-64433482D01*
X155847012Y-64310232D01*
X155531133Y-64247400D01*
X155209067Y-64247400D01*
X154893188Y-64310232D01*
X154595637Y-64433482D01*
X154327848Y-64612413D01*
X154100113Y-64840148D01*
X153921182Y-65107937D01*
X153797932Y-65405488D01*
X153735100Y-65721367D01*
X151419884Y-65721367D01*
X151348605Y-65650088D01*
X151097195Y-65482101D01*
X150817843Y-65366389D01*
X150521284Y-65307400D01*
X150218916Y-65307400D01*
X149922357Y-65366389D01*
X149643005Y-65482101D01*
X149391595Y-65650088D01*
X149177788Y-65863895D01*
X149115310Y-65957400D01*
X146624890Y-65957400D01*
X146562412Y-65863895D01*
X146348605Y-65650088D01*
X146097195Y-65482101D01*
X145817843Y-65366389D01*
X145521284Y-65307400D01*
X145218916Y-65307400D01*
X144922357Y-65366389D01*
X144643005Y-65482101D01*
X144391595Y-65650088D01*
X144177788Y-65863895D01*
X144115310Y-65957400D01*
X141624890Y-65957400D01*
X141562412Y-65863895D01*
X141348605Y-65650088D01*
X141097195Y-65482101D01*
X140817843Y-65366389D01*
X140521284Y-65307400D01*
X140218916Y-65307400D01*
X139922357Y-65366389D01*
X139643005Y-65482101D01*
X139391595Y-65650088D01*
X139177788Y-65863895D01*
X139115310Y-65957400D01*
X136624890Y-65957400D01*
X136562412Y-65863895D01*
X136348605Y-65650088D01*
X136097195Y-65482101D01*
X135817843Y-65366389D01*
X135521284Y-65307400D01*
X135218916Y-65307400D01*
X135108618Y-65329340D01*
X133616633Y-63837355D01*
X133588916Y-63803582D01*
X133454158Y-63692988D01*
X133300412Y-63610810D01*
X133133589Y-63560204D01*
X133003576Y-63547399D01*
X133003568Y-63547399D01*
X132960099Y-63543118D01*
X132916630Y-63547399D01*
X119845054Y-63547399D01*
X120016954Y-63392693D01*
X120192784Y-63157344D01*
X120319322Y-62892214D01*
X120365058Y-62741426D01*
X120243917Y-62509400D01*
X119037100Y-62509400D01*
X119037100Y-62529400D01*
X118783100Y-62529400D01*
X118783100Y-62509400D01*
X116497100Y-62509400D01*
X116497100Y-62529400D01*
X116243100Y-62529400D01*
X116243100Y-62509400D01*
X116223100Y-62509400D01*
X116223100Y-62255400D01*
X116243100Y-62255400D01*
X116243100Y-61042550D01*
X116497100Y-61042550D01*
X116497100Y-62255400D01*
X118783100Y-62255400D01*
X118783100Y-61047936D01*
X119037100Y-61047936D01*
X119037100Y-62255400D01*
X120243917Y-62255400D01*
X120365058Y-62023374D01*
X120319322Y-61872586D01*
X120192784Y-61607456D01*
X120016954Y-61372107D01*
X119798588Y-61175583D01*
X119546078Y-61025436D01*
X119269127Y-60927437D01*
X119037100Y-61047936D01*
X118783100Y-61047936D01*
X118551073Y-60927437D01*
X118274122Y-61025436D01*
X118021612Y-61175583D01*
X117842153Y-61337092D01*
X117823202Y-61274620D01*
X117764237Y-61164306D01*
X117684885Y-61067615D01*
X117588194Y-60988263D01*
X117477880Y-60929298D01*
X117358182Y-60892988D01*
X117233700Y-60880728D01*
X116655850Y-60883800D01*
X116497100Y-61042550D01*
X116243100Y-61042550D01*
X116084350Y-60883800D01*
X115506500Y-60880728D01*
X115382018Y-60892988D01*
X115262320Y-60929298D01*
X115152006Y-60988263D01*
X115101370Y-61029819D01*
X115101370Y-57110666D01*
X115268792Y-57222534D01*
X115484448Y-57311861D01*
X115713388Y-57357400D01*
X115946812Y-57357400D01*
X116175752Y-57311861D01*
X116391408Y-57222534D01*
X116585494Y-57092850D01*
X116750550Y-56927794D01*
X116784190Y-56877448D01*
X116832563Y-56994231D01*
X117022437Y-57278398D01*
X117264102Y-57520063D01*
X117548269Y-57709937D01*
X117864019Y-57840725D01*
X118199217Y-57907400D01*
X118540983Y-57907400D01*
X118876181Y-57840725D01*
X119191931Y-57709937D01*
X119476098Y-57520063D01*
X119717763Y-57278398D01*
X119907637Y-56994231D01*
X119917107Y-56971367D01*
X124445100Y-56971367D01*
X124445100Y-57293433D01*
X124507932Y-57609312D01*
X124631182Y-57906863D01*
X124810113Y-58174652D01*
X125037848Y-58402387D01*
X125305637Y-58581318D01*
X125603188Y-58704568D01*
X125919067Y-58767400D01*
X126241133Y-58767400D01*
X126557012Y-58704568D01*
X126854563Y-58581318D01*
X127122352Y-58402387D01*
X127256926Y-58267813D01*
X127664292Y-58267813D01*
X127760056Y-58532214D01*
X128049671Y-58673104D01*
X128361208Y-58754784D01*
X128682695Y-58774118D01*
X129001775Y-58730361D01*
X129306188Y-58625195D01*
X129480144Y-58532214D01*
X129575908Y-58267813D01*
X128620100Y-57312005D01*
X127664292Y-58267813D01*
X127256926Y-58267813D01*
X127350087Y-58174652D01*
X127422820Y-58065800D01*
X127484687Y-58088208D01*
X128440495Y-57132400D01*
X128799705Y-57132400D01*
X129755513Y-58088208D01*
X129817380Y-58065800D01*
X129890113Y-58174652D01*
X130117848Y-58402387D01*
X130385637Y-58581318D01*
X130683188Y-58704568D01*
X130999067Y-58767400D01*
X131321133Y-58767400D01*
X131637012Y-58704568D01*
X131934563Y-58581318D01*
X132202352Y-58402387D01*
X132430087Y-58174652D01*
X132609018Y-57906863D01*
X132732268Y-57609312D01*
X132795100Y-57293433D01*
X132795100Y-56971367D01*
X132732268Y-56655488D01*
X132609018Y-56357937D01*
X132430087Y-56090148D01*
X132202352Y-55862413D01*
X131934563Y-55683482D01*
X131637012Y-55560232D01*
X131321133Y-55497400D01*
X130999067Y-55497400D01*
X130683188Y-55560232D01*
X130385637Y-55683482D01*
X130117848Y-55862413D01*
X129890113Y-56090148D01*
X129817380Y-56199000D01*
X129755513Y-56176592D01*
X128799705Y-57132400D01*
X128440495Y-57132400D01*
X127484687Y-56176592D01*
X127422820Y-56199000D01*
X127350087Y-56090148D01*
X127256926Y-55996987D01*
X127664292Y-55996987D01*
X128620100Y-56952795D01*
X129575908Y-55996987D01*
X129480144Y-55732586D01*
X129190529Y-55591696D01*
X128878992Y-55510016D01*
X128557505Y-55490682D01*
X128238425Y-55534439D01*
X127934012Y-55639605D01*
X127760056Y-55732586D01*
X127664292Y-55996987D01*
X127256926Y-55996987D01*
X127122352Y-55862413D01*
X126854563Y-55683482D01*
X126557012Y-55560232D01*
X126241133Y-55497400D01*
X125919067Y-55497400D01*
X125603188Y-55560232D01*
X125305637Y-55683482D01*
X125037848Y-55862413D01*
X124810113Y-56090148D01*
X124631182Y-56357937D01*
X124507932Y-56655488D01*
X124445100Y-56971367D01*
X119917107Y-56971367D01*
X120038425Y-56678481D01*
X120105100Y-56343283D01*
X120105100Y-56001517D01*
X120038425Y-55666319D01*
X119907637Y-55350569D01*
X119840410Y-55249957D01*
X119921285Y-55183585D01*
X120000637Y-55086894D01*
X120059602Y-54976580D01*
X120095912Y-54856882D01*
X120108172Y-54732400D01*
X120105100Y-53918150D01*
X119946350Y-53759400D01*
X118497100Y-53759400D01*
X118497100Y-53779400D01*
X118243100Y-53779400D01*
X118243100Y-53759400D01*
X118223100Y-53759400D01*
X118223100Y-53505400D01*
X118243100Y-53505400D01*
X118243100Y-52056150D01*
X118497100Y-52056150D01*
X118497100Y-53505400D01*
X119946350Y-53505400D01*
X120105100Y-53346650D01*
X120108172Y-52532400D01*
X120095912Y-52407918D01*
X120059602Y-52288220D01*
X120000637Y-52177906D01*
X119921285Y-52081215D01*
X119824594Y-52001863D01*
X119714280Y-51942898D01*
X119594582Y-51906588D01*
X119470100Y-51894328D01*
X118655850Y-51897400D01*
X118497100Y-52056150D01*
X118243100Y-52056150D01*
X118084350Y-51897400D01*
X117270100Y-51894328D01*
X117145618Y-51906588D01*
X117025920Y-51942898D01*
X116915606Y-52001863D01*
X116818915Y-52081215D01*
X116739563Y-52177906D01*
X116680598Y-52288220D01*
X116644288Y-52407918D01*
X116632028Y-52532400D01*
X116632884Y-52759340D01*
X116585494Y-52711950D01*
X116391408Y-52582266D01*
X116175752Y-52492939D01*
X115946812Y-52447400D01*
X115713388Y-52447400D01*
X115484448Y-52492939D01*
X115268792Y-52582266D01*
X115101370Y-52694134D01*
X115101370Y-49072404D01*
X115173659Y-48153882D01*
X115382891Y-47282367D01*
X115515791Y-46961517D01*
X119725100Y-46961517D01*
X119725100Y-47303283D01*
X119791775Y-47638481D01*
X119922563Y-47954231D01*
X120112437Y-48238398D01*
X120354102Y-48480063D01*
X120638269Y-48669937D01*
X120954019Y-48800725D01*
X121289217Y-48867400D01*
X121630983Y-48867400D01*
X121966181Y-48800725D01*
X122281931Y-48669937D01*
X122566098Y-48480063D01*
X122807763Y-48238398D01*
X122997637Y-47954231D01*
X123128425Y-47638481D01*
X123195100Y-47303283D01*
X123195100Y-46961517D01*
X123128425Y-46626319D01*
X122997637Y-46310569D01*
X122811771Y-46032400D01*
X129882028Y-46032400D01*
X129882028Y-48232400D01*
X129894288Y-48356882D01*
X129930598Y-48476580D01*
X129989563Y-48586894D01*
X130068915Y-48683585D01*
X130165606Y-48762937D01*
X130275920Y-48821902D01*
X130395618Y-48858212D01*
X130520100Y-48870472D01*
X132720100Y-48870472D01*
X132844582Y-48858212D01*
X132964280Y-48821902D01*
X133074594Y-48762937D01*
X133171285Y-48683585D01*
X133250637Y-48586894D01*
X133309602Y-48476580D01*
X133345912Y-48356882D01*
X133358172Y-48232400D01*
X133358172Y-46032400D01*
X133345912Y-45907918D01*
X133309602Y-45788220D01*
X133250637Y-45677906D01*
X133171285Y-45581215D01*
X133074594Y-45501863D01*
X132964280Y-45442898D01*
X132844582Y-45406588D01*
X132720100Y-45394328D01*
X130520100Y-45394328D01*
X130395618Y-45406588D01*
X130275920Y-45442898D01*
X130165606Y-45501863D01*
X130068915Y-45581215D01*
X129989563Y-45677906D01*
X129930598Y-45788220D01*
X129894288Y-45907918D01*
X129882028Y-46032400D01*
X122811771Y-46032400D01*
X122807763Y-46026402D01*
X122566098Y-45784737D01*
X122281931Y-45594863D01*
X121966181Y-45464075D01*
X121630983Y-45397400D01*
X121289217Y-45397400D01*
X120954019Y-45464075D01*
X120638269Y-45594863D01*
X120354102Y-45784737D01*
X120112437Y-46026402D01*
X119922563Y-46310569D01*
X119791775Y-46626319D01*
X119725100Y-46961517D01*
X115515791Y-46961517D01*
X115725884Y-46454311D01*
X116194188Y-45690109D01*
X116776274Y-45008574D01*
X117457809Y-44426487D01*
X118222011Y-43958184D01*
X119050069Y-43615191D01*
X119921582Y-43405959D01*
X120840104Y-43333670D01*
X134783831Y-43333670D01*
X134783830Y-64256149D01*
%TA.AperFunction,Conductor*%
D27*
G36*
X134783830Y-64256149D02*
G01*
X134780752Y-64287400D01*
X134793037Y-64412131D01*
X134829419Y-64532068D01*
X134888502Y-64642603D01*
X134968013Y-64739487D01*
X135064897Y-64818998D01*
X135175432Y-64878081D01*
X135295369Y-64914463D01*
X135420100Y-64926748D01*
X135451351Y-64923670D01*
X153168849Y-64923670D01*
X153200100Y-64926748D01*
X153231351Y-64923670D01*
X153244246Y-64922400D01*
X153324831Y-64914463D01*
X153444768Y-64878081D01*
X153555303Y-64818998D01*
X153652187Y-64739487D01*
X153731698Y-64642603D01*
X153790781Y-64532068D01*
X153827163Y-64412131D01*
X153836370Y-64318651D01*
X153836370Y-64318650D01*
X153839448Y-64287400D01*
X153836370Y-64256149D01*
X153836370Y-58129112D01*
X155842993Y-58129112D01*
X155950826Y-58403738D01*
X156257484Y-58554616D01*
X156587685Y-58642769D01*
X156928739Y-58664809D01*
X157267539Y-58619889D01*
X157591066Y-58509736D01*
X157789374Y-58403738D01*
X157897207Y-58129112D01*
X156870100Y-57102005D01*
X155842993Y-58129112D01*
X153836370Y-58129112D01*
X153836370Y-58000526D01*
X153984448Y-58061861D01*
X154213388Y-58107400D01*
X154446812Y-58107400D01*
X154675752Y-58061861D01*
X154891408Y-57972534D01*
X155085494Y-57842850D01*
X155250550Y-57677794D01*
X155279655Y-57634235D01*
X155282764Y-57643366D01*
X155388762Y-57841674D01*
X155663388Y-57949507D01*
X156690495Y-56922400D01*
X155663388Y-55895293D01*
X155388762Y-56003126D01*
X155283713Y-56216638D01*
X155250550Y-56167006D01*
X155085494Y-56001950D01*
X154891408Y-55872266D01*
X154675752Y-55782939D01*
X154446812Y-55737400D01*
X154213388Y-55737400D01*
X153984448Y-55782939D01*
X153836370Y-55844274D01*
X153836370Y-55460526D01*
X153984448Y-55521861D01*
X154213388Y-55567400D01*
X154446812Y-55567400D01*
X154675752Y-55521861D01*
X154891408Y-55432534D01*
X155085494Y-55302850D01*
X155250550Y-55137794D01*
X155284190Y-55087448D01*
X155332563Y-55204231D01*
X155522437Y-55488398D01*
X155764102Y-55730063D01*
X156045174Y-55917869D01*
X156870100Y-56742795D01*
X156884243Y-56728653D01*
X157063848Y-56908258D01*
X157049705Y-56922400D01*
X158076812Y-57949507D01*
X158351438Y-57841674D01*
X158502316Y-57535016D01*
X158505393Y-57523492D01*
X162681499Y-61699599D01*
X162681500Y-67995597D01*
X162677823Y-68032929D01*
X162692497Y-68181914D01*
X162735953Y-68325175D01*
X162806525Y-68457205D01*
X162859334Y-68521552D01*
X162901499Y-68572930D01*
X162930497Y-68596728D01*
X163431937Y-69098169D01*
X163302058Y-69292547D01*
X163189090Y-69565275D01*
X163131500Y-69854801D01*
X163131500Y-70149999D01*
X163189090Y-70439525D01*
X163302058Y-70712253D01*
X163466061Y-70957702D01*
X163674798Y-71166439D01*
X163833381Y-71272400D01*
X163674798Y-71378361D01*
X163466061Y-71587098D01*
X163302058Y-71832547D01*
X163189090Y-72105275D01*
X163131500Y-72394801D01*
X163131500Y-72689999D01*
X163189090Y-72979525D01*
X163302058Y-73252253D01*
X163466061Y-73497702D01*
X163674798Y-73706439D01*
X163833381Y-73812400D01*
X163674798Y-73918361D01*
X163466061Y-74127098D01*
X163302058Y-74372547D01*
X163189090Y-74645275D01*
X163131500Y-74934801D01*
X163131500Y-75229999D01*
X163189090Y-75519525D01*
X163302058Y-75792253D01*
X163466061Y-76037702D01*
X163674798Y-76246439D01*
X163833381Y-76352400D01*
X163674798Y-76458361D01*
X163466061Y-76667098D01*
X163302058Y-76912547D01*
X163189090Y-77185275D01*
X163131500Y-77474801D01*
X163131500Y-77769999D01*
X163189090Y-78059525D01*
X163302058Y-78332253D01*
X163466061Y-78577702D01*
X163674798Y-78786439D01*
X163833381Y-78892400D01*
X163674798Y-78998361D01*
X163466061Y-79207098D01*
X163302058Y-79452547D01*
X163189090Y-79725275D01*
X163131500Y-80014801D01*
X163131500Y-80309999D01*
X163189090Y-80599525D01*
X163302058Y-80872253D01*
X163466061Y-81117702D01*
X163674798Y-81326439D01*
X163833381Y-81432400D01*
X163674798Y-81538361D01*
X163466061Y-81747098D01*
X163302058Y-81992547D01*
X163189090Y-82265275D01*
X163131500Y-82554801D01*
X163131500Y-82849999D01*
X163189090Y-83139525D01*
X163302058Y-83412253D01*
X163466061Y-83657702D01*
X163674798Y-83866439D01*
X163833381Y-83972400D01*
X163674798Y-84078361D01*
X163466061Y-84287098D01*
X163302058Y-84532547D01*
X163189090Y-84805275D01*
X163131500Y-85094801D01*
X163131500Y-85389999D01*
X163189090Y-85679525D01*
X163302058Y-85952253D01*
X163466061Y-86197702D01*
X163674798Y-86406439D01*
X163833381Y-86512400D01*
X163674798Y-86618361D01*
X163466061Y-86827098D01*
X163302058Y-87072547D01*
X163189090Y-87345275D01*
X163131500Y-87634801D01*
X163131500Y-87929999D01*
X163189090Y-88219525D01*
X163302058Y-88492253D01*
X163466061Y-88737702D01*
X163674798Y-88946439D01*
X163833381Y-89052400D01*
X163674798Y-89158361D01*
X163466061Y-89367098D01*
X163302058Y-89612547D01*
X163189090Y-89885275D01*
X163131500Y-90174801D01*
X163131500Y-90469999D01*
X163189090Y-90759525D01*
X163302058Y-91032253D01*
X163466061Y-91277702D01*
X163674798Y-91486439D01*
X163833381Y-91592400D01*
X163674798Y-91698361D01*
X163466061Y-91907098D01*
X163302058Y-92152547D01*
X163189090Y-92425275D01*
X163131500Y-92714801D01*
X163131500Y-93009999D01*
X163189090Y-93299525D01*
X163302058Y-93572253D01*
X163466061Y-93817702D01*
X163674798Y-94026439D01*
X163833381Y-94132400D01*
X163674798Y-94238361D01*
X163466061Y-94447098D01*
X163302058Y-94692547D01*
X163189090Y-94965275D01*
X163131500Y-95254801D01*
X163131500Y-95549999D01*
X163189090Y-95839525D01*
X163302058Y-96112253D01*
X163466061Y-96357702D01*
X163674798Y-96566439D01*
X163833381Y-96672400D01*
X163674798Y-96778361D01*
X163466061Y-96987098D01*
X163302058Y-97232547D01*
X163189090Y-97505275D01*
X163131500Y-97794801D01*
X163131500Y-98089999D01*
X163189090Y-98379525D01*
X163302058Y-98652253D01*
X163466061Y-98897702D01*
X163674798Y-99106439D01*
X163833381Y-99212400D01*
X163674798Y-99318361D01*
X163466061Y-99527098D01*
X163302058Y-99772547D01*
X163189090Y-100045275D01*
X163131500Y-100334801D01*
X163131500Y-100629999D01*
X163189090Y-100919525D01*
X163302058Y-101192253D01*
X163466061Y-101437702D01*
X163674798Y-101646439D01*
X163833381Y-101752400D01*
X163674798Y-101858361D01*
X163466061Y-102067098D01*
X163302058Y-102312547D01*
X163189090Y-102585275D01*
X163131500Y-102874801D01*
X163131500Y-103169999D01*
X163189090Y-103459525D01*
X163302058Y-103732253D01*
X163466061Y-103977702D01*
X163674798Y-104186439D01*
X163833381Y-104292400D01*
X163674798Y-104398361D01*
X163466061Y-104607098D01*
X163302058Y-104852547D01*
X163189090Y-105125275D01*
X163131500Y-105414801D01*
X163131500Y-105709999D01*
X163189090Y-105999525D01*
X163302058Y-106272253D01*
X163466061Y-106517702D01*
X163674798Y-106726439D01*
X163833381Y-106832400D01*
X163674798Y-106938361D01*
X163466061Y-107147098D01*
X163302058Y-107392547D01*
X163189090Y-107665275D01*
X163131500Y-107954801D01*
X163131500Y-108249999D01*
X163189090Y-108539525D01*
X163302058Y-108812253D01*
X163466061Y-109057702D01*
X163674798Y-109266439D01*
X163833381Y-109372400D01*
X163674798Y-109478361D01*
X163466061Y-109687098D01*
X163302058Y-109932547D01*
X163189090Y-110205275D01*
X163131500Y-110494801D01*
X163131500Y-110789999D01*
X163189090Y-111079525D01*
X163302058Y-111352253D01*
X163466061Y-111597702D01*
X163674798Y-111806439D01*
X163833381Y-111912400D01*
X163674798Y-112018361D01*
X163466061Y-112227098D01*
X163302058Y-112472547D01*
X163189090Y-112745275D01*
X163131500Y-113034801D01*
X163131500Y-113329999D01*
X163189090Y-113619525D01*
X163302058Y-113892253D01*
X163466061Y-114137702D01*
X163674798Y-114346439D01*
X163833381Y-114452400D01*
X163674798Y-114558361D01*
X163466061Y-114767098D01*
X163302058Y-115012547D01*
X163189090Y-115285275D01*
X163131500Y-115574801D01*
X163131500Y-115869999D01*
X163189090Y-116159525D01*
X163302058Y-116432253D01*
X163466061Y-116677702D01*
X163674798Y-116886439D01*
X163833381Y-116992400D01*
X163674798Y-117098361D01*
X163466061Y-117307098D01*
X163302058Y-117552547D01*
X163189090Y-117825275D01*
X163131500Y-118114801D01*
X163131500Y-118409999D01*
X163189090Y-118699525D01*
X163302058Y-118972253D01*
X163466061Y-119217702D01*
X163674798Y-119426439D01*
X163920247Y-119590442D01*
X164192975Y-119703410D01*
X164482501Y-119761000D01*
X164777699Y-119761000D01*
X165067225Y-119703410D01*
X165339953Y-119590442D01*
X165585402Y-119426439D01*
X165794139Y-119217702D01*
X165900100Y-119059119D01*
X166006061Y-119217702D01*
X166214798Y-119426439D01*
X166460247Y-119590442D01*
X166732975Y-119703410D01*
X167022501Y-119761000D01*
X167317699Y-119761000D01*
X167607225Y-119703410D01*
X167879953Y-119590442D01*
X168000411Y-119509955D01*
X167766864Y-120324430D01*
X167253667Y-121569537D01*
X166604882Y-122749674D01*
X165828586Y-123850144D01*
X164934462Y-124857219D01*
X163933653Y-125758351D01*
X162838639Y-126542304D01*
X161663061Y-127199313D01*
X160421563Y-127721191D01*
X159129638Y-128101425D01*
X157803368Y-128335282D01*
X156442664Y-128420891D01*
X156374031Y-128421130D01*
X127182875Y-128421130D01*
X125820482Y-128344961D01*
X124492617Y-128120369D01*
X123198070Y-127749164D01*
X121952963Y-127235967D01*
X120772826Y-126587182D01*
X119672356Y-125810886D01*
X118665281Y-124916762D01*
X117764149Y-123915953D01*
X116980196Y-122820939D01*
X116323187Y-121645361D01*
X115801309Y-120403863D01*
X115535692Y-119501374D01*
X115734122Y-119619364D01*
X116011073Y-119717363D01*
X116243100Y-119596864D01*
X116243100Y-118389400D01*
X116497100Y-118389400D01*
X116497100Y-119596864D01*
X116729127Y-119717363D01*
X117006078Y-119619364D01*
X117258588Y-119469217D01*
X117476954Y-119272693D01*
X117640100Y-119054322D01*
X117803246Y-119272693D01*
X118021612Y-119469217D01*
X118274122Y-119619364D01*
X118551073Y-119717363D01*
X118783100Y-119596864D01*
X118783100Y-118389400D01*
X119037100Y-118389400D01*
X119037100Y-119596864D01*
X119269127Y-119717363D01*
X119546078Y-119619364D01*
X119798588Y-119469217D01*
X120016954Y-119272693D01*
X120192784Y-119037344D01*
X120319322Y-118772214D01*
X120365058Y-118621426D01*
X120243917Y-118389400D01*
X119037100Y-118389400D01*
X118783100Y-118389400D01*
X116497100Y-118389400D01*
X116243100Y-118389400D01*
X116223100Y-118389400D01*
X116223100Y-118135400D01*
X116243100Y-118135400D01*
X116243100Y-115849400D01*
X116497100Y-115849400D01*
X116497100Y-118135400D01*
X118783100Y-118135400D01*
X118783100Y-115849400D01*
X119037100Y-115849400D01*
X119037100Y-118135400D01*
X120243917Y-118135400D01*
X120365058Y-117903374D01*
X120358697Y-117882400D01*
X128982028Y-117882400D01*
X128982028Y-120882400D01*
X128994288Y-121006882D01*
X129030598Y-121126580D01*
X129089563Y-121236894D01*
X129168915Y-121333585D01*
X129265606Y-121412937D01*
X129375920Y-121471902D01*
X129495618Y-121508212D01*
X129620100Y-121520472D01*
X131120100Y-121520472D01*
X131244582Y-121508212D01*
X131364280Y-121471902D01*
X131474594Y-121412937D01*
X131571285Y-121333585D01*
X131650637Y-121236894D01*
X131709602Y-121126580D01*
X131745912Y-121006882D01*
X131758172Y-120882400D01*
X131758172Y-118564364D01*
X133985100Y-118564364D01*
X133985100Y-120200437D01*
X134005140Y-120403907D01*
X134084337Y-120664981D01*
X134212944Y-120905588D01*
X134386020Y-121116481D01*
X134596913Y-121289557D01*
X134837520Y-121418164D01*
X135098594Y-121497360D01*
X135370100Y-121524101D01*
X135641607Y-121497360D01*
X135902681Y-121418164D01*
X136143288Y-121289557D01*
X136354181Y-121116481D01*
X136527257Y-120905588D01*
X136655864Y-120664981D01*
X136735060Y-120403907D01*
X136755100Y-120200437D01*
X136755100Y-118564363D01*
X136735060Y-118360893D01*
X136655864Y-118099819D01*
X136539652Y-117882400D01*
X145982028Y-117882400D01*
X145982028Y-120882400D01*
X145994288Y-121006882D01*
X146030598Y-121126580D01*
X146089563Y-121236894D01*
X146168915Y-121333585D01*
X146265606Y-121412937D01*
X146375920Y-121471902D01*
X146495618Y-121508212D01*
X146620100Y-121520472D01*
X148120100Y-121520472D01*
X148244582Y-121508212D01*
X148364280Y-121471902D01*
X148474594Y-121412937D01*
X148571285Y-121333585D01*
X148650637Y-121236894D01*
X148709602Y-121126580D01*
X148745912Y-121006882D01*
X148758172Y-120882400D01*
X148758172Y-118564364D01*
X150985100Y-118564364D01*
X150985100Y-120200437D01*
X151005140Y-120403907D01*
X151084337Y-120664981D01*
X151212944Y-120905588D01*
X151386020Y-121116481D01*
X151596913Y-121289557D01*
X151837520Y-121418164D01*
X152098594Y-121497360D01*
X152370100Y-121524101D01*
X152641607Y-121497360D01*
X152902681Y-121418164D01*
X153143288Y-121289557D01*
X153354181Y-121116481D01*
X153527257Y-120905588D01*
X153655864Y-120664981D01*
X153735060Y-120403907D01*
X153755100Y-120200437D01*
X153755100Y-118564363D01*
X153735060Y-118360893D01*
X153655864Y-118099819D01*
X153527257Y-117859212D01*
X153354180Y-117648319D01*
X153143287Y-117475243D01*
X152902680Y-117346636D01*
X152641606Y-117267440D01*
X152370100Y-117240699D01*
X152098593Y-117267440D01*
X151837519Y-117346636D01*
X151596912Y-117475243D01*
X151386019Y-117648320D01*
X151212943Y-117859213D01*
X151084336Y-118099820D01*
X151005140Y-118360894D01*
X150985100Y-118564364D01*
X148758172Y-118564364D01*
X148758172Y-117882400D01*
X148745912Y-117757918D01*
X148709602Y-117638220D01*
X148650637Y-117527906D01*
X148571285Y-117431215D01*
X148474594Y-117351863D01*
X148364280Y-117292898D01*
X148244582Y-117256588D01*
X148120100Y-117244328D01*
X146620100Y-117244328D01*
X146495618Y-117256588D01*
X146375920Y-117292898D01*
X146265606Y-117351863D01*
X146168915Y-117431215D01*
X146089563Y-117527906D01*
X146030598Y-117638220D01*
X145994288Y-117757918D01*
X145982028Y-117882400D01*
X136539652Y-117882400D01*
X136527257Y-117859212D01*
X136354180Y-117648319D01*
X136143287Y-117475243D01*
X135902680Y-117346636D01*
X135641606Y-117267440D01*
X135370100Y-117240699D01*
X135098593Y-117267440D01*
X134837519Y-117346636D01*
X134596912Y-117475243D01*
X134386019Y-117648320D01*
X134212943Y-117859213D01*
X134084336Y-118099820D01*
X134005140Y-118360894D01*
X133985100Y-118564364D01*
X131758172Y-118564364D01*
X131758172Y-117882400D01*
X131745912Y-117757918D01*
X131709602Y-117638220D01*
X131650637Y-117527906D01*
X131571285Y-117431215D01*
X131474594Y-117351863D01*
X131364280Y-117292898D01*
X131244582Y-117256588D01*
X131120100Y-117244328D01*
X129620100Y-117244328D01*
X129495618Y-117256588D01*
X129375920Y-117292898D01*
X129265606Y-117351863D01*
X129168915Y-117431215D01*
X129089563Y-117527906D01*
X129030598Y-117638220D01*
X128994288Y-117757918D01*
X128982028Y-117882400D01*
X120358697Y-117882400D01*
X120319322Y-117752586D01*
X120192784Y-117487456D01*
X120016954Y-117252107D01*
X119798588Y-117055583D01*
X119692330Y-116992400D01*
X119798588Y-116929217D01*
X120016954Y-116732693D01*
X120192784Y-116497344D01*
X120319322Y-116232214D01*
X120365058Y-116081426D01*
X120243917Y-115849400D01*
X119037100Y-115849400D01*
X118783100Y-115849400D01*
X116497100Y-115849400D01*
X116243100Y-115849400D01*
X116223100Y-115849400D01*
X116223100Y-115595400D01*
X116243100Y-115595400D01*
X116243100Y-115575400D01*
X116497100Y-115575400D01*
X116497100Y-115595400D01*
X118783100Y-115595400D01*
X118783100Y-115575400D01*
X119037100Y-115575400D01*
X119037100Y-115595400D01*
X120243917Y-115595400D01*
X120365058Y-115363374D01*
X120319322Y-115212586D01*
X120192784Y-114947456D01*
X120016954Y-114712107D01*
X119798588Y-114515583D01*
X119699997Y-114456959D01*
X119865402Y-114346439D01*
X120074139Y-114137702D01*
X120238142Y-113892253D01*
X120351110Y-113619525D01*
X120408700Y-113329999D01*
X120408700Y-113034801D01*
X120351110Y-112745275D01*
X120238142Y-112472547D01*
X120074139Y-112227098D01*
X119865402Y-112018361D01*
X119706819Y-111912400D01*
X119865402Y-111806439D01*
X120074139Y-111597702D01*
X120238142Y-111352253D01*
X120284197Y-111241065D01*
X127935100Y-111241065D01*
X127935100Y-111523735D01*
X127990247Y-111800974D01*
X128098420Y-112062127D01*
X128255463Y-112297159D01*
X128455341Y-112497037D01*
X128690373Y-112654080D01*
X128951526Y-112762253D01*
X129228765Y-112817400D01*
X129511435Y-112817400D01*
X129788674Y-112762253D01*
X130049827Y-112654080D01*
X130284859Y-112497037D01*
X130484737Y-112297159D01*
X130641780Y-112062127D01*
X130749953Y-111800974D01*
X130805100Y-111523735D01*
X130805100Y-111241065D01*
X135555100Y-111241065D01*
X135555100Y-111523735D01*
X135610247Y-111800974D01*
X135718420Y-112062127D01*
X135875463Y-112297159D01*
X136075341Y-112497037D01*
X136310373Y-112654080D01*
X136571526Y-112762253D01*
X136848765Y-112817400D01*
X137131435Y-112817400D01*
X137408674Y-112762253D01*
X137669827Y-112654080D01*
X137904859Y-112497037D01*
X138104737Y-112297159D01*
X138261780Y-112062127D01*
X138369953Y-111800974D01*
X138425100Y-111523735D01*
X138425100Y-111241065D01*
X144935100Y-111241065D01*
X144935100Y-111523735D01*
X144990247Y-111800974D01*
X145098420Y-112062127D01*
X145255463Y-112297159D01*
X145455341Y-112497037D01*
X145690373Y-112654080D01*
X145951526Y-112762253D01*
X146228765Y-112817400D01*
X146511435Y-112817400D01*
X146788674Y-112762253D01*
X147049827Y-112654080D01*
X147284859Y-112497037D01*
X147484737Y-112297159D01*
X147641780Y-112062127D01*
X147749953Y-111800974D01*
X147805100Y-111523735D01*
X147805100Y-111241065D01*
X152555100Y-111241065D01*
X152555100Y-111523735D01*
X152610247Y-111800974D01*
X152718420Y-112062127D01*
X152875463Y-112297159D01*
X153075341Y-112497037D01*
X153310373Y-112654080D01*
X153571526Y-112762253D01*
X153848765Y-112817400D01*
X154131435Y-112817400D01*
X154408674Y-112762253D01*
X154669827Y-112654080D01*
X154904859Y-112497037D01*
X155104737Y-112297159D01*
X155261780Y-112062127D01*
X155369953Y-111800974D01*
X155425100Y-111523735D01*
X155425100Y-111241065D01*
X155369953Y-110963826D01*
X155261780Y-110702673D01*
X155104737Y-110467641D01*
X154904859Y-110267763D01*
X154669827Y-110110720D01*
X154408674Y-110002547D01*
X154131435Y-109947400D01*
X153848765Y-109947400D01*
X153571526Y-110002547D01*
X153310373Y-110110720D01*
X153075341Y-110267763D01*
X152875463Y-110467641D01*
X152718420Y-110702673D01*
X152610247Y-110963826D01*
X152555100Y-111241065D01*
X147805100Y-111241065D01*
X147749953Y-110963826D01*
X147641780Y-110702673D01*
X147484737Y-110467641D01*
X147284859Y-110267763D01*
X147049827Y-110110720D01*
X146788674Y-110002547D01*
X146511435Y-109947400D01*
X146228765Y-109947400D01*
X145951526Y-110002547D01*
X145690373Y-110110720D01*
X145455341Y-110267763D01*
X145255463Y-110467641D01*
X145098420Y-110702673D01*
X144990247Y-110963826D01*
X144935100Y-111241065D01*
X138425100Y-111241065D01*
X138369953Y-110963826D01*
X138261780Y-110702673D01*
X138104737Y-110467641D01*
X137904859Y-110267763D01*
X137669827Y-110110720D01*
X137408674Y-110002547D01*
X137131435Y-109947400D01*
X136848765Y-109947400D01*
X136571526Y-110002547D01*
X136310373Y-110110720D01*
X136075341Y-110267763D01*
X135875463Y-110467641D01*
X135718420Y-110702673D01*
X135610247Y-110963826D01*
X135555100Y-111241065D01*
X130805100Y-111241065D01*
X130749953Y-110963826D01*
X130641780Y-110702673D01*
X130484737Y-110467641D01*
X130284859Y-110267763D01*
X130049827Y-110110720D01*
X129788674Y-110002547D01*
X129511435Y-109947400D01*
X129228765Y-109947400D01*
X128951526Y-110002547D01*
X128690373Y-110110720D01*
X128455341Y-110267763D01*
X128255463Y-110467641D01*
X128098420Y-110702673D01*
X127990247Y-110963826D01*
X127935100Y-111241065D01*
X120284197Y-111241065D01*
X120351110Y-111079525D01*
X120408700Y-110789999D01*
X120408700Y-110494801D01*
X120351110Y-110205275D01*
X120238142Y-109932547D01*
X120074139Y-109687098D01*
X119865402Y-109478361D01*
X119706819Y-109372400D01*
X119865402Y-109266439D01*
X120074139Y-109057702D01*
X120238142Y-108812253D01*
X120351110Y-108539525D01*
X120408700Y-108249999D01*
X120408700Y-107954801D01*
X120351110Y-107665275D01*
X120238142Y-107392547D01*
X120074139Y-107147098D01*
X119865402Y-106938361D01*
X119706819Y-106832400D01*
X119865402Y-106726439D01*
X120009441Y-106582400D01*
X136932028Y-106582400D01*
X136932028Y-108182400D01*
X136944288Y-108306882D01*
X136980598Y-108426580D01*
X137039563Y-108536894D01*
X137118915Y-108633585D01*
X137215606Y-108712937D01*
X137325920Y-108771902D01*
X137445618Y-108808212D01*
X137570100Y-108820472D01*
X139170100Y-108820472D01*
X139294582Y-108808212D01*
X139414280Y-108771902D01*
X139524594Y-108712937D01*
X139621285Y-108633585D01*
X139700637Y-108536894D01*
X139759602Y-108426580D01*
X139795912Y-108306882D01*
X139796743Y-108298439D01*
X139995341Y-108497037D01*
X140230373Y-108654080D01*
X140491526Y-108762253D01*
X140768765Y-108817400D01*
X141051435Y-108817400D01*
X141328674Y-108762253D01*
X141589827Y-108654080D01*
X141824859Y-108497037D01*
X142024737Y-108297159D01*
X142180100Y-108064641D01*
X142335463Y-108297159D01*
X142535341Y-108497037D01*
X142770373Y-108654080D01*
X143031526Y-108762253D01*
X143308765Y-108817400D01*
X143591435Y-108817400D01*
X143868674Y-108762253D01*
X144129827Y-108654080D01*
X144364859Y-108497037D01*
X144564737Y-108297159D01*
X144720100Y-108064641D01*
X144875463Y-108297159D01*
X145075341Y-108497037D01*
X145310373Y-108654080D01*
X145571526Y-108762253D01*
X145848765Y-108817400D01*
X146131435Y-108817400D01*
X146408674Y-108762253D01*
X146669827Y-108654080D01*
X146904859Y-108497037D01*
X147104737Y-108297159D01*
X147261780Y-108062127D01*
X147369953Y-107800974D01*
X147425100Y-107523735D01*
X147425100Y-107241065D01*
X147369953Y-106963826D01*
X147261780Y-106702673D01*
X147104737Y-106467641D01*
X146904859Y-106267763D01*
X146669827Y-106110720D01*
X146408674Y-106002547D01*
X146131435Y-105947400D01*
X145848765Y-105947400D01*
X145571526Y-106002547D01*
X145310373Y-106110720D01*
X145075341Y-106267763D01*
X144875463Y-106467641D01*
X144720100Y-106700159D01*
X144564737Y-106467641D01*
X144364859Y-106267763D01*
X144129827Y-106110720D01*
X143868674Y-106002547D01*
X143591435Y-105947400D01*
X143308765Y-105947400D01*
X143031526Y-106002547D01*
X142770373Y-106110720D01*
X142535341Y-106267763D01*
X142335463Y-106467641D01*
X142180100Y-106700159D01*
X142024737Y-106467641D01*
X141824859Y-106267763D01*
X141589827Y-106110720D01*
X141328674Y-106002547D01*
X141051435Y-105947400D01*
X140768765Y-105947400D01*
X140491526Y-106002547D01*
X140230373Y-106110720D01*
X139995341Y-106267763D01*
X139796743Y-106466361D01*
X139795912Y-106457918D01*
X139759602Y-106338220D01*
X139700637Y-106227906D01*
X139621285Y-106131215D01*
X139524594Y-106051863D01*
X139414280Y-105992898D01*
X139294582Y-105956588D01*
X139170100Y-105944328D01*
X137570100Y-105944328D01*
X137445618Y-105956588D01*
X137325920Y-105992898D01*
X137215606Y-106051863D01*
X137118915Y-106131215D01*
X137039563Y-106227906D01*
X136980598Y-106338220D01*
X136944288Y-106457918D01*
X136932028Y-106582400D01*
X120009441Y-106582400D01*
X120074139Y-106517702D01*
X120238142Y-106272253D01*
X120351110Y-105999525D01*
X120408700Y-105709999D01*
X120408700Y-105414801D01*
X120351110Y-105125275D01*
X120238142Y-104852547D01*
X120074139Y-104607098D01*
X119865402Y-104398361D01*
X119706819Y-104292400D01*
X119865402Y-104186439D01*
X120074139Y-103977702D01*
X120238142Y-103732253D01*
X120351110Y-103459525D01*
X120408700Y-103169999D01*
X120408700Y-102874801D01*
X120351110Y-102585275D01*
X120238142Y-102312547D01*
X120074139Y-102067098D01*
X119865402Y-101858361D01*
X119706819Y-101752400D01*
X119865402Y-101646439D01*
X120074139Y-101437702D01*
X120238142Y-101192253D01*
X120351110Y-100919525D01*
X120408700Y-100629999D01*
X120408700Y-100334801D01*
X120351110Y-100045275D01*
X120238142Y-99772547D01*
X120074139Y-99527098D01*
X119865402Y-99318361D01*
X119706819Y-99212400D01*
X119865402Y-99106439D01*
X120074139Y-98897702D01*
X120238142Y-98652253D01*
X120351110Y-98379525D01*
X120408700Y-98089999D01*
X120408700Y-97794801D01*
X120351110Y-97505275D01*
X120238142Y-97232547D01*
X120074139Y-96987098D01*
X119865402Y-96778361D01*
X119706819Y-96672400D01*
X119865402Y-96566439D01*
X120074139Y-96357702D01*
X120238142Y-96112253D01*
X120351110Y-95839525D01*
X120408700Y-95549999D01*
X120408700Y-95254801D01*
X120351110Y-94965275D01*
X120238142Y-94692547D01*
X120074139Y-94447098D01*
X119865402Y-94238361D01*
X119706819Y-94132400D01*
X119865402Y-94026439D01*
X120074139Y-93817702D01*
X120238142Y-93572253D01*
X120351110Y-93299525D01*
X120408700Y-93009999D01*
X120408700Y-92714801D01*
X120351110Y-92425275D01*
X120238142Y-92152547D01*
X120074139Y-91907098D01*
X119865402Y-91698361D01*
X119706819Y-91592400D01*
X119865402Y-91486439D01*
X120074139Y-91277702D01*
X120238142Y-91032253D01*
X120351110Y-90759525D01*
X120408700Y-90469999D01*
X120408700Y-90174801D01*
X120351110Y-89885275D01*
X120238142Y-89612547D01*
X120074139Y-89367098D01*
X119865402Y-89158361D01*
X119706819Y-89052400D01*
X119865402Y-88946439D01*
X120074139Y-88737702D01*
X120238142Y-88492253D01*
X120351110Y-88219525D01*
X120408700Y-87929999D01*
X120408700Y-87634801D01*
X120351110Y-87345275D01*
X120238142Y-87072547D01*
X120074139Y-86827098D01*
X119865402Y-86618361D01*
X119706819Y-86512400D01*
X119797760Y-86451636D01*
X133703572Y-100357449D01*
X133731285Y-100391217D01*
X133765053Y-100418930D01*
X133765055Y-100418932D01*
X133793318Y-100442127D01*
X133866043Y-100501811D01*
X134019789Y-100583989D01*
X134186612Y-100634595D01*
X134316625Y-100647400D01*
X134316635Y-100647400D01*
X134360101Y-100651681D01*
X134403568Y-100647400D01*
X137235579Y-100647400D01*
X137255463Y-100677159D01*
X137455341Y-100877037D01*
X137690373Y-101034080D01*
X137951526Y-101142253D01*
X138228765Y-101197400D01*
X138511435Y-101197400D01*
X138788674Y-101142253D01*
X139049827Y-101034080D01*
X139284859Y-100877037D01*
X139484737Y-100677159D01*
X139640100Y-100444641D01*
X139795463Y-100677159D01*
X139995341Y-100877037D01*
X140230373Y-101034080D01*
X140491526Y-101142253D01*
X140768765Y-101197400D01*
X141051435Y-101197400D01*
X141328674Y-101142253D01*
X141589827Y-101034080D01*
X141824859Y-100877037D01*
X142024737Y-100677159D01*
X142180100Y-100444641D01*
X142335463Y-100677159D01*
X142535341Y-100877037D01*
X142770373Y-101034080D01*
X143031526Y-101142253D01*
X143308765Y-101197400D01*
X143591435Y-101197400D01*
X143868674Y-101142253D01*
X144129827Y-101034080D01*
X144364859Y-100877037D01*
X144564737Y-100677159D01*
X144721780Y-100442127D01*
X144726167Y-100431535D01*
X144837715Y-100617531D01*
X145026686Y-100825919D01*
X145252680Y-100993437D01*
X145507013Y-101113646D01*
X145641061Y-101154304D01*
X145863100Y-101032315D01*
X145863100Y-99889400D01*
X146117100Y-99889400D01*
X146117100Y-101032315D01*
X146339139Y-101154304D01*
X146473187Y-101113646D01*
X146727520Y-100993437D01*
X146953514Y-100825919D01*
X147142485Y-100617531D01*
X147287170Y-100376281D01*
X147382009Y-100111440D01*
X147260724Y-99889400D01*
X146117100Y-99889400D01*
X145863100Y-99889400D01*
X145843100Y-99889400D01*
X145843100Y-99635400D01*
X145863100Y-99635400D01*
X145863100Y-98492485D01*
X146117100Y-98492485D01*
X146117100Y-99635400D01*
X147260724Y-99635400D01*
X147382009Y-99413360D01*
X147287170Y-99148519D01*
X147142485Y-98907269D01*
X146953514Y-98698881D01*
X146727520Y-98531363D01*
X146473187Y-98411154D01*
X146339139Y-98370496D01*
X146117100Y-98492485D01*
X145863100Y-98492485D01*
X145641061Y-98370496D01*
X145507013Y-98411154D01*
X145252680Y-98531363D01*
X145026686Y-98698881D01*
X144837715Y-98907269D01*
X144726167Y-99093265D01*
X144721780Y-99082673D01*
X144564737Y-98847641D01*
X144364859Y-98647763D01*
X144129827Y-98490720D01*
X143868674Y-98382547D01*
X143591435Y-98327400D01*
X143308765Y-98327400D01*
X143031526Y-98382547D01*
X142770373Y-98490720D01*
X142535341Y-98647763D01*
X142335463Y-98847641D01*
X142180100Y-99080159D01*
X142024737Y-98847641D01*
X141824859Y-98647763D01*
X141589827Y-98490720D01*
X141328674Y-98382547D01*
X141051435Y-98327400D01*
X140921101Y-98327400D01*
X141049827Y-98274080D01*
X141284859Y-98117037D01*
X141484737Y-97917159D01*
X141641780Y-97682127D01*
X141749953Y-97420974D01*
X141805100Y-97143735D01*
X141805100Y-96861065D01*
X142935100Y-96861065D01*
X142935100Y-97143735D01*
X142990247Y-97420974D01*
X143098420Y-97682127D01*
X143255463Y-97917159D01*
X143455341Y-98117037D01*
X143690373Y-98274080D01*
X143951526Y-98382253D01*
X144228765Y-98437400D01*
X144511435Y-98437400D01*
X144788674Y-98382253D01*
X145049827Y-98274080D01*
X145284859Y-98117037D01*
X145484737Y-97917159D01*
X145641780Y-97682127D01*
X145749953Y-97420974D01*
X145805100Y-97143735D01*
X145805100Y-96861065D01*
X145749953Y-96583826D01*
X145641780Y-96322673D01*
X145484737Y-96087641D01*
X145284859Y-95887763D01*
X145049827Y-95730720D01*
X144788674Y-95622547D01*
X144511435Y-95567400D01*
X144228765Y-95567400D01*
X143951526Y-95622547D01*
X143690373Y-95730720D01*
X143455341Y-95887763D01*
X143255463Y-96087641D01*
X143098420Y-96322673D01*
X142990247Y-96583826D01*
X142935100Y-96861065D01*
X141805100Y-96861065D01*
X141749953Y-96583826D01*
X141641780Y-96322673D01*
X141484737Y-96087641D01*
X141284859Y-95887763D01*
X141049827Y-95730720D01*
X140788674Y-95622547D01*
X140511435Y-95567400D01*
X140228765Y-95567400D01*
X139951526Y-95622547D01*
X139690373Y-95730720D01*
X139455341Y-95887763D01*
X139255463Y-96087641D01*
X139098420Y-96322673D01*
X138990247Y-96583826D01*
X138935100Y-96861065D01*
X138935100Y-97143735D01*
X138990247Y-97420974D01*
X139098420Y-97682127D01*
X139255463Y-97917159D01*
X139455341Y-98117037D01*
X139690373Y-98274080D01*
X139951526Y-98382253D01*
X140228765Y-98437400D01*
X140359099Y-98437400D01*
X140230373Y-98490720D01*
X139995341Y-98647763D01*
X139795463Y-98847641D01*
X139640100Y-99080159D01*
X139484737Y-98847641D01*
X139284859Y-98647763D01*
X139049827Y-98490720D01*
X138788674Y-98382547D01*
X138511435Y-98327400D01*
X138228765Y-98327400D01*
X137951526Y-98382547D01*
X137690373Y-98490720D01*
X137455341Y-98647763D01*
X137255463Y-98847641D01*
X137235579Y-98877400D01*
X134726681Y-98877400D01*
X125090346Y-89241065D01*
X138935100Y-89241065D01*
X138935100Y-89523735D01*
X138990247Y-89800974D01*
X139098420Y-90062127D01*
X139255463Y-90297159D01*
X139455341Y-90497037D01*
X139690373Y-90654080D01*
X139951526Y-90762253D01*
X140228765Y-90817400D01*
X140511435Y-90817400D01*
X140788674Y-90762253D01*
X141049827Y-90654080D01*
X141284859Y-90497037D01*
X141484737Y-90297159D01*
X141641780Y-90062127D01*
X141749953Y-89800974D01*
X141805100Y-89523735D01*
X141805100Y-89241065D01*
X142935100Y-89241065D01*
X142935100Y-89523735D01*
X142990247Y-89800974D01*
X143098420Y-90062127D01*
X143255463Y-90297159D01*
X143455341Y-90497037D01*
X143690373Y-90654080D01*
X143951526Y-90762253D01*
X144228765Y-90817400D01*
X144511435Y-90817400D01*
X144788674Y-90762253D01*
X145049827Y-90654080D01*
X145284859Y-90497037D01*
X145484737Y-90297159D01*
X145641780Y-90062127D01*
X145749953Y-89800974D01*
X145805100Y-89523735D01*
X145805100Y-89241065D01*
X145749953Y-88963826D01*
X145641780Y-88702673D01*
X145484737Y-88467641D01*
X145284859Y-88267763D01*
X145049827Y-88110720D01*
X144788674Y-88002547D01*
X144511435Y-87947400D01*
X144228765Y-87947400D01*
X143951526Y-88002547D01*
X143690373Y-88110720D01*
X143455341Y-88267763D01*
X143255463Y-88467641D01*
X143098420Y-88702673D01*
X142990247Y-88963826D01*
X142935100Y-89241065D01*
X141805100Y-89241065D01*
X141749953Y-88963826D01*
X141641780Y-88702673D01*
X141484737Y-88467641D01*
X141284859Y-88267763D01*
X141049827Y-88110720D01*
X140788674Y-88002547D01*
X140511435Y-87947400D01*
X140228765Y-87947400D01*
X139951526Y-88002547D01*
X139690373Y-88110720D01*
X139455341Y-88267763D01*
X139255463Y-88467641D01*
X139098420Y-88702673D01*
X138990247Y-88963826D01*
X138935100Y-89241065D01*
X125090346Y-89241065D01*
X121108701Y-85259421D01*
X121108701Y-79872579D01*
X126527446Y-85291325D01*
X126541514Y-85325289D01*
X126643838Y-85478428D01*
X126774072Y-85608662D01*
X126927211Y-85710986D01*
X127097371Y-85781468D01*
X127278011Y-85817400D01*
X127462189Y-85817400D01*
X127642829Y-85781468D01*
X127812989Y-85710986D01*
X127966128Y-85608662D01*
X128096362Y-85478428D01*
X128198686Y-85325289D01*
X128269168Y-85155129D01*
X128305100Y-84974489D01*
X128305100Y-84790311D01*
X128269168Y-84609671D01*
X128198686Y-84439511D01*
X128096362Y-84286372D01*
X127966128Y-84156138D01*
X127812989Y-84053814D01*
X127779025Y-84039746D01*
X123600344Y-79861065D01*
X133935100Y-79861065D01*
X133935100Y-80143735D01*
X133990247Y-80420974D01*
X134098420Y-80682127D01*
X134255463Y-80917159D01*
X134455341Y-81117037D01*
X134690373Y-81274080D01*
X134951526Y-81382253D01*
X135228765Y-81437400D01*
X135511435Y-81437400D01*
X135788674Y-81382253D01*
X136049827Y-81274080D01*
X136284859Y-81117037D01*
X136484737Y-80917159D01*
X136641780Y-80682127D01*
X136749953Y-80420974D01*
X136805100Y-80143735D01*
X136805100Y-79861065D01*
X138935100Y-79861065D01*
X138935100Y-80143735D01*
X138990247Y-80420974D01*
X139098420Y-80682127D01*
X139255463Y-80917159D01*
X139455341Y-81117037D01*
X139690373Y-81274080D01*
X139951526Y-81382253D01*
X140228765Y-81437400D01*
X140511435Y-81437400D01*
X140788674Y-81382253D01*
X141049827Y-81274080D01*
X141284859Y-81117037D01*
X141484737Y-80917159D01*
X141641780Y-80682127D01*
X141749953Y-80420974D01*
X141805100Y-80143735D01*
X141805100Y-79861065D01*
X143935100Y-79861065D01*
X143935100Y-80143735D01*
X143990247Y-80420974D01*
X144098420Y-80682127D01*
X144255463Y-80917159D01*
X144455341Y-81117037D01*
X144690373Y-81274080D01*
X144951526Y-81382253D01*
X145228765Y-81437400D01*
X145511435Y-81437400D01*
X145788674Y-81382253D01*
X146049827Y-81274080D01*
X146284859Y-81117037D01*
X146484737Y-80917159D01*
X146641780Y-80682127D01*
X146749953Y-80420974D01*
X146805100Y-80143735D01*
X146805100Y-79861065D01*
X148935100Y-79861065D01*
X148935100Y-80143735D01*
X148990247Y-80420974D01*
X149098420Y-80682127D01*
X149255463Y-80917159D01*
X149455341Y-81117037D01*
X149690373Y-81274080D01*
X149951526Y-81382253D01*
X150228765Y-81437400D01*
X150511435Y-81437400D01*
X150788674Y-81382253D01*
X151049827Y-81274080D01*
X151284859Y-81117037D01*
X151484737Y-80917159D01*
X151641780Y-80682127D01*
X151749953Y-80420974D01*
X151805100Y-80143735D01*
X151805100Y-79861065D01*
X151749953Y-79583826D01*
X151641780Y-79322673D01*
X151484737Y-79087641D01*
X151284859Y-78887763D01*
X151049827Y-78730720D01*
X150788674Y-78622547D01*
X150511435Y-78567400D01*
X150228765Y-78567400D01*
X149951526Y-78622547D01*
X149690373Y-78730720D01*
X149455341Y-78887763D01*
X149255463Y-79087641D01*
X149098420Y-79322673D01*
X148990247Y-79583826D01*
X148935100Y-79861065D01*
X146805100Y-79861065D01*
X146749953Y-79583826D01*
X146641780Y-79322673D01*
X146484737Y-79087641D01*
X146284859Y-78887763D01*
X146049827Y-78730720D01*
X145788674Y-78622547D01*
X145511435Y-78567400D01*
X145228765Y-78567400D01*
X144951526Y-78622547D01*
X144690373Y-78730720D01*
X144455341Y-78887763D01*
X144255463Y-79087641D01*
X144098420Y-79322673D01*
X143990247Y-79583826D01*
X143935100Y-79861065D01*
X141805100Y-79861065D01*
X141749953Y-79583826D01*
X141641780Y-79322673D01*
X141484737Y-79087641D01*
X141284859Y-78887763D01*
X141049827Y-78730720D01*
X140788674Y-78622547D01*
X140511435Y-78567400D01*
X140228765Y-78567400D01*
X139951526Y-78622547D01*
X139690373Y-78730720D01*
X139455341Y-78887763D01*
X139255463Y-79087641D01*
X139098420Y-79322673D01*
X138990247Y-79583826D01*
X138935100Y-79861065D01*
X136805100Y-79861065D01*
X136749953Y-79583826D01*
X136641780Y-79322673D01*
X136484737Y-79087641D01*
X136284859Y-78887763D01*
X136049827Y-78730720D01*
X135788674Y-78622547D01*
X135511435Y-78567400D01*
X135228765Y-78567400D01*
X134951526Y-78622547D01*
X134690373Y-78730720D01*
X134455341Y-78887763D01*
X134255463Y-79087641D01*
X134098420Y-79322673D01*
X133990247Y-79583826D01*
X133935100Y-79861065D01*
X123600344Y-79861065D01*
X121808711Y-78069433D01*
X121808711Y-72221367D01*
X123735100Y-72221367D01*
X123735100Y-72543433D01*
X123797932Y-72859312D01*
X123921182Y-73156863D01*
X124100113Y-73424652D01*
X124327848Y-73652387D01*
X124595637Y-73831318D01*
X124893188Y-73954568D01*
X125209067Y-74017400D01*
X125531133Y-74017400D01*
X125847012Y-73954568D01*
X126144563Y-73831318D01*
X126412352Y-73652387D01*
X126546926Y-73517813D01*
X128914292Y-73517813D01*
X129010056Y-73782214D01*
X129299671Y-73923104D01*
X129611208Y-74004784D01*
X129932695Y-74024118D01*
X130251775Y-73980361D01*
X130556188Y-73875195D01*
X130730144Y-73782214D01*
X130825908Y-73517813D01*
X129870100Y-72562005D01*
X128914292Y-73517813D01*
X126546926Y-73517813D01*
X126640087Y-73424652D01*
X126819018Y-73156863D01*
X126942268Y-72859312D01*
X127005100Y-72543433D01*
X127005100Y-72444995D01*
X128228382Y-72444995D01*
X128272139Y-72764075D01*
X128377305Y-73068488D01*
X128470286Y-73242444D01*
X128734687Y-73338208D01*
X129690495Y-72382400D01*
X130049705Y-72382400D01*
X131005513Y-73338208D01*
X131269914Y-73242444D01*
X131410804Y-72952829D01*
X131492484Y-72641292D01*
X131511818Y-72319805D01*
X131501020Y-72241065D01*
X133935100Y-72241065D01*
X133935100Y-72523735D01*
X133990247Y-72800974D01*
X134098420Y-73062127D01*
X134255463Y-73297159D01*
X134455341Y-73497037D01*
X134690373Y-73654080D01*
X134951526Y-73762253D01*
X135228765Y-73817400D01*
X135511435Y-73817400D01*
X135788674Y-73762253D01*
X136049827Y-73654080D01*
X136284859Y-73497037D01*
X136484737Y-73297159D01*
X136641780Y-73062127D01*
X136749953Y-72800974D01*
X136805100Y-72523735D01*
X136805100Y-72241065D01*
X138935100Y-72241065D01*
X138935100Y-72523735D01*
X138990247Y-72800974D01*
X139098420Y-73062127D01*
X139255463Y-73297159D01*
X139455341Y-73497037D01*
X139690373Y-73654080D01*
X139951526Y-73762253D01*
X140228765Y-73817400D01*
X140511435Y-73817400D01*
X140788674Y-73762253D01*
X141049827Y-73654080D01*
X141284859Y-73497037D01*
X141484737Y-73297159D01*
X141641780Y-73062127D01*
X141749953Y-72800974D01*
X141805100Y-72523735D01*
X141805100Y-72241065D01*
X143935100Y-72241065D01*
X143935100Y-72523735D01*
X143990247Y-72800974D01*
X144098420Y-73062127D01*
X144255463Y-73297159D01*
X144455341Y-73497037D01*
X144690373Y-73654080D01*
X144951526Y-73762253D01*
X145228765Y-73817400D01*
X145511435Y-73817400D01*
X145788674Y-73762253D01*
X146049827Y-73654080D01*
X146284859Y-73497037D01*
X146484737Y-73297159D01*
X146641780Y-73062127D01*
X146749953Y-72800974D01*
X146805100Y-72523735D01*
X146805100Y-72241065D01*
X148935100Y-72241065D01*
X148935100Y-72523735D01*
X148990247Y-72800974D01*
X149098420Y-73062127D01*
X149255463Y-73297159D01*
X149455341Y-73497037D01*
X149690373Y-73654080D01*
X149951526Y-73762253D01*
X150228765Y-73817400D01*
X150511435Y-73817400D01*
X150788674Y-73762253D01*
X151049827Y-73654080D01*
X151284859Y-73497037D01*
X151484737Y-73297159D01*
X151641780Y-73062127D01*
X151749953Y-72800974D01*
X151805100Y-72523735D01*
X151805100Y-72241065D01*
X151801182Y-72221367D01*
X153735100Y-72221367D01*
X153735100Y-72543433D01*
X153797932Y-72859312D01*
X153921182Y-73156863D01*
X154100113Y-73424652D01*
X154327848Y-73652387D01*
X154595637Y-73831318D01*
X154893188Y-73954568D01*
X155209067Y-74017400D01*
X155531133Y-74017400D01*
X155847012Y-73954568D01*
X156144563Y-73831318D01*
X156412352Y-73652387D01*
X156546926Y-73517813D01*
X158914292Y-73517813D01*
X159010056Y-73782214D01*
X159299671Y-73923104D01*
X159611208Y-74004784D01*
X159932695Y-74024118D01*
X160251775Y-73980361D01*
X160556188Y-73875195D01*
X160730144Y-73782214D01*
X160825908Y-73517813D01*
X159870100Y-72562005D01*
X158914292Y-73517813D01*
X156546926Y-73517813D01*
X156640087Y-73424652D01*
X156819018Y-73156863D01*
X156942268Y-72859312D01*
X157005100Y-72543433D01*
X157005100Y-72444995D01*
X158228382Y-72444995D01*
X158272139Y-72764075D01*
X158377305Y-73068488D01*
X158470286Y-73242444D01*
X158734687Y-73338208D01*
X159690495Y-72382400D01*
X160049705Y-72382400D01*
X161005513Y-73338208D01*
X161269914Y-73242444D01*
X161410804Y-72952829D01*
X161492484Y-72641292D01*
X161511818Y-72319805D01*
X161468061Y-72000725D01*
X161362895Y-71696312D01*
X161269914Y-71522356D01*
X161005513Y-71426592D01*
X160049705Y-72382400D01*
X159690495Y-72382400D01*
X158734687Y-71426592D01*
X158470286Y-71522356D01*
X158329396Y-71811971D01*
X158247716Y-72123508D01*
X158228382Y-72444995D01*
X157005100Y-72444995D01*
X157005100Y-72221367D01*
X156942268Y-71905488D01*
X156819018Y-71607937D01*
X156640087Y-71340148D01*
X156546926Y-71246987D01*
X158914292Y-71246987D01*
X159870100Y-72202795D01*
X160825908Y-71246987D01*
X160730144Y-70982586D01*
X160440529Y-70841696D01*
X160128992Y-70760016D01*
X159807505Y-70740682D01*
X159488425Y-70784439D01*
X159184012Y-70889605D01*
X159010056Y-70982586D01*
X158914292Y-71246987D01*
X156546926Y-71246987D01*
X156412352Y-71112413D01*
X156144563Y-70933482D01*
X155847012Y-70810232D01*
X155531133Y-70747400D01*
X155209067Y-70747400D01*
X154893188Y-70810232D01*
X154595637Y-70933482D01*
X154327848Y-71112413D01*
X154100113Y-71340148D01*
X153921182Y-71607937D01*
X153797932Y-71905488D01*
X153735100Y-72221367D01*
X151801182Y-72221367D01*
X151749953Y-71963826D01*
X151641780Y-71702673D01*
X151484737Y-71467641D01*
X151284859Y-71267763D01*
X151049827Y-71110720D01*
X150788674Y-71002547D01*
X150511435Y-70947400D01*
X150228765Y-70947400D01*
X149951526Y-71002547D01*
X149690373Y-71110720D01*
X149455341Y-71267763D01*
X149255463Y-71467641D01*
X149098420Y-71702673D01*
X148990247Y-71963826D01*
X148935100Y-72241065D01*
X146805100Y-72241065D01*
X146749953Y-71963826D01*
X146641780Y-71702673D01*
X146484737Y-71467641D01*
X146284859Y-71267763D01*
X146049827Y-71110720D01*
X145788674Y-71002547D01*
X145511435Y-70947400D01*
X145228765Y-70947400D01*
X144951526Y-71002547D01*
X144690373Y-71110720D01*
X144455341Y-71267763D01*
X144255463Y-71467641D01*
X144098420Y-71702673D01*
X143990247Y-71963826D01*
X143935100Y-72241065D01*
X141805100Y-72241065D01*
X141749953Y-71963826D01*
X141641780Y-71702673D01*
X141484737Y-71467641D01*
X141284859Y-71267763D01*
X141049827Y-71110720D01*
X140788674Y-71002547D01*
X140511435Y-70947400D01*
X140228765Y-70947400D01*
X139951526Y-71002547D01*
X139690373Y-71110720D01*
X139455341Y-71267763D01*
X139255463Y-71467641D01*
X139098420Y-71702673D01*
X138990247Y-71963826D01*
X138935100Y-72241065D01*
X136805100Y-72241065D01*
X136749953Y-71963826D01*
X136641780Y-71702673D01*
X136484737Y-71467641D01*
X136284859Y-71267763D01*
X136049827Y-71110720D01*
X135788674Y-71002547D01*
X135511435Y-70947400D01*
X135228765Y-70947400D01*
X134951526Y-71002547D01*
X134690373Y-71110720D01*
X134455341Y-71267763D01*
X134255463Y-71467641D01*
X134098420Y-71702673D01*
X133990247Y-71963826D01*
X133935100Y-72241065D01*
X131501020Y-72241065D01*
X131468061Y-72000725D01*
X131362895Y-71696312D01*
X131269914Y-71522356D01*
X131005513Y-71426592D01*
X130049705Y-72382400D01*
X129690495Y-72382400D01*
X128734687Y-71426592D01*
X128470286Y-71522356D01*
X128329396Y-71811971D01*
X128247716Y-72123508D01*
X128228382Y-72444995D01*
X127005100Y-72444995D01*
X127005100Y-72221367D01*
X126942268Y-71905488D01*
X126819018Y-71607937D01*
X126640087Y-71340148D01*
X126546926Y-71246987D01*
X128914292Y-71246987D01*
X129870100Y-72202795D01*
X130825908Y-71246987D01*
X130730144Y-70982586D01*
X130440529Y-70841696D01*
X130128992Y-70760016D01*
X129807505Y-70740682D01*
X129488425Y-70784439D01*
X129184012Y-70889605D01*
X129010056Y-70982586D01*
X128914292Y-71246987D01*
X126546926Y-71246987D01*
X126412352Y-71112413D01*
X126144563Y-70933482D01*
X125847012Y-70810232D01*
X125531133Y-70747400D01*
X125209067Y-70747400D01*
X124893188Y-70810232D01*
X124595637Y-70933482D01*
X124327848Y-71112413D01*
X124100113Y-71340148D01*
X123921182Y-71607937D01*
X123797932Y-71905488D01*
X123735100Y-72221367D01*
X121808711Y-72221367D01*
X121808711Y-66979480D01*
X121812992Y-66936011D01*
X121808711Y-66892542D01*
X121808711Y-66892534D01*
X121795906Y-66762521D01*
X121792881Y-66752547D01*
X121780554Y-66711914D01*
X121745300Y-66595698D01*
X121663122Y-66441952D01*
X121552528Y-66307194D01*
X121518761Y-66279482D01*
X120556678Y-65317399D01*
X123834420Y-65317399D01*
X123797932Y-65405488D01*
X123735100Y-65721367D01*
X123735100Y-66043433D01*
X123797932Y-66359312D01*
X123921182Y-66656863D01*
X124100113Y-66924652D01*
X124327848Y-67152387D01*
X124595637Y-67331318D01*
X124893188Y-67454568D01*
X125209067Y-67517400D01*
X125531133Y-67517400D01*
X125847012Y-67454568D01*
X126144563Y-67331318D01*
X126412352Y-67152387D01*
X126546926Y-67017813D01*
X128914292Y-67017813D01*
X129010056Y-67282214D01*
X129299671Y-67423104D01*
X129611208Y-67504784D01*
X129932695Y-67524118D01*
X130251775Y-67480361D01*
X130556188Y-67375195D01*
X130730144Y-67282214D01*
X130825908Y-67017813D01*
X129870100Y-66062005D01*
X128914292Y-67017813D01*
X126546926Y-67017813D01*
X126640087Y-66924652D01*
X126819018Y-66656863D01*
X126942268Y-66359312D01*
X127005100Y-66043433D01*
X127005100Y-65721367D01*
X126942268Y-65405488D01*
X126905780Y-65317399D01*
X128327973Y-65317399D01*
X128247716Y-65623508D01*
X128228382Y-65944995D01*
X128272139Y-66264075D01*
X128377305Y-66568488D01*
X128470286Y-66742444D01*
X128734687Y-66838208D01*
X129690495Y-65882400D01*
X129676353Y-65868258D01*
X129855958Y-65688653D01*
X129870100Y-65702795D01*
X129884243Y-65688653D01*
X130063848Y-65868258D01*
X130049705Y-65882400D01*
X131005513Y-66838208D01*
X131269914Y-66742444D01*
X131410804Y-66452829D01*
X131492484Y-66141292D01*
X131511818Y-65819805D01*
X131468061Y-65500725D01*
X131404727Y-65317399D01*
X132593521Y-65317399D01*
X133857040Y-66580918D01*
X133835100Y-66691216D01*
X133835100Y-66993584D01*
X133894089Y-67290143D01*
X134009801Y-67569495D01*
X134177788Y-67820905D01*
X134244227Y-67887344D01*
X134225920Y-67892898D01*
X134115606Y-67951863D01*
X134018915Y-68031215D01*
X133939563Y-68127906D01*
X133880598Y-68238220D01*
X133844288Y-68357918D01*
X133832028Y-68482400D01*
X133832028Y-70282400D01*
X133844288Y-70406882D01*
X133880598Y-70526580D01*
X133939563Y-70636894D01*
X134018915Y-70733585D01*
X134115606Y-70812937D01*
X134225920Y-70871902D01*
X134345618Y-70908212D01*
X134470100Y-70920472D01*
X136270100Y-70920472D01*
X136394582Y-70908212D01*
X136514280Y-70871902D01*
X136624594Y-70812937D01*
X136721285Y-70733585D01*
X136800637Y-70636894D01*
X136859602Y-70526580D01*
X136895912Y-70406882D01*
X136908172Y-70282400D01*
X136908172Y-68482400D01*
X136895912Y-68357918D01*
X136859602Y-68238220D01*
X136800637Y-68127906D01*
X136721285Y-68031215D01*
X136624594Y-67951863D01*
X136514280Y-67892898D01*
X136495973Y-67887344D01*
X136562412Y-67820905D01*
X136624890Y-67727400D01*
X139115310Y-67727400D01*
X139177788Y-67820905D01*
X139244227Y-67887344D01*
X139225920Y-67892898D01*
X139115606Y-67951863D01*
X139018915Y-68031215D01*
X138939563Y-68127906D01*
X138880598Y-68238220D01*
X138844288Y-68357918D01*
X138832028Y-68482400D01*
X138832028Y-70282400D01*
X138844288Y-70406882D01*
X138880598Y-70526580D01*
X138939563Y-70636894D01*
X139018915Y-70733585D01*
X139115606Y-70812937D01*
X139225920Y-70871902D01*
X139345618Y-70908212D01*
X139470100Y-70920472D01*
X141270100Y-70920472D01*
X141394582Y-70908212D01*
X141514280Y-70871902D01*
X141624594Y-70812937D01*
X141721285Y-70733585D01*
X141800637Y-70636894D01*
X141859602Y-70526580D01*
X141895912Y-70406882D01*
X141908172Y-70282400D01*
X141908172Y-68482400D01*
X141895912Y-68357918D01*
X141859602Y-68238220D01*
X141800637Y-68127906D01*
X141721285Y-68031215D01*
X141624594Y-67951863D01*
X141514280Y-67892898D01*
X141495973Y-67887344D01*
X141562412Y-67820905D01*
X141624890Y-67727400D01*
X144115310Y-67727400D01*
X144177788Y-67820905D01*
X144244227Y-67887344D01*
X144225920Y-67892898D01*
X144115606Y-67951863D01*
X144018915Y-68031215D01*
X143939563Y-68127906D01*
X143880598Y-68238220D01*
X143844288Y-68357918D01*
X143832028Y-68482400D01*
X143832028Y-70282400D01*
X143844288Y-70406882D01*
X143880598Y-70526580D01*
X143939563Y-70636894D01*
X144018915Y-70733585D01*
X144115606Y-70812937D01*
X144225920Y-70871902D01*
X144345618Y-70908212D01*
X144470100Y-70920472D01*
X146270100Y-70920472D01*
X146394582Y-70908212D01*
X146514280Y-70871902D01*
X146624594Y-70812937D01*
X146721285Y-70733585D01*
X146800637Y-70636894D01*
X146859602Y-70526580D01*
X146895912Y-70406882D01*
X146908172Y-70282400D01*
X146908172Y-68482400D01*
X146895912Y-68357918D01*
X146859602Y-68238220D01*
X146800637Y-68127906D01*
X146721285Y-68031215D01*
X146624594Y-67951863D01*
X146514280Y-67892898D01*
X146495973Y-67887344D01*
X146562412Y-67820905D01*
X146624890Y-67727400D01*
X149115310Y-67727400D01*
X149177788Y-67820905D01*
X149244227Y-67887344D01*
X149225920Y-67892898D01*
X149115606Y-67951863D01*
X149018915Y-68031215D01*
X148939563Y-68127906D01*
X148880598Y-68238220D01*
X148844288Y-68357918D01*
X148832028Y-68482400D01*
X148832028Y-70282400D01*
X148844288Y-70406882D01*
X148880598Y-70526580D01*
X148939563Y-70636894D01*
X149018915Y-70733585D01*
X149115606Y-70812937D01*
X149225920Y-70871902D01*
X149345618Y-70908212D01*
X149470100Y-70920472D01*
X151270100Y-70920472D01*
X151394582Y-70908212D01*
X151514280Y-70871902D01*
X151624594Y-70812937D01*
X151721285Y-70733585D01*
X151800637Y-70636894D01*
X151859602Y-70526580D01*
X151895912Y-70406882D01*
X151908172Y-70282400D01*
X151908172Y-68482400D01*
X151895912Y-68357918D01*
X151859602Y-68238220D01*
X151800637Y-68127906D01*
X151721285Y-68031215D01*
X151624594Y-67951863D01*
X151514280Y-67892898D01*
X151495973Y-67887344D01*
X151562412Y-67820905D01*
X151730399Y-67569495D01*
X151846111Y-67290143D01*
X151905100Y-66993584D01*
X151905100Y-66691216D01*
X151846111Y-66394657D01*
X151730399Y-66115305D01*
X151562412Y-65863895D01*
X151419884Y-65721367D01*
X153735100Y-65721367D01*
X153735100Y-66043433D01*
X153797932Y-66359312D01*
X153921182Y-66656863D01*
X154100113Y-66924652D01*
X154327848Y-67152387D01*
X154595637Y-67331318D01*
X154893188Y-67454568D01*
X155209067Y-67517400D01*
X155531133Y-67517400D01*
X155847012Y-67454568D01*
X156144563Y-67331318D01*
X156412352Y-67152387D01*
X156546926Y-67017813D01*
X158914292Y-67017813D01*
X159010056Y-67282214D01*
X159299671Y-67423104D01*
X159611208Y-67504784D01*
X159932695Y-67524118D01*
X160251775Y-67480361D01*
X160556188Y-67375195D01*
X160730144Y-67282214D01*
X160825908Y-67017813D01*
X159870100Y-66062005D01*
X158914292Y-67017813D01*
X156546926Y-67017813D01*
X156640087Y-66924652D01*
X156819018Y-66656863D01*
X156942268Y-66359312D01*
X157005100Y-66043433D01*
X157005100Y-65944995D01*
X158228382Y-65944995D01*
X158272139Y-66264075D01*
X158377305Y-66568488D01*
X158470286Y-66742444D01*
X158734687Y-66838208D01*
X159690495Y-65882400D01*
X160049705Y-65882400D01*
X161005513Y-66838208D01*
X161269914Y-66742444D01*
X161410804Y-66452829D01*
X161492484Y-66141292D01*
X161511818Y-65819805D01*
X161468061Y-65500725D01*
X161362895Y-65196312D01*
X161269914Y-65022356D01*
X161005513Y-64926592D01*
X160049705Y-65882400D01*
X159690495Y-65882400D01*
X158734687Y-64926592D01*
X158470286Y-65022356D01*
X158329396Y-65311971D01*
X158247716Y-65623508D01*
X158228382Y-65944995D01*
X157005100Y-65944995D01*
X157005100Y-65721367D01*
X156942268Y-65405488D01*
X156819018Y-65107937D01*
X156640087Y-64840148D01*
X156546926Y-64746987D01*
X158914292Y-64746987D01*
X159870100Y-65702795D01*
X160825908Y-64746987D01*
X160730144Y-64482586D01*
X160440529Y-64341696D01*
X160128992Y-64260016D01*
X159807505Y-64240682D01*
X159488425Y-64284439D01*
X159184012Y-64389605D01*
X159010056Y-64482586D01*
X158914292Y-64746987D01*
X156546926Y-64746987D01*
X156412352Y-64612413D01*
X156144563Y-64433482D01*
X155847012Y-64310232D01*
X155531133Y-64247400D01*
X155209067Y-64247400D01*
X154893188Y-64310232D01*
X154595637Y-64433482D01*
X154327848Y-64612413D01*
X154100113Y-64840148D01*
X153921182Y-65107937D01*
X153797932Y-65405488D01*
X153735100Y-65721367D01*
X151419884Y-65721367D01*
X151348605Y-65650088D01*
X151097195Y-65482101D01*
X150817843Y-65366389D01*
X150521284Y-65307400D01*
X150218916Y-65307400D01*
X149922357Y-65366389D01*
X149643005Y-65482101D01*
X149391595Y-65650088D01*
X149177788Y-65863895D01*
X149115310Y-65957400D01*
X146624890Y-65957400D01*
X146562412Y-65863895D01*
X146348605Y-65650088D01*
X146097195Y-65482101D01*
X145817843Y-65366389D01*
X145521284Y-65307400D01*
X145218916Y-65307400D01*
X144922357Y-65366389D01*
X144643005Y-65482101D01*
X144391595Y-65650088D01*
X144177788Y-65863895D01*
X144115310Y-65957400D01*
X141624890Y-65957400D01*
X141562412Y-65863895D01*
X141348605Y-65650088D01*
X141097195Y-65482101D01*
X140817843Y-65366389D01*
X140521284Y-65307400D01*
X140218916Y-65307400D01*
X139922357Y-65366389D01*
X139643005Y-65482101D01*
X139391595Y-65650088D01*
X139177788Y-65863895D01*
X139115310Y-65957400D01*
X136624890Y-65957400D01*
X136562412Y-65863895D01*
X136348605Y-65650088D01*
X136097195Y-65482101D01*
X135817843Y-65366389D01*
X135521284Y-65307400D01*
X135218916Y-65307400D01*
X135108618Y-65329340D01*
X133616633Y-63837355D01*
X133588916Y-63803582D01*
X133454158Y-63692988D01*
X133300412Y-63610810D01*
X133133589Y-63560204D01*
X133003576Y-63547399D01*
X133003568Y-63547399D01*
X132960099Y-63543118D01*
X132916630Y-63547399D01*
X119845054Y-63547399D01*
X120016954Y-63392693D01*
X120192784Y-63157344D01*
X120319322Y-62892214D01*
X120365058Y-62741426D01*
X120243917Y-62509400D01*
X119037100Y-62509400D01*
X119037100Y-62529400D01*
X118783100Y-62529400D01*
X118783100Y-62509400D01*
X116497100Y-62509400D01*
X116497100Y-62529400D01*
X116243100Y-62529400D01*
X116243100Y-62509400D01*
X116223100Y-62509400D01*
X116223100Y-62255400D01*
X116243100Y-62255400D01*
X116243100Y-61042550D01*
X116497100Y-61042550D01*
X116497100Y-62255400D01*
X118783100Y-62255400D01*
X118783100Y-61047936D01*
X119037100Y-61047936D01*
X119037100Y-62255400D01*
X120243917Y-62255400D01*
X120365058Y-62023374D01*
X120319322Y-61872586D01*
X120192784Y-61607456D01*
X120016954Y-61372107D01*
X119798588Y-61175583D01*
X119546078Y-61025436D01*
X119269127Y-60927437D01*
X119037100Y-61047936D01*
X118783100Y-61047936D01*
X118551073Y-60927437D01*
X118274122Y-61025436D01*
X118021612Y-61175583D01*
X117842153Y-61337092D01*
X117823202Y-61274620D01*
X117764237Y-61164306D01*
X117684885Y-61067615D01*
X117588194Y-60988263D01*
X117477880Y-60929298D01*
X117358182Y-60892988D01*
X117233700Y-60880728D01*
X116655850Y-60883800D01*
X116497100Y-61042550D01*
X116243100Y-61042550D01*
X116084350Y-60883800D01*
X115506500Y-60880728D01*
X115382018Y-60892988D01*
X115262320Y-60929298D01*
X115152006Y-60988263D01*
X115101370Y-61029819D01*
X115101370Y-57110666D01*
X115268792Y-57222534D01*
X115484448Y-57311861D01*
X115713388Y-57357400D01*
X115946812Y-57357400D01*
X116175752Y-57311861D01*
X116391408Y-57222534D01*
X116585494Y-57092850D01*
X116750550Y-56927794D01*
X116784190Y-56877448D01*
X116832563Y-56994231D01*
X117022437Y-57278398D01*
X117264102Y-57520063D01*
X117548269Y-57709937D01*
X117864019Y-57840725D01*
X118199217Y-57907400D01*
X118540983Y-57907400D01*
X118876181Y-57840725D01*
X119191931Y-57709937D01*
X119476098Y-57520063D01*
X119717763Y-57278398D01*
X119907637Y-56994231D01*
X119917107Y-56971367D01*
X124445100Y-56971367D01*
X124445100Y-57293433D01*
X124507932Y-57609312D01*
X124631182Y-57906863D01*
X124810113Y-58174652D01*
X125037848Y-58402387D01*
X125305637Y-58581318D01*
X125603188Y-58704568D01*
X125919067Y-58767400D01*
X126241133Y-58767400D01*
X126557012Y-58704568D01*
X126854563Y-58581318D01*
X127122352Y-58402387D01*
X127256926Y-58267813D01*
X127664292Y-58267813D01*
X127760056Y-58532214D01*
X128049671Y-58673104D01*
X128361208Y-58754784D01*
X128682695Y-58774118D01*
X129001775Y-58730361D01*
X129306188Y-58625195D01*
X129480144Y-58532214D01*
X129575908Y-58267813D01*
X128620100Y-57312005D01*
X127664292Y-58267813D01*
X127256926Y-58267813D01*
X127350087Y-58174652D01*
X127422820Y-58065800D01*
X127484687Y-58088208D01*
X128440495Y-57132400D01*
X128799705Y-57132400D01*
X129755513Y-58088208D01*
X129817380Y-58065800D01*
X129890113Y-58174652D01*
X130117848Y-58402387D01*
X130385637Y-58581318D01*
X130683188Y-58704568D01*
X130999067Y-58767400D01*
X131321133Y-58767400D01*
X131637012Y-58704568D01*
X131934563Y-58581318D01*
X132202352Y-58402387D01*
X132430087Y-58174652D01*
X132609018Y-57906863D01*
X132732268Y-57609312D01*
X132795100Y-57293433D01*
X132795100Y-56971367D01*
X132732268Y-56655488D01*
X132609018Y-56357937D01*
X132430087Y-56090148D01*
X132202352Y-55862413D01*
X131934563Y-55683482D01*
X131637012Y-55560232D01*
X131321133Y-55497400D01*
X130999067Y-55497400D01*
X130683188Y-55560232D01*
X130385637Y-55683482D01*
X130117848Y-55862413D01*
X129890113Y-56090148D01*
X129817380Y-56199000D01*
X129755513Y-56176592D01*
X128799705Y-57132400D01*
X128440495Y-57132400D01*
X127484687Y-56176592D01*
X127422820Y-56199000D01*
X127350087Y-56090148D01*
X127256926Y-55996987D01*
X127664292Y-55996987D01*
X128620100Y-56952795D01*
X129575908Y-55996987D01*
X129480144Y-55732586D01*
X129190529Y-55591696D01*
X128878992Y-55510016D01*
X128557505Y-55490682D01*
X128238425Y-55534439D01*
X127934012Y-55639605D01*
X127760056Y-55732586D01*
X127664292Y-55996987D01*
X127256926Y-55996987D01*
X127122352Y-55862413D01*
X126854563Y-55683482D01*
X126557012Y-55560232D01*
X126241133Y-55497400D01*
X125919067Y-55497400D01*
X125603188Y-55560232D01*
X125305637Y-55683482D01*
X125037848Y-55862413D01*
X124810113Y-56090148D01*
X124631182Y-56357937D01*
X124507932Y-56655488D01*
X124445100Y-56971367D01*
X119917107Y-56971367D01*
X120038425Y-56678481D01*
X120105100Y-56343283D01*
X120105100Y-56001517D01*
X120038425Y-55666319D01*
X119907637Y-55350569D01*
X119840410Y-55249957D01*
X119921285Y-55183585D01*
X120000637Y-55086894D01*
X120059602Y-54976580D01*
X120095912Y-54856882D01*
X120108172Y-54732400D01*
X120105100Y-53918150D01*
X119946350Y-53759400D01*
X118497100Y-53759400D01*
X118497100Y-53779400D01*
X118243100Y-53779400D01*
X118243100Y-53759400D01*
X118223100Y-53759400D01*
X118223100Y-53505400D01*
X118243100Y-53505400D01*
X118243100Y-52056150D01*
X118497100Y-52056150D01*
X118497100Y-53505400D01*
X119946350Y-53505400D01*
X120105100Y-53346650D01*
X120108172Y-52532400D01*
X120095912Y-52407918D01*
X120059602Y-52288220D01*
X120000637Y-52177906D01*
X119921285Y-52081215D01*
X119824594Y-52001863D01*
X119714280Y-51942898D01*
X119594582Y-51906588D01*
X119470100Y-51894328D01*
X118655850Y-51897400D01*
X118497100Y-52056150D01*
X118243100Y-52056150D01*
X118084350Y-51897400D01*
X117270100Y-51894328D01*
X117145618Y-51906588D01*
X117025920Y-51942898D01*
X116915606Y-52001863D01*
X116818915Y-52081215D01*
X116739563Y-52177906D01*
X116680598Y-52288220D01*
X116644288Y-52407918D01*
X116632028Y-52532400D01*
X116632884Y-52759340D01*
X116585494Y-52711950D01*
X116391408Y-52582266D01*
X116175752Y-52492939D01*
X115946812Y-52447400D01*
X115713388Y-52447400D01*
X115484448Y-52492939D01*
X115268792Y-52582266D01*
X115101370Y-52694134D01*
X115101370Y-49072404D01*
X115173659Y-48153882D01*
X115382891Y-47282367D01*
X115515791Y-46961517D01*
X119725100Y-46961517D01*
X119725100Y-47303283D01*
X119791775Y-47638481D01*
X119922563Y-47954231D01*
X120112437Y-48238398D01*
X120354102Y-48480063D01*
X120638269Y-48669937D01*
X120954019Y-48800725D01*
X121289217Y-48867400D01*
X121630983Y-48867400D01*
X121966181Y-48800725D01*
X122281931Y-48669937D01*
X122566098Y-48480063D01*
X122807763Y-48238398D01*
X122997637Y-47954231D01*
X123128425Y-47638481D01*
X123195100Y-47303283D01*
X123195100Y-46961517D01*
X123128425Y-46626319D01*
X122997637Y-46310569D01*
X122811771Y-46032400D01*
X129882028Y-46032400D01*
X129882028Y-48232400D01*
X129894288Y-48356882D01*
X129930598Y-48476580D01*
X129989563Y-48586894D01*
X130068915Y-48683585D01*
X130165606Y-48762937D01*
X130275920Y-48821902D01*
X130395618Y-48858212D01*
X130520100Y-48870472D01*
X132720100Y-48870472D01*
X132844582Y-48858212D01*
X132964280Y-48821902D01*
X133074594Y-48762937D01*
X133171285Y-48683585D01*
X133250637Y-48586894D01*
X133309602Y-48476580D01*
X133345912Y-48356882D01*
X133358172Y-48232400D01*
X133358172Y-46032400D01*
X133345912Y-45907918D01*
X133309602Y-45788220D01*
X133250637Y-45677906D01*
X133171285Y-45581215D01*
X133074594Y-45501863D01*
X132964280Y-45442898D01*
X132844582Y-45406588D01*
X132720100Y-45394328D01*
X130520100Y-45394328D01*
X130395618Y-45406588D01*
X130275920Y-45442898D01*
X130165606Y-45501863D01*
X130068915Y-45581215D01*
X129989563Y-45677906D01*
X129930598Y-45788220D01*
X129894288Y-45907918D01*
X129882028Y-46032400D01*
X122811771Y-46032400D01*
X122807763Y-46026402D01*
X122566098Y-45784737D01*
X122281931Y-45594863D01*
X121966181Y-45464075D01*
X121630983Y-45397400D01*
X121289217Y-45397400D01*
X120954019Y-45464075D01*
X120638269Y-45594863D01*
X120354102Y-45784737D01*
X120112437Y-46026402D01*
X119922563Y-46310569D01*
X119791775Y-46626319D01*
X119725100Y-46961517D01*
X115515791Y-46961517D01*
X115725884Y-46454311D01*
X116194188Y-45690109D01*
X116776274Y-45008574D01*
X117457809Y-44426487D01*
X118222011Y-43958184D01*
X119050069Y-43615191D01*
X119921582Y-43405959D01*
X120840104Y-43333670D01*
X134783831Y-43333670D01*
X134783830Y-64256149D01*
G37*
%TD.AperFunction*%
D26*
X164450826Y-50321062D02*
X164342993Y-50595688D01*
X165370100Y-51622795D01*
X166397207Y-50595688D01*
X166289374Y-50321062D01*
X166284512Y-50318670D01*
X168438831Y-50318670D01*
X168438831Y-50738772D01*
X168255752Y-50662939D01*
X168026812Y-50617400D01*
X167793388Y-50617400D01*
X167564448Y-50662939D01*
X167348792Y-50752266D01*
X167154706Y-50881950D01*
X166989650Y-51047006D01*
X166960545Y-51090565D01*
X166957436Y-51081434D01*
X166851438Y-50883126D01*
X166576812Y-50775293D01*
X165549705Y-51802400D01*
X166576812Y-52829507D01*
X166851438Y-52721674D01*
X166956487Y-52508162D01*
X166989650Y-52557794D01*
X167154706Y-52722850D01*
X167348792Y-52852534D01*
X167564448Y-52941861D01*
X167793388Y-52987400D01*
X168026812Y-52987400D01*
X168255752Y-52941861D01*
X168438831Y-52866028D01*
X168438831Y-53278772D01*
X168255752Y-53202939D01*
X168026812Y-53157400D01*
X167793388Y-53157400D01*
X167564448Y-53202939D01*
X167348792Y-53292266D01*
X167154706Y-53421950D01*
X166989650Y-53587006D01*
X166956010Y-53637352D01*
X166907637Y-53520569D01*
X166717763Y-53236402D01*
X166476098Y-52994737D01*
X166195026Y-52806931D01*
X165370100Y-51982005D01*
X164545174Y-52806931D01*
X164264102Y-52994737D01*
X164022437Y-53236402D01*
X163832563Y-53520569D01*
X163701775Y-53836319D01*
X163635100Y-54171517D01*
X163635100Y-54513283D01*
X163701775Y-54848481D01*
X163832563Y-55164231D01*
X163899790Y-55264843D01*
X163818915Y-55331215D01*
X163739563Y-55427906D01*
X163680598Y-55538220D01*
X163644288Y-55657918D01*
X163632028Y-55782400D01*
X163632028Y-57982400D01*
X163644288Y-58106882D01*
X163680598Y-58226580D01*
X163739563Y-58336894D01*
X163818915Y-58433585D01*
X163915606Y-58512937D01*
X164025920Y-58571902D01*
X164145618Y-58608212D01*
X164270100Y-58620472D01*
X166275100Y-58620472D01*
X166275100Y-60450937D01*
X166271423Y-60488269D01*
X166286097Y-60637254D01*
X166329553Y-60780515D01*
X166400125Y-60912545D01*
X166462266Y-60988263D01*
X166495099Y-61028270D01*
X166509492Y-61040082D01*
X166281612Y-61175583D01*
X166102153Y-61337092D01*
X166083202Y-61274620D01*
X166024237Y-61164306D01*
X165944885Y-61067615D01*
X165848194Y-60988263D01*
X165737880Y-60929298D01*
X165618182Y-60892988D01*
X165493700Y-60880728D01*
X164915850Y-60883800D01*
X164757100Y-61042550D01*
X164757100Y-62255400D01*
X167043100Y-62255400D01*
X167043100Y-62235400D01*
X167297100Y-62235400D01*
X167297100Y-62255400D01*
X167317100Y-62255400D01*
X167317100Y-62509400D01*
X167297100Y-62509400D01*
X167297100Y-62529400D01*
X167043100Y-62529400D01*
X167043100Y-62509400D01*
X164757100Y-62509400D01*
X164757100Y-62529400D01*
X164503100Y-62529400D01*
X164503100Y-62509400D01*
X164483100Y-62509400D01*
X164483100Y-62255400D01*
X164503100Y-62255400D01*
X164503100Y-61042550D01*
X164344350Y-60883800D01*
X164012060Y-60882033D01*
X164005298Y-60873794D01*
X163981500Y-60844796D01*
X163952503Y-60820999D01*
X158378837Y-55247334D01*
X158407637Y-55204231D01*
X158538425Y-54888481D01*
X158605100Y-54553283D01*
X158605100Y-54211517D01*
X158538425Y-53876319D01*
X158407637Y-53560569D01*
X158340410Y-53459957D01*
X158421285Y-53393585D01*
X158500637Y-53296894D01*
X158559602Y-53186580D01*
X158595912Y-53066882D01*
X158608172Y-52942400D01*
X158608172Y-51861039D01*
X163627691Y-51861039D01*
X163672611Y-52199839D01*
X163782764Y-52523366D01*
X163888762Y-52721674D01*
X164163388Y-52829507D01*
X165190495Y-51802400D01*
X164163388Y-50775293D01*
X163888762Y-50883126D01*
X163737884Y-51189784D01*
X163649731Y-51519985D01*
X163627691Y-51861039D01*
X158608172Y-51861039D01*
X158608172Y-50742400D01*
X158595912Y-50617918D01*
X158559602Y-50498220D01*
X158500637Y-50387906D01*
X158443817Y-50318670D01*
X164455301Y-50318670D01*
X164450826Y-50321062D01*
%TA.AperFunction,Conductor*%
D27*
G36*
X164450826Y-50321062D02*
G01*
X164342993Y-50595688D01*
X165370100Y-51622795D01*
X166397207Y-50595688D01*
X166289374Y-50321062D01*
X166284512Y-50318670D01*
X168438831Y-50318670D01*
X168438831Y-50738772D01*
X168255752Y-50662939D01*
X168026812Y-50617400D01*
X167793388Y-50617400D01*
X167564448Y-50662939D01*
X167348792Y-50752266D01*
X167154706Y-50881950D01*
X166989650Y-51047006D01*
X166960545Y-51090565D01*
X166957436Y-51081434D01*
X166851438Y-50883126D01*
X166576812Y-50775293D01*
X165549705Y-51802400D01*
X166576812Y-52829507D01*
X166851438Y-52721674D01*
X166956487Y-52508162D01*
X166989650Y-52557794D01*
X167154706Y-52722850D01*
X167348792Y-52852534D01*
X167564448Y-52941861D01*
X167793388Y-52987400D01*
X168026812Y-52987400D01*
X168255752Y-52941861D01*
X168438831Y-52866028D01*
X168438831Y-53278772D01*
X168255752Y-53202939D01*
X168026812Y-53157400D01*
X167793388Y-53157400D01*
X167564448Y-53202939D01*
X167348792Y-53292266D01*
X167154706Y-53421950D01*
X166989650Y-53587006D01*
X166956010Y-53637352D01*
X166907637Y-53520569D01*
X166717763Y-53236402D01*
X166476098Y-52994737D01*
X166195026Y-52806931D01*
X165370100Y-51982005D01*
X164545174Y-52806931D01*
X164264102Y-52994737D01*
X164022437Y-53236402D01*
X163832563Y-53520569D01*
X163701775Y-53836319D01*
X163635100Y-54171517D01*
X163635100Y-54513283D01*
X163701775Y-54848481D01*
X163832563Y-55164231D01*
X163899790Y-55264843D01*
X163818915Y-55331215D01*
X163739563Y-55427906D01*
X163680598Y-55538220D01*
X163644288Y-55657918D01*
X163632028Y-55782400D01*
X163632028Y-57982400D01*
X163644288Y-58106882D01*
X163680598Y-58226580D01*
X163739563Y-58336894D01*
X163818915Y-58433585D01*
X163915606Y-58512937D01*
X164025920Y-58571902D01*
X164145618Y-58608212D01*
X164270100Y-58620472D01*
X166275100Y-58620472D01*
X166275100Y-60450937D01*
X166271423Y-60488269D01*
X166286097Y-60637254D01*
X166329553Y-60780515D01*
X166400125Y-60912545D01*
X166462266Y-60988263D01*
X166495099Y-61028270D01*
X166509492Y-61040082D01*
X166281612Y-61175583D01*
X166102153Y-61337092D01*
X166083202Y-61274620D01*
X166024237Y-61164306D01*
X165944885Y-61067615D01*
X165848194Y-60988263D01*
X165737880Y-60929298D01*
X165618182Y-60892988D01*
X165493700Y-60880728D01*
X164915850Y-60883800D01*
X164757100Y-61042550D01*
X164757100Y-62255400D01*
X167043100Y-62255400D01*
X167043100Y-62235400D01*
X167297100Y-62235400D01*
X167297100Y-62255400D01*
X167317100Y-62255400D01*
X167317100Y-62509400D01*
X167297100Y-62509400D01*
X167297100Y-62529400D01*
X167043100Y-62529400D01*
X167043100Y-62509400D01*
X164757100Y-62509400D01*
X164757100Y-62529400D01*
X164503100Y-62529400D01*
X164503100Y-62509400D01*
X164483100Y-62509400D01*
X164483100Y-62255400D01*
X164503100Y-62255400D01*
X164503100Y-61042550D01*
X164344350Y-60883800D01*
X164012060Y-60882033D01*
X164005298Y-60873794D01*
X163981500Y-60844796D01*
X163952503Y-60820999D01*
X158378837Y-55247334D01*
X158407637Y-55204231D01*
X158538425Y-54888481D01*
X158605100Y-54553283D01*
X158605100Y-54211517D01*
X158538425Y-53876319D01*
X158407637Y-53560569D01*
X158340410Y-53459957D01*
X158421285Y-53393585D01*
X158500637Y-53296894D01*
X158559602Y-53186580D01*
X158595912Y-53066882D01*
X158608172Y-52942400D01*
X158608172Y-51861039D01*
X163627691Y-51861039D01*
X163672611Y-52199839D01*
X163782764Y-52523366D01*
X163888762Y-52721674D01*
X164163388Y-52829507D01*
X165190495Y-51802400D01*
X164163388Y-50775293D01*
X163888762Y-50883126D01*
X163737884Y-51189784D01*
X163649731Y-51519985D01*
X163627691Y-51861039D01*
X158608172Y-51861039D01*
X158608172Y-50742400D01*
X158595912Y-50617918D01*
X158559602Y-50498220D01*
X158500637Y-50387906D01*
X158443817Y-50318670D01*
X164455301Y-50318670D01*
X164450826Y-50321062D01*
G37*
%TD.AperFunction*%
%TD*%
M02*
