%TF.GenerationSoftware,KiCad,Pcbnew,6.0.5+dfsg-1~bpo11+1*%
%TF.CreationDate,2022-07-02T01:15:30+00:00*%
%TF.ProjectId,bbbalarm,62626261-6c61-4726-9d2e-6b696361645f,rev?*%
%TF.SameCoordinates,Original*%
%TF.FileFunction,Soldermask,Top*%
%TF.FilePolarity,Negative*%
%FSLAX46Y46*%
G04 Gerber Fmt 4.6, Leading zero omitted, Abs format (unit mm)*
G04 Created by KiCad (PCBNEW 6.0.5+dfsg-1~bpo11+1) date 2022-07-02 01:15:30*
%MOMM*%
%LPD*%
G01*
G04 APERTURE LIST*
G04 Aperture macros list*
%AMRoundRect*
0 Rectangle with rounded corners*
0 $1 Rounding radius*
0 $2 $3 $4 $5 $6 $7 $8 $9 X,Y pos of 4 corners*
0 Add a 4 corners polygon primitive as box body*
4,1,4,$2,$3,$4,$5,$6,$7,$8,$9,$2,$3,0*
0 Add four circle primitives for the rounded corners*
1,1,$1+$1,$2,$3*
1,1,$1+$1,$4,$5*
1,1,$1+$1,$6,$7*
1,1,$1+$1,$8,$9*
0 Add four rect primitives between the rounded corners*
20,1,$1+$1,$2,$3,$4,$5,0*
20,1,$1+$1,$4,$5,$6,$7,0*
20,1,$1+$1,$6,$7,$8,$9,0*
20,1,$1+$1,$8,$9,$2,$3,0*%
%AMFreePoly0*
4,1,22,0.500000,-0.750000,0.000000,-0.750000,0.000000,-0.745033,-0.079941,-0.743568,-0.215256,-0.701293,-0.333266,-0.622738,-0.424486,-0.514219,-0.481581,-0.384460,-0.499164,-0.250000,-0.500000,-0.250000,-0.500000,0.250000,-0.499164,0.250000,-0.499963,0.256109,-0.478152,0.396186,-0.417904,0.524511,-0.324060,0.630769,-0.204165,0.706417,-0.067858,0.745374,0.000000,0.744959,0.000000,0.750000,
0.500000,0.750000,0.500000,-0.750000,0.500000,-0.750000,$1*%
%AMFreePoly1*
4,1,20,0.000000,0.744959,0.073905,0.744508,0.209726,0.703889,0.328688,0.626782,0.421226,0.519385,0.479903,0.390333,0.500000,0.250000,0.500000,-0.250000,0.499851,-0.262216,0.476331,-0.402017,0.414519,-0.529596,0.319384,-0.634700,0.198574,-0.708877,0.061801,-0.746166,0.000000,-0.745033,0.000000,-0.750000,-0.500000,-0.750000,-0.500000,0.750000,0.000000,0.750000,0.000000,0.744959,
0.000000,0.744959,$1*%
%AMFreePoly2*
4,1,6,0.500000,-0.850000,-0.500000,-0.850000,-0.500000,0.550000,-0.200000,0.850000,0.500000,0.850000,0.500000,-0.850000,0.500000,-0.850000,$1*%
G04 Aperture macros list end*
%ADD10R,1.727200X1.727200*%
%ADD11O,1.727200X1.727200*%
%ADD12RoundRect,0.140000X-0.170000X0.140000X-0.170000X-0.140000X0.170000X-0.140000X0.170000X0.140000X0*%
%ADD13FreePoly0,270.000000*%
%ADD14FreePoly1,270.000000*%
%ADD15FreePoly0,90.000000*%
%ADD16FreePoly1,90.000000*%
%ADD17RoundRect,0.135000X0.135000X0.185000X-0.135000X0.185000X-0.135000X-0.185000X0.135000X-0.185000X0*%
%ADD18RoundRect,0.135000X0.185000X-0.135000X0.185000X0.135000X-0.185000X0.135000X-0.185000X-0.135000X0*%
%ADD19C,2.000000*%
%ADD20RoundRect,0.150000X0.825000X0.150000X-0.825000X0.150000X-0.825000X-0.150000X0.825000X-0.150000X0*%
%ADD21C,1.100000*%
%ADD22R,2.200000X2.200000*%
%ADD23C,2.200000*%
%ADD24O,2.200000X2.200000*%
%ADD25R,1.800000X1.800000*%
%ADD26C,1.800000*%
%ADD27R,1.500000X3.000000*%
%ADD28O,1.500000X3.000000*%
%ADD29C,1.600000*%
%ADD30O,1.600000X1.600000*%
%ADD31R,1.600000X1.600000*%
%ADD32R,1.700000X1.700000*%
%ADD33O,1.700000X1.700000*%
%ADD34R,0.550000X0.250000*%
%ADD35FreePoly2,0.000000*%
G04 APERTURE END LIST*
D10*
%TO.C,P8*%
X164630100Y-62382400D03*
D11*
X167170100Y-62382400D03*
X164630100Y-64922400D03*
X167170100Y-64922400D03*
X164630100Y-67462400D03*
X167170100Y-67462400D03*
X164630100Y-70002400D03*
X167170100Y-70002400D03*
X164630100Y-72542400D03*
X167170100Y-72542400D03*
X164630100Y-75082400D03*
X167170100Y-75082400D03*
X164630100Y-77622400D03*
X167170100Y-77622400D03*
X164630100Y-80162400D03*
X167170100Y-80162400D03*
X164630100Y-82702400D03*
X167170100Y-82702400D03*
X164630100Y-85242400D03*
X167170100Y-85242400D03*
X164630100Y-87782400D03*
X167170100Y-87782400D03*
X164630100Y-90322400D03*
X167170100Y-90322400D03*
X164630100Y-92862400D03*
X167170100Y-92862400D03*
X164630100Y-95402400D03*
X167170100Y-95402400D03*
X164630100Y-97942400D03*
X167170100Y-97942400D03*
X164630100Y-100482400D03*
X167170100Y-100482400D03*
X164630100Y-103022400D03*
X167170100Y-103022400D03*
X164630100Y-105562400D03*
X167170100Y-105562400D03*
X164630100Y-108102400D03*
X167170100Y-108102400D03*
X164630100Y-110642400D03*
X167170100Y-110642400D03*
X164630100Y-113182400D03*
X167170100Y-113182400D03*
X164630100Y-115722400D03*
X167170100Y-115722400D03*
X164630100Y-118262400D03*
X167170100Y-118262400D03*
%TD*%
D12*
%TO.C,C101*%
X125120100Y-90902400D03*
X125120100Y-91862400D03*
%TD*%
D13*
%TO.C,JP105*%
X128370100Y-91732400D03*
D14*
X128370100Y-93032400D03*
%TD*%
D13*
%TO.C,JP107*%
X134370100Y-91732400D03*
D14*
X134370100Y-93032400D03*
%TD*%
D15*
%TO.C,JP108*%
X122370100Y-88032400D03*
D16*
X122370100Y-86732400D03*
%TD*%
D17*
%TO.C,R101*%
X133880100Y-86632400D03*
X132860100Y-86632400D03*
%TD*%
%TO.C,R102*%
X133880100Y-87882400D03*
X132860100Y-87882400D03*
%TD*%
D18*
%TO.C,R104*%
X122370100Y-90892400D03*
X122370100Y-89872400D03*
%TD*%
D19*
%TO.C,SW101*%
X155370100Y-65882400D03*
X155370100Y-72382400D03*
X159870100Y-72382400D03*
X159870100Y-65882400D03*
%TD*%
%TO.C,SW102*%
X125370100Y-72382400D03*
X125370100Y-65882400D03*
X129870100Y-65882400D03*
X129870100Y-72382400D03*
%TD*%
D20*
%TO.C,U103*%
X130845100Y-89287400D03*
X130845100Y-88017400D03*
X130845100Y-86747400D03*
X130845100Y-85477400D03*
X125895100Y-85477400D03*
X125895100Y-86747400D03*
X125895100Y-88017400D03*
X125895100Y-89287400D03*
%TD*%
D17*
%TO.C,R103*%
X133880100Y-89132400D03*
X132860100Y-89132400D03*
%TD*%
D13*
%TO.C,JP106*%
X131370100Y-91732400D03*
D14*
X131370100Y-93032400D03*
%TD*%
D21*
%TO.C,J102*%
X115830100Y-53632400D03*
X115830100Y-56172400D03*
D22*
X118370100Y-53632400D03*
D23*
X118370100Y-56172400D03*
%TD*%
D19*
%TO.C,U104*%
X126080100Y-57132400D03*
X128620100Y-57132400D03*
X131160100Y-57132400D03*
%TD*%
D22*
%TO.C,D114*%
X131620100Y-47132400D03*
D24*
X121460100Y-47132400D03*
%TD*%
D25*
%TO.C,D101*%
X135370100Y-69382400D03*
D26*
X135370100Y-66842400D03*
%TD*%
D25*
%TO.C,D102*%
X140370100Y-69382400D03*
D26*
X140370100Y-66842400D03*
%TD*%
D25*
%TO.C,D103*%
X145370100Y-69382400D03*
D26*
X145370100Y-66842400D03*
%TD*%
D25*
%TO.C,D104*%
X150370100Y-69382400D03*
D26*
X150370100Y-66842400D03*
%TD*%
D27*
%TO.C,J101*%
X130370100Y-119382400D03*
D28*
X135370100Y-119382400D03*
%TD*%
D27*
%TO.C,J103*%
X147370100Y-119382400D03*
D28*
X152370100Y-119382400D03*
%TD*%
D29*
%TO.C,R105*%
X135370100Y-72382400D03*
D30*
X135370100Y-80002400D03*
%TD*%
D29*
%TO.C,R106*%
X140370100Y-72382400D03*
D30*
X140370100Y-80002400D03*
%TD*%
D29*
%TO.C,R107*%
X145370100Y-72382400D03*
D30*
X145370100Y-80002400D03*
%TD*%
D29*
%TO.C,R108*%
X150370100Y-72382400D03*
D30*
X150370100Y-80002400D03*
%TD*%
D29*
%TO.C,R109*%
X140370100Y-89382400D03*
D30*
X140370100Y-97002400D03*
%TD*%
D29*
%TO.C,R110*%
X144370100Y-89382400D03*
D30*
X144370100Y-97002400D03*
%TD*%
D29*
%TO.C,R111*%
X129370100Y-111382400D03*
D30*
X136990100Y-111382400D03*
%TD*%
D29*
%TO.C,R112*%
X146370100Y-111382400D03*
D30*
X153990100Y-111382400D03*
%TD*%
D21*
%TO.C,J105*%
X167910100Y-51802400D03*
X167910100Y-54342400D03*
X167910100Y-56882400D03*
D22*
X165370100Y-56882400D03*
D23*
X165370100Y-54342400D03*
X165370100Y-51802400D03*
%TD*%
D31*
%TO.C,U101*%
X138370100Y-107382400D03*
D30*
X140910100Y-107382400D03*
X143450100Y-107382400D03*
X145990100Y-107382400D03*
X145990100Y-99762400D03*
X143450100Y-99762400D03*
X140910100Y-99762400D03*
X138370100Y-99762400D03*
%TD*%
D10*
%TO.C,P9*%
X116370100Y-62382400D03*
D11*
X118910100Y-62382400D03*
X116370100Y-64922400D03*
X118910100Y-64922400D03*
X116370100Y-67462400D03*
X118910100Y-67462400D03*
X116370100Y-70002400D03*
X118910100Y-70002400D03*
X116370100Y-72542400D03*
X118910100Y-72542400D03*
X116370100Y-75082400D03*
X118910100Y-75082400D03*
X116370100Y-77622400D03*
X118910100Y-77622400D03*
X116370100Y-80162400D03*
X118910100Y-80162400D03*
X116370100Y-82702400D03*
X118910100Y-82702400D03*
X116370100Y-85242400D03*
X118910100Y-85242400D03*
X116370100Y-87782400D03*
X118910100Y-87782400D03*
X116370100Y-90322400D03*
X118910100Y-90322400D03*
X116370100Y-92862400D03*
X118910100Y-92862400D03*
X116370100Y-95402400D03*
X118910100Y-95402400D03*
X116370100Y-97942400D03*
X118910100Y-97942400D03*
X116370100Y-100482400D03*
X118910100Y-100482400D03*
X116370100Y-103022400D03*
X118910100Y-103022400D03*
X116370100Y-105562400D03*
X118910100Y-105562400D03*
X116370100Y-108102400D03*
X118910100Y-108102400D03*
X116370100Y-110642400D03*
X118910100Y-110642400D03*
X116370100Y-113182400D03*
X118910100Y-113182400D03*
X116370100Y-115722400D03*
X118910100Y-115722400D03*
X116370100Y-118262400D03*
X118910100Y-118262400D03*
%TD*%
D21*
%TO.C,J104*%
X154330100Y-56922400D03*
X154330100Y-51842400D03*
X154330100Y-54382400D03*
D22*
X156870100Y-51842400D03*
D23*
X156870100Y-54382400D03*
X156870100Y-56922400D03*
%TD*%
D17*
%TO.C,R113*%
X162130100Y-82882400D03*
X161110100Y-82882400D03*
%TD*%
D32*
%TO.C,J106*%
X130370100Y-77882400D03*
D33*
X127830100Y-77882400D03*
X125290100Y-77882400D03*
%TD*%
D34*
%TO.C,U102*%
X141195100Y-84132400D03*
X141195100Y-84632400D03*
X141195100Y-85132400D03*
X141195100Y-85632400D03*
X143545100Y-85632400D03*
X143545100Y-85132400D03*
X143545100Y-84632400D03*
X143545100Y-84132400D03*
D35*
X142370100Y-84882400D03*
%TD*%
M02*
