%TF.GenerationSoftware,KiCad,Pcbnew,5.1.9+dfsg1-1~bpo10+1*%
%TF.CreationDate,2021-07-04T13:04:41+00:00*%
%TF.ProjectId,bbbalarm,62626261-6c61-4726-9d2e-6b696361645f,rev?*%
%TF.SameCoordinates,Original*%
%TF.FileFunction,Copper,L1,Top*%
%TF.FilePolarity,Positive*%
%FSLAX46Y46*%
G04 Gerber Fmt 4.6, Leading zero omitted, Abs format (unit mm)*
G04 Created by KiCad (PCBNEW 5.1.9+dfsg1-1~bpo10+1) date 2021-07-04 13:04:41*
%MOMM*%
%LPD*%
G01*
G04 APERTURE LIST*
%TA.AperFunction,ComponentPad*%
%ADD10R,1.727200X1.727200*%
%TD*%
%TA.AperFunction,ComponentPad*%
%ADD11O,1.727200X1.727200*%
%TD*%
%TA.AperFunction,SMDPad,CuDef*%
%ADD12C,0.100000*%
%TD*%
%TA.AperFunction,ComponentPad*%
%ADD13C,2.000000*%
%TD*%
%TA.AperFunction,ComponentPad*%
%ADD14R,2.200000X2.200000*%
%TD*%
%TA.AperFunction,ComponentPad*%
%ADD15O,2.200000X2.200000*%
%TD*%
%TA.AperFunction,ComponentPad*%
%ADD16C,2.200000*%
%TD*%
%TA.AperFunction,ComponentPad*%
%ADD17C,1.800000*%
%TD*%
%TA.AperFunction,ComponentPad*%
%ADD18R,1.800000X1.800000*%
%TD*%
%TA.AperFunction,ComponentPad*%
%ADD19R,1.500000X3.000000*%
%TD*%
%TA.AperFunction,ComponentPad*%
%ADD20O,1.500000X3.000000*%
%TD*%
%TA.AperFunction,ComponentPad*%
%ADD21C,1.600000*%
%TD*%
%TA.AperFunction,ComponentPad*%
%ADD22O,1.600000X1.600000*%
%TD*%
%TA.AperFunction,ComponentPad*%
%ADD23R,1.600000X1.600000*%
%TD*%
%TA.AperFunction,ViaPad*%
%ADD24C,0.600000*%
%TD*%
%TA.AperFunction,Conductor*%
%ADD25C,0.500000*%
%TD*%
%TA.AperFunction,Conductor*%
%ADD26C,0.250000*%
%TD*%
%TA.AperFunction,Conductor*%
%ADD27C,0.254000*%
%TD*%
%TA.AperFunction,Conductor*%
%ADD28C,0.100000*%
%TD*%
G04 APERTURE END LIST*
D10*
%TO.P,P9,1*%
%TO.N,GNDD*%
X116370100Y-62382400D03*
D11*
%TO.P,P9,2*%
X118910100Y-62382400D03*
%TO.P,P9,3*%
%TO.N,+3V3*%
X116370100Y-64922400D03*
%TO.P,P9,4*%
X118910100Y-64922400D03*
%TO.P,P9,5*%
%TO.N,+5V*%
X116370100Y-67462400D03*
%TO.P,P9,6*%
X118910100Y-67462400D03*
%TO.P,P9,7*%
%TO.N,SYS_5V*%
X116370100Y-70002400D03*
%TO.P,P9,8*%
X118910100Y-70002400D03*
%TO.P,P9,9*%
%TO.N,PWR_BUT*%
X116370100Y-72542400D03*
%TO.P,P9,10*%
%TO.N,SYS_RESETN*%
X118910100Y-72542400D03*
%TO.P,P9,11*%
%TO.N,N/C*%
X116370100Y-75082400D03*
%TO.P,P9,12*%
X118910100Y-75082400D03*
%TO.P,P9,13*%
X116370100Y-77622400D03*
%TO.P,P9,14*%
X118910100Y-77622400D03*
%TO.P,P9,15*%
X116370100Y-80162400D03*
%TO.P,P9,16*%
X118910100Y-80162400D03*
%TO.P,P9,17*%
X116370100Y-82702400D03*
%TO.P,P9,18*%
X118910100Y-82702400D03*
%TO.P,P9,19*%
%TO.N,/SCL*%
X116370100Y-85242400D03*
%TO.P,P9,20*%
%TO.N,/SDA*%
X118910100Y-85242400D03*
%TO.P,P9,21*%
%TO.N,N/C*%
X116370100Y-87782400D03*
%TO.P,P9,22*%
X118910100Y-87782400D03*
%TO.P,P9,23*%
X116370100Y-90322400D03*
%TO.P,P9,24*%
X118910100Y-90322400D03*
%TO.P,P9,25*%
X116370100Y-92862400D03*
%TO.P,P9,26*%
X118910100Y-92862400D03*
%TO.P,P9,27*%
X116370100Y-95402400D03*
%TO.P,P9,28*%
X118910100Y-95402400D03*
%TO.P,P9,29*%
X116370100Y-97942400D03*
%TO.P,P9,30*%
X118910100Y-97942400D03*
%TO.P,P9,31*%
X116370100Y-100482400D03*
%TO.P,P9,32*%
X118910100Y-100482400D03*
%TO.P,P9,33*%
X116370100Y-103022400D03*
%TO.P,P9,34*%
X118910100Y-103022400D03*
%TO.P,P9,35*%
X116370100Y-105562400D03*
%TO.P,P9,36*%
X118910100Y-105562400D03*
%TO.P,P9,37*%
X116370100Y-108102400D03*
%TO.P,P9,38*%
X118910100Y-108102400D03*
%TO.P,P9,39*%
X116370100Y-110642400D03*
%TO.P,P9,40*%
X118910100Y-110642400D03*
%TO.P,P9,41*%
X116370100Y-113182400D03*
%TO.P,P9,42*%
X118910100Y-113182400D03*
%TO.P,P9,43*%
%TO.N,GNDD*%
X116370100Y-115722400D03*
%TO.P,P9,44*%
X118910100Y-115722400D03*
%TO.P,P9,45*%
X116370100Y-118262400D03*
%TO.P,P9,46*%
X118910100Y-118262400D03*
%TD*%
D10*
%TO.P,P8,1*%
%TO.N,GNDD*%
X164630100Y-62382400D03*
D11*
%TO.P,P8,2*%
X167170100Y-62382400D03*
%TO.P,P8,3*%
%TO.N,N/C*%
X164630100Y-64922400D03*
%TO.P,P8,4*%
X167170100Y-64922400D03*
%TO.P,P8,5*%
X164630100Y-67462400D03*
%TO.P,P8,6*%
X167170100Y-67462400D03*
%TO.P,P8,7*%
%TO.N,/LED0*%
X164630100Y-70002400D03*
%TO.P,P8,8*%
%TO.N,/PIR0*%
X167170100Y-70002400D03*
%TO.P,P8,9*%
%TO.N,/LED1*%
X164630100Y-72542400D03*
%TO.P,P8,10*%
%TO.N,/PIR1*%
X167170100Y-72542400D03*
%TO.P,P8,11*%
%TO.N,/LED2*%
X164630100Y-75082400D03*
%TO.P,P8,12*%
%TO.N,/IN0*%
X167170100Y-75082400D03*
%TO.P,P8,13*%
%TO.N,/LED3*%
X164630100Y-77622400D03*
%TO.P,P8,14*%
%TO.N,/IN1*%
X167170100Y-77622400D03*
%TO.P,P8,15*%
%TO.N,N/C*%
X164630100Y-80162400D03*
%TO.P,P8,16*%
X167170100Y-80162400D03*
%TO.P,P8,17*%
X164630100Y-82702400D03*
%TO.P,P8,18*%
X167170100Y-82702400D03*
%TO.P,P8,19*%
X164630100Y-85242400D03*
%TO.P,P8,20*%
X167170100Y-85242400D03*
%TO.P,P8,21*%
X164630100Y-87782400D03*
%TO.P,P8,22*%
X167170100Y-87782400D03*
%TO.P,P8,23*%
X164630100Y-90322400D03*
%TO.P,P8,24*%
X167170100Y-90322400D03*
%TO.P,P8,25*%
X164630100Y-92862400D03*
%TO.P,P8,26*%
X167170100Y-92862400D03*
%TO.P,P8,27*%
X164630100Y-95402400D03*
%TO.P,P8,28*%
X167170100Y-95402400D03*
%TO.P,P8,29*%
X164630100Y-97942400D03*
%TO.P,P8,30*%
X167170100Y-97942400D03*
%TO.P,P8,31*%
X164630100Y-100482400D03*
%TO.P,P8,32*%
X167170100Y-100482400D03*
%TO.P,P8,33*%
X164630100Y-103022400D03*
%TO.P,P8,34*%
X167170100Y-103022400D03*
%TO.P,P8,35*%
X164630100Y-105562400D03*
%TO.P,P8,36*%
X167170100Y-105562400D03*
%TO.P,P8,37*%
X164630100Y-108102400D03*
%TO.P,P8,38*%
X167170100Y-108102400D03*
%TO.P,P8,39*%
X164630100Y-110642400D03*
%TO.P,P8,40*%
X167170100Y-110642400D03*
%TO.P,P8,41*%
X164630100Y-113182400D03*
%TO.P,P8,42*%
X167170100Y-113182400D03*
%TO.P,P8,43*%
X164630100Y-115722400D03*
%TO.P,P8,44*%
X167170100Y-115722400D03*
%TO.P,P8,45*%
X164630100Y-118262400D03*
%TO.P,P8,46*%
X167170100Y-118262400D03*
%TD*%
%TO.P,C101,1*%
%TO.N,+3V3*%
%TA.AperFunction,SMDPad,CuDef*%
G36*
G01*
X124950100Y-90622400D02*
X125290100Y-90622400D01*
G75*
G02*
X125430100Y-90762400I0J-140000D01*
G01*
X125430100Y-91042400D01*
G75*
G02*
X125290100Y-91182400I-140000J0D01*
G01*
X124950100Y-91182400D01*
G75*
G02*
X124810100Y-91042400I0J140000D01*
G01*
X124810100Y-90762400D01*
G75*
G02*
X124950100Y-90622400I140000J0D01*
G01*
G37*
%TD.AperFunction*%
%TO.P,C101,2*%
%TO.N,GNDD*%
%TA.AperFunction,SMDPad,CuDef*%
G36*
G01*
X124950100Y-91582400D02*
X125290100Y-91582400D01*
G75*
G02*
X125430100Y-91722400I0J-140000D01*
G01*
X125430100Y-92002400D01*
G75*
G02*
X125290100Y-92142400I-140000J0D01*
G01*
X124950100Y-92142400D01*
G75*
G02*
X124810100Y-92002400I0J140000D01*
G01*
X124810100Y-91722400D01*
G75*
G02*
X124950100Y-91582400I140000J0D01*
G01*
G37*
%TD.AperFunction*%
%TD*%
%TA.AperFunction,SMDPad,CuDef*%
D12*
%TO.P,JP105,1*%
%TO.N,Net-(JP105-Pad1)*%
G36*
X127620100Y-92232400D02*
G01*
X127620100Y-91732400D01*
X127620702Y-91732400D01*
X127620702Y-91707866D01*
X127625512Y-91659035D01*
X127635084Y-91610910D01*
X127649328Y-91563955D01*
X127668105Y-91518622D01*
X127691236Y-91475349D01*
X127718496Y-91434550D01*
X127749624Y-91396621D01*
X127784321Y-91361924D01*
X127822250Y-91330796D01*
X127863049Y-91303536D01*
X127906322Y-91280405D01*
X127951655Y-91261628D01*
X127998610Y-91247384D01*
X128046735Y-91237812D01*
X128095566Y-91233002D01*
X128120100Y-91233002D01*
X128120100Y-91232400D01*
X128620100Y-91232400D01*
X128620100Y-91233002D01*
X128644634Y-91233002D01*
X128693465Y-91237812D01*
X128741590Y-91247384D01*
X128788545Y-91261628D01*
X128833878Y-91280405D01*
X128877151Y-91303536D01*
X128917950Y-91330796D01*
X128955879Y-91361924D01*
X128990576Y-91396621D01*
X129021704Y-91434550D01*
X129048964Y-91475349D01*
X129072095Y-91518622D01*
X129090872Y-91563955D01*
X129105116Y-91610910D01*
X129114688Y-91659035D01*
X129119498Y-91707866D01*
X129119498Y-91732400D01*
X129120100Y-91732400D01*
X129120100Y-92232400D01*
X127620100Y-92232400D01*
G37*
%TD.AperFunction*%
%TA.AperFunction,SMDPad,CuDef*%
%TO.P,JP105,2*%
%TO.N,GNDD*%
G36*
X129119498Y-93032400D02*
G01*
X129119498Y-93056934D01*
X129114688Y-93105765D01*
X129105116Y-93153890D01*
X129090872Y-93200845D01*
X129072095Y-93246178D01*
X129048964Y-93289451D01*
X129021704Y-93330250D01*
X128990576Y-93368179D01*
X128955879Y-93402876D01*
X128917950Y-93434004D01*
X128877151Y-93461264D01*
X128833878Y-93484395D01*
X128788545Y-93503172D01*
X128741590Y-93517416D01*
X128693465Y-93526988D01*
X128644634Y-93531798D01*
X128620100Y-93531798D01*
X128620100Y-93532400D01*
X128120100Y-93532400D01*
X128120100Y-93531798D01*
X128095566Y-93531798D01*
X128046735Y-93526988D01*
X127998610Y-93517416D01*
X127951655Y-93503172D01*
X127906322Y-93484395D01*
X127863049Y-93461264D01*
X127822250Y-93434004D01*
X127784321Y-93402876D01*
X127749624Y-93368179D01*
X127718496Y-93330250D01*
X127691236Y-93289451D01*
X127668105Y-93246178D01*
X127649328Y-93200845D01*
X127635084Y-93153890D01*
X127625512Y-93105765D01*
X127620702Y-93056934D01*
X127620702Y-93032400D01*
X127620100Y-93032400D01*
X127620100Y-92532400D01*
X129120100Y-92532400D01*
X129120100Y-93032400D01*
X129119498Y-93032400D01*
G37*
%TD.AperFunction*%
%TD*%
%TA.AperFunction,SMDPad,CuDef*%
%TO.P,JP106,2*%
%TO.N,GNDD*%
G36*
X132119498Y-93032400D02*
G01*
X132119498Y-93056934D01*
X132114688Y-93105765D01*
X132105116Y-93153890D01*
X132090872Y-93200845D01*
X132072095Y-93246178D01*
X132048964Y-93289451D01*
X132021704Y-93330250D01*
X131990576Y-93368179D01*
X131955879Y-93402876D01*
X131917950Y-93434004D01*
X131877151Y-93461264D01*
X131833878Y-93484395D01*
X131788545Y-93503172D01*
X131741590Y-93517416D01*
X131693465Y-93526988D01*
X131644634Y-93531798D01*
X131620100Y-93531798D01*
X131620100Y-93532400D01*
X131120100Y-93532400D01*
X131120100Y-93531798D01*
X131095566Y-93531798D01*
X131046735Y-93526988D01*
X130998610Y-93517416D01*
X130951655Y-93503172D01*
X130906322Y-93484395D01*
X130863049Y-93461264D01*
X130822250Y-93434004D01*
X130784321Y-93402876D01*
X130749624Y-93368179D01*
X130718496Y-93330250D01*
X130691236Y-93289451D01*
X130668105Y-93246178D01*
X130649328Y-93200845D01*
X130635084Y-93153890D01*
X130625512Y-93105765D01*
X130620702Y-93056934D01*
X130620702Y-93032400D01*
X130620100Y-93032400D01*
X130620100Y-92532400D01*
X132120100Y-92532400D01*
X132120100Y-93032400D01*
X132119498Y-93032400D01*
G37*
%TD.AperFunction*%
%TA.AperFunction,SMDPad,CuDef*%
%TO.P,JP106,1*%
%TO.N,Net-(JP106-Pad1)*%
G36*
X130620100Y-92232400D02*
G01*
X130620100Y-91732400D01*
X130620702Y-91732400D01*
X130620702Y-91707866D01*
X130625512Y-91659035D01*
X130635084Y-91610910D01*
X130649328Y-91563955D01*
X130668105Y-91518622D01*
X130691236Y-91475349D01*
X130718496Y-91434550D01*
X130749624Y-91396621D01*
X130784321Y-91361924D01*
X130822250Y-91330796D01*
X130863049Y-91303536D01*
X130906322Y-91280405D01*
X130951655Y-91261628D01*
X130998610Y-91247384D01*
X131046735Y-91237812D01*
X131095566Y-91233002D01*
X131120100Y-91233002D01*
X131120100Y-91232400D01*
X131620100Y-91232400D01*
X131620100Y-91233002D01*
X131644634Y-91233002D01*
X131693465Y-91237812D01*
X131741590Y-91247384D01*
X131788545Y-91261628D01*
X131833878Y-91280405D01*
X131877151Y-91303536D01*
X131917950Y-91330796D01*
X131955879Y-91361924D01*
X131990576Y-91396621D01*
X132021704Y-91434550D01*
X132048964Y-91475349D01*
X132072095Y-91518622D01*
X132090872Y-91563955D01*
X132105116Y-91610910D01*
X132114688Y-91659035D01*
X132119498Y-91707866D01*
X132119498Y-91732400D01*
X132120100Y-91732400D01*
X132120100Y-92232400D01*
X130620100Y-92232400D01*
G37*
%TD.AperFunction*%
%TD*%
%TA.AperFunction,SMDPad,CuDef*%
%TO.P,JP107,1*%
%TO.N,Net-(JP107-Pad1)*%
G36*
X133620100Y-92232400D02*
G01*
X133620100Y-91732400D01*
X133620702Y-91732400D01*
X133620702Y-91707866D01*
X133625512Y-91659035D01*
X133635084Y-91610910D01*
X133649328Y-91563955D01*
X133668105Y-91518622D01*
X133691236Y-91475349D01*
X133718496Y-91434550D01*
X133749624Y-91396621D01*
X133784321Y-91361924D01*
X133822250Y-91330796D01*
X133863049Y-91303536D01*
X133906322Y-91280405D01*
X133951655Y-91261628D01*
X133998610Y-91247384D01*
X134046735Y-91237812D01*
X134095566Y-91233002D01*
X134120100Y-91233002D01*
X134120100Y-91232400D01*
X134620100Y-91232400D01*
X134620100Y-91233002D01*
X134644634Y-91233002D01*
X134693465Y-91237812D01*
X134741590Y-91247384D01*
X134788545Y-91261628D01*
X134833878Y-91280405D01*
X134877151Y-91303536D01*
X134917950Y-91330796D01*
X134955879Y-91361924D01*
X134990576Y-91396621D01*
X135021704Y-91434550D01*
X135048964Y-91475349D01*
X135072095Y-91518622D01*
X135090872Y-91563955D01*
X135105116Y-91610910D01*
X135114688Y-91659035D01*
X135119498Y-91707866D01*
X135119498Y-91732400D01*
X135120100Y-91732400D01*
X135120100Y-92232400D01*
X133620100Y-92232400D01*
G37*
%TD.AperFunction*%
%TA.AperFunction,SMDPad,CuDef*%
%TO.P,JP107,2*%
%TO.N,GNDD*%
G36*
X135119498Y-93032400D02*
G01*
X135119498Y-93056934D01*
X135114688Y-93105765D01*
X135105116Y-93153890D01*
X135090872Y-93200845D01*
X135072095Y-93246178D01*
X135048964Y-93289451D01*
X135021704Y-93330250D01*
X134990576Y-93368179D01*
X134955879Y-93402876D01*
X134917950Y-93434004D01*
X134877151Y-93461264D01*
X134833878Y-93484395D01*
X134788545Y-93503172D01*
X134741590Y-93517416D01*
X134693465Y-93526988D01*
X134644634Y-93531798D01*
X134620100Y-93531798D01*
X134620100Y-93532400D01*
X134120100Y-93532400D01*
X134120100Y-93531798D01*
X134095566Y-93531798D01*
X134046735Y-93526988D01*
X133998610Y-93517416D01*
X133951655Y-93503172D01*
X133906322Y-93484395D01*
X133863049Y-93461264D01*
X133822250Y-93434004D01*
X133784321Y-93402876D01*
X133749624Y-93368179D01*
X133718496Y-93330250D01*
X133691236Y-93289451D01*
X133668105Y-93246178D01*
X133649328Y-93200845D01*
X133635084Y-93153890D01*
X133625512Y-93105765D01*
X133620702Y-93056934D01*
X133620702Y-93032400D01*
X133620100Y-93032400D01*
X133620100Y-92532400D01*
X135120100Y-92532400D01*
X135120100Y-93032400D01*
X135119498Y-93032400D01*
G37*
%TD.AperFunction*%
%TD*%
%TA.AperFunction,SMDPad,CuDef*%
%TO.P,JP108,2*%
%TO.N,GNDD*%
G36*
X121620702Y-86732400D02*
G01*
X121620702Y-86707866D01*
X121625512Y-86659035D01*
X121635084Y-86610910D01*
X121649328Y-86563955D01*
X121668105Y-86518622D01*
X121691236Y-86475349D01*
X121718496Y-86434550D01*
X121749624Y-86396621D01*
X121784321Y-86361924D01*
X121822250Y-86330796D01*
X121863049Y-86303536D01*
X121906322Y-86280405D01*
X121951655Y-86261628D01*
X121998610Y-86247384D01*
X122046735Y-86237812D01*
X122095566Y-86233002D01*
X122120100Y-86233002D01*
X122120100Y-86232400D01*
X122620100Y-86232400D01*
X122620100Y-86233002D01*
X122644634Y-86233002D01*
X122693465Y-86237812D01*
X122741590Y-86247384D01*
X122788545Y-86261628D01*
X122833878Y-86280405D01*
X122877151Y-86303536D01*
X122917950Y-86330796D01*
X122955879Y-86361924D01*
X122990576Y-86396621D01*
X123021704Y-86434550D01*
X123048964Y-86475349D01*
X123072095Y-86518622D01*
X123090872Y-86563955D01*
X123105116Y-86610910D01*
X123114688Y-86659035D01*
X123119498Y-86707866D01*
X123119498Y-86732400D01*
X123120100Y-86732400D01*
X123120100Y-87232400D01*
X121620100Y-87232400D01*
X121620100Y-86732400D01*
X121620702Y-86732400D01*
G37*
%TD.AperFunction*%
%TA.AperFunction,SMDPad,CuDef*%
%TO.P,JP108,1*%
%TO.N,Net-(JP108-Pad1)*%
G36*
X123120100Y-87532400D02*
G01*
X123120100Y-88032400D01*
X123119498Y-88032400D01*
X123119498Y-88056934D01*
X123114688Y-88105765D01*
X123105116Y-88153890D01*
X123090872Y-88200845D01*
X123072095Y-88246178D01*
X123048964Y-88289451D01*
X123021704Y-88330250D01*
X122990576Y-88368179D01*
X122955879Y-88402876D01*
X122917950Y-88434004D01*
X122877151Y-88461264D01*
X122833878Y-88484395D01*
X122788545Y-88503172D01*
X122741590Y-88517416D01*
X122693465Y-88526988D01*
X122644634Y-88531798D01*
X122620100Y-88531798D01*
X122620100Y-88532400D01*
X122120100Y-88532400D01*
X122120100Y-88531798D01*
X122095566Y-88531798D01*
X122046735Y-88526988D01*
X121998610Y-88517416D01*
X121951655Y-88503172D01*
X121906322Y-88484395D01*
X121863049Y-88461264D01*
X121822250Y-88434004D01*
X121784321Y-88402876D01*
X121749624Y-88368179D01*
X121718496Y-88330250D01*
X121691236Y-88289451D01*
X121668105Y-88246178D01*
X121649328Y-88200845D01*
X121635084Y-88153890D01*
X121625512Y-88105765D01*
X121620702Y-88056934D01*
X121620702Y-88032400D01*
X121620100Y-88032400D01*
X121620100Y-87532400D01*
X123120100Y-87532400D01*
G37*
%TD.AperFunction*%
%TD*%
%TO.P,R101,2*%
%TO.N,Net-(JP105-Pad1)*%
%TA.AperFunction,SMDPad,CuDef*%
G36*
G01*
X133130100Y-86447400D02*
X133130100Y-86817400D01*
G75*
G02*
X132995100Y-86952400I-135000J0D01*
G01*
X132725100Y-86952400D01*
G75*
G02*
X132590100Y-86817400I0J135000D01*
G01*
X132590100Y-86447400D01*
G75*
G02*
X132725100Y-86312400I135000J0D01*
G01*
X132995100Y-86312400D01*
G75*
G02*
X133130100Y-86447400I0J-135000D01*
G01*
G37*
%TD.AperFunction*%
%TO.P,R101,1*%
%TO.N,+3V3*%
%TA.AperFunction,SMDPad,CuDef*%
G36*
G01*
X134150100Y-86447400D02*
X134150100Y-86817400D01*
G75*
G02*
X134015100Y-86952400I-135000J0D01*
G01*
X133745100Y-86952400D01*
G75*
G02*
X133610100Y-86817400I0J135000D01*
G01*
X133610100Y-86447400D01*
G75*
G02*
X133745100Y-86312400I135000J0D01*
G01*
X134015100Y-86312400D01*
G75*
G02*
X134150100Y-86447400I0J-135000D01*
G01*
G37*
%TD.AperFunction*%
%TD*%
%TO.P,R102,1*%
%TO.N,+3V3*%
%TA.AperFunction,SMDPad,CuDef*%
G36*
G01*
X134150100Y-87697400D02*
X134150100Y-88067400D01*
G75*
G02*
X134015100Y-88202400I-135000J0D01*
G01*
X133745100Y-88202400D01*
G75*
G02*
X133610100Y-88067400I0J135000D01*
G01*
X133610100Y-87697400D01*
G75*
G02*
X133745100Y-87562400I135000J0D01*
G01*
X134015100Y-87562400D01*
G75*
G02*
X134150100Y-87697400I0J-135000D01*
G01*
G37*
%TD.AperFunction*%
%TO.P,R102,2*%
%TO.N,Net-(JP106-Pad1)*%
%TA.AperFunction,SMDPad,CuDef*%
G36*
G01*
X133130100Y-87697400D02*
X133130100Y-88067400D01*
G75*
G02*
X132995100Y-88202400I-135000J0D01*
G01*
X132725100Y-88202400D01*
G75*
G02*
X132590100Y-88067400I0J135000D01*
G01*
X132590100Y-87697400D01*
G75*
G02*
X132725100Y-87562400I135000J0D01*
G01*
X132995100Y-87562400D01*
G75*
G02*
X133130100Y-87697400I0J-135000D01*
G01*
G37*
%TD.AperFunction*%
%TD*%
%TO.P,R103,2*%
%TO.N,Net-(JP107-Pad1)*%
%TA.AperFunction,SMDPad,CuDef*%
G36*
G01*
X133130100Y-88947400D02*
X133130100Y-89317400D01*
G75*
G02*
X132995100Y-89452400I-135000J0D01*
G01*
X132725100Y-89452400D01*
G75*
G02*
X132590100Y-89317400I0J135000D01*
G01*
X132590100Y-88947400D01*
G75*
G02*
X132725100Y-88812400I135000J0D01*
G01*
X132995100Y-88812400D01*
G75*
G02*
X133130100Y-88947400I0J-135000D01*
G01*
G37*
%TD.AperFunction*%
%TO.P,R103,1*%
%TO.N,+3V3*%
%TA.AperFunction,SMDPad,CuDef*%
G36*
G01*
X134150100Y-88947400D02*
X134150100Y-89317400D01*
G75*
G02*
X134015100Y-89452400I-135000J0D01*
G01*
X133745100Y-89452400D01*
G75*
G02*
X133610100Y-89317400I0J135000D01*
G01*
X133610100Y-88947400D01*
G75*
G02*
X133745100Y-88812400I135000J0D01*
G01*
X134015100Y-88812400D01*
G75*
G02*
X134150100Y-88947400I0J-135000D01*
G01*
G37*
%TD.AperFunction*%
%TD*%
%TO.P,R104,1*%
%TO.N,+3V3*%
%TA.AperFunction,SMDPad,CuDef*%
G36*
G01*
X122555100Y-91162400D02*
X122185100Y-91162400D01*
G75*
G02*
X122050100Y-91027400I0J135000D01*
G01*
X122050100Y-90757400D01*
G75*
G02*
X122185100Y-90622400I135000J0D01*
G01*
X122555100Y-90622400D01*
G75*
G02*
X122690100Y-90757400I0J-135000D01*
G01*
X122690100Y-91027400D01*
G75*
G02*
X122555100Y-91162400I-135000J0D01*
G01*
G37*
%TD.AperFunction*%
%TO.P,R104,2*%
%TO.N,Net-(JP108-Pad1)*%
%TA.AperFunction,SMDPad,CuDef*%
G36*
G01*
X122555100Y-90142400D02*
X122185100Y-90142400D01*
G75*
G02*
X122050100Y-90007400I0J135000D01*
G01*
X122050100Y-89737400D01*
G75*
G02*
X122185100Y-89602400I135000J0D01*
G01*
X122555100Y-89602400D01*
G75*
G02*
X122690100Y-89737400I0J-135000D01*
G01*
X122690100Y-90007400D01*
G75*
G02*
X122555100Y-90142400I-135000J0D01*
G01*
G37*
%TD.AperFunction*%
%TD*%
D13*
%TO.P,SW101,2*%
%TO.N,GNDD*%
X159870100Y-72382400D03*
%TO.P,SW101,1*%
%TO.N,SYS_RESETN*%
X155370100Y-72382400D03*
%TO.P,SW101,2*%
%TO.N,GNDD*%
X159870100Y-65882400D03*
%TO.P,SW101,1*%
%TO.N,SYS_RESETN*%
X155370100Y-65882400D03*
%TD*%
%TO.P,SW102,1*%
%TO.N,PWR_BUT*%
X125370100Y-65882400D03*
%TO.P,SW102,2*%
%TO.N,GNDD*%
X129870100Y-65882400D03*
%TO.P,SW102,1*%
%TO.N,PWR_BUT*%
X125370100Y-72382400D03*
%TO.P,SW102,2*%
%TO.N,GNDD*%
X129870100Y-72382400D03*
%TD*%
%TO.P,U103,1*%
%TO.N,Net-(JP107-Pad1)*%
%TA.AperFunction,SMDPad,CuDef*%
G36*
G01*
X131820100Y-89137400D02*
X131820100Y-89437400D01*
G75*
G02*
X131670100Y-89587400I-150000J0D01*
G01*
X130020100Y-89587400D01*
G75*
G02*
X129870100Y-89437400I0J150000D01*
G01*
X129870100Y-89137400D01*
G75*
G02*
X130020100Y-88987400I150000J0D01*
G01*
X131670100Y-88987400D01*
G75*
G02*
X131820100Y-89137400I0J-150000D01*
G01*
G37*
%TD.AperFunction*%
%TO.P,U103,2*%
%TO.N,Net-(JP106-Pad1)*%
%TA.AperFunction,SMDPad,CuDef*%
G36*
G01*
X131820100Y-87867400D02*
X131820100Y-88167400D01*
G75*
G02*
X131670100Y-88317400I-150000J0D01*
G01*
X130020100Y-88317400D01*
G75*
G02*
X129870100Y-88167400I0J150000D01*
G01*
X129870100Y-87867400D01*
G75*
G02*
X130020100Y-87717400I150000J0D01*
G01*
X131670100Y-87717400D01*
G75*
G02*
X131820100Y-87867400I0J-150000D01*
G01*
G37*
%TD.AperFunction*%
%TO.P,U103,3*%
%TO.N,Net-(JP105-Pad1)*%
%TA.AperFunction,SMDPad,CuDef*%
G36*
G01*
X131820100Y-86597400D02*
X131820100Y-86897400D01*
G75*
G02*
X131670100Y-87047400I-150000J0D01*
G01*
X130020100Y-87047400D01*
G75*
G02*
X129870100Y-86897400I0J150000D01*
G01*
X129870100Y-86597400D01*
G75*
G02*
X130020100Y-86447400I150000J0D01*
G01*
X131670100Y-86447400D01*
G75*
G02*
X131820100Y-86597400I0J-150000D01*
G01*
G37*
%TD.AperFunction*%
%TO.P,U103,4*%
%TO.N,GNDD*%
%TA.AperFunction,SMDPad,CuDef*%
G36*
G01*
X131820100Y-85327400D02*
X131820100Y-85627400D01*
G75*
G02*
X131670100Y-85777400I-150000J0D01*
G01*
X130020100Y-85777400D01*
G75*
G02*
X129870100Y-85627400I0J150000D01*
G01*
X129870100Y-85327400D01*
G75*
G02*
X130020100Y-85177400I150000J0D01*
G01*
X131670100Y-85177400D01*
G75*
G02*
X131820100Y-85327400I0J-150000D01*
G01*
G37*
%TD.AperFunction*%
%TO.P,U103,5*%
%TO.N,/SDA*%
%TA.AperFunction,SMDPad,CuDef*%
G36*
G01*
X126870100Y-85327400D02*
X126870100Y-85627400D01*
G75*
G02*
X126720100Y-85777400I-150000J0D01*
G01*
X125070100Y-85777400D01*
G75*
G02*
X124920100Y-85627400I0J150000D01*
G01*
X124920100Y-85327400D01*
G75*
G02*
X125070100Y-85177400I150000J0D01*
G01*
X126720100Y-85177400D01*
G75*
G02*
X126870100Y-85327400I0J-150000D01*
G01*
G37*
%TD.AperFunction*%
%TO.P,U103,6*%
%TO.N,/SCL*%
%TA.AperFunction,SMDPad,CuDef*%
G36*
G01*
X126870100Y-86597400D02*
X126870100Y-86897400D01*
G75*
G02*
X126720100Y-87047400I-150000J0D01*
G01*
X125070100Y-87047400D01*
G75*
G02*
X124920100Y-86897400I0J150000D01*
G01*
X124920100Y-86597400D01*
G75*
G02*
X125070100Y-86447400I150000J0D01*
G01*
X126720100Y-86447400D01*
G75*
G02*
X126870100Y-86597400I0J-150000D01*
G01*
G37*
%TD.AperFunction*%
%TO.P,U103,7*%
%TO.N,Net-(JP108-Pad1)*%
%TA.AperFunction,SMDPad,CuDef*%
G36*
G01*
X126870100Y-87867400D02*
X126870100Y-88167400D01*
G75*
G02*
X126720100Y-88317400I-150000J0D01*
G01*
X125070100Y-88317400D01*
G75*
G02*
X124920100Y-88167400I0J150000D01*
G01*
X124920100Y-87867400D01*
G75*
G02*
X125070100Y-87717400I150000J0D01*
G01*
X126720100Y-87717400D01*
G75*
G02*
X126870100Y-87867400I0J-150000D01*
G01*
G37*
%TD.AperFunction*%
%TO.P,U103,8*%
%TO.N,+3V3*%
%TA.AperFunction,SMDPad,CuDef*%
G36*
G01*
X126870100Y-89137400D02*
X126870100Y-89437400D01*
G75*
G02*
X126720100Y-89587400I-150000J0D01*
G01*
X125070100Y-89587400D01*
G75*
G02*
X124920100Y-89437400I0J150000D01*
G01*
X124920100Y-89137400D01*
G75*
G02*
X125070100Y-88987400I150000J0D01*
G01*
X126720100Y-88987400D01*
G75*
G02*
X126870100Y-89137400I0J-150000D01*
G01*
G37*
%TD.AperFunction*%
%TD*%
D14*
%TO.P,D114,1*%
%TO.N,Net-(D114-Pad1)*%
X131620100Y-47132400D03*
D15*
%TO.P,D114,2*%
%TO.N,Net-(D114-Pad2)*%
X121460100Y-47132400D03*
%TD*%
D14*
%TO.P,J102,1*%
%TO.N,GNDD*%
X118370100Y-53632400D03*
D16*
%TO.P,J102,2*%
%TO.N,Net-(D114-Pad2)*%
X118370100Y-56172400D03*
%TD*%
D13*
%TO.P,U104,1*%
%TO.N,Net-(D114-Pad1)*%
X126080100Y-57132400D03*
%TO.P,U104,2*%
%TO.N,GNDD*%
X128620100Y-57132400D03*
%TO.P,U104,3*%
%TO.N,+5V*%
X131160100Y-57132400D03*
%TD*%
D17*
%TO.P,D101,2*%
%TO.N,+3V3*%
X135370100Y-66842400D03*
D18*
%TO.P,D101,1*%
%TO.N,Net-(D101-Pad1)*%
X135370100Y-69382400D03*
%TD*%
%TO.P,D102,1*%
%TO.N,Net-(D102-Pad1)*%
X140370100Y-69382400D03*
D17*
%TO.P,D102,2*%
%TO.N,+3V3*%
X140370100Y-66842400D03*
%TD*%
%TO.P,D103,2*%
%TO.N,+3V3*%
X145370100Y-66842400D03*
D18*
%TO.P,D103,1*%
%TO.N,Net-(D103-Pad1)*%
X145370100Y-69382400D03*
%TD*%
%TO.P,D104,1*%
%TO.N,Net-(D104-Pad1)*%
X150370100Y-69382400D03*
D17*
%TO.P,D104,2*%
%TO.N,+3V3*%
X150370100Y-66842400D03*
%TD*%
D19*
%TO.P,J101,1*%
%TO.N,Net-(J101-Pad1)*%
X130370100Y-119382400D03*
D20*
%TO.P,J101,2*%
%TO.N,Net-(J101-Pad2)*%
X135370100Y-119382400D03*
%TD*%
%TO.P,J103,2*%
%TO.N,Net-(J103-Pad2)*%
X152370100Y-119382400D03*
D19*
%TO.P,J103,1*%
%TO.N,Net-(J103-Pad1)*%
X147370100Y-119382400D03*
%TD*%
D21*
%TO.P,R105,1*%
%TO.N,Net-(D101-Pad1)*%
X135370100Y-72382400D03*
D22*
%TO.P,R105,2*%
%TO.N,/LED0*%
X135370100Y-80002400D03*
%TD*%
%TO.P,R106,2*%
%TO.N,/LED1*%
X140370100Y-80002400D03*
D21*
%TO.P,R106,1*%
%TO.N,Net-(D102-Pad1)*%
X140370100Y-72382400D03*
%TD*%
%TO.P,R107,1*%
%TO.N,Net-(D103-Pad1)*%
X145370100Y-72382400D03*
D22*
%TO.P,R107,2*%
%TO.N,/LED2*%
X145370100Y-80002400D03*
%TD*%
%TO.P,R108,2*%
%TO.N,/LED3*%
X150370100Y-80002400D03*
D21*
%TO.P,R108,1*%
%TO.N,Net-(D104-Pad1)*%
X150370100Y-72382400D03*
%TD*%
%TO.P,R109,1*%
%TO.N,+3V3*%
X140370100Y-89382400D03*
D22*
%TO.P,R109,2*%
%TO.N,/IN0*%
X140370100Y-97002400D03*
%TD*%
%TO.P,R110,2*%
%TO.N,/IN1*%
X144370100Y-97002400D03*
D21*
%TO.P,R110,1*%
%TO.N,+3V3*%
X144370100Y-89382400D03*
%TD*%
%TO.P,R111,1*%
%TO.N,Net-(R111-Pad1)*%
X129370100Y-111382400D03*
D22*
%TO.P,R111,2*%
%TO.N,Net-(J101-Pad2)*%
X136990100Y-111382400D03*
%TD*%
%TO.P,R112,2*%
%TO.N,Net-(J103-Pad2)*%
X153990100Y-111382400D03*
D21*
%TO.P,R112,1*%
%TO.N,Net-(R112-Pad1)*%
X146370100Y-111382400D03*
%TD*%
D14*
%TO.P,J104,1*%
%TO.N,+5V*%
X156870100Y-51842400D03*
D16*
%TO.P,J104,2*%
%TO.N,/PIR0*%
X156870100Y-54382400D03*
%TO.P,J104,3*%
%TO.N,GNDD*%
X156870100Y-56922400D03*
%TD*%
%TO.P,J105,3*%
%TO.N,GNDD*%
X165370100Y-51802400D03*
%TO.P,J105,2*%
%TO.N,/PIR1*%
X165370100Y-54342400D03*
D14*
%TO.P,J105,1*%
%TO.N,+5V*%
X165370100Y-56882400D03*
%TD*%
D23*
%TO.P,U101,1*%
%TO.N,Net-(R111-Pad1)*%
X138370100Y-107382400D03*
D22*
%TO.P,U101,5*%
%TO.N,GNDD*%
X145990100Y-99762400D03*
%TO.P,U101,2*%
%TO.N,Net-(J101-Pad1)*%
X140910100Y-107382400D03*
%TO.P,U101,6*%
%TO.N,/IN1*%
X143450100Y-99762400D03*
%TO.P,U101,3*%
%TO.N,Net-(R112-Pad1)*%
X143450100Y-107382400D03*
%TO.P,U101,7*%
%TO.N,/IN0*%
X140910100Y-99762400D03*
%TO.P,U101,4*%
%TO.N,Net-(J103-Pad1)*%
X145990100Y-107382400D03*
%TO.P,U101,8*%
%TO.N,+5V*%
X138370100Y-99762400D03*
%TD*%
D24*
%TO.N,GNDD*%
X123870100Y-86882400D03*
X128370100Y-85382400D03*
X128370100Y-86882400D03*
%TO.N,+3V3*%
X127370100Y-84882400D03*
%TD*%
D25*
%TO.N,GNDD*%
X129165099Y-57207401D02*
X129235101Y-57207401D01*
%TO.N,+3V3*%
X122370100Y-90892400D02*
X125110100Y-90892400D01*
X133880100Y-87882400D02*
X133880100Y-89132400D01*
X116370100Y-64922400D02*
X118910100Y-64922400D01*
X127215100Y-89287400D02*
X127370100Y-89132400D01*
X125895100Y-89287400D02*
X127215100Y-89287400D01*
X125895100Y-90127400D02*
X125120100Y-90902400D01*
X125895100Y-89287400D02*
X125895100Y-90127400D01*
X134130100Y-89382400D02*
X133880100Y-89132400D01*
X144370100Y-89382400D02*
X134130100Y-89382400D01*
X127370100Y-84882400D02*
X127370100Y-89132400D01*
X133880100Y-86505070D02*
X133880100Y-87392400D01*
X131957431Y-84582401D02*
X133880100Y-86505070D01*
X127670099Y-84582401D02*
X131957431Y-84582401D01*
X127370100Y-84882400D02*
X127670099Y-84582401D01*
X133880100Y-87392400D02*
X133880100Y-87882400D01*
X133880100Y-86632400D02*
X133880100Y-87392400D01*
%TO.N,+5V*%
X116370100Y-67462400D02*
X118910100Y-67462400D01*
X123860101Y-64432399D02*
X131160100Y-57132400D01*
X121940101Y-64432399D02*
X123860101Y-64432399D01*
X118910100Y-67462400D02*
X121940101Y-64432399D01*
X158420101Y-53392401D02*
X156870100Y-51842400D01*
X158420101Y-59705605D02*
X158420101Y-53392401D01*
X153387026Y-64738680D02*
X158420101Y-59705605D01*
X134226380Y-64738680D02*
X153387026Y-64738680D01*
X131160100Y-61672400D02*
X134226380Y-64738680D01*
X131160100Y-57132400D02*
X131160100Y-61672400D01*
X161243306Y-56882400D02*
X153387026Y-64738680D01*
X165370100Y-56882400D02*
X161243306Y-56882400D01*
%TO.N,SYS_5V*%
X116370100Y-70002400D02*
X118910100Y-70002400D01*
%TO.N,PWR_BUT*%
X125370100Y-65882400D02*
X125370100Y-72382400D01*
D26*
X124341499Y-71353799D02*
X125370100Y-72382400D01*
X117558701Y-71353799D02*
X124341499Y-71353799D01*
X116370100Y-72542400D02*
X117558701Y-71353799D01*
D25*
%TO.N,SYS_RESETN*%
X155370100Y-65882400D02*
X155370100Y-72382400D01*
D26*
X154045099Y-73707401D02*
X155370100Y-72382400D01*
X120075101Y-73707401D02*
X154045099Y-73707401D01*
X118910100Y-72542400D02*
X120075101Y-73707401D01*
D25*
%TO.N,Net-(J101-Pad1)*%
X139660099Y-108632401D02*
X140910100Y-107382400D01*
X137890097Y-108632401D02*
X139660099Y-108632401D01*
X130370100Y-116152398D02*
X137890097Y-108632401D01*
X130370100Y-119382400D02*
X130370100Y-116152398D01*
%TO.N,Net-(J101-Pad2)*%
X136990100Y-117762400D02*
X135370100Y-119382400D01*
X136990100Y-111382400D02*
X136990100Y-117762400D01*
%TO.N,Net-(JP105-Pad1)*%
X132745100Y-86747400D02*
X132860100Y-86632400D01*
X130845100Y-86747400D02*
X132745100Y-86747400D01*
X128370100Y-88247400D02*
X128370100Y-91732400D01*
X129870100Y-86747400D02*
X128370100Y-88247400D01*
X130845100Y-86747400D02*
X129870100Y-86747400D01*
%TO.N,Net-(JP106-Pad1)*%
X132725100Y-88017400D02*
X132860100Y-87882400D01*
X130845100Y-88017400D02*
X132725100Y-88017400D01*
X129420090Y-89782390D02*
X131370100Y-91732400D01*
X129420090Y-88467410D02*
X129420090Y-89782390D01*
X129870100Y-88017400D02*
X129420090Y-88467410D01*
X130845100Y-88017400D02*
X129870100Y-88017400D01*
%TO.N,Net-(JP107-Pad1)*%
X132705100Y-89287400D02*
X132860100Y-89132400D01*
X130845100Y-89287400D02*
X132705100Y-89287400D01*
X132860100Y-90222400D02*
X134370100Y-91732400D01*
X132860100Y-89132400D02*
X132860100Y-90222400D01*
%TO.N,Net-(JP108-Pad1)*%
X122370100Y-88032400D02*
X122370100Y-89872400D01*
X122385100Y-88017400D02*
X122370100Y-88032400D01*
X125895100Y-88017400D02*
X122385100Y-88017400D01*
D26*
%TO.N,/SCL*%
X124920100Y-86747400D02*
X125895100Y-86747400D01*
X124080090Y-85907390D02*
X124920100Y-86747400D01*
X121781772Y-85907390D02*
X124080090Y-85907390D01*
X121258161Y-86431001D02*
X121781772Y-85907390D01*
X117558701Y-86431001D02*
X121258161Y-86431001D01*
X116370100Y-85242400D02*
X117558701Y-86431001D01*
%TO.N,/SDA*%
X125660100Y-85242400D02*
X125895100Y-85477400D01*
X118910100Y-85242400D02*
X125660100Y-85242400D01*
D25*
%TO.N,Net-(D101-Pad1)*%
X135370100Y-69382400D02*
X135370100Y-72382400D01*
%TO.N,Net-(D102-Pad1)*%
X140370100Y-69382400D02*
X140370100Y-72382400D01*
%TO.N,Net-(D103-Pad1)*%
X145370100Y-69382400D02*
X145370100Y-72382400D01*
%TO.N,Net-(D104-Pad1)*%
X150370100Y-69382400D02*
X150370100Y-72382400D01*
%TO.N,/LED0*%
X141090089Y-74282411D02*
X135370100Y-80002400D01*
X160350089Y-74282411D02*
X141090089Y-74282411D01*
X164630100Y-70002400D02*
X160350089Y-74282411D01*
%TO.N,/LED1*%
X145390079Y-74982421D02*
X140370100Y-80002400D01*
X162190079Y-74982421D02*
X145390079Y-74982421D01*
X164630100Y-72542400D02*
X162190079Y-74982421D01*
%TO.N,/LED2*%
X148450110Y-76922390D02*
X145370100Y-80002400D01*
X162790110Y-76922390D02*
X148450110Y-76922390D01*
X164630100Y-75082400D02*
X162790110Y-76922390D01*
%TO.N,/LED3*%
X152750100Y-77622400D02*
X150370100Y-80002400D01*
X164630100Y-77622400D02*
X152750100Y-77622400D01*
%TO.N,Net-(D114-Pad1)*%
X131620100Y-51592400D02*
X126080100Y-57132400D01*
X131620100Y-47132400D02*
X131620100Y-51592400D01*
%TO.N,Net-(D114-Pad2)*%
X121460100Y-54638034D02*
X121460100Y-47132400D01*
X119925734Y-56172400D02*
X121460100Y-54638034D01*
X118370100Y-56172400D02*
X119925734Y-56172400D01*
%TO.N,Net-(J103-Pad2)*%
X153990100Y-117762400D02*
X152370100Y-119382400D01*
X153990100Y-111382400D02*
X153990100Y-117762400D01*
%TO.N,Net-(J103-Pad1)*%
X147620101Y-119132399D02*
X147370100Y-119382400D01*
X147620101Y-109012401D02*
X147620101Y-119132399D01*
X145990100Y-107382400D02*
X147620101Y-109012401D01*
%TO.N,/IN0*%
X140370100Y-99222400D02*
X140910100Y-99762400D01*
X140370100Y-97002400D02*
X140370100Y-99222400D01*
D26*
X158398701Y-78973799D02*
X140370100Y-97002400D01*
X165037831Y-78973799D02*
X158398701Y-78973799D01*
X165818701Y-78192929D02*
X165037831Y-78973799D01*
X165818701Y-76433799D02*
X165818701Y-78192929D01*
X167170100Y-75082400D02*
X165818701Y-76433799D01*
D25*
%TO.N,/IN1*%
X144370100Y-98842400D02*
X143450100Y-99762400D01*
X144370100Y-97002400D02*
X144370100Y-98842400D01*
D26*
X165037831Y-81513799D02*
X159858701Y-81513799D01*
X159858701Y-81513799D02*
X144370100Y-97002400D01*
X165818701Y-80732929D02*
X165037831Y-81513799D01*
X165818701Y-78973799D02*
X165818701Y-80732929D01*
X167170100Y-77622400D02*
X165818701Y-78973799D01*
D25*
%TO.N,Net-(R111-Pad1)*%
X133370100Y-107382400D02*
X129370100Y-111382400D01*
X138370100Y-107382400D02*
X133370100Y-107382400D01*
%TO.N,Net-(R112-Pad1)*%
X146370100Y-110302400D02*
X146370100Y-111382400D01*
X143450100Y-107382400D02*
X146370100Y-110302400D01*
%TD*%
D27*
%TO.N,GNDD*%
X135546539Y-78574383D02*
X135511435Y-78567400D01*
X135228765Y-78567400D01*
X134951526Y-78622547D01*
X134690373Y-78730720D01*
X134455341Y-78887763D01*
X134255463Y-79087641D01*
X134098420Y-79322673D01*
X133990247Y-79583826D01*
X133935100Y-79861065D01*
X133935100Y-80143735D01*
X133990247Y-80420974D01*
X134098420Y-80682127D01*
X134255463Y-80917159D01*
X134455341Y-81117037D01*
X134690373Y-81274080D01*
X134951526Y-81382253D01*
X135228765Y-81437400D01*
X135511435Y-81437400D01*
X135788674Y-81382253D01*
X136049827Y-81274080D01*
X136284859Y-81117037D01*
X136484737Y-80917159D01*
X136641780Y-80682127D01*
X136749953Y-80420974D01*
X136805100Y-80143735D01*
X136805100Y-79861065D01*
X136798117Y-79825961D01*
X141456668Y-75167411D01*
X143953510Y-75167411D01*
X140546539Y-78574383D01*
X140511435Y-78567400D01*
X140228765Y-78567400D01*
X139951526Y-78622547D01*
X139690373Y-78730720D01*
X139455341Y-78887763D01*
X139255463Y-79087641D01*
X139098420Y-79322673D01*
X138990247Y-79583826D01*
X138935100Y-79861065D01*
X138935100Y-80143735D01*
X138990247Y-80420974D01*
X139098420Y-80682127D01*
X139255463Y-80917159D01*
X139455341Y-81117037D01*
X139690373Y-81274080D01*
X139951526Y-81382253D01*
X140228765Y-81437400D01*
X140511435Y-81437400D01*
X140788674Y-81382253D01*
X141049827Y-81274080D01*
X141284859Y-81117037D01*
X141484737Y-80917159D01*
X141641780Y-80682127D01*
X141749953Y-80420974D01*
X141805100Y-80143735D01*
X141805100Y-79861065D01*
X141798117Y-79825961D01*
X145756658Y-75867421D01*
X162146610Y-75867421D01*
X162190079Y-75871702D01*
X162233548Y-75867421D01*
X162233556Y-75867421D01*
X162363569Y-75854616D01*
X162530392Y-75804010D01*
X162684138Y-75721832D01*
X162818896Y-75611238D01*
X162846613Y-75577465D01*
X163141883Y-75282196D01*
X163147995Y-75312926D01*
X162423532Y-76037390D01*
X148493579Y-76037390D01*
X148450110Y-76033109D01*
X148406641Y-76037390D01*
X148406633Y-76037390D01*
X148291416Y-76048738D01*
X148276619Y-76050195D01*
X148226013Y-76065547D01*
X148109797Y-76100801D01*
X147959024Y-76181390D01*
X147956051Y-76182979D01*
X147855063Y-76265858D01*
X147855061Y-76265860D01*
X147821293Y-76293573D01*
X147793580Y-76327341D01*
X145546539Y-78574383D01*
X145511435Y-78567400D01*
X145228765Y-78567400D01*
X144951526Y-78622547D01*
X144690373Y-78730720D01*
X144455341Y-78887763D01*
X144255463Y-79087641D01*
X144098420Y-79322673D01*
X143990247Y-79583826D01*
X143935100Y-79861065D01*
X143935100Y-80143735D01*
X143990247Y-80420974D01*
X144098420Y-80682127D01*
X144255463Y-80917159D01*
X144455341Y-81117037D01*
X144690373Y-81274080D01*
X144951526Y-81382253D01*
X145228765Y-81437400D01*
X145511435Y-81437400D01*
X145788674Y-81382253D01*
X146049827Y-81274080D01*
X146284859Y-81117037D01*
X146484737Y-80917159D01*
X146641780Y-80682127D01*
X146749953Y-80420974D01*
X146805100Y-80143735D01*
X146805100Y-79861065D01*
X146798117Y-79825961D01*
X148816689Y-77807390D01*
X151313531Y-77807390D01*
X150546539Y-78574383D01*
X150511435Y-78567400D01*
X150228765Y-78567400D01*
X149951526Y-78622547D01*
X149690373Y-78730720D01*
X149455341Y-78887763D01*
X149255463Y-79087641D01*
X149098420Y-79322673D01*
X148990247Y-79583826D01*
X148935100Y-79861065D01*
X148935100Y-80143735D01*
X148990247Y-80420974D01*
X149098420Y-80682127D01*
X149255463Y-80917159D01*
X149455341Y-81117037D01*
X149690373Y-81274080D01*
X149951526Y-81382253D01*
X150228765Y-81437400D01*
X150511435Y-81437400D01*
X150788674Y-81382253D01*
X151049827Y-81274080D01*
X151284859Y-81117037D01*
X151484737Y-80917159D01*
X151641780Y-80682127D01*
X151749953Y-80420974D01*
X151805100Y-80143735D01*
X151805100Y-79861065D01*
X151798117Y-79825961D01*
X153116679Y-78507400D01*
X157790298Y-78507400D01*
X140693987Y-95603712D01*
X140511435Y-95567400D01*
X140228765Y-95567400D01*
X139951526Y-95622547D01*
X139690373Y-95730720D01*
X139455341Y-95887763D01*
X139255463Y-96087641D01*
X139098420Y-96322673D01*
X138990247Y-96583826D01*
X138935100Y-96861065D01*
X138935100Y-97143735D01*
X138990247Y-97420974D01*
X139098420Y-97682127D01*
X139255463Y-97917159D01*
X139455341Y-98117037D01*
X139485101Y-98136922D01*
X139485101Y-98848185D01*
X139484737Y-98847641D01*
X139284859Y-98647763D01*
X139049827Y-98490720D01*
X138788674Y-98382547D01*
X138511435Y-98327400D01*
X138228765Y-98327400D01*
X137951526Y-98382547D01*
X137690373Y-98490720D01*
X137455341Y-98647763D01*
X137255463Y-98847641D01*
X137098420Y-99082673D01*
X136990247Y-99343826D01*
X136935100Y-99621065D01*
X136935100Y-99903735D01*
X136990247Y-100180974D01*
X137098420Y-100442127D01*
X137255463Y-100677159D01*
X137455341Y-100877037D01*
X137690373Y-101034080D01*
X137951526Y-101142253D01*
X138228765Y-101197400D01*
X138511435Y-101197400D01*
X138788674Y-101142253D01*
X139049827Y-101034080D01*
X139284859Y-100877037D01*
X139484737Y-100677159D01*
X139640100Y-100444641D01*
X139795463Y-100677159D01*
X139995341Y-100877037D01*
X140230373Y-101034080D01*
X140491526Y-101142253D01*
X140768765Y-101197400D01*
X141051435Y-101197400D01*
X141328674Y-101142253D01*
X141589827Y-101034080D01*
X141824859Y-100877037D01*
X142024737Y-100677159D01*
X142180100Y-100444641D01*
X142335463Y-100677159D01*
X142535341Y-100877037D01*
X142770373Y-101034080D01*
X143031526Y-101142253D01*
X143308765Y-101197400D01*
X143591435Y-101197400D01*
X143868674Y-101142253D01*
X144129827Y-101034080D01*
X144364859Y-100877037D01*
X144564737Y-100677159D01*
X144721780Y-100442127D01*
X144726167Y-100431535D01*
X144837715Y-100617531D01*
X145026686Y-100825919D01*
X145252680Y-100993437D01*
X145507013Y-101113646D01*
X145641061Y-101154304D01*
X145863100Y-101032315D01*
X145863100Y-99889400D01*
X146117100Y-99889400D01*
X146117100Y-101032315D01*
X146339139Y-101154304D01*
X146473187Y-101113646D01*
X146727520Y-100993437D01*
X146953514Y-100825919D01*
X147142485Y-100617531D01*
X147287170Y-100376281D01*
X147382009Y-100111440D01*
X147260724Y-99889400D01*
X146117100Y-99889400D01*
X145863100Y-99889400D01*
X145843100Y-99889400D01*
X145843100Y-99635400D01*
X145863100Y-99635400D01*
X145863100Y-98492485D01*
X146117100Y-98492485D01*
X146117100Y-99635400D01*
X147260724Y-99635400D01*
X147382009Y-99413360D01*
X147287170Y-99148519D01*
X147142485Y-98907269D01*
X146953514Y-98698881D01*
X146727520Y-98531363D01*
X146473187Y-98411154D01*
X146339139Y-98370496D01*
X146117100Y-98492485D01*
X145863100Y-98492485D01*
X145641061Y-98370496D01*
X145507013Y-98411154D01*
X145255100Y-98530219D01*
X145255100Y-98136921D01*
X145284859Y-98117037D01*
X145484737Y-97917159D01*
X145641780Y-97682127D01*
X145749953Y-97420974D01*
X145805100Y-97143735D01*
X145805100Y-96861065D01*
X145768788Y-96678513D01*
X160173503Y-82273799D01*
X163187394Y-82273799D01*
X163131500Y-82554801D01*
X163131500Y-82849999D01*
X163189090Y-83139525D01*
X163302058Y-83412253D01*
X163466061Y-83657702D01*
X163674798Y-83866439D01*
X163833381Y-83972400D01*
X163674798Y-84078361D01*
X163466061Y-84287098D01*
X163302058Y-84532547D01*
X163189090Y-84805275D01*
X163131500Y-85094801D01*
X163131500Y-85389999D01*
X163189090Y-85679525D01*
X163302058Y-85952253D01*
X163466061Y-86197702D01*
X163674798Y-86406439D01*
X163833381Y-86512400D01*
X163674798Y-86618361D01*
X163466061Y-86827098D01*
X163302058Y-87072547D01*
X163189090Y-87345275D01*
X163131500Y-87634801D01*
X163131500Y-87929999D01*
X163189090Y-88219525D01*
X163302058Y-88492253D01*
X163466061Y-88737702D01*
X163674798Y-88946439D01*
X163833381Y-89052400D01*
X163674798Y-89158361D01*
X163466061Y-89367098D01*
X163302058Y-89612547D01*
X163189090Y-89885275D01*
X163131500Y-90174801D01*
X163131500Y-90469999D01*
X163189090Y-90759525D01*
X163302058Y-91032253D01*
X163466061Y-91277702D01*
X163674798Y-91486439D01*
X163833381Y-91592400D01*
X163674798Y-91698361D01*
X163466061Y-91907098D01*
X163302058Y-92152547D01*
X163189090Y-92425275D01*
X163131500Y-92714801D01*
X163131500Y-93009999D01*
X163189090Y-93299525D01*
X163302058Y-93572253D01*
X163466061Y-93817702D01*
X163674798Y-94026439D01*
X163833381Y-94132400D01*
X163674798Y-94238361D01*
X163466061Y-94447098D01*
X163302058Y-94692547D01*
X163189090Y-94965275D01*
X163131500Y-95254801D01*
X163131500Y-95549999D01*
X163189090Y-95839525D01*
X163302058Y-96112253D01*
X163466061Y-96357702D01*
X163674798Y-96566439D01*
X163833381Y-96672400D01*
X163674798Y-96778361D01*
X163466061Y-96987098D01*
X163302058Y-97232547D01*
X163189090Y-97505275D01*
X163131500Y-97794801D01*
X163131500Y-98089999D01*
X163189090Y-98379525D01*
X163302058Y-98652253D01*
X163466061Y-98897702D01*
X163674798Y-99106439D01*
X163833381Y-99212400D01*
X163674798Y-99318361D01*
X163466061Y-99527098D01*
X163302058Y-99772547D01*
X163189090Y-100045275D01*
X163131500Y-100334801D01*
X163131500Y-100629999D01*
X163189090Y-100919525D01*
X163302058Y-101192253D01*
X163466061Y-101437702D01*
X163674798Y-101646439D01*
X163833381Y-101752400D01*
X163674798Y-101858361D01*
X163466061Y-102067098D01*
X163302058Y-102312547D01*
X163189090Y-102585275D01*
X163131500Y-102874801D01*
X163131500Y-103169999D01*
X163189090Y-103459525D01*
X163302058Y-103732253D01*
X163466061Y-103977702D01*
X163674798Y-104186439D01*
X163833381Y-104292400D01*
X163674798Y-104398361D01*
X163466061Y-104607098D01*
X163302058Y-104852547D01*
X163189090Y-105125275D01*
X163131500Y-105414801D01*
X163131500Y-105709999D01*
X163189090Y-105999525D01*
X163302058Y-106272253D01*
X163466061Y-106517702D01*
X163674798Y-106726439D01*
X163833381Y-106832400D01*
X163674798Y-106938361D01*
X163466061Y-107147098D01*
X163302058Y-107392547D01*
X163189090Y-107665275D01*
X163131500Y-107954801D01*
X163131500Y-108249999D01*
X163189090Y-108539525D01*
X163302058Y-108812253D01*
X163466061Y-109057702D01*
X163674798Y-109266439D01*
X163833381Y-109372400D01*
X163674798Y-109478361D01*
X163466061Y-109687098D01*
X163302058Y-109932547D01*
X163189090Y-110205275D01*
X163131500Y-110494801D01*
X163131500Y-110789999D01*
X163189090Y-111079525D01*
X163302058Y-111352253D01*
X163466061Y-111597702D01*
X163674798Y-111806439D01*
X163833381Y-111912400D01*
X163674798Y-112018361D01*
X163466061Y-112227098D01*
X163302058Y-112472547D01*
X163189090Y-112745275D01*
X163131500Y-113034801D01*
X163131500Y-113329999D01*
X163189090Y-113619525D01*
X163302058Y-113892253D01*
X163466061Y-114137702D01*
X163674798Y-114346439D01*
X163833381Y-114452400D01*
X163674798Y-114558361D01*
X163466061Y-114767098D01*
X163302058Y-115012547D01*
X163189090Y-115285275D01*
X163131500Y-115574801D01*
X163131500Y-115869999D01*
X163189090Y-116159525D01*
X163302058Y-116432253D01*
X163466061Y-116677702D01*
X163674798Y-116886439D01*
X163833381Y-116992400D01*
X163674798Y-117098361D01*
X163466061Y-117307098D01*
X163302058Y-117552547D01*
X163189090Y-117825275D01*
X163131500Y-118114801D01*
X163131500Y-118409999D01*
X163189090Y-118699525D01*
X163302058Y-118972253D01*
X163466061Y-119217702D01*
X163674798Y-119426439D01*
X163920247Y-119590442D01*
X164192975Y-119703410D01*
X164482501Y-119761000D01*
X164777699Y-119761000D01*
X165067225Y-119703410D01*
X165339953Y-119590442D01*
X165585402Y-119426439D01*
X165794139Y-119217702D01*
X165900100Y-119059119D01*
X166006061Y-119217702D01*
X166214798Y-119426439D01*
X166460247Y-119590442D01*
X166732975Y-119703410D01*
X167022501Y-119761000D01*
X167317699Y-119761000D01*
X167607225Y-119703410D01*
X167879953Y-119590442D01*
X168000411Y-119509955D01*
X167766864Y-120324430D01*
X167253667Y-121569537D01*
X166604882Y-122749674D01*
X165828586Y-123850144D01*
X164934462Y-124857219D01*
X163933653Y-125758351D01*
X162838639Y-126542304D01*
X161663061Y-127199313D01*
X160421563Y-127721191D01*
X159129638Y-128101425D01*
X157803368Y-128335282D01*
X156442664Y-128420891D01*
X156374031Y-128421130D01*
X127182875Y-128421130D01*
X125820482Y-128344961D01*
X124492617Y-128120369D01*
X123198070Y-127749164D01*
X121952963Y-127235967D01*
X120772826Y-126587182D01*
X119672356Y-125810886D01*
X118665281Y-124916762D01*
X117764149Y-123915953D01*
X116980196Y-122820939D01*
X116323187Y-121645361D01*
X115801309Y-120403863D01*
X115535692Y-119501374D01*
X115734122Y-119619364D01*
X116011073Y-119717363D01*
X116243100Y-119596864D01*
X116243100Y-118389400D01*
X116497100Y-118389400D01*
X116497100Y-119596864D01*
X116729127Y-119717363D01*
X117006078Y-119619364D01*
X117258588Y-119469217D01*
X117476954Y-119272693D01*
X117640100Y-119054322D01*
X117803246Y-119272693D01*
X118021612Y-119469217D01*
X118274122Y-119619364D01*
X118551073Y-119717363D01*
X118783100Y-119596864D01*
X118783100Y-118389400D01*
X119037100Y-118389400D01*
X119037100Y-119596864D01*
X119269127Y-119717363D01*
X119546078Y-119619364D01*
X119798588Y-119469217D01*
X120016954Y-119272693D01*
X120192784Y-119037344D01*
X120319322Y-118772214D01*
X120365058Y-118621426D01*
X120243917Y-118389400D01*
X119037100Y-118389400D01*
X118783100Y-118389400D01*
X116497100Y-118389400D01*
X116243100Y-118389400D01*
X116223100Y-118389400D01*
X116223100Y-118135400D01*
X116243100Y-118135400D01*
X116243100Y-115849400D01*
X116497100Y-115849400D01*
X116497100Y-118135400D01*
X118783100Y-118135400D01*
X118783100Y-115849400D01*
X119037100Y-115849400D01*
X119037100Y-118135400D01*
X120243917Y-118135400D01*
X120365058Y-117903374D01*
X120319322Y-117752586D01*
X120192784Y-117487456D01*
X120016954Y-117252107D01*
X119798588Y-117055583D01*
X119692330Y-116992400D01*
X119798588Y-116929217D01*
X120016954Y-116732693D01*
X120192784Y-116497344D01*
X120319322Y-116232214D01*
X120365058Y-116081426D01*
X120243917Y-115849400D01*
X119037100Y-115849400D01*
X118783100Y-115849400D01*
X116497100Y-115849400D01*
X116243100Y-115849400D01*
X116223100Y-115849400D01*
X116223100Y-115595400D01*
X116243100Y-115595400D01*
X116243100Y-115575400D01*
X116497100Y-115575400D01*
X116497100Y-115595400D01*
X118783100Y-115595400D01*
X118783100Y-115575400D01*
X119037100Y-115575400D01*
X119037100Y-115595400D01*
X120243917Y-115595400D01*
X120365058Y-115363374D01*
X120319322Y-115212586D01*
X120192784Y-114947456D01*
X120016954Y-114712107D01*
X119798588Y-114515583D01*
X119699997Y-114456959D01*
X119865402Y-114346439D01*
X120074139Y-114137702D01*
X120238142Y-113892253D01*
X120351110Y-113619525D01*
X120408700Y-113329999D01*
X120408700Y-113034801D01*
X120351110Y-112745275D01*
X120238142Y-112472547D01*
X120074139Y-112227098D01*
X119865402Y-112018361D01*
X119706819Y-111912400D01*
X119865402Y-111806439D01*
X120074139Y-111597702D01*
X120238142Y-111352253D01*
X120284197Y-111241065D01*
X127935100Y-111241065D01*
X127935100Y-111523735D01*
X127990247Y-111800974D01*
X128098420Y-112062127D01*
X128255463Y-112297159D01*
X128455341Y-112497037D01*
X128690373Y-112654080D01*
X128951526Y-112762253D01*
X129228765Y-112817400D01*
X129511435Y-112817400D01*
X129788674Y-112762253D01*
X130049827Y-112654080D01*
X130284859Y-112497037D01*
X130484737Y-112297159D01*
X130641780Y-112062127D01*
X130749953Y-111800974D01*
X130805100Y-111523735D01*
X130805100Y-111241065D01*
X130798117Y-111205961D01*
X133736679Y-108267400D01*
X136940399Y-108267400D01*
X136944288Y-108306882D01*
X136948884Y-108322035D01*
X129775052Y-115495868D01*
X129741284Y-115523581D01*
X129713571Y-115557349D01*
X129713568Y-115557352D01*
X129630690Y-115658339D01*
X129548512Y-115812085D01*
X129497905Y-115978908D01*
X129480819Y-116152398D01*
X129485101Y-116195877D01*
X129485101Y-117259778D01*
X129375920Y-117292898D01*
X129265606Y-117351863D01*
X129168915Y-117431215D01*
X129089563Y-117527906D01*
X129030598Y-117638220D01*
X128994288Y-117757918D01*
X128982028Y-117882400D01*
X128982028Y-120882400D01*
X128994288Y-121006882D01*
X129030598Y-121126580D01*
X129089563Y-121236894D01*
X129168915Y-121333585D01*
X129265606Y-121412937D01*
X129375920Y-121471902D01*
X129495618Y-121508212D01*
X129620100Y-121520472D01*
X131120100Y-121520472D01*
X131244582Y-121508212D01*
X131364280Y-121471902D01*
X131474594Y-121412937D01*
X131571285Y-121333585D01*
X131650637Y-121236894D01*
X131709602Y-121126580D01*
X131745912Y-121006882D01*
X131758172Y-120882400D01*
X131758172Y-117882400D01*
X131745912Y-117757918D01*
X131709602Y-117638220D01*
X131650637Y-117527906D01*
X131571285Y-117431215D01*
X131474594Y-117351863D01*
X131364280Y-117292898D01*
X131255100Y-117259779D01*
X131255100Y-116518976D01*
X135716525Y-112057552D01*
X135718420Y-112062127D01*
X135875463Y-112297159D01*
X136075341Y-112497037D01*
X136105100Y-112516921D01*
X136105101Y-117395820D01*
X136066644Y-117434277D01*
X135902680Y-117346636D01*
X135641606Y-117267440D01*
X135370100Y-117240699D01*
X135098593Y-117267440D01*
X134837519Y-117346636D01*
X134596912Y-117475243D01*
X134386019Y-117648320D01*
X134212943Y-117859213D01*
X134084336Y-118099820D01*
X134005140Y-118360894D01*
X133985100Y-118564364D01*
X133985100Y-120200437D01*
X134005140Y-120403907D01*
X134084337Y-120664981D01*
X134212944Y-120905588D01*
X134386020Y-121116481D01*
X134596913Y-121289557D01*
X134837520Y-121418164D01*
X135098594Y-121497360D01*
X135370100Y-121524101D01*
X135641607Y-121497360D01*
X135902681Y-121418164D01*
X136143288Y-121289557D01*
X136354181Y-121116481D01*
X136527257Y-120905588D01*
X136655864Y-120664981D01*
X136735060Y-120403907D01*
X136755100Y-120200437D01*
X136755100Y-119248978D01*
X137585149Y-118418930D01*
X137618917Y-118391217D01*
X137729511Y-118256459D01*
X137811689Y-118102713D01*
X137855904Y-117956957D01*
X137862295Y-117935891D01*
X137863752Y-117921094D01*
X137875100Y-117805877D01*
X137875100Y-117805869D01*
X137879381Y-117762400D01*
X137875100Y-117718931D01*
X137875100Y-112516921D01*
X137904859Y-112497037D01*
X138104737Y-112297159D01*
X138261780Y-112062127D01*
X138369953Y-111800974D01*
X138425100Y-111523735D01*
X138425100Y-111241065D01*
X138369953Y-110963826D01*
X138261780Y-110702673D01*
X138104737Y-110467641D01*
X137904859Y-110267763D01*
X137669827Y-110110720D01*
X137665252Y-110108825D01*
X138256676Y-109517401D01*
X139616630Y-109517401D01*
X139660099Y-109521682D01*
X139703568Y-109517401D01*
X139703576Y-109517401D01*
X139833589Y-109504596D01*
X140000412Y-109453990D01*
X140154158Y-109371812D01*
X140288916Y-109261218D01*
X140316633Y-109227445D01*
X140733661Y-108810417D01*
X140768765Y-108817400D01*
X141051435Y-108817400D01*
X141328674Y-108762253D01*
X141589827Y-108654080D01*
X141824859Y-108497037D01*
X142024737Y-108297159D01*
X142180100Y-108064641D01*
X142335463Y-108297159D01*
X142535341Y-108497037D01*
X142770373Y-108654080D01*
X143031526Y-108762253D01*
X143308765Y-108817400D01*
X143591435Y-108817400D01*
X143626539Y-108810417D01*
X145269613Y-110453491D01*
X145255463Y-110467641D01*
X145098420Y-110702673D01*
X144990247Y-110963826D01*
X144935100Y-111241065D01*
X144935100Y-111523735D01*
X144990247Y-111800974D01*
X145098420Y-112062127D01*
X145255463Y-112297159D01*
X145455341Y-112497037D01*
X145690373Y-112654080D01*
X145951526Y-112762253D01*
X146228765Y-112817400D01*
X146511435Y-112817400D01*
X146735101Y-112772909D01*
X146735102Y-117244328D01*
X146620100Y-117244328D01*
X146495618Y-117256588D01*
X146375920Y-117292898D01*
X146265606Y-117351863D01*
X146168915Y-117431215D01*
X146089563Y-117527906D01*
X146030598Y-117638220D01*
X145994288Y-117757918D01*
X145982028Y-117882400D01*
X145982028Y-120882400D01*
X145994288Y-121006882D01*
X146030598Y-121126580D01*
X146089563Y-121236894D01*
X146168915Y-121333585D01*
X146265606Y-121412937D01*
X146375920Y-121471902D01*
X146495618Y-121508212D01*
X146620100Y-121520472D01*
X148120100Y-121520472D01*
X148244582Y-121508212D01*
X148364280Y-121471902D01*
X148474594Y-121412937D01*
X148571285Y-121333585D01*
X148650637Y-121236894D01*
X148709602Y-121126580D01*
X148745912Y-121006882D01*
X148758172Y-120882400D01*
X148758172Y-118564364D01*
X150985100Y-118564364D01*
X150985100Y-120200437D01*
X151005140Y-120403907D01*
X151084337Y-120664981D01*
X151212944Y-120905588D01*
X151386020Y-121116481D01*
X151596913Y-121289557D01*
X151837520Y-121418164D01*
X152098594Y-121497360D01*
X152370100Y-121524101D01*
X152641607Y-121497360D01*
X152902681Y-121418164D01*
X153143288Y-121289557D01*
X153354181Y-121116481D01*
X153527257Y-120905588D01*
X153655864Y-120664981D01*
X153735060Y-120403907D01*
X153755100Y-120200437D01*
X153755100Y-119248978D01*
X154585149Y-118418930D01*
X154618917Y-118391217D01*
X154729511Y-118256459D01*
X154811689Y-118102713D01*
X154855904Y-117956957D01*
X154862295Y-117935891D01*
X154863752Y-117921094D01*
X154875100Y-117805877D01*
X154875100Y-117805869D01*
X154879381Y-117762400D01*
X154875100Y-117718931D01*
X154875100Y-112516921D01*
X154904859Y-112497037D01*
X155104737Y-112297159D01*
X155261780Y-112062127D01*
X155369953Y-111800974D01*
X155425100Y-111523735D01*
X155425100Y-111241065D01*
X155369953Y-110963826D01*
X155261780Y-110702673D01*
X155104737Y-110467641D01*
X154904859Y-110267763D01*
X154669827Y-110110720D01*
X154408674Y-110002547D01*
X154131435Y-109947400D01*
X153848765Y-109947400D01*
X153571526Y-110002547D01*
X153310373Y-110110720D01*
X153075341Y-110267763D01*
X152875463Y-110467641D01*
X152718420Y-110702673D01*
X152610247Y-110963826D01*
X152555100Y-111241065D01*
X152555100Y-111523735D01*
X152610247Y-111800974D01*
X152718420Y-112062127D01*
X152875463Y-112297159D01*
X153075341Y-112497037D01*
X153105100Y-112516921D01*
X153105101Y-117395820D01*
X153066644Y-117434277D01*
X152902680Y-117346636D01*
X152641606Y-117267440D01*
X152370100Y-117240699D01*
X152098593Y-117267440D01*
X151837519Y-117346636D01*
X151596912Y-117475243D01*
X151386019Y-117648320D01*
X151212943Y-117859213D01*
X151084336Y-118099820D01*
X151005140Y-118360894D01*
X150985100Y-118564364D01*
X148758172Y-118564364D01*
X148758172Y-117882400D01*
X148745912Y-117757918D01*
X148709602Y-117638220D01*
X148650637Y-117527906D01*
X148571285Y-117431215D01*
X148505101Y-117376899D01*
X148505101Y-109055870D01*
X148509382Y-109012401D01*
X148505101Y-108968932D01*
X148505101Y-108968924D01*
X148492296Y-108838911D01*
X148454082Y-108712937D01*
X148441690Y-108672087D01*
X148359512Y-108518342D01*
X148276633Y-108417354D01*
X148276631Y-108417352D01*
X148248918Y-108383584D01*
X148215151Y-108355872D01*
X147418117Y-107558839D01*
X147425100Y-107523735D01*
X147425100Y-107241065D01*
X147369953Y-106963826D01*
X147261780Y-106702673D01*
X147104737Y-106467641D01*
X146904859Y-106267763D01*
X146669827Y-106110720D01*
X146408674Y-106002547D01*
X146131435Y-105947400D01*
X145848765Y-105947400D01*
X145571526Y-106002547D01*
X145310373Y-106110720D01*
X145075341Y-106267763D01*
X144875463Y-106467641D01*
X144720100Y-106700159D01*
X144564737Y-106467641D01*
X144364859Y-106267763D01*
X144129827Y-106110720D01*
X143868674Y-106002547D01*
X143591435Y-105947400D01*
X143308765Y-105947400D01*
X143031526Y-106002547D01*
X142770373Y-106110720D01*
X142535341Y-106267763D01*
X142335463Y-106467641D01*
X142180100Y-106700159D01*
X142024737Y-106467641D01*
X141824859Y-106267763D01*
X141589827Y-106110720D01*
X141328674Y-106002547D01*
X141051435Y-105947400D01*
X140768765Y-105947400D01*
X140491526Y-106002547D01*
X140230373Y-106110720D01*
X139995341Y-106267763D01*
X139796743Y-106466361D01*
X139795912Y-106457918D01*
X139759602Y-106338220D01*
X139700637Y-106227906D01*
X139621285Y-106131215D01*
X139524594Y-106051863D01*
X139414280Y-105992898D01*
X139294582Y-105956588D01*
X139170100Y-105944328D01*
X137570100Y-105944328D01*
X137445618Y-105956588D01*
X137325920Y-105992898D01*
X137215606Y-106051863D01*
X137118915Y-106131215D01*
X137039563Y-106227906D01*
X136980598Y-106338220D01*
X136944288Y-106457918D01*
X136940399Y-106497400D01*
X133413565Y-106497400D01*
X133370099Y-106493119D01*
X133326633Y-106497400D01*
X133326623Y-106497400D01*
X133196610Y-106510205D01*
X133029787Y-106560811D01*
X132876041Y-106642989D01*
X132876039Y-106642990D01*
X132876040Y-106642990D01*
X132775053Y-106725868D01*
X132775051Y-106725870D01*
X132741283Y-106753583D01*
X132713570Y-106787351D01*
X129546539Y-109954383D01*
X129511435Y-109947400D01*
X129228765Y-109947400D01*
X128951526Y-110002547D01*
X128690373Y-110110720D01*
X128455341Y-110267763D01*
X128255463Y-110467641D01*
X128098420Y-110702673D01*
X127990247Y-110963826D01*
X127935100Y-111241065D01*
X120284197Y-111241065D01*
X120351110Y-111079525D01*
X120408700Y-110789999D01*
X120408700Y-110494801D01*
X120351110Y-110205275D01*
X120238142Y-109932547D01*
X120074139Y-109687098D01*
X119865402Y-109478361D01*
X119706819Y-109372400D01*
X119865402Y-109266439D01*
X120074139Y-109057702D01*
X120238142Y-108812253D01*
X120351110Y-108539525D01*
X120408700Y-108249999D01*
X120408700Y-107954801D01*
X120351110Y-107665275D01*
X120238142Y-107392547D01*
X120074139Y-107147098D01*
X119865402Y-106938361D01*
X119706819Y-106832400D01*
X119865402Y-106726439D01*
X120074139Y-106517702D01*
X120238142Y-106272253D01*
X120351110Y-105999525D01*
X120408700Y-105709999D01*
X120408700Y-105414801D01*
X120351110Y-105125275D01*
X120238142Y-104852547D01*
X120074139Y-104607098D01*
X119865402Y-104398361D01*
X119706819Y-104292400D01*
X119865402Y-104186439D01*
X120074139Y-103977702D01*
X120238142Y-103732253D01*
X120351110Y-103459525D01*
X120408700Y-103169999D01*
X120408700Y-102874801D01*
X120351110Y-102585275D01*
X120238142Y-102312547D01*
X120074139Y-102067098D01*
X119865402Y-101858361D01*
X119706819Y-101752400D01*
X119865402Y-101646439D01*
X120074139Y-101437702D01*
X120238142Y-101192253D01*
X120351110Y-100919525D01*
X120408700Y-100629999D01*
X120408700Y-100334801D01*
X120351110Y-100045275D01*
X120238142Y-99772547D01*
X120074139Y-99527098D01*
X119865402Y-99318361D01*
X119706819Y-99212400D01*
X119865402Y-99106439D01*
X120074139Y-98897702D01*
X120238142Y-98652253D01*
X120351110Y-98379525D01*
X120408700Y-98089999D01*
X120408700Y-97794801D01*
X120351110Y-97505275D01*
X120238142Y-97232547D01*
X120074139Y-96987098D01*
X119865402Y-96778361D01*
X119706819Y-96672400D01*
X119865402Y-96566439D01*
X120074139Y-96357702D01*
X120238142Y-96112253D01*
X120351110Y-95839525D01*
X120408700Y-95549999D01*
X120408700Y-95254801D01*
X120351110Y-94965275D01*
X120238142Y-94692547D01*
X120074139Y-94447098D01*
X119865402Y-94238361D01*
X119706819Y-94132400D01*
X119865402Y-94026439D01*
X120074139Y-93817702D01*
X120238142Y-93572253D01*
X120351110Y-93299525D01*
X120408700Y-93009999D01*
X120408700Y-92714801D01*
X120351110Y-92425275D01*
X120238142Y-92152547D01*
X120235205Y-92148150D01*
X124175100Y-92148150D01*
X124184865Y-92269748D01*
X124221723Y-92389278D01*
X124281192Y-92499321D01*
X124360987Y-92595647D01*
X124458041Y-92674556D01*
X124568624Y-92733014D01*
X124688487Y-92768775D01*
X124813023Y-92780465D01*
X124834350Y-92777400D01*
X124993100Y-92618650D01*
X124993100Y-91989400D01*
X125247100Y-91989400D01*
X125247100Y-92618650D01*
X125405850Y-92777400D01*
X125427177Y-92780465D01*
X125551713Y-92768775D01*
X125671576Y-92733014D01*
X125782159Y-92674556D01*
X125879213Y-92595647D01*
X125959008Y-92499321D01*
X126018477Y-92389278D01*
X126055335Y-92269748D01*
X126065100Y-92148150D01*
X125906350Y-91989400D01*
X125247100Y-91989400D01*
X124993100Y-91989400D01*
X124333850Y-91989400D01*
X124175100Y-92148150D01*
X120235205Y-92148150D01*
X120074139Y-91907098D01*
X119865402Y-91698361D01*
X119706819Y-91592400D01*
X119865402Y-91486439D01*
X120074139Y-91277702D01*
X120238142Y-91032253D01*
X120351110Y-90759525D01*
X120408700Y-90469999D01*
X120408700Y-90174801D01*
X120351110Y-89885275D01*
X120238142Y-89612547D01*
X120074139Y-89367098D01*
X119865402Y-89158361D01*
X119706819Y-89052400D01*
X119865402Y-88946439D01*
X120074139Y-88737702D01*
X120238142Y-88492253D01*
X120351110Y-88219525D01*
X120408700Y-87929999D01*
X120408700Y-87634801D01*
X120351110Y-87345275D01*
X120287207Y-87191001D01*
X121082563Y-87191001D01*
X121030598Y-87288220D01*
X120994288Y-87407918D01*
X120982028Y-87532400D01*
X120982028Y-88032400D01*
X120984436Y-88056850D01*
X120984436Y-88081409D01*
X120996696Y-88205890D01*
X121015818Y-88302023D01*
X121052127Y-88421719D01*
X121089636Y-88512275D01*
X121148602Y-88622592D01*
X121203058Y-88704091D01*
X121282410Y-88800782D01*
X121351718Y-88870090D01*
X121448409Y-88949442D01*
X121485101Y-88973959D01*
X121485101Y-89414943D01*
X121470875Y-89441558D01*
X121426882Y-89586581D01*
X121412028Y-89737400D01*
X121412028Y-90007400D01*
X121426882Y-90158219D01*
X121470875Y-90303242D01*
X121513186Y-90382400D01*
X121470875Y-90461558D01*
X121426882Y-90606581D01*
X121412028Y-90757400D01*
X121412028Y-91027400D01*
X121426882Y-91178219D01*
X121470875Y-91323242D01*
X121542314Y-91456896D01*
X121638456Y-91574044D01*
X121755604Y-91670186D01*
X121889258Y-91741625D01*
X122034281Y-91785618D01*
X122185100Y-91800472D01*
X122555100Y-91800472D01*
X122705919Y-91785618D01*
X122733010Y-91777400D01*
X124705601Y-91777400D01*
X124798306Y-91805522D01*
X124950100Y-91820472D01*
X125290100Y-91820472D01*
X125441894Y-91805522D01*
X125587855Y-91761245D01*
X125636208Y-91735400D01*
X125906350Y-91735400D01*
X126065100Y-91576650D01*
X126055335Y-91455052D01*
X126018477Y-91335522D01*
X126013272Y-91325891D01*
X126041612Y-91232466D01*
X126490149Y-90783930D01*
X126523917Y-90756217D01*
X126552307Y-90721625D01*
X126634511Y-90621459D01*
X126716689Y-90467714D01*
X126767295Y-90300890D01*
X126770969Y-90263583D01*
X126775258Y-90220039D01*
X126873845Y-90210329D01*
X126998883Y-90172400D01*
X127171631Y-90172400D01*
X127215100Y-90176681D01*
X127258569Y-90172400D01*
X127258577Y-90172400D01*
X127388590Y-90159595D01*
X127485101Y-90130318D01*
X127485101Y-90790841D01*
X127448409Y-90815358D01*
X127351718Y-90894710D01*
X127282410Y-90964018D01*
X127203058Y-91060709D01*
X127148602Y-91142208D01*
X127089636Y-91252525D01*
X127052127Y-91343081D01*
X127015818Y-91462777D01*
X126996696Y-91558910D01*
X126984436Y-91683391D01*
X126984436Y-91707950D01*
X126982028Y-91732400D01*
X126982028Y-92232400D01*
X126994288Y-92356882D01*
X127030598Y-92476580D01*
X127089563Y-92586894D01*
X127168915Y-92683585D01*
X127265606Y-92762937D01*
X127375920Y-92821902D01*
X127495618Y-92858212D01*
X127620100Y-92870472D01*
X129120100Y-92870472D01*
X129244582Y-92858212D01*
X129364280Y-92821902D01*
X129474594Y-92762937D01*
X129571285Y-92683585D01*
X129650637Y-92586894D01*
X129709602Y-92476580D01*
X129745912Y-92356882D01*
X129758172Y-92232400D01*
X129758172Y-91732400D01*
X129755764Y-91707950D01*
X129755764Y-91683391D01*
X129743504Y-91558910D01*
X129724382Y-91462777D01*
X129688073Y-91343081D01*
X129658991Y-91272869D01*
X129992064Y-91605942D01*
X129984436Y-91683391D01*
X129984436Y-91707950D01*
X129982028Y-91732400D01*
X129982028Y-92232400D01*
X129994288Y-92356882D01*
X130030598Y-92476580D01*
X130089563Y-92586894D01*
X130168915Y-92683585D01*
X130265606Y-92762937D01*
X130375920Y-92821902D01*
X130495618Y-92858212D01*
X130620100Y-92870472D01*
X132120100Y-92870472D01*
X132244582Y-92858212D01*
X132364280Y-92821902D01*
X132474594Y-92762937D01*
X132571285Y-92683585D01*
X132650637Y-92586894D01*
X132709602Y-92476580D01*
X132745912Y-92356882D01*
X132758172Y-92232400D01*
X132758172Y-91732400D01*
X132755764Y-91707950D01*
X132755764Y-91683391D01*
X132743504Y-91558910D01*
X132724382Y-91462777D01*
X132688073Y-91343081D01*
X132658991Y-91272869D01*
X132992064Y-91605942D01*
X132984436Y-91683391D01*
X132984436Y-91707950D01*
X132982028Y-91732400D01*
X132982028Y-92232400D01*
X132994288Y-92356882D01*
X133030598Y-92476580D01*
X133089563Y-92586894D01*
X133168915Y-92683585D01*
X133265606Y-92762937D01*
X133375920Y-92821902D01*
X133495618Y-92858212D01*
X133620100Y-92870472D01*
X135120100Y-92870472D01*
X135244582Y-92858212D01*
X135364280Y-92821902D01*
X135474594Y-92762937D01*
X135571285Y-92683585D01*
X135650637Y-92586894D01*
X135709602Y-92476580D01*
X135745912Y-92356882D01*
X135758172Y-92232400D01*
X135758172Y-91732400D01*
X135755764Y-91707950D01*
X135755764Y-91683391D01*
X135743504Y-91558910D01*
X135724382Y-91462777D01*
X135688073Y-91343081D01*
X135650564Y-91252525D01*
X135591598Y-91142208D01*
X135537142Y-91060709D01*
X135457790Y-90964018D01*
X135388482Y-90894710D01*
X135291791Y-90815358D01*
X135210292Y-90760902D01*
X135099975Y-90701936D01*
X135009419Y-90664427D01*
X134889723Y-90628118D01*
X134793590Y-90608996D01*
X134669109Y-90596736D01*
X134644550Y-90596736D01*
X134620100Y-90594328D01*
X134483607Y-90594328D01*
X134158193Y-90268914D01*
X134173565Y-90267400D01*
X139235579Y-90267400D01*
X139255463Y-90297159D01*
X139455341Y-90497037D01*
X139690373Y-90654080D01*
X139951526Y-90762253D01*
X140228765Y-90817400D01*
X140511435Y-90817400D01*
X140788674Y-90762253D01*
X141049827Y-90654080D01*
X141284859Y-90497037D01*
X141484737Y-90297159D01*
X141504621Y-90267400D01*
X143235579Y-90267400D01*
X143255463Y-90297159D01*
X143455341Y-90497037D01*
X143690373Y-90654080D01*
X143951526Y-90762253D01*
X144228765Y-90817400D01*
X144511435Y-90817400D01*
X144788674Y-90762253D01*
X145049827Y-90654080D01*
X145284859Y-90497037D01*
X145484737Y-90297159D01*
X145641780Y-90062127D01*
X145749953Y-89800974D01*
X145805100Y-89523735D01*
X145805100Y-89241065D01*
X145749953Y-88963826D01*
X145641780Y-88702673D01*
X145484737Y-88467641D01*
X145284859Y-88267763D01*
X145049827Y-88110720D01*
X144788674Y-88002547D01*
X144511435Y-87947400D01*
X144228765Y-87947400D01*
X143951526Y-88002547D01*
X143690373Y-88110720D01*
X143455341Y-88267763D01*
X143255463Y-88467641D01*
X143235579Y-88497400D01*
X141504621Y-88497400D01*
X141484737Y-88467641D01*
X141284859Y-88267763D01*
X141049827Y-88110720D01*
X140788674Y-88002547D01*
X140511435Y-87947400D01*
X140228765Y-87947400D01*
X139951526Y-88002547D01*
X139690373Y-88110720D01*
X139455341Y-88267763D01*
X139255463Y-88467641D01*
X139235579Y-88497400D01*
X134765100Y-88497400D01*
X134765100Y-88245310D01*
X134773318Y-88218219D01*
X134788172Y-88067400D01*
X134788172Y-87697400D01*
X134773318Y-87546581D01*
X134765100Y-87519490D01*
X134765100Y-86995310D01*
X134773318Y-86968219D01*
X134788172Y-86817400D01*
X134788172Y-86447400D01*
X134773318Y-86296581D01*
X134729325Y-86151558D01*
X134657886Y-86017904D01*
X134561744Y-85900756D01*
X134444596Y-85804614D01*
X134415867Y-85789258D01*
X132613965Y-83987357D01*
X132586248Y-83953584D01*
X132451490Y-83842990D01*
X132297744Y-83760812D01*
X132130921Y-83710206D01*
X132000908Y-83697401D01*
X132000900Y-83697401D01*
X131957431Y-83693120D01*
X131913962Y-83697401D01*
X127713568Y-83697401D01*
X127670099Y-83693120D01*
X127626630Y-83697401D01*
X127626622Y-83697401D01*
X127496609Y-83710206D01*
X127329786Y-83760812D01*
X127176040Y-83842990D01*
X127041282Y-83953584D01*
X127013565Y-83987357D01*
X126961177Y-84039745D01*
X126927211Y-84053814D01*
X126774072Y-84156138D01*
X126643838Y-84286372D01*
X126541514Y-84439511D01*
X126500169Y-84539328D01*
X125956975Y-84539328D01*
X125952347Y-84536854D01*
X125809086Y-84493397D01*
X125697433Y-84482400D01*
X125697422Y-84482400D01*
X125660100Y-84478724D01*
X125622778Y-84482400D01*
X120204635Y-84482400D01*
X120074139Y-84287098D01*
X119865402Y-84078361D01*
X119706819Y-83972400D01*
X119865402Y-83866439D01*
X120074139Y-83657702D01*
X120238142Y-83412253D01*
X120351110Y-83139525D01*
X120408700Y-82849999D01*
X120408700Y-82554801D01*
X120351110Y-82265275D01*
X120238142Y-81992547D01*
X120074139Y-81747098D01*
X119865402Y-81538361D01*
X119706819Y-81432400D01*
X119865402Y-81326439D01*
X120074139Y-81117702D01*
X120238142Y-80872253D01*
X120351110Y-80599525D01*
X120408700Y-80309999D01*
X120408700Y-80014801D01*
X120351110Y-79725275D01*
X120238142Y-79452547D01*
X120074139Y-79207098D01*
X119865402Y-78998361D01*
X119706819Y-78892400D01*
X119865402Y-78786439D01*
X120074139Y-78577702D01*
X120238142Y-78332253D01*
X120351110Y-78059525D01*
X120408700Y-77769999D01*
X120408700Y-77474801D01*
X120351110Y-77185275D01*
X120238142Y-76912547D01*
X120074139Y-76667098D01*
X119865402Y-76458361D01*
X119706819Y-76352400D01*
X119865402Y-76246439D01*
X120074139Y-76037702D01*
X120238142Y-75792253D01*
X120351110Y-75519525D01*
X120408700Y-75229999D01*
X120408700Y-74934801D01*
X120351110Y-74645275D01*
X120277432Y-74467401D01*
X139653520Y-74467401D01*
X135546539Y-78574383D01*
%TA.AperFunction,Conductor*%
D28*
G36*
X135546539Y-78574383D02*
G01*
X135511435Y-78567400D01*
X135228765Y-78567400D01*
X134951526Y-78622547D01*
X134690373Y-78730720D01*
X134455341Y-78887763D01*
X134255463Y-79087641D01*
X134098420Y-79322673D01*
X133990247Y-79583826D01*
X133935100Y-79861065D01*
X133935100Y-80143735D01*
X133990247Y-80420974D01*
X134098420Y-80682127D01*
X134255463Y-80917159D01*
X134455341Y-81117037D01*
X134690373Y-81274080D01*
X134951526Y-81382253D01*
X135228765Y-81437400D01*
X135511435Y-81437400D01*
X135788674Y-81382253D01*
X136049827Y-81274080D01*
X136284859Y-81117037D01*
X136484737Y-80917159D01*
X136641780Y-80682127D01*
X136749953Y-80420974D01*
X136805100Y-80143735D01*
X136805100Y-79861065D01*
X136798117Y-79825961D01*
X141456668Y-75167411D01*
X143953510Y-75167411D01*
X140546539Y-78574383D01*
X140511435Y-78567400D01*
X140228765Y-78567400D01*
X139951526Y-78622547D01*
X139690373Y-78730720D01*
X139455341Y-78887763D01*
X139255463Y-79087641D01*
X139098420Y-79322673D01*
X138990247Y-79583826D01*
X138935100Y-79861065D01*
X138935100Y-80143735D01*
X138990247Y-80420974D01*
X139098420Y-80682127D01*
X139255463Y-80917159D01*
X139455341Y-81117037D01*
X139690373Y-81274080D01*
X139951526Y-81382253D01*
X140228765Y-81437400D01*
X140511435Y-81437400D01*
X140788674Y-81382253D01*
X141049827Y-81274080D01*
X141284859Y-81117037D01*
X141484737Y-80917159D01*
X141641780Y-80682127D01*
X141749953Y-80420974D01*
X141805100Y-80143735D01*
X141805100Y-79861065D01*
X141798117Y-79825961D01*
X145756658Y-75867421D01*
X162146610Y-75867421D01*
X162190079Y-75871702D01*
X162233548Y-75867421D01*
X162233556Y-75867421D01*
X162363569Y-75854616D01*
X162530392Y-75804010D01*
X162684138Y-75721832D01*
X162818896Y-75611238D01*
X162846613Y-75577465D01*
X163141883Y-75282196D01*
X163147995Y-75312926D01*
X162423532Y-76037390D01*
X148493579Y-76037390D01*
X148450110Y-76033109D01*
X148406641Y-76037390D01*
X148406633Y-76037390D01*
X148291416Y-76048738D01*
X148276619Y-76050195D01*
X148226013Y-76065547D01*
X148109797Y-76100801D01*
X147959024Y-76181390D01*
X147956051Y-76182979D01*
X147855063Y-76265858D01*
X147855061Y-76265860D01*
X147821293Y-76293573D01*
X147793580Y-76327341D01*
X145546539Y-78574383D01*
X145511435Y-78567400D01*
X145228765Y-78567400D01*
X144951526Y-78622547D01*
X144690373Y-78730720D01*
X144455341Y-78887763D01*
X144255463Y-79087641D01*
X144098420Y-79322673D01*
X143990247Y-79583826D01*
X143935100Y-79861065D01*
X143935100Y-80143735D01*
X143990247Y-80420974D01*
X144098420Y-80682127D01*
X144255463Y-80917159D01*
X144455341Y-81117037D01*
X144690373Y-81274080D01*
X144951526Y-81382253D01*
X145228765Y-81437400D01*
X145511435Y-81437400D01*
X145788674Y-81382253D01*
X146049827Y-81274080D01*
X146284859Y-81117037D01*
X146484737Y-80917159D01*
X146641780Y-80682127D01*
X146749953Y-80420974D01*
X146805100Y-80143735D01*
X146805100Y-79861065D01*
X146798117Y-79825961D01*
X148816689Y-77807390D01*
X151313531Y-77807390D01*
X150546539Y-78574383D01*
X150511435Y-78567400D01*
X150228765Y-78567400D01*
X149951526Y-78622547D01*
X149690373Y-78730720D01*
X149455341Y-78887763D01*
X149255463Y-79087641D01*
X149098420Y-79322673D01*
X148990247Y-79583826D01*
X148935100Y-79861065D01*
X148935100Y-80143735D01*
X148990247Y-80420974D01*
X149098420Y-80682127D01*
X149255463Y-80917159D01*
X149455341Y-81117037D01*
X149690373Y-81274080D01*
X149951526Y-81382253D01*
X150228765Y-81437400D01*
X150511435Y-81437400D01*
X150788674Y-81382253D01*
X151049827Y-81274080D01*
X151284859Y-81117037D01*
X151484737Y-80917159D01*
X151641780Y-80682127D01*
X151749953Y-80420974D01*
X151805100Y-80143735D01*
X151805100Y-79861065D01*
X151798117Y-79825961D01*
X153116679Y-78507400D01*
X157790298Y-78507400D01*
X140693987Y-95603712D01*
X140511435Y-95567400D01*
X140228765Y-95567400D01*
X139951526Y-95622547D01*
X139690373Y-95730720D01*
X139455341Y-95887763D01*
X139255463Y-96087641D01*
X139098420Y-96322673D01*
X138990247Y-96583826D01*
X138935100Y-96861065D01*
X138935100Y-97143735D01*
X138990247Y-97420974D01*
X139098420Y-97682127D01*
X139255463Y-97917159D01*
X139455341Y-98117037D01*
X139485101Y-98136922D01*
X139485101Y-98848185D01*
X139484737Y-98847641D01*
X139284859Y-98647763D01*
X139049827Y-98490720D01*
X138788674Y-98382547D01*
X138511435Y-98327400D01*
X138228765Y-98327400D01*
X137951526Y-98382547D01*
X137690373Y-98490720D01*
X137455341Y-98647763D01*
X137255463Y-98847641D01*
X137098420Y-99082673D01*
X136990247Y-99343826D01*
X136935100Y-99621065D01*
X136935100Y-99903735D01*
X136990247Y-100180974D01*
X137098420Y-100442127D01*
X137255463Y-100677159D01*
X137455341Y-100877037D01*
X137690373Y-101034080D01*
X137951526Y-101142253D01*
X138228765Y-101197400D01*
X138511435Y-101197400D01*
X138788674Y-101142253D01*
X139049827Y-101034080D01*
X139284859Y-100877037D01*
X139484737Y-100677159D01*
X139640100Y-100444641D01*
X139795463Y-100677159D01*
X139995341Y-100877037D01*
X140230373Y-101034080D01*
X140491526Y-101142253D01*
X140768765Y-101197400D01*
X141051435Y-101197400D01*
X141328674Y-101142253D01*
X141589827Y-101034080D01*
X141824859Y-100877037D01*
X142024737Y-100677159D01*
X142180100Y-100444641D01*
X142335463Y-100677159D01*
X142535341Y-100877037D01*
X142770373Y-101034080D01*
X143031526Y-101142253D01*
X143308765Y-101197400D01*
X143591435Y-101197400D01*
X143868674Y-101142253D01*
X144129827Y-101034080D01*
X144364859Y-100877037D01*
X144564737Y-100677159D01*
X144721780Y-100442127D01*
X144726167Y-100431535D01*
X144837715Y-100617531D01*
X145026686Y-100825919D01*
X145252680Y-100993437D01*
X145507013Y-101113646D01*
X145641061Y-101154304D01*
X145863100Y-101032315D01*
X145863100Y-99889400D01*
X146117100Y-99889400D01*
X146117100Y-101032315D01*
X146339139Y-101154304D01*
X146473187Y-101113646D01*
X146727520Y-100993437D01*
X146953514Y-100825919D01*
X147142485Y-100617531D01*
X147287170Y-100376281D01*
X147382009Y-100111440D01*
X147260724Y-99889400D01*
X146117100Y-99889400D01*
X145863100Y-99889400D01*
X145843100Y-99889400D01*
X145843100Y-99635400D01*
X145863100Y-99635400D01*
X145863100Y-98492485D01*
X146117100Y-98492485D01*
X146117100Y-99635400D01*
X147260724Y-99635400D01*
X147382009Y-99413360D01*
X147287170Y-99148519D01*
X147142485Y-98907269D01*
X146953514Y-98698881D01*
X146727520Y-98531363D01*
X146473187Y-98411154D01*
X146339139Y-98370496D01*
X146117100Y-98492485D01*
X145863100Y-98492485D01*
X145641061Y-98370496D01*
X145507013Y-98411154D01*
X145255100Y-98530219D01*
X145255100Y-98136921D01*
X145284859Y-98117037D01*
X145484737Y-97917159D01*
X145641780Y-97682127D01*
X145749953Y-97420974D01*
X145805100Y-97143735D01*
X145805100Y-96861065D01*
X145768788Y-96678513D01*
X160173503Y-82273799D01*
X163187394Y-82273799D01*
X163131500Y-82554801D01*
X163131500Y-82849999D01*
X163189090Y-83139525D01*
X163302058Y-83412253D01*
X163466061Y-83657702D01*
X163674798Y-83866439D01*
X163833381Y-83972400D01*
X163674798Y-84078361D01*
X163466061Y-84287098D01*
X163302058Y-84532547D01*
X163189090Y-84805275D01*
X163131500Y-85094801D01*
X163131500Y-85389999D01*
X163189090Y-85679525D01*
X163302058Y-85952253D01*
X163466061Y-86197702D01*
X163674798Y-86406439D01*
X163833381Y-86512400D01*
X163674798Y-86618361D01*
X163466061Y-86827098D01*
X163302058Y-87072547D01*
X163189090Y-87345275D01*
X163131500Y-87634801D01*
X163131500Y-87929999D01*
X163189090Y-88219525D01*
X163302058Y-88492253D01*
X163466061Y-88737702D01*
X163674798Y-88946439D01*
X163833381Y-89052400D01*
X163674798Y-89158361D01*
X163466061Y-89367098D01*
X163302058Y-89612547D01*
X163189090Y-89885275D01*
X163131500Y-90174801D01*
X163131500Y-90469999D01*
X163189090Y-90759525D01*
X163302058Y-91032253D01*
X163466061Y-91277702D01*
X163674798Y-91486439D01*
X163833381Y-91592400D01*
X163674798Y-91698361D01*
X163466061Y-91907098D01*
X163302058Y-92152547D01*
X163189090Y-92425275D01*
X163131500Y-92714801D01*
X163131500Y-93009999D01*
X163189090Y-93299525D01*
X163302058Y-93572253D01*
X163466061Y-93817702D01*
X163674798Y-94026439D01*
X163833381Y-94132400D01*
X163674798Y-94238361D01*
X163466061Y-94447098D01*
X163302058Y-94692547D01*
X163189090Y-94965275D01*
X163131500Y-95254801D01*
X163131500Y-95549999D01*
X163189090Y-95839525D01*
X163302058Y-96112253D01*
X163466061Y-96357702D01*
X163674798Y-96566439D01*
X163833381Y-96672400D01*
X163674798Y-96778361D01*
X163466061Y-96987098D01*
X163302058Y-97232547D01*
X163189090Y-97505275D01*
X163131500Y-97794801D01*
X163131500Y-98089999D01*
X163189090Y-98379525D01*
X163302058Y-98652253D01*
X163466061Y-98897702D01*
X163674798Y-99106439D01*
X163833381Y-99212400D01*
X163674798Y-99318361D01*
X163466061Y-99527098D01*
X163302058Y-99772547D01*
X163189090Y-100045275D01*
X163131500Y-100334801D01*
X163131500Y-100629999D01*
X163189090Y-100919525D01*
X163302058Y-101192253D01*
X163466061Y-101437702D01*
X163674798Y-101646439D01*
X163833381Y-101752400D01*
X163674798Y-101858361D01*
X163466061Y-102067098D01*
X163302058Y-102312547D01*
X163189090Y-102585275D01*
X163131500Y-102874801D01*
X163131500Y-103169999D01*
X163189090Y-103459525D01*
X163302058Y-103732253D01*
X163466061Y-103977702D01*
X163674798Y-104186439D01*
X163833381Y-104292400D01*
X163674798Y-104398361D01*
X163466061Y-104607098D01*
X163302058Y-104852547D01*
X163189090Y-105125275D01*
X163131500Y-105414801D01*
X163131500Y-105709999D01*
X163189090Y-105999525D01*
X163302058Y-106272253D01*
X163466061Y-106517702D01*
X163674798Y-106726439D01*
X163833381Y-106832400D01*
X163674798Y-106938361D01*
X163466061Y-107147098D01*
X163302058Y-107392547D01*
X163189090Y-107665275D01*
X163131500Y-107954801D01*
X163131500Y-108249999D01*
X163189090Y-108539525D01*
X163302058Y-108812253D01*
X163466061Y-109057702D01*
X163674798Y-109266439D01*
X163833381Y-109372400D01*
X163674798Y-109478361D01*
X163466061Y-109687098D01*
X163302058Y-109932547D01*
X163189090Y-110205275D01*
X163131500Y-110494801D01*
X163131500Y-110789999D01*
X163189090Y-111079525D01*
X163302058Y-111352253D01*
X163466061Y-111597702D01*
X163674798Y-111806439D01*
X163833381Y-111912400D01*
X163674798Y-112018361D01*
X163466061Y-112227098D01*
X163302058Y-112472547D01*
X163189090Y-112745275D01*
X163131500Y-113034801D01*
X163131500Y-113329999D01*
X163189090Y-113619525D01*
X163302058Y-113892253D01*
X163466061Y-114137702D01*
X163674798Y-114346439D01*
X163833381Y-114452400D01*
X163674798Y-114558361D01*
X163466061Y-114767098D01*
X163302058Y-115012547D01*
X163189090Y-115285275D01*
X163131500Y-115574801D01*
X163131500Y-115869999D01*
X163189090Y-116159525D01*
X163302058Y-116432253D01*
X163466061Y-116677702D01*
X163674798Y-116886439D01*
X163833381Y-116992400D01*
X163674798Y-117098361D01*
X163466061Y-117307098D01*
X163302058Y-117552547D01*
X163189090Y-117825275D01*
X163131500Y-118114801D01*
X163131500Y-118409999D01*
X163189090Y-118699525D01*
X163302058Y-118972253D01*
X163466061Y-119217702D01*
X163674798Y-119426439D01*
X163920247Y-119590442D01*
X164192975Y-119703410D01*
X164482501Y-119761000D01*
X164777699Y-119761000D01*
X165067225Y-119703410D01*
X165339953Y-119590442D01*
X165585402Y-119426439D01*
X165794139Y-119217702D01*
X165900100Y-119059119D01*
X166006061Y-119217702D01*
X166214798Y-119426439D01*
X166460247Y-119590442D01*
X166732975Y-119703410D01*
X167022501Y-119761000D01*
X167317699Y-119761000D01*
X167607225Y-119703410D01*
X167879953Y-119590442D01*
X168000411Y-119509955D01*
X167766864Y-120324430D01*
X167253667Y-121569537D01*
X166604882Y-122749674D01*
X165828586Y-123850144D01*
X164934462Y-124857219D01*
X163933653Y-125758351D01*
X162838639Y-126542304D01*
X161663061Y-127199313D01*
X160421563Y-127721191D01*
X159129638Y-128101425D01*
X157803368Y-128335282D01*
X156442664Y-128420891D01*
X156374031Y-128421130D01*
X127182875Y-128421130D01*
X125820482Y-128344961D01*
X124492617Y-128120369D01*
X123198070Y-127749164D01*
X121952963Y-127235967D01*
X120772826Y-126587182D01*
X119672356Y-125810886D01*
X118665281Y-124916762D01*
X117764149Y-123915953D01*
X116980196Y-122820939D01*
X116323187Y-121645361D01*
X115801309Y-120403863D01*
X115535692Y-119501374D01*
X115734122Y-119619364D01*
X116011073Y-119717363D01*
X116243100Y-119596864D01*
X116243100Y-118389400D01*
X116497100Y-118389400D01*
X116497100Y-119596864D01*
X116729127Y-119717363D01*
X117006078Y-119619364D01*
X117258588Y-119469217D01*
X117476954Y-119272693D01*
X117640100Y-119054322D01*
X117803246Y-119272693D01*
X118021612Y-119469217D01*
X118274122Y-119619364D01*
X118551073Y-119717363D01*
X118783100Y-119596864D01*
X118783100Y-118389400D01*
X119037100Y-118389400D01*
X119037100Y-119596864D01*
X119269127Y-119717363D01*
X119546078Y-119619364D01*
X119798588Y-119469217D01*
X120016954Y-119272693D01*
X120192784Y-119037344D01*
X120319322Y-118772214D01*
X120365058Y-118621426D01*
X120243917Y-118389400D01*
X119037100Y-118389400D01*
X118783100Y-118389400D01*
X116497100Y-118389400D01*
X116243100Y-118389400D01*
X116223100Y-118389400D01*
X116223100Y-118135400D01*
X116243100Y-118135400D01*
X116243100Y-115849400D01*
X116497100Y-115849400D01*
X116497100Y-118135400D01*
X118783100Y-118135400D01*
X118783100Y-115849400D01*
X119037100Y-115849400D01*
X119037100Y-118135400D01*
X120243917Y-118135400D01*
X120365058Y-117903374D01*
X120319322Y-117752586D01*
X120192784Y-117487456D01*
X120016954Y-117252107D01*
X119798588Y-117055583D01*
X119692330Y-116992400D01*
X119798588Y-116929217D01*
X120016954Y-116732693D01*
X120192784Y-116497344D01*
X120319322Y-116232214D01*
X120365058Y-116081426D01*
X120243917Y-115849400D01*
X119037100Y-115849400D01*
X118783100Y-115849400D01*
X116497100Y-115849400D01*
X116243100Y-115849400D01*
X116223100Y-115849400D01*
X116223100Y-115595400D01*
X116243100Y-115595400D01*
X116243100Y-115575400D01*
X116497100Y-115575400D01*
X116497100Y-115595400D01*
X118783100Y-115595400D01*
X118783100Y-115575400D01*
X119037100Y-115575400D01*
X119037100Y-115595400D01*
X120243917Y-115595400D01*
X120365058Y-115363374D01*
X120319322Y-115212586D01*
X120192784Y-114947456D01*
X120016954Y-114712107D01*
X119798588Y-114515583D01*
X119699997Y-114456959D01*
X119865402Y-114346439D01*
X120074139Y-114137702D01*
X120238142Y-113892253D01*
X120351110Y-113619525D01*
X120408700Y-113329999D01*
X120408700Y-113034801D01*
X120351110Y-112745275D01*
X120238142Y-112472547D01*
X120074139Y-112227098D01*
X119865402Y-112018361D01*
X119706819Y-111912400D01*
X119865402Y-111806439D01*
X120074139Y-111597702D01*
X120238142Y-111352253D01*
X120284197Y-111241065D01*
X127935100Y-111241065D01*
X127935100Y-111523735D01*
X127990247Y-111800974D01*
X128098420Y-112062127D01*
X128255463Y-112297159D01*
X128455341Y-112497037D01*
X128690373Y-112654080D01*
X128951526Y-112762253D01*
X129228765Y-112817400D01*
X129511435Y-112817400D01*
X129788674Y-112762253D01*
X130049827Y-112654080D01*
X130284859Y-112497037D01*
X130484737Y-112297159D01*
X130641780Y-112062127D01*
X130749953Y-111800974D01*
X130805100Y-111523735D01*
X130805100Y-111241065D01*
X130798117Y-111205961D01*
X133736679Y-108267400D01*
X136940399Y-108267400D01*
X136944288Y-108306882D01*
X136948884Y-108322035D01*
X129775052Y-115495868D01*
X129741284Y-115523581D01*
X129713571Y-115557349D01*
X129713568Y-115557352D01*
X129630690Y-115658339D01*
X129548512Y-115812085D01*
X129497905Y-115978908D01*
X129480819Y-116152398D01*
X129485101Y-116195877D01*
X129485101Y-117259778D01*
X129375920Y-117292898D01*
X129265606Y-117351863D01*
X129168915Y-117431215D01*
X129089563Y-117527906D01*
X129030598Y-117638220D01*
X128994288Y-117757918D01*
X128982028Y-117882400D01*
X128982028Y-120882400D01*
X128994288Y-121006882D01*
X129030598Y-121126580D01*
X129089563Y-121236894D01*
X129168915Y-121333585D01*
X129265606Y-121412937D01*
X129375920Y-121471902D01*
X129495618Y-121508212D01*
X129620100Y-121520472D01*
X131120100Y-121520472D01*
X131244582Y-121508212D01*
X131364280Y-121471902D01*
X131474594Y-121412937D01*
X131571285Y-121333585D01*
X131650637Y-121236894D01*
X131709602Y-121126580D01*
X131745912Y-121006882D01*
X131758172Y-120882400D01*
X131758172Y-117882400D01*
X131745912Y-117757918D01*
X131709602Y-117638220D01*
X131650637Y-117527906D01*
X131571285Y-117431215D01*
X131474594Y-117351863D01*
X131364280Y-117292898D01*
X131255100Y-117259779D01*
X131255100Y-116518976D01*
X135716525Y-112057552D01*
X135718420Y-112062127D01*
X135875463Y-112297159D01*
X136075341Y-112497037D01*
X136105100Y-112516921D01*
X136105101Y-117395820D01*
X136066644Y-117434277D01*
X135902680Y-117346636D01*
X135641606Y-117267440D01*
X135370100Y-117240699D01*
X135098593Y-117267440D01*
X134837519Y-117346636D01*
X134596912Y-117475243D01*
X134386019Y-117648320D01*
X134212943Y-117859213D01*
X134084336Y-118099820D01*
X134005140Y-118360894D01*
X133985100Y-118564364D01*
X133985100Y-120200437D01*
X134005140Y-120403907D01*
X134084337Y-120664981D01*
X134212944Y-120905588D01*
X134386020Y-121116481D01*
X134596913Y-121289557D01*
X134837520Y-121418164D01*
X135098594Y-121497360D01*
X135370100Y-121524101D01*
X135641607Y-121497360D01*
X135902681Y-121418164D01*
X136143288Y-121289557D01*
X136354181Y-121116481D01*
X136527257Y-120905588D01*
X136655864Y-120664981D01*
X136735060Y-120403907D01*
X136755100Y-120200437D01*
X136755100Y-119248978D01*
X137585149Y-118418930D01*
X137618917Y-118391217D01*
X137729511Y-118256459D01*
X137811689Y-118102713D01*
X137855904Y-117956957D01*
X137862295Y-117935891D01*
X137863752Y-117921094D01*
X137875100Y-117805877D01*
X137875100Y-117805869D01*
X137879381Y-117762400D01*
X137875100Y-117718931D01*
X137875100Y-112516921D01*
X137904859Y-112497037D01*
X138104737Y-112297159D01*
X138261780Y-112062127D01*
X138369953Y-111800974D01*
X138425100Y-111523735D01*
X138425100Y-111241065D01*
X138369953Y-110963826D01*
X138261780Y-110702673D01*
X138104737Y-110467641D01*
X137904859Y-110267763D01*
X137669827Y-110110720D01*
X137665252Y-110108825D01*
X138256676Y-109517401D01*
X139616630Y-109517401D01*
X139660099Y-109521682D01*
X139703568Y-109517401D01*
X139703576Y-109517401D01*
X139833589Y-109504596D01*
X140000412Y-109453990D01*
X140154158Y-109371812D01*
X140288916Y-109261218D01*
X140316633Y-109227445D01*
X140733661Y-108810417D01*
X140768765Y-108817400D01*
X141051435Y-108817400D01*
X141328674Y-108762253D01*
X141589827Y-108654080D01*
X141824859Y-108497037D01*
X142024737Y-108297159D01*
X142180100Y-108064641D01*
X142335463Y-108297159D01*
X142535341Y-108497037D01*
X142770373Y-108654080D01*
X143031526Y-108762253D01*
X143308765Y-108817400D01*
X143591435Y-108817400D01*
X143626539Y-108810417D01*
X145269613Y-110453491D01*
X145255463Y-110467641D01*
X145098420Y-110702673D01*
X144990247Y-110963826D01*
X144935100Y-111241065D01*
X144935100Y-111523735D01*
X144990247Y-111800974D01*
X145098420Y-112062127D01*
X145255463Y-112297159D01*
X145455341Y-112497037D01*
X145690373Y-112654080D01*
X145951526Y-112762253D01*
X146228765Y-112817400D01*
X146511435Y-112817400D01*
X146735101Y-112772909D01*
X146735102Y-117244328D01*
X146620100Y-117244328D01*
X146495618Y-117256588D01*
X146375920Y-117292898D01*
X146265606Y-117351863D01*
X146168915Y-117431215D01*
X146089563Y-117527906D01*
X146030598Y-117638220D01*
X145994288Y-117757918D01*
X145982028Y-117882400D01*
X145982028Y-120882400D01*
X145994288Y-121006882D01*
X146030598Y-121126580D01*
X146089563Y-121236894D01*
X146168915Y-121333585D01*
X146265606Y-121412937D01*
X146375920Y-121471902D01*
X146495618Y-121508212D01*
X146620100Y-121520472D01*
X148120100Y-121520472D01*
X148244582Y-121508212D01*
X148364280Y-121471902D01*
X148474594Y-121412937D01*
X148571285Y-121333585D01*
X148650637Y-121236894D01*
X148709602Y-121126580D01*
X148745912Y-121006882D01*
X148758172Y-120882400D01*
X148758172Y-118564364D01*
X150985100Y-118564364D01*
X150985100Y-120200437D01*
X151005140Y-120403907D01*
X151084337Y-120664981D01*
X151212944Y-120905588D01*
X151386020Y-121116481D01*
X151596913Y-121289557D01*
X151837520Y-121418164D01*
X152098594Y-121497360D01*
X152370100Y-121524101D01*
X152641607Y-121497360D01*
X152902681Y-121418164D01*
X153143288Y-121289557D01*
X153354181Y-121116481D01*
X153527257Y-120905588D01*
X153655864Y-120664981D01*
X153735060Y-120403907D01*
X153755100Y-120200437D01*
X153755100Y-119248978D01*
X154585149Y-118418930D01*
X154618917Y-118391217D01*
X154729511Y-118256459D01*
X154811689Y-118102713D01*
X154855904Y-117956957D01*
X154862295Y-117935891D01*
X154863752Y-117921094D01*
X154875100Y-117805877D01*
X154875100Y-117805869D01*
X154879381Y-117762400D01*
X154875100Y-117718931D01*
X154875100Y-112516921D01*
X154904859Y-112497037D01*
X155104737Y-112297159D01*
X155261780Y-112062127D01*
X155369953Y-111800974D01*
X155425100Y-111523735D01*
X155425100Y-111241065D01*
X155369953Y-110963826D01*
X155261780Y-110702673D01*
X155104737Y-110467641D01*
X154904859Y-110267763D01*
X154669827Y-110110720D01*
X154408674Y-110002547D01*
X154131435Y-109947400D01*
X153848765Y-109947400D01*
X153571526Y-110002547D01*
X153310373Y-110110720D01*
X153075341Y-110267763D01*
X152875463Y-110467641D01*
X152718420Y-110702673D01*
X152610247Y-110963826D01*
X152555100Y-111241065D01*
X152555100Y-111523735D01*
X152610247Y-111800974D01*
X152718420Y-112062127D01*
X152875463Y-112297159D01*
X153075341Y-112497037D01*
X153105100Y-112516921D01*
X153105101Y-117395820D01*
X153066644Y-117434277D01*
X152902680Y-117346636D01*
X152641606Y-117267440D01*
X152370100Y-117240699D01*
X152098593Y-117267440D01*
X151837519Y-117346636D01*
X151596912Y-117475243D01*
X151386019Y-117648320D01*
X151212943Y-117859213D01*
X151084336Y-118099820D01*
X151005140Y-118360894D01*
X150985100Y-118564364D01*
X148758172Y-118564364D01*
X148758172Y-117882400D01*
X148745912Y-117757918D01*
X148709602Y-117638220D01*
X148650637Y-117527906D01*
X148571285Y-117431215D01*
X148505101Y-117376899D01*
X148505101Y-109055870D01*
X148509382Y-109012401D01*
X148505101Y-108968932D01*
X148505101Y-108968924D01*
X148492296Y-108838911D01*
X148454082Y-108712937D01*
X148441690Y-108672087D01*
X148359512Y-108518342D01*
X148276633Y-108417354D01*
X148276631Y-108417352D01*
X148248918Y-108383584D01*
X148215151Y-108355872D01*
X147418117Y-107558839D01*
X147425100Y-107523735D01*
X147425100Y-107241065D01*
X147369953Y-106963826D01*
X147261780Y-106702673D01*
X147104737Y-106467641D01*
X146904859Y-106267763D01*
X146669827Y-106110720D01*
X146408674Y-106002547D01*
X146131435Y-105947400D01*
X145848765Y-105947400D01*
X145571526Y-106002547D01*
X145310373Y-106110720D01*
X145075341Y-106267763D01*
X144875463Y-106467641D01*
X144720100Y-106700159D01*
X144564737Y-106467641D01*
X144364859Y-106267763D01*
X144129827Y-106110720D01*
X143868674Y-106002547D01*
X143591435Y-105947400D01*
X143308765Y-105947400D01*
X143031526Y-106002547D01*
X142770373Y-106110720D01*
X142535341Y-106267763D01*
X142335463Y-106467641D01*
X142180100Y-106700159D01*
X142024737Y-106467641D01*
X141824859Y-106267763D01*
X141589827Y-106110720D01*
X141328674Y-106002547D01*
X141051435Y-105947400D01*
X140768765Y-105947400D01*
X140491526Y-106002547D01*
X140230373Y-106110720D01*
X139995341Y-106267763D01*
X139796743Y-106466361D01*
X139795912Y-106457918D01*
X139759602Y-106338220D01*
X139700637Y-106227906D01*
X139621285Y-106131215D01*
X139524594Y-106051863D01*
X139414280Y-105992898D01*
X139294582Y-105956588D01*
X139170100Y-105944328D01*
X137570100Y-105944328D01*
X137445618Y-105956588D01*
X137325920Y-105992898D01*
X137215606Y-106051863D01*
X137118915Y-106131215D01*
X137039563Y-106227906D01*
X136980598Y-106338220D01*
X136944288Y-106457918D01*
X136940399Y-106497400D01*
X133413565Y-106497400D01*
X133370099Y-106493119D01*
X133326633Y-106497400D01*
X133326623Y-106497400D01*
X133196610Y-106510205D01*
X133029787Y-106560811D01*
X132876041Y-106642989D01*
X132876039Y-106642990D01*
X132876040Y-106642990D01*
X132775053Y-106725868D01*
X132775051Y-106725870D01*
X132741283Y-106753583D01*
X132713570Y-106787351D01*
X129546539Y-109954383D01*
X129511435Y-109947400D01*
X129228765Y-109947400D01*
X128951526Y-110002547D01*
X128690373Y-110110720D01*
X128455341Y-110267763D01*
X128255463Y-110467641D01*
X128098420Y-110702673D01*
X127990247Y-110963826D01*
X127935100Y-111241065D01*
X120284197Y-111241065D01*
X120351110Y-111079525D01*
X120408700Y-110789999D01*
X120408700Y-110494801D01*
X120351110Y-110205275D01*
X120238142Y-109932547D01*
X120074139Y-109687098D01*
X119865402Y-109478361D01*
X119706819Y-109372400D01*
X119865402Y-109266439D01*
X120074139Y-109057702D01*
X120238142Y-108812253D01*
X120351110Y-108539525D01*
X120408700Y-108249999D01*
X120408700Y-107954801D01*
X120351110Y-107665275D01*
X120238142Y-107392547D01*
X120074139Y-107147098D01*
X119865402Y-106938361D01*
X119706819Y-106832400D01*
X119865402Y-106726439D01*
X120074139Y-106517702D01*
X120238142Y-106272253D01*
X120351110Y-105999525D01*
X120408700Y-105709999D01*
X120408700Y-105414801D01*
X120351110Y-105125275D01*
X120238142Y-104852547D01*
X120074139Y-104607098D01*
X119865402Y-104398361D01*
X119706819Y-104292400D01*
X119865402Y-104186439D01*
X120074139Y-103977702D01*
X120238142Y-103732253D01*
X120351110Y-103459525D01*
X120408700Y-103169999D01*
X120408700Y-102874801D01*
X120351110Y-102585275D01*
X120238142Y-102312547D01*
X120074139Y-102067098D01*
X119865402Y-101858361D01*
X119706819Y-101752400D01*
X119865402Y-101646439D01*
X120074139Y-101437702D01*
X120238142Y-101192253D01*
X120351110Y-100919525D01*
X120408700Y-100629999D01*
X120408700Y-100334801D01*
X120351110Y-100045275D01*
X120238142Y-99772547D01*
X120074139Y-99527098D01*
X119865402Y-99318361D01*
X119706819Y-99212400D01*
X119865402Y-99106439D01*
X120074139Y-98897702D01*
X120238142Y-98652253D01*
X120351110Y-98379525D01*
X120408700Y-98089999D01*
X120408700Y-97794801D01*
X120351110Y-97505275D01*
X120238142Y-97232547D01*
X120074139Y-96987098D01*
X119865402Y-96778361D01*
X119706819Y-96672400D01*
X119865402Y-96566439D01*
X120074139Y-96357702D01*
X120238142Y-96112253D01*
X120351110Y-95839525D01*
X120408700Y-95549999D01*
X120408700Y-95254801D01*
X120351110Y-94965275D01*
X120238142Y-94692547D01*
X120074139Y-94447098D01*
X119865402Y-94238361D01*
X119706819Y-94132400D01*
X119865402Y-94026439D01*
X120074139Y-93817702D01*
X120238142Y-93572253D01*
X120351110Y-93299525D01*
X120408700Y-93009999D01*
X120408700Y-92714801D01*
X120351110Y-92425275D01*
X120238142Y-92152547D01*
X120235205Y-92148150D01*
X124175100Y-92148150D01*
X124184865Y-92269748D01*
X124221723Y-92389278D01*
X124281192Y-92499321D01*
X124360987Y-92595647D01*
X124458041Y-92674556D01*
X124568624Y-92733014D01*
X124688487Y-92768775D01*
X124813023Y-92780465D01*
X124834350Y-92777400D01*
X124993100Y-92618650D01*
X124993100Y-91989400D01*
X125247100Y-91989400D01*
X125247100Y-92618650D01*
X125405850Y-92777400D01*
X125427177Y-92780465D01*
X125551713Y-92768775D01*
X125671576Y-92733014D01*
X125782159Y-92674556D01*
X125879213Y-92595647D01*
X125959008Y-92499321D01*
X126018477Y-92389278D01*
X126055335Y-92269748D01*
X126065100Y-92148150D01*
X125906350Y-91989400D01*
X125247100Y-91989400D01*
X124993100Y-91989400D01*
X124333850Y-91989400D01*
X124175100Y-92148150D01*
X120235205Y-92148150D01*
X120074139Y-91907098D01*
X119865402Y-91698361D01*
X119706819Y-91592400D01*
X119865402Y-91486439D01*
X120074139Y-91277702D01*
X120238142Y-91032253D01*
X120351110Y-90759525D01*
X120408700Y-90469999D01*
X120408700Y-90174801D01*
X120351110Y-89885275D01*
X120238142Y-89612547D01*
X120074139Y-89367098D01*
X119865402Y-89158361D01*
X119706819Y-89052400D01*
X119865402Y-88946439D01*
X120074139Y-88737702D01*
X120238142Y-88492253D01*
X120351110Y-88219525D01*
X120408700Y-87929999D01*
X120408700Y-87634801D01*
X120351110Y-87345275D01*
X120287207Y-87191001D01*
X121082563Y-87191001D01*
X121030598Y-87288220D01*
X120994288Y-87407918D01*
X120982028Y-87532400D01*
X120982028Y-88032400D01*
X120984436Y-88056850D01*
X120984436Y-88081409D01*
X120996696Y-88205890D01*
X121015818Y-88302023D01*
X121052127Y-88421719D01*
X121089636Y-88512275D01*
X121148602Y-88622592D01*
X121203058Y-88704091D01*
X121282410Y-88800782D01*
X121351718Y-88870090D01*
X121448409Y-88949442D01*
X121485101Y-88973959D01*
X121485101Y-89414943D01*
X121470875Y-89441558D01*
X121426882Y-89586581D01*
X121412028Y-89737400D01*
X121412028Y-90007400D01*
X121426882Y-90158219D01*
X121470875Y-90303242D01*
X121513186Y-90382400D01*
X121470875Y-90461558D01*
X121426882Y-90606581D01*
X121412028Y-90757400D01*
X121412028Y-91027400D01*
X121426882Y-91178219D01*
X121470875Y-91323242D01*
X121542314Y-91456896D01*
X121638456Y-91574044D01*
X121755604Y-91670186D01*
X121889258Y-91741625D01*
X122034281Y-91785618D01*
X122185100Y-91800472D01*
X122555100Y-91800472D01*
X122705919Y-91785618D01*
X122733010Y-91777400D01*
X124705601Y-91777400D01*
X124798306Y-91805522D01*
X124950100Y-91820472D01*
X125290100Y-91820472D01*
X125441894Y-91805522D01*
X125587855Y-91761245D01*
X125636208Y-91735400D01*
X125906350Y-91735400D01*
X126065100Y-91576650D01*
X126055335Y-91455052D01*
X126018477Y-91335522D01*
X126013272Y-91325891D01*
X126041612Y-91232466D01*
X126490149Y-90783930D01*
X126523917Y-90756217D01*
X126552307Y-90721625D01*
X126634511Y-90621459D01*
X126716689Y-90467714D01*
X126767295Y-90300890D01*
X126770969Y-90263583D01*
X126775258Y-90220039D01*
X126873845Y-90210329D01*
X126998883Y-90172400D01*
X127171631Y-90172400D01*
X127215100Y-90176681D01*
X127258569Y-90172400D01*
X127258577Y-90172400D01*
X127388590Y-90159595D01*
X127485101Y-90130318D01*
X127485101Y-90790841D01*
X127448409Y-90815358D01*
X127351718Y-90894710D01*
X127282410Y-90964018D01*
X127203058Y-91060709D01*
X127148602Y-91142208D01*
X127089636Y-91252525D01*
X127052127Y-91343081D01*
X127015818Y-91462777D01*
X126996696Y-91558910D01*
X126984436Y-91683391D01*
X126984436Y-91707950D01*
X126982028Y-91732400D01*
X126982028Y-92232400D01*
X126994288Y-92356882D01*
X127030598Y-92476580D01*
X127089563Y-92586894D01*
X127168915Y-92683585D01*
X127265606Y-92762937D01*
X127375920Y-92821902D01*
X127495618Y-92858212D01*
X127620100Y-92870472D01*
X129120100Y-92870472D01*
X129244582Y-92858212D01*
X129364280Y-92821902D01*
X129474594Y-92762937D01*
X129571285Y-92683585D01*
X129650637Y-92586894D01*
X129709602Y-92476580D01*
X129745912Y-92356882D01*
X129758172Y-92232400D01*
X129758172Y-91732400D01*
X129755764Y-91707950D01*
X129755764Y-91683391D01*
X129743504Y-91558910D01*
X129724382Y-91462777D01*
X129688073Y-91343081D01*
X129658991Y-91272869D01*
X129992064Y-91605942D01*
X129984436Y-91683391D01*
X129984436Y-91707950D01*
X129982028Y-91732400D01*
X129982028Y-92232400D01*
X129994288Y-92356882D01*
X130030598Y-92476580D01*
X130089563Y-92586894D01*
X130168915Y-92683585D01*
X130265606Y-92762937D01*
X130375920Y-92821902D01*
X130495618Y-92858212D01*
X130620100Y-92870472D01*
X132120100Y-92870472D01*
X132244582Y-92858212D01*
X132364280Y-92821902D01*
X132474594Y-92762937D01*
X132571285Y-92683585D01*
X132650637Y-92586894D01*
X132709602Y-92476580D01*
X132745912Y-92356882D01*
X132758172Y-92232400D01*
X132758172Y-91732400D01*
X132755764Y-91707950D01*
X132755764Y-91683391D01*
X132743504Y-91558910D01*
X132724382Y-91462777D01*
X132688073Y-91343081D01*
X132658991Y-91272869D01*
X132992064Y-91605942D01*
X132984436Y-91683391D01*
X132984436Y-91707950D01*
X132982028Y-91732400D01*
X132982028Y-92232400D01*
X132994288Y-92356882D01*
X133030598Y-92476580D01*
X133089563Y-92586894D01*
X133168915Y-92683585D01*
X133265606Y-92762937D01*
X133375920Y-92821902D01*
X133495618Y-92858212D01*
X133620100Y-92870472D01*
X135120100Y-92870472D01*
X135244582Y-92858212D01*
X135364280Y-92821902D01*
X135474594Y-92762937D01*
X135571285Y-92683585D01*
X135650637Y-92586894D01*
X135709602Y-92476580D01*
X135745912Y-92356882D01*
X135758172Y-92232400D01*
X135758172Y-91732400D01*
X135755764Y-91707950D01*
X135755764Y-91683391D01*
X135743504Y-91558910D01*
X135724382Y-91462777D01*
X135688073Y-91343081D01*
X135650564Y-91252525D01*
X135591598Y-91142208D01*
X135537142Y-91060709D01*
X135457790Y-90964018D01*
X135388482Y-90894710D01*
X135291791Y-90815358D01*
X135210292Y-90760902D01*
X135099975Y-90701936D01*
X135009419Y-90664427D01*
X134889723Y-90628118D01*
X134793590Y-90608996D01*
X134669109Y-90596736D01*
X134644550Y-90596736D01*
X134620100Y-90594328D01*
X134483607Y-90594328D01*
X134158193Y-90268914D01*
X134173565Y-90267400D01*
X139235579Y-90267400D01*
X139255463Y-90297159D01*
X139455341Y-90497037D01*
X139690373Y-90654080D01*
X139951526Y-90762253D01*
X140228765Y-90817400D01*
X140511435Y-90817400D01*
X140788674Y-90762253D01*
X141049827Y-90654080D01*
X141284859Y-90497037D01*
X141484737Y-90297159D01*
X141504621Y-90267400D01*
X143235579Y-90267400D01*
X143255463Y-90297159D01*
X143455341Y-90497037D01*
X143690373Y-90654080D01*
X143951526Y-90762253D01*
X144228765Y-90817400D01*
X144511435Y-90817400D01*
X144788674Y-90762253D01*
X145049827Y-90654080D01*
X145284859Y-90497037D01*
X145484737Y-90297159D01*
X145641780Y-90062127D01*
X145749953Y-89800974D01*
X145805100Y-89523735D01*
X145805100Y-89241065D01*
X145749953Y-88963826D01*
X145641780Y-88702673D01*
X145484737Y-88467641D01*
X145284859Y-88267763D01*
X145049827Y-88110720D01*
X144788674Y-88002547D01*
X144511435Y-87947400D01*
X144228765Y-87947400D01*
X143951526Y-88002547D01*
X143690373Y-88110720D01*
X143455341Y-88267763D01*
X143255463Y-88467641D01*
X143235579Y-88497400D01*
X141504621Y-88497400D01*
X141484737Y-88467641D01*
X141284859Y-88267763D01*
X141049827Y-88110720D01*
X140788674Y-88002547D01*
X140511435Y-87947400D01*
X140228765Y-87947400D01*
X139951526Y-88002547D01*
X139690373Y-88110720D01*
X139455341Y-88267763D01*
X139255463Y-88467641D01*
X139235579Y-88497400D01*
X134765100Y-88497400D01*
X134765100Y-88245310D01*
X134773318Y-88218219D01*
X134788172Y-88067400D01*
X134788172Y-87697400D01*
X134773318Y-87546581D01*
X134765100Y-87519490D01*
X134765100Y-86995310D01*
X134773318Y-86968219D01*
X134788172Y-86817400D01*
X134788172Y-86447400D01*
X134773318Y-86296581D01*
X134729325Y-86151558D01*
X134657886Y-86017904D01*
X134561744Y-85900756D01*
X134444596Y-85804614D01*
X134415867Y-85789258D01*
X132613965Y-83987357D01*
X132586248Y-83953584D01*
X132451490Y-83842990D01*
X132297744Y-83760812D01*
X132130921Y-83710206D01*
X132000908Y-83697401D01*
X132000900Y-83697401D01*
X131957431Y-83693120D01*
X131913962Y-83697401D01*
X127713568Y-83697401D01*
X127670099Y-83693120D01*
X127626630Y-83697401D01*
X127626622Y-83697401D01*
X127496609Y-83710206D01*
X127329786Y-83760812D01*
X127176040Y-83842990D01*
X127041282Y-83953584D01*
X127013565Y-83987357D01*
X126961177Y-84039745D01*
X126927211Y-84053814D01*
X126774072Y-84156138D01*
X126643838Y-84286372D01*
X126541514Y-84439511D01*
X126500169Y-84539328D01*
X125956975Y-84539328D01*
X125952347Y-84536854D01*
X125809086Y-84493397D01*
X125697433Y-84482400D01*
X125697422Y-84482400D01*
X125660100Y-84478724D01*
X125622778Y-84482400D01*
X120204635Y-84482400D01*
X120074139Y-84287098D01*
X119865402Y-84078361D01*
X119706819Y-83972400D01*
X119865402Y-83866439D01*
X120074139Y-83657702D01*
X120238142Y-83412253D01*
X120351110Y-83139525D01*
X120408700Y-82849999D01*
X120408700Y-82554801D01*
X120351110Y-82265275D01*
X120238142Y-81992547D01*
X120074139Y-81747098D01*
X119865402Y-81538361D01*
X119706819Y-81432400D01*
X119865402Y-81326439D01*
X120074139Y-81117702D01*
X120238142Y-80872253D01*
X120351110Y-80599525D01*
X120408700Y-80309999D01*
X120408700Y-80014801D01*
X120351110Y-79725275D01*
X120238142Y-79452547D01*
X120074139Y-79207098D01*
X119865402Y-78998361D01*
X119706819Y-78892400D01*
X119865402Y-78786439D01*
X120074139Y-78577702D01*
X120238142Y-78332253D01*
X120351110Y-78059525D01*
X120408700Y-77769999D01*
X120408700Y-77474801D01*
X120351110Y-77185275D01*
X120238142Y-76912547D01*
X120074139Y-76667098D01*
X119865402Y-76458361D01*
X119706819Y-76352400D01*
X119865402Y-76246439D01*
X120074139Y-76037702D01*
X120238142Y-75792253D01*
X120351110Y-75519525D01*
X120408700Y-75229999D01*
X120408700Y-74934801D01*
X120351110Y-74645275D01*
X120277432Y-74467401D01*
X139653520Y-74467401D01*
X135546539Y-78574383D01*
G37*
%TD.AperFunction*%
D27*
X124230298Y-87132400D02*
X123613291Y-87132400D01*
X123571285Y-87081215D01*
X123474594Y-87001863D01*
X123364280Y-86942898D01*
X123244582Y-86906588D01*
X123120100Y-86894328D01*
X121869635Y-86894328D01*
X122096574Y-86667390D01*
X123765289Y-86667390D01*
X124230298Y-87132400D01*
%TA.AperFunction,Conductor*%
D28*
G36*
X124230298Y-87132400D02*
G01*
X123613291Y-87132400D01*
X123571285Y-87081215D01*
X123474594Y-87001863D01*
X123364280Y-86942898D01*
X123244582Y-86906588D01*
X123120100Y-86894328D01*
X121869635Y-86894328D01*
X122096574Y-86667390D01*
X123765289Y-86667390D01*
X124230298Y-87132400D01*
G37*
%TD.AperFunction*%
D27*
X130992100Y-85604400D02*
X130972100Y-85604400D01*
X130972100Y-85624400D01*
X130718100Y-85624400D01*
X130718100Y-85604400D01*
X129393850Y-85604400D01*
X129235100Y-85763150D01*
X129232028Y-85777400D01*
X129244288Y-85901882D01*
X129280598Y-86021580D01*
X129304650Y-86066578D01*
X129275053Y-86090868D01*
X129275051Y-86090870D01*
X129241283Y-86118583D01*
X129213570Y-86152351D01*
X128255100Y-87110822D01*
X128255100Y-85467401D01*
X130992100Y-85467401D01*
X130992100Y-85604400D01*
%TA.AperFunction,Conductor*%
D28*
G36*
X130992100Y-85604400D02*
G01*
X130972100Y-85604400D01*
X130972100Y-85624400D01*
X130718100Y-85624400D01*
X130718100Y-85604400D01*
X129393850Y-85604400D01*
X129235100Y-85763150D01*
X129232028Y-85777400D01*
X129244288Y-85901882D01*
X129280598Y-86021580D01*
X129304650Y-86066578D01*
X129275053Y-86090868D01*
X129275051Y-86090870D01*
X129241283Y-86118583D01*
X129213570Y-86152351D01*
X128255100Y-87110822D01*
X128255100Y-85467401D01*
X130992100Y-85467401D01*
X130992100Y-85604400D01*
G37*
%TD.AperFunction*%
D27*
X167154706Y-57802850D02*
X167348792Y-57932534D01*
X167564448Y-58021861D01*
X167793388Y-58067400D01*
X168026812Y-58067400D01*
X168255752Y-58021861D01*
X168438831Y-57946028D01*
X168438831Y-61588780D01*
X168276954Y-61372107D01*
X168058588Y-61175583D01*
X167806078Y-61025436D01*
X167529127Y-60927437D01*
X167297100Y-61047936D01*
X167297100Y-62255400D01*
X167317100Y-62255400D01*
X167317100Y-62509400D01*
X167297100Y-62509400D01*
X167297100Y-62529400D01*
X167043100Y-62529400D01*
X167043100Y-62509400D01*
X164757100Y-62509400D01*
X164757100Y-62529400D01*
X164503100Y-62529400D01*
X164503100Y-62509400D01*
X163290250Y-62509400D01*
X163131500Y-62668150D01*
X163128428Y-63246000D01*
X163140688Y-63370482D01*
X163176998Y-63490180D01*
X163235963Y-63600494D01*
X163315315Y-63697185D01*
X163412006Y-63776537D01*
X163522320Y-63835502D01*
X163580123Y-63853036D01*
X163466061Y-63967098D01*
X163302058Y-64212547D01*
X163189090Y-64485275D01*
X163131500Y-64774801D01*
X163131500Y-65069999D01*
X163189090Y-65359525D01*
X163302058Y-65632253D01*
X163466061Y-65877702D01*
X163674798Y-66086439D01*
X163833381Y-66192400D01*
X163674798Y-66298361D01*
X163466061Y-66507098D01*
X163302058Y-66752547D01*
X163189090Y-67025275D01*
X163131500Y-67314801D01*
X163131500Y-67609999D01*
X163189090Y-67899525D01*
X163302058Y-68172253D01*
X163466061Y-68417702D01*
X163674798Y-68626439D01*
X163833381Y-68732400D01*
X163674798Y-68838361D01*
X163466061Y-69047098D01*
X163302058Y-69292547D01*
X163189090Y-69565275D01*
X163131500Y-69854801D01*
X163131500Y-70149999D01*
X163147995Y-70232926D01*
X161445500Y-71935421D01*
X161362895Y-71696312D01*
X161269914Y-71522356D01*
X161005513Y-71426592D01*
X160049705Y-72382400D01*
X160063848Y-72396543D01*
X159884243Y-72576148D01*
X159870100Y-72562005D01*
X159855958Y-72576148D01*
X159676353Y-72396543D01*
X159690495Y-72382400D01*
X158734687Y-71426592D01*
X158470286Y-71522356D01*
X158329396Y-71811971D01*
X158247716Y-72123508D01*
X158228382Y-72444995D01*
X158272139Y-72764075D01*
X158377305Y-73068488D01*
X158470286Y-73242444D01*
X158734685Y-73338207D01*
X158675481Y-73397411D01*
X156658289Y-73397411D01*
X156819018Y-73156863D01*
X156942268Y-72859312D01*
X157005100Y-72543433D01*
X157005100Y-72221367D01*
X156942268Y-71905488D01*
X156819018Y-71607937D01*
X156640087Y-71340148D01*
X156546926Y-71246987D01*
X158914292Y-71246987D01*
X159870100Y-72202795D01*
X160825908Y-71246987D01*
X160730144Y-70982586D01*
X160440529Y-70841696D01*
X160128992Y-70760016D01*
X159807505Y-70740682D01*
X159488425Y-70784439D01*
X159184012Y-70889605D01*
X159010056Y-70982586D01*
X158914292Y-71246987D01*
X156546926Y-71246987D01*
X156412352Y-71112413D01*
X156255100Y-71007341D01*
X156255100Y-67257459D01*
X156412352Y-67152387D01*
X156546926Y-67017813D01*
X158914292Y-67017813D01*
X159010056Y-67282214D01*
X159299671Y-67423104D01*
X159611208Y-67504784D01*
X159932695Y-67524118D01*
X160251775Y-67480361D01*
X160556188Y-67375195D01*
X160730144Y-67282214D01*
X160825908Y-67017813D01*
X159870100Y-66062005D01*
X158914292Y-67017813D01*
X156546926Y-67017813D01*
X156640087Y-66924652D01*
X156819018Y-66656863D01*
X156942268Y-66359312D01*
X157005100Y-66043433D01*
X157005100Y-65944995D01*
X158228382Y-65944995D01*
X158272139Y-66264075D01*
X158377305Y-66568488D01*
X158470286Y-66742444D01*
X158734687Y-66838208D01*
X159690495Y-65882400D01*
X160049705Y-65882400D01*
X161005513Y-66838208D01*
X161269914Y-66742444D01*
X161410804Y-66452829D01*
X161492484Y-66141292D01*
X161511818Y-65819805D01*
X161468061Y-65500725D01*
X161362895Y-65196312D01*
X161269914Y-65022356D01*
X161005513Y-64926592D01*
X160049705Y-65882400D01*
X159690495Y-65882400D01*
X158734687Y-64926592D01*
X158470286Y-65022356D01*
X158329396Y-65311971D01*
X158247716Y-65623508D01*
X158228382Y-65944995D01*
X157005100Y-65944995D01*
X157005100Y-65721367D01*
X156942268Y-65405488D01*
X156819018Y-65107937D01*
X156640087Y-64840148D01*
X156546926Y-64746987D01*
X158914292Y-64746987D01*
X159870100Y-65702795D01*
X160825908Y-64746987D01*
X160730144Y-64482586D01*
X160440529Y-64341696D01*
X160128992Y-64260016D01*
X159807505Y-64240682D01*
X159488425Y-64284439D01*
X159184012Y-64389605D01*
X159010056Y-64482586D01*
X158914292Y-64746987D01*
X156546926Y-64746987D01*
X156412352Y-64612413D01*
X156144563Y-64433482D01*
X155847012Y-64310232D01*
X155531133Y-64247400D01*
X155209067Y-64247400D01*
X155110223Y-64267061D01*
X156485070Y-62892214D01*
X157858484Y-61518800D01*
X163128428Y-61518800D01*
X163131500Y-62096650D01*
X163290250Y-62255400D01*
X164503100Y-62255400D01*
X164503100Y-61042550D01*
X164757100Y-61042550D01*
X164757100Y-62255400D01*
X167043100Y-62255400D01*
X167043100Y-61047936D01*
X166811073Y-60927437D01*
X166534122Y-61025436D01*
X166281612Y-61175583D01*
X166102153Y-61337092D01*
X166083202Y-61274620D01*
X166024237Y-61164306D01*
X165944885Y-61067615D01*
X165848194Y-60988263D01*
X165737880Y-60929298D01*
X165618182Y-60892988D01*
X165493700Y-60880728D01*
X164915850Y-60883800D01*
X164757100Y-61042550D01*
X164503100Y-61042550D01*
X164344350Y-60883800D01*
X163766500Y-60880728D01*
X163642018Y-60892988D01*
X163522320Y-60929298D01*
X163412006Y-60988263D01*
X163315315Y-61067615D01*
X163235963Y-61164306D01*
X163176998Y-61274620D01*
X163140688Y-61394318D01*
X163128428Y-61518800D01*
X157858484Y-61518800D01*
X159015152Y-60362133D01*
X159048918Y-60334422D01*
X159076632Y-60300652D01*
X161609885Y-57767400D01*
X163632028Y-57767400D01*
X163632028Y-57982400D01*
X163644288Y-58106882D01*
X163680598Y-58226580D01*
X163739563Y-58336894D01*
X163818915Y-58433585D01*
X163915606Y-58512937D01*
X164025920Y-58571902D01*
X164145618Y-58608212D01*
X164270100Y-58620472D01*
X166470100Y-58620472D01*
X166594582Y-58608212D01*
X166714280Y-58571902D01*
X166824594Y-58512937D01*
X166921285Y-58433585D01*
X167000637Y-58336894D01*
X167059602Y-58226580D01*
X167095912Y-58106882D01*
X167108172Y-57982400D01*
X167108172Y-57756316D01*
X167154706Y-57802850D01*
%TA.AperFunction,Conductor*%
D28*
G36*
X167154706Y-57802850D02*
G01*
X167348792Y-57932534D01*
X167564448Y-58021861D01*
X167793388Y-58067400D01*
X168026812Y-58067400D01*
X168255752Y-58021861D01*
X168438831Y-57946028D01*
X168438831Y-61588780D01*
X168276954Y-61372107D01*
X168058588Y-61175583D01*
X167806078Y-61025436D01*
X167529127Y-60927437D01*
X167297100Y-61047936D01*
X167297100Y-62255400D01*
X167317100Y-62255400D01*
X167317100Y-62509400D01*
X167297100Y-62509400D01*
X167297100Y-62529400D01*
X167043100Y-62529400D01*
X167043100Y-62509400D01*
X164757100Y-62509400D01*
X164757100Y-62529400D01*
X164503100Y-62529400D01*
X164503100Y-62509400D01*
X163290250Y-62509400D01*
X163131500Y-62668150D01*
X163128428Y-63246000D01*
X163140688Y-63370482D01*
X163176998Y-63490180D01*
X163235963Y-63600494D01*
X163315315Y-63697185D01*
X163412006Y-63776537D01*
X163522320Y-63835502D01*
X163580123Y-63853036D01*
X163466061Y-63967098D01*
X163302058Y-64212547D01*
X163189090Y-64485275D01*
X163131500Y-64774801D01*
X163131500Y-65069999D01*
X163189090Y-65359525D01*
X163302058Y-65632253D01*
X163466061Y-65877702D01*
X163674798Y-66086439D01*
X163833381Y-66192400D01*
X163674798Y-66298361D01*
X163466061Y-66507098D01*
X163302058Y-66752547D01*
X163189090Y-67025275D01*
X163131500Y-67314801D01*
X163131500Y-67609999D01*
X163189090Y-67899525D01*
X163302058Y-68172253D01*
X163466061Y-68417702D01*
X163674798Y-68626439D01*
X163833381Y-68732400D01*
X163674798Y-68838361D01*
X163466061Y-69047098D01*
X163302058Y-69292547D01*
X163189090Y-69565275D01*
X163131500Y-69854801D01*
X163131500Y-70149999D01*
X163147995Y-70232926D01*
X161445500Y-71935421D01*
X161362895Y-71696312D01*
X161269914Y-71522356D01*
X161005513Y-71426592D01*
X160049705Y-72382400D01*
X160063848Y-72396543D01*
X159884243Y-72576148D01*
X159870100Y-72562005D01*
X159855958Y-72576148D01*
X159676353Y-72396543D01*
X159690495Y-72382400D01*
X158734687Y-71426592D01*
X158470286Y-71522356D01*
X158329396Y-71811971D01*
X158247716Y-72123508D01*
X158228382Y-72444995D01*
X158272139Y-72764075D01*
X158377305Y-73068488D01*
X158470286Y-73242444D01*
X158734685Y-73338207D01*
X158675481Y-73397411D01*
X156658289Y-73397411D01*
X156819018Y-73156863D01*
X156942268Y-72859312D01*
X157005100Y-72543433D01*
X157005100Y-72221367D01*
X156942268Y-71905488D01*
X156819018Y-71607937D01*
X156640087Y-71340148D01*
X156546926Y-71246987D01*
X158914292Y-71246987D01*
X159870100Y-72202795D01*
X160825908Y-71246987D01*
X160730144Y-70982586D01*
X160440529Y-70841696D01*
X160128992Y-70760016D01*
X159807505Y-70740682D01*
X159488425Y-70784439D01*
X159184012Y-70889605D01*
X159010056Y-70982586D01*
X158914292Y-71246987D01*
X156546926Y-71246987D01*
X156412352Y-71112413D01*
X156255100Y-71007341D01*
X156255100Y-67257459D01*
X156412352Y-67152387D01*
X156546926Y-67017813D01*
X158914292Y-67017813D01*
X159010056Y-67282214D01*
X159299671Y-67423104D01*
X159611208Y-67504784D01*
X159932695Y-67524118D01*
X160251775Y-67480361D01*
X160556188Y-67375195D01*
X160730144Y-67282214D01*
X160825908Y-67017813D01*
X159870100Y-66062005D01*
X158914292Y-67017813D01*
X156546926Y-67017813D01*
X156640087Y-66924652D01*
X156819018Y-66656863D01*
X156942268Y-66359312D01*
X157005100Y-66043433D01*
X157005100Y-65944995D01*
X158228382Y-65944995D01*
X158272139Y-66264075D01*
X158377305Y-66568488D01*
X158470286Y-66742444D01*
X158734687Y-66838208D01*
X159690495Y-65882400D01*
X160049705Y-65882400D01*
X161005513Y-66838208D01*
X161269914Y-66742444D01*
X161410804Y-66452829D01*
X161492484Y-66141292D01*
X161511818Y-65819805D01*
X161468061Y-65500725D01*
X161362895Y-65196312D01*
X161269914Y-65022356D01*
X161005513Y-64926592D01*
X160049705Y-65882400D01*
X159690495Y-65882400D01*
X158734687Y-64926592D01*
X158470286Y-65022356D01*
X158329396Y-65311971D01*
X158247716Y-65623508D01*
X158228382Y-65944995D01*
X157005100Y-65944995D01*
X157005100Y-65721367D01*
X156942268Y-65405488D01*
X156819018Y-65107937D01*
X156640087Y-64840148D01*
X156546926Y-64746987D01*
X158914292Y-64746987D01*
X159870100Y-65702795D01*
X160825908Y-64746987D01*
X160730144Y-64482586D01*
X160440529Y-64341696D01*
X160128992Y-64260016D01*
X159807505Y-64240682D01*
X159488425Y-64284439D01*
X159184012Y-64389605D01*
X159010056Y-64482586D01*
X158914292Y-64746987D01*
X156546926Y-64746987D01*
X156412352Y-64612413D01*
X156144563Y-64433482D01*
X155847012Y-64310232D01*
X155531133Y-64247400D01*
X155209067Y-64247400D01*
X155110223Y-64267061D01*
X156485070Y-62892214D01*
X157858484Y-61518800D01*
X163128428Y-61518800D01*
X163131500Y-62096650D01*
X163290250Y-62255400D01*
X164503100Y-62255400D01*
X164503100Y-61042550D01*
X164757100Y-61042550D01*
X164757100Y-62255400D01*
X167043100Y-62255400D01*
X167043100Y-61047936D01*
X166811073Y-60927437D01*
X166534122Y-61025436D01*
X166281612Y-61175583D01*
X166102153Y-61337092D01*
X166083202Y-61274620D01*
X166024237Y-61164306D01*
X165944885Y-61067615D01*
X165848194Y-60988263D01*
X165737880Y-60929298D01*
X165618182Y-60892988D01*
X165493700Y-60880728D01*
X164915850Y-60883800D01*
X164757100Y-61042550D01*
X164503100Y-61042550D01*
X164344350Y-60883800D01*
X163766500Y-60880728D01*
X163642018Y-60892988D01*
X163522320Y-60929298D01*
X163412006Y-60988263D01*
X163315315Y-61067615D01*
X163235963Y-61164306D01*
X163176998Y-61274620D01*
X163140688Y-61394318D01*
X163128428Y-61518800D01*
X157858484Y-61518800D01*
X159015152Y-60362133D01*
X159048918Y-60334422D01*
X159076632Y-60300652D01*
X161609885Y-57767400D01*
X163632028Y-57767400D01*
X163632028Y-57982400D01*
X163644288Y-58106882D01*
X163680598Y-58226580D01*
X163739563Y-58336894D01*
X163818915Y-58433585D01*
X163915606Y-58512937D01*
X164025920Y-58571902D01*
X164145618Y-58608212D01*
X164270100Y-58620472D01*
X166470100Y-58620472D01*
X166594582Y-58608212D01*
X166714280Y-58571902D01*
X166824594Y-58512937D01*
X166921285Y-58433585D01*
X167000637Y-58336894D01*
X167059602Y-58226580D01*
X167095912Y-58106882D01*
X167108172Y-57982400D01*
X167108172Y-57756316D01*
X167154706Y-57802850D01*
G37*
%TD.AperFunction*%
D27*
X130275101Y-61628921D02*
X130270819Y-61672400D01*
X130287905Y-61845890D01*
X130338512Y-62012713D01*
X130420690Y-62166459D01*
X130503568Y-62267446D01*
X130503571Y-62267449D01*
X130531284Y-62301217D01*
X130565051Y-62328929D01*
X133569850Y-65333729D01*
X133597563Y-65367497D01*
X133631331Y-65395210D01*
X133631333Y-65395212D01*
X133732320Y-65478090D01*
X133732321Y-65478091D01*
X133886067Y-65560269D01*
X134052890Y-65610875D01*
X134182903Y-65623680D01*
X134182911Y-65623680D01*
X134226380Y-65627961D01*
X134269849Y-65623680D01*
X134431117Y-65623680D01*
X134391595Y-65650088D01*
X134177788Y-65863895D01*
X134009801Y-66115305D01*
X133894089Y-66394657D01*
X133835100Y-66691216D01*
X133835100Y-66993584D01*
X133894089Y-67290143D01*
X134009801Y-67569495D01*
X134177788Y-67820905D01*
X134244227Y-67887344D01*
X134225920Y-67892898D01*
X134115606Y-67951863D01*
X134018915Y-68031215D01*
X133939563Y-68127906D01*
X133880598Y-68238220D01*
X133844288Y-68357918D01*
X133832028Y-68482400D01*
X133832028Y-70282400D01*
X133844288Y-70406882D01*
X133880598Y-70526580D01*
X133939563Y-70636894D01*
X134018915Y-70733585D01*
X134115606Y-70812937D01*
X134225920Y-70871902D01*
X134345618Y-70908212D01*
X134470100Y-70920472D01*
X134485101Y-70920472D01*
X134485101Y-71247878D01*
X134455341Y-71267763D01*
X134255463Y-71467641D01*
X134098420Y-71702673D01*
X133990247Y-71963826D01*
X133935100Y-72241065D01*
X133935100Y-72523735D01*
X133990247Y-72800974D01*
X134050899Y-72947401D01*
X131412227Y-72947401D01*
X131492484Y-72641292D01*
X131511818Y-72319805D01*
X131468061Y-72000725D01*
X131362895Y-71696312D01*
X131269914Y-71522356D01*
X131005513Y-71426592D01*
X130049705Y-72382400D01*
X130063848Y-72396543D01*
X129884243Y-72576148D01*
X129870100Y-72562005D01*
X129855958Y-72576148D01*
X129676353Y-72396543D01*
X129690495Y-72382400D01*
X128734687Y-71426592D01*
X128470286Y-71522356D01*
X128329396Y-71811971D01*
X128247716Y-72123508D01*
X128228382Y-72444995D01*
X128272139Y-72764075D01*
X128335473Y-72947401D01*
X126905780Y-72947401D01*
X126942268Y-72859312D01*
X127005100Y-72543433D01*
X127005100Y-72221367D01*
X126942268Y-71905488D01*
X126819018Y-71607937D01*
X126640087Y-71340148D01*
X126546926Y-71246987D01*
X128914292Y-71246987D01*
X129870100Y-72202795D01*
X130825908Y-71246987D01*
X130730144Y-70982586D01*
X130440529Y-70841696D01*
X130128992Y-70760016D01*
X129807505Y-70740682D01*
X129488425Y-70784439D01*
X129184012Y-70889605D01*
X129010056Y-70982586D01*
X128914292Y-71246987D01*
X126546926Y-71246987D01*
X126412352Y-71112413D01*
X126255100Y-71007341D01*
X126255100Y-67257459D01*
X126412352Y-67152387D01*
X126546926Y-67017813D01*
X128914292Y-67017813D01*
X129010056Y-67282214D01*
X129299671Y-67423104D01*
X129611208Y-67504784D01*
X129932695Y-67524118D01*
X130251775Y-67480361D01*
X130556188Y-67375195D01*
X130730144Y-67282214D01*
X130825908Y-67017813D01*
X129870100Y-66062005D01*
X128914292Y-67017813D01*
X126546926Y-67017813D01*
X126640087Y-66924652D01*
X126819018Y-66656863D01*
X126942268Y-66359312D01*
X127005100Y-66043433D01*
X127005100Y-65944995D01*
X128228382Y-65944995D01*
X128272139Y-66264075D01*
X128377305Y-66568488D01*
X128470286Y-66742444D01*
X128734687Y-66838208D01*
X129690495Y-65882400D01*
X130049705Y-65882400D01*
X131005513Y-66838208D01*
X131269914Y-66742444D01*
X131410804Y-66452829D01*
X131492484Y-66141292D01*
X131511818Y-65819805D01*
X131468061Y-65500725D01*
X131362895Y-65196312D01*
X131269914Y-65022356D01*
X131005513Y-64926592D01*
X130049705Y-65882400D01*
X129690495Y-65882400D01*
X128734687Y-64926592D01*
X128470286Y-65022356D01*
X128329396Y-65311971D01*
X128247716Y-65623508D01*
X128228382Y-65944995D01*
X127005100Y-65944995D01*
X127005100Y-65721367D01*
X126942268Y-65405488D01*
X126819018Y-65107937D01*
X126640087Y-64840148D01*
X126546926Y-64746987D01*
X128914292Y-64746987D01*
X129870100Y-65702795D01*
X130825908Y-64746987D01*
X130730144Y-64482586D01*
X130440529Y-64341696D01*
X130128992Y-64260016D01*
X129807505Y-64240682D01*
X129488425Y-64284439D01*
X129184012Y-64389605D01*
X129010056Y-64482586D01*
X128914292Y-64746987D01*
X126546926Y-64746987D01*
X126412352Y-64612413D01*
X126144563Y-64433482D01*
X125847012Y-64310232D01*
X125531133Y-64247400D01*
X125296678Y-64247400D01*
X130275100Y-59268978D01*
X130275101Y-61628921D01*
%TA.AperFunction,Conductor*%
D28*
G36*
X130275101Y-61628921D02*
G01*
X130270819Y-61672400D01*
X130287905Y-61845890D01*
X130338512Y-62012713D01*
X130420690Y-62166459D01*
X130503568Y-62267446D01*
X130503571Y-62267449D01*
X130531284Y-62301217D01*
X130565051Y-62328929D01*
X133569850Y-65333729D01*
X133597563Y-65367497D01*
X133631331Y-65395210D01*
X133631333Y-65395212D01*
X133732320Y-65478090D01*
X133732321Y-65478091D01*
X133886067Y-65560269D01*
X134052890Y-65610875D01*
X134182903Y-65623680D01*
X134182911Y-65623680D01*
X134226380Y-65627961D01*
X134269849Y-65623680D01*
X134431117Y-65623680D01*
X134391595Y-65650088D01*
X134177788Y-65863895D01*
X134009801Y-66115305D01*
X133894089Y-66394657D01*
X133835100Y-66691216D01*
X133835100Y-66993584D01*
X133894089Y-67290143D01*
X134009801Y-67569495D01*
X134177788Y-67820905D01*
X134244227Y-67887344D01*
X134225920Y-67892898D01*
X134115606Y-67951863D01*
X134018915Y-68031215D01*
X133939563Y-68127906D01*
X133880598Y-68238220D01*
X133844288Y-68357918D01*
X133832028Y-68482400D01*
X133832028Y-70282400D01*
X133844288Y-70406882D01*
X133880598Y-70526580D01*
X133939563Y-70636894D01*
X134018915Y-70733585D01*
X134115606Y-70812937D01*
X134225920Y-70871902D01*
X134345618Y-70908212D01*
X134470100Y-70920472D01*
X134485101Y-70920472D01*
X134485101Y-71247878D01*
X134455341Y-71267763D01*
X134255463Y-71467641D01*
X134098420Y-71702673D01*
X133990247Y-71963826D01*
X133935100Y-72241065D01*
X133935100Y-72523735D01*
X133990247Y-72800974D01*
X134050899Y-72947401D01*
X131412227Y-72947401D01*
X131492484Y-72641292D01*
X131511818Y-72319805D01*
X131468061Y-72000725D01*
X131362895Y-71696312D01*
X131269914Y-71522356D01*
X131005513Y-71426592D01*
X130049705Y-72382400D01*
X130063848Y-72396543D01*
X129884243Y-72576148D01*
X129870100Y-72562005D01*
X129855958Y-72576148D01*
X129676353Y-72396543D01*
X129690495Y-72382400D01*
X128734687Y-71426592D01*
X128470286Y-71522356D01*
X128329396Y-71811971D01*
X128247716Y-72123508D01*
X128228382Y-72444995D01*
X128272139Y-72764075D01*
X128335473Y-72947401D01*
X126905780Y-72947401D01*
X126942268Y-72859312D01*
X127005100Y-72543433D01*
X127005100Y-72221367D01*
X126942268Y-71905488D01*
X126819018Y-71607937D01*
X126640087Y-71340148D01*
X126546926Y-71246987D01*
X128914292Y-71246987D01*
X129870100Y-72202795D01*
X130825908Y-71246987D01*
X130730144Y-70982586D01*
X130440529Y-70841696D01*
X130128992Y-70760016D01*
X129807505Y-70740682D01*
X129488425Y-70784439D01*
X129184012Y-70889605D01*
X129010056Y-70982586D01*
X128914292Y-71246987D01*
X126546926Y-71246987D01*
X126412352Y-71112413D01*
X126255100Y-71007341D01*
X126255100Y-67257459D01*
X126412352Y-67152387D01*
X126546926Y-67017813D01*
X128914292Y-67017813D01*
X129010056Y-67282214D01*
X129299671Y-67423104D01*
X129611208Y-67504784D01*
X129932695Y-67524118D01*
X130251775Y-67480361D01*
X130556188Y-67375195D01*
X130730144Y-67282214D01*
X130825908Y-67017813D01*
X129870100Y-66062005D01*
X128914292Y-67017813D01*
X126546926Y-67017813D01*
X126640087Y-66924652D01*
X126819018Y-66656863D01*
X126942268Y-66359312D01*
X127005100Y-66043433D01*
X127005100Y-65944995D01*
X128228382Y-65944995D01*
X128272139Y-66264075D01*
X128377305Y-66568488D01*
X128470286Y-66742444D01*
X128734687Y-66838208D01*
X129690495Y-65882400D01*
X130049705Y-65882400D01*
X131005513Y-66838208D01*
X131269914Y-66742444D01*
X131410804Y-66452829D01*
X131492484Y-66141292D01*
X131511818Y-65819805D01*
X131468061Y-65500725D01*
X131362895Y-65196312D01*
X131269914Y-65022356D01*
X131005513Y-64926592D01*
X130049705Y-65882400D01*
X129690495Y-65882400D01*
X128734687Y-64926592D01*
X128470286Y-65022356D01*
X128329396Y-65311971D01*
X128247716Y-65623508D01*
X128228382Y-65944995D01*
X127005100Y-65944995D01*
X127005100Y-65721367D01*
X126942268Y-65405488D01*
X126819018Y-65107937D01*
X126640087Y-64840148D01*
X126546926Y-64746987D01*
X128914292Y-64746987D01*
X129870100Y-65702795D01*
X130825908Y-64746987D01*
X130730144Y-64482586D01*
X130440529Y-64341696D01*
X130128992Y-64260016D01*
X129807505Y-64240682D01*
X129488425Y-64284439D01*
X129184012Y-64389605D01*
X129010056Y-64482586D01*
X128914292Y-64746987D01*
X126546926Y-64746987D01*
X126412352Y-64612413D01*
X126144563Y-64433482D01*
X125847012Y-64310232D01*
X125531133Y-64247400D01*
X125296678Y-64247400D01*
X130275100Y-59268978D01*
X130275101Y-61628921D01*
G37*
%TD.AperFunction*%
D27*
X134783830Y-63853680D02*
X134592959Y-63853680D01*
X132045100Y-61305822D01*
X132045100Y-58507459D01*
X132202352Y-58402387D01*
X132430087Y-58174652D01*
X132609018Y-57906863D01*
X132732268Y-57609312D01*
X132795100Y-57293433D01*
X132795100Y-56971367D01*
X132732268Y-56655488D01*
X132609018Y-56357937D01*
X132430087Y-56090148D01*
X132202352Y-55862413D01*
X131934563Y-55683482D01*
X131637012Y-55560232D01*
X131321133Y-55497400D01*
X130999067Y-55497400D01*
X130683188Y-55560232D01*
X130385637Y-55683482D01*
X130117848Y-55862413D01*
X129890113Y-56090148D01*
X129817380Y-56199000D01*
X129755513Y-56176592D01*
X128799705Y-57132400D01*
X128813848Y-57146543D01*
X128634243Y-57326148D01*
X128620100Y-57312005D01*
X127664292Y-58267813D01*
X127760056Y-58532214D01*
X128049671Y-58673104D01*
X128301731Y-58739190D01*
X123493523Y-63547399D01*
X121983570Y-63547399D01*
X121940101Y-63543118D01*
X121896632Y-63547399D01*
X121896624Y-63547399D01*
X121766611Y-63560204D01*
X121599787Y-63610810D01*
X121446042Y-63692988D01*
X121345054Y-63775867D01*
X121345052Y-63775869D01*
X121311284Y-63803582D01*
X121283571Y-63837350D01*
X120398317Y-64722604D01*
X120351110Y-64485275D01*
X120238142Y-64212547D01*
X120074139Y-63967098D01*
X119865402Y-63758361D01*
X119699997Y-63647841D01*
X119798588Y-63589217D01*
X120016954Y-63392693D01*
X120192784Y-63157344D01*
X120319322Y-62892214D01*
X120365058Y-62741426D01*
X120243917Y-62509400D01*
X119037100Y-62509400D01*
X119037100Y-62529400D01*
X118783100Y-62529400D01*
X118783100Y-62509400D01*
X116497100Y-62509400D01*
X116497100Y-62529400D01*
X116243100Y-62529400D01*
X116243100Y-62509400D01*
X116223100Y-62509400D01*
X116223100Y-62255400D01*
X116243100Y-62255400D01*
X116243100Y-61042550D01*
X116497100Y-61042550D01*
X116497100Y-62255400D01*
X118783100Y-62255400D01*
X118783100Y-61047936D01*
X119037100Y-61047936D01*
X119037100Y-62255400D01*
X120243917Y-62255400D01*
X120365058Y-62023374D01*
X120319322Y-61872586D01*
X120192784Y-61607456D01*
X120016954Y-61372107D01*
X119798588Y-61175583D01*
X119546078Y-61025436D01*
X119269127Y-60927437D01*
X119037100Y-61047936D01*
X118783100Y-61047936D01*
X118551073Y-60927437D01*
X118274122Y-61025436D01*
X118021612Y-61175583D01*
X117842153Y-61337092D01*
X117823202Y-61274620D01*
X117764237Y-61164306D01*
X117684885Y-61067615D01*
X117588194Y-60988263D01*
X117477880Y-60929298D01*
X117358182Y-60892988D01*
X117233700Y-60880728D01*
X116655850Y-60883800D01*
X116497100Y-61042550D01*
X116243100Y-61042550D01*
X116084350Y-60883800D01*
X115506500Y-60880728D01*
X115382018Y-60892988D01*
X115262320Y-60929298D01*
X115152006Y-60988263D01*
X115101370Y-61029819D01*
X115101370Y-57110666D01*
X115268792Y-57222534D01*
X115484448Y-57311861D01*
X115713388Y-57357400D01*
X115946812Y-57357400D01*
X116175752Y-57311861D01*
X116391408Y-57222534D01*
X116585494Y-57092850D01*
X116750550Y-56927794D01*
X116784190Y-56877448D01*
X116832563Y-56994231D01*
X117022437Y-57278398D01*
X117264102Y-57520063D01*
X117548269Y-57709937D01*
X117864019Y-57840725D01*
X118199217Y-57907400D01*
X118540983Y-57907400D01*
X118876181Y-57840725D01*
X119191931Y-57709937D01*
X119476098Y-57520063D01*
X119717763Y-57278398D01*
X119865429Y-57057400D01*
X119882265Y-57057400D01*
X119925734Y-57061681D01*
X119969203Y-57057400D01*
X119969211Y-57057400D01*
X120099224Y-57044595D01*
X120266047Y-56993989D01*
X120308370Y-56971367D01*
X124445100Y-56971367D01*
X124445100Y-57293433D01*
X124507932Y-57609312D01*
X124631182Y-57906863D01*
X124810113Y-58174652D01*
X125037848Y-58402387D01*
X125305637Y-58581318D01*
X125603188Y-58704568D01*
X125919067Y-58767400D01*
X126241133Y-58767400D01*
X126557012Y-58704568D01*
X126854563Y-58581318D01*
X127122352Y-58402387D01*
X127350087Y-58174652D01*
X127422820Y-58065800D01*
X127484687Y-58088208D01*
X128440495Y-57132400D01*
X128426353Y-57118258D01*
X128605958Y-56938653D01*
X128620100Y-56952795D01*
X129575908Y-55996987D01*
X129480144Y-55732586D01*
X129190529Y-55591696D01*
X128938469Y-55525610D01*
X132215149Y-52248930D01*
X132248917Y-52221217D01*
X132308963Y-52148052D01*
X132359510Y-52086460D01*
X132359511Y-52086459D01*
X132441689Y-51932713D01*
X132492295Y-51765890D01*
X132505100Y-51635877D01*
X132505100Y-51635867D01*
X132509381Y-51592401D01*
X132505100Y-51548935D01*
X132505100Y-48870472D01*
X132720100Y-48870472D01*
X132844582Y-48858212D01*
X132964280Y-48821902D01*
X133074594Y-48762937D01*
X133171285Y-48683585D01*
X133250637Y-48586894D01*
X133309602Y-48476580D01*
X133345912Y-48356882D01*
X133358172Y-48232400D01*
X133358172Y-46032400D01*
X133345912Y-45907918D01*
X133309602Y-45788220D01*
X133250637Y-45677906D01*
X133171285Y-45581215D01*
X133074594Y-45501863D01*
X132964280Y-45442898D01*
X132844582Y-45406588D01*
X132720100Y-45394328D01*
X130520100Y-45394328D01*
X130395618Y-45406588D01*
X130275920Y-45442898D01*
X130165606Y-45501863D01*
X130068915Y-45581215D01*
X129989563Y-45677906D01*
X129930598Y-45788220D01*
X129894288Y-45907918D01*
X129882028Y-46032400D01*
X129882028Y-48232400D01*
X129894288Y-48356882D01*
X129930598Y-48476580D01*
X129989563Y-48586894D01*
X130068915Y-48683585D01*
X130165606Y-48762937D01*
X130275920Y-48821902D01*
X130395618Y-48858212D01*
X130520100Y-48870472D01*
X130735100Y-48870472D01*
X130735101Y-51225820D01*
X126426625Y-55534297D01*
X126241133Y-55497400D01*
X125919067Y-55497400D01*
X125603188Y-55560232D01*
X125305637Y-55683482D01*
X125037848Y-55862413D01*
X124810113Y-56090148D01*
X124631182Y-56357937D01*
X124507932Y-56655488D01*
X124445100Y-56971367D01*
X120308370Y-56971367D01*
X120419793Y-56911811D01*
X120554551Y-56801217D01*
X120582268Y-56767444D01*
X122055150Y-55294563D01*
X122088917Y-55266851D01*
X122140309Y-55204231D01*
X122199510Y-55132094D01*
X122199511Y-55132093D01*
X122281689Y-54978347D01*
X122332295Y-54811524D01*
X122345100Y-54681511D01*
X122345100Y-54681501D01*
X122349381Y-54638035D01*
X122345100Y-54594569D01*
X122345100Y-48627729D01*
X122566098Y-48480063D01*
X122807763Y-48238398D01*
X122997637Y-47954231D01*
X123128425Y-47638481D01*
X123195100Y-47303283D01*
X123195100Y-46961517D01*
X123128425Y-46626319D01*
X122997637Y-46310569D01*
X122807763Y-46026402D01*
X122566098Y-45784737D01*
X122281931Y-45594863D01*
X121966181Y-45464075D01*
X121630983Y-45397400D01*
X121289217Y-45397400D01*
X120954019Y-45464075D01*
X120638269Y-45594863D01*
X120354102Y-45784737D01*
X120112437Y-46026402D01*
X119922563Y-46310569D01*
X119791775Y-46626319D01*
X119725100Y-46961517D01*
X119725100Y-47303283D01*
X119791775Y-47638481D01*
X119922563Y-47954231D01*
X120112437Y-48238398D01*
X120354102Y-48480063D01*
X120575101Y-48627729D01*
X120575100Y-54271455D01*
X120107518Y-54739037D01*
X120108172Y-54732400D01*
X120105100Y-53918150D01*
X119946350Y-53759400D01*
X118497100Y-53759400D01*
X118497100Y-53779400D01*
X118243100Y-53779400D01*
X118243100Y-53759400D01*
X118223100Y-53759400D01*
X118223100Y-53505400D01*
X118243100Y-53505400D01*
X118243100Y-52056150D01*
X118497100Y-52056150D01*
X118497100Y-53505400D01*
X119946350Y-53505400D01*
X120105100Y-53346650D01*
X120108172Y-52532400D01*
X120095912Y-52407918D01*
X120059602Y-52288220D01*
X120000637Y-52177906D01*
X119921285Y-52081215D01*
X119824594Y-52001863D01*
X119714280Y-51942898D01*
X119594582Y-51906588D01*
X119470100Y-51894328D01*
X118655850Y-51897400D01*
X118497100Y-52056150D01*
X118243100Y-52056150D01*
X118084350Y-51897400D01*
X117270100Y-51894328D01*
X117145618Y-51906588D01*
X117025920Y-51942898D01*
X116915606Y-52001863D01*
X116818915Y-52081215D01*
X116739563Y-52177906D01*
X116680598Y-52288220D01*
X116644288Y-52407918D01*
X116632028Y-52532400D01*
X116632884Y-52759340D01*
X116585494Y-52711950D01*
X116391408Y-52582266D01*
X116175752Y-52492939D01*
X115946812Y-52447400D01*
X115713388Y-52447400D01*
X115484448Y-52492939D01*
X115268792Y-52582266D01*
X115101370Y-52694134D01*
X115101370Y-49072404D01*
X115173659Y-48153882D01*
X115382891Y-47282367D01*
X115725884Y-46454311D01*
X116194188Y-45690109D01*
X116776274Y-45008574D01*
X117457809Y-44426487D01*
X118222011Y-43958184D01*
X119050069Y-43615191D01*
X119921582Y-43405959D01*
X120840104Y-43333670D01*
X134783831Y-43333670D01*
X134783830Y-63853680D01*
%TA.AperFunction,Conductor*%
D28*
G36*
X134783830Y-63853680D02*
G01*
X134592959Y-63853680D01*
X132045100Y-61305822D01*
X132045100Y-58507459D01*
X132202352Y-58402387D01*
X132430087Y-58174652D01*
X132609018Y-57906863D01*
X132732268Y-57609312D01*
X132795100Y-57293433D01*
X132795100Y-56971367D01*
X132732268Y-56655488D01*
X132609018Y-56357937D01*
X132430087Y-56090148D01*
X132202352Y-55862413D01*
X131934563Y-55683482D01*
X131637012Y-55560232D01*
X131321133Y-55497400D01*
X130999067Y-55497400D01*
X130683188Y-55560232D01*
X130385637Y-55683482D01*
X130117848Y-55862413D01*
X129890113Y-56090148D01*
X129817380Y-56199000D01*
X129755513Y-56176592D01*
X128799705Y-57132400D01*
X128813848Y-57146543D01*
X128634243Y-57326148D01*
X128620100Y-57312005D01*
X127664292Y-58267813D01*
X127760056Y-58532214D01*
X128049671Y-58673104D01*
X128301731Y-58739190D01*
X123493523Y-63547399D01*
X121983570Y-63547399D01*
X121940101Y-63543118D01*
X121896632Y-63547399D01*
X121896624Y-63547399D01*
X121766611Y-63560204D01*
X121599787Y-63610810D01*
X121446042Y-63692988D01*
X121345054Y-63775867D01*
X121345052Y-63775869D01*
X121311284Y-63803582D01*
X121283571Y-63837350D01*
X120398317Y-64722604D01*
X120351110Y-64485275D01*
X120238142Y-64212547D01*
X120074139Y-63967098D01*
X119865402Y-63758361D01*
X119699997Y-63647841D01*
X119798588Y-63589217D01*
X120016954Y-63392693D01*
X120192784Y-63157344D01*
X120319322Y-62892214D01*
X120365058Y-62741426D01*
X120243917Y-62509400D01*
X119037100Y-62509400D01*
X119037100Y-62529400D01*
X118783100Y-62529400D01*
X118783100Y-62509400D01*
X116497100Y-62509400D01*
X116497100Y-62529400D01*
X116243100Y-62529400D01*
X116243100Y-62509400D01*
X116223100Y-62509400D01*
X116223100Y-62255400D01*
X116243100Y-62255400D01*
X116243100Y-61042550D01*
X116497100Y-61042550D01*
X116497100Y-62255400D01*
X118783100Y-62255400D01*
X118783100Y-61047936D01*
X119037100Y-61047936D01*
X119037100Y-62255400D01*
X120243917Y-62255400D01*
X120365058Y-62023374D01*
X120319322Y-61872586D01*
X120192784Y-61607456D01*
X120016954Y-61372107D01*
X119798588Y-61175583D01*
X119546078Y-61025436D01*
X119269127Y-60927437D01*
X119037100Y-61047936D01*
X118783100Y-61047936D01*
X118551073Y-60927437D01*
X118274122Y-61025436D01*
X118021612Y-61175583D01*
X117842153Y-61337092D01*
X117823202Y-61274620D01*
X117764237Y-61164306D01*
X117684885Y-61067615D01*
X117588194Y-60988263D01*
X117477880Y-60929298D01*
X117358182Y-60892988D01*
X117233700Y-60880728D01*
X116655850Y-60883800D01*
X116497100Y-61042550D01*
X116243100Y-61042550D01*
X116084350Y-60883800D01*
X115506500Y-60880728D01*
X115382018Y-60892988D01*
X115262320Y-60929298D01*
X115152006Y-60988263D01*
X115101370Y-61029819D01*
X115101370Y-57110666D01*
X115268792Y-57222534D01*
X115484448Y-57311861D01*
X115713388Y-57357400D01*
X115946812Y-57357400D01*
X116175752Y-57311861D01*
X116391408Y-57222534D01*
X116585494Y-57092850D01*
X116750550Y-56927794D01*
X116784190Y-56877448D01*
X116832563Y-56994231D01*
X117022437Y-57278398D01*
X117264102Y-57520063D01*
X117548269Y-57709937D01*
X117864019Y-57840725D01*
X118199217Y-57907400D01*
X118540983Y-57907400D01*
X118876181Y-57840725D01*
X119191931Y-57709937D01*
X119476098Y-57520063D01*
X119717763Y-57278398D01*
X119865429Y-57057400D01*
X119882265Y-57057400D01*
X119925734Y-57061681D01*
X119969203Y-57057400D01*
X119969211Y-57057400D01*
X120099224Y-57044595D01*
X120266047Y-56993989D01*
X120308370Y-56971367D01*
X124445100Y-56971367D01*
X124445100Y-57293433D01*
X124507932Y-57609312D01*
X124631182Y-57906863D01*
X124810113Y-58174652D01*
X125037848Y-58402387D01*
X125305637Y-58581318D01*
X125603188Y-58704568D01*
X125919067Y-58767400D01*
X126241133Y-58767400D01*
X126557012Y-58704568D01*
X126854563Y-58581318D01*
X127122352Y-58402387D01*
X127350087Y-58174652D01*
X127422820Y-58065800D01*
X127484687Y-58088208D01*
X128440495Y-57132400D01*
X128426353Y-57118258D01*
X128605958Y-56938653D01*
X128620100Y-56952795D01*
X129575908Y-55996987D01*
X129480144Y-55732586D01*
X129190529Y-55591696D01*
X128938469Y-55525610D01*
X132215149Y-52248930D01*
X132248917Y-52221217D01*
X132308963Y-52148052D01*
X132359510Y-52086460D01*
X132359511Y-52086459D01*
X132441689Y-51932713D01*
X132492295Y-51765890D01*
X132505100Y-51635877D01*
X132505100Y-51635867D01*
X132509381Y-51592401D01*
X132505100Y-51548935D01*
X132505100Y-48870472D01*
X132720100Y-48870472D01*
X132844582Y-48858212D01*
X132964280Y-48821902D01*
X133074594Y-48762937D01*
X133171285Y-48683585D01*
X133250637Y-48586894D01*
X133309602Y-48476580D01*
X133345912Y-48356882D01*
X133358172Y-48232400D01*
X133358172Y-46032400D01*
X133345912Y-45907918D01*
X133309602Y-45788220D01*
X133250637Y-45677906D01*
X133171285Y-45581215D01*
X133074594Y-45501863D01*
X132964280Y-45442898D01*
X132844582Y-45406588D01*
X132720100Y-45394328D01*
X130520100Y-45394328D01*
X130395618Y-45406588D01*
X130275920Y-45442898D01*
X130165606Y-45501863D01*
X130068915Y-45581215D01*
X129989563Y-45677906D01*
X129930598Y-45788220D01*
X129894288Y-45907918D01*
X129882028Y-46032400D01*
X129882028Y-48232400D01*
X129894288Y-48356882D01*
X129930598Y-48476580D01*
X129989563Y-48586894D01*
X130068915Y-48683585D01*
X130165606Y-48762937D01*
X130275920Y-48821902D01*
X130395618Y-48858212D01*
X130520100Y-48870472D01*
X130735100Y-48870472D01*
X130735101Y-51225820D01*
X126426625Y-55534297D01*
X126241133Y-55497400D01*
X125919067Y-55497400D01*
X125603188Y-55560232D01*
X125305637Y-55683482D01*
X125037848Y-55862413D01*
X124810113Y-56090148D01*
X124631182Y-56357937D01*
X124507932Y-56655488D01*
X124445100Y-56971367D01*
X120308370Y-56971367D01*
X120419793Y-56911811D01*
X120554551Y-56801217D01*
X120582268Y-56767444D01*
X122055150Y-55294563D01*
X122088917Y-55266851D01*
X122140309Y-55204231D01*
X122199510Y-55132094D01*
X122199511Y-55132093D01*
X122281689Y-54978347D01*
X122332295Y-54811524D01*
X122345100Y-54681511D01*
X122345100Y-54681501D01*
X122349381Y-54638035D01*
X122345100Y-54594569D01*
X122345100Y-48627729D01*
X122566098Y-48480063D01*
X122807763Y-48238398D01*
X122997637Y-47954231D01*
X123128425Y-47638481D01*
X123195100Y-47303283D01*
X123195100Y-46961517D01*
X123128425Y-46626319D01*
X122997637Y-46310569D01*
X122807763Y-46026402D01*
X122566098Y-45784737D01*
X122281931Y-45594863D01*
X121966181Y-45464075D01*
X121630983Y-45397400D01*
X121289217Y-45397400D01*
X120954019Y-45464075D01*
X120638269Y-45594863D01*
X120354102Y-45784737D01*
X120112437Y-46026402D01*
X119922563Y-46310569D01*
X119791775Y-46626319D01*
X119725100Y-46961517D01*
X119725100Y-47303283D01*
X119791775Y-47638481D01*
X119922563Y-47954231D01*
X120112437Y-48238398D01*
X120354102Y-48480063D01*
X120575101Y-48627729D01*
X120575100Y-54271455D01*
X120107518Y-54739037D01*
X120108172Y-54732400D01*
X120105100Y-53918150D01*
X119946350Y-53759400D01*
X118497100Y-53759400D01*
X118497100Y-53779400D01*
X118243100Y-53779400D01*
X118243100Y-53759400D01*
X118223100Y-53759400D01*
X118223100Y-53505400D01*
X118243100Y-53505400D01*
X118243100Y-52056150D01*
X118497100Y-52056150D01*
X118497100Y-53505400D01*
X119946350Y-53505400D01*
X120105100Y-53346650D01*
X120108172Y-52532400D01*
X120095912Y-52407918D01*
X120059602Y-52288220D01*
X120000637Y-52177906D01*
X119921285Y-52081215D01*
X119824594Y-52001863D01*
X119714280Y-51942898D01*
X119594582Y-51906588D01*
X119470100Y-51894328D01*
X118655850Y-51897400D01*
X118497100Y-52056150D01*
X118243100Y-52056150D01*
X118084350Y-51897400D01*
X117270100Y-51894328D01*
X117145618Y-51906588D01*
X117025920Y-51942898D01*
X116915606Y-52001863D01*
X116818915Y-52081215D01*
X116739563Y-52177906D01*
X116680598Y-52288220D01*
X116644288Y-52407918D01*
X116632028Y-52532400D01*
X116632884Y-52759340D01*
X116585494Y-52711950D01*
X116391408Y-52582266D01*
X116175752Y-52492939D01*
X115946812Y-52447400D01*
X115713388Y-52447400D01*
X115484448Y-52492939D01*
X115268792Y-52582266D01*
X115101370Y-52694134D01*
X115101370Y-49072404D01*
X115173659Y-48153882D01*
X115382891Y-47282367D01*
X115725884Y-46454311D01*
X116194188Y-45690109D01*
X116776274Y-45008574D01*
X117457809Y-44426487D01*
X118222011Y-43958184D01*
X119050069Y-43615191D01*
X119921582Y-43405959D01*
X120840104Y-43333670D01*
X134783831Y-43333670D01*
X134783830Y-63853680D01*
G37*
%TD.AperFunction*%
D27*
X155332563Y-55204231D02*
X155522437Y-55488398D01*
X155764102Y-55730063D01*
X156045174Y-55917869D01*
X156870100Y-56742795D01*
X156884243Y-56728653D01*
X157063848Y-56908258D01*
X157049705Y-56922400D01*
X157063848Y-56936543D01*
X156884243Y-57116148D01*
X156870100Y-57102005D01*
X155842993Y-58129112D01*
X155950826Y-58403738D01*
X156257484Y-58554616D01*
X156587685Y-58642769D01*
X156928739Y-58664809D01*
X157267539Y-58619889D01*
X157535101Y-58528791D01*
X157535101Y-59339026D01*
X153836370Y-63037758D01*
X153836370Y-58000526D01*
X153984448Y-58061861D01*
X154213388Y-58107400D01*
X154446812Y-58107400D01*
X154675752Y-58061861D01*
X154891408Y-57972534D01*
X155085494Y-57842850D01*
X155250550Y-57677794D01*
X155279655Y-57634235D01*
X155282764Y-57643366D01*
X155388762Y-57841674D01*
X155663388Y-57949507D01*
X156690495Y-56922400D01*
X155663388Y-55895293D01*
X155388762Y-56003126D01*
X155283713Y-56216638D01*
X155250550Y-56167006D01*
X155085494Y-56001950D01*
X154891408Y-55872266D01*
X154675752Y-55782939D01*
X154446812Y-55737400D01*
X154213388Y-55737400D01*
X153984448Y-55782939D01*
X153836370Y-55844274D01*
X153836370Y-55460526D01*
X153984448Y-55521861D01*
X154213388Y-55567400D01*
X154446812Y-55567400D01*
X154675752Y-55521861D01*
X154891408Y-55432534D01*
X155085494Y-55302850D01*
X155250550Y-55137794D01*
X155284190Y-55087448D01*
X155332563Y-55204231D01*
%TA.AperFunction,Conductor*%
D28*
G36*
X155332563Y-55204231D02*
G01*
X155522437Y-55488398D01*
X155764102Y-55730063D01*
X156045174Y-55917869D01*
X156870100Y-56742795D01*
X156884243Y-56728653D01*
X157063848Y-56908258D01*
X157049705Y-56922400D01*
X157063848Y-56936543D01*
X156884243Y-57116148D01*
X156870100Y-57102005D01*
X155842993Y-58129112D01*
X155950826Y-58403738D01*
X156257484Y-58554616D01*
X156587685Y-58642769D01*
X156928739Y-58664809D01*
X157267539Y-58619889D01*
X157535101Y-58528791D01*
X157535101Y-59339026D01*
X153836370Y-63037758D01*
X153836370Y-58000526D01*
X153984448Y-58061861D01*
X154213388Y-58107400D01*
X154446812Y-58107400D01*
X154675752Y-58061861D01*
X154891408Y-57972534D01*
X155085494Y-57842850D01*
X155250550Y-57677794D01*
X155279655Y-57634235D01*
X155282764Y-57643366D01*
X155388762Y-57841674D01*
X155663388Y-57949507D01*
X156690495Y-56922400D01*
X155663388Y-55895293D01*
X155388762Y-56003126D01*
X155283713Y-56216638D01*
X155250550Y-56167006D01*
X155085494Y-56001950D01*
X154891408Y-55872266D01*
X154675752Y-55782939D01*
X154446812Y-55737400D01*
X154213388Y-55737400D01*
X153984448Y-55782939D01*
X153836370Y-55844274D01*
X153836370Y-55460526D01*
X153984448Y-55521861D01*
X154213388Y-55567400D01*
X154446812Y-55567400D01*
X154675752Y-55521861D01*
X154891408Y-55432534D01*
X155085494Y-55302850D01*
X155250550Y-55137794D01*
X155284190Y-55087448D01*
X155332563Y-55204231D01*
G37*
%TD.AperFunction*%
D27*
X164450826Y-50321062D02*
X164342993Y-50595688D01*
X165370100Y-51622795D01*
X166397207Y-50595688D01*
X166289374Y-50321062D01*
X166284512Y-50318670D01*
X168438831Y-50318670D01*
X168438831Y-50738772D01*
X168255752Y-50662939D01*
X168026812Y-50617400D01*
X167793388Y-50617400D01*
X167564448Y-50662939D01*
X167348792Y-50752266D01*
X167154706Y-50881950D01*
X166989650Y-51047006D01*
X166960545Y-51090565D01*
X166957436Y-51081434D01*
X166851438Y-50883126D01*
X166576812Y-50775293D01*
X165549705Y-51802400D01*
X166576812Y-52829507D01*
X166851438Y-52721674D01*
X166956487Y-52508162D01*
X166989650Y-52557794D01*
X167154706Y-52722850D01*
X167348792Y-52852534D01*
X167564448Y-52941861D01*
X167793388Y-52987400D01*
X168026812Y-52987400D01*
X168255752Y-52941861D01*
X168438831Y-52866028D01*
X168438831Y-53278772D01*
X168255752Y-53202939D01*
X168026812Y-53157400D01*
X167793388Y-53157400D01*
X167564448Y-53202939D01*
X167348792Y-53292266D01*
X167154706Y-53421950D01*
X166989650Y-53587006D01*
X166956010Y-53637352D01*
X166907637Y-53520569D01*
X166717763Y-53236402D01*
X166476098Y-52994737D01*
X166195026Y-52806931D01*
X165370100Y-51982005D01*
X164545174Y-52806931D01*
X164264102Y-52994737D01*
X164022437Y-53236402D01*
X163832563Y-53520569D01*
X163701775Y-53836319D01*
X163635100Y-54171517D01*
X163635100Y-54513283D01*
X163701775Y-54848481D01*
X163832563Y-55164231D01*
X163899790Y-55264843D01*
X163818915Y-55331215D01*
X163739563Y-55427906D01*
X163680598Y-55538220D01*
X163644288Y-55657918D01*
X163632028Y-55782400D01*
X163632028Y-55997400D01*
X161286775Y-55997400D01*
X161243306Y-55993119D01*
X161199837Y-55997400D01*
X161199829Y-55997400D01*
X161069816Y-56010205D01*
X160902993Y-56060811D01*
X160749247Y-56142989D01*
X160648259Y-56225868D01*
X160648257Y-56225870D01*
X160614489Y-56253583D01*
X160586776Y-56287351D01*
X159305101Y-57569026D01*
X159305101Y-53435866D01*
X159309382Y-53392400D01*
X159305101Y-53348934D01*
X159305101Y-53348924D01*
X159292296Y-53218911D01*
X159241690Y-53052088D01*
X159159512Y-52898342D01*
X159048918Y-52763584D01*
X159015150Y-52735871D01*
X158608172Y-52328893D01*
X158608172Y-51861039D01*
X163627691Y-51861039D01*
X163672611Y-52199839D01*
X163782764Y-52523366D01*
X163888762Y-52721674D01*
X164163388Y-52829507D01*
X165190495Y-51802400D01*
X164163388Y-50775293D01*
X163888762Y-50883126D01*
X163737884Y-51189784D01*
X163649731Y-51519985D01*
X163627691Y-51861039D01*
X158608172Y-51861039D01*
X158608172Y-50742400D01*
X158595912Y-50617918D01*
X158559602Y-50498220D01*
X158500637Y-50387906D01*
X158443817Y-50318670D01*
X164455301Y-50318670D01*
X164450826Y-50321062D01*
%TA.AperFunction,Conductor*%
D28*
G36*
X164450826Y-50321062D02*
G01*
X164342993Y-50595688D01*
X165370100Y-51622795D01*
X166397207Y-50595688D01*
X166289374Y-50321062D01*
X166284512Y-50318670D01*
X168438831Y-50318670D01*
X168438831Y-50738772D01*
X168255752Y-50662939D01*
X168026812Y-50617400D01*
X167793388Y-50617400D01*
X167564448Y-50662939D01*
X167348792Y-50752266D01*
X167154706Y-50881950D01*
X166989650Y-51047006D01*
X166960545Y-51090565D01*
X166957436Y-51081434D01*
X166851438Y-50883126D01*
X166576812Y-50775293D01*
X165549705Y-51802400D01*
X166576812Y-52829507D01*
X166851438Y-52721674D01*
X166956487Y-52508162D01*
X166989650Y-52557794D01*
X167154706Y-52722850D01*
X167348792Y-52852534D01*
X167564448Y-52941861D01*
X167793388Y-52987400D01*
X168026812Y-52987400D01*
X168255752Y-52941861D01*
X168438831Y-52866028D01*
X168438831Y-53278772D01*
X168255752Y-53202939D01*
X168026812Y-53157400D01*
X167793388Y-53157400D01*
X167564448Y-53202939D01*
X167348792Y-53292266D01*
X167154706Y-53421950D01*
X166989650Y-53587006D01*
X166956010Y-53637352D01*
X166907637Y-53520569D01*
X166717763Y-53236402D01*
X166476098Y-52994737D01*
X166195026Y-52806931D01*
X165370100Y-51982005D01*
X164545174Y-52806931D01*
X164264102Y-52994737D01*
X164022437Y-53236402D01*
X163832563Y-53520569D01*
X163701775Y-53836319D01*
X163635100Y-54171517D01*
X163635100Y-54513283D01*
X163701775Y-54848481D01*
X163832563Y-55164231D01*
X163899790Y-55264843D01*
X163818915Y-55331215D01*
X163739563Y-55427906D01*
X163680598Y-55538220D01*
X163644288Y-55657918D01*
X163632028Y-55782400D01*
X163632028Y-55997400D01*
X161286775Y-55997400D01*
X161243306Y-55993119D01*
X161199837Y-55997400D01*
X161199829Y-55997400D01*
X161069816Y-56010205D01*
X160902993Y-56060811D01*
X160749247Y-56142989D01*
X160648259Y-56225868D01*
X160648257Y-56225870D01*
X160614489Y-56253583D01*
X160586776Y-56287351D01*
X159305101Y-57569026D01*
X159305101Y-53435866D01*
X159309382Y-53392400D01*
X159305101Y-53348934D01*
X159305101Y-53348924D01*
X159292296Y-53218911D01*
X159241690Y-53052088D01*
X159159512Y-52898342D01*
X159048918Y-52763584D01*
X159015150Y-52735871D01*
X158608172Y-52328893D01*
X158608172Y-51861039D01*
X163627691Y-51861039D01*
X163672611Y-52199839D01*
X163782764Y-52523366D01*
X163888762Y-52721674D01*
X164163388Y-52829507D01*
X165190495Y-51802400D01*
X164163388Y-50775293D01*
X163888762Y-50883126D01*
X163737884Y-51189784D01*
X163649731Y-51519985D01*
X163627691Y-51861039D01*
X158608172Y-51861039D01*
X158608172Y-50742400D01*
X158595912Y-50617918D01*
X158559602Y-50498220D01*
X158500637Y-50387906D01*
X158443817Y-50318670D01*
X164455301Y-50318670D01*
X164450826Y-50321062D01*
G37*
%TD.AperFunction*%
%TD*%
M02*
