%TF.GenerationSoftware,KiCad,Pcbnew,6.0.5+dfsg-1~bpo11+1*%
%TF.CreationDate,2022-07-02T02:00:37+00:00*%
%TF.ProjectId,bbbalarm,62626261-6c61-4726-9d2e-6b696361645f,rev?*%
%TF.SameCoordinates,Original*%
%TF.FileFunction,Copper,L1,Top*%
%TF.FilePolarity,Positive*%
%FSLAX46Y46*%
G04 Gerber Fmt 4.6, Leading zero omitted, Abs format (unit mm)*
G04 Created by KiCad (PCBNEW 6.0.5+dfsg-1~bpo11+1) date 2022-07-02 02:00:37*
%MOMM*%
%LPD*%
G01*
G04 APERTURE LIST*
G04 Aperture macros list*
%AMRoundRect*
0 Rectangle with rounded corners*
0 $1 Rounding radius*
0 $2 $3 $4 $5 $6 $7 $8 $9 X,Y pos of 4 corners*
0 Add a 4 corners polygon primitive as box body*
4,1,4,$2,$3,$4,$5,$6,$7,$8,$9,$2,$3,0*
0 Add four circle primitives for the rounded corners*
1,1,$1+$1,$2,$3*
1,1,$1+$1,$4,$5*
1,1,$1+$1,$6,$7*
1,1,$1+$1,$8,$9*
0 Add four rect primitives between the rounded corners*
20,1,$1+$1,$2,$3,$4,$5,0*
20,1,$1+$1,$4,$5,$6,$7,0*
20,1,$1+$1,$6,$7,$8,$9,0*
20,1,$1+$1,$8,$9,$2,$3,0*%
%AMFreePoly0*
4,1,22,0.500000,-0.750000,0.000000,-0.750000,0.000000,-0.745033,-0.079941,-0.743568,-0.215256,-0.701293,-0.333266,-0.622738,-0.424486,-0.514219,-0.481581,-0.384460,-0.499164,-0.250000,-0.500000,-0.250000,-0.500000,0.250000,-0.499164,0.250000,-0.499963,0.256109,-0.478152,0.396186,-0.417904,0.524511,-0.324060,0.630769,-0.204165,0.706417,-0.067858,0.745374,0.000000,0.744959,0.000000,0.750000,
0.500000,0.750000,0.500000,-0.750000,0.500000,-0.750000,$1*%
%AMFreePoly1*
4,1,20,0.000000,0.744959,0.073905,0.744508,0.209726,0.703889,0.328688,0.626782,0.421226,0.519385,0.479903,0.390333,0.500000,0.250000,0.500000,-0.250000,0.499851,-0.262216,0.476331,-0.402017,0.414519,-0.529596,0.319384,-0.634700,0.198574,-0.708877,0.061801,-0.746166,0.000000,-0.745033,0.000000,-0.750000,-0.500000,-0.750000,-0.500000,0.750000,0.000000,0.750000,0.000000,0.744959,
0.000000,0.744959,$1*%
%AMFreePoly2*
4,1,6,0.500000,-0.850000,-0.500000,-0.850000,-0.500000,0.550000,-0.200000,0.850000,0.500000,0.850000,0.500000,-0.850000,0.500000,-0.850000,$1*%
G04 Aperture macros list end*
%TA.AperFunction,ComponentPad*%
%ADD10R,1.727200X1.727200*%
%TD*%
%TA.AperFunction,ComponentPad*%
%ADD11O,1.727200X1.727200*%
%TD*%
%TA.AperFunction,SMDPad,CuDef*%
%ADD12RoundRect,0.140000X-0.170000X0.140000X-0.170000X-0.140000X0.170000X-0.140000X0.170000X0.140000X0*%
%TD*%
%TA.AperFunction,SMDPad,CuDef*%
%ADD13FreePoly0,270.000000*%
%TD*%
%TA.AperFunction,SMDPad,CuDef*%
%ADD14FreePoly1,270.000000*%
%TD*%
%TA.AperFunction,SMDPad,CuDef*%
%ADD15FreePoly0,90.000000*%
%TD*%
%TA.AperFunction,SMDPad,CuDef*%
%ADD16FreePoly1,90.000000*%
%TD*%
%TA.AperFunction,SMDPad,CuDef*%
%ADD17RoundRect,0.135000X0.135000X0.185000X-0.135000X0.185000X-0.135000X-0.185000X0.135000X-0.185000X0*%
%TD*%
%TA.AperFunction,SMDPad,CuDef*%
%ADD18RoundRect,0.135000X0.185000X-0.135000X0.185000X0.135000X-0.185000X0.135000X-0.185000X-0.135000X0*%
%TD*%
%TA.AperFunction,ComponentPad*%
%ADD19C,2.000000*%
%TD*%
%TA.AperFunction,SMDPad,CuDef*%
%ADD20RoundRect,0.150000X0.825000X0.150000X-0.825000X0.150000X-0.825000X-0.150000X0.825000X-0.150000X0*%
%TD*%
%TA.AperFunction,ComponentPad*%
%ADD21R,2.200000X2.200000*%
%TD*%
%TA.AperFunction,ComponentPad*%
%ADD22C,2.200000*%
%TD*%
%TA.AperFunction,ComponentPad*%
%ADD23O,2.200000X2.200000*%
%TD*%
%TA.AperFunction,ComponentPad*%
%ADD24R,1.800000X1.800000*%
%TD*%
%TA.AperFunction,ComponentPad*%
%ADD25C,1.800000*%
%TD*%
%TA.AperFunction,ComponentPad*%
%ADD26R,1.500000X3.000000*%
%TD*%
%TA.AperFunction,ComponentPad*%
%ADD27O,1.500000X3.000000*%
%TD*%
%TA.AperFunction,ComponentPad*%
%ADD28C,1.600000*%
%TD*%
%TA.AperFunction,ComponentPad*%
%ADD29O,1.600000X1.600000*%
%TD*%
%TA.AperFunction,ComponentPad*%
%ADD30R,1.600000X1.600000*%
%TD*%
%TA.AperFunction,ComponentPad*%
%ADD31R,1.700000X1.700000*%
%TD*%
%TA.AperFunction,ComponentPad*%
%ADD32O,1.700000X1.700000*%
%TD*%
%TA.AperFunction,SMDPad,CuDef*%
%ADD33R,0.550000X0.250000*%
%TD*%
%TA.AperFunction,SMDPad,CuDef*%
%ADD34FreePoly2,0.000000*%
%TD*%
%TA.AperFunction,ViaPad*%
%ADD35C,0.600000*%
%TD*%
%TA.AperFunction,Conductor*%
%ADD36C,0.250000*%
%TD*%
%TA.AperFunction,Conductor*%
%ADD37C,0.500000*%
%TD*%
G04 APERTURE END LIST*
D10*
%TO.P,P8,1,Pin_1*%
%TO.N,GNDD*%
X164630100Y-62382400D03*
D11*
%TO.P,P8,2,Pin_2*%
X167170100Y-62382400D03*
%TO.P,P8,3,Pin_3*%
%TO.N,unconnected-(P8-Pad3)*%
X164630100Y-64922400D03*
%TO.P,P8,4,Pin_4*%
%TO.N,unconnected-(P8-Pad4)*%
X167170100Y-64922400D03*
%TO.P,P8,5,Pin_5*%
%TO.N,unconnected-(P8-Pad5)*%
X164630100Y-67462400D03*
%TO.P,P8,6,Pin_6*%
%TO.N,unconnected-(P8-Pad6)*%
X167170100Y-67462400D03*
%TO.P,P8,7,Pin_7*%
%TO.N,/LED0*%
X164630100Y-70002400D03*
%TO.P,P8,8,Pin_8*%
%TO.N,/PIR0*%
X167170100Y-70002400D03*
%TO.P,P8,9,Pin_9*%
%TO.N,/LED1*%
X164630100Y-72542400D03*
%TO.P,P8,10,Pin_10*%
%TO.N,/PIR1*%
X167170100Y-72542400D03*
%TO.P,P8,11,Pin_11*%
%TO.N,/LED2*%
X164630100Y-75082400D03*
%TO.P,P8,12,Pin_12*%
%TO.N,/IN0*%
X167170100Y-75082400D03*
%TO.P,P8,13,Pin_13*%
%TO.N,/LED3*%
X164630100Y-77622400D03*
%TO.P,P8,14,Pin_14*%
%TO.N,/IN1*%
X167170100Y-77622400D03*
%TO.P,P8,15,Pin_15*%
%TO.N,/ALERT*%
X164630100Y-80162400D03*
%TO.P,P8,16,Pin_16*%
%TO.N,unconnected-(P8-Pad16)*%
X167170100Y-80162400D03*
%TO.P,P8,17,Pin_17*%
%TO.N,/nRST*%
X164630100Y-82702400D03*
%TO.P,P8,18,Pin_18*%
%TO.N,unconnected-(P8-Pad18)*%
X167170100Y-82702400D03*
%TO.P,P8,19,Pin_19*%
%TO.N,unconnected-(P8-Pad19)*%
X164630100Y-85242400D03*
%TO.P,P8,20,Pin_20*%
%TO.N,unconnected-(P8-Pad20)*%
X167170100Y-85242400D03*
%TO.P,P8,21,Pin_21*%
%TO.N,unconnected-(P8-Pad21)*%
X164630100Y-87782400D03*
%TO.P,P8,22,Pin_22*%
%TO.N,unconnected-(P8-Pad22)*%
X167170100Y-87782400D03*
%TO.P,P8,23,Pin_23*%
%TO.N,unconnected-(P8-Pad23)*%
X164630100Y-90322400D03*
%TO.P,P8,24,Pin_24*%
%TO.N,unconnected-(P8-Pad24)*%
X167170100Y-90322400D03*
%TO.P,P8,25,Pin_25*%
%TO.N,unconnected-(P8-Pad25)*%
X164630100Y-92862400D03*
%TO.P,P8,26,Pin_26*%
%TO.N,unconnected-(P8-Pad26)*%
X167170100Y-92862400D03*
%TO.P,P8,27,Pin_27*%
%TO.N,unconnected-(P8-Pad27)*%
X164630100Y-95402400D03*
%TO.P,P8,28,Pin_28*%
%TO.N,unconnected-(P8-Pad28)*%
X167170100Y-95402400D03*
%TO.P,P8,29,Pin_29*%
%TO.N,unconnected-(P8-Pad29)*%
X164630100Y-97942400D03*
%TO.P,P8,30,Pin_30*%
%TO.N,unconnected-(P8-Pad30)*%
X167170100Y-97942400D03*
%TO.P,P8,31,Pin_31*%
%TO.N,unconnected-(P8-Pad31)*%
X164630100Y-100482400D03*
%TO.P,P8,32,Pin_32*%
%TO.N,unconnected-(P8-Pad32)*%
X167170100Y-100482400D03*
%TO.P,P8,33,Pin_33*%
%TO.N,unconnected-(P8-Pad33)*%
X164630100Y-103022400D03*
%TO.P,P8,34,Pin_34*%
%TO.N,unconnected-(P8-Pad34)*%
X167170100Y-103022400D03*
%TO.P,P8,35,Pin_35*%
%TO.N,unconnected-(P8-Pad35)*%
X164630100Y-105562400D03*
%TO.P,P8,36,Pin_36*%
%TO.N,unconnected-(P8-Pad36)*%
X167170100Y-105562400D03*
%TO.P,P8,37,Pin_37*%
%TO.N,unconnected-(P8-Pad37)*%
X164630100Y-108102400D03*
%TO.P,P8,38,Pin_38*%
%TO.N,unconnected-(P8-Pad38)*%
X167170100Y-108102400D03*
%TO.P,P8,39,Pin_39*%
%TO.N,unconnected-(P8-Pad39)*%
X164630100Y-110642400D03*
%TO.P,P8,40,Pin_40*%
%TO.N,unconnected-(P8-Pad40)*%
X167170100Y-110642400D03*
%TO.P,P8,41,Pin_41*%
%TO.N,unconnected-(P8-Pad41)*%
X164630100Y-113182400D03*
%TO.P,P8,42,Pin_42*%
%TO.N,unconnected-(P8-Pad42)*%
X167170100Y-113182400D03*
%TO.P,P8,43,Pin_43*%
%TO.N,unconnected-(P8-Pad43)*%
X164630100Y-115722400D03*
%TO.P,P8,44,Pin_44*%
%TO.N,unconnected-(P8-Pad44)*%
X167170100Y-115722400D03*
%TO.P,P8,45,Pin_45*%
%TO.N,unconnected-(P8-Pad45)*%
X164630100Y-118262400D03*
%TO.P,P8,46,Pin_46*%
%TO.N,unconnected-(P8-Pad46)*%
X167170100Y-118262400D03*
%TD*%
D12*
%TO.P,C101,1*%
%TO.N,+3V3*%
X125120100Y-90902400D03*
%TO.P,C101,2*%
%TO.N,GNDD*%
X125120100Y-91862400D03*
%TD*%
D13*
%TO.P,JP105,1,A*%
%TO.N,Net-(JP105-Pad1)*%
X128370100Y-91732400D03*
D14*
%TO.P,JP105,2,B*%
%TO.N,GNDD*%
X128370100Y-93032400D03*
%TD*%
D13*
%TO.P,JP107,1,A*%
%TO.N,Net-(JP107-Pad1)*%
X134370100Y-91732400D03*
D14*
%TO.P,JP107,2,B*%
%TO.N,GNDD*%
X134370100Y-93032400D03*
%TD*%
D15*
%TO.P,JP108,1,A*%
%TO.N,Net-(JP108-Pad1)*%
X122370100Y-88032400D03*
D16*
%TO.P,JP108,2,B*%
%TO.N,GNDD*%
X122370100Y-86732400D03*
%TD*%
D17*
%TO.P,R101,1*%
%TO.N,+3V3*%
X133880100Y-86632400D03*
%TO.P,R101,2*%
%TO.N,Net-(JP105-Pad1)*%
X132860100Y-86632400D03*
%TD*%
%TO.P,R102,1*%
%TO.N,+3V3*%
X133880100Y-87882400D03*
%TO.P,R102,2*%
%TO.N,Net-(JP106-Pad1)*%
X132860100Y-87882400D03*
%TD*%
D18*
%TO.P,R104,1*%
%TO.N,+3V3*%
X122370100Y-90892400D03*
%TO.P,R104,2*%
%TO.N,Net-(JP108-Pad1)*%
X122370100Y-89872400D03*
%TD*%
D19*
%TO.P,SW101,1,1*%
%TO.N,SYS_RESETN*%
X155370100Y-65882400D03*
X155370100Y-72382400D03*
%TO.P,SW101,2,2*%
%TO.N,GNDD*%
X159870100Y-72382400D03*
X159870100Y-65882400D03*
%TD*%
%TO.P,SW102,1,1*%
%TO.N,PWR_BUT*%
X125370100Y-72382400D03*
X125370100Y-65882400D03*
%TO.P,SW102,2,2*%
%TO.N,GNDD*%
X129870100Y-65882400D03*
X129870100Y-72382400D03*
%TD*%
D20*
%TO.P,U103,1,A0*%
%TO.N,Net-(JP107-Pad1)*%
X130845100Y-89287400D03*
%TO.P,U103,2,A1*%
%TO.N,Net-(JP106-Pad1)*%
X130845100Y-88017400D03*
%TO.P,U103,3,A2*%
%TO.N,Net-(JP105-Pad1)*%
X130845100Y-86747400D03*
%TO.P,U103,4,GND*%
%TO.N,GNDD*%
X130845100Y-85477400D03*
%TO.P,U103,5,SDA*%
%TO.N,/SDA*%
X125895100Y-85477400D03*
%TO.P,U103,6,SCL*%
%TO.N,/SCL*%
X125895100Y-86747400D03*
%TO.P,U103,7,WP*%
%TO.N,Net-(JP108-Pad1)*%
X125895100Y-88017400D03*
%TO.P,U103,8,VCC*%
%TO.N,+3V3*%
X125895100Y-89287400D03*
%TD*%
D17*
%TO.P,R103,1*%
%TO.N,+3V3*%
X133880100Y-89132400D03*
%TO.P,R103,2*%
%TO.N,Net-(JP107-Pad1)*%
X132860100Y-89132400D03*
%TD*%
D13*
%TO.P,JP106,1,A*%
%TO.N,Net-(JP106-Pad1)*%
X131370100Y-91732400D03*
D14*
%TO.P,JP106,2,B*%
%TO.N,GNDD*%
X131370100Y-93032400D03*
%TD*%
D21*
%TO.P,J102,1,Pin_1*%
%TO.N,GNDD*%
X118370100Y-53632400D03*
D22*
%TO.P,J102,2,Pin_2*%
%TO.N,Net-(D114-Pad2)*%
X118370100Y-56172400D03*
%TD*%
D19*
%TO.P,U104,1,Vin*%
%TO.N,Net-(D114-Pad1)*%
X126080100Y-57132400D03*
%TO.P,U104,2,GND*%
%TO.N,GNDD*%
X128620100Y-57132400D03*
%TO.P,U104,3,Vout*%
%TO.N,+5V*%
X131160100Y-57132400D03*
%TD*%
D21*
%TO.P,D114,1,K*%
%TO.N,Net-(D114-Pad1)*%
X131620100Y-47132400D03*
D23*
%TO.P,D114,2,A*%
%TO.N,Net-(D114-Pad2)*%
X121460100Y-47132400D03*
%TD*%
D24*
%TO.P,D101,1,K*%
%TO.N,Net-(D101-Pad1)*%
X135370100Y-69382400D03*
D25*
%TO.P,D101,2,A*%
%TO.N,+3V3*%
X135370100Y-66842400D03*
%TD*%
D24*
%TO.P,D102,1,K*%
%TO.N,Net-(D102-Pad1)*%
X140370100Y-69382400D03*
D25*
%TO.P,D102,2,A*%
%TO.N,+3V3*%
X140370100Y-66842400D03*
%TD*%
D24*
%TO.P,D103,1,K*%
%TO.N,Net-(D103-Pad1)*%
X145370100Y-69382400D03*
D25*
%TO.P,D103,2,A*%
%TO.N,+3V3*%
X145370100Y-66842400D03*
%TD*%
D24*
%TO.P,D104,1,K*%
%TO.N,Net-(D104-Pad1)*%
X150370100Y-69382400D03*
D25*
%TO.P,D104,2,A*%
%TO.N,+3V3*%
X150370100Y-66842400D03*
%TD*%
D26*
%TO.P,J101,1,Pin_1*%
%TO.N,Net-(J101-Pad1)*%
X130370100Y-119382400D03*
D27*
%TO.P,J101,2,Pin_2*%
%TO.N,Net-(J101-Pad2)*%
X135370100Y-119382400D03*
%TD*%
D26*
%TO.P,J103,1,Pin_1*%
%TO.N,Net-(J103-Pad1)*%
X147370100Y-119382400D03*
D27*
%TO.P,J103,2,Pin_2*%
%TO.N,Net-(J103-Pad2)*%
X152370100Y-119382400D03*
%TD*%
D28*
%TO.P,R105,1*%
%TO.N,Net-(D101-Pad1)*%
X135370100Y-72382400D03*
D29*
%TO.P,R105,2*%
%TO.N,/LED0*%
X135370100Y-80002400D03*
%TD*%
D28*
%TO.P,R106,1*%
%TO.N,Net-(D102-Pad1)*%
X140370100Y-72382400D03*
D29*
%TO.P,R106,2*%
%TO.N,/LED1*%
X140370100Y-80002400D03*
%TD*%
D28*
%TO.P,R107,1*%
%TO.N,Net-(D103-Pad1)*%
X145370100Y-72382400D03*
D29*
%TO.P,R107,2*%
%TO.N,/LED2*%
X145370100Y-80002400D03*
%TD*%
D28*
%TO.P,R108,1*%
%TO.N,Net-(D104-Pad1)*%
X150370100Y-72382400D03*
D29*
%TO.P,R108,2*%
%TO.N,/LED3*%
X150370100Y-80002400D03*
%TD*%
D28*
%TO.P,R109,1*%
%TO.N,+3V3*%
X140370100Y-89382400D03*
D29*
%TO.P,R109,2*%
%TO.N,/IN0*%
X140370100Y-97002400D03*
%TD*%
D28*
%TO.P,R110,1*%
%TO.N,+3V3*%
X144370100Y-89382400D03*
D29*
%TO.P,R110,2*%
%TO.N,/IN1*%
X144370100Y-97002400D03*
%TD*%
D28*
%TO.P,R111,1*%
%TO.N,Net-(R111-Pad1)*%
X129370100Y-111382400D03*
D29*
%TO.P,R111,2*%
%TO.N,Net-(J101-Pad2)*%
X136990100Y-111382400D03*
%TD*%
D28*
%TO.P,R112,1*%
%TO.N,Net-(R112-Pad1)*%
X146370100Y-111382400D03*
D29*
%TO.P,R112,2*%
%TO.N,Net-(J103-Pad2)*%
X153990100Y-111382400D03*
%TD*%
D21*
%TO.P,J105,1,Pin_1*%
%TO.N,+5V*%
X165370100Y-56882400D03*
D22*
%TO.P,J105,2,Pin_2*%
%TO.N,/PIR1*%
X165370100Y-54342400D03*
%TO.P,J105,3,Pin_3*%
%TO.N,GNDD*%
X165370100Y-51802400D03*
%TD*%
D30*
%TO.P,U101,1,A1*%
%TO.N,Net-(R111-Pad1)*%
X138370100Y-107382400D03*
D29*
%TO.P,U101,2,C1*%
%TO.N,Net-(J101-Pad1)*%
X140910100Y-107382400D03*
%TO.P,U101,3,C2*%
%TO.N,Net-(R112-Pad1)*%
X143450100Y-107382400D03*
%TO.P,U101,4,A2*%
%TO.N,Net-(J103-Pad1)*%
X145990100Y-107382400D03*
%TO.P,U101,5,GND*%
%TO.N,GNDD*%
X145990100Y-99762400D03*
%TO.P,U101,6,VO2*%
%TO.N,/IN1*%
X143450100Y-99762400D03*
%TO.P,U101,7,VO1*%
%TO.N,/IN0*%
X140910100Y-99762400D03*
%TO.P,U101,8,VCC*%
%TO.N,+5V*%
X138370100Y-99762400D03*
%TD*%
D10*
%TO.P,P9,1,Pin_1*%
%TO.N,GNDD*%
X116370100Y-62382400D03*
D11*
%TO.P,P9,2,Pin_2*%
X118910100Y-62382400D03*
%TO.P,P9,3,Pin_3*%
%TO.N,+3V3*%
X116370100Y-64922400D03*
%TO.P,P9,4,Pin_4*%
X118910100Y-64922400D03*
%TO.P,P9,5,Pin_5*%
%TO.N,+5V*%
X116370100Y-67462400D03*
%TO.P,P9,6,Pin_6*%
X118910100Y-67462400D03*
%TO.P,P9,7,Pin_7*%
%TO.N,SYS_5V*%
X116370100Y-70002400D03*
%TO.P,P9,8,Pin_8*%
X118910100Y-70002400D03*
%TO.P,P9,9,Pin_9*%
%TO.N,PWR_BUT*%
X116370100Y-72542400D03*
%TO.P,P9,10,Pin_10*%
%TO.N,SYS_RESETN*%
X118910100Y-72542400D03*
%TO.P,P9,11,Pin_11*%
%TO.N,/RX*%
X116370100Y-75082400D03*
%TO.P,P9,12,Pin_12*%
%TO.N,unconnected-(P9-Pad12)*%
X118910100Y-75082400D03*
%TO.P,P9,13,Pin_13*%
%TO.N,/TX*%
X116370100Y-77622400D03*
%TO.P,P9,14,Pin_14*%
%TO.N,unconnected-(P9-Pad14)*%
X118910100Y-77622400D03*
%TO.P,P9,15,Pin_15*%
%TO.N,unconnected-(P9-Pad15)*%
X116370100Y-80162400D03*
%TO.P,P9,16,Pin_16*%
%TO.N,unconnected-(P9-Pad16)*%
X118910100Y-80162400D03*
%TO.P,P9,17,Pin_17*%
%TO.N,unconnected-(P9-Pad17)*%
X116370100Y-82702400D03*
%TO.P,P9,18,Pin_18*%
%TO.N,unconnected-(P9-Pad18)*%
X118910100Y-82702400D03*
%TO.P,P9,19,Pin_19*%
%TO.N,/SCL*%
X116370100Y-85242400D03*
%TO.P,P9,20,Pin_20*%
%TO.N,/SDA*%
X118910100Y-85242400D03*
%TO.P,P9,21,Pin_21*%
%TO.N,unconnected-(P9-Pad21)*%
X116370100Y-87782400D03*
%TO.P,P9,22,Pin_22*%
%TO.N,unconnected-(P9-Pad22)*%
X118910100Y-87782400D03*
%TO.P,P9,23,Pin_23*%
%TO.N,unconnected-(P9-Pad23)*%
X116370100Y-90322400D03*
%TO.P,P9,24,Pin_24*%
%TO.N,unconnected-(P9-Pad24)*%
X118910100Y-90322400D03*
%TO.P,P9,25,Pin_25*%
%TO.N,unconnected-(P9-Pad25)*%
X116370100Y-92862400D03*
%TO.P,P9,26,Pin_26*%
%TO.N,unconnected-(P9-Pad26)*%
X118910100Y-92862400D03*
%TO.P,P9,27,Pin_27*%
%TO.N,unconnected-(P9-Pad27)*%
X116370100Y-95402400D03*
%TO.P,P9,28,Pin_28*%
%TO.N,unconnected-(P9-Pad28)*%
X118910100Y-95402400D03*
%TO.P,P9,29,Pin_29*%
%TO.N,unconnected-(P9-Pad29)*%
X116370100Y-97942400D03*
%TO.P,P9,30,Pin_30*%
%TO.N,unconnected-(P9-Pad30)*%
X118910100Y-97942400D03*
%TO.P,P9,31,Pin_31*%
%TO.N,unconnected-(P9-Pad31)*%
X116370100Y-100482400D03*
%TO.P,P9,32,Pin_32*%
%TO.N,VDD_ADC*%
X118910100Y-100482400D03*
%TO.P,P9,33,Pin_33*%
%TO.N,unconnected-(P9-Pad33)*%
X116370100Y-103022400D03*
%TO.P,P9,34,Pin_34*%
%TO.N,GNDA_ADC*%
X118910100Y-103022400D03*
%TO.P,P9,35,Pin_35*%
%TO.N,unconnected-(P9-Pad35)*%
X116370100Y-105562400D03*
%TO.P,P9,36,Pin_36*%
%TO.N,unconnected-(P9-Pad36)*%
X118910100Y-105562400D03*
%TO.P,P9,37,Pin_37*%
%TO.N,unconnected-(P9-Pad37)*%
X116370100Y-108102400D03*
%TO.P,P9,38,Pin_38*%
%TO.N,unconnected-(P9-Pad38)*%
X118910100Y-108102400D03*
%TO.P,P9,39,Pin_39*%
%TO.N,unconnected-(P9-Pad39)*%
X116370100Y-110642400D03*
%TO.P,P9,40,Pin_40*%
%TO.N,unconnected-(P9-Pad40)*%
X118910100Y-110642400D03*
%TO.P,P9,41,Pin_41*%
%TO.N,unconnected-(P9-Pad41)*%
X116370100Y-113182400D03*
%TO.P,P9,42,Pin_42*%
%TO.N,unconnected-(P9-Pad42)*%
X118910100Y-113182400D03*
%TO.P,P9,43,Pin_43*%
%TO.N,GNDD*%
X116370100Y-115722400D03*
%TO.P,P9,44,Pin_44*%
X118910100Y-115722400D03*
%TO.P,P9,45,Pin_45*%
X116370100Y-118262400D03*
%TO.P,P9,46,Pin_46*%
X118910100Y-118262400D03*
%TD*%
D21*
%TO.P,J104,1,Pin_1*%
%TO.N,+5V*%
X156870100Y-51842400D03*
D22*
%TO.P,J104,2,Pin_2*%
%TO.N,/PIR0*%
X156870100Y-54382400D03*
%TO.P,J104,3,Pin_3*%
%TO.N,GNDD*%
X156870100Y-56922400D03*
%TD*%
D17*
%TO.P,R113,1*%
%TO.N,/nRST*%
X162130100Y-82882400D03*
%TO.P,R113,2*%
%TO.N,Net-(R113-Pad2)*%
X161110100Y-82882400D03*
%TD*%
D31*
%TO.P,J106,1,Pin_1*%
%TO.N,GNDD*%
X130370100Y-77882400D03*
D32*
%TO.P,J106,2,Pin_2*%
%TO.N,/RX*%
X127830100Y-77882400D03*
%TO.P,J106,3,Pin_3*%
%TO.N,/TX*%
X125290100Y-77882400D03*
%TD*%
D33*
%TO.P,U102,1,SDA*%
%TO.N,/SDA*%
X141195100Y-84132400D03*
%TO.P,U102,2,ADDR*%
%TO.N,GNDD*%
X141195100Y-84632400D03*
%TO.P,U102,3,ALERT*%
%TO.N,/ALERT*%
X141195100Y-85132400D03*
%TO.P,U102,4,SCL*%
%TO.N,/SCL*%
X141195100Y-85632400D03*
%TO.P,U102,5,VDD*%
%TO.N,+3V3*%
X143545100Y-85632400D03*
%TO.P,U102,6,~{RESET}*%
%TO.N,Net-(R113-Pad2)*%
X143545100Y-85132400D03*
%TO.P,U102,7,R*%
%TO.N,GNDD*%
X143545100Y-84632400D03*
%TO.P,U102,8,VSS*%
X143545100Y-84132400D03*
D34*
%TO.P,U102,9,VSS*%
X142370100Y-84882400D03*
%TD*%
D35*
%TO.N,GNDD*%
X144870100Y-83382400D03*
X141870100Y-87382400D03*
X128370100Y-85382400D03*
X123870100Y-86882400D03*
X122870100Y-72632400D03*
X154370100Y-85132400D03*
X122620100Y-66882400D03*
X148620100Y-90882400D03*
X122370100Y-77632400D03*
X128370100Y-86882400D03*
%TO.N,+3V3*%
X127370100Y-84882400D03*
%TO.N,/SCL*%
X123870100Y-84617900D03*
X140120100Y-85931903D03*
%TO.N,/ALERT*%
X140120100Y-85132400D03*
%TO.N,Net-(R113-Pad2)*%
X144620100Y-85132400D03*
X160120100Y-82882400D03*
%TD*%
D36*
%TO.N,GNDD*%
X143545100Y-84632400D02*
X143545100Y-84132400D01*
X142620100Y-84632400D02*
X142370100Y-84882400D01*
X142120100Y-84632400D02*
X142370100Y-84882400D01*
X143545100Y-84632400D02*
X142620100Y-84632400D01*
X141195100Y-84632400D02*
X142120100Y-84632400D01*
D37*
X129165099Y-57207401D02*
X129235101Y-57207401D01*
%TO.N,+3V3*%
X116370100Y-64922400D02*
X118910100Y-64922400D01*
X125895100Y-89287400D02*
X125895100Y-90127400D01*
X125895100Y-90127400D02*
X125120100Y-90902400D01*
X127370100Y-84882400D02*
X127670099Y-84582401D01*
X127215100Y-89287400D02*
X127370100Y-89132400D01*
X134130100Y-89382400D02*
X133880100Y-89132400D01*
X131957431Y-84582401D02*
X133880100Y-86505070D01*
X143545100Y-88557400D02*
X143545100Y-85706920D01*
X144370100Y-89382400D02*
X143545100Y-88557400D01*
X133880100Y-86505070D02*
X133880100Y-89132400D01*
X127370100Y-84882400D02*
X127370100Y-89132400D01*
X125895100Y-89287400D02*
X127215100Y-89287400D01*
X144370100Y-89382400D02*
X134130100Y-89382400D01*
X127670099Y-84582401D02*
X131957431Y-84582401D01*
X122370100Y-90892400D02*
X125110100Y-90892400D01*
%TO.N,+5V*%
X123860101Y-64432399D02*
X131160100Y-57132400D01*
X116370100Y-67462400D02*
X118910100Y-67462400D01*
X134226380Y-64738680D02*
X153387026Y-64738680D01*
X153387026Y-64738680D02*
X161243306Y-56882400D01*
X158420101Y-53392401D02*
X156870100Y-51842400D01*
X131160100Y-57132400D02*
X131160100Y-61672400D01*
X158420101Y-59705605D02*
X158420101Y-53392401D01*
X131160100Y-61672400D02*
X134226380Y-64738680D01*
X118910100Y-67462400D02*
X121940101Y-64432399D01*
X165370100Y-56882400D02*
X161243306Y-56882400D01*
X121940101Y-64432399D02*
X123860101Y-64432399D01*
%TO.N,SYS_5V*%
X116370100Y-70002400D02*
X118910100Y-70002400D01*
D36*
%TO.N,PWR_BUT*%
X117558701Y-71353799D02*
X124341499Y-71353799D01*
X124341499Y-71353799D02*
X125370100Y-72382400D01*
D37*
X125370100Y-65882400D02*
X125370100Y-72382400D01*
D36*
X116370100Y-72542400D02*
X117558701Y-71353799D01*
D37*
%TO.N,SYS_RESETN*%
X155370100Y-65882400D02*
X155370100Y-72382400D01*
D36*
X118910100Y-72542400D02*
X120075101Y-73707401D01*
X120075101Y-73707401D02*
X154045099Y-73707401D01*
X154045099Y-73707401D02*
X155370100Y-72382400D01*
D37*
%TO.N,Net-(J101-Pad1)*%
X137890097Y-108632401D02*
X139660099Y-108632401D01*
X130370100Y-119382400D02*
X130370100Y-116152398D01*
X130370100Y-116152398D02*
X137890097Y-108632401D01*
X139660099Y-108632401D02*
X140910100Y-107382400D01*
%TO.N,Net-(J101-Pad2)*%
X136990100Y-117762400D02*
X135370100Y-119382400D01*
X136990100Y-111382400D02*
X136990100Y-117762400D01*
%TO.N,Net-(JP105-Pad1)*%
X130845100Y-86747400D02*
X132745100Y-86747400D01*
X128370100Y-88247400D02*
X128370100Y-91732400D01*
X130845100Y-86747400D02*
X129870100Y-86747400D01*
X129870100Y-86747400D02*
X128370100Y-88247400D01*
X132745100Y-86747400D02*
X132860100Y-86632400D01*
%TO.N,Net-(JP106-Pad1)*%
X129420090Y-88467410D02*
X129420090Y-89782390D01*
X132725100Y-88017400D02*
X132860100Y-87882400D01*
X129420090Y-89782390D02*
X131370100Y-91732400D01*
X130845100Y-88017400D02*
X129870100Y-88017400D01*
X129870100Y-88017400D02*
X129420090Y-88467410D01*
X130845100Y-88017400D02*
X132725100Y-88017400D01*
%TO.N,Net-(JP107-Pad1)*%
X132705100Y-89287400D02*
X132860100Y-89132400D01*
X130845100Y-89287400D02*
X132705100Y-89287400D01*
X132860100Y-90222400D02*
X134370100Y-91732400D01*
X132860100Y-89132400D02*
X132860100Y-90222400D01*
%TO.N,Net-(JP108-Pad1)*%
X122385100Y-88017400D02*
X122370100Y-88032400D01*
X125895100Y-88017400D02*
X122385100Y-88017400D01*
X122370100Y-88032400D02*
X122370100Y-89872400D01*
D36*
%TO.N,/SCL*%
X123306489Y-84054289D02*
X117558211Y-84054289D01*
X123870100Y-84617900D02*
X123306489Y-84054289D01*
X124080090Y-85907390D02*
X124920100Y-86747400D01*
X116370100Y-85242400D02*
X117558701Y-86431001D01*
X124920100Y-86747400D02*
X125895100Y-86747400D01*
X141195100Y-85632400D02*
X140895597Y-85931903D01*
X140895597Y-85931903D02*
X140120100Y-85931903D01*
X117558701Y-86431001D02*
X120970100Y-86431001D01*
X120970100Y-86431001D02*
X121370100Y-85907390D01*
X121370100Y-85907390D02*
X124080090Y-85907390D01*
X117558211Y-84054289D02*
X116370100Y-85242400D01*
%TO.N,/SDA*%
X125895100Y-85477400D02*
X125895100Y-85107400D01*
X125895100Y-85107400D02*
X127120100Y-83882400D01*
X127120100Y-83882400D02*
X140945100Y-83882400D01*
X125660100Y-85242400D02*
X125895100Y-85477400D01*
X140945100Y-83882400D02*
X141195100Y-84132400D01*
X118910100Y-85242400D02*
X125660100Y-85242400D01*
D37*
%TO.N,Net-(D101-Pad1)*%
X135370100Y-69382400D02*
X135370100Y-72382400D01*
%TO.N,Net-(D102-Pad1)*%
X140370100Y-69382400D02*
X140370100Y-72382400D01*
%TO.N,Net-(D103-Pad1)*%
X145370100Y-69382400D02*
X145370100Y-72382400D01*
%TO.N,Net-(D104-Pad1)*%
X150370100Y-69382400D02*
X150370100Y-72382400D01*
%TO.N,/LED0*%
X164630100Y-70002400D02*
X160350089Y-74282411D01*
X160350089Y-74282411D02*
X141090089Y-74282411D01*
X141090089Y-74282411D02*
X135370100Y-80002400D01*
%TO.N,/LED1*%
X164630100Y-72542400D02*
X162190079Y-74982421D01*
X162190079Y-74982421D02*
X145390079Y-74982421D01*
X145390079Y-74982421D02*
X140370100Y-80002400D01*
%TO.N,/LED2*%
X148450110Y-76922390D02*
X145370100Y-80002400D01*
X162790110Y-76922390D02*
X148450110Y-76922390D01*
X164630100Y-75082400D02*
X162790110Y-76922390D01*
%TO.N,/LED3*%
X152750100Y-77622400D02*
X150370100Y-80002400D01*
X164630100Y-77622400D02*
X152750100Y-77622400D01*
%TO.N,Net-(D114-Pad1)*%
X131620100Y-51592400D02*
X126080100Y-57132400D01*
X131620100Y-47132400D02*
X131620100Y-51592400D01*
%TO.N,Net-(D114-Pad2)*%
X119925734Y-56172400D02*
X121460100Y-54638034D01*
X121460100Y-54638034D02*
X121460100Y-47132400D01*
X118370100Y-56172400D02*
X119925734Y-56172400D01*
%TO.N,Net-(J103-Pad2)*%
X153990100Y-111382400D02*
X153990100Y-117762400D01*
X153990100Y-117762400D02*
X152370100Y-119382400D01*
%TO.N,Net-(J103-Pad1)*%
X147620101Y-109012401D02*
X147620101Y-119132399D01*
X147620101Y-119132399D02*
X147370100Y-119382400D01*
X145990100Y-107382400D02*
X147620101Y-109012401D01*
D36*
%TO.N,/IN0*%
X167170100Y-75082400D02*
X165818701Y-76433799D01*
D37*
X140370100Y-97002400D02*
X140370100Y-99222400D01*
D36*
X158398701Y-78973799D02*
X140370100Y-97002400D01*
X165818701Y-78192929D02*
X165037831Y-78973799D01*
D37*
X140370100Y-99222400D02*
X140910100Y-99762400D01*
D36*
X165818701Y-76433799D02*
X165818701Y-78192929D01*
X165037831Y-78973799D02*
X158398701Y-78973799D01*
%TO.N,/IN1*%
X165818701Y-78973799D02*
X165818701Y-80732929D01*
X165037831Y-81513799D02*
X159858701Y-81513799D01*
D37*
X144370100Y-98842400D02*
X143450100Y-99762400D01*
D36*
X159858701Y-81513799D02*
X144370100Y-97002400D01*
D37*
X144370100Y-97002400D02*
X144370100Y-98842400D01*
D36*
X165818701Y-80732929D02*
X165037831Y-81513799D01*
X167170100Y-77622400D02*
X165818701Y-78973799D01*
D37*
%TO.N,Net-(R111-Pad1)*%
X133370100Y-107382400D02*
X129370100Y-111382400D01*
X138370100Y-107382400D02*
X133370100Y-107382400D01*
%TO.N,Net-(R112-Pad1)*%
X143450100Y-107382400D02*
X146370100Y-110302400D01*
X146370100Y-110302400D02*
X146370100Y-111382400D01*
D36*
%TO.N,/RX*%
X126381989Y-76434289D02*
X127830100Y-77882400D01*
X117721989Y-76434289D02*
X126381989Y-76434289D01*
X116370100Y-75082400D02*
X117721989Y-76434289D01*
%TO.N,/TX*%
X117558211Y-78810511D02*
X124361989Y-78810511D01*
X116370100Y-77622400D02*
X117558211Y-78810511D01*
X124361989Y-78810511D02*
X125290100Y-77882400D01*
%TO.N,/ALERT*%
X141195100Y-85132400D02*
X140120100Y-85132400D01*
%TO.N,/nRST*%
X162310100Y-82702400D02*
X162130100Y-82882400D01*
X164630100Y-82702400D02*
X162310100Y-82702400D01*
%TO.N,Net-(R113-Pad2)*%
X144620100Y-85132400D02*
X143545100Y-85132400D01*
X161110100Y-82882400D02*
X160120100Y-82882400D01*
%TD*%
%TA.AperFunction,Conductor*%
%TO.N,GNDD*%
G36*
X139722849Y-74360903D02*
G01*
X139769342Y-74414559D01*
X139779446Y-74484833D01*
X139749952Y-74549413D01*
X139743823Y-74555996D01*
X135633090Y-78666729D01*
X135570778Y-78700755D01*
X135533013Y-78703155D01*
X135375575Y-78689381D01*
X135370100Y-78688902D01*
X135142013Y-78708857D01*
X135136700Y-78710281D01*
X135136698Y-78710281D01*
X134926167Y-78766693D01*
X134926165Y-78766694D01*
X134920857Y-78768116D01*
X134915876Y-78770439D01*
X134915875Y-78770439D01*
X134718338Y-78862551D01*
X134718333Y-78862554D01*
X134713351Y-78864877D01*
X134634729Y-78919929D01*
X134530311Y-78993043D01*
X134530308Y-78993045D01*
X134525800Y-78996202D01*
X134363902Y-79158100D01*
X134232577Y-79345651D01*
X134230254Y-79350633D01*
X134230251Y-79350638D01*
X134163585Y-79493606D01*
X134135816Y-79553157D01*
X134134394Y-79558465D01*
X134134393Y-79558467D01*
X134120537Y-79610178D01*
X134076557Y-79774313D01*
X134056602Y-80002400D01*
X134076557Y-80230487D01*
X134135816Y-80451643D01*
X134138139Y-80456624D01*
X134138139Y-80456625D01*
X134230251Y-80654162D01*
X134230254Y-80654167D01*
X134232577Y-80659149D01*
X134242890Y-80673877D01*
X134359930Y-80841027D01*
X134363902Y-80846700D01*
X134525800Y-81008598D01*
X134530308Y-81011755D01*
X134530311Y-81011757D01*
X134565532Y-81036419D01*
X134713351Y-81139923D01*
X134718333Y-81142246D01*
X134718338Y-81142249D01*
X134915875Y-81234361D01*
X134920857Y-81236684D01*
X134926165Y-81238106D01*
X134926167Y-81238107D01*
X135136698Y-81294519D01*
X135136700Y-81294519D01*
X135142013Y-81295943D01*
X135370100Y-81315898D01*
X135598187Y-81295943D01*
X135603500Y-81294519D01*
X135603502Y-81294519D01*
X135814033Y-81238107D01*
X135814035Y-81238106D01*
X135819343Y-81236684D01*
X135824325Y-81234361D01*
X136021862Y-81142249D01*
X136021867Y-81142246D01*
X136026849Y-81139923D01*
X136174668Y-81036419D01*
X136209889Y-81011757D01*
X136209892Y-81011755D01*
X136214400Y-81008598D01*
X136376298Y-80846700D01*
X136380271Y-80841027D01*
X136497310Y-80673877D01*
X136507623Y-80659149D01*
X136509946Y-80654167D01*
X136509949Y-80654162D01*
X136602061Y-80456625D01*
X136602061Y-80456624D01*
X136604384Y-80451643D01*
X136663643Y-80230487D01*
X136683598Y-80002400D01*
X136669345Y-79839487D01*
X136683334Y-79769882D01*
X136705771Y-79739410D01*
X141367365Y-75077816D01*
X141429677Y-75043790D01*
X141456460Y-75040911D01*
X143954718Y-75040911D01*
X144022839Y-75060913D01*
X144069332Y-75114569D01*
X144079436Y-75184843D01*
X144049942Y-75249423D01*
X144043813Y-75256006D01*
X140633090Y-78666729D01*
X140570778Y-78700755D01*
X140533013Y-78703155D01*
X140375575Y-78689381D01*
X140370100Y-78688902D01*
X140142013Y-78708857D01*
X140136700Y-78710281D01*
X140136698Y-78710281D01*
X139926167Y-78766693D01*
X139926165Y-78766694D01*
X139920857Y-78768116D01*
X139915876Y-78770439D01*
X139915875Y-78770439D01*
X139718338Y-78862551D01*
X139718333Y-78862554D01*
X139713351Y-78864877D01*
X139634729Y-78919929D01*
X139530311Y-78993043D01*
X139530308Y-78993045D01*
X139525800Y-78996202D01*
X139363902Y-79158100D01*
X139232577Y-79345651D01*
X139230254Y-79350633D01*
X139230251Y-79350638D01*
X139163585Y-79493606D01*
X139135816Y-79553157D01*
X139134394Y-79558465D01*
X139134393Y-79558467D01*
X139120537Y-79610178D01*
X139076557Y-79774313D01*
X139056602Y-80002400D01*
X139076557Y-80230487D01*
X139135816Y-80451643D01*
X139138139Y-80456624D01*
X139138139Y-80456625D01*
X139230251Y-80654162D01*
X139230254Y-80654167D01*
X139232577Y-80659149D01*
X139242890Y-80673877D01*
X139359930Y-80841027D01*
X139363902Y-80846700D01*
X139525800Y-81008598D01*
X139530308Y-81011755D01*
X139530311Y-81011757D01*
X139565532Y-81036419D01*
X139713351Y-81139923D01*
X139718333Y-81142246D01*
X139718338Y-81142249D01*
X139915875Y-81234361D01*
X139920857Y-81236684D01*
X139926165Y-81238106D01*
X139926167Y-81238107D01*
X140136698Y-81294519D01*
X140136700Y-81294519D01*
X140142013Y-81295943D01*
X140370100Y-81315898D01*
X140598187Y-81295943D01*
X140603500Y-81294519D01*
X140603502Y-81294519D01*
X140814033Y-81238107D01*
X140814035Y-81238106D01*
X140819343Y-81236684D01*
X140824325Y-81234361D01*
X141021862Y-81142249D01*
X141021867Y-81142246D01*
X141026849Y-81139923D01*
X141174668Y-81036419D01*
X141209889Y-81011757D01*
X141209892Y-81011755D01*
X141214400Y-81008598D01*
X141376298Y-80846700D01*
X141380271Y-80841027D01*
X141497310Y-80673877D01*
X141507623Y-80659149D01*
X141509946Y-80654167D01*
X141509949Y-80654162D01*
X141602061Y-80456625D01*
X141602061Y-80456624D01*
X141604384Y-80451643D01*
X141663643Y-80230487D01*
X141683598Y-80002400D01*
X141669345Y-79839487D01*
X141683334Y-79769882D01*
X141705771Y-79739410D01*
X145667355Y-75777826D01*
X145729667Y-75743800D01*
X145756450Y-75740921D01*
X162123009Y-75740921D01*
X162141959Y-75742354D01*
X162156194Y-75744520D01*
X162156198Y-75744520D01*
X162163428Y-75745620D01*
X162170720Y-75745027D01*
X162170723Y-75745027D01*
X162216097Y-75741336D01*
X162226312Y-75740921D01*
X162234372Y-75740921D01*
X162247662Y-75739372D01*
X162262586Y-75737632D01*
X162266961Y-75737199D01*
X162332418Y-75731875D01*
X162332421Y-75731874D01*
X162339716Y-75731281D01*
X162346680Y-75729025D01*
X162352639Y-75727834D01*
X162358494Y-75726450D01*
X162365760Y-75725603D01*
X162434406Y-75700686D01*
X162438534Y-75699269D01*
X162501015Y-75679028D01*
X162501017Y-75679027D01*
X162507978Y-75676772D01*
X162514233Y-75672976D01*
X162519707Y-75670470D01*
X162525137Y-75667751D01*
X162532016Y-75665254D01*
X162538137Y-75661241D01*
X162593055Y-75625235D01*
X162596759Y-75622898D01*
X162659186Y-75585016D01*
X162667563Y-75577618D01*
X162667587Y-75577645D01*
X162670579Y-75574992D01*
X162673812Y-75572289D01*
X162679931Y-75568277D01*
X162733207Y-75512038D01*
X162735585Y-75509596D01*
X163051959Y-75193222D01*
X163114271Y-75159196D01*
X163185086Y-75164261D01*
X163241922Y-75206808D01*
X163265828Y-75264782D01*
X163266399Y-75268846D01*
X163266697Y-75274014D01*
X163267834Y-75279060D01*
X163267835Y-75279066D01*
X163269665Y-75287186D01*
X163265126Y-75358037D01*
X163235842Y-75403977D01*
X162512834Y-76126985D01*
X162450522Y-76161011D01*
X162423739Y-76163890D01*
X148517180Y-76163890D01*
X148498230Y-76162457D01*
X148483995Y-76160291D01*
X148483991Y-76160291D01*
X148476761Y-76159191D01*
X148469469Y-76159784D01*
X148469466Y-76159784D01*
X148424092Y-76163475D01*
X148413877Y-76163890D01*
X148405817Y-76163890D01*
X148402183Y-76164314D01*
X148402177Y-76164314D01*
X148389152Y-76165833D01*
X148377590Y-76167181D01*
X148373242Y-76167611D01*
X148300474Y-76173530D01*
X148293513Y-76175785D01*
X148287573Y-76176972D01*
X148281698Y-76178361D01*
X148274429Y-76179208D01*
X148205780Y-76204126D01*
X148201652Y-76205543D01*
X148139174Y-76225783D01*
X148139172Y-76225784D01*
X148132211Y-76228039D01*
X148125956Y-76231835D01*
X148120482Y-76234341D01*
X148115052Y-76237060D01*
X148108173Y-76239557D01*
X148102053Y-76243570D01*
X148102052Y-76243570D01*
X148047134Y-76279576D01*
X148043430Y-76281913D01*
X147981003Y-76319795D01*
X147976795Y-76323511D01*
X147976794Y-76323512D01*
X147972657Y-76327166D01*
X147972626Y-76327193D01*
X147972602Y-76327166D01*
X147969610Y-76329819D01*
X147966377Y-76332522D01*
X147960258Y-76336534D01*
X147944779Y-76352874D01*
X147906982Y-76392773D01*
X147904604Y-76395215D01*
X145633090Y-78666729D01*
X145570778Y-78700755D01*
X145533013Y-78703155D01*
X145375575Y-78689381D01*
X145370100Y-78688902D01*
X145142013Y-78708857D01*
X145136700Y-78710281D01*
X145136698Y-78710281D01*
X144926167Y-78766693D01*
X144926165Y-78766694D01*
X144920857Y-78768116D01*
X144915876Y-78770439D01*
X144915875Y-78770439D01*
X144718338Y-78862551D01*
X144718333Y-78862554D01*
X144713351Y-78864877D01*
X144634729Y-78919929D01*
X144530311Y-78993043D01*
X144530308Y-78993045D01*
X144525800Y-78996202D01*
X144363902Y-79158100D01*
X144232577Y-79345651D01*
X144230254Y-79350633D01*
X144230251Y-79350638D01*
X144163585Y-79493606D01*
X144135816Y-79553157D01*
X144134394Y-79558465D01*
X144134393Y-79558467D01*
X144120537Y-79610178D01*
X144076557Y-79774313D01*
X144056602Y-80002400D01*
X144076557Y-80230487D01*
X144135816Y-80451643D01*
X144138139Y-80456624D01*
X144138139Y-80456625D01*
X144230251Y-80654162D01*
X144230254Y-80654167D01*
X144232577Y-80659149D01*
X144242890Y-80673877D01*
X144359930Y-80841027D01*
X144363902Y-80846700D01*
X144525800Y-81008598D01*
X144530308Y-81011755D01*
X144530311Y-81011757D01*
X144565532Y-81036419D01*
X144713351Y-81139923D01*
X144718333Y-81142246D01*
X144718338Y-81142249D01*
X144915875Y-81234361D01*
X144920857Y-81236684D01*
X144926165Y-81238106D01*
X144926167Y-81238107D01*
X145136698Y-81294519D01*
X145136700Y-81294519D01*
X145142013Y-81295943D01*
X145370100Y-81315898D01*
X145598187Y-81295943D01*
X145603500Y-81294519D01*
X145603502Y-81294519D01*
X145814033Y-81238107D01*
X145814035Y-81238106D01*
X145819343Y-81236684D01*
X145824325Y-81234361D01*
X146021862Y-81142249D01*
X146021867Y-81142246D01*
X146026849Y-81139923D01*
X146174668Y-81036419D01*
X146209889Y-81011757D01*
X146209892Y-81011755D01*
X146214400Y-81008598D01*
X146376298Y-80846700D01*
X146380271Y-80841027D01*
X146497310Y-80673877D01*
X146507623Y-80659149D01*
X146509946Y-80654167D01*
X146509949Y-80654162D01*
X146602061Y-80456625D01*
X146602061Y-80456624D01*
X146604384Y-80451643D01*
X146663643Y-80230487D01*
X146683598Y-80002400D01*
X146669345Y-79839487D01*
X146683334Y-79769882D01*
X146705771Y-79739410D01*
X148727386Y-77717795D01*
X148789698Y-77683769D01*
X148816481Y-77680890D01*
X151314739Y-77680890D01*
X151382860Y-77700892D01*
X151429353Y-77754548D01*
X151439457Y-77824822D01*
X151409963Y-77889402D01*
X151403834Y-77895985D01*
X150633090Y-78666729D01*
X150570778Y-78700755D01*
X150533013Y-78703155D01*
X150375575Y-78689381D01*
X150370100Y-78688902D01*
X150142013Y-78708857D01*
X150136700Y-78710281D01*
X150136698Y-78710281D01*
X149926167Y-78766693D01*
X149926165Y-78766694D01*
X149920857Y-78768116D01*
X149915876Y-78770439D01*
X149915875Y-78770439D01*
X149718338Y-78862551D01*
X149718333Y-78862554D01*
X149713351Y-78864877D01*
X149634729Y-78919929D01*
X149530311Y-78993043D01*
X149530308Y-78993045D01*
X149525800Y-78996202D01*
X149363902Y-79158100D01*
X149232577Y-79345651D01*
X149230254Y-79350633D01*
X149230251Y-79350638D01*
X149163585Y-79493606D01*
X149135816Y-79553157D01*
X149134394Y-79558465D01*
X149134393Y-79558467D01*
X149120537Y-79610178D01*
X149076557Y-79774313D01*
X149056602Y-80002400D01*
X149076557Y-80230487D01*
X149135816Y-80451643D01*
X149138139Y-80456624D01*
X149138139Y-80456625D01*
X149230251Y-80654162D01*
X149230254Y-80654167D01*
X149232577Y-80659149D01*
X149242890Y-80673877D01*
X149359930Y-80841027D01*
X149363902Y-80846700D01*
X149525800Y-81008598D01*
X149530308Y-81011755D01*
X149530311Y-81011757D01*
X149565532Y-81036419D01*
X149713351Y-81139923D01*
X149718333Y-81142246D01*
X149718338Y-81142249D01*
X149915875Y-81234361D01*
X149920857Y-81236684D01*
X149926165Y-81238106D01*
X149926167Y-81238107D01*
X150136698Y-81294519D01*
X150136700Y-81294519D01*
X150142013Y-81295943D01*
X150370100Y-81315898D01*
X150598187Y-81295943D01*
X150603500Y-81294519D01*
X150603502Y-81294519D01*
X150814033Y-81238107D01*
X150814035Y-81238106D01*
X150819343Y-81236684D01*
X150824325Y-81234361D01*
X151021862Y-81142249D01*
X151021867Y-81142246D01*
X151026849Y-81139923D01*
X151174668Y-81036419D01*
X151209889Y-81011757D01*
X151209892Y-81011755D01*
X151214400Y-81008598D01*
X151376298Y-80846700D01*
X151380271Y-80841027D01*
X151497310Y-80673877D01*
X151507623Y-80659149D01*
X151509946Y-80654167D01*
X151509949Y-80654162D01*
X151602061Y-80456625D01*
X151602061Y-80456624D01*
X151604384Y-80451643D01*
X151663643Y-80230487D01*
X151683598Y-80002400D01*
X151669345Y-79839487D01*
X151683334Y-79769882D01*
X151705771Y-79739410D01*
X153027376Y-78417805D01*
X153089688Y-78383779D01*
X153116471Y-78380900D01*
X157791506Y-78380900D01*
X157859627Y-78400902D01*
X157906120Y-78454558D01*
X157916224Y-78524832D01*
X157886730Y-78589412D01*
X157880601Y-78595995D01*
X140783347Y-95693248D01*
X140721035Y-95727274D01*
X140661642Y-95725860D01*
X140598187Y-95708857D01*
X140370100Y-95688902D01*
X140142013Y-95708857D01*
X140136700Y-95710281D01*
X140136698Y-95710281D01*
X139926167Y-95766693D01*
X139926165Y-95766694D01*
X139920857Y-95768116D01*
X139915876Y-95770439D01*
X139915875Y-95770439D01*
X139718338Y-95862551D01*
X139718333Y-95862554D01*
X139713351Y-95864877D01*
X139643372Y-95913877D01*
X139530311Y-95993043D01*
X139530308Y-95993045D01*
X139525800Y-95996202D01*
X139363902Y-96158100D01*
X139360745Y-96162608D01*
X139360743Y-96162611D01*
X139337615Y-96195641D01*
X139232577Y-96345651D01*
X139230254Y-96350633D01*
X139230251Y-96350638D01*
X139138139Y-96548175D01*
X139135816Y-96553157D01*
X139134394Y-96558465D01*
X139134393Y-96558467D01*
X139077983Y-96768991D01*
X139076557Y-96774313D01*
X139056602Y-97002400D01*
X139076557Y-97230487D01*
X139077981Y-97235800D01*
X139077981Y-97235802D01*
X139085284Y-97263055D01*
X139135816Y-97451643D01*
X139138139Y-97456624D01*
X139138139Y-97456625D01*
X139230251Y-97654162D01*
X139230254Y-97654167D01*
X139232577Y-97659149D01*
X139363902Y-97846700D01*
X139525800Y-98008598D01*
X139557871Y-98031055D01*
X139602199Y-98086510D01*
X139611600Y-98134267D01*
X139611600Y-98854525D01*
X139591598Y-98922646D01*
X139537942Y-98969139D01*
X139467668Y-98979243D01*
X139403088Y-98949749D01*
X139382387Y-98926796D01*
X139379457Y-98922611D01*
X139379455Y-98922608D01*
X139376298Y-98918100D01*
X139214400Y-98756202D01*
X139209892Y-98753045D01*
X139209889Y-98753043D01*
X139087678Y-98667470D01*
X139026849Y-98624877D01*
X139021867Y-98622554D01*
X139021862Y-98622551D01*
X138824325Y-98530439D01*
X138824324Y-98530439D01*
X138819343Y-98528116D01*
X138814035Y-98526694D01*
X138814033Y-98526693D01*
X138603502Y-98470281D01*
X138603500Y-98470281D01*
X138598187Y-98468857D01*
X138370100Y-98448902D01*
X138142013Y-98468857D01*
X138136700Y-98470281D01*
X138136698Y-98470281D01*
X137926167Y-98526693D01*
X137926165Y-98526694D01*
X137920857Y-98528116D01*
X137915876Y-98530439D01*
X137915875Y-98530439D01*
X137718338Y-98622551D01*
X137718333Y-98622554D01*
X137713351Y-98624877D01*
X137652522Y-98667470D01*
X137530311Y-98753043D01*
X137530308Y-98753045D01*
X137525800Y-98756202D01*
X137363902Y-98918100D01*
X137360745Y-98922608D01*
X137360743Y-98922611D01*
X137350815Y-98936790D01*
X137232577Y-99105651D01*
X137230254Y-99110633D01*
X137230251Y-99110638D01*
X137147162Y-99288825D01*
X137135816Y-99313157D01*
X137134394Y-99318465D01*
X137134393Y-99318467D01*
X137112436Y-99400411D01*
X137076557Y-99534313D01*
X137056602Y-99762400D01*
X137076557Y-99990487D01*
X137077981Y-99995800D01*
X137077981Y-99995802D01*
X137088205Y-100033956D01*
X137135816Y-100211643D01*
X137138139Y-100216624D01*
X137138139Y-100216625D01*
X137230251Y-100414162D01*
X137230254Y-100414167D01*
X137232577Y-100419149D01*
X137363902Y-100606700D01*
X137525800Y-100768598D01*
X137530308Y-100771755D01*
X137530311Y-100771757D01*
X137532589Y-100773352D01*
X137713351Y-100899923D01*
X137718333Y-100902246D01*
X137718338Y-100902249D01*
X137894265Y-100984284D01*
X137920857Y-100996684D01*
X137926165Y-100998106D01*
X137926167Y-100998107D01*
X138136698Y-101054519D01*
X138136700Y-101054519D01*
X138142013Y-101055943D01*
X138370100Y-101075898D01*
X138598187Y-101055943D01*
X138603500Y-101054519D01*
X138603502Y-101054519D01*
X138814033Y-100998107D01*
X138814035Y-100998106D01*
X138819343Y-100996684D01*
X138845935Y-100984284D01*
X139021862Y-100902249D01*
X139021867Y-100902246D01*
X139026849Y-100899923D01*
X139207611Y-100773352D01*
X139209889Y-100771757D01*
X139209892Y-100771755D01*
X139214400Y-100768598D01*
X139376298Y-100606700D01*
X139507623Y-100419149D01*
X139509946Y-100414167D01*
X139509949Y-100414162D01*
X139525905Y-100379943D01*
X139572822Y-100326658D01*
X139641099Y-100307197D01*
X139709059Y-100327739D01*
X139754295Y-100379943D01*
X139770251Y-100414162D01*
X139770254Y-100414167D01*
X139772577Y-100419149D01*
X139903902Y-100606700D01*
X140065800Y-100768598D01*
X140070308Y-100771755D01*
X140070311Y-100771757D01*
X140072589Y-100773352D01*
X140253351Y-100899923D01*
X140258333Y-100902246D01*
X140258338Y-100902249D01*
X140434265Y-100984284D01*
X140460857Y-100996684D01*
X140466165Y-100998106D01*
X140466167Y-100998107D01*
X140676698Y-101054519D01*
X140676700Y-101054519D01*
X140682013Y-101055943D01*
X140910100Y-101075898D01*
X141138187Y-101055943D01*
X141143500Y-101054519D01*
X141143502Y-101054519D01*
X141354033Y-100998107D01*
X141354035Y-100998106D01*
X141359343Y-100996684D01*
X141385935Y-100984284D01*
X141561862Y-100902249D01*
X141561867Y-100902246D01*
X141566849Y-100899923D01*
X141747611Y-100773352D01*
X141749889Y-100771757D01*
X141749892Y-100771755D01*
X141754400Y-100768598D01*
X141916298Y-100606700D01*
X142047623Y-100419149D01*
X142049946Y-100414167D01*
X142049949Y-100414162D01*
X142065905Y-100379943D01*
X142112822Y-100326658D01*
X142181099Y-100307197D01*
X142249059Y-100327739D01*
X142294295Y-100379943D01*
X142310251Y-100414162D01*
X142310254Y-100414167D01*
X142312577Y-100419149D01*
X142443902Y-100606700D01*
X142605800Y-100768598D01*
X142610308Y-100771755D01*
X142610311Y-100771757D01*
X142612589Y-100773352D01*
X142793351Y-100899923D01*
X142798333Y-100902246D01*
X142798338Y-100902249D01*
X142974265Y-100984284D01*
X143000857Y-100996684D01*
X143006165Y-100998106D01*
X143006167Y-100998107D01*
X143216698Y-101054519D01*
X143216700Y-101054519D01*
X143222013Y-101055943D01*
X143450100Y-101075898D01*
X143678187Y-101055943D01*
X143683500Y-101054519D01*
X143683502Y-101054519D01*
X143894033Y-100998107D01*
X143894035Y-100998106D01*
X143899343Y-100996684D01*
X143925935Y-100984284D01*
X144101862Y-100902249D01*
X144101867Y-100902246D01*
X144106849Y-100899923D01*
X144287611Y-100773352D01*
X144289889Y-100771757D01*
X144289892Y-100771755D01*
X144294400Y-100768598D01*
X144456298Y-100606700D01*
X144587623Y-100419149D01*
X144589946Y-100414167D01*
X144589949Y-100414162D01*
X144682061Y-100216625D01*
X144682061Y-100216624D01*
X144684384Y-100211643D01*
X144731996Y-100033956D01*
X144742219Y-99995802D01*
X144742219Y-99995800D01*
X144743643Y-99990487D01*
X144763598Y-99762400D01*
X144759820Y-99719215D01*
X144749345Y-99599487D01*
X144763334Y-99529882D01*
X144785771Y-99499410D01*
X144859011Y-99426170D01*
X144873423Y-99413784D01*
X144885018Y-99405251D01*
X144885023Y-99405246D01*
X144890918Y-99400908D01*
X144895657Y-99395330D01*
X144895660Y-99395327D01*
X144925135Y-99360632D01*
X144932065Y-99353116D01*
X144937760Y-99347421D01*
X144947087Y-99335632D01*
X144955381Y-99325149D01*
X144958172Y-99321745D01*
X145000691Y-99271697D01*
X145000692Y-99271695D01*
X145005433Y-99266115D01*
X145008761Y-99259599D01*
X145012120Y-99254562D01*
X145015294Y-99249423D01*
X145019834Y-99243684D01*
X145022934Y-99237051D01*
X145050736Y-99177563D01*
X145052669Y-99173609D01*
X145063055Y-99153270D01*
X145085869Y-99108592D01*
X145087610Y-99101476D01*
X145089704Y-99095846D01*
X145091623Y-99090079D01*
X145094721Y-99083450D01*
X145098162Y-99066910D01*
X145109582Y-99012004D01*
X145110553Y-99007715D01*
X145126573Y-98942244D01*
X145127908Y-98936790D01*
X145128600Y-98925636D01*
X145128636Y-98925638D01*
X145128875Y-98921648D01*
X145129250Y-98917450D01*
X145130740Y-98910285D01*
X145128646Y-98832879D01*
X145128600Y-98829472D01*
X145128600Y-98134267D01*
X145148602Y-98066146D01*
X145182328Y-98031055D01*
X145214400Y-98008598D01*
X145376298Y-97846700D01*
X145507623Y-97659149D01*
X145509946Y-97654167D01*
X145509949Y-97654162D01*
X145602061Y-97456625D01*
X145602061Y-97456624D01*
X145604384Y-97451643D01*
X145654917Y-97263055D01*
X145662219Y-97235802D01*
X145662219Y-97235800D01*
X145663643Y-97230487D01*
X145683598Y-97002400D01*
X145663643Y-96774313D01*
X145662219Y-96768998D01*
X145662218Y-96768991D01*
X145646641Y-96710859D01*
X145648330Y-96639883D01*
X145679252Y-96589152D01*
X159153192Y-83115212D01*
X159215504Y-83081186D01*
X159286319Y-83086251D01*
X159343155Y-83128798D01*
X159361845Y-83164533D01*
X159381518Y-83223673D01*
X159385165Y-83229695D01*
X159385166Y-83229697D01*
X159470888Y-83371241D01*
X159475480Y-83378824D01*
X159480369Y-83383887D01*
X159480370Y-83383888D01*
X159528947Y-83434190D01*
X159601482Y-83509302D01*
X159653177Y-83543130D01*
X159745924Y-83603822D01*
X159753259Y-83608622D01*
X159759863Y-83611078D01*
X159759865Y-83611079D01*
X159916658Y-83669390D01*
X159916660Y-83669390D01*
X159923268Y-83671848D01*
X160000701Y-83682180D01*
X160096080Y-83694907D01*
X160096084Y-83694907D01*
X160103061Y-83695838D01*
X160110072Y-83695200D01*
X160110076Y-83695200D01*
X160253132Y-83682180D01*
X160283700Y-83679398D01*
X160290402Y-83677220D01*
X160290404Y-83677220D01*
X160449509Y-83625524D01*
X160449512Y-83625523D01*
X160456208Y-83623347D01*
X160488961Y-83603822D01*
X160557716Y-83586122D01*
X160617618Y-83603597D01*
X160701589Y-83653257D01*
X160717504Y-83662669D01*
X160725115Y-83664880D01*
X160725117Y-83664881D01*
X160777285Y-83680037D01*
X160873634Y-83708029D01*
X160880041Y-83708533D01*
X160880045Y-83708534D01*
X160907656Y-83710707D01*
X160907662Y-83710707D01*
X160910111Y-83710900D01*
X161109978Y-83710900D01*
X161310088Y-83710899D01*
X161346566Y-83708029D01*
X161471102Y-83671848D01*
X161495083Y-83664881D01*
X161495085Y-83664880D01*
X161502696Y-83662669D01*
X161509521Y-83658633D01*
X161509525Y-83658631D01*
X161555961Y-83631169D01*
X161624777Y-83613709D01*
X161684239Y-83631169D01*
X161730675Y-83658631D01*
X161730679Y-83658633D01*
X161737504Y-83662669D01*
X161745115Y-83664880D01*
X161745117Y-83664881D01*
X161797285Y-83680037D01*
X161893634Y-83708029D01*
X161900041Y-83708533D01*
X161900045Y-83708534D01*
X161927656Y-83710707D01*
X161927662Y-83710707D01*
X161930111Y-83710900D01*
X162129978Y-83710900D01*
X162330088Y-83710899D01*
X162366566Y-83708029D01*
X162491102Y-83671848D01*
X162515083Y-83664881D01*
X162515085Y-83664880D01*
X162522696Y-83662669D01*
X162548456Y-83647435D01*
X162655820Y-83583940D01*
X162662641Y-83579906D01*
X162777606Y-83464941D01*
X162804048Y-83420230D01*
X162817336Y-83397761D01*
X162869229Y-83349308D01*
X162925790Y-83335900D01*
X163338424Y-83335900D01*
X163406545Y-83355902D01*
X163445857Y-83396065D01*
X163519075Y-83515547D01*
X163522464Y-83519460D01*
X163522466Y-83519462D01*
X163568006Y-83572034D01*
X163666802Y-83686087D01*
X163840399Y-83830210D01*
X163844851Y-83832812D01*
X163844856Y-83832815D01*
X163894169Y-83861631D01*
X163942892Y-83913270D01*
X163955963Y-83983053D01*
X163929231Y-84048825D01*
X163898695Y-84076183D01*
X163896435Y-84077360D01*
X163716005Y-84212830D01*
X163560124Y-84375950D01*
X163432978Y-84562340D01*
X163430804Y-84567024D01*
X163430802Y-84567027D01*
X163354691Y-84730995D01*
X163337981Y-84766993D01*
X163277685Y-84984413D01*
X163253709Y-85208762D01*
X163254006Y-85213914D01*
X163254006Y-85213918D01*
X163260571Y-85327766D01*
X163266697Y-85434014D01*
X163267834Y-85439060D01*
X163267835Y-85439066D01*
X163298654Y-85575818D01*
X163316300Y-85654120D01*
X163401186Y-85863169D01*
X163451845Y-85945838D01*
X163516379Y-86051147D01*
X163519075Y-86055547D01*
X163666802Y-86226087D01*
X163840399Y-86370210D01*
X163844851Y-86372812D01*
X163844856Y-86372815D01*
X163894169Y-86401631D01*
X163942892Y-86453270D01*
X163955963Y-86523053D01*
X163929231Y-86588825D01*
X163898695Y-86616183D01*
X163896435Y-86617360D01*
X163827333Y-86669243D01*
X163747025Y-86729540D01*
X163716005Y-86752830D01*
X163712433Y-86756568D01*
X163589850Y-86884844D01*
X163560124Y-86915950D01*
X163432978Y-87102340D01*
X163430804Y-87107024D01*
X163430802Y-87107027D01*
X163358470Y-87262854D01*
X163337981Y-87306993D01*
X163277685Y-87524413D01*
X163253709Y-87748762D01*
X163254006Y-87753914D01*
X163254006Y-87753918D01*
X163259718Y-87852978D01*
X163266697Y-87974014D01*
X163267834Y-87979060D01*
X163267835Y-87979066D01*
X163289084Y-88073352D01*
X163316300Y-88194120D01*
X163318242Y-88198902D01*
X163318243Y-88198906D01*
X163390236Y-88376202D01*
X163401186Y-88403169D01*
X163452477Y-88486869D01*
X163516379Y-88591147D01*
X163519075Y-88595547D01*
X163666802Y-88766087D01*
X163840399Y-88910210D01*
X163844851Y-88912812D01*
X163844856Y-88912815D01*
X163894169Y-88941631D01*
X163942892Y-88993270D01*
X163955963Y-89063053D01*
X163929231Y-89128825D01*
X163898695Y-89156183D01*
X163896435Y-89157360D01*
X163716005Y-89292830D01*
X163560124Y-89455950D01*
X163432978Y-89642340D01*
X163430804Y-89647024D01*
X163430802Y-89647027D01*
X163342794Y-89836625D01*
X163337981Y-89846993D01*
X163277685Y-90064413D01*
X163253709Y-90288762D01*
X163254006Y-90293914D01*
X163254006Y-90293918D01*
X163262806Y-90446539D01*
X163266697Y-90514014D01*
X163267834Y-90519060D01*
X163267835Y-90519066D01*
X163289084Y-90613352D01*
X163316300Y-90734120D01*
X163318242Y-90738902D01*
X163318243Y-90738906D01*
X163386875Y-90907926D01*
X163401186Y-90943169D01*
X163450331Y-91023366D01*
X163516379Y-91131147D01*
X163519075Y-91135547D01*
X163666802Y-91306087D01*
X163756874Y-91380866D01*
X163823534Y-91436208D01*
X163840399Y-91450210D01*
X163844851Y-91452812D01*
X163844856Y-91452815D01*
X163894169Y-91481631D01*
X163942892Y-91533270D01*
X163955963Y-91603053D01*
X163929231Y-91668825D01*
X163898695Y-91696183D01*
X163896435Y-91697360D01*
X163837483Y-91741622D01*
X163756083Y-91802739D01*
X163716005Y-91832830D01*
X163560124Y-91995950D01*
X163432978Y-92182340D01*
X163430804Y-92187024D01*
X163430802Y-92187027D01*
X163359502Y-92340631D01*
X163337981Y-92386993D01*
X163277685Y-92604413D01*
X163253709Y-92828762D01*
X163254006Y-92833914D01*
X163254006Y-92833918D01*
X163259718Y-92932978D01*
X163266697Y-93054014D01*
X163267834Y-93059060D01*
X163267835Y-93059066D01*
X163289084Y-93153352D01*
X163316300Y-93274120D01*
X163318242Y-93278902D01*
X163318243Y-93278906D01*
X163354922Y-93369235D01*
X163401186Y-93483169D01*
X163452477Y-93566869D01*
X163516379Y-93671147D01*
X163519075Y-93675547D01*
X163666802Y-93846087D01*
X163840399Y-93990210D01*
X163844851Y-93992812D01*
X163844856Y-93992815D01*
X163894169Y-94021631D01*
X163942892Y-94073270D01*
X163955963Y-94143053D01*
X163929231Y-94208825D01*
X163898695Y-94236183D01*
X163896435Y-94237360D01*
X163716005Y-94372830D01*
X163560124Y-94535950D01*
X163432978Y-94722340D01*
X163430804Y-94727024D01*
X163430802Y-94727027D01*
X163359502Y-94880631D01*
X163337981Y-94926993D01*
X163277685Y-95144413D01*
X163253709Y-95368762D01*
X163254006Y-95373914D01*
X163254006Y-95373918D01*
X163259718Y-95472978D01*
X163266697Y-95594014D01*
X163267834Y-95599060D01*
X163267835Y-95599066D01*
X163288081Y-95688902D01*
X163316300Y-95814120D01*
X163318242Y-95818902D01*
X163318243Y-95818906D01*
X163354922Y-95909235D01*
X163401186Y-96023169D01*
X163452477Y-96106869D01*
X163516379Y-96211147D01*
X163519075Y-96215547D01*
X163666802Y-96386087D01*
X163840399Y-96530210D01*
X163844851Y-96532812D01*
X163844856Y-96532815D01*
X163894169Y-96561631D01*
X163942892Y-96613270D01*
X163955963Y-96683053D01*
X163929231Y-96748825D01*
X163898695Y-96776183D01*
X163896435Y-96777360D01*
X163716005Y-96912830D01*
X163560124Y-97075950D01*
X163432978Y-97262340D01*
X163430804Y-97267024D01*
X163430802Y-97267027D01*
X163342794Y-97456625D01*
X163337981Y-97466993D01*
X163277685Y-97684413D01*
X163253709Y-97908762D01*
X163254006Y-97913914D01*
X163254006Y-97913918D01*
X163259718Y-98012978D01*
X163266697Y-98134014D01*
X163267834Y-98139060D01*
X163267835Y-98139066D01*
X163289084Y-98233352D01*
X163316300Y-98354120D01*
X163318242Y-98358902D01*
X163318243Y-98358906D01*
X163399242Y-98558382D01*
X163401186Y-98563169D01*
X163452477Y-98646869D01*
X163516379Y-98751147D01*
X163519075Y-98755547D01*
X163666802Y-98926087D01*
X163840399Y-99070210D01*
X163844851Y-99072812D01*
X163844856Y-99072815D01*
X163894169Y-99101631D01*
X163942892Y-99153270D01*
X163955963Y-99223053D01*
X163929231Y-99288825D01*
X163898695Y-99316183D01*
X163896435Y-99317360D01*
X163838802Y-99360632D01*
X163768010Y-99413784D01*
X163716005Y-99452830D01*
X163560124Y-99615950D01*
X163432978Y-99802340D01*
X163430804Y-99807024D01*
X163430802Y-99807027D01*
X163343176Y-99995802D01*
X163337981Y-100006993D01*
X163277685Y-100224413D01*
X163253709Y-100448762D01*
X163254006Y-100453914D01*
X163254006Y-100453918D01*
X163259718Y-100552978D01*
X163266697Y-100674014D01*
X163267834Y-100679060D01*
X163267835Y-100679066D01*
X163288012Y-100768598D01*
X163316300Y-100894120D01*
X163318242Y-100898902D01*
X163318243Y-100898906D01*
X163382204Y-101056422D01*
X163401186Y-101103169D01*
X163452477Y-101186869D01*
X163516379Y-101291147D01*
X163519075Y-101295547D01*
X163666802Y-101466087D01*
X163840399Y-101610210D01*
X163844851Y-101612812D01*
X163844856Y-101612815D01*
X163894169Y-101641631D01*
X163942892Y-101693270D01*
X163955963Y-101763053D01*
X163929231Y-101828825D01*
X163898695Y-101856183D01*
X163896435Y-101857360D01*
X163716005Y-101992830D01*
X163560124Y-102155950D01*
X163432978Y-102342340D01*
X163430804Y-102347024D01*
X163430802Y-102347027D01*
X163359502Y-102500631D01*
X163337981Y-102546993D01*
X163277685Y-102764413D01*
X163253709Y-102988762D01*
X163254006Y-102993914D01*
X163254006Y-102993918D01*
X163259718Y-103092978D01*
X163266697Y-103214014D01*
X163267834Y-103219060D01*
X163267835Y-103219066D01*
X163289084Y-103313352D01*
X163316300Y-103434120D01*
X163318242Y-103438902D01*
X163318243Y-103438906D01*
X163354922Y-103529235D01*
X163401186Y-103643169D01*
X163452477Y-103726869D01*
X163516379Y-103831147D01*
X163519075Y-103835547D01*
X163666802Y-104006087D01*
X163840399Y-104150210D01*
X163844851Y-104152812D01*
X163844856Y-104152815D01*
X163894169Y-104181631D01*
X163942892Y-104233270D01*
X163955963Y-104303053D01*
X163929231Y-104368825D01*
X163898695Y-104396183D01*
X163896435Y-104397360D01*
X163716005Y-104532830D01*
X163560124Y-104695950D01*
X163432978Y-104882340D01*
X163430804Y-104887024D01*
X163430802Y-104887027D01*
X163359502Y-105040631D01*
X163337981Y-105086993D01*
X163277685Y-105304413D01*
X163253709Y-105528762D01*
X163254006Y-105533914D01*
X163254006Y-105533918D01*
X163259718Y-105632978D01*
X163266697Y-105754014D01*
X163267834Y-105759060D01*
X163267835Y-105759066D01*
X163289084Y-105853352D01*
X163316300Y-105974120D01*
X163318242Y-105978902D01*
X163318243Y-105978906D01*
X163399242Y-106178382D01*
X163401186Y-106183169D01*
X163452477Y-106266869D01*
X163516379Y-106371147D01*
X163519075Y-106375547D01*
X163666802Y-106546087D01*
X163840399Y-106690210D01*
X163844851Y-106692812D01*
X163844856Y-106692815D01*
X163894169Y-106721631D01*
X163942892Y-106773270D01*
X163955963Y-106843053D01*
X163929231Y-106908825D01*
X163898695Y-106936183D01*
X163896435Y-106937360D01*
X163716005Y-107072830D01*
X163560124Y-107235950D01*
X163432978Y-107422340D01*
X163430804Y-107427024D01*
X163430802Y-107427027D01*
X163348727Y-107603843D01*
X163337981Y-107626993D01*
X163277685Y-107844413D01*
X163253709Y-108068762D01*
X163254006Y-108073914D01*
X163254006Y-108073918D01*
X163259718Y-108172978D01*
X163266697Y-108294014D01*
X163267834Y-108299060D01*
X163267835Y-108299066D01*
X163288012Y-108388598D01*
X163316300Y-108514120D01*
X163318242Y-108518902D01*
X163318243Y-108518906D01*
X163395585Y-108709376D01*
X163401186Y-108723169D01*
X163452477Y-108806869D01*
X163516379Y-108911147D01*
X163519075Y-108915547D01*
X163666802Y-109086087D01*
X163811036Y-109205833D01*
X163826002Y-109218257D01*
X163840399Y-109230210D01*
X163844851Y-109232812D01*
X163844856Y-109232815D01*
X163894169Y-109261631D01*
X163942892Y-109313270D01*
X163955963Y-109383053D01*
X163929231Y-109448825D01*
X163898695Y-109476183D01*
X163896435Y-109477360D01*
X163716005Y-109612830D01*
X163560124Y-109775950D01*
X163432978Y-109962340D01*
X163430804Y-109967024D01*
X163430802Y-109967027D01*
X163345604Y-110150571D01*
X163337981Y-110166993D01*
X163277685Y-110384413D01*
X163253709Y-110608762D01*
X163254006Y-110613914D01*
X163254006Y-110613918D01*
X163259718Y-110712978D01*
X163266697Y-110834014D01*
X163267834Y-110839060D01*
X163267835Y-110839066D01*
X163289040Y-110933157D01*
X163316300Y-111054120D01*
X163318242Y-111058902D01*
X163318243Y-111058906D01*
X163399242Y-111258382D01*
X163401186Y-111263169D01*
X163452477Y-111346869D01*
X163516379Y-111451147D01*
X163519075Y-111455547D01*
X163666802Y-111626087D01*
X163840399Y-111770210D01*
X163844851Y-111772812D01*
X163844856Y-111772815D01*
X163894169Y-111801631D01*
X163942892Y-111853270D01*
X163955963Y-111923053D01*
X163929231Y-111988825D01*
X163898695Y-112016183D01*
X163896435Y-112017360D01*
X163716005Y-112152830D01*
X163560124Y-112315950D01*
X163432978Y-112502340D01*
X163430804Y-112507024D01*
X163430802Y-112507027D01*
X163346173Y-112689345D01*
X163337981Y-112706993D01*
X163277685Y-112924413D01*
X163253709Y-113148762D01*
X163254006Y-113153914D01*
X163254006Y-113153918D01*
X163259718Y-113252978D01*
X163266697Y-113374014D01*
X163267834Y-113379060D01*
X163267835Y-113379066D01*
X163289084Y-113473352D01*
X163316300Y-113594120D01*
X163318242Y-113598902D01*
X163318243Y-113598906D01*
X163354922Y-113689235D01*
X163401186Y-113803169D01*
X163452477Y-113886869D01*
X163516379Y-113991147D01*
X163519075Y-113995547D01*
X163666802Y-114166087D01*
X163840399Y-114310210D01*
X163844851Y-114312812D01*
X163844856Y-114312815D01*
X163894169Y-114341631D01*
X163942892Y-114393270D01*
X163955963Y-114463053D01*
X163929231Y-114528825D01*
X163898695Y-114556183D01*
X163896435Y-114557360D01*
X163716005Y-114692830D01*
X163560124Y-114855950D01*
X163432978Y-115042340D01*
X163430804Y-115047024D01*
X163430802Y-115047027D01*
X163359502Y-115200631D01*
X163337981Y-115246993D01*
X163277685Y-115464413D01*
X163253709Y-115688762D01*
X163254006Y-115693914D01*
X163254006Y-115693918D01*
X163261116Y-115817221D01*
X163266697Y-115914014D01*
X163267834Y-115919060D01*
X163267835Y-115919066D01*
X163282201Y-115982810D01*
X163316300Y-116134120D01*
X163401186Y-116343169D01*
X163519075Y-116535547D01*
X163666802Y-116706087D01*
X163840399Y-116850210D01*
X163844851Y-116852812D01*
X163844856Y-116852815D01*
X163894169Y-116881631D01*
X163942892Y-116933270D01*
X163955963Y-117003053D01*
X163929231Y-117068825D01*
X163898695Y-117096183D01*
X163896435Y-117097360D01*
X163716005Y-117232830D01*
X163712433Y-117236568D01*
X163577661Y-117377599D01*
X163560124Y-117395950D01*
X163432978Y-117582340D01*
X163430804Y-117587024D01*
X163430802Y-117587027D01*
X163341255Y-117779940D01*
X163337981Y-117786993D01*
X163277685Y-118004413D01*
X163253709Y-118228762D01*
X163254006Y-118233914D01*
X163254006Y-118233918D01*
X163260090Y-118339426D01*
X163266697Y-118454014D01*
X163267834Y-118459060D01*
X163267835Y-118459066D01*
X163287427Y-118545999D01*
X163316300Y-118674120D01*
X163401186Y-118883169D01*
X163403885Y-118887573D01*
X163515906Y-119070375D01*
X163519075Y-119075547D01*
X163666802Y-119246087D01*
X163811036Y-119365833D01*
X163835361Y-119386027D01*
X163840399Y-119390210D01*
X163844851Y-119392812D01*
X163844856Y-119392815D01*
X163929055Y-119442017D01*
X164035203Y-119504045D01*
X164245984Y-119584534D01*
X164251052Y-119585565D01*
X164251055Y-119585566D01*
X164359504Y-119607630D01*
X164467081Y-119629517D01*
X164472256Y-119629707D01*
X164472258Y-119629707D01*
X164687392Y-119637596D01*
X164687396Y-119637596D01*
X164692556Y-119637785D01*
X164697676Y-119637129D01*
X164697678Y-119637129D01*
X164767085Y-119628238D01*
X164916353Y-119609116D01*
X164921302Y-119607631D01*
X164921308Y-119607630D01*
X165127513Y-119545765D01*
X165127512Y-119545765D01*
X165132463Y-119544280D01*
X165227519Y-119497712D01*
X165330431Y-119447297D01*
X165330436Y-119447294D01*
X165335082Y-119445018D01*
X165339292Y-119442015D01*
X165339297Y-119442012D01*
X165514555Y-119317001D01*
X165514559Y-119316997D01*
X165518767Y-119313996D01*
X165678587Y-119154733D01*
X165799470Y-118986507D01*
X165855464Y-118942859D01*
X165926168Y-118936413D01*
X165989132Y-118969216D01*
X166009225Y-118994199D01*
X166056375Y-119071143D01*
X166056379Y-119071148D01*
X166059075Y-119075547D01*
X166206802Y-119246087D01*
X166351036Y-119365833D01*
X166375361Y-119386027D01*
X166380399Y-119390210D01*
X166384851Y-119392812D01*
X166384856Y-119392815D01*
X166469055Y-119442017D01*
X166575203Y-119504045D01*
X166785984Y-119584534D01*
X166791052Y-119585565D01*
X166791055Y-119585566D01*
X166899504Y-119607630D01*
X167007081Y-119629517D01*
X167012256Y-119629707D01*
X167012258Y-119629707D01*
X167227392Y-119637596D01*
X167227396Y-119637596D01*
X167232556Y-119637785D01*
X167237676Y-119637129D01*
X167237678Y-119637129D01*
X167307085Y-119628238D01*
X167456353Y-119609116D01*
X167461302Y-119607631D01*
X167461308Y-119607630D01*
X167667513Y-119545765D01*
X167667512Y-119545765D01*
X167672463Y-119544280D01*
X167767519Y-119497712D01*
X167870431Y-119447297D01*
X167870436Y-119447294D01*
X167875082Y-119445018D01*
X167948546Y-119392616D01*
X168015618Y-119369344D01*
X168084626Y-119386027D01*
X168133660Y-119437371D01*
X168147152Y-119507073D01*
X168143719Y-119526668D01*
X168091489Y-119729149D01*
X168089535Y-119735932D01*
X167944112Y-120192192D01*
X167883996Y-120380805D01*
X167881661Y-120387475D01*
X167640297Y-121019779D01*
X167637609Y-121026272D01*
X167361154Y-121644089D01*
X167358087Y-121650457D01*
X167047446Y-122251762D01*
X167044033Y-122257938D01*
X166819386Y-122638769D01*
X166700157Y-122840890D01*
X166696397Y-122846874D01*
X166320380Y-123409623D01*
X166316290Y-123415387D01*
X165909322Y-123956154D01*
X165904916Y-123961680D01*
X165468246Y-124478800D01*
X165463536Y-124484070D01*
X164998574Y-124975877D01*
X164993577Y-124980874D01*
X164501770Y-125445836D01*
X164496500Y-125450546D01*
X163979380Y-125887216D01*
X163973854Y-125891622D01*
X163433087Y-126298590D01*
X163427323Y-126302680D01*
X162864574Y-126678697D01*
X162858590Y-126682457D01*
X162275638Y-127026333D01*
X162269472Y-127029741D01*
X161668150Y-127340391D01*
X161661796Y-127343450D01*
X161043972Y-127619909D01*
X161037479Y-127622597D01*
X160573299Y-127799785D01*
X160405176Y-127863961D01*
X160398506Y-127866296D01*
X159753632Y-128071835D01*
X159746856Y-128073787D01*
X159529521Y-128129849D01*
X159091501Y-128242837D01*
X159084610Y-128244410D01*
X158420807Y-128376448D01*
X158413840Y-128377632D01*
X157964203Y-128441111D01*
X157743655Y-128472247D01*
X157736650Y-128473036D01*
X157407616Y-128500790D01*
X157062229Y-128529923D01*
X157055173Y-128530319D01*
X156815939Y-128537031D01*
X156420158Y-128548136D01*
X156397251Y-128546687D01*
X156381370Y-128544214D01*
X156372468Y-128545378D01*
X156372465Y-128545378D01*
X156349849Y-128548336D01*
X156333511Y-128549400D01*
X127214428Y-128549400D01*
X127195043Y-128547900D01*
X127180242Y-128545595D01*
X127180239Y-128545595D01*
X127171370Y-128544214D01*
X127147505Y-128547335D01*
X127127632Y-128548349D01*
X126485027Y-128530319D01*
X126477971Y-128529923D01*
X126132584Y-128500790D01*
X125803550Y-128473036D01*
X125796545Y-128472247D01*
X125575997Y-128441111D01*
X125126360Y-128377632D01*
X125119393Y-128376448D01*
X124455590Y-128244410D01*
X124448699Y-128242837D01*
X124010679Y-128129849D01*
X123793344Y-128073787D01*
X123786568Y-128071835D01*
X123141694Y-127866296D01*
X123135024Y-127863961D01*
X122966901Y-127799785D01*
X122502721Y-127622597D01*
X122496228Y-127619909D01*
X121878404Y-127343450D01*
X121872050Y-127340391D01*
X121270728Y-127029741D01*
X121264562Y-127026333D01*
X120681610Y-126682457D01*
X120675626Y-126678697D01*
X120112877Y-126302680D01*
X120107113Y-126298590D01*
X119566346Y-125891622D01*
X119560820Y-125887216D01*
X119043700Y-125450546D01*
X119038430Y-125445836D01*
X118546623Y-124980874D01*
X118541626Y-124975877D01*
X118076664Y-124484070D01*
X118071954Y-124478800D01*
X117635284Y-123961680D01*
X117630878Y-123956154D01*
X117223910Y-123415387D01*
X117219820Y-123409623D01*
X116843803Y-122846874D01*
X116840043Y-122840890D01*
X116720814Y-122638769D01*
X116496167Y-122257938D01*
X116492754Y-122251762D01*
X116182113Y-121650457D01*
X116179046Y-121644089D01*
X115902591Y-121026272D01*
X115899903Y-121019779D01*
X115658539Y-120387475D01*
X115656204Y-120380805D01*
X115596088Y-120192192D01*
X115450665Y-119735932D01*
X115448711Y-119729149D01*
X115410932Y-119582689D01*
X115324104Y-119246087D01*
X115279663Y-119073801D01*
X115278090Y-119066910D01*
X115146052Y-118403107D01*
X115144868Y-118396140D01*
X115070368Y-117868436D01*
X115050253Y-117725955D01*
X115049463Y-117718941D01*
X115048058Y-117702277D01*
X115010370Y-117255471D01*
X114992577Y-117044529D01*
X114992181Y-117037473D01*
X114977977Y-116531248D01*
X114974471Y-116406281D01*
X114976168Y-116381842D01*
X114978171Y-116369939D01*
X114978324Y-116357400D01*
X114974373Y-116329812D01*
X114973100Y-116311949D01*
X114973100Y-113975641D01*
X114993102Y-113907520D01*
X115046758Y-113861027D01*
X115117032Y-113850923D01*
X115181612Y-113880417D01*
X115206533Y-113909806D01*
X115259075Y-113995547D01*
X115406802Y-114166087D01*
X115580399Y-114310210D01*
X115584851Y-114312812D01*
X115584856Y-114312815D01*
X115674191Y-114365018D01*
X115775203Y-114424045D01*
X115985984Y-114504534D01*
X115991052Y-114505565D01*
X115991055Y-114505566D01*
X116099504Y-114527630D01*
X116207081Y-114549517D01*
X116212256Y-114549707D01*
X116212258Y-114549707D01*
X116427392Y-114557596D01*
X116427396Y-114557596D01*
X116432556Y-114557785D01*
X116437676Y-114557129D01*
X116437678Y-114557129D01*
X116507085Y-114548238D01*
X116656353Y-114529116D01*
X116661302Y-114527631D01*
X116661308Y-114527630D01*
X116867513Y-114465765D01*
X116867512Y-114465765D01*
X116872463Y-114464280D01*
X116967519Y-114417712D01*
X117070431Y-114367297D01*
X117070436Y-114367294D01*
X117075082Y-114365018D01*
X117079292Y-114362015D01*
X117079297Y-114362012D01*
X117254555Y-114237001D01*
X117254559Y-114236997D01*
X117258767Y-114233996D01*
X117418587Y-114074733D01*
X117539470Y-113906507D01*
X117595464Y-113862859D01*
X117666168Y-113856413D01*
X117729132Y-113889216D01*
X117749225Y-113914199D01*
X117796375Y-113991143D01*
X117796379Y-113991148D01*
X117799075Y-113995547D01*
X117946802Y-114166087D01*
X118120399Y-114310210D01*
X118124851Y-114312812D01*
X118124856Y-114312815D01*
X118214191Y-114365018D01*
X118315203Y-114424045D01*
X118525984Y-114504534D01*
X118531052Y-114505565D01*
X118531055Y-114505566D01*
X118639504Y-114527630D01*
X118747081Y-114549517D01*
X118752256Y-114549707D01*
X118752258Y-114549707D01*
X118967392Y-114557596D01*
X118967396Y-114557596D01*
X118972556Y-114557785D01*
X118977676Y-114557129D01*
X118977678Y-114557129D01*
X119047085Y-114548238D01*
X119196353Y-114529116D01*
X119201302Y-114527631D01*
X119201308Y-114527630D01*
X119407513Y-114465765D01*
X119407512Y-114465765D01*
X119412463Y-114464280D01*
X119507519Y-114417712D01*
X119610431Y-114367297D01*
X119610436Y-114367294D01*
X119615082Y-114365018D01*
X119619292Y-114362015D01*
X119619297Y-114362012D01*
X119794555Y-114237001D01*
X119794559Y-114236997D01*
X119798767Y-114233996D01*
X119958587Y-114074733D01*
X120090250Y-113891505D01*
X120190218Y-113689235D01*
X120255808Y-113473352D01*
X120285258Y-113249656D01*
X120286902Y-113182400D01*
X120268415Y-112957532D01*
X120213449Y-112738704D01*
X120123480Y-112531791D01*
X120075101Y-112457009D01*
X120003734Y-112346691D01*
X120003732Y-112346688D01*
X120000926Y-112342351D01*
X119849077Y-112175471D01*
X119845026Y-112172272D01*
X119845022Y-112172268D01*
X119676066Y-112038834D01*
X119676062Y-112038832D01*
X119672011Y-112035632D01*
X119648635Y-112022728D01*
X119598664Y-111972296D01*
X119583892Y-111902853D01*
X119609008Y-111836447D01*
X119636359Y-111809841D01*
X119794555Y-111697001D01*
X119794559Y-111696997D01*
X119798767Y-111693996D01*
X119958587Y-111534733D01*
X120068050Y-111382400D01*
X128056602Y-111382400D01*
X128076557Y-111610487D01*
X128077981Y-111615800D01*
X128077981Y-111615802D01*
X128099739Y-111697001D01*
X128135816Y-111831643D01*
X128138139Y-111836624D01*
X128138139Y-111836625D01*
X128230251Y-112034162D01*
X128230254Y-112034167D01*
X128232577Y-112039149D01*
X128235734Y-112043657D01*
X128312178Y-112152830D01*
X128363902Y-112226700D01*
X128525800Y-112388598D01*
X128530308Y-112391755D01*
X128530311Y-112391757D01*
X128557869Y-112411053D01*
X128713351Y-112519923D01*
X128718333Y-112522246D01*
X128718338Y-112522249D01*
X128878599Y-112596979D01*
X128920857Y-112616684D01*
X128926165Y-112618106D01*
X128926167Y-112618107D01*
X129136698Y-112674519D01*
X129136700Y-112674519D01*
X129142013Y-112675943D01*
X129370100Y-112695898D01*
X129598187Y-112675943D01*
X129603500Y-112674519D01*
X129603502Y-112674519D01*
X129814033Y-112618107D01*
X129814035Y-112618106D01*
X129819343Y-112616684D01*
X129861601Y-112596979D01*
X130021862Y-112522249D01*
X130021867Y-112522246D01*
X130026849Y-112519923D01*
X130182331Y-112411053D01*
X130209889Y-112391757D01*
X130209892Y-112391755D01*
X130214400Y-112388598D01*
X130376298Y-112226700D01*
X130428023Y-112152830D01*
X130504466Y-112043657D01*
X130507623Y-112039149D01*
X130509946Y-112034167D01*
X130509949Y-112034162D01*
X130602061Y-111836625D01*
X130602061Y-111836624D01*
X130604384Y-111831643D01*
X130640462Y-111697001D01*
X130662219Y-111615802D01*
X130662219Y-111615800D01*
X130663643Y-111610487D01*
X130683598Y-111382400D01*
X130683119Y-111376925D01*
X130669345Y-111219487D01*
X130683334Y-111149882D01*
X130705771Y-111119410D01*
X133647376Y-108177805D01*
X133709688Y-108143779D01*
X133736471Y-108140900D01*
X136938809Y-108140900D01*
X137006930Y-108160902D01*
X137053423Y-108214558D01*
X137064072Y-108253292D01*
X137068355Y-108292716D01*
X137069857Y-108296723D01*
X137066241Y-108366019D01*
X137036454Y-108413363D01*
X129881189Y-115568628D01*
X129866777Y-115581014D01*
X129855182Y-115589547D01*
X129855177Y-115589552D01*
X129849282Y-115593890D01*
X129844543Y-115599468D01*
X129844540Y-115599471D01*
X129815065Y-115634166D01*
X129808135Y-115641682D01*
X129802440Y-115647377D01*
X129800160Y-115650259D01*
X129784819Y-115669649D01*
X129782028Y-115673053D01*
X129764302Y-115693918D01*
X129734767Y-115728683D01*
X129731439Y-115735199D01*
X129728072Y-115740248D01*
X129724905Y-115745377D01*
X129720366Y-115751114D01*
X129689445Y-115817273D01*
X129687542Y-115821167D01*
X129654331Y-115886206D01*
X129652592Y-115893314D01*
X129650493Y-115898957D01*
X129648576Y-115904720D01*
X129645478Y-115911348D01*
X129643988Y-115918510D01*
X129643988Y-115918511D01*
X129630614Y-115982810D01*
X129629644Y-115987094D01*
X129612292Y-116058008D01*
X129611600Y-116069162D01*
X129611564Y-116069160D01*
X129611325Y-116073153D01*
X129610951Y-116077345D01*
X129609460Y-116084513D01*
X129609658Y-116091830D01*
X129611554Y-116161919D01*
X129611600Y-116165326D01*
X129611600Y-117257907D01*
X129591598Y-117326028D01*
X129537942Y-117372521D01*
X129516337Y-117379943D01*
X129509784Y-117380655D01*
X129502389Y-117383427D01*
X129502386Y-117383428D01*
X129408750Y-117418531D01*
X129373395Y-117431785D01*
X129256839Y-117519139D01*
X129169485Y-117635695D01*
X129118355Y-117772084D01*
X129111600Y-117834266D01*
X129111600Y-120930534D01*
X129118355Y-120992716D01*
X129169485Y-121129105D01*
X129256839Y-121245661D01*
X129373395Y-121333015D01*
X129509784Y-121384145D01*
X129571966Y-121390900D01*
X131168234Y-121390900D01*
X131230416Y-121384145D01*
X131366805Y-121333015D01*
X131483361Y-121245661D01*
X131570715Y-121129105D01*
X131621845Y-120992716D01*
X131628600Y-120930534D01*
X131628600Y-117834266D01*
X131621845Y-117772084D01*
X131570715Y-117635695D01*
X131483361Y-117519139D01*
X131366805Y-117431785D01*
X131331450Y-117418531D01*
X131237814Y-117383428D01*
X131237811Y-117383427D01*
X131230416Y-117380655D01*
X131224647Y-117380028D01*
X131163809Y-117345274D01*
X131130987Y-117282319D01*
X131128600Y-117257907D01*
X131128600Y-116518769D01*
X131148602Y-116450648D01*
X131165505Y-116429674D01*
X135631029Y-111964150D01*
X135693341Y-111930124D01*
X135764156Y-111935189D01*
X135820992Y-111977736D01*
X135834319Y-111999995D01*
X135850251Y-112034162D01*
X135850254Y-112034167D01*
X135852577Y-112039149D01*
X135855734Y-112043657D01*
X135932178Y-112152830D01*
X135983902Y-112226700D01*
X136145800Y-112388598D01*
X136177871Y-112411055D01*
X136222199Y-112466510D01*
X136231600Y-112514267D01*
X136231600Y-117396029D01*
X136211598Y-117464150D01*
X136194695Y-117485124D01*
X136157340Y-117522479D01*
X136095028Y-117556505D01*
X136024213Y-117551440D01*
X135997967Y-117537964D01*
X135983495Y-117528239D01*
X135983492Y-117528237D01*
X135978838Y-117525110D01*
X135773133Y-117434812D01*
X135767682Y-117433503D01*
X135767678Y-117433502D01*
X135560146Y-117383678D01*
X135560145Y-117383678D01*
X135554689Y-117382368D01*
X135470625Y-117377521D01*
X135336017Y-117369760D01*
X135336014Y-117369760D01*
X135330410Y-117369437D01*
X135107385Y-117396425D01*
X134892665Y-117462482D01*
X134887685Y-117465052D01*
X134887681Y-117465054D01*
X134710498Y-117556505D01*
X134693036Y-117565518D01*
X134514808Y-117702277D01*
X134363615Y-117868436D01*
X134360637Y-117873183D01*
X134360635Y-117873186D01*
X134278317Y-118004413D01*
X134244236Y-118058744D01*
X134160444Y-118267183D01*
X134114887Y-118487167D01*
X134111600Y-118544175D01*
X134111600Y-120189399D01*
X134111849Y-120192186D01*
X134111849Y-120192192D01*
X134118109Y-120262329D01*
X134126483Y-120356162D01*
X134127964Y-120361576D01*
X134127965Y-120361581D01*
X134149500Y-120440296D01*
X134185763Y-120572851D01*
X134282478Y-120775618D01*
X134413571Y-120958054D01*
X134574899Y-121114392D01*
X134761362Y-121239690D01*
X134967067Y-121329988D01*
X134972518Y-121331297D01*
X134972522Y-121331298D01*
X135180054Y-121381122D01*
X135185511Y-121382432D01*
X135269575Y-121387279D01*
X135404183Y-121395040D01*
X135404186Y-121395040D01*
X135409790Y-121395363D01*
X135632815Y-121368375D01*
X135847535Y-121302318D01*
X135852515Y-121299748D01*
X135852519Y-121299746D01*
X136042181Y-121201854D01*
X136042182Y-121201854D01*
X136047164Y-121199282D01*
X136225392Y-121062523D01*
X136376585Y-120896364D01*
X136495964Y-120706056D01*
X136579756Y-120497617D01*
X136625313Y-120277633D01*
X136628600Y-120220625D01*
X136628600Y-119248771D01*
X136648602Y-119180650D01*
X136665505Y-119159676D01*
X137479011Y-118346170D01*
X137493423Y-118333784D01*
X137505018Y-118325251D01*
X137505023Y-118325246D01*
X137510918Y-118320908D01*
X137515657Y-118315330D01*
X137515660Y-118315327D01*
X137545135Y-118280632D01*
X137552065Y-118273116D01*
X137557760Y-118267421D01*
X137575381Y-118245149D01*
X137578172Y-118241745D01*
X137620691Y-118191697D01*
X137620692Y-118191695D01*
X137625433Y-118186115D01*
X137628761Y-118179599D01*
X137632128Y-118174550D01*
X137635295Y-118169421D01*
X137639834Y-118163684D01*
X137670755Y-118097525D01*
X137672661Y-118093625D01*
X137705869Y-118028592D01*
X137707608Y-118021484D01*
X137709707Y-118015841D01*
X137711624Y-118010078D01*
X137714722Y-118003450D01*
X137729587Y-117931983D01*
X137730557Y-117927699D01*
X137746573Y-117862245D01*
X137747908Y-117856790D01*
X137748600Y-117845636D01*
X137748636Y-117845638D01*
X137748875Y-117841645D01*
X137749249Y-117837453D01*
X137750740Y-117830285D01*
X137748646Y-117752879D01*
X137748600Y-117749472D01*
X137748600Y-112514267D01*
X137768602Y-112446146D01*
X137802328Y-112411055D01*
X137834400Y-112388598D01*
X137996298Y-112226700D01*
X138048023Y-112152830D01*
X138124466Y-112043657D01*
X138127623Y-112039149D01*
X138129946Y-112034167D01*
X138129949Y-112034162D01*
X138222061Y-111836625D01*
X138222061Y-111836624D01*
X138224384Y-111831643D01*
X138260462Y-111697001D01*
X138282219Y-111615802D01*
X138282219Y-111615800D01*
X138283643Y-111610487D01*
X138303598Y-111382400D01*
X138283643Y-111154313D01*
X138224384Y-110933157D01*
X138175743Y-110828845D01*
X138129949Y-110730638D01*
X138129946Y-110730633D01*
X138127623Y-110725651D01*
X138054198Y-110620789D01*
X137999457Y-110542611D01*
X137999455Y-110542608D01*
X137996298Y-110538100D01*
X137834400Y-110376202D01*
X137829892Y-110373045D01*
X137829889Y-110373043D01*
X137751711Y-110318302D01*
X137646849Y-110244877D01*
X137641867Y-110242554D01*
X137641862Y-110242551D01*
X137607695Y-110226619D01*
X137554410Y-110179701D01*
X137534949Y-110111424D01*
X137555491Y-110043464D01*
X137571850Y-110023329D01*
X138167373Y-109427806D01*
X138229685Y-109393780D01*
X138256468Y-109390901D01*
X139593029Y-109390901D01*
X139611979Y-109392334D01*
X139626214Y-109394500D01*
X139626218Y-109394500D01*
X139633448Y-109395600D01*
X139640740Y-109395007D01*
X139640743Y-109395007D01*
X139686117Y-109391316D01*
X139696332Y-109390901D01*
X139704392Y-109390901D01*
X139717682Y-109389352D01*
X139732606Y-109387612D01*
X139736981Y-109387179D01*
X139802438Y-109381855D01*
X139802441Y-109381854D01*
X139809736Y-109381261D01*
X139816700Y-109379005D01*
X139822659Y-109377814D01*
X139828514Y-109376430D01*
X139835780Y-109375583D01*
X139904426Y-109350666D01*
X139908554Y-109349249D01*
X139971035Y-109329008D01*
X139971037Y-109329007D01*
X139977998Y-109326752D01*
X139984253Y-109322956D01*
X139989727Y-109320450D01*
X139995157Y-109317731D01*
X140002036Y-109315234D01*
X140063075Y-109275215D01*
X140066779Y-109272878D01*
X140129206Y-109234996D01*
X140137583Y-109227598D01*
X140137607Y-109227625D01*
X140140599Y-109224972D01*
X140143832Y-109222269D01*
X140149951Y-109218257D01*
X140203227Y-109162018D01*
X140205605Y-109159576D01*
X140647110Y-108718071D01*
X140709422Y-108684045D01*
X140747187Y-108681645D01*
X140904625Y-108695419D01*
X140910100Y-108695898D01*
X141138187Y-108675943D01*
X141143500Y-108674519D01*
X141143502Y-108674519D01*
X141354033Y-108618107D01*
X141354035Y-108618106D01*
X141359343Y-108616684D01*
X141378828Y-108607598D01*
X141561862Y-108522249D01*
X141561867Y-108522246D01*
X141566849Y-108519923D01*
X141747611Y-108393352D01*
X141749889Y-108391757D01*
X141749892Y-108391755D01*
X141754400Y-108388598D01*
X141916298Y-108226700D01*
X142047623Y-108039149D01*
X142049946Y-108034167D01*
X142049949Y-108034162D01*
X142065905Y-107999943D01*
X142112822Y-107946658D01*
X142181099Y-107927197D01*
X142249059Y-107947739D01*
X142294295Y-107999943D01*
X142310251Y-108034162D01*
X142310254Y-108034167D01*
X142312577Y-108039149D01*
X142443902Y-108226700D01*
X142605800Y-108388598D01*
X142610308Y-108391755D01*
X142610311Y-108391757D01*
X142612589Y-108393352D01*
X142793351Y-108519923D01*
X142798333Y-108522246D01*
X142798338Y-108522249D01*
X142981372Y-108607598D01*
X143000857Y-108616684D01*
X143006165Y-108618106D01*
X143006167Y-108618107D01*
X143216698Y-108674519D01*
X143216700Y-108674519D01*
X143222013Y-108675943D01*
X143450100Y-108695898D01*
X143455575Y-108695419D01*
X143613013Y-108681645D01*
X143682618Y-108695634D01*
X143713090Y-108718071D01*
X145359808Y-110364789D01*
X145393834Y-110427101D01*
X145388769Y-110497916D01*
X145367383Y-110534619D01*
X145363902Y-110538100D01*
X145232577Y-110725651D01*
X145230254Y-110730633D01*
X145230251Y-110730638D01*
X145184457Y-110828845D01*
X145135816Y-110933157D01*
X145076557Y-111154313D01*
X145056602Y-111382400D01*
X145076557Y-111610487D01*
X145077981Y-111615800D01*
X145077981Y-111615802D01*
X145099739Y-111697001D01*
X145135816Y-111831643D01*
X145138139Y-111836624D01*
X145138139Y-111836625D01*
X145230251Y-112034162D01*
X145230254Y-112034167D01*
X145232577Y-112039149D01*
X145235734Y-112043657D01*
X145312178Y-112152830D01*
X145363902Y-112226700D01*
X145525800Y-112388598D01*
X145530308Y-112391755D01*
X145530311Y-112391757D01*
X145557869Y-112411053D01*
X145713351Y-112519923D01*
X145718333Y-112522246D01*
X145718338Y-112522249D01*
X145878599Y-112596979D01*
X145920857Y-112616684D01*
X145926165Y-112618106D01*
X145926167Y-112618107D01*
X146136698Y-112674519D01*
X146136700Y-112674519D01*
X146142013Y-112675943D01*
X146370100Y-112695898D01*
X146598187Y-112675943D01*
X146603500Y-112674519D01*
X146603502Y-112674519D01*
X146702990Y-112647861D01*
X146773966Y-112649551D01*
X146832762Y-112689345D01*
X146860710Y-112754609D01*
X146861601Y-112769568D01*
X146861601Y-117247900D01*
X146841599Y-117316021D01*
X146787943Y-117362514D01*
X146735601Y-117373900D01*
X146571966Y-117373900D01*
X146509784Y-117380655D01*
X146373395Y-117431785D01*
X146256839Y-117519139D01*
X146169485Y-117635695D01*
X146118355Y-117772084D01*
X146111600Y-117834266D01*
X146111600Y-120930534D01*
X146118355Y-120992716D01*
X146169485Y-121129105D01*
X146256839Y-121245661D01*
X146373395Y-121333015D01*
X146509784Y-121384145D01*
X146571966Y-121390900D01*
X148168234Y-121390900D01*
X148230416Y-121384145D01*
X148366805Y-121333015D01*
X148483361Y-121245661D01*
X148570715Y-121129105D01*
X148621845Y-120992716D01*
X148628600Y-120930534D01*
X148628600Y-120189399D01*
X151111600Y-120189399D01*
X151111849Y-120192186D01*
X151111849Y-120192192D01*
X151118109Y-120262329D01*
X151126483Y-120356162D01*
X151127964Y-120361576D01*
X151127965Y-120361581D01*
X151149500Y-120440296D01*
X151185763Y-120572851D01*
X151282478Y-120775618D01*
X151413571Y-120958054D01*
X151574899Y-121114392D01*
X151761362Y-121239690D01*
X151967067Y-121329988D01*
X151972518Y-121331297D01*
X151972522Y-121331298D01*
X152180054Y-121381122D01*
X152185511Y-121382432D01*
X152269575Y-121387279D01*
X152404183Y-121395040D01*
X152404186Y-121395040D01*
X152409790Y-121395363D01*
X152632815Y-121368375D01*
X152847535Y-121302318D01*
X152852515Y-121299748D01*
X152852519Y-121299746D01*
X153042181Y-121201854D01*
X153042182Y-121201854D01*
X153047164Y-121199282D01*
X153225392Y-121062523D01*
X153376585Y-120896364D01*
X153495964Y-120706056D01*
X153579756Y-120497617D01*
X153625313Y-120277633D01*
X153628600Y-120220625D01*
X153628600Y-119248771D01*
X153648602Y-119180650D01*
X153665505Y-119159676D01*
X154479011Y-118346170D01*
X154493423Y-118333784D01*
X154505018Y-118325251D01*
X154505023Y-118325246D01*
X154510918Y-118320908D01*
X154515657Y-118315330D01*
X154515660Y-118315327D01*
X154545135Y-118280632D01*
X154552065Y-118273116D01*
X154557760Y-118267421D01*
X154575381Y-118245149D01*
X154578172Y-118241745D01*
X154620691Y-118191697D01*
X154620692Y-118191695D01*
X154625433Y-118186115D01*
X154628761Y-118179599D01*
X154632128Y-118174550D01*
X154635295Y-118169421D01*
X154639834Y-118163684D01*
X154670755Y-118097525D01*
X154672661Y-118093625D01*
X154705869Y-118028592D01*
X154707608Y-118021484D01*
X154709707Y-118015841D01*
X154711624Y-118010078D01*
X154714722Y-118003450D01*
X154729587Y-117931983D01*
X154730557Y-117927699D01*
X154746573Y-117862245D01*
X154747908Y-117856790D01*
X154748600Y-117845636D01*
X154748636Y-117845638D01*
X154748875Y-117841645D01*
X154749249Y-117837453D01*
X154750740Y-117830285D01*
X154748646Y-117752879D01*
X154748600Y-117749472D01*
X154748600Y-112514267D01*
X154768602Y-112446146D01*
X154802328Y-112411055D01*
X154834400Y-112388598D01*
X154996298Y-112226700D01*
X155048023Y-112152830D01*
X155124466Y-112043657D01*
X155127623Y-112039149D01*
X155129946Y-112034167D01*
X155129949Y-112034162D01*
X155222061Y-111836625D01*
X155222061Y-111836624D01*
X155224384Y-111831643D01*
X155260462Y-111697001D01*
X155282219Y-111615802D01*
X155282219Y-111615800D01*
X155283643Y-111610487D01*
X155303598Y-111382400D01*
X155283643Y-111154313D01*
X155224384Y-110933157D01*
X155175743Y-110828845D01*
X155129949Y-110730638D01*
X155129946Y-110730633D01*
X155127623Y-110725651D01*
X155054198Y-110620789D01*
X154999457Y-110542611D01*
X154999455Y-110542608D01*
X154996298Y-110538100D01*
X154834400Y-110376202D01*
X154829892Y-110373045D01*
X154829889Y-110373043D01*
X154751711Y-110318302D01*
X154646849Y-110244877D01*
X154641867Y-110242554D01*
X154641862Y-110242551D01*
X154444325Y-110150439D01*
X154444324Y-110150439D01*
X154439343Y-110148116D01*
X154434035Y-110146694D01*
X154434033Y-110146693D01*
X154223502Y-110090281D01*
X154223500Y-110090281D01*
X154218187Y-110088857D01*
X153990100Y-110068902D01*
X153762013Y-110088857D01*
X153756700Y-110090281D01*
X153756698Y-110090281D01*
X153546167Y-110146693D01*
X153546165Y-110146694D01*
X153540857Y-110148116D01*
X153535876Y-110150439D01*
X153535875Y-110150439D01*
X153338338Y-110242551D01*
X153338333Y-110242554D01*
X153333351Y-110244877D01*
X153228489Y-110318302D01*
X153150311Y-110373043D01*
X153150308Y-110373045D01*
X153145800Y-110376202D01*
X152983902Y-110538100D01*
X152980745Y-110542608D01*
X152980743Y-110542611D01*
X152926002Y-110620789D01*
X152852577Y-110725651D01*
X152850254Y-110730633D01*
X152850251Y-110730638D01*
X152804457Y-110828845D01*
X152755816Y-110933157D01*
X152696557Y-111154313D01*
X152676602Y-111382400D01*
X152696557Y-111610487D01*
X152697981Y-111615800D01*
X152697981Y-111615802D01*
X152719739Y-111697001D01*
X152755816Y-111831643D01*
X152758139Y-111836624D01*
X152758139Y-111836625D01*
X152850251Y-112034162D01*
X152850254Y-112034167D01*
X152852577Y-112039149D01*
X152855734Y-112043657D01*
X152932178Y-112152830D01*
X152983902Y-112226700D01*
X153145800Y-112388598D01*
X153177871Y-112411055D01*
X153222199Y-112466510D01*
X153231600Y-112514267D01*
X153231600Y-117396029D01*
X153211598Y-117464150D01*
X153194695Y-117485124D01*
X153157340Y-117522479D01*
X153095028Y-117556505D01*
X153024213Y-117551440D01*
X152997967Y-117537964D01*
X152983495Y-117528239D01*
X152983492Y-117528237D01*
X152978838Y-117525110D01*
X152773133Y-117434812D01*
X152767682Y-117433503D01*
X152767678Y-117433502D01*
X152560146Y-117383678D01*
X152560145Y-117383678D01*
X152554689Y-117382368D01*
X152470625Y-117377521D01*
X152336017Y-117369760D01*
X152336014Y-117369760D01*
X152330410Y-117369437D01*
X152107385Y-117396425D01*
X151892665Y-117462482D01*
X151887685Y-117465052D01*
X151887681Y-117465054D01*
X151710498Y-117556505D01*
X151693036Y-117565518D01*
X151514808Y-117702277D01*
X151363615Y-117868436D01*
X151360637Y-117873183D01*
X151360635Y-117873186D01*
X151278317Y-118004413D01*
X151244236Y-118058744D01*
X151160444Y-118267183D01*
X151114887Y-118487167D01*
X151111600Y-118544175D01*
X151111600Y-120189399D01*
X148628600Y-120189399D01*
X148628600Y-117834266D01*
X148621845Y-117772084D01*
X148570715Y-117635695D01*
X148483361Y-117519139D01*
X148429036Y-117478425D01*
X148386521Y-117421566D01*
X148378601Y-117377599D01*
X148378601Y-109079471D01*
X148380034Y-109060521D01*
X148382200Y-109046286D01*
X148382200Y-109046282D01*
X148383300Y-109039052D01*
X148379016Y-108986383D01*
X148378601Y-108976168D01*
X148378601Y-108968108D01*
X148375310Y-108939881D01*
X148374879Y-108935522D01*
X148369555Y-108870063D01*
X148369554Y-108870060D01*
X148368961Y-108862765D01*
X148366705Y-108855801D01*
X148365518Y-108849862D01*
X148364131Y-108843991D01*
X148363283Y-108836720D01*
X148360787Y-108829844D01*
X148360785Y-108829835D01*
X148338376Y-108768103D01*
X148336966Y-108763999D01*
X148314453Y-108694502D01*
X148310657Y-108688247D01*
X148308158Y-108682788D01*
X148305430Y-108677340D01*
X148302934Y-108670464D01*
X148262906Y-108609411D01*
X148260582Y-108605728D01*
X148225601Y-108548081D01*
X148225600Y-108548080D01*
X148222696Y-108543294D01*
X148215299Y-108534918D01*
X148215326Y-108534894D01*
X148212671Y-108531900D01*
X148209969Y-108528669D01*
X148205957Y-108522549D01*
X148149718Y-108469273D01*
X148147276Y-108466895D01*
X147325771Y-107645390D01*
X147291745Y-107583078D01*
X147289345Y-107545313D01*
X147303119Y-107387875D01*
X147303598Y-107382400D01*
X147283643Y-107154313D01*
X147224384Y-106933157D01*
X147213038Y-106908825D01*
X147129949Y-106730638D01*
X147129946Y-106730633D01*
X147127623Y-106725651D01*
X146996298Y-106538100D01*
X146834400Y-106376202D01*
X146829892Y-106373045D01*
X146829889Y-106373043D01*
X146707678Y-106287470D01*
X146646849Y-106244877D01*
X146641867Y-106242554D01*
X146641862Y-106242551D01*
X146444325Y-106150439D01*
X146444324Y-106150439D01*
X146439343Y-106148116D01*
X146434035Y-106146694D01*
X146434033Y-106146693D01*
X146223502Y-106090281D01*
X146223500Y-106090281D01*
X146218187Y-106088857D01*
X145990100Y-106068902D01*
X145762013Y-106088857D01*
X145756700Y-106090281D01*
X145756698Y-106090281D01*
X145546167Y-106146693D01*
X145546165Y-106146694D01*
X145540857Y-106148116D01*
X145535876Y-106150439D01*
X145535875Y-106150439D01*
X145338338Y-106242551D01*
X145338333Y-106242554D01*
X145333351Y-106244877D01*
X145272522Y-106287470D01*
X145150311Y-106373043D01*
X145150308Y-106373045D01*
X145145800Y-106376202D01*
X144983902Y-106538100D01*
X144852577Y-106725651D01*
X144850254Y-106730633D01*
X144850251Y-106730638D01*
X144834295Y-106764857D01*
X144787378Y-106818142D01*
X144719101Y-106837603D01*
X144651141Y-106817061D01*
X144605905Y-106764857D01*
X144589949Y-106730638D01*
X144589946Y-106730633D01*
X144587623Y-106725651D01*
X144456298Y-106538100D01*
X144294400Y-106376202D01*
X144289892Y-106373045D01*
X144289889Y-106373043D01*
X144167678Y-106287470D01*
X144106849Y-106244877D01*
X144101867Y-106242554D01*
X144101862Y-106242551D01*
X143904325Y-106150439D01*
X143904324Y-106150439D01*
X143899343Y-106148116D01*
X143894035Y-106146694D01*
X143894033Y-106146693D01*
X143683502Y-106090281D01*
X143683500Y-106090281D01*
X143678187Y-106088857D01*
X143450100Y-106068902D01*
X143222013Y-106088857D01*
X143216700Y-106090281D01*
X143216698Y-106090281D01*
X143006167Y-106146693D01*
X143006165Y-106146694D01*
X143000857Y-106148116D01*
X142995876Y-106150439D01*
X142995875Y-106150439D01*
X142798338Y-106242551D01*
X142798333Y-106242554D01*
X142793351Y-106244877D01*
X142732522Y-106287470D01*
X142610311Y-106373043D01*
X142610308Y-106373045D01*
X142605800Y-106376202D01*
X142443902Y-106538100D01*
X142312577Y-106725651D01*
X142310254Y-106730633D01*
X142310251Y-106730638D01*
X142294295Y-106764857D01*
X142247378Y-106818142D01*
X142179101Y-106837603D01*
X142111141Y-106817061D01*
X142065905Y-106764857D01*
X142049949Y-106730638D01*
X142049946Y-106730633D01*
X142047623Y-106725651D01*
X141916298Y-106538100D01*
X141754400Y-106376202D01*
X141749892Y-106373045D01*
X141749889Y-106373043D01*
X141627678Y-106287470D01*
X141566849Y-106244877D01*
X141561867Y-106242554D01*
X141561862Y-106242551D01*
X141364325Y-106150439D01*
X141364324Y-106150439D01*
X141359343Y-106148116D01*
X141354035Y-106146694D01*
X141354033Y-106146693D01*
X141143502Y-106090281D01*
X141143500Y-106090281D01*
X141138187Y-106088857D01*
X140910100Y-106068902D01*
X140682013Y-106088857D01*
X140676700Y-106090281D01*
X140676698Y-106090281D01*
X140466167Y-106146693D01*
X140466165Y-106146694D01*
X140460857Y-106148116D01*
X140455876Y-106150439D01*
X140455875Y-106150439D01*
X140258338Y-106242551D01*
X140258333Y-106242554D01*
X140253351Y-106244877D01*
X140192522Y-106287470D01*
X140070311Y-106373043D01*
X140070308Y-106373045D01*
X140065800Y-106376202D01*
X139903902Y-106538100D01*
X139900743Y-106542611D01*
X139897208Y-106546824D01*
X139896074Y-106545873D01*
X139846029Y-106585871D01*
X139775410Y-106593176D01*
X139712051Y-106561142D01*
X139676070Y-106499938D01*
X139673018Y-106482883D01*
X139671845Y-106472084D01*
X139620715Y-106335695D01*
X139533361Y-106219139D01*
X139416805Y-106131785D01*
X139280416Y-106080655D01*
X139218234Y-106073900D01*
X137521966Y-106073900D01*
X137459784Y-106080655D01*
X137323395Y-106131785D01*
X137206839Y-106219139D01*
X137119485Y-106335695D01*
X137068355Y-106472084D01*
X137065397Y-106499314D01*
X137064072Y-106511508D01*
X137036830Y-106577070D01*
X136978466Y-106617496D01*
X136938809Y-106623900D01*
X133437169Y-106623900D01*
X133418221Y-106622467D01*
X133410880Y-106621350D01*
X133403983Y-106620301D01*
X133403981Y-106620301D01*
X133396751Y-106619201D01*
X133389459Y-106619794D01*
X133389456Y-106619794D01*
X133344082Y-106623485D01*
X133333867Y-106623900D01*
X133325807Y-106623900D01*
X133312517Y-106625449D01*
X133297593Y-106627189D01*
X133293218Y-106627622D01*
X133227761Y-106632946D01*
X133227758Y-106632947D01*
X133220463Y-106633540D01*
X133213499Y-106635796D01*
X133207540Y-106636987D01*
X133201685Y-106638371D01*
X133194419Y-106639218D01*
X133125773Y-106664135D01*
X133121645Y-106665552D01*
X133059164Y-106685793D01*
X133059162Y-106685794D01*
X133052201Y-106688049D01*
X133045946Y-106691845D01*
X133040472Y-106694351D01*
X133035042Y-106697070D01*
X133028163Y-106699567D01*
X132967116Y-106739591D01*
X132963427Y-106741918D01*
X132943235Y-106754171D01*
X132905793Y-106776891D01*
X132905788Y-106776895D01*
X132900992Y-106779805D01*
X132892616Y-106787203D01*
X132892593Y-106787177D01*
X132889603Y-106789826D01*
X132886364Y-106792534D01*
X132880248Y-106796544D01*
X132875221Y-106801851D01*
X132875217Y-106801854D01*
X132826972Y-106852783D01*
X132824594Y-106855225D01*
X129633090Y-110046729D01*
X129570778Y-110080755D01*
X129533013Y-110083155D01*
X129375575Y-110069381D01*
X129370100Y-110068902D01*
X129142013Y-110088857D01*
X129136700Y-110090281D01*
X129136698Y-110090281D01*
X128926167Y-110146693D01*
X128926165Y-110146694D01*
X128920857Y-110148116D01*
X128915876Y-110150439D01*
X128915875Y-110150439D01*
X128718338Y-110242551D01*
X128718333Y-110242554D01*
X128713351Y-110244877D01*
X128608489Y-110318302D01*
X128530311Y-110373043D01*
X128530308Y-110373045D01*
X128525800Y-110376202D01*
X128363902Y-110538100D01*
X128360745Y-110542608D01*
X128360743Y-110542611D01*
X128306002Y-110620789D01*
X128232577Y-110725651D01*
X128230254Y-110730633D01*
X128230251Y-110730638D01*
X128184457Y-110828845D01*
X128135816Y-110933157D01*
X128076557Y-111154313D01*
X128056602Y-111382400D01*
X120068050Y-111382400D01*
X120090250Y-111351505D01*
X120185000Y-111159793D01*
X120187924Y-111153877D01*
X120187925Y-111153875D01*
X120190218Y-111149235D01*
X120255808Y-110933352D01*
X120282496Y-110730638D01*
X120284821Y-110712978D01*
X120284822Y-110712972D01*
X120285258Y-110709656D01*
X120286902Y-110642400D01*
X120268415Y-110417532D01*
X120213449Y-110198704D01*
X120123480Y-109991791D01*
X120075101Y-109917009D01*
X120003734Y-109806691D01*
X120003732Y-109806688D01*
X120000926Y-109802351D01*
X119849077Y-109635471D01*
X119845026Y-109632272D01*
X119845022Y-109632268D01*
X119676066Y-109498834D01*
X119676062Y-109498832D01*
X119672011Y-109495632D01*
X119648635Y-109482728D01*
X119598664Y-109432296D01*
X119583892Y-109362853D01*
X119609008Y-109296447D01*
X119636359Y-109269841D01*
X119794555Y-109157001D01*
X119794559Y-109156997D01*
X119798767Y-109153996D01*
X119958587Y-108994733D01*
X120090250Y-108811505D01*
X120159957Y-108670464D01*
X120187924Y-108613877D01*
X120187925Y-108613875D01*
X120190218Y-108609235D01*
X120255808Y-108393352D01*
X120256947Y-108384701D01*
X120284821Y-108172978D01*
X120284822Y-108172972D01*
X120285258Y-108169656D01*
X120286902Y-108102400D01*
X120268415Y-107877532D01*
X120213449Y-107658704D01*
X120123480Y-107451791D01*
X120075047Y-107376925D01*
X120003734Y-107266691D01*
X120003732Y-107266688D01*
X120000926Y-107262351D01*
X119849077Y-107095471D01*
X119845026Y-107092272D01*
X119845022Y-107092268D01*
X119676066Y-106958834D01*
X119676062Y-106958832D01*
X119672011Y-106955632D01*
X119648635Y-106942728D01*
X119598664Y-106892296D01*
X119583892Y-106822853D01*
X119609008Y-106756447D01*
X119636359Y-106729841D01*
X119794555Y-106617001D01*
X119794559Y-106616997D01*
X119798767Y-106613996D01*
X119958587Y-106454733D01*
X120090250Y-106271505D01*
X120160862Y-106128633D01*
X120187924Y-106073877D01*
X120187925Y-106073875D01*
X120190218Y-106069235D01*
X120255808Y-105853352D01*
X120285258Y-105629656D01*
X120286902Y-105562400D01*
X120268415Y-105337532D01*
X120213449Y-105118704D01*
X120123480Y-104911791D01*
X120075101Y-104837009D01*
X120003734Y-104726691D01*
X120003732Y-104726688D01*
X120000926Y-104722351D01*
X119849077Y-104555471D01*
X119845026Y-104552272D01*
X119845022Y-104552268D01*
X119676066Y-104418834D01*
X119676062Y-104418832D01*
X119672011Y-104415632D01*
X119648635Y-104402728D01*
X119598664Y-104352296D01*
X119583892Y-104282853D01*
X119609008Y-104216447D01*
X119636359Y-104189841D01*
X119794555Y-104077001D01*
X119794559Y-104076997D01*
X119798767Y-104073996D01*
X119958587Y-103914733D01*
X120090250Y-103731505D01*
X120190218Y-103529235D01*
X120255808Y-103313352D01*
X120285258Y-103089656D01*
X120286902Y-103022400D01*
X120268415Y-102797532D01*
X120213449Y-102578704D01*
X120123480Y-102371791D01*
X120075101Y-102297009D01*
X120003734Y-102186691D01*
X120003732Y-102186688D01*
X120000926Y-102182351D01*
X119849077Y-102015471D01*
X119845026Y-102012272D01*
X119845022Y-102012268D01*
X119676066Y-101878834D01*
X119676062Y-101878832D01*
X119672011Y-101875632D01*
X119648635Y-101862728D01*
X119598664Y-101812296D01*
X119583892Y-101742853D01*
X119609008Y-101676447D01*
X119636359Y-101649841D01*
X119794555Y-101537001D01*
X119794559Y-101536997D01*
X119798767Y-101533996D01*
X119958587Y-101374733D01*
X120090250Y-101191505D01*
X120185833Y-100998107D01*
X120187924Y-100993877D01*
X120187925Y-100993875D01*
X120190218Y-100989235D01*
X120255808Y-100773352D01*
X120285258Y-100549656D01*
X120286902Y-100482400D01*
X120268415Y-100257532D01*
X120213449Y-100038704D01*
X120123480Y-99831791D01*
X120075047Y-99756925D01*
X120003734Y-99646691D01*
X120003732Y-99646688D01*
X120000926Y-99642351D01*
X119849077Y-99475471D01*
X119845026Y-99472272D01*
X119845022Y-99472268D01*
X119676066Y-99338834D01*
X119676062Y-99338832D01*
X119672011Y-99335632D01*
X119648635Y-99322728D01*
X119598664Y-99272296D01*
X119583892Y-99202853D01*
X119609008Y-99136447D01*
X119636359Y-99109841D01*
X119794555Y-98997001D01*
X119794559Y-98996997D01*
X119798767Y-98993996D01*
X119958587Y-98834733D01*
X120090250Y-98651505D01*
X120169422Y-98491312D01*
X120187924Y-98453877D01*
X120187925Y-98453875D01*
X120190218Y-98449235D01*
X120255808Y-98233352D01*
X120285258Y-98009656D01*
X120286902Y-97942400D01*
X120268415Y-97717532D01*
X120213449Y-97498704D01*
X120123480Y-97291791D01*
X120075101Y-97217009D01*
X120003734Y-97106691D01*
X120003732Y-97106688D01*
X120000926Y-97102351D01*
X119849077Y-96935471D01*
X119845026Y-96932272D01*
X119845022Y-96932268D01*
X119676066Y-96798834D01*
X119676062Y-96798832D01*
X119672011Y-96795632D01*
X119648635Y-96782728D01*
X119598664Y-96732296D01*
X119583892Y-96662853D01*
X119609008Y-96596447D01*
X119636359Y-96569841D01*
X119794555Y-96457001D01*
X119794559Y-96456997D01*
X119798767Y-96453996D01*
X119958587Y-96294733D01*
X120090250Y-96111505D01*
X120190218Y-95909235D01*
X120255808Y-95693352D01*
X120285258Y-95469656D01*
X120286902Y-95402400D01*
X120268415Y-95177532D01*
X120213449Y-94958704D01*
X120123480Y-94751791D01*
X120075101Y-94677009D01*
X120003734Y-94566691D01*
X120003732Y-94566688D01*
X120000926Y-94562351D01*
X119849077Y-94395471D01*
X119845026Y-94392272D01*
X119845022Y-94392268D01*
X119676066Y-94258834D01*
X119676062Y-94258832D01*
X119672011Y-94255632D01*
X119648635Y-94242728D01*
X119598664Y-94192296D01*
X119583892Y-94122853D01*
X119609008Y-94056447D01*
X119636359Y-94029841D01*
X119794555Y-93917001D01*
X119794559Y-93916997D01*
X119798767Y-93913996D01*
X119958587Y-93754733D01*
X120090250Y-93571505D01*
X120190218Y-93369235D01*
X120255808Y-93153352D01*
X120285258Y-92929656D01*
X120286902Y-92862400D01*
X120268415Y-92637532D01*
X120213449Y-92418704D01*
X120123480Y-92211791D01*
X120075101Y-92137009D01*
X120003734Y-92026691D01*
X120003732Y-92026688D01*
X120000926Y-92022351D01*
X119849077Y-91855471D01*
X119845026Y-91852272D01*
X119845022Y-91852268D01*
X119676066Y-91718834D01*
X119676062Y-91718832D01*
X119672011Y-91715632D01*
X119648635Y-91702728D01*
X119598664Y-91652296D01*
X119583892Y-91582853D01*
X119609008Y-91516447D01*
X119636359Y-91489841D01*
X119794555Y-91377001D01*
X119794559Y-91376997D01*
X119798767Y-91373996D01*
X119958587Y-91214733D01*
X120090250Y-91031505D01*
X120151327Y-90907926D01*
X120187924Y-90833877D01*
X120187925Y-90833875D01*
X120190218Y-90829235D01*
X120248284Y-90638116D01*
X120254306Y-90618296D01*
X120254306Y-90618295D01*
X120255808Y-90613352D01*
X120256483Y-90608226D01*
X120284821Y-90392978D01*
X120284822Y-90392972D01*
X120285258Y-90389656D01*
X120285867Y-90364739D01*
X120286820Y-90325764D01*
X120286820Y-90325760D01*
X120286902Y-90322400D01*
X120268415Y-90097532D01*
X120213449Y-89878704D01*
X120123480Y-89671791D01*
X120075101Y-89597009D01*
X120003734Y-89486691D01*
X120003732Y-89486688D01*
X120000926Y-89482351D01*
X119849077Y-89315471D01*
X119845026Y-89312272D01*
X119845022Y-89312268D01*
X119676066Y-89178834D01*
X119676062Y-89178832D01*
X119672011Y-89175632D01*
X119648635Y-89162728D01*
X119598664Y-89112296D01*
X119583892Y-89042853D01*
X119609008Y-88976447D01*
X119636359Y-88949841D01*
X119794555Y-88837001D01*
X119794559Y-88836997D01*
X119798767Y-88833996D01*
X119958587Y-88674733D01*
X120090250Y-88491505D01*
X120190218Y-88289235D01*
X120255808Y-88073352D01*
X120262515Y-88022408D01*
X120284821Y-87852978D01*
X120284822Y-87852972D01*
X120285258Y-87849656D01*
X120286902Y-87782400D01*
X120268415Y-87557532D01*
X120213449Y-87338704D01*
X120211387Y-87333961D01*
X120211385Y-87333956D01*
X120180468Y-87262854D01*
X120170854Y-87240743D01*
X120162033Y-87170298D01*
X120192699Y-87106265D01*
X120253116Y-87068978D01*
X120286403Y-87064501D01*
X120937087Y-87064501D01*
X120948019Y-87064976D01*
X120994867Y-87069056D01*
X121002681Y-87067759D01*
X121002686Y-87067759D01*
X121059313Y-87058361D01*
X121064148Y-87057655D01*
X121070678Y-87056830D01*
X121140768Y-87068136D01*
X121193620Y-87115540D01*
X121212453Y-87183994D01*
X121192723Y-87249119D01*
X121187924Y-87254657D01*
X121184182Y-87262851D01*
X121184180Y-87262854D01*
X121166165Y-87302302D01*
X121127181Y-87387666D01*
X121106371Y-87532400D01*
X121106371Y-88022408D01*
X121106369Y-88023178D01*
X121105968Y-88088857D01*
X121105913Y-88097817D01*
X121125680Y-88242127D01*
X121165037Y-88379836D01*
X121224514Y-88512798D01*
X121226900Y-88516580D01*
X121226904Y-88516587D01*
X121260713Y-88570170D01*
X121300940Y-88633926D01*
X121395346Y-88744852D01*
X121502697Y-88839660D01*
X121506434Y-88842115D01*
X121506437Y-88842117D01*
X121554777Y-88873870D01*
X121600731Y-88927988D01*
X121611600Y-88979182D01*
X121611600Y-89408525D01*
X121596069Y-89465296D01*
X121597015Y-89465705D01*
X121594138Y-89472353D01*
X121594053Y-89472664D01*
X121593869Y-89472976D01*
X121589831Y-89479804D01*
X121544471Y-89635934D01*
X121543598Y-89647027D01*
X121541794Y-89669950D01*
X121541600Y-89672411D01*
X121541601Y-90072388D01*
X121544471Y-90108866D01*
X121556509Y-90150301D01*
X121585092Y-90248683D01*
X121589831Y-90264996D01*
X121593867Y-90271821D01*
X121593869Y-90271825D01*
X121621331Y-90318261D01*
X121638791Y-90387077D01*
X121621331Y-90446539D01*
X121593869Y-90492975D01*
X121593867Y-90492979D01*
X121589831Y-90499804D01*
X121587620Y-90507415D01*
X121587619Y-90507417D01*
X121573302Y-90556696D01*
X121544471Y-90655934D01*
X121541600Y-90692411D01*
X121541601Y-91092388D01*
X121544471Y-91128866D01*
X121569418Y-91214733D01*
X121579145Y-91248213D01*
X121589831Y-91284996D01*
X121593866Y-91291818D01*
X121593866Y-91291819D01*
X121602304Y-91306087D01*
X121672594Y-91424941D01*
X121787559Y-91539906D01*
X121794380Y-91543940D01*
X121900318Y-91606591D01*
X121927504Y-91622669D01*
X121935115Y-91624880D01*
X121935117Y-91624881D01*
X122024676Y-91650900D01*
X122083634Y-91668029D01*
X122090041Y-91668533D01*
X122090045Y-91668534D01*
X122117656Y-91670707D01*
X122117662Y-91670707D01*
X122120111Y-91670900D01*
X122369948Y-91670900D01*
X122620088Y-91670899D01*
X122656566Y-91668029D01*
X122698303Y-91655903D01*
X122733457Y-91650900D01*
X124702193Y-91650900D01*
X124737345Y-91655903D01*
X124847846Y-91688006D01*
X124854251Y-91688510D01*
X124854256Y-91688511D01*
X124882160Y-91690707D01*
X124882168Y-91690707D01*
X124884616Y-91690900D01*
X125355584Y-91690900D01*
X125358032Y-91690707D01*
X125358040Y-91690707D01*
X125385944Y-91688511D01*
X125385949Y-91688510D01*
X125392354Y-91688006D01*
X125520075Y-91650900D01*
X125542084Y-91644506D01*
X125542086Y-91644505D01*
X125549697Y-91642294D01*
X125632750Y-91593177D01*
X125683908Y-91562922D01*
X125690729Y-91558888D01*
X125806588Y-91443029D01*
X125840928Y-91384964D01*
X125885959Y-91308820D01*
X125885959Y-91308819D01*
X125889994Y-91301997D01*
X125902185Y-91260037D01*
X125920612Y-91196609D01*
X125952514Y-91142667D01*
X126384011Y-90711170D01*
X126398423Y-90698784D01*
X126410018Y-90690251D01*
X126410023Y-90690246D01*
X126415918Y-90685908D01*
X126420657Y-90680330D01*
X126420660Y-90680327D01*
X126450135Y-90645632D01*
X126457065Y-90638116D01*
X126462761Y-90632420D01*
X126465024Y-90629559D01*
X126465029Y-90629554D01*
X126480393Y-90610134D01*
X126483182Y-90606733D01*
X126525692Y-90556696D01*
X126525694Y-90556694D01*
X126530433Y-90551115D01*
X126533762Y-90544595D01*
X126537128Y-90539548D01*
X126540293Y-90534424D01*
X126544835Y-90528683D01*
X126548930Y-90519923D01*
X126575734Y-90462570D01*
X126577665Y-90458618D01*
X126607542Y-90400108D01*
X126607543Y-90400106D01*
X126610869Y-90393592D01*
X126612608Y-90386486D01*
X126614709Y-90380836D01*
X126616624Y-90375079D01*
X126619722Y-90368450D01*
X126634591Y-90296965D01*
X126635561Y-90292682D01*
X126652908Y-90221790D01*
X126653385Y-90214101D01*
X126653709Y-90213207D01*
X126654099Y-90210642D01*
X126654610Y-90210720D01*
X126677565Y-90147349D01*
X126733995Y-90104266D01*
X126779143Y-90095900D01*
X126786602Y-90095900D01*
X126789050Y-90095707D01*
X126789058Y-90095707D01*
X126817521Y-90093467D01*
X126817526Y-90093466D01*
X126823931Y-90092962D01*
X126830107Y-90091168D01*
X126830111Y-90091167D01*
X126968702Y-90050903D01*
X127003854Y-90045900D01*
X127148030Y-90045900D01*
X127166980Y-90047333D01*
X127181215Y-90049499D01*
X127181219Y-90049499D01*
X127188449Y-90050599D01*
X127195741Y-90050006D01*
X127195744Y-90050006D01*
X127241118Y-90046315D01*
X127251333Y-90045900D01*
X127259393Y-90045900D01*
X127272683Y-90044351D01*
X127287607Y-90042611D01*
X127291982Y-90042178D01*
X127357439Y-90036854D01*
X127357442Y-90036853D01*
X127364737Y-90036260D01*
X127371701Y-90034004D01*
X127377660Y-90032813D01*
X127383515Y-90031429D01*
X127390781Y-90030582D01*
X127442610Y-90011769D01*
X127513466Y-90007328D01*
X127575476Y-90041900D01*
X127608951Y-90104509D01*
X127611600Y-90130208D01*
X127611600Y-90784915D01*
X127591598Y-90853036D01*
X127552183Y-90891885D01*
X127526412Y-90907926D01*
X127526405Y-90907931D01*
X127522604Y-90910297D01*
X127519176Y-90913179D01*
X127519174Y-90913180D01*
X127478258Y-90947573D01*
X127412969Y-91002454D01*
X127315882Y-91111039D01*
X127313397Y-91114772D01*
X127313394Y-91114776D01*
X127239001Y-91226535D01*
X127236519Y-91230264D01*
X127173811Y-91361733D01*
X127131101Y-91498439D01*
X127130384Y-91502863D01*
X127130384Y-91502865D01*
X127125293Y-91534300D01*
X127107813Y-91642221D01*
X127105188Y-91785420D01*
X127105741Y-91789865D01*
X127105978Y-91794344D01*
X127105851Y-91794351D01*
X127106371Y-91802739D01*
X127106371Y-92232400D01*
X127111600Y-92305511D01*
X127132631Y-92377134D01*
X127144837Y-92418704D01*
X127152796Y-92445811D01*
X127157667Y-92453390D01*
X127226978Y-92561241D01*
X127226980Y-92561244D01*
X127231850Y-92568821D01*
X127238660Y-92574722D01*
X127335545Y-92658674D01*
X127335548Y-92658676D01*
X127342357Y-92664576D01*
X127475366Y-92725319D01*
X127620100Y-92746129D01*
X128040619Y-92746129D01*
X128051878Y-92746633D01*
X128101473Y-92751082D01*
X128103895Y-92751112D01*
X128103902Y-92751112D01*
X128107216Y-92751152D01*
X128113815Y-92751233D01*
X128188135Y-92746395D01*
X128196321Y-92746129D01*
X128540619Y-92746129D01*
X128551878Y-92746633D01*
X128601473Y-92751082D01*
X128603895Y-92751112D01*
X128603902Y-92751112D01*
X128607216Y-92751152D01*
X128613815Y-92751233D01*
X128688135Y-92746395D01*
X128696321Y-92746129D01*
X129120100Y-92746129D01*
X129152086Y-92743841D01*
X129186473Y-92741382D01*
X129186474Y-92741382D01*
X129193211Y-92740900D01*
X129272718Y-92717555D01*
X129324865Y-92702243D01*
X129324867Y-92702242D01*
X129333511Y-92699704D01*
X129422222Y-92642693D01*
X129448941Y-92625522D01*
X129448944Y-92625520D01*
X129456521Y-92620650D01*
X129466139Y-92609550D01*
X129546374Y-92516955D01*
X129546376Y-92516952D01*
X129552276Y-92510143D01*
X129613019Y-92377134D01*
X129633829Y-92232400D01*
X129633829Y-91742392D01*
X129633831Y-91741622D01*
X129634260Y-91671469D01*
X129634260Y-91671463D01*
X129634287Y-91666983D01*
X129619481Y-91558888D01*
X129615130Y-91527124D01*
X129615129Y-91527120D01*
X129614520Y-91522673D01*
X129575163Y-91384964D01*
X129550750Y-91330388D01*
X129541193Y-91260037D01*
X129571187Y-91195688D01*
X129631210Y-91157770D01*
X129702204Y-91158322D01*
X129754862Y-91189843D01*
X130076079Y-91511060D01*
X130110105Y-91573372D01*
X130111364Y-91620297D01*
X130107813Y-91642221D01*
X130105188Y-91785420D01*
X130105741Y-91789865D01*
X130105978Y-91794344D01*
X130105851Y-91794351D01*
X130106371Y-91802739D01*
X130106371Y-92232400D01*
X130111600Y-92305511D01*
X130132631Y-92377134D01*
X130144837Y-92418704D01*
X130152796Y-92445811D01*
X130157667Y-92453390D01*
X130226978Y-92561241D01*
X130226980Y-92561244D01*
X130231850Y-92568821D01*
X130238660Y-92574722D01*
X130335545Y-92658674D01*
X130335548Y-92658676D01*
X130342357Y-92664576D01*
X130475366Y-92725319D01*
X130620100Y-92746129D01*
X131040619Y-92746129D01*
X131051878Y-92746633D01*
X131101473Y-92751082D01*
X131103895Y-92751112D01*
X131103902Y-92751112D01*
X131107216Y-92751152D01*
X131113815Y-92751233D01*
X131188135Y-92746395D01*
X131196321Y-92746129D01*
X131540619Y-92746129D01*
X131551878Y-92746633D01*
X131601473Y-92751082D01*
X131603895Y-92751112D01*
X131603902Y-92751112D01*
X131607216Y-92751152D01*
X131613815Y-92751233D01*
X131688135Y-92746395D01*
X131696321Y-92746129D01*
X132120100Y-92746129D01*
X132152086Y-92743841D01*
X132186473Y-92741382D01*
X132186474Y-92741382D01*
X132193211Y-92740900D01*
X132272718Y-92717555D01*
X132324865Y-92702243D01*
X132324867Y-92702242D01*
X132333511Y-92699704D01*
X132422222Y-92642693D01*
X132448941Y-92625522D01*
X132448944Y-92625520D01*
X132456521Y-92620650D01*
X132466139Y-92609550D01*
X132546374Y-92516955D01*
X132546376Y-92516952D01*
X132552276Y-92510143D01*
X132613019Y-92377134D01*
X132633829Y-92232400D01*
X132633829Y-91742392D01*
X132633831Y-91741622D01*
X132634260Y-91671469D01*
X132634260Y-91671463D01*
X132634287Y-91666983D01*
X132619481Y-91558888D01*
X132615130Y-91527124D01*
X132615129Y-91527120D01*
X132614520Y-91522673D01*
X132575163Y-91384964D01*
X132550750Y-91330388D01*
X132541193Y-91260037D01*
X132571187Y-91195688D01*
X132631210Y-91157770D01*
X132702204Y-91158322D01*
X132754862Y-91189843D01*
X133076079Y-91511060D01*
X133110105Y-91573372D01*
X133111364Y-91620297D01*
X133107813Y-91642221D01*
X133105188Y-91785420D01*
X133105741Y-91789865D01*
X133105978Y-91794344D01*
X133105851Y-91794351D01*
X133106371Y-91802739D01*
X133106371Y-92232400D01*
X133111600Y-92305511D01*
X133132631Y-92377134D01*
X133144837Y-92418704D01*
X133152796Y-92445811D01*
X133157667Y-92453390D01*
X133226978Y-92561241D01*
X133226980Y-92561244D01*
X133231850Y-92568821D01*
X133238660Y-92574722D01*
X133335545Y-92658674D01*
X133335548Y-92658676D01*
X133342357Y-92664576D01*
X133475366Y-92725319D01*
X133620100Y-92746129D01*
X134040619Y-92746129D01*
X134051878Y-92746633D01*
X134101473Y-92751082D01*
X134103895Y-92751112D01*
X134103902Y-92751112D01*
X134107216Y-92751152D01*
X134113815Y-92751233D01*
X134188135Y-92746395D01*
X134196321Y-92746129D01*
X134540619Y-92746129D01*
X134551878Y-92746633D01*
X134601473Y-92751082D01*
X134603895Y-92751112D01*
X134603902Y-92751112D01*
X134607216Y-92751152D01*
X134613815Y-92751233D01*
X134688135Y-92746395D01*
X134696321Y-92746129D01*
X135120100Y-92746129D01*
X135152086Y-92743841D01*
X135186473Y-92741382D01*
X135186474Y-92741382D01*
X135193211Y-92740900D01*
X135272718Y-92717555D01*
X135324865Y-92702243D01*
X135324867Y-92702242D01*
X135333511Y-92699704D01*
X135422222Y-92642693D01*
X135448941Y-92625522D01*
X135448944Y-92625520D01*
X135456521Y-92620650D01*
X135466139Y-92609550D01*
X135546374Y-92516955D01*
X135546376Y-92516952D01*
X135552276Y-92510143D01*
X135613019Y-92377134D01*
X135633829Y-92232400D01*
X135633829Y-91742392D01*
X135633831Y-91741622D01*
X135634260Y-91671469D01*
X135634260Y-91671463D01*
X135634287Y-91666983D01*
X135619481Y-91558888D01*
X135615130Y-91527124D01*
X135615129Y-91527120D01*
X135614520Y-91522673D01*
X135575163Y-91384964D01*
X135515686Y-91252002D01*
X135513300Y-91248220D01*
X135513296Y-91248213D01*
X135441651Y-91134664D01*
X135439260Y-91130874D01*
X135344854Y-91019948D01*
X135237503Y-90925140D01*
X135115766Y-90845174D01*
X135111709Y-90843269D01*
X135111705Y-90843267D01*
X134990176Y-90786209D01*
X134986121Y-90784305D01*
X134981838Y-90782996D01*
X134981834Y-90782994D01*
X134851111Y-90743028D01*
X134846823Y-90741717D01*
X134842400Y-90741028D01*
X134842394Y-90741027D01*
X134765646Y-90729078D01*
X134705305Y-90719683D01*
X134700838Y-90719628D01*
X134700833Y-90719628D01*
X134627269Y-90718729D01*
X134559662Y-90717903D01*
X134555377Y-90718463D01*
X134548340Y-90718671D01*
X134481242Y-90718671D01*
X134413121Y-90698669D01*
X134392147Y-90681766D01*
X134066376Y-90355995D01*
X134032350Y-90293683D01*
X134037415Y-90222868D01*
X134079962Y-90166032D01*
X134146482Y-90141221D01*
X134155471Y-90140900D01*
X139238233Y-90140900D01*
X139306354Y-90160902D01*
X139341445Y-90194628D01*
X139363902Y-90226700D01*
X139525800Y-90388598D01*
X139530308Y-90391755D01*
X139530311Y-90391757D01*
X139532055Y-90392978D01*
X139713351Y-90519923D01*
X139718333Y-90522246D01*
X139718338Y-90522249D01*
X139903124Y-90608415D01*
X139920857Y-90616684D01*
X139926165Y-90618106D01*
X139926167Y-90618107D01*
X140136698Y-90674519D01*
X140136700Y-90674519D01*
X140142013Y-90675943D01*
X140370100Y-90695898D01*
X140598187Y-90675943D01*
X140603500Y-90674519D01*
X140603502Y-90674519D01*
X140814033Y-90618107D01*
X140814035Y-90618106D01*
X140819343Y-90616684D01*
X140837076Y-90608415D01*
X141021862Y-90522249D01*
X141021867Y-90522246D01*
X141026849Y-90519923D01*
X141208145Y-90392978D01*
X141209889Y-90391757D01*
X141209892Y-90391755D01*
X141214400Y-90388598D01*
X141376298Y-90226700D01*
X141398755Y-90194629D01*
X141454210Y-90150301D01*
X141501967Y-90140900D01*
X143238233Y-90140900D01*
X143306354Y-90160902D01*
X143341445Y-90194628D01*
X143363902Y-90226700D01*
X143525800Y-90388598D01*
X143530308Y-90391755D01*
X143530311Y-90391757D01*
X143532055Y-90392978D01*
X143713351Y-90519923D01*
X143718333Y-90522246D01*
X143718338Y-90522249D01*
X143903124Y-90608415D01*
X143920857Y-90616684D01*
X143926165Y-90618106D01*
X143926167Y-90618107D01*
X144136698Y-90674519D01*
X144136700Y-90674519D01*
X144142013Y-90675943D01*
X144370100Y-90695898D01*
X144598187Y-90675943D01*
X144603500Y-90674519D01*
X144603502Y-90674519D01*
X144814033Y-90618107D01*
X144814035Y-90618106D01*
X144819343Y-90616684D01*
X144837076Y-90608415D01*
X145021862Y-90522249D01*
X145021867Y-90522246D01*
X145026849Y-90519923D01*
X145208145Y-90392978D01*
X145209889Y-90391757D01*
X145209892Y-90391755D01*
X145214400Y-90388598D01*
X145376298Y-90226700D01*
X145387488Y-90210720D01*
X145451320Y-90119558D01*
X145507623Y-90039149D01*
X145509946Y-90034167D01*
X145509949Y-90034162D01*
X145602061Y-89836625D01*
X145602061Y-89836624D01*
X145604384Y-89831643D01*
X145647051Y-89672411D01*
X145662219Y-89615802D01*
X145662219Y-89615800D01*
X145663643Y-89610487D01*
X145683598Y-89382400D01*
X145663643Y-89154313D01*
X145662219Y-89148998D01*
X145605807Y-88938467D01*
X145605806Y-88938465D01*
X145604384Y-88933157D01*
X145601974Y-88927988D01*
X145509949Y-88730638D01*
X145509946Y-88730633D01*
X145507623Y-88725651D01*
X145422370Y-88603898D01*
X145379457Y-88542611D01*
X145379455Y-88542608D01*
X145376298Y-88538100D01*
X145214400Y-88376202D01*
X145209892Y-88373045D01*
X145209889Y-88373043D01*
X145096828Y-88293877D01*
X145026849Y-88244877D01*
X145021867Y-88242554D01*
X145021862Y-88242551D01*
X144824325Y-88150439D01*
X144824324Y-88150439D01*
X144819343Y-88148116D01*
X144814035Y-88146694D01*
X144814033Y-88146693D01*
X144603502Y-88090281D01*
X144603500Y-88090281D01*
X144598187Y-88088857D01*
X144592711Y-88088378D01*
X144592706Y-88088377D01*
X144458934Y-88076674D01*
X144418619Y-88073147D01*
X144352500Y-88047284D01*
X144310861Y-87989780D01*
X144303600Y-87947626D01*
X144303600Y-86049810D01*
X144323602Y-85981689D01*
X144377258Y-85935196D01*
X144446264Y-85924917D01*
X144596079Y-85944907D01*
X144596084Y-85944907D01*
X144603061Y-85945838D01*
X144610072Y-85945200D01*
X144610076Y-85945200D01*
X144752559Y-85932232D01*
X144783700Y-85929398D01*
X144790402Y-85927220D01*
X144790404Y-85927220D01*
X144949509Y-85875524D01*
X144949512Y-85875523D01*
X144956208Y-85873347D01*
X145112012Y-85780469D01*
X145243366Y-85655382D01*
X145343743Y-85504302D01*
X145408155Y-85334738D01*
X145411680Y-85309656D01*
X145432848Y-85159039D01*
X145432848Y-85159036D01*
X145433399Y-85155117D01*
X145433716Y-85132400D01*
X145413497Y-84952145D01*
X145411180Y-84945491D01*
X145356164Y-84787506D01*
X145356162Y-84787503D01*
X145353845Y-84780848D01*
X145257726Y-84627024D01*
X145220521Y-84589558D01*
X145134878Y-84503315D01*
X145134874Y-84503312D01*
X145129915Y-84498318D01*
X145118797Y-84491262D01*
X145070638Y-84460700D01*
X144976766Y-84401127D01*
X144918072Y-84380227D01*
X144812525Y-84342643D01*
X144812520Y-84342642D01*
X144805890Y-84340281D01*
X144798902Y-84339448D01*
X144798899Y-84339447D01*
X144675798Y-84324768D01*
X144625780Y-84318804D01*
X144618777Y-84319540D01*
X144618776Y-84319540D01*
X144452388Y-84337028D01*
X144452386Y-84337029D01*
X144445388Y-84337764D01*
X144273679Y-84396218D01*
X144137139Y-84480219D01*
X144071119Y-84498900D01*
X143509829Y-84498900D01*
X143441708Y-84478898D01*
X143395215Y-84425242D01*
X143383829Y-84372900D01*
X143383829Y-84032400D01*
X143378600Y-83959289D01*
X143337404Y-83818989D01*
X143297567Y-83757001D01*
X143263222Y-83703559D01*
X143263220Y-83703556D01*
X143258350Y-83695979D01*
X143231577Y-83672780D01*
X143154655Y-83606126D01*
X143154652Y-83606124D01*
X143147843Y-83600224D01*
X143135820Y-83594733D01*
X143063706Y-83561800D01*
X143014834Y-83539481D01*
X142870100Y-83518671D01*
X142170100Y-83518671D01*
X142166753Y-83519031D01*
X142166750Y-83519031D01*
X142128271Y-83523168D01*
X142060899Y-83530411D01*
X141923896Y-83581511D01*
X141916684Y-83586910D01*
X141916682Y-83586911D01*
X141912349Y-83590155D01*
X141845829Y-83614966D01*
X141776455Y-83599875D01*
X141761276Y-83590114D01*
X141723991Y-83562170D01*
X141723988Y-83562168D01*
X141716805Y-83556785D01*
X141580416Y-83505655D01*
X141518234Y-83498900D01*
X141512031Y-83498900D01*
X141443910Y-83478898D01*
X141425778Y-83464750D01*
X141387449Y-83428757D01*
X141384607Y-83426002D01*
X141364870Y-83406265D01*
X141361673Y-83403785D01*
X141352651Y-83396080D01*
X141339668Y-83383888D01*
X141320421Y-83365814D01*
X141313475Y-83361995D01*
X141313472Y-83361993D01*
X141302666Y-83356052D01*
X141286147Y-83345201D01*
X141285683Y-83344841D01*
X141270141Y-83332786D01*
X141262872Y-83329641D01*
X141262868Y-83329638D01*
X141229563Y-83315226D01*
X141218913Y-83310009D01*
X141180160Y-83288705D01*
X141160537Y-83283667D01*
X141141834Y-83277263D01*
X141130520Y-83272367D01*
X141130519Y-83272367D01*
X141123245Y-83269219D01*
X141115422Y-83267980D01*
X141115412Y-83267977D01*
X141079576Y-83262301D01*
X141067956Y-83259895D01*
X141032811Y-83250872D01*
X141032810Y-83250872D01*
X141025130Y-83248900D01*
X141004876Y-83248900D01*
X140985165Y-83247349D01*
X140972986Y-83245420D01*
X140965157Y-83244180D01*
X140935886Y-83246947D01*
X140921139Y-83248341D01*
X140909281Y-83248900D01*
X127198868Y-83248900D01*
X127187685Y-83248373D01*
X127180192Y-83246698D01*
X127172266Y-83246947D01*
X127172265Y-83246947D01*
X127112102Y-83248838D01*
X127108144Y-83248900D01*
X127080244Y-83248900D01*
X127076254Y-83249404D01*
X127064420Y-83250336D01*
X127020211Y-83251726D01*
X127012595Y-83253939D01*
X127012593Y-83253939D01*
X127000752Y-83257379D01*
X126981393Y-83261388D01*
X126980083Y-83261554D01*
X126961303Y-83263926D01*
X126953937Y-83266842D01*
X126953931Y-83266844D01*
X126920198Y-83280200D01*
X126908968Y-83284045D01*
X126892928Y-83288705D01*
X126866507Y-83296381D01*
X126859684Y-83300416D01*
X126849066Y-83306695D01*
X126831313Y-83315392D01*
X126823668Y-83318419D01*
X126812483Y-83322848D01*
X126792121Y-83337642D01*
X126776712Y-83348837D01*
X126766795Y-83355351D01*
X126728738Y-83377858D01*
X126714417Y-83392179D01*
X126699384Y-83405019D01*
X126682993Y-83416928D01*
X126668713Y-83434190D01*
X126654802Y-83451005D01*
X126646812Y-83459784D01*
X125534600Y-84571995D01*
X125472288Y-84606021D01*
X125445505Y-84608900D01*
X124795363Y-84608900D01*
X124727242Y-84588898D01*
X124680749Y-84535242D01*
X124670148Y-84496944D01*
X124664282Y-84444644D01*
X124663497Y-84437645D01*
X124652096Y-84404906D01*
X124606164Y-84273006D01*
X124606162Y-84273003D01*
X124603845Y-84266348D01*
X124600109Y-84260369D01*
X124511459Y-84118498D01*
X124507726Y-84112524D01*
X124494131Y-84098834D01*
X124384878Y-83988815D01*
X124384874Y-83988812D01*
X124379915Y-83983818D01*
X124363148Y-83973177D01*
X124317243Y-83944045D01*
X124226766Y-83886627D01*
X124197563Y-83876228D01*
X124062525Y-83828143D01*
X124062520Y-83828142D01*
X124055890Y-83825781D01*
X124048902Y-83824948D01*
X124048899Y-83824947D01*
X124006108Y-83819845D01*
X123940834Y-83791918D01*
X123931931Y-83783826D01*
X123810141Y-83662036D01*
X123802601Y-83653750D01*
X123798489Y-83647271D01*
X123748837Y-83600645D01*
X123745996Y-83597891D01*
X123726259Y-83578154D01*
X123723062Y-83575674D01*
X123714040Y-83567969D01*
X123687589Y-83543130D01*
X123681810Y-83537703D01*
X123674864Y-83533884D01*
X123674861Y-83533882D01*
X123664055Y-83527941D01*
X123647536Y-83517090D01*
X123639874Y-83511147D01*
X123631530Y-83504675D01*
X123624261Y-83501530D01*
X123624257Y-83501527D01*
X123590952Y-83487115D01*
X123580302Y-83481898D01*
X123541549Y-83460594D01*
X123531914Y-83458120D01*
X123527143Y-83456895D01*
X123521926Y-83455556D01*
X123503223Y-83449152D01*
X123491909Y-83444256D01*
X123491908Y-83444256D01*
X123484634Y-83441108D01*
X123476811Y-83439869D01*
X123476801Y-83439866D01*
X123440965Y-83434190D01*
X123429345Y-83431784D01*
X123394200Y-83422761D01*
X123394199Y-83422761D01*
X123386519Y-83420789D01*
X123366265Y-83420789D01*
X123346554Y-83419238D01*
X123334375Y-83417309D01*
X123326546Y-83416069D01*
X123318654Y-83416815D01*
X123282528Y-83420230D01*
X123270670Y-83420789D01*
X120288483Y-83420789D01*
X120220362Y-83400787D01*
X120173869Y-83347131D01*
X120163765Y-83276857D01*
X120175526Y-83238962D01*
X120187924Y-83213877D01*
X120187925Y-83213875D01*
X120190218Y-83209235D01*
X120255808Y-82993352D01*
X120285258Y-82769656D01*
X120286902Y-82702400D01*
X120268415Y-82477532D01*
X120213449Y-82258704D01*
X120123480Y-82051791D01*
X120075101Y-81977009D01*
X120003734Y-81866691D01*
X120003732Y-81866688D01*
X120000926Y-81862351D01*
X119849077Y-81695471D01*
X119845026Y-81692272D01*
X119845022Y-81692268D01*
X119676066Y-81558834D01*
X119676062Y-81558832D01*
X119672011Y-81555632D01*
X119648635Y-81542728D01*
X119598664Y-81492296D01*
X119583892Y-81422853D01*
X119609008Y-81356447D01*
X119636359Y-81329841D01*
X119794555Y-81217001D01*
X119794559Y-81216997D01*
X119798767Y-81213996D01*
X119958587Y-81054733D01*
X120090250Y-80871505D01*
X120190218Y-80669235D01*
X120255808Y-80453352D01*
X120285258Y-80229656D01*
X120286902Y-80162400D01*
X120268415Y-79937532D01*
X120213449Y-79718704D01*
X120211387Y-79713961D01*
X120211385Y-79713956D01*
X120181055Y-79644204D01*
X120170641Y-79620253D01*
X120161820Y-79549808D01*
X120192486Y-79485775D01*
X120252903Y-79448488D01*
X120286190Y-79444011D01*
X124283222Y-79444011D01*
X124294405Y-79444538D01*
X124301898Y-79446213D01*
X124309824Y-79445964D01*
X124309825Y-79445964D01*
X124369975Y-79444073D01*
X124373934Y-79444011D01*
X124401845Y-79444011D01*
X124405780Y-79443514D01*
X124405845Y-79443506D01*
X124417682Y-79442573D01*
X124449940Y-79441559D01*
X124453959Y-79441433D01*
X124461878Y-79441184D01*
X124481332Y-79435532D01*
X124500689Y-79431524D01*
X124512919Y-79429979D01*
X124512920Y-79429979D01*
X124520786Y-79428985D01*
X124528157Y-79426066D01*
X124528159Y-79426066D01*
X124561901Y-79412707D01*
X124573131Y-79408862D01*
X124607972Y-79398740D01*
X124607973Y-79398740D01*
X124615582Y-79396529D01*
X124622401Y-79392496D01*
X124622406Y-79392494D01*
X124633017Y-79386218D01*
X124650765Y-79377523D01*
X124669606Y-79370063D01*
X124705376Y-79344075D01*
X124715296Y-79337559D01*
X124746524Y-79319091D01*
X124746527Y-79319089D01*
X124753351Y-79315053D01*
X124767672Y-79300732D01*
X124782706Y-79287891D01*
X124792683Y-79280642D01*
X124799096Y-79275983D01*
X124825428Y-79244153D01*
X124826752Y-79242553D01*
X124885585Y-79202815D01*
X124948956Y-79199398D01*
X125128697Y-79235967D01*
X125133872Y-79236157D01*
X125133874Y-79236157D01*
X125346773Y-79243964D01*
X125346777Y-79243964D01*
X125351937Y-79244153D01*
X125357057Y-79243497D01*
X125357059Y-79243497D01*
X125568388Y-79216425D01*
X125568389Y-79216425D01*
X125573516Y-79215768D01*
X125578466Y-79214283D01*
X125782529Y-79153061D01*
X125782534Y-79153059D01*
X125787484Y-79151574D01*
X125988094Y-79053296D01*
X126169960Y-78923573D01*
X126187002Y-78906591D01*
X126324535Y-78769537D01*
X126328196Y-78765889D01*
X126339463Y-78750210D01*
X126458553Y-78584477D01*
X126459876Y-78585428D01*
X126506745Y-78542257D01*
X126576680Y-78530025D01*
X126642126Y-78557544D01*
X126669975Y-78589394D01*
X126730087Y-78687488D01*
X126876350Y-78856338D01*
X127048226Y-78999032D01*
X127241100Y-79111738D01*
X127449792Y-79191430D01*
X127454860Y-79192461D01*
X127454863Y-79192462D01*
X127562117Y-79214283D01*
X127668697Y-79235967D01*
X127673872Y-79236157D01*
X127673874Y-79236157D01*
X127886773Y-79243964D01*
X127886777Y-79243964D01*
X127891937Y-79244153D01*
X127897057Y-79243497D01*
X127897059Y-79243497D01*
X128108388Y-79216425D01*
X128108389Y-79216425D01*
X128113516Y-79215768D01*
X128118466Y-79214283D01*
X128322529Y-79153061D01*
X128322534Y-79153059D01*
X128327484Y-79151574D01*
X128528094Y-79053296D01*
X128709960Y-78923573D01*
X128727002Y-78906591D01*
X128864535Y-78769537D01*
X128868196Y-78765889D01*
X128879463Y-78750210D01*
X128995535Y-78588677D01*
X128998553Y-78584477D01*
X129019420Y-78542257D01*
X129095236Y-78388853D01*
X129095237Y-78388851D01*
X129097530Y-78384211D01*
X129140382Y-78243169D01*
X129160965Y-78175423D01*
X129160965Y-78175421D01*
X129162470Y-78170469D01*
X129191629Y-77948990D01*
X129193256Y-77882400D01*
X129174952Y-77659761D01*
X129120531Y-77443102D01*
X129031454Y-77238240D01*
X128921619Y-77068461D01*
X128912922Y-77055017D01*
X128912920Y-77055014D01*
X128910114Y-77050677D01*
X128759770Y-76885451D01*
X128755719Y-76882252D01*
X128755715Y-76882248D01*
X128588514Y-76750200D01*
X128588510Y-76750198D01*
X128584459Y-76746998D01*
X128388889Y-76639038D01*
X128384020Y-76637314D01*
X128384016Y-76637312D01*
X128183187Y-76566195D01*
X128183183Y-76566194D01*
X128178312Y-76564469D01*
X128173219Y-76563562D01*
X128173216Y-76563561D01*
X127963473Y-76526200D01*
X127963467Y-76526199D01*
X127958384Y-76525294D01*
X127884552Y-76524392D01*
X127740181Y-76522628D01*
X127740179Y-76522628D01*
X127735011Y-76522565D01*
X127514191Y-76556355D01*
X127501632Y-76560460D01*
X127430668Y-76562610D01*
X127373394Y-76529789D01*
X126885641Y-76042036D01*
X126878101Y-76033750D01*
X126873989Y-76027271D01*
X126824337Y-75980645D01*
X126821496Y-75977891D01*
X126801759Y-75958154D01*
X126798562Y-75955674D01*
X126789540Y-75947969D01*
X126763089Y-75923130D01*
X126757310Y-75917703D01*
X126750364Y-75913884D01*
X126750361Y-75913882D01*
X126739555Y-75907941D01*
X126723036Y-75897090D01*
X126715374Y-75891147D01*
X126707030Y-75884675D01*
X126699761Y-75881530D01*
X126699757Y-75881527D01*
X126666452Y-75867115D01*
X126655802Y-75861898D01*
X126617049Y-75840594D01*
X126597426Y-75835556D01*
X126578723Y-75829152D01*
X126567409Y-75824256D01*
X126567408Y-75824256D01*
X126560134Y-75821108D01*
X126552311Y-75819869D01*
X126552301Y-75819866D01*
X126516465Y-75814190D01*
X126504845Y-75811784D01*
X126469700Y-75802761D01*
X126469699Y-75802761D01*
X126462019Y-75800789D01*
X126441765Y-75800789D01*
X126422054Y-75799238D01*
X126409875Y-75797309D01*
X126402046Y-75796069D01*
X126394154Y-75796815D01*
X126358028Y-75800230D01*
X126346170Y-75800789D01*
X120288483Y-75800789D01*
X120220362Y-75780787D01*
X120173869Y-75727131D01*
X120163765Y-75656857D01*
X120175526Y-75618962D01*
X120187924Y-75593877D01*
X120187925Y-75593875D01*
X120190218Y-75589235D01*
X120235469Y-75440297D01*
X120254306Y-75378296D01*
X120254306Y-75378295D01*
X120255808Y-75373352D01*
X120268886Y-75274014D01*
X120284821Y-75152978D01*
X120284822Y-75152972D01*
X120285258Y-75149656D01*
X120286902Y-75082400D01*
X120268415Y-74857532D01*
X120213449Y-74638704D01*
X120160593Y-74517144D01*
X120151772Y-74446697D01*
X120182439Y-74382665D01*
X120242855Y-74345377D01*
X120276142Y-74340901D01*
X139654728Y-74340901D01*
X139722849Y-74360903D01*
G37*
%TD.AperFunction*%
%TA.AperFunction,Conductor*%
G36*
X163262505Y-79627301D02*
G01*
X163308998Y-79680957D01*
X163319102Y-79751231D01*
X163315801Y-79766971D01*
X163277685Y-79904413D01*
X163253709Y-80128762D01*
X163254006Y-80133914D01*
X163254006Y-80133918D01*
X163259574Y-80230487D01*
X163266697Y-80354014D01*
X163267834Y-80359060D01*
X163267835Y-80359066D01*
X163289084Y-80453352D01*
X163316300Y-80574120D01*
X163318242Y-80578902D01*
X163318243Y-80578906D01*
X163370214Y-80706895D01*
X163377310Y-80777536D01*
X163345088Y-80840800D01*
X163283778Y-80876600D01*
X163253471Y-80880299D01*
X159937469Y-80880299D01*
X159926286Y-80879772D01*
X159918793Y-80878097D01*
X159910867Y-80878346D01*
X159910866Y-80878346D01*
X159850703Y-80880237D01*
X159846745Y-80880299D01*
X159818845Y-80880299D01*
X159814855Y-80880803D01*
X159803021Y-80881735D01*
X159758812Y-80883125D01*
X159751196Y-80885338D01*
X159751194Y-80885338D01*
X159739353Y-80888778D01*
X159719994Y-80892787D01*
X159718684Y-80892953D01*
X159699904Y-80895325D01*
X159692538Y-80898241D01*
X159692532Y-80898243D01*
X159658799Y-80911599D01*
X159647569Y-80915444D01*
X159612718Y-80925569D01*
X159605108Y-80927780D01*
X159598285Y-80931815D01*
X159587667Y-80938094D01*
X159569914Y-80946791D01*
X159562269Y-80949818D01*
X159551084Y-80954247D01*
X159544669Y-80958908D01*
X159515313Y-80980236D01*
X159505396Y-80986750D01*
X159467339Y-81009257D01*
X159453018Y-81023578D01*
X159437985Y-81036418D01*
X159421594Y-81048327D01*
X159393403Y-81082404D01*
X159385413Y-81091183D01*
X144783347Y-95693248D01*
X144721035Y-95727274D01*
X144661642Y-95725860D01*
X144598187Y-95708857D01*
X144370100Y-95688902D01*
X144142013Y-95708857D01*
X144136700Y-95710281D01*
X144136698Y-95710281D01*
X143926167Y-95766693D01*
X143926165Y-95766694D01*
X143920857Y-95768116D01*
X143915876Y-95770439D01*
X143915875Y-95770439D01*
X143718338Y-95862551D01*
X143718333Y-95862554D01*
X143713351Y-95864877D01*
X143643372Y-95913877D01*
X143530311Y-95993043D01*
X143530308Y-95993045D01*
X143525800Y-95996202D01*
X143363902Y-96158100D01*
X143360745Y-96162608D01*
X143360743Y-96162611D01*
X143337615Y-96195641D01*
X143232577Y-96345651D01*
X143230254Y-96350633D01*
X143230251Y-96350638D01*
X143138139Y-96548175D01*
X143135816Y-96553157D01*
X143134394Y-96558465D01*
X143134393Y-96558467D01*
X143077983Y-96768991D01*
X143076557Y-96774313D01*
X143056602Y-97002400D01*
X143076557Y-97230487D01*
X143077981Y-97235800D01*
X143077981Y-97235802D01*
X143085284Y-97263055D01*
X143135816Y-97451643D01*
X143138139Y-97456624D01*
X143138139Y-97456625D01*
X143230251Y-97654162D01*
X143230254Y-97654167D01*
X143232577Y-97659149D01*
X143363902Y-97846700D01*
X143525800Y-98008598D01*
X143557871Y-98031055D01*
X143602199Y-98086510D01*
X143611600Y-98134267D01*
X143611600Y-98325526D01*
X143591598Y-98393647D01*
X143537942Y-98440140D01*
X143474619Y-98451047D01*
X143455575Y-98449381D01*
X143450100Y-98448902D01*
X143222013Y-98468857D01*
X143216700Y-98470281D01*
X143216698Y-98470281D01*
X143006167Y-98526693D01*
X143006165Y-98526694D01*
X143000857Y-98528116D01*
X142995876Y-98530439D01*
X142995875Y-98530439D01*
X142798338Y-98622551D01*
X142798333Y-98622554D01*
X142793351Y-98624877D01*
X142732522Y-98667470D01*
X142610311Y-98753043D01*
X142610308Y-98753045D01*
X142605800Y-98756202D01*
X142443902Y-98918100D01*
X142440745Y-98922608D01*
X142440743Y-98922611D01*
X142430815Y-98936790D01*
X142312577Y-99105651D01*
X142310254Y-99110633D01*
X142310251Y-99110638D01*
X142294295Y-99144857D01*
X142247378Y-99198142D01*
X142179101Y-99217603D01*
X142111141Y-99197061D01*
X142065905Y-99144857D01*
X142049949Y-99110638D01*
X142049946Y-99110633D01*
X142047623Y-99105651D01*
X141929385Y-98936790D01*
X141919457Y-98922611D01*
X141919455Y-98922608D01*
X141916298Y-98918100D01*
X141754400Y-98756202D01*
X141749892Y-98753045D01*
X141749889Y-98753043D01*
X141627678Y-98667470D01*
X141566849Y-98624877D01*
X141561867Y-98622554D01*
X141561862Y-98622551D01*
X141364325Y-98530439D01*
X141364324Y-98530439D01*
X141359343Y-98528116D01*
X141354035Y-98526694D01*
X141354033Y-98526693D01*
X141284104Y-98507956D01*
X141221989Y-98491312D01*
X141161366Y-98454360D01*
X141130345Y-98390499D01*
X141128600Y-98369605D01*
X141128600Y-98134267D01*
X141148602Y-98066146D01*
X141182328Y-98031055D01*
X141214400Y-98008598D01*
X141376298Y-97846700D01*
X141507623Y-97659149D01*
X141509946Y-97654167D01*
X141509949Y-97654162D01*
X141602061Y-97456625D01*
X141602061Y-97456624D01*
X141604384Y-97451643D01*
X141654917Y-97263055D01*
X141662219Y-97235802D01*
X141662219Y-97235800D01*
X141663643Y-97230487D01*
X141683598Y-97002400D01*
X141663643Y-96774313D01*
X141662219Y-96768998D01*
X141662218Y-96768991D01*
X141646641Y-96710859D01*
X141648330Y-96639883D01*
X141679252Y-96589152D01*
X158624201Y-79644204D01*
X158686513Y-79610178D01*
X158713296Y-79607299D01*
X163194384Y-79607299D01*
X163262505Y-79627301D01*
G37*
%TD.AperFunction*%
%TA.AperFunction,Conductor*%
G36*
X139392524Y-84535902D02*
G01*
X139439017Y-84589558D01*
X139449121Y-84659832D01*
X139430316Y-84710152D01*
X139391335Y-84770638D01*
X139388926Y-84777258D01*
X139388924Y-84777261D01*
X139331706Y-84934466D01*
X139329297Y-84941085D01*
X139306563Y-85121040D01*
X139324263Y-85301560D01*
X139381518Y-85473673D01*
X139385168Y-85479700D01*
X139385247Y-85479871D01*
X139395664Y-85550099D01*
X139389270Y-85575816D01*
X139329297Y-85740588D01*
X139306563Y-85920543D01*
X139324263Y-86101063D01*
X139381518Y-86273176D01*
X139385165Y-86279198D01*
X139385166Y-86279200D01*
X139467476Y-86415110D01*
X139475480Y-86428327D01*
X139480369Y-86433390D01*
X139480370Y-86433391D01*
X139483321Y-86436447D01*
X139601482Y-86558805D01*
X139649766Y-86590401D01*
X139690478Y-86617042D01*
X139753259Y-86658125D01*
X139759863Y-86660581D01*
X139759865Y-86660582D01*
X139916658Y-86718893D01*
X139916660Y-86718893D01*
X139923268Y-86721351D01*
X140007095Y-86732536D01*
X140096080Y-86744410D01*
X140096084Y-86744410D01*
X140103061Y-86745341D01*
X140110072Y-86744703D01*
X140110076Y-86744703D01*
X140252559Y-86731735D01*
X140283700Y-86728901D01*
X140290402Y-86726723D01*
X140290404Y-86726723D01*
X140449509Y-86675027D01*
X140449512Y-86675026D01*
X140456208Y-86672850D01*
X140558420Y-86611919D01*
X140606641Y-86583174D01*
X140671158Y-86565403D01*
X140816830Y-86565403D01*
X140828013Y-86565930D01*
X140835506Y-86567605D01*
X140843432Y-86567356D01*
X140843433Y-86567356D01*
X140903583Y-86565465D01*
X140907542Y-86565403D01*
X140935453Y-86565403D01*
X140939388Y-86564906D01*
X140939453Y-86564898D01*
X140951290Y-86563965D01*
X140983548Y-86562951D01*
X140987567Y-86562825D01*
X140995486Y-86562576D01*
X141014940Y-86556924D01*
X141034297Y-86552916D01*
X141046527Y-86551371D01*
X141046528Y-86551371D01*
X141054394Y-86550377D01*
X141061765Y-86547458D01*
X141061767Y-86547458D01*
X141095509Y-86534099D01*
X141106739Y-86530254D01*
X141141580Y-86520132D01*
X141141581Y-86520132D01*
X141149190Y-86517921D01*
X141156009Y-86513888D01*
X141156014Y-86513886D01*
X141166625Y-86507610D01*
X141184373Y-86498915D01*
X141203214Y-86491455D01*
X141238984Y-86465467D01*
X141248904Y-86458951D01*
X141280132Y-86440483D01*
X141280135Y-86440481D01*
X141286959Y-86436445D01*
X141301280Y-86422124D01*
X141316314Y-86409283D01*
X141326291Y-86402034D01*
X141332704Y-86397375D01*
X141360895Y-86363298D01*
X141368885Y-86354519D01*
X141420599Y-86302805D01*
X141482911Y-86268779D01*
X141509694Y-86265900D01*
X141518234Y-86265900D01*
X141580416Y-86259145D01*
X141657304Y-86230321D01*
X141725363Y-86225339D01*
X141725366Y-86225319D01*
X141733310Y-86226461D01*
X141733313Y-86226462D01*
X141806014Y-86236915D01*
X141870100Y-86246129D01*
X142660600Y-86246129D01*
X142728721Y-86266131D01*
X142775214Y-86319787D01*
X142786600Y-86372129D01*
X142786600Y-88490330D01*
X142785166Y-88509286D01*
X142784014Y-88516856D01*
X142753991Y-88581193D01*
X142693951Y-88619084D01*
X142659448Y-88623900D01*
X141501967Y-88623900D01*
X141433846Y-88603898D01*
X141398755Y-88570172D01*
X141376298Y-88538100D01*
X141214400Y-88376202D01*
X141209892Y-88373045D01*
X141209889Y-88373043D01*
X141096828Y-88293877D01*
X141026849Y-88244877D01*
X141021867Y-88242554D01*
X141021862Y-88242551D01*
X140824325Y-88150439D01*
X140824324Y-88150439D01*
X140819343Y-88148116D01*
X140814035Y-88146694D01*
X140814033Y-88146693D01*
X140603502Y-88090281D01*
X140603500Y-88090281D01*
X140598187Y-88088857D01*
X140370100Y-88068902D01*
X140142013Y-88088857D01*
X140136700Y-88090281D01*
X140136698Y-88090281D01*
X139926167Y-88146693D01*
X139926165Y-88146694D01*
X139920857Y-88148116D01*
X139915876Y-88150439D01*
X139915875Y-88150439D01*
X139718338Y-88242551D01*
X139718333Y-88242554D01*
X139713351Y-88244877D01*
X139643372Y-88293877D01*
X139530311Y-88373043D01*
X139530308Y-88373045D01*
X139525800Y-88376202D01*
X139363902Y-88538100D01*
X139341445Y-88570171D01*
X139285990Y-88614499D01*
X139238233Y-88623900D01*
X134764600Y-88623900D01*
X134696479Y-88603898D01*
X134649986Y-88550242D01*
X134638600Y-88497900D01*
X134638600Y-88245757D01*
X134643603Y-88210604D01*
X134653934Y-88175044D01*
X134655729Y-88168866D01*
X134657180Y-88150439D01*
X134658407Y-88134844D01*
X134658407Y-88134838D01*
X134658600Y-88132389D01*
X134658599Y-87632412D01*
X134655729Y-87595934D01*
X134643603Y-87554196D01*
X134638600Y-87519043D01*
X134638600Y-86995757D01*
X134643603Y-86960604D01*
X134653934Y-86925044D01*
X134655729Y-86918866D01*
X134657492Y-86896473D01*
X134658407Y-86884844D01*
X134658407Y-86884838D01*
X134658600Y-86882389D01*
X134658599Y-86382412D01*
X134655729Y-86345934D01*
X134620687Y-86225319D01*
X134612581Y-86197417D01*
X134612580Y-86197415D01*
X134610369Y-86189804D01*
X134596797Y-86166854D01*
X134531640Y-86056680D01*
X134527606Y-86049859D01*
X134412641Y-85934894D01*
X134376549Y-85913549D01*
X134352830Y-85899522D01*
X134327874Y-85880163D01*
X133178706Y-84730995D01*
X133144680Y-84668683D01*
X133149745Y-84597868D01*
X133192292Y-84541032D01*
X133258812Y-84516221D01*
X133267801Y-84515900D01*
X139324403Y-84515900D01*
X139392524Y-84535902D01*
G37*
%TD.AperFunction*%
%TA.AperFunction,Conductor*%
G36*
X123833617Y-86560892D02*
G01*
X123854591Y-86577795D01*
X124320601Y-87043805D01*
X124354627Y-87106117D01*
X124349562Y-87176932D01*
X124307015Y-87233768D01*
X124240495Y-87258579D01*
X124231506Y-87258900D01*
X123617588Y-87258900D01*
X123549467Y-87238898D01*
X123520098Y-87209527D01*
X123519124Y-87210371D01*
X123513221Y-87203559D01*
X123508350Y-87195979D01*
X123460386Y-87154418D01*
X123404655Y-87106126D01*
X123404652Y-87106124D01*
X123397843Y-87100224D01*
X123264834Y-87039481D01*
X123120100Y-87018671D01*
X122699581Y-87018671D01*
X122688323Y-87018167D01*
X122684349Y-87017811D01*
X122638727Y-87013718D01*
X122636305Y-87013688D01*
X122636298Y-87013688D01*
X122632984Y-87013648D01*
X122626385Y-87013567D01*
X122555720Y-87018167D01*
X122552064Y-87018405D01*
X122543879Y-87018671D01*
X122199581Y-87018671D01*
X122188323Y-87018167D01*
X122184349Y-87017811D01*
X122138727Y-87013718D01*
X122136305Y-87013688D01*
X122136298Y-87013688D01*
X122132984Y-87013648D01*
X122126385Y-87013567D01*
X122055720Y-87018167D01*
X122052064Y-87018405D01*
X122043879Y-87018671D01*
X121620100Y-87018671D01*
X121617853Y-87018832D01*
X121617845Y-87018832D01*
X121580243Y-87021521D01*
X121510869Y-87006429D01*
X121460668Y-86956226D01*
X121445577Y-86886852D01*
X121474171Y-86815527D01*
X121509233Y-86773145D01*
X121512609Y-86765971D01*
X121515574Y-86761299D01*
X121521832Y-86752325D01*
X121577365Y-86679630D01*
X121645530Y-86590400D01*
X121702777Y-86548411D01*
X121745656Y-86540890D01*
X123765496Y-86540890D01*
X123833617Y-86560892D01*
G37*
%TD.AperFunction*%
%TA.AperFunction,Conductor*%
G36*
X131659181Y-85360903D02*
G01*
X131680155Y-85377806D01*
X132076154Y-85773805D01*
X132110180Y-85836117D01*
X132105115Y-85906932D01*
X132062568Y-85963768D01*
X131996048Y-85988579D01*
X131987059Y-85988900D01*
X131953854Y-85988900D01*
X131918702Y-85983897D01*
X131780111Y-85943633D01*
X131780107Y-85943632D01*
X131773931Y-85941838D01*
X131767526Y-85941334D01*
X131767521Y-85941333D01*
X131739058Y-85939093D01*
X131739050Y-85939093D01*
X131736602Y-85938900D01*
X129953598Y-85938900D01*
X129951150Y-85939093D01*
X129951142Y-85939093D01*
X129922679Y-85941333D01*
X129922674Y-85941334D01*
X129916269Y-85941838D01*
X129840785Y-85963768D01*
X129764112Y-85986043D01*
X129764110Y-85986044D01*
X129756499Y-85988255D01*
X129752597Y-85990563D01*
X129731092Y-85997281D01*
X129727760Y-85997947D01*
X129720463Y-85998540D01*
X129713503Y-86000795D01*
X129707550Y-86001984D01*
X129701682Y-86003371D01*
X129694419Y-86004218D01*
X129625773Y-86029135D01*
X129621645Y-86030552D01*
X129559164Y-86050793D01*
X129559162Y-86050794D01*
X129552201Y-86053049D01*
X129545946Y-86056845D01*
X129540472Y-86059351D01*
X129535042Y-86062070D01*
X129528163Y-86064567D01*
X129467116Y-86104591D01*
X129463427Y-86106918D01*
X129462062Y-86107747D01*
X129405793Y-86141891D01*
X129405788Y-86141895D01*
X129400992Y-86144805D01*
X129392616Y-86152203D01*
X129392593Y-86152177D01*
X129389603Y-86154826D01*
X129386364Y-86157534D01*
X129380248Y-86161544D01*
X129375221Y-86166851D01*
X129375217Y-86166854D01*
X129326972Y-86217783D01*
X129324594Y-86220225D01*
X128343695Y-87201124D01*
X128281383Y-87235150D01*
X128210568Y-87230085D01*
X128153732Y-87187538D01*
X128128921Y-87121018D01*
X128128600Y-87112029D01*
X128128600Y-85466901D01*
X128148602Y-85398780D01*
X128202258Y-85352287D01*
X128254600Y-85340901D01*
X131591060Y-85340901D01*
X131659181Y-85360903D01*
G37*
%TD.AperFunction*%
%TA.AperFunction,Conductor*%
G36*
X124041149Y-77087791D02*
G01*
X124087642Y-77141447D01*
X124097746Y-77211721D01*
X124087316Y-77246839D01*
X124019697Y-77392513D01*
X124010788Y-77411705D01*
X123951089Y-77626970D01*
X123927351Y-77849095D01*
X123927648Y-77854248D01*
X123927648Y-77854251D01*
X123938575Y-78043758D01*
X123922527Y-78112917D01*
X123871637Y-78162422D01*
X123812784Y-78177011D01*
X120345672Y-78177011D01*
X120277551Y-78157009D01*
X120231058Y-78103353D01*
X120220954Y-78033079D01*
X120225113Y-78014383D01*
X120254306Y-77918296D01*
X120254306Y-77918295D01*
X120255808Y-77913352D01*
X120256483Y-77908226D01*
X120284821Y-77692978D01*
X120284822Y-77692972D01*
X120285258Y-77689656D01*
X120285989Y-77659761D01*
X120286820Y-77625764D01*
X120286820Y-77625760D01*
X120286902Y-77622400D01*
X120268415Y-77397532D01*
X120224948Y-77224484D01*
X120227752Y-77153544D01*
X120268465Y-77095380D01*
X120334160Y-77068461D01*
X120347152Y-77067789D01*
X123973028Y-77067789D01*
X124041149Y-77087791D01*
G37*
%TD.AperFunction*%
%TA.AperFunction,Conductor*%
G36*
X167185591Y-57656298D02*
G01*
X167309189Y-57760009D01*
X167314581Y-57762973D01*
X167314585Y-57762976D01*
X167485698Y-57857046D01*
X167491095Y-57860013D01*
X167688961Y-57922779D01*
X167695078Y-57923465D01*
X167695082Y-57923466D01*
X167771698Y-57932059D01*
X167850513Y-57940900D01*
X167962337Y-57940900D01*
X167965393Y-57940600D01*
X167965400Y-57940600D01*
X168110566Y-57926366D01*
X168110569Y-57926365D01*
X168116692Y-57925765D01*
X168279034Y-57876752D01*
X168309507Y-57867552D01*
X168309510Y-57867551D01*
X168315415Y-57865768D01*
X168381948Y-57830391D01*
X168451483Y-57816072D01*
X168517724Y-57841619D01*
X168559637Y-57898923D01*
X168567100Y-57941643D01*
X168567100Y-64128888D01*
X168547098Y-64197009D01*
X168493442Y-64243502D01*
X168423168Y-64253606D01*
X168358588Y-64224112D01*
X168335308Y-64197328D01*
X168263734Y-64086691D01*
X168263732Y-64086688D01*
X168260926Y-64082351D01*
X168109077Y-63915471D01*
X168105026Y-63912272D01*
X168105022Y-63912268D01*
X167936066Y-63778834D01*
X167936062Y-63778832D01*
X167932011Y-63775632D01*
X167734483Y-63666591D01*
X167521798Y-63591276D01*
X167471397Y-63582298D01*
X167304757Y-63552614D01*
X167304753Y-63552614D01*
X167299669Y-63551708D01*
X167227674Y-63550829D01*
X167079229Y-63549015D01*
X167079227Y-63549015D01*
X167074059Y-63548952D01*
X166851029Y-63583080D01*
X166636568Y-63653177D01*
X166436435Y-63757360D01*
X166432302Y-63760463D01*
X166432299Y-63760465D01*
X166307482Y-63854180D01*
X166256005Y-63892830D01*
X166100124Y-64055950D01*
X166097212Y-64060219D01*
X166097206Y-64060227D01*
X166003603Y-64197443D01*
X165948692Y-64242446D01*
X165878167Y-64250617D01*
X165814420Y-64219363D01*
X165793723Y-64194879D01*
X165780789Y-64174885D01*
X165720926Y-64082351D01*
X165569077Y-63915471D01*
X165565026Y-63912272D01*
X165565022Y-63912268D01*
X165396066Y-63778834D01*
X165396062Y-63778832D01*
X165392011Y-63775632D01*
X165194483Y-63666591D01*
X164981798Y-63591276D01*
X164931397Y-63582298D01*
X164764757Y-63552614D01*
X164764753Y-63552614D01*
X164759669Y-63551708D01*
X164687674Y-63550829D01*
X164539229Y-63549015D01*
X164539227Y-63549015D01*
X164534059Y-63548952D01*
X164311029Y-63583080D01*
X164096568Y-63653177D01*
X163896435Y-63757360D01*
X163892302Y-63760463D01*
X163892299Y-63760465D01*
X163767482Y-63854180D01*
X163716005Y-63892830D01*
X163560124Y-64055950D01*
X163432978Y-64242340D01*
X163430804Y-64247024D01*
X163430802Y-64247027D01*
X163340234Y-64442140D01*
X163337981Y-64446993D01*
X163277685Y-64664413D01*
X163253709Y-64888762D01*
X163254006Y-64893914D01*
X163254006Y-64893918D01*
X163259718Y-64992984D01*
X163266697Y-65114014D01*
X163267834Y-65119060D01*
X163267835Y-65119066D01*
X163298154Y-65253598D01*
X163316300Y-65334120D01*
X163318242Y-65338902D01*
X163318243Y-65338906D01*
X163383301Y-65499123D01*
X163401186Y-65543169D01*
X163453373Y-65628330D01*
X163516379Y-65731147D01*
X163519075Y-65735547D01*
X163666802Y-65906087D01*
X163840399Y-66050210D01*
X163844851Y-66052812D01*
X163844856Y-66052815D01*
X163894169Y-66081631D01*
X163942892Y-66133270D01*
X163955963Y-66203053D01*
X163929231Y-66268825D01*
X163898695Y-66296183D01*
X163896435Y-66297360D01*
X163716005Y-66432830D01*
X163560124Y-66595950D01*
X163432978Y-66782340D01*
X163430804Y-66787024D01*
X163430802Y-66787027D01*
X163352564Y-66955577D01*
X163337981Y-66986993D01*
X163277685Y-67204413D01*
X163253709Y-67428762D01*
X163254006Y-67433914D01*
X163254006Y-67433918D01*
X163261871Y-67570317D01*
X163266697Y-67654014D01*
X163267834Y-67659060D01*
X163267835Y-67659066D01*
X163291046Y-67762060D01*
X163316300Y-67874120D01*
X163318242Y-67878902D01*
X163318243Y-67878906D01*
X163370137Y-68006705D01*
X163401186Y-68083169D01*
X163452477Y-68166869D01*
X163516379Y-68271147D01*
X163519075Y-68275547D01*
X163666802Y-68446087D01*
X163840399Y-68590210D01*
X163844851Y-68592812D01*
X163844856Y-68592815D01*
X163894169Y-68621631D01*
X163942892Y-68673270D01*
X163955963Y-68743053D01*
X163929231Y-68808825D01*
X163898695Y-68836183D01*
X163896435Y-68837360D01*
X163716005Y-68972830D01*
X163560124Y-69135950D01*
X163432978Y-69322340D01*
X163430804Y-69327024D01*
X163430802Y-69327027D01*
X163359502Y-69480631D01*
X163337981Y-69526993D01*
X163277685Y-69744413D01*
X163253709Y-69968762D01*
X163254006Y-69973914D01*
X163254006Y-69973918D01*
X163258795Y-70056975D01*
X163266697Y-70194014D01*
X163267834Y-70199058D01*
X163269665Y-70207186D01*
X163265126Y-70278037D01*
X163235842Y-70323977D01*
X160072813Y-73487006D01*
X160010501Y-73521032D01*
X159983718Y-73523911D01*
X156652282Y-73523911D01*
X156584161Y-73503909D01*
X156537668Y-73450253D01*
X156527564Y-73379979D01*
X156556471Y-73316081D01*
X156591061Y-73275582D01*
X156591069Y-73275570D01*
X156594276Y-73271816D01*
X156596855Y-73267608D01*
X156596859Y-73267602D01*
X156715754Y-73073583D01*
X156718340Y-73069363D01*
X156724746Y-73053899D01*
X156807311Y-72854567D01*
X156807312Y-72854565D01*
X156809205Y-72849994D01*
X156833887Y-72747186D01*
X156863480Y-72623924D01*
X156863481Y-72623918D01*
X156864635Y-72619111D01*
X156883265Y-72382400D01*
X156864635Y-72145689D01*
X156862833Y-72138180D01*
X156814885Y-71938467D01*
X156809205Y-71914806D01*
X156791154Y-71871226D01*
X156720235Y-71700011D01*
X156720233Y-71700007D01*
X156718340Y-71695437D01*
X156622653Y-71539290D01*
X156596859Y-71497198D01*
X156596855Y-71497192D01*
X156594276Y-71492984D01*
X156440069Y-71312431D01*
X156259516Y-71158224D01*
X156188764Y-71114867D01*
X156141133Y-71062219D01*
X156128600Y-71007435D01*
X156128600Y-67257365D01*
X156148602Y-67189244D01*
X156188764Y-67149933D01*
X156259516Y-67106576D01*
X156440069Y-66952369D01*
X156594276Y-66771816D01*
X156596855Y-66767608D01*
X156596859Y-66767602D01*
X156715754Y-66573583D01*
X156718340Y-66569363D01*
X156763934Y-66459290D01*
X156807311Y-66354567D01*
X156807312Y-66354565D01*
X156809205Y-66349994D01*
X156843633Y-66206591D01*
X156863480Y-66123924D01*
X156863481Y-66123918D01*
X156864635Y-66119111D01*
X156883265Y-65882400D01*
X156864635Y-65645689D01*
X156860912Y-65630179D01*
X156812669Y-65429235D01*
X156809205Y-65414806D01*
X156807311Y-65410233D01*
X156720235Y-65200011D01*
X156720233Y-65200007D01*
X156718340Y-65195437D01*
X156665276Y-65108845D01*
X156596859Y-64997198D01*
X156596855Y-64997192D01*
X156594276Y-64992984D01*
X156440069Y-64812431D01*
X156259516Y-64658224D01*
X156255308Y-64655645D01*
X156255302Y-64655641D01*
X156061283Y-64536746D01*
X156057063Y-64534160D01*
X156052493Y-64532267D01*
X156052489Y-64532265D01*
X155842267Y-64445189D01*
X155842265Y-64445188D01*
X155837694Y-64443295D01*
X155757491Y-64424040D01*
X155611624Y-64389020D01*
X155611618Y-64389019D01*
X155606811Y-64387865D01*
X155370100Y-64369235D01*
X155365170Y-64369623D01*
X155138313Y-64387477D01*
X155138307Y-64387478D01*
X155133389Y-64387865D01*
X155131482Y-64388323D01*
X155061893Y-64379328D01*
X155007580Y-64333604D01*
X154986610Y-64265775D01*
X155005639Y-64197377D01*
X155023502Y-64174885D01*
X158909012Y-60289375D01*
X158923424Y-60276989D01*
X158935019Y-60268456D01*
X158935024Y-60268451D01*
X158940919Y-60264113D01*
X158945658Y-60258535D01*
X158945661Y-60258532D01*
X158975136Y-60223837D01*
X158982066Y-60216321D01*
X161520582Y-57677805D01*
X161582894Y-57643779D01*
X161609677Y-57640900D01*
X163635600Y-57640900D01*
X163703721Y-57660902D01*
X163750214Y-57714558D01*
X163761600Y-57766900D01*
X163761600Y-58030534D01*
X163768355Y-58092716D01*
X163819485Y-58229105D01*
X163906839Y-58345661D01*
X164023395Y-58433015D01*
X164159784Y-58484145D01*
X164221966Y-58490900D01*
X166518234Y-58490900D01*
X166580416Y-58484145D01*
X166716805Y-58433015D01*
X166833361Y-58345661D01*
X166920715Y-58229105D01*
X166971845Y-58092716D01*
X166978600Y-58030534D01*
X166978600Y-57752820D01*
X166998602Y-57684699D01*
X167052258Y-57638206D01*
X167122532Y-57628102D01*
X167185591Y-57656298D01*
G37*
%TD.AperFunction*%
%TA.AperFunction,Conductor*%
G36*
X123821881Y-72007301D02*
G01*
X123868374Y-72060957D01*
X123878478Y-72131231D01*
X123877148Y-72138180D01*
X123876722Y-72140870D01*
X123875565Y-72145689D01*
X123856935Y-72382400D01*
X123875565Y-72619111D01*
X123876719Y-72623918D01*
X123876720Y-72623924D01*
X123906313Y-72747186D01*
X123930995Y-72849994D01*
X123949493Y-72894651D01*
X123951577Y-72899683D01*
X123959166Y-72970272D01*
X123927387Y-73033759D01*
X123866329Y-73069987D01*
X123835168Y-73073901D01*
X120389696Y-73073901D01*
X120321575Y-73053899D01*
X120300601Y-73036996D01*
X120272221Y-73008616D01*
X120238195Y-72946304D01*
X120240757Y-72882894D01*
X120254305Y-72838300D01*
X120254306Y-72838297D01*
X120255808Y-72833352D01*
X120268886Y-72734014D01*
X120284821Y-72612978D01*
X120284822Y-72612972D01*
X120285258Y-72609656D01*
X120286902Y-72542400D01*
X120268415Y-72317532D01*
X120224825Y-72143994D01*
X120227629Y-72073054D01*
X120268342Y-72014890D01*
X120334037Y-71987971D01*
X120347029Y-71987299D01*
X123753760Y-71987299D01*
X123821881Y-72007301D01*
G37*
%TD.AperFunction*%
%TA.AperFunction,Conductor*%
G36*
X130319632Y-59149715D02*
G01*
X130376468Y-59192262D01*
X130401279Y-59258782D01*
X130401600Y-59267771D01*
X130401600Y-61605330D01*
X130400167Y-61624280D01*
X130396901Y-61645749D01*
X130397494Y-61653041D01*
X130397494Y-61653044D01*
X130401185Y-61698418D01*
X130401600Y-61708633D01*
X130401600Y-61716693D01*
X130402025Y-61720337D01*
X130404889Y-61744907D01*
X130405322Y-61749282D01*
X130411240Y-61822037D01*
X130413496Y-61829001D01*
X130414687Y-61834960D01*
X130416071Y-61840815D01*
X130416918Y-61848081D01*
X130441835Y-61916727D01*
X130443252Y-61920855D01*
X130465749Y-61990299D01*
X130469545Y-61996554D01*
X130472051Y-62002028D01*
X130474770Y-62007458D01*
X130477267Y-62014337D01*
X130481280Y-62020457D01*
X130481280Y-62020458D01*
X130517286Y-62075376D01*
X130519623Y-62079080D01*
X130557505Y-62141507D01*
X130561221Y-62145715D01*
X130561222Y-62145716D01*
X130564903Y-62149884D01*
X130564876Y-62149908D01*
X130567529Y-62152900D01*
X130570232Y-62156133D01*
X130574244Y-62162252D01*
X130579556Y-62167284D01*
X130630483Y-62215528D01*
X130632925Y-62217906D01*
X133642610Y-65227591D01*
X133654996Y-65242003D01*
X133663529Y-65253598D01*
X133663534Y-65253603D01*
X133667872Y-65259498D01*
X133673450Y-65264237D01*
X133673453Y-65264240D01*
X133708148Y-65293715D01*
X133715664Y-65300645D01*
X133721360Y-65306341D01*
X133724221Y-65308604D01*
X133724226Y-65308609D01*
X133743646Y-65323973D01*
X133747047Y-65326762D01*
X133802665Y-65374013D01*
X133809178Y-65377339D01*
X133814217Y-65380700D01*
X133819359Y-65383876D01*
X133825096Y-65388414D01*
X133891255Y-65419335D01*
X133895149Y-65421238D01*
X133960188Y-65454449D01*
X133967297Y-65456188D01*
X133972931Y-65458284D01*
X133978701Y-65460203D01*
X133985330Y-65463302D01*
X133992493Y-65464792D01*
X133992496Y-65464793D01*
X134043210Y-65475341D01*
X134056815Y-65478171D01*
X134061081Y-65479137D01*
X134131990Y-65496488D01*
X134137592Y-65496836D01*
X134137595Y-65496836D01*
X134143144Y-65497180D01*
X134143142Y-65497215D01*
X134147114Y-65497455D01*
X134151335Y-65497832D01*
X134158495Y-65499321D01*
X134235922Y-65497226D01*
X134239330Y-65497180D01*
X134438115Y-65497180D01*
X134506236Y-65517182D01*
X134552729Y-65570838D01*
X134562833Y-65641112D01*
X134533339Y-65705692D01*
X134513769Y-65723939D01*
X134431755Y-65785517D01*
X134271739Y-65952964D01*
X134268825Y-65957236D01*
X134268824Y-65957237D01*
X134255342Y-65977001D01*
X134141219Y-66144299D01*
X134043702Y-66354381D01*
X133981807Y-66577569D01*
X133957195Y-66807869D01*
X133957492Y-66813022D01*
X133957492Y-66813025D01*
X133963167Y-66911441D01*
X133970527Y-67039097D01*
X133971664Y-67044143D01*
X133971665Y-67044149D01*
X133995505Y-67149933D01*
X134021446Y-67265042D01*
X134023388Y-67269824D01*
X134023389Y-67269828D01*
X134087926Y-67428762D01*
X134108584Y-67479637D01*
X134229601Y-67677119D01*
X134232982Y-67681022D01*
X134341404Y-67806188D01*
X134370886Y-67870773D01*
X134360771Y-67941046D01*
X134314270Y-67994694D01*
X134290396Y-68006667D01*
X134234615Y-68027579D01*
X134223395Y-68031785D01*
X134106839Y-68119139D01*
X134019485Y-68235695D01*
X133968355Y-68372084D01*
X133961600Y-68434266D01*
X133961600Y-70330534D01*
X133968355Y-70392716D01*
X134019485Y-70529105D01*
X134106839Y-70645661D01*
X134223395Y-70733015D01*
X134359784Y-70784145D01*
X134421966Y-70790900D01*
X134485600Y-70790900D01*
X134553721Y-70810902D01*
X134600214Y-70864558D01*
X134611600Y-70916900D01*
X134611600Y-71250533D01*
X134591598Y-71318654D01*
X134557872Y-71353745D01*
X134525800Y-71376202D01*
X134363902Y-71538100D01*
X134232577Y-71725651D01*
X134230254Y-71730633D01*
X134230251Y-71730638D01*
X134144373Y-71914806D01*
X134135816Y-71933157D01*
X134134394Y-71938465D01*
X134134393Y-71938467D01*
X134112377Y-72020631D01*
X134076557Y-72154313D01*
X134056602Y-72382400D01*
X134076557Y-72610487D01*
X134077981Y-72615800D01*
X134077981Y-72615802D01*
X134113186Y-72747186D01*
X134135816Y-72831643D01*
X134138139Y-72836624D01*
X134138139Y-72836625D01*
X134165197Y-72894651D01*
X134175858Y-72964843D01*
X134146878Y-73029656D01*
X134087458Y-73068512D01*
X134051002Y-73073901D01*
X126905032Y-73073901D01*
X126836911Y-73053899D01*
X126790418Y-73000243D01*
X126780314Y-72929969D01*
X126788623Y-72899683D01*
X126790708Y-72894651D01*
X126809205Y-72849994D01*
X126833887Y-72747186D01*
X126863480Y-72623924D01*
X126863481Y-72623918D01*
X126864635Y-72619111D01*
X126883265Y-72382400D01*
X126864635Y-72145689D01*
X126862833Y-72138180D01*
X126814885Y-71938467D01*
X126809205Y-71914806D01*
X126791154Y-71871226D01*
X126720235Y-71700011D01*
X126720233Y-71700007D01*
X126718340Y-71695437D01*
X126622653Y-71539290D01*
X126596859Y-71497198D01*
X126596855Y-71497192D01*
X126594276Y-71492984D01*
X126440069Y-71312431D01*
X126259516Y-71158224D01*
X126188764Y-71114867D01*
X126141133Y-71062219D01*
X126128600Y-71007435D01*
X126128600Y-67257365D01*
X126148602Y-67189244D01*
X126188764Y-67149933D01*
X126259516Y-67106576D01*
X126440069Y-66952369D01*
X126594276Y-66771816D01*
X126596855Y-66767608D01*
X126596859Y-66767602D01*
X126715754Y-66573583D01*
X126718340Y-66569363D01*
X126763934Y-66459290D01*
X126807311Y-66354567D01*
X126807312Y-66354565D01*
X126809205Y-66349994D01*
X126843633Y-66206591D01*
X126863480Y-66123924D01*
X126863481Y-66123918D01*
X126864635Y-66119111D01*
X126883265Y-65882400D01*
X126864635Y-65645689D01*
X126860912Y-65630179D01*
X126812669Y-65429235D01*
X126809205Y-65414806D01*
X126807311Y-65410233D01*
X126720235Y-65200011D01*
X126720233Y-65200007D01*
X126718340Y-65195437D01*
X126665276Y-65108845D01*
X126596859Y-64997198D01*
X126596855Y-64997192D01*
X126594276Y-64992984D01*
X126440069Y-64812431D01*
X126259516Y-64658224D01*
X126255308Y-64655645D01*
X126255302Y-64655641D01*
X126061283Y-64536746D01*
X126057063Y-64534160D01*
X126052493Y-64532267D01*
X126052489Y-64532265D01*
X125842267Y-64445189D01*
X125842265Y-64445188D01*
X125837694Y-64443295D01*
X125757491Y-64424040D01*
X125611624Y-64389020D01*
X125611618Y-64389019D01*
X125606811Y-64387865D01*
X125370100Y-64369235D01*
X125365170Y-64369623D01*
X125365169Y-64369623D01*
X125304468Y-64374400D01*
X125234988Y-64359804D01*
X125184429Y-64309961D01*
X125168843Y-64240696D01*
X125193179Y-64174001D01*
X125205488Y-64159693D01*
X130186505Y-59178676D01*
X130248817Y-59144650D01*
X130319632Y-59149715D01*
G37*
%TD.AperFunction*%
%TA.AperFunction,Conductor*%
G36*
X123811981Y-65192332D02*
G01*
X123826217Y-65194498D01*
X123826220Y-65194498D01*
X123833450Y-65195598D01*
X123838727Y-65195169D01*
X123905319Y-65217274D01*
X123949911Y-65272520D01*
X123957556Y-65343104D01*
X123949948Y-65369049D01*
X123932891Y-65410227D01*
X123932889Y-65410233D01*
X123930995Y-65414806D01*
X123927531Y-65429235D01*
X123879289Y-65630179D01*
X123875565Y-65645689D01*
X123856935Y-65882400D01*
X123875565Y-66119111D01*
X123876719Y-66123918D01*
X123876720Y-66123924D01*
X123896567Y-66206591D01*
X123930995Y-66349994D01*
X123932888Y-66354565D01*
X123932889Y-66354567D01*
X123976267Y-66459290D01*
X124021860Y-66569363D01*
X124024446Y-66573583D01*
X124143341Y-66767602D01*
X124143345Y-66767608D01*
X124145924Y-66771816D01*
X124300131Y-66952369D01*
X124480684Y-67106576D01*
X124551436Y-67149933D01*
X124599067Y-67202581D01*
X124611600Y-67257365D01*
X124611600Y-70606662D01*
X124591598Y-70674783D01*
X124537942Y-70721276D01*
X124467668Y-70731380D01*
X124454267Y-70728704D01*
X124429210Y-70722271D01*
X124429209Y-70722271D01*
X124421529Y-70720299D01*
X124401275Y-70720299D01*
X124381564Y-70718748D01*
X124369385Y-70716819D01*
X124361556Y-70715579D01*
X124353664Y-70716325D01*
X124317538Y-70719740D01*
X124305680Y-70720299D01*
X120288725Y-70720299D01*
X120220604Y-70700297D01*
X120174111Y-70646641D01*
X120164007Y-70576367D01*
X120175767Y-70538475D01*
X120190218Y-70509235D01*
X120244511Y-70330534D01*
X120254306Y-70298296D01*
X120254306Y-70298295D01*
X120255808Y-70293352D01*
X120285258Y-70069656D01*
X120286902Y-70002400D01*
X120268415Y-69777532D01*
X120213449Y-69558704D01*
X120123480Y-69351791D01*
X120075101Y-69277009D01*
X120003734Y-69166691D01*
X120003732Y-69166688D01*
X120000926Y-69162351D01*
X119849077Y-68995471D01*
X119845026Y-68992272D01*
X119845022Y-68992268D01*
X119676066Y-68858834D01*
X119676062Y-68858832D01*
X119672011Y-68855632D01*
X119648635Y-68842728D01*
X119598664Y-68792296D01*
X119583892Y-68722853D01*
X119609008Y-68656447D01*
X119636359Y-68629841D01*
X119794555Y-68517001D01*
X119794559Y-68516997D01*
X119798767Y-68513996D01*
X119958587Y-68354733D01*
X120090250Y-68171505D01*
X120171718Y-68006667D01*
X120187924Y-67973877D01*
X120187925Y-67973875D01*
X120190218Y-67969235D01*
X120255808Y-67753352D01*
X120256483Y-67748226D01*
X120284821Y-67532978D01*
X120284822Y-67532972D01*
X120285258Y-67529656D01*
X120286902Y-67462400D01*
X120268580Y-67239539D01*
X120282933Y-67170008D01*
X120305061Y-67140120D01*
X122217377Y-65227804D01*
X122279689Y-65193778D01*
X122306472Y-65190899D01*
X123793031Y-65190899D01*
X123811981Y-65192332D01*
G37*
%TD.AperFunction*%
%TA.AperFunction,Conductor*%
G36*
X134854221Y-43225402D02*
G01*
X134900714Y-43279058D01*
X134912100Y-43331400D01*
X134912100Y-63854180D01*
X134892098Y-63922301D01*
X134838442Y-63968794D01*
X134786100Y-63980180D01*
X134592751Y-63980180D01*
X134524630Y-63960178D01*
X134503656Y-63943275D01*
X131955505Y-61395124D01*
X131921479Y-61332812D01*
X131918600Y-61306029D01*
X131918600Y-58507365D01*
X131938602Y-58439244D01*
X131978764Y-58399933D01*
X132049516Y-58356576D01*
X132053278Y-58353363D01*
X132226313Y-58205577D01*
X132230069Y-58202369D01*
X132384276Y-58021816D01*
X132386855Y-58017608D01*
X132386859Y-58017602D01*
X132505754Y-57823583D01*
X132508340Y-57819363D01*
X132511718Y-57811209D01*
X132597311Y-57604567D01*
X132597312Y-57604565D01*
X132599205Y-57599994D01*
X132627939Y-57480310D01*
X132653480Y-57373924D01*
X132653481Y-57373918D01*
X132654635Y-57369111D01*
X132673265Y-57132400D01*
X132654635Y-56895689D01*
X132653432Y-56890676D01*
X132613199Y-56723097D01*
X132599205Y-56664806D01*
X132597311Y-56660233D01*
X132510235Y-56450011D01*
X132510233Y-56450007D01*
X132508340Y-56445437D01*
X132452306Y-56353998D01*
X132386859Y-56247198D01*
X132386855Y-56247192D01*
X132384276Y-56242984D01*
X132230069Y-56062431D01*
X132049516Y-55908224D01*
X132045308Y-55905645D01*
X132045302Y-55905641D01*
X131851283Y-55786746D01*
X131847063Y-55784160D01*
X131842493Y-55782267D01*
X131842489Y-55782265D01*
X131632267Y-55695189D01*
X131632265Y-55695188D01*
X131627694Y-55693295D01*
X131508525Y-55664685D01*
X131401624Y-55639020D01*
X131401618Y-55639019D01*
X131396811Y-55637865D01*
X131160100Y-55619235D01*
X130923389Y-55637865D01*
X130918582Y-55639019D01*
X130918576Y-55639020D01*
X130811675Y-55664685D01*
X130692506Y-55693295D01*
X130687935Y-55695188D01*
X130687933Y-55695189D01*
X130477711Y-55782265D01*
X130477707Y-55782267D01*
X130473137Y-55784160D01*
X130468917Y-55786746D01*
X130274898Y-55905641D01*
X130274892Y-55905645D01*
X130270684Y-55908224D01*
X130090131Y-56062431D01*
X129935924Y-56242984D01*
X129933345Y-56247192D01*
X129933341Y-56247198D01*
X129867894Y-56353998D01*
X129811860Y-56445437D01*
X129809967Y-56450007D01*
X129809965Y-56450011D01*
X129722889Y-56660233D01*
X129720995Y-56664806D01*
X129707001Y-56723097D01*
X129666769Y-56890676D01*
X129665565Y-56895689D01*
X129646935Y-57132400D01*
X129665565Y-57369111D01*
X129666719Y-57373918D01*
X129666720Y-57373924D01*
X129684936Y-57449798D01*
X129681389Y-57520706D01*
X129651512Y-57568307D01*
X123582825Y-63636994D01*
X123520513Y-63671020D01*
X123493730Y-63673899D01*
X122007171Y-63673899D01*
X121988221Y-63672466D01*
X121973986Y-63670300D01*
X121973982Y-63670300D01*
X121966752Y-63669200D01*
X121959460Y-63669793D01*
X121959457Y-63669793D01*
X121914083Y-63673484D01*
X121903868Y-63673899D01*
X121895808Y-63673899D01*
X121892174Y-63674323D01*
X121892168Y-63674323D01*
X121879143Y-63675842D01*
X121867581Y-63677190D01*
X121863233Y-63677620D01*
X121841160Y-63679415D01*
X121797763Y-63682945D01*
X121797760Y-63682946D01*
X121790465Y-63683539D01*
X121783501Y-63685795D01*
X121777562Y-63686982D01*
X121771691Y-63688369D01*
X121764420Y-63689217D01*
X121757544Y-63691713D01*
X121757535Y-63691715D01*
X121695803Y-63714124D01*
X121691699Y-63715534D01*
X121622202Y-63738047D01*
X121615947Y-63741843D01*
X121610488Y-63744342D01*
X121605040Y-63747070D01*
X121598164Y-63749566D01*
X121537111Y-63789594D01*
X121533438Y-63791912D01*
X121470994Y-63829804D01*
X121462618Y-63837201D01*
X121462594Y-63837174D01*
X121459600Y-63839829D01*
X121456369Y-63842531D01*
X121450249Y-63846543D01*
X121445217Y-63851855D01*
X121396973Y-63902782D01*
X121394595Y-63905224D01*
X120486157Y-64813662D01*
X120423845Y-64847688D01*
X120353030Y-64842623D01*
X120296194Y-64800076D01*
X120271486Y-64734890D01*
X120268839Y-64702693D01*
X120268415Y-64697532D01*
X120213449Y-64478704D01*
X120123480Y-64271791D01*
X120075101Y-64197009D01*
X120003734Y-64086691D01*
X120003732Y-64086688D01*
X120000926Y-64082351D01*
X119849077Y-63915471D01*
X119845026Y-63912272D01*
X119845022Y-63912268D01*
X119676066Y-63778834D01*
X119676062Y-63778832D01*
X119672011Y-63775632D01*
X119474483Y-63666591D01*
X119261798Y-63591276D01*
X119211397Y-63582298D01*
X119044757Y-63552614D01*
X119044753Y-63552614D01*
X119039669Y-63551708D01*
X118967674Y-63550829D01*
X118819229Y-63549015D01*
X118819227Y-63549015D01*
X118814059Y-63548952D01*
X118591029Y-63583080D01*
X118376568Y-63653177D01*
X118176435Y-63757360D01*
X118172302Y-63760463D01*
X118172299Y-63760465D01*
X118047482Y-63854180D01*
X117996005Y-63892830D01*
X117840124Y-64055950D01*
X117837213Y-64060217D01*
X117837210Y-64060221D01*
X117804000Y-64108905D01*
X117749089Y-64153907D01*
X117699912Y-64163900D01*
X117582237Y-64163900D01*
X117514116Y-64143898D01*
X117476445Y-64106339D01*
X117463738Y-64086696D01*
X117463731Y-64086687D01*
X117460926Y-64082351D01*
X117309077Y-63915471D01*
X117305026Y-63912272D01*
X117305022Y-63912268D01*
X117136066Y-63778834D01*
X117136062Y-63778832D01*
X117132011Y-63775632D01*
X116934483Y-63666591D01*
X116721798Y-63591276D01*
X116671397Y-63582298D01*
X116504757Y-63552614D01*
X116504753Y-63552614D01*
X116499669Y-63551708D01*
X116427674Y-63550829D01*
X116279229Y-63549015D01*
X116279227Y-63549015D01*
X116274059Y-63548952D01*
X116051029Y-63583080D01*
X115836568Y-63653177D01*
X115636435Y-63757360D01*
X115632302Y-63760463D01*
X115632299Y-63760465D01*
X115507482Y-63854180D01*
X115456005Y-63892830D01*
X115300124Y-64055950D01*
X115284720Y-64078531D01*
X115203189Y-64198052D01*
X115148277Y-64243055D01*
X115077752Y-64251226D01*
X115014005Y-64219972D01*
X114977275Y-64159215D01*
X114973100Y-64127048D01*
X114973100Y-57105333D01*
X114993102Y-57037212D01*
X115046758Y-56990719D01*
X115117032Y-56980615D01*
X115180091Y-57008811D01*
X115229189Y-57050009D01*
X115234581Y-57052973D01*
X115234585Y-57052976D01*
X115374955Y-57130145D01*
X115411095Y-57150013D01*
X115608961Y-57212779D01*
X115615078Y-57213465D01*
X115615082Y-57213466D01*
X115691698Y-57222059D01*
X115770513Y-57230900D01*
X115882337Y-57230900D01*
X115885393Y-57230600D01*
X115885400Y-57230600D01*
X116030566Y-57216366D01*
X116030569Y-57216365D01*
X116036692Y-57215765D01*
X116168646Y-57175926D01*
X116229507Y-57157552D01*
X116229510Y-57157551D01*
X116235415Y-57155768D01*
X116242735Y-57151876D01*
X116413253Y-57061209D01*
X116413255Y-57061208D01*
X116418699Y-57058313D01*
X116479395Y-57008811D01*
X116574789Y-56931010D01*
X116574792Y-56931007D01*
X116579564Y-56927115D01*
X116583493Y-56922366D01*
X116687463Y-56796689D01*
X116746297Y-56756951D01*
X116817275Y-56755330D01*
X116877862Y-56792339D01*
X116900956Y-56828787D01*
X116928668Y-56895689D01*
X116932484Y-56904902D01*
X117064772Y-57120776D01*
X117229202Y-57313298D01*
X117421724Y-57477728D01*
X117637598Y-57610016D01*
X117642168Y-57611909D01*
X117642172Y-57611911D01*
X117826568Y-57688290D01*
X117871509Y-57706905D01*
X117956132Y-57727221D01*
X118112884Y-57764854D01*
X118112890Y-57764855D01*
X118117697Y-57766009D01*
X118370100Y-57785874D01*
X118622503Y-57766009D01*
X118627310Y-57764855D01*
X118627316Y-57764854D01*
X118784068Y-57727221D01*
X118868691Y-57706905D01*
X118913632Y-57688290D01*
X119098028Y-57611911D01*
X119098032Y-57611909D01*
X119102602Y-57610016D01*
X119318476Y-57477728D01*
X119510998Y-57313298D01*
X119665500Y-57132400D01*
X124566935Y-57132400D01*
X124585565Y-57369111D01*
X124586719Y-57373918D01*
X124586720Y-57373924D01*
X124612261Y-57480310D01*
X124640995Y-57599994D01*
X124642888Y-57604565D01*
X124642889Y-57604567D01*
X124728483Y-57811209D01*
X124731860Y-57819363D01*
X124734446Y-57823583D01*
X124853341Y-58017602D01*
X124853345Y-58017608D01*
X124855924Y-58021816D01*
X125010131Y-58202369D01*
X125190684Y-58356576D01*
X125194892Y-58359155D01*
X125194898Y-58359159D01*
X125306631Y-58427629D01*
X125393137Y-58480640D01*
X125397707Y-58482533D01*
X125397711Y-58482535D01*
X125607933Y-58569611D01*
X125612506Y-58571505D01*
X125692709Y-58590760D01*
X125838576Y-58625780D01*
X125838582Y-58625781D01*
X125843389Y-58626935D01*
X126080100Y-58645565D01*
X126316811Y-58626935D01*
X126321618Y-58625781D01*
X126321624Y-58625780D01*
X126467491Y-58590760D01*
X126547694Y-58571505D01*
X126552267Y-58569611D01*
X126762489Y-58482535D01*
X126762493Y-58482533D01*
X126767063Y-58480640D01*
X126853569Y-58427629D01*
X126965302Y-58359159D01*
X126965308Y-58359155D01*
X126969516Y-58356576D01*
X127150069Y-58202369D01*
X127304276Y-58021816D01*
X127306855Y-58017608D01*
X127306859Y-58017602D01*
X127425754Y-57823583D01*
X127428340Y-57819363D01*
X127431718Y-57811209D01*
X127517311Y-57604567D01*
X127517312Y-57604565D01*
X127519205Y-57599994D01*
X127547939Y-57480310D01*
X127573480Y-57373924D01*
X127573481Y-57373918D01*
X127574635Y-57369111D01*
X127593265Y-57132400D01*
X127574635Y-56895689D01*
X127573481Y-56890882D01*
X127573480Y-56890876D01*
X127555264Y-56815002D01*
X127558811Y-56744094D01*
X127588688Y-56696493D01*
X132109011Y-52176170D01*
X132123423Y-52163784D01*
X132135018Y-52155251D01*
X132135023Y-52155246D01*
X132140918Y-52150908D01*
X132145657Y-52145330D01*
X132145660Y-52145327D01*
X132175135Y-52110632D01*
X132182065Y-52103116D01*
X132187760Y-52097421D01*
X132205381Y-52075149D01*
X132208172Y-52071745D01*
X132250691Y-52021697D01*
X132250692Y-52021695D01*
X132255433Y-52016115D01*
X132258761Y-52009599D01*
X132262128Y-52004550D01*
X132265295Y-51999421D01*
X132269834Y-51993684D01*
X132300755Y-51927525D01*
X132302661Y-51923625D01*
X132335869Y-51858592D01*
X132337608Y-51851484D01*
X132339707Y-51845841D01*
X132341624Y-51840078D01*
X132344722Y-51833450D01*
X132359587Y-51761983D01*
X132360557Y-51757699D01*
X132376573Y-51692245D01*
X132377908Y-51686790D01*
X132378600Y-51675636D01*
X132378636Y-51675638D01*
X132378875Y-51671645D01*
X132379249Y-51667453D01*
X132380740Y-51660285D01*
X132378646Y-51582879D01*
X132378600Y-51579472D01*
X132378600Y-48866900D01*
X132398602Y-48798779D01*
X132452258Y-48752286D01*
X132504600Y-48740900D01*
X132768234Y-48740900D01*
X132830416Y-48734145D01*
X132966805Y-48683015D01*
X133083361Y-48595661D01*
X133170715Y-48479105D01*
X133221845Y-48342716D01*
X133228600Y-48280534D01*
X133228600Y-45984266D01*
X133221845Y-45922084D01*
X133170715Y-45785695D01*
X133083361Y-45669139D01*
X132966805Y-45581785D01*
X132830416Y-45530655D01*
X132768234Y-45523900D01*
X130471966Y-45523900D01*
X130409784Y-45530655D01*
X130273395Y-45581785D01*
X130156839Y-45669139D01*
X130069485Y-45785695D01*
X130018355Y-45922084D01*
X130011600Y-45984266D01*
X130011600Y-48280534D01*
X130018355Y-48342716D01*
X130069485Y-48479105D01*
X130156839Y-48595661D01*
X130273395Y-48683015D01*
X130409784Y-48734145D01*
X130471966Y-48740900D01*
X130735600Y-48740900D01*
X130803721Y-48760902D01*
X130850214Y-48814558D01*
X130861600Y-48866900D01*
X130861600Y-51226029D01*
X130841598Y-51294150D01*
X130824695Y-51315124D01*
X126516007Y-55623812D01*
X126453695Y-55657838D01*
X126397498Y-55657236D01*
X126321624Y-55639020D01*
X126321618Y-55639019D01*
X126316811Y-55637865D01*
X126080100Y-55619235D01*
X125843389Y-55637865D01*
X125838582Y-55639019D01*
X125838576Y-55639020D01*
X125731675Y-55664685D01*
X125612506Y-55693295D01*
X125607935Y-55695188D01*
X125607933Y-55695189D01*
X125397711Y-55782265D01*
X125397707Y-55782267D01*
X125393137Y-55784160D01*
X125388917Y-55786746D01*
X125194898Y-55905641D01*
X125194892Y-55905645D01*
X125190684Y-55908224D01*
X125010131Y-56062431D01*
X124855924Y-56242984D01*
X124853345Y-56247192D01*
X124853341Y-56247198D01*
X124787894Y-56353998D01*
X124731860Y-56445437D01*
X124729967Y-56450007D01*
X124729965Y-56450011D01*
X124642889Y-56660233D01*
X124640995Y-56664806D01*
X124627001Y-56723097D01*
X124586769Y-56890676D01*
X124585565Y-56895689D01*
X124566935Y-57132400D01*
X119665500Y-57132400D01*
X119675428Y-57120776D01*
X119726636Y-57037212D01*
X119754601Y-56991578D01*
X119807249Y-56943947D01*
X119880982Y-56932846D01*
X119891845Y-56934498D01*
X119891846Y-56934498D01*
X119899083Y-56935599D01*
X119906375Y-56935006D01*
X119906378Y-56935006D01*
X119951752Y-56931315D01*
X119961967Y-56930900D01*
X119970027Y-56930900D01*
X119983317Y-56929351D01*
X119998241Y-56927611D01*
X120002616Y-56927178D01*
X120068073Y-56921854D01*
X120068076Y-56921853D01*
X120075371Y-56921260D01*
X120082335Y-56919004D01*
X120088294Y-56917813D01*
X120094149Y-56916429D01*
X120101415Y-56915582D01*
X120170061Y-56890665D01*
X120174189Y-56889248D01*
X120236670Y-56869007D01*
X120236672Y-56869006D01*
X120243633Y-56866751D01*
X120249888Y-56862955D01*
X120255362Y-56860449D01*
X120260792Y-56857730D01*
X120267671Y-56855233D01*
X120328710Y-56815214D01*
X120332414Y-56812877D01*
X120394841Y-56774995D01*
X120403218Y-56767597D01*
X120403242Y-56767624D01*
X120406234Y-56764971D01*
X120409467Y-56762268D01*
X120415586Y-56758256D01*
X120468862Y-56702017D01*
X120471240Y-56699575D01*
X121949011Y-55221804D01*
X121963423Y-55209418D01*
X121975018Y-55200885D01*
X121975023Y-55200880D01*
X121980918Y-55196542D01*
X121985657Y-55190964D01*
X121985660Y-55190961D01*
X122015135Y-55156266D01*
X122022065Y-55148750D01*
X122027760Y-55143055D01*
X122038852Y-55129035D01*
X122045381Y-55120783D01*
X122048172Y-55117379D01*
X122090691Y-55067331D01*
X122090692Y-55067329D01*
X122095433Y-55061749D01*
X122098761Y-55055233D01*
X122102128Y-55050184D01*
X122105295Y-55045055D01*
X122109834Y-55039318D01*
X122140755Y-54973159D01*
X122142661Y-54969259D01*
X122156241Y-54942664D01*
X122175869Y-54904226D01*
X122177608Y-54897118D01*
X122179707Y-54891475D01*
X122181624Y-54885712D01*
X122184722Y-54879084D01*
X122187221Y-54867072D01*
X122199586Y-54807622D01*
X122200557Y-54803333D01*
X122216573Y-54737879D01*
X122217908Y-54732424D01*
X122218600Y-54721270D01*
X122218636Y-54721272D01*
X122218875Y-54717279D01*
X122219249Y-54713087D01*
X122220740Y-54705919D01*
X122218646Y-54628513D01*
X122218600Y-54625106D01*
X122218600Y-48624648D01*
X122238602Y-48556527D01*
X122278765Y-48517215D01*
X122354675Y-48470697D01*
X122408476Y-48437728D01*
X122600998Y-48273298D01*
X122765428Y-48080776D01*
X122897716Y-47864902D01*
X122994605Y-47630991D01*
X123053709Y-47384803D01*
X123073574Y-47132400D01*
X123053709Y-46879997D01*
X123038443Y-46816406D01*
X122995760Y-46638621D01*
X122994605Y-46633809D01*
X122897716Y-46399898D01*
X122765428Y-46184024D01*
X122600998Y-45991502D01*
X122408476Y-45827072D01*
X122192602Y-45694784D01*
X122188032Y-45692891D01*
X122188028Y-45692889D01*
X121963264Y-45599789D01*
X121963262Y-45599788D01*
X121958691Y-45597895D01*
X121874068Y-45577579D01*
X121717316Y-45539946D01*
X121717310Y-45539945D01*
X121712503Y-45538791D01*
X121460100Y-45518926D01*
X121207697Y-45538791D01*
X121202890Y-45539945D01*
X121202884Y-45539946D01*
X121046132Y-45577579D01*
X120961509Y-45597895D01*
X120956938Y-45599788D01*
X120956936Y-45599789D01*
X120732172Y-45692889D01*
X120732168Y-45692891D01*
X120727598Y-45694784D01*
X120511724Y-45827072D01*
X120319202Y-45991502D01*
X120154772Y-46184024D01*
X120022484Y-46399898D01*
X119925595Y-46633809D01*
X119924440Y-46638621D01*
X119881758Y-46816406D01*
X119866491Y-46879997D01*
X119846626Y-47132400D01*
X119866491Y-47384803D01*
X119925595Y-47630991D01*
X120022484Y-47864902D01*
X120154772Y-48080776D01*
X120319202Y-48273298D01*
X120511724Y-48437728D01*
X120565525Y-48470697D01*
X120641435Y-48517215D01*
X120689066Y-48569863D01*
X120701600Y-48624648D01*
X120701600Y-54271663D01*
X120681598Y-54339784D01*
X120664695Y-54360758D01*
X119829853Y-55195600D01*
X119767541Y-55229626D01*
X119696726Y-55224561D01*
X119644947Y-55188335D01*
X119514211Y-55035263D01*
X119514206Y-55035258D01*
X119510998Y-55031502D01*
X119318476Y-54867072D01*
X119102602Y-54734784D01*
X119098032Y-54732891D01*
X119098028Y-54732889D01*
X118873264Y-54639789D01*
X118873262Y-54639788D01*
X118868691Y-54637895D01*
X118760313Y-54611876D01*
X118627316Y-54579946D01*
X118627310Y-54579945D01*
X118622503Y-54578791D01*
X118370100Y-54558926D01*
X118117697Y-54578791D01*
X118112890Y-54579945D01*
X118112884Y-54579946D01*
X117979887Y-54611876D01*
X117871509Y-54637895D01*
X117866938Y-54639788D01*
X117866936Y-54639789D01*
X117642172Y-54732889D01*
X117642168Y-54732891D01*
X117637598Y-54734784D01*
X117421724Y-54867072D01*
X117229202Y-55031502D01*
X117064772Y-55224024D01*
X116932484Y-55439898D01*
X116930591Y-55444468D01*
X116930587Y-55444476D01*
X116900608Y-55516854D01*
X116856060Y-55572136D01*
X116788697Y-55594557D01*
X116719906Y-55576999D01*
X116686003Y-55547589D01*
X116593894Y-55433029D01*
X116593889Y-55433024D01*
X116590029Y-55428223D01*
X116577471Y-55417685D01*
X116448644Y-55309587D01*
X116431011Y-55294791D01*
X116425619Y-55291827D01*
X116425615Y-55291824D01*
X116254502Y-55197754D01*
X116249105Y-55194787D01*
X116051239Y-55132021D01*
X116045122Y-55131335D01*
X116045118Y-55131334D01*
X115968502Y-55122741D01*
X115889687Y-55113900D01*
X115777863Y-55113900D01*
X115774807Y-55114200D01*
X115774800Y-55114200D01*
X115629634Y-55128434D01*
X115629631Y-55128435D01*
X115623508Y-55129035D01*
X115491554Y-55168874D01*
X115430693Y-55187248D01*
X115430690Y-55187249D01*
X115424785Y-55189032D01*
X115419340Y-55191927D01*
X115419338Y-55191928D01*
X115246947Y-55283591D01*
X115246945Y-55283592D01*
X115241501Y-55286487D01*
X115185960Y-55331785D01*
X115178736Y-55337677D01*
X115113304Y-55365231D01*
X115043363Y-55353036D01*
X114991118Y-55304963D01*
X114973100Y-55240034D01*
X114973100Y-54565333D01*
X114993102Y-54497212D01*
X115046758Y-54450719D01*
X115117032Y-54440615D01*
X115180091Y-54468811D01*
X115229189Y-54510009D01*
X115234581Y-54512973D01*
X115234585Y-54512976D01*
X115374453Y-54589869D01*
X115411095Y-54610013D01*
X115608961Y-54672779D01*
X115615078Y-54673465D01*
X115615082Y-54673466D01*
X115691698Y-54682059D01*
X115770513Y-54690900D01*
X115882337Y-54690900D01*
X115885393Y-54690600D01*
X115885400Y-54690600D01*
X116030566Y-54676366D01*
X116030569Y-54676365D01*
X116036692Y-54675765D01*
X116204486Y-54625106D01*
X116229507Y-54617552D01*
X116229510Y-54617551D01*
X116235415Y-54615768D01*
X116242735Y-54611876D01*
X116413253Y-54521209D01*
X116413255Y-54521208D01*
X116418699Y-54518313D01*
X116501578Y-54450719D01*
X116574789Y-54391010D01*
X116574792Y-54391007D01*
X116579564Y-54387115D01*
X116711883Y-54227170D01*
X116714814Y-54221750D01*
X116807684Y-54049990D01*
X116807686Y-54049985D01*
X116810614Y-54044570D01*
X116871998Y-53846271D01*
X116872642Y-53840145D01*
X116893052Y-53645954D01*
X116893052Y-53645952D01*
X116893696Y-53639825D01*
X116880651Y-53496487D01*
X116875441Y-53439236D01*
X116875440Y-53439233D01*
X116874882Y-53433097D01*
X116870749Y-53419052D01*
X116818012Y-53239869D01*
X116816273Y-53233960D01*
X116720101Y-53050000D01*
X116590029Y-52888223D01*
X116577471Y-52877685D01*
X116457533Y-52777046D01*
X116431011Y-52754791D01*
X116425619Y-52751827D01*
X116425615Y-52751824D01*
X116254502Y-52657754D01*
X116249105Y-52654787D01*
X116051239Y-52592021D01*
X116045122Y-52591335D01*
X116045118Y-52591334D01*
X115968502Y-52582741D01*
X115889687Y-52573900D01*
X115777863Y-52573900D01*
X115774807Y-52574200D01*
X115774800Y-52574200D01*
X115629634Y-52588434D01*
X115629631Y-52588435D01*
X115623508Y-52589035D01*
X115532992Y-52616363D01*
X115430693Y-52647248D01*
X115430690Y-52647249D01*
X115424785Y-52649032D01*
X115419340Y-52651927D01*
X115419338Y-52651928D01*
X115246947Y-52743591D01*
X115246945Y-52743592D01*
X115241501Y-52746487D01*
X115179870Y-52796752D01*
X115178736Y-52797677D01*
X115113304Y-52825231D01*
X115043363Y-52813036D01*
X114991118Y-52764963D01*
X114973100Y-52700034D01*
X114973100Y-49100607D01*
X114974846Y-49079703D01*
X114977364Y-49064735D01*
X114978171Y-49059939D01*
X114978324Y-49047400D01*
X114977635Y-49042587D01*
X114977634Y-49042575D01*
X114975851Y-49030127D01*
X114974675Y-49007317D01*
X114990915Y-48593992D01*
X114991691Y-48584129D01*
X115044444Y-48138421D01*
X115045992Y-48128650D01*
X115133550Y-47688465D01*
X115135860Y-47678844D01*
X115257684Y-47246890D01*
X115260741Y-47237481D01*
X115416083Y-46816406D01*
X115419869Y-46807266D01*
X115492717Y-46649246D01*
X115607770Y-46399678D01*
X115612251Y-46390883D01*
X115831559Y-45999279D01*
X115836729Y-45990843D01*
X115944012Y-45830283D01*
X116086076Y-45617670D01*
X116091886Y-45609673D01*
X116109626Y-45587171D01*
X116369744Y-45257211D01*
X116376167Y-45249691D01*
X116680832Y-44920106D01*
X116687806Y-44913132D01*
X117017394Y-44608464D01*
X117024914Y-44602042D01*
X117086488Y-44553501D01*
X117377381Y-44324180D01*
X117385370Y-44318376D01*
X117758543Y-44069029D01*
X117766979Y-44063859D01*
X117813127Y-44038015D01*
X118158583Y-43844551D01*
X118167378Y-43840070D01*
X118574969Y-43652168D01*
X118584106Y-43648383D01*
X119005181Y-43493041D01*
X119014590Y-43489984D01*
X119446544Y-43368160D01*
X119456165Y-43365850D01*
X119896350Y-43278292D01*
X119906121Y-43276744D01*
X120351829Y-43223991D01*
X120361692Y-43223215D01*
X120771265Y-43207123D01*
X120795590Y-43208525D01*
X120797310Y-43208792D01*
X120808830Y-43210586D01*
X120817732Y-43209422D01*
X120817735Y-43209422D01*
X120840351Y-43206464D01*
X120856689Y-43205400D01*
X134786100Y-43205400D01*
X134854221Y-43225402D01*
G37*
%TD.AperFunction*%
%TA.AperFunction,Conductor*%
G36*
X155377862Y-55002339D02*
G01*
X155400956Y-55038787D01*
X155422392Y-55090537D01*
X155432484Y-55114902D01*
X155564772Y-55330776D01*
X155729202Y-55523298D01*
X155921724Y-55687728D01*
X156137598Y-55820016D01*
X156142168Y-55821909D01*
X156142172Y-55821911D01*
X156350551Y-55908224D01*
X156371509Y-55916905D01*
X156438492Y-55932986D01*
X156612884Y-55974854D01*
X156612890Y-55974855D01*
X156617697Y-55976009D01*
X156870100Y-55995874D01*
X157122503Y-55976009D01*
X157127310Y-55974855D01*
X157127316Y-55974854D01*
X157301708Y-55932986D01*
X157368691Y-55916905D01*
X157390784Y-55907754D01*
X157448411Y-55883884D01*
X157487384Y-55867741D01*
X157557973Y-55860152D01*
X157621460Y-55891931D01*
X157657687Y-55952989D01*
X157661601Y-55984150D01*
X157661601Y-59339234D01*
X157641599Y-59407355D01*
X157624696Y-59428329D01*
X153923195Y-63129830D01*
X153860883Y-63163856D01*
X153790068Y-63158791D01*
X153733232Y-63116244D01*
X153708421Y-63049724D01*
X153708100Y-63040735D01*
X153708100Y-58001470D01*
X153728102Y-57933349D01*
X153781758Y-57886856D01*
X153852032Y-57876752D01*
X153894801Y-57891055D01*
X153911095Y-57900013D01*
X154108961Y-57962779D01*
X154115078Y-57963465D01*
X154115082Y-57963466D01*
X154191698Y-57972059D01*
X154270513Y-57980900D01*
X154382337Y-57980900D01*
X154385393Y-57980600D01*
X154385400Y-57980600D01*
X154530566Y-57966366D01*
X154530569Y-57966365D01*
X154536692Y-57965765D01*
X154675080Y-57923984D01*
X154729507Y-57907552D01*
X154729510Y-57907551D01*
X154735415Y-57905768D01*
X154742735Y-57901876D01*
X154913253Y-57811209D01*
X154913255Y-57811208D01*
X154918699Y-57808313D01*
X154986740Y-57752820D01*
X155074789Y-57681010D01*
X155074792Y-57681007D01*
X155079564Y-57677115D01*
X155096786Y-57656298D01*
X155207955Y-57521918D01*
X155211883Y-57517170D01*
X155231813Y-57480310D01*
X155307684Y-57339990D01*
X155307686Y-57339985D01*
X155310614Y-57334570D01*
X155371998Y-57136271D01*
X155372923Y-57127470D01*
X155393052Y-56935954D01*
X155393052Y-56935952D01*
X155393696Y-56929825D01*
X155384501Y-56828787D01*
X155375441Y-56729236D01*
X155375440Y-56729233D01*
X155374882Y-56723097D01*
X155368321Y-56700802D01*
X155318012Y-56529869D01*
X155316273Y-56523960D01*
X155220101Y-56340000D01*
X155090029Y-56178223D01*
X155074930Y-56165553D01*
X154953579Y-56063728D01*
X154931011Y-56044791D01*
X154925619Y-56041827D01*
X154925615Y-56041824D01*
X154754502Y-55947754D01*
X154749105Y-55944787D01*
X154551239Y-55882021D01*
X154545122Y-55881335D01*
X154545118Y-55881334D01*
X154468502Y-55872741D01*
X154389687Y-55863900D01*
X154277863Y-55863900D01*
X154274807Y-55864200D01*
X154274800Y-55864200D01*
X154129634Y-55878434D01*
X154129631Y-55878435D01*
X154123508Y-55879035D01*
X153994249Y-55918060D01*
X153930693Y-55937248D01*
X153930690Y-55937249D01*
X153924785Y-55939032D01*
X153919342Y-55941926D01*
X153919335Y-55941929D01*
X153893255Y-55955797D01*
X153823718Y-55970119D01*
X153757477Y-55944572D01*
X153715563Y-55887268D01*
X153708100Y-55844547D01*
X153708100Y-55461470D01*
X153728102Y-55393349D01*
X153781758Y-55346856D01*
X153852032Y-55336752D01*
X153894801Y-55351055D01*
X153911095Y-55360013D01*
X154108961Y-55422779D01*
X154115078Y-55423465D01*
X154115082Y-55423466D01*
X154191698Y-55432059D01*
X154270513Y-55440900D01*
X154382337Y-55440900D01*
X154385393Y-55440600D01*
X154385400Y-55440600D01*
X154530566Y-55426366D01*
X154530569Y-55426365D01*
X154536692Y-55425765D01*
X154675080Y-55383984D01*
X154729507Y-55367552D01*
X154729510Y-55367551D01*
X154735415Y-55365768D01*
X154742735Y-55361876D01*
X154913253Y-55271209D01*
X154913255Y-55271208D01*
X154918699Y-55268313D01*
X155008851Y-55194787D01*
X155074789Y-55141010D01*
X155074792Y-55141007D01*
X155079564Y-55137115D01*
X155083778Y-55132021D01*
X155187463Y-55006689D01*
X155246297Y-54966951D01*
X155317275Y-54965330D01*
X155377862Y-55002339D01*
G37*
%TD.AperFunction*%
%TA.AperFunction,Conductor*%
G36*
X168509221Y-50210402D02*
G01*
X168555714Y-50264058D01*
X168567100Y-50316400D01*
X168567100Y-50742571D01*
X168547098Y-50810692D01*
X168493442Y-50857185D01*
X168423168Y-50867289D01*
X168380399Y-50852986D01*
X168334502Y-50827754D01*
X168329105Y-50824787D01*
X168131239Y-50762021D01*
X168125122Y-50761335D01*
X168125118Y-50761334D01*
X168048502Y-50752741D01*
X167969687Y-50743900D01*
X167857863Y-50743900D01*
X167854807Y-50744200D01*
X167854800Y-50744200D01*
X167709634Y-50758434D01*
X167709631Y-50758435D01*
X167703508Y-50759035D01*
X167573010Y-50798434D01*
X167510693Y-50817248D01*
X167510690Y-50817249D01*
X167504785Y-50819032D01*
X167499340Y-50821927D01*
X167499338Y-50821928D01*
X167326947Y-50913591D01*
X167326945Y-50913592D01*
X167321501Y-50916487D01*
X167272456Y-50956487D01*
X167165411Y-51043790D01*
X167165408Y-51043793D01*
X167160636Y-51047685D01*
X167156708Y-51052433D01*
X167156707Y-51052434D01*
X167118827Y-51098223D01*
X167028317Y-51207630D01*
X167025388Y-51213047D01*
X167025386Y-51213050D01*
X166932516Y-51384810D01*
X166932514Y-51384815D01*
X166929586Y-51390230D01*
X166868202Y-51588529D01*
X166867558Y-51594654D01*
X166867558Y-51594655D01*
X166857875Y-51686790D01*
X166846504Y-51794975D01*
X166865318Y-52001703D01*
X166867056Y-52007609D01*
X166867057Y-52007613D01*
X166885932Y-52071745D01*
X166923927Y-52200840D01*
X167020099Y-52384800D01*
X167150171Y-52546577D01*
X167154888Y-52550535D01*
X167154890Y-52550537D01*
X167200054Y-52588434D01*
X167309189Y-52680009D01*
X167314581Y-52682973D01*
X167314585Y-52682976D01*
X167463719Y-52764963D01*
X167491095Y-52780013D01*
X167688961Y-52842779D01*
X167695078Y-52843465D01*
X167695082Y-52843466D01*
X167771698Y-52852059D01*
X167850513Y-52860900D01*
X167962337Y-52860900D01*
X167965393Y-52860600D01*
X167965400Y-52860600D01*
X168110566Y-52846366D01*
X168110569Y-52846365D01*
X168116692Y-52845765D01*
X168279034Y-52796752D01*
X168309507Y-52787552D01*
X168309510Y-52787551D01*
X168315415Y-52785768D01*
X168381948Y-52750391D01*
X168451483Y-52736072D01*
X168517724Y-52761619D01*
X168559637Y-52818923D01*
X168567100Y-52861643D01*
X168567100Y-53282571D01*
X168547098Y-53350692D01*
X168493442Y-53397185D01*
X168423168Y-53407289D01*
X168380399Y-53392986D01*
X168334502Y-53367754D01*
X168329105Y-53364787D01*
X168131239Y-53302021D01*
X168125122Y-53301335D01*
X168125118Y-53301334D01*
X168048502Y-53292741D01*
X167969687Y-53283900D01*
X167857863Y-53283900D01*
X167854807Y-53284200D01*
X167854800Y-53284200D01*
X167709634Y-53298434D01*
X167709631Y-53298435D01*
X167703508Y-53299035D01*
X167573010Y-53338434D01*
X167510693Y-53357248D01*
X167510690Y-53357249D01*
X167504785Y-53359032D01*
X167499340Y-53361927D01*
X167499338Y-53361928D01*
X167326947Y-53453591D01*
X167326945Y-53453592D01*
X167321501Y-53456487D01*
X167272456Y-53496487D01*
X167165411Y-53583790D01*
X167165408Y-53583793D01*
X167160636Y-53587685D01*
X167156708Y-53592433D01*
X167156707Y-53592434D01*
X167052737Y-53718111D01*
X166993903Y-53757849D01*
X166922925Y-53759470D01*
X166862338Y-53722461D01*
X166839244Y-53686013D01*
X166809611Y-53614472D01*
X166809609Y-53614468D01*
X166807716Y-53609898D01*
X166675428Y-53394024D01*
X166510998Y-53201502D01*
X166318476Y-53037072D01*
X166102602Y-52904784D01*
X166098032Y-52902891D01*
X166098028Y-52902889D01*
X165873264Y-52809789D01*
X165873262Y-52809788D01*
X165868691Y-52807895D01*
X165760313Y-52781876D01*
X165627316Y-52749946D01*
X165627310Y-52749945D01*
X165622503Y-52748791D01*
X165370100Y-52728926D01*
X165117697Y-52748791D01*
X165112890Y-52749945D01*
X165112884Y-52749946D01*
X164979887Y-52781876D01*
X164871509Y-52807895D01*
X164866938Y-52809788D01*
X164866936Y-52809789D01*
X164642172Y-52902889D01*
X164642168Y-52902891D01*
X164637598Y-52904784D01*
X164421724Y-53037072D01*
X164229202Y-53201502D01*
X164064772Y-53394024D01*
X163932484Y-53609898D01*
X163930591Y-53614468D01*
X163930589Y-53614472D01*
X163837489Y-53839236D01*
X163835595Y-53843809D01*
X163834440Y-53848621D01*
X163786096Y-54049990D01*
X163776491Y-54089997D01*
X163756626Y-54342400D01*
X163776491Y-54594803D01*
X163777645Y-54599610D01*
X163777646Y-54599616D01*
X163805895Y-54717279D01*
X163835595Y-54840991D01*
X163837488Y-54845562D01*
X163837489Y-54845564D01*
X163930588Y-55070324D01*
X163932484Y-55074902D01*
X163935070Y-55079122D01*
X164009013Y-55199786D01*
X164027551Y-55268320D01*
X164006095Y-55335996D01*
X163977147Y-55366446D01*
X163906839Y-55419139D01*
X163819485Y-55535695D01*
X163768355Y-55672084D01*
X163761600Y-55734266D01*
X163761600Y-55997900D01*
X163741598Y-56066021D01*
X163687942Y-56112514D01*
X163635600Y-56123900D01*
X161310376Y-56123900D01*
X161291426Y-56122467D01*
X161277191Y-56120301D01*
X161277187Y-56120301D01*
X161269957Y-56119201D01*
X161262665Y-56119794D01*
X161262662Y-56119794D01*
X161217288Y-56123485D01*
X161207073Y-56123900D01*
X161199013Y-56123900D01*
X161195379Y-56124324D01*
X161195373Y-56124324D01*
X161182348Y-56125843D01*
X161170786Y-56127191D01*
X161166438Y-56127621D01*
X161093670Y-56133540D01*
X161086709Y-56135795D01*
X161080769Y-56136982D01*
X161074894Y-56138371D01*
X161067625Y-56139218D01*
X160998976Y-56164136D01*
X160994848Y-56165553D01*
X160932370Y-56185793D01*
X160932368Y-56185794D01*
X160925407Y-56188049D01*
X160919152Y-56191845D01*
X160913678Y-56194351D01*
X160908248Y-56197070D01*
X160901369Y-56199567D01*
X160895249Y-56203580D01*
X160895248Y-56203580D01*
X160840330Y-56239586D01*
X160836626Y-56241923D01*
X160774199Y-56279805D01*
X160765822Y-56287203D01*
X160765798Y-56287176D01*
X160762806Y-56289829D01*
X160759573Y-56292532D01*
X160753454Y-56296544D01*
X160748422Y-56301856D01*
X160700178Y-56352783D01*
X160697800Y-56355225D01*
X159393696Y-57659329D01*
X159331384Y-57693355D01*
X159260569Y-57688290D01*
X159203733Y-57645743D01*
X159178922Y-57579223D01*
X159178601Y-57570234D01*
X159178601Y-53459464D01*
X159180034Y-53440515D01*
X159182198Y-53426287D01*
X159183299Y-53419052D01*
X159182343Y-53407289D01*
X159179016Y-53366392D01*
X159178601Y-53356178D01*
X159178601Y-53348108D01*
X159178179Y-53344488D01*
X159178178Y-53344470D01*
X159175309Y-53319862D01*
X159174876Y-53315487D01*
X159174515Y-53311040D01*
X159168961Y-53242764D01*
X159166705Y-53235800D01*
X159165514Y-53229841D01*
X159164130Y-53223986D01*
X159163283Y-53216720D01*
X159138366Y-53148074D01*
X159136949Y-53143946D01*
X159116708Y-53081465D01*
X159116707Y-53081463D01*
X159114452Y-53074502D01*
X159110656Y-53068247D01*
X159108150Y-53062773D01*
X159105431Y-53057343D01*
X159102934Y-53050464D01*
X159062910Y-52989417D01*
X159060573Y-52985713D01*
X159025610Y-52928094D01*
X159025606Y-52928089D01*
X159022696Y-52923293D01*
X159015298Y-52914917D01*
X159015324Y-52914894D01*
X159012675Y-52911904D01*
X159009967Y-52908665D01*
X159005957Y-52902549D01*
X159000650Y-52897522D01*
X159000647Y-52897518D01*
X158949718Y-52849273D01*
X158947276Y-52846895D01*
X158515505Y-52415124D01*
X158481479Y-52352812D01*
X158478600Y-52326029D01*
X158478600Y-50694266D01*
X158471845Y-50632084D01*
X158420715Y-50495695D01*
X158342974Y-50391965D01*
X158318126Y-50325458D01*
X158333179Y-50256076D01*
X158383353Y-50205846D01*
X158443800Y-50190400D01*
X168441100Y-50190400D01*
X168509221Y-50210402D01*
G37*
%TD.AperFunction*%
%TD*%
M02*
