%TF.GenerationSoftware,KiCad,Pcbnew,5.1.9+dfsg1-1~bpo10+1*%
%TF.CreationDate,2021-07-04T13:04:41+00:00*%
%TF.ProjectId,bbbalarm,62626261-6c61-4726-9d2e-6b696361645f,rev?*%
%TF.SameCoordinates,Original*%
%TF.FileFunction,Paste,Top*%
%TF.FilePolarity,Positive*%
%FSLAX46Y46*%
G04 Gerber Fmt 4.6, Leading zero omitted, Abs format (unit mm)*
G04 Created by KiCad (PCBNEW 5.1.9+dfsg1-1~bpo10+1) date 2021-07-04 13:04:41*
%MOMM*%
%LPD*%
G01*
G04 APERTURE LIST*
G04 APERTURE END LIST*
%TO.C,C101*%
G36*
G01*
X124950100Y-90622400D02*
X125290100Y-90622400D01*
G75*
G02*
X125430100Y-90762400I0J-140000D01*
G01*
X125430100Y-91042400D01*
G75*
G02*
X125290100Y-91182400I-140000J0D01*
G01*
X124950100Y-91182400D01*
G75*
G02*
X124810100Y-91042400I0J140000D01*
G01*
X124810100Y-90762400D01*
G75*
G02*
X124950100Y-90622400I140000J0D01*
G01*
G37*
G36*
G01*
X124950100Y-91582400D02*
X125290100Y-91582400D01*
G75*
G02*
X125430100Y-91722400I0J-140000D01*
G01*
X125430100Y-92002400D01*
G75*
G02*
X125290100Y-92142400I-140000J0D01*
G01*
X124950100Y-92142400D01*
G75*
G02*
X124810100Y-92002400I0J140000D01*
G01*
X124810100Y-91722400D01*
G75*
G02*
X124950100Y-91582400I140000J0D01*
G01*
G37*
%TD*%
%TO.C,R101*%
G36*
G01*
X133130100Y-86447400D02*
X133130100Y-86817400D01*
G75*
G02*
X132995100Y-86952400I-135000J0D01*
G01*
X132725100Y-86952400D01*
G75*
G02*
X132590100Y-86817400I0J135000D01*
G01*
X132590100Y-86447400D01*
G75*
G02*
X132725100Y-86312400I135000J0D01*
G01*
X132995100Y-86312400D01*
G75*
G02*
X133130100Y-86447400I0J-135000D01*
G01*
G37*
G36*
G01*
X134150100Y-86447400D02*
X134150100Y-86817400D01*
G75*
G02*
X134015100Y-86952400I-135000J0D01*
G01*
X133745100Y-86952400D01*
G75*
G02*
X133610100Y-86817400I0J135000D01*
G01*
X133610100Y-86447400D01*
G75*
G02*
X133745100Y-86312400I135000J0D01*
G01*
X134015100Y-86312400D01*
G75*
G02*
X134150100Y-86447400I0J-135000D01*
G01*
G37*
%TD*%
%TO.C,R102*%
G36*
G01*
X134150100Y-87697400D02*
X134150100Y-88067400D01*
G75*
G02*
X134015100Y-88202400I-135000J0D01*
G01*
X133745100Y-88202400D01*
G75*
G02*
X133610100Y-88067400I0J135000D01*
G01*
X133610100Y-87697400D01*
G75*
G02*
X133745100Y-87562400I135000J0D01*
G01*
X134015100Y-87562400D01*
G75*
G02*
X134150100Y-87697400I0J-135000D01*
G01*
G37*
G36*
G01*
X133130100Y-87697400D02*
X133130100Y-88067400D01*
G75*
G02*
X132995100Y-88202400I-135000J0D01*
G01*
X132725100Y-88202400D01*
G75*
G02*
X132590100Y-88067400I0J135000D01*
G01*
X132590100Y-87697400D01*
G75*
G02*
X132725100Y-87562400I135000J0D01*
G01*
X132995100Y-87562400D01*
G75*
G02*
X133130100Y-87697400I0J-135000D01*
G01*
G37*
%TD*%
%TO.C,R103*%
G36*
G01*
X133130100Y-88947400D02*
X133130100Y-89317400D01*
G75*
G02*
X132995100Y-89452400I-135000J0D01*
G01*
X132725100Y-89452400D01*
G75*
G02*
X132590100Y-89317400I0J135000D01*
G01*
X132590100Y-88947400D01*
G75*
G02*
X132725100Y-88812400I135000J0D01*
G01*
X132995100Y-88812400D01*
G75*
G02*
X133130100Y-88947400I0J-135000D01*
G01*
G37*
G36*
G01*
X134150100Y-88947400D02*
X134150100Y-89317400D01*
G75*
G02*
X134015100Y-89452400I-135000J0D01*
G01*
X133745100Y-89452400D01*
G75*
G02*
X133610100Y-89317400I0J135000D01*
G01*
X133610100Y-88947400D01*
G75*
G02*
X133745100Y-88812400I135000J0D01*
G01*
X134015100Y-88812400D01*
G75*
G02*
X134150100Y-88947400I0J-135000D01*
G01*
G37*
%TD*%
%TO.C,R104*%
G36*
G01*
X122555100Y-91162400D02*
X122185100Y-91162400D01*
G75*
G02*
X122050100Y-91027400I0J135000D01*
G01*
X122050100Y-90757400D01*
G75*
G02*
X122185100Y-90622400I135000J0D01*
G01*
X122555100Y-90622400D01*
G75*
G02*
X122690100Y-90757400I0J-135000D01*
G01*
X122690100Y-91027400D01*
G75*
G02*
X122555100Y-91162400I-135000J0D01*
G01*
G37*
G36*
G01*
X122555100Y-90142400D02*
X122185100Y-90142400D01*
G75*
G02*
X122050100Y-90007400I0J135000D01*
G01*
X122050100Y-89737400D01*
G75*
G02*
X122185100Y-89602400I135000J0D01*
G01*
X122555100Y-89602400D01*
G75*
G02*
X122690100Y-89737400I0J-135000D01*
G01*
X122690100Y-90007400D01*
G75*
G02*
X122555100Y-90142400I-135000J0D01*
G01*
G37*
%TD*%
%TO.C,U103*%
G36*
G01*
X131820100Y-89137400D02*
X131820100Y-89437400D01*
G75*
G02*
X131670100Y-89587400I-150000J0D01*
G01*
X130020100Y-89587400D01*
G75*
G02*
X129870100Y-89437400I0J150000D01*
G01*
X129870100Y-89137400D01*
G75*
G02*
X130020100Y-88987400I150000J0D01*
G01*
X131670100Y-88987400D01*
G75*
G02*
X131820100Y-89137400I0J-150000D01*
G01*
G37*
G36*
G01*
X131820100Y-87867400D02*
X131820100Y-88167400D01*
G75*
G02*
X131670100Y-88317400I-150000J0D01*
G01*
X130020100Y-88317400D01*
G75*
G02*
X129870100Y-88167400I0J150000D01*
G01*
X129870100Y-87867400D01*
G75*
G02*
X130020100Y-87717400I150000J0D01*
G01*
X131670100Y-87717400D01*
G75*
G02*
X131820100Y-87867400I0J-150000D01*
G01*
G37*
G36*
G01*
X131820100Y-86597400D02*
X131820100Y-86897400D01*
G75*
G02*
X131670100Y-87047400I-150000J0D01*
G01*
X130020100Y-87047400D01*
G75*
G02*
X129870100Y-86897400I0J150000D01*
G01*
X129870100Y-86597400D01*
G75*
G02*
X130020100Y-86447400I150000J0D01*
G01*
X131670100Y-86447400D01*
G75*
G02*
X131820100Y-86597400I0J-150000D01*
G01*
G37*
G36*
G01*
X131820100Y-85327400D02*
X131820100Y-85627400D01*
G75*
G02*
X131670100Y-85777400I-150000J0D01*
G01*
X130020100Y-85777400D01*
G75*
G02*
X129870100Y-85627400I0J150000D01*
G01*
X129870100Y-85327400D01*
G75*
G02*
X130020100Y-85177400I150000J0D01*
G01*
X131670100Y-85177400D01*
G75*
G02*
X131820100Y-85327400I0J-150000D01*
G01*
G37*
G36*
G01*
X126870100Y-85327400D02*
X126870100Y-85627400D01*
G75*
G02*
X126720100Y-85777400I-150000J0D01*
G01*
X125070100Y-85777400D01*
G75*
G02*
X124920100Y-85627400I0J150000D01*
G01*
X124920100Y-85327400D01*
G75*
G02*
X125070100Y-85177400I150000J0D01*
G01*
X126720100Y-85177400D01*
G75*
G02*
X126870100Y-85327400I0J-150000D01*
G01*
G37*
G36*
G01*
X126870100Y-86597400D02*
X126870100Y-86897400D01*
G75*
G02*
X126720100Y-87047400I-150000J0D01*
G01*
X125070100Y-87047400D01*
G75*
G02*
X124920100Y-86897400I0J150000D01*
G01*
X124920100Y-86597400D01*
G75*
G02*
X125070100Y-86447400I150000J0D01*
G01*
X126720100Y-86447400D01*
G75*
G02*
X126870100Y-86597400I0J-150000D01*
G01*
G37*
G36*
G01*
X126870100Y-87867400D02*
X126870100Y-88167400D01*
G75*
G02*
X126720100Y-88317400I-150000J0D01*
G01*
X125070100Y-88317400D01*
G75*
G02*
X124920100Y-88167400I0J150000D01*
G01*
X124920100Y-87867400D01*
G75*
G02*
X125070100Y-87717400I150000J0D01*
G01*
X126720100Y-87717400D01*
G75*
G02*
X126870100Y-87867400I0J-150000D01*
G01*
G37*
G36*
G01*
X126870100Y-89137400D02*
X126870100Y-89437400D01*
G75*
G02*
X126720100Y-89587400I-150000J0D01*
G01*
X125070100Y-89587400D01*
G75*
G02*
X124920100Y-89437400I0J150000D01*
G01*
X124920100Y-89137400D01*
G75*
G02*
X125070100Y-88987400I150000J0D01*
G01*
X126720100Y-88987400D01*
G75*
G02*
X126870100Y-89137400I0J-150000D01*
G01*
G37*
%TD*%
M02*
