G04 #@! TF.GenerationSoftware,KiCad,Pcbnew,6.0.5+dfsg-1~bpo11+1*
G04 #@! TF.CreationDate,2022-07-02T01:15:07+00:00*
G04 #@! TF.ProjectId,bbbalarm,62626261-6c61-4726-9d2e-6b696361645f,rev?*
G04 #@! TF.SameCoordinates,Original*
G04 #@! TF.FileFunction,Soldermask,Top*
G04 #@! TF.FilePolarity,Negative*
%FSLAX46Y46*%
G04 Gerber Fmt 4.6, Leading zero omitted, Abs format (unit mm)*
G04 Created by KiCad (PCBNEW 6.0.5+dfsg-1~bpo11+1) date 2022-07-02 01:15:07*
%MOMM*%
%LPD*%
G01*
G04 APERTURE LIST*
%ADD10R,1.727200X1.727200*%
%ADD11O,1.727200X1.727200*%
%ADD12C,2.000000*%
%ADD13C,1.100000*%
%ADD14R,2.200000X2.200000*%
%ADD15C,2.200000*%
%ADD16O,2.200000X2.200000*%
%ADD17R,1.800000X1.800000*%
%ADD18C,1.800000*%
%ADD19R,1.500000X3.000000*%
%ADD20O,1.500000X3.000000*%
%ADD21C,1.600000*%
%ADD22O,1.600000X1.600000*%
%ADD23R,1.600000X1.600000*%
%ADD24R,1.700000X1.700000*%
%ADD25O,1.700000X1.700000*%
%ADD26R,0.550000X0.250000*%
G04 APERTURE END LIST*
D10*
X164630100Y-62382400D03*
D11*
X167170100Y-62382400D03*
X164630100Y-64922400D03*
X167170100Y-64922400D03*
X164630100Y-67462400D03*
X167170100Y-67462400D03*
X164630100Y-70002400D03*
X167170100Y-70002400D03*
X164630100Y-72542400D03*
X167170100Y-72542400D03*
X164630100Y-75082400D03*
X167170100Y-75082400D03*
X164630100Y-77622400D03*
X167170100Y-77622400D03*
X164630100Y-80162400D03*
X167170100Y-80162400D03*
X164630100Y-82702400D03*
X167170100Y-82702400D03*
X164630100Y-85242400D03*
X167170100Y-85242400D03*
X164630100Y-87782400D03*
X167170100Y-87782400D03*
X164630100Y-90322400D03*
X167170100Y-90322400D03*
X164630100Y-92862400D03*
X167170100Y-92862400D03*
X164630100Y-95402400D03*
X167170100Y-95402400D03*
X164630100Y-97942400D03*
X167170100Y-97942400D03*
X164630100Y-100482400D03*
X167170100Y-100482400D03*
X164630100Y-103022400D03*
X167170100Y-103022400D03*
X164630100Y-105562400D03*
X167170100Y-105562400D03*
X164630100Y-108102400D03*
X167170100Y-108102400D03*
X164630100Y-110642400D03*
X167170100Y-110642400D03*
X164630100Y-113182400D03*
X167170100Y-113182400D03*
X164630100Y-115722400D03*
X167170100Y-115722400D03*
X164630100Y-118262400D03*
X167170100Y-118262400D03*
G36*
G01*
X124950100Y-90622400D02*
X125290100Y-90622400D01*
G75*
G02*
X125430100Y-90762400I0J-140000D01*
G01*
X125430100Y-91042400D01*
G75*
G02*
X125290100Y-91182400I-140000J0D01*
G01*
X124950100Y-91182400D01*
G75*
G02*
X124810100Y-91042400I0J140000D01*
G01*
X124810100Y-90762400D01*
G75*
G02*
X124950100Y-90622400I140000J0D01*
G01*
G37*
G36*
G01*
X124950100Y-91582400D02*
X125290100Y-91582400D01*
G75*
G02*
X125430100Y-91722400I0J-140000D01*
G01*
X125430100Y-92002400D01*
G75*
G02*
X125290100Y-92142400I-140000J0D01*
G01*
X124950100Y-92142400D01*
G75*
G02*
X124810100Y-92002400I0J140000D01*
G01*
X124810100Y-91722400D01*
G75*
G02*
X124950100Y-91582400I140000J0D01*
G01*
G37*
G36*
X127620100Y-92232400D02*
G01*
X127620100Y-91732400D01*
X127625067Y-91732400D01*
X127626532Y-91652459D01*
X127668807Y-91517144D01*
X127747362Y-91399134D01*
X127855881Y-91307914D01*
X127985640Y-91250819D01*
X128120100Y-91233236D01*
X128120100Y-91232400D01*
X128620100Y-91232400D01*
X128620100Y-91233236D01*
X128626209Y-91232437D01*
X128766286Y-91254248D01*
X128894611Y-91314496D01*
X129000869Y-91408340D01*
X129076517Y-91528235D01*
X129115474Y-91664542D01*
X129115059Y-91732400D01*
X129120100Y-91732400D01*
X129120100Y-92232400D01*
X127620100Y-92232400D01*
G37*
G36*
X129115059Y-93032400D02*
G01*
X129114608Y-93106305D01*
X129073989Y-93242126D01*
X128996882Y-93361088D01*
X128889485Y-93453626D01*
X128760433Y-93512303D01*
X128620100Y-93532400D01*
X128120100Y-93532400D01*
X128107884Y-93532251D01*
X127968083Y-93508731D01*
X127840504Y-93446919D01*
X127735400Y-93351784D01*
X127661223Y-93230974D01*
X127623934Y-93094201D01*
X127625067Y-93032400D01*
X127620100Y-93032400D01*
X127620100Y-92532400D01*
X129120100Y-92532400D01*
X129120100Y-93032400D01*
X129115059Y-93032400D01*
G37*
G36*
X133620100Y-92232400D02*
G01*
X133620100Y-91732400D01*
X133625067Y-91732400D01*
X133626532Y-91652459D01*
X133668807Y-91517144D01*
X133747362Y-91399134D01*
X133855881Y-91307914D01*
X133985640Y-91250819D01*
X134120100Y-91233236D01*
X134120100Y-91232400D01*
X134620100Y-91232400D01*
X134620100Y-91233236D01*
X134626209Y-91232437D01*
X134766286Y-91254248D01*
X134894611Y-91314496D01*
X135000869Y-91408340D01*
X135076517Y-91528235D01*
X135115474Y-91664542D01*
X135115059Y-91732400D01*
X135120100Y-91732400D01*
X135120100Y-92232400D01*
X133620100Y-92232400D01*
G37*
G36*
X135115059Y-93032400D02*
G01*
X135114608Y-93106305D01*
X135073989Y-93242126D01*
X134996882Y-93361088D01*
X134889485Y-93453626D01*
X134760433Y-93512303D01*
X134620100Y-93532400D01*
X134120100Y-93532400D01*
X134107884Y-93532251D01*
X133968083Y-93508731D01*
X133840504Y-93446919D01*
X133735400Y-93351784D01*
X133661223Y-93230974D01*
X133623934Y-93094201D01*
X133625067Y-93032400D01*
X133620100Y-93032400D01*
X133620100Y-92532400D01*
X135120100Y-92532400D01*
X135120100Y-93032400D01*
X135115059Y-93032400D01*
G37*
G36*
X123120100Y-87532400D02*
G01*
X123120100Y-88032400D01*
X123115133Y-88032400D01*
X123113668Y-88112341D01*
X123071393Y-88247656D01*
X122992838Y-88365666D01*
X122884319Y-88456886D01*
X122754560Y-88513981D01*
X122620100Y-88531564D01*
X122620100Y-88532400D01*
X122120100Y-88532400D01*
X122120100Y-88531564D01*
X122113991Y-88532363D01*
X121973914Y-88510552D01*
X121845589Y-88450304D01*
X121739331Y-88356460D01*
X121663683Y-88236565D01*
X121624726Y-88100258D01*
X121625141Y-88032400D01*
X121620100Y-88032400D01*
X121620100Y-87532400D01*
X123120100Y-87532400D01*
G37*
G36*
X121625141Y-86732400D02*
G01*
X121625592Y-86658495D01*
X121666211Y-86522674D01*
X121743318Y-86403712D01*
X121850715Y-86311174D01*
X121979767Y-86252497D01*
X122120100Y-86232400D01*
X122620100Y-86232400D01*
X122632316Y-86232549D01*
X122772117Y-86256069D01*
X122899696Y-86317881D01*
X123004800Y-86413016D01*
X123078977Y-86533826D01*
X123116266Y-86670599D01*
X123115133Y-86732400D01*
X123120100Y-86732400D01*
X123120100Y-87232400D01*
X121620100Y-87232400D01*
X121620100Y-86732400D01*
X121625141Y-86732400D01*
G37*
G36*
G01*
X134150100Y-86447400D02*
X134150100Y-86817400D01*
G75*
G02*
X134015100Y-86952400I-135000J0D01*
G01*
X133745100Y-86952400D01*
G75*
G02*
X133610100Y-86817400I0J135000D01*
G01*
X133610100Y-86447400D01*
G75*
G02*
X133745100Y-86312400I135000J0D01*
G01*
X134015100Y-86312400D01*
G75*
G02*
X134150100Y-86447400I0J-135000D01*
G01*
G37*
G36*
G01*
X133130100Y-86447400D02*
X133130100Y-86817400D01*
G75*
G02*
X132995100Y-86952400I-135000J0D01*
G01*
X132725100Y-86952400D01*
G75*
G02*
X132590100Y-86817400I0J135000D01*
G01*
X132590100Y-86447400D01*
G75*
G02*
X132725100Y-86312400I135000J0D01*
G01*
X132995100Y-86312400D01*
G75*
G02*
X133130100Y-86447400I0J-135000D01*
G01*
G37*
G36*
G01*
X134150100Y-87697400D02*
X134150100Y-88067400D01*
G75*
G02*
X134015100Y-88202400I-135000J0D01*
G01*
X133745100Y-88202400D01*
G75*
G02*
X133610100Y-88067400I0J135000D01*
G01*
X133610100Y-87697400D01*
G75*
G02*
X133745100Y-87562400I135000J0D01*
G01*
X134015100Y-87562400D01*
G75*
G02*
X134150100Y-87697400I0J-135000D01*
G01*
G37*
G36*
G01*
X133130100Y-87697400D02*
X133130100Y-88067400D01*
G75*
G02*
X132995100Y-88202400I-135000J0D01*
G01*
X132725100Y-88202400D01*
G75*
G02*
X132590100Y-88067400I0J135000D01*
G01*
X132590100Y-87697400D01*
G75*
G02*
X132725100Y-87562400I135000J0D01*
G01*
X132995100Y-87562400D01*
G75*
G02*
X133130100Y-87697400I0J-135000D01*
G01*
G37*
G36*
G01*
X122555100Y-91162400D02*
X122185100Y-91162400D01*
G75*
G02*
X122050100Y-91027400I0J135000D01*
G01*
X122050100Y-90757400D01*
G75*
G02*
X122185100Y-90622400I135000J0D01*
G01*
X122555100Y-90622400D01*
G75*
G02*
X122690100Y-90757400I0J-135000D01*
G01*
X122690100Y-91027400D01*
G75*
G02*
X122555100Y-91162400I-135000J0D01*
G01*
G37*
G36*
G01*
X122555100Y-90142400D02*
X122185100Y-90142400D01*
G75*
G02*
X122050100Y-90007400I0J135000D01*
G01*
X122050100Y-89737400D01*
G75*
G02*
X122185100Y-89602400I135000J0D01*
G01*
X122555100Y-89602400D01*
G75*
G02*
X122690100Y-89737400I0J-135000D01*
G01*
X122690100Y-90007400D01*
G75*
G02*
X122555100Y-90142400I-135000J0D01*
G01*
G37*
D12*
X155370100Y-65882400D03*
X155370100Y-72382400D03*
X159870100Y-72382400D03*
X159870100Y-65882400D03*
X125370100Y-72382400D03*
X125370100Y-65882400D03*
X129870100Y-65882400D03*
X129870100Y-72382400D03*
G36*
G01*
X131820100Y-89137400D02*
X131820100Y-89437400D01*
G75*
G02*
X131670100Y-89587400I-150000J0D01*
G01*
X130020100Y-89587400D01*
G75*
G02*
X129870100Y-89437400I0J150000D01*
G01*
X129870100Y-89137400D01*
G75*
G02*
X130020100Y-88987400I150000J0D01*
G01*
X131670100Y-88987400D01*
G75*
G02*
X131820100Y-89137400I0J-150000D01*
G01*
G37*
G36*
G01*
X131820100Y-87867400D02*
X131820100Y-88167400D01*
G75*
G02*
X131670100Y-88317400I-150000J0D01*
G01*
X130020100Y-88317400D01*
G75*
G02*
X129870100Y-88167400I0J150000D01*
G01*
X129870100Y-87867400D01*
G75*
G02*
X130020100Y-87717400I150000J0D01*
G01*
X131670100Y-87717400D01*
G75*
G02*
X131820100Y-87867400I0J-150000D01*
G01*
G37*
G36*
G01*
X131820100Y-86597400D02*
X131820100Y-86897400D01*
G75*
G02*
X131670100Y-87047400I-150000J0D01*
G01*
X130020100Y-87047400D01*
G75*
G02*
X129870100Y-86897400I0J150000D01*
G01*
X129870100Y-86597400D01*
G75*
G02*
X130020100Y-86447400I150000J0D01*
G01*
X131670100Y-86447400D01*
G75*
G02*
X131820100Y-86597400I0J-150000D01*
G01*
G37*
G36*
G01*
X131820100Y-85327400D02*
X131820100Y-85627400D01*
G75*
G02*
X131670100Y-85777400I-150000J0D01*
G01*
X130020100Y-85777400D01*
G75*
G02*
X129870100Y-85627400I0J150000D01*
G01*
X129870100Y-85327400D01*
G75*
G02*
X130020100Y-85177400I150000J0D01*
G01*
X131670100Y-85177400D01*
G75*
G02*
X131820100Y-85327400I0J-150000D01*
G01*
G37*
G36*
G01*
X126870100Y-85327400D02*
X126870100Y-85627400D01*
G75*
G02*
X126720100Y-85777400I-150000J0D01*
G01*
X125070100Y-85777400D01*
G75*
G02*
X124920100Y-85627400I0J150000D01*
G01*
X124920100Y-85327400D01*
G75*
G02*
X125070100Y-85177400I150000J0D01*
G01*
X126720100Y-85177400D01*
G75*
G02*
X126870100Y-85327400I0J-150000D01*
G01*
G37*
G36*
G01*
X126870100Y-86597400D02*
X126870100Y-86897400D01*
G75*
G02*
X126720100Y-87047400I-150000J0D01*
G01*
X125070100Y-87047400D01*
G75*
G02*
X124920100Y-86897400I0J150000D01*
G01*
X124920100Y-86597400D01*
G75*
G02*
X125070100Y-86447400I150000J0D01*
G01*
X126720100Y-86447400D01*
G75*
G02*
X126870100Y-86597400I0J-150000D01*
G01*
G37*
G36*
G01*
X126870100Y-87867400D02*
X126870100Y-88167400D01*
G75*
G02*
X126720100Y-88317400I-150000J0D01*
G01*
X125070100Y-88317400D01*
G75*
G02*
X124920100Y-88167400I0J150000D01*
G01*
X124920100Y-87867400D01*
G75*
G02*
X125070100Y-87717400I150000J0D01*
G01*
X126720100Y-87717400D01*
G75*
G02*
X126870100Y-87867400I0J-150000D01*
G01*
G37*
G36*
G01*
X126870100Y-89137400D02*
X126870100Y-89437400D01*
G75*
G02*
X126720100Y-89587400I-150000J0D01*
G01*
X125070100Y-89587400D01*
G75*
G02*
X124920100Y-89437400I0J150000D01*
G01*
X124920100Y-89137400D01*
G75*
G02*
X125070100Y-88987400I150000J0D01*
G01*
X126720100Y-88987400D01*
G75*
G02*
X126870100Y-89137400I0J-150000D01*
G01*
G37*
G36*
G01*
X134150100Y-88947400D02*
X134150100Y-89317400D01*
G75*
G02*
X134015100Y-89452400I-135000J0D01*
G01*
X133745100Y-89452400D01*
G75*
G02*
X133610100Y-89317400I0J135000D01*
G01*
X133610100Y-88947400D01*
G75*
G02*
X133745100Y-88812400I135000J0D01*
G01*
X134015100Y-88812400D01*
G75*
G02*
X134150100Y-88947400I0J-135000D01*
G01*
G37*
G36*
G01*
X133130100Y-88947400D02*
X133130100Y-89317400D01*
G75*
G02*
X132995100Y-89452400I-135000J0D01*
G01*
X132725100Y-89452400D01*
G75*
G02*
X132590100Y-89317400I0J135000D01*
G01*
X132590100Y-88947400D01*
G75*
G02*
X132725100Y-88812400I135000J0D01*
G01*
X132995100Y-88812400D01*
G75*
G02*
X133130100Y-88947400I0J-135000D01*
G01*
G37*
G36*
X130620100Y-92232400D02*
G01*
X130620100Y-91732400D01*
X130625067Y-91732400D01*
X130626532Y-91652459D01*
X130668807Y-91517144D01*
X130747362Y-91399134D01*
X130855881Y-91307914D01*
X130985640Y-91250819D01*
X131120100Y-91233236D01*
X131120100Y-91232400D01*
X131620100Y-91232400D01*
X131620100Y-91233236D01*
X131626209Y-91232437D01*
X131766286Y-91254248D01*
X131894611Y-91314496D01*
X132000869Y-91408340D01*
X132076517Y-91528235D01*
X132115474Y-91664542D01*
X132115059Y-91732400D01*
X132120100Y-91732400D01*
X132120100Y-92232400D01*
X130620100Y-92232400D01*
G37*
G36*
X132115059Y-93032400D02*
G01*
X132114608Y-93106305D01*
X132073989Y-93242126D01*
X131996882Y-93361088D01*
X131889485Y-93453626D01*
X131760433Y-93512303D01*
X131620100Y-93532400D01*
X131120100Y-93532400D01*
X131107884Y-93532251D01*
X130968083Y-93508731D01*
X130840504Y-93446919D01*
X130735400Y-93351784D01*
X130661223Y-93230974D01*
X130623934Y-93094201D01*
X130625067Y-93032400D01*
X130620100Y-93032400D01*
X130620100Y-92532400D01*
X132120100Y-92532400D01*
X132120100Y-93032400D01*
X132115059Y-93032400D01*
G37*
D13*
X115830100Y-53632400D03*
X115830100Y-56172400D03*
D14*
X118370100Y-53632400D03*
D15*
X118370100Y-56172400D03*
D12*
X126080100Y-57132400D03*
X128620100Y-57132400D03*
X131160100Y-57132400D03*
D14*
X131620100Y-47132400D03*
D16*
X121460100Y-47132400D03*
D17*
X135370100Y-69382400D03*
D18*
X135370100Y-66842400D03*
D17*
X140370100Y-69382400D03*
D18*
X140370100Y-66842400D03*
D17*
X145370100Y-69382400D03*
D18*
X145370100Y-66842400D03*
D17*
X150370100Y-69382400D03*
D18*
X150370100Y-66842400D03*
D19*
X130370100Y-119382400D03*
D20*
X135370100Y-119382400D03*
D19*
X147370100Y-119382400D03*
D20*
X152370100Y-119382400D03*
D21*
X135370100Y-72382400D03*
D22*
X135370100Y-80002400D03*
D21*
X140370100Y-72382400D03*
D22*
X140370100Y-80002400D03*
D21*
X145370100Y-72382400D03*
D22*
X145370100Y-80002400D03*
D21*
X150370100Y-72382400D03*
D22*
X150370100Y-80002400D03*
D21*
X140370100Y-89382400D03*
D22*
X140370100Y-97002400D03*
D21*
X144370100Y-89382400D03*
D22*
X144370100Y-97002400D03*
D21*
X129370100Y-111382400D03*
D22*
X136990100Y-111382400D03*
D21*
X146370100Y-111382400D03*
D22*
X153990100Y-111382400D03*
D13*
X167910100Y-51802400D03*
X167910100Y-54342400D03*
X167910100Y-56882400D03*
D14*
X165370100Y-56882400D03*
D15*
X165370100Y-54342400D03*
X165370100Y-51802400D03*
D23*
X138370100Y-107382400D03*
D22*
X140910100Y-107382400D03*
X143450100Y-107382400D03*
X145990100Y-107382400D03*
X145990100Y-99762400D03*
X143450100Y-99762400D03*
X140910100Y-99762400D03*
X138370100Y-99762400D03*
D10*
X116370100Y-62382400D03*
D11*
X118910100Y-62382400D03*
X116370100Y-64922400D03*
X118910100Y-64922400D03*
X116370100Y-67462400D03*
X118910100Y-67462400D03*
X116370100Y-70002400D03*
X118910100Y-70002400D03*
X116370100Y-72542400D03*
X118910100Y-72542400D03*
X116370100Y-75082400D03*
X118910100Y-75082400D03*
X116370100Y-77622400D03*
X118910100Y-77622400D03*
X116370100Y-80162400D03*
X118910100Y-80162400D03*
X116370100Y-82702400D03*
X118910100Y-82702400D03*
X116370100Y-85242400D03*
X118910100Y-85242400D03*
X116370100Y-87782400D03*
X118910100Y-87782400D03*
X116370100Y-90322400D03*
X118910100Y-90322400D03*
X116370100Y-92862400D03*
X118910100Y-92862400D03*
X116370100Y-95402400D03*
X118910100Y-95402400D03*
X116370100Y-97942400D03*
X118910100Y-97942400D03*
X116370100Y-100482400D03*
X118910100Y-100482400D03*
X116370100Y-103022400D03*
X118910100Y-103022400D03*
X116370100Y-105562400D03*
X118910100Y-105562400D03*
X116370100Y-108102400D03*
X118910100Y-108102400D03*
X116370100Y-110642400D03*
X118910100Y-110642400D03*
X116370100Y-113182400D03*
X118910100Y-113182400D03*
X116370100Y-115722400D03*
X118910100Y-115722400D03*
X116370100Y-118262400D03*
X118910100Y-118262400D03*
D13*
X154330100Y-56922400D03*
X154330100Y-51842400D03*
X154330100Y-54382400D03*
D14*
X156870100Y-51842400D03*
D15*
X156870100Y-54382400D03*
X156870100Y-56922400D03*
G36*
G01*
X162400100Y-82697400D02*
X162400100Y-83067400D01*
G75*
G02*
X162265100Y-83202400I-135000J0D01*
G01*
X161995100Y-83202400D01*
G75*
G02*
X161860100Y-83067400I0J135000D01*
G01*
X161860100Y-82697400D01*
G75*
G02*
X161995100Y-82562400I135000J0D01*
G01*
X162265100Y-82562400D01*
G75*
G02*
X162400100Y-82697400I0J-135000D01*
G01*
G37*
G36*
G01*
X161380100Y-82697400D02*
X161380100Y-83067400D01*
G75*
G02*
X161245100Y-83202400I-135000J0D01*
G01*
X160975100Y-83202400D01*
G75*
G02*
X160840100Y-83067400I0J135000D01*
G01*
X160840100Y-82697400D01*
G75*
G02*
X160975100Y-82562400I135000J0D01*
G01*
X161245100Y-82562400D01*
G75*
G02*
X161380100Y-82697400I0J-135000D01*
G01*
G37*
D24*
X130370100Y-77882400D03*
D25*
X127830100Y-77882400D03*
X125290100Y-77882400D03*
D26*
X141195100Y-84132400D03*
X141195100Y-84632400D03*
X141195100Y-85132400D03*
X141195100Y-85632400D03*
X143545100Y-85632400D03*
X143545100Y-85132400D03*
X143545100Y-84632400D03*
X143545100Y-84132400D03*
G36*
X142870100Y-85732400D02*
G01*
X141870100Y-85732400D01*
X141870100Y-84332400D01*
X142170100Y-84032400D01*
X142870100Y-84032400D01*
X142870100Y-85732400D01*
G37*
M02*
