M48
; DRILL file {KiCad 6.0.5+dfsg-1~bpo11+1} date Sat Jul  2 02:00:19 2022
; FORMAT={-:-/ absolute / inch / decimal}
; #@! TF.CreationDate,2022-07-02T02:00:19+00:00
; #@! TF.GenerationSoftware,Kicad,Pcbnew,6.0.5+dfsg-1~bpo11+1
; #@! TF.FileFunction,Plated,1,2,PTH
FMAT,2
INCH
; #@! TA.AperFunction,Plated,PTH,ViaDrill
T1C0.0157
; #@! TA.AperFunction,Plated,PTH,ComponentDrill
T2C0.0315
; #@! TA.AperFunction,Plated,PTH,ComponentDrill
T3C0.0354
; #@! TA.AperFunction,Plated,PTH,ComponentDrill
T4C0.0394
; #@! TA.AperFunction,Plated,PTH,ComponentDrill
T5C0.0400
; #@! TA.AperFunction,Plated,PTH,ComponentDrill
T6C0.0433
; #@! TA.AperFunction,Plated,PTH,ComponentDrill
T7C0.0453
%
G90
G05
T1
X4.8177Y-3.0564
X4.8276Y-2.6332
X4.8374Y-2.8595
X4.8768Y-3.3314
X4.8768Y-3.4206
X5.0146Y-3.3418
X5.0539Y-3.3615
X5.0539Y-3.4206
X5.5165Y-3.3517
X5.5165Y-3.3831
X5.5854Y-3.4403
X5.6937Y-3.3517
X5.7035Y-3.2828
X5.8512Y-3.578
X6.0776Y-3.3517
X6.3039Y-3.2631
T2
X5.0933Y-4.3851
X5.3295Y-2.8497
X5.3295Y-3.1497
X5.3933Y-4.3851
X5.4476Y-3.9277
X5.4476Y-4.2277
X5.5264Y-2.8497
X5.5264Y-3.1497
X5.5264Y-3.519
X5.5264Y-3.819
X5.5476Y-3.9277
X5.5476Y-4.2277
X5.6476Y-3.9277
X5.6476Y-4.2277
X5.6839Y-3.519
X5.6839Y-3.819
X5.7232Y-2.8497
X5.7232Y-3.1497
X5.7476Y-3.9277
X5.7476Y-4.2277
X5.7626Y-4.3851
X5.9201Y-2.8497
X5.9201Y-3.1497
X6.0626Y-4.3851
T3
X5.3295Y-2.6316
X5.3295Y-2.7316
X5.5264Y-2.6316
X5.5264Y-2.7316
X5.7232Y-2.6316
X5.7232Y-2.7316
X5.9201Y-2.6316
X5.9201Y-2.7316
T4
X4.9327Y-3.0662
X4.9638Y-2.2493
X5.0327Y-3.0662
X5.0638Y-2.2493
X5.1327Y-3.0662
X5.1638Y-2.2493
T5
X4.5815Y-2.456
X4.5815Y-2.556
X4.5815Y-2.656
X4.5815Y-2.756
X4.5815Y-2.856
X4.5815Y-2.956
X4.5815Y-3.056
X4.5815Y-3.156
X4.5815Y-3.256
X4.5815Y-3.356
X4.5815Y-3.456
X4.5815Y-3.556
X4.5815Y-3.656
X4.5815Y-3.756
X4.5815Y-3.856
X4.5815Y-3.956
X4.5815Y-4.056
X4.5815Y-4.156
X4.5815Y-4.256
X4.5815Y-4.356
X4.5815Y-4.456
X4.5815Y-4.556
X4.5815Y-4.656
X4.6815Y-2.456
X4.6815Y-2.556
X4.6815Y-2.656
X4.6815Y-2.756
X4.6815Y-2.856
X4.6815Y-2.956
X4.6815Y-3.056
X4.6815Y-3.156
X4.6815Y-3.256
X4.6815Y-3.356
X4.6815Y-3.456
X4.6815Y-3.556
X4.6815Y-3.656
X4.6815Y-3.756
X4.6815Y-3.856
X4.6815Y-3.956
X4.6815Y-4.056
X4.6815Y-4.156
X4.6815Y-4.256
X4.6815Y-4.356
X4.6815Y-4.456
X4.6815Y-4.556
X4.6815Y-4.656
X6.4815Y-2.456
X6.4815Y-2.556
X6.4815Y-2.656
X6.4815Y-2.756
X6.4815Y-2.856
X6.4815Y-2.956
X6.4815Y-3.056
X6.4815Y-3.156
X6.4815Y-3.256
X6.4815Y-3.356
X6.4815Y-3.456
X6.4815Y-3.556
X6.4815Y-3.656
X6.4815Y-3.756
X6.4815Y-3.856
X6.4815Y-3.956
X6.4815Y-4.056
X6.4815Y-4.156
X6.4815Y-4.256
X6.4815Y-4.356
X6.4815Y-4.456
X6.4815Y-4.556
X6.4815Y-4.656
X6.5815Y-2.456
X6.5815Y-2.556
X6.5815Y-2.656
X6.5815Y-2.756
X6.5815Y-2.856
X6.5815Y-2.956
X6.5815Y-3.056
X6.5815Y-3.156
X6.5815Y-3.256
X6.5815Y-3.356
X6.5815Y-3.456
X6.5815Y-3.556
X6.5815Y-3.656
X6.5815Y-3.756
X6.5815Y-3.856
X6.5815Y-3.956
X6.5815Y-4.056
X6.5815Y-4.156
X6.5815Y-4.256
X6.5815Y-4.356
X6.5815Y-4.456
X6.5815Y-4.556
X6.5815Y-4.656
T6
X4.6602Y-2.1115
X4.6602Y-2.2115
X4.7819Y-1.8556
X4.9358Y-2.5938
X4.9358Y-2.8497
X5.113Y-2.5938
X5.113Y-2.8497
X5.1819Y-1.8556
X6.1169Y-2.5938
X6.1169Y-2.8497
X6.176Y-2.041
X6.176Y-2.141
X6.176Y-2.241
X6.2941Y-2.5938
X6.2941Y-2.8497
X6.5106Y-2.0395
X6.5106Y-2.1395
X6.5106Y-2.2395
T7
X5.1327Y-4.7001
X5.3295Y-4.7001
X5.802Y-4.7001
X5.9988Y-4.7001
T0
M30
