G04 #@! TF.GenerationSoftware,KiCad,Pcbnew,6.0.5+dfsg-1~bpo11+1*
G04 #@! TF.CreationDate,2022-07-02T08:21:34+00:00*
G04 #@! TF.ProjectId,bbbalarm,62626261-6c61-4726-9d2e-6b696361645f,rev?*
G04 #@! TF.SameCoordinates,Original*
G04 #@! TF.FileFunction,Legend,Top*
G04 #@! TF.FilePolarity,Positive*
%FSLAX46Y46*%
G04 Gerber Fmt 4.6, Leading zero omitted, Abs format (unit mm)*
G04 Created by KiCad (PCBNEW 6.0.5+dfsg-1~bpo11+1) date 2022-07-02 08:21:34*
%MOMM*%
%LPD*%
G01*
G04 APERTURE LIST*
%ADD10C,0.150000*%
%ADD11C,0.120000*%
%ADD12R,1.727200X1.727200*%
%ADD13O,1.727200X1.727200*%
%ADD14C,2.000000*%
%ADD15C,1.100000*%
%ADD16R,2.200000X2.200000*%
%ADD17C,2.200000*%
%ADD18O,2.200000X2.200000*%
%ADD19R,1.800000X1.800000*%
%ADD20C,1.800000*%
%ADD21R,1.500000X3.000000*%
%ADD22O,1.500000X3.000000*%
%ADD23C,1.600000*%
%ADD24O,1.600000X1.600000*%
%ADD25R,1.600000X1.600000*%
%ADD26R,1.700000X1.700000*%
%ADD27O,1.700000X1.700000*%
%ADD28R,0.550000X0.250000*%
G04 APERTURE END LIST*
D10*
X162882004Y-60334780D02*
X162882004Y-59334780D01*
X163262957Y-59334780D01*
X163358195Y-59382400D01*
X163405814Y-59430019D01*
X163453433Y-59525257D01*
X163453433Y-59668114D01*
X163405814Y-59763352D01*
X163358195Y-59810971D01*
X163262957Y-59858590D01*
X162882004Y-59858590D01*
X164024861Y-59763352D02*
X163929623Y-59715733D01*
X163882004Y-59668114D01*
X163834385Y-59572876D01*
X163834385Y-59525257D01*
X163882004Y-59430019D01*
X163929623Y-59382400D01*
X164024861Y-59334780D01*
X164215338Y-59334780D01*
X164310576Y-59382400D01*
X164358195Y-59430019D01*
X164405814Y-59525257D01*
X164405814Y-59572876D01*
X164358195Y-59668114D01*
X164310576Y-59715733D01*
X164215338Y-59763352D01*
X164024861Y-59763352D01*
X163929623Y-59810971D01*
X163882004Y-59858590D01*
X163834385Y-59953828D01*
X163834385Y-60144304D01*
X163882004Y-60239542D01*
X163929623Y-60287161D01*
X164024861Y-60334780D01*
X164215338Y-60334780D01*
X164310576Y-60287161D01*
X164358195Y-60239542D01*
X164405814Y-60144304D01*
X164405814Y-59953828D01*
X164358195Y-59858590D01*
X164310576Y-59810971D01*
X164215338Y-59763352D01*
X125477242Y-95501447D02*
X125524861Y-95549066D01*
X125572480Y-95691923D01*
X125572480Y-95787161D01*
X125524861Y-95930019D01*
X125429623Y-96025257D01*
X125334385Y-96072876D01*
X125143909Y-96120495D01*
X125001052Y-96120495D01*
X124810576Y-96072876D01*
X124715338Y-96025257D01*
X124620100Y-95930019D01*
X124572480Y-95787161D01*
X124572480Y-95691923D01*
X124620100Y-95549066D01*
X124667719Y-95501447D01*
X125572480Y-94549066D02*
X125572480Y-95120495D01*
X125572480Y-94834780D02*
X124572480Y-94834780D01*
X124715338Y-94930019D01*
X124810576Y-95025257D01*
X124858195Y-95120495D01*
X124572480Y-93930019D02*
X124572480Y-93834780D01*
X124620100Y-93739542D01*
X124667719Y-93691923D01*
X124762957Y-93644304D01*
X124953433Y-93596685D01*
X125191528Y-93596685D01*
X125382004Y-93644304D01*
X125477242Y-93691923D01*
X125524861Y-93739542D01*
X125572480Y-93834780D01*
X125572480Y-93930019D01*
X125524861Y-94025257D01*
X125477242Y-94072876D01*
X125382004Y-94120495D01*
X125191528Y-94168114D01*
X124953433Y-94168114D01*
X124762957Y-94120495D01*
X124667719Y-94072876D01*
X124620100Y-94025257D01*
X124572480Y-93930019D01*
X125572480Y-92644304D02*
X125572480Y-93215733D01*
X125572480Y-92930019D02*
X124572480Y-92930019D01*
X124715338Y-93025257D01*
X124810576Y-93120495D01*
X124858195Y-93215733D01*
X127822480Y-99668114D02*
X128536766Y-99668114D01*
X128679623Y-99715733D01*
X128774861Y-99810971D01*
X128822480Y-99953828D01*
X128822480Y-100049066D01*
X128822480Y-99191923D02*
X127822480Y-99191923D01*
X127822480Y-98810971D01*
X127870100Y-98715733D01*
X127917719Y-98668114D01*
X128012957Y-98620495D01*
X128155814Y-98620495D01*
X128251052Y-98668114D01*
X128298671Y-98715733D01*
X128346290Y-98810971D01*
X128346290Y-99191923D01*
X128822480Y-97668114D02*
X128822480Y-98239542D01*
X128822480Y-97953828D02*
X127822480Y-97953828D01*
X127965338Y-98049066D01*
X128060576Y-98144304D01*
X128108195Y-98239542D01*
X127822480Y-97049066D02*
X127822480Y-96953828D01*
X127870100Y-96858590D01*
X127917719Y-96810971D01*
X128012957Y-96763352D01*
X128203433Y-96715733D01*
X128441528Y-96715733D01*
X128632004Y-96763352D01*
X128727242Y-96810971D01*
X128774861Y-96858590D01*
X128822480Y-96953828D01*
X128822480Y-97049066D01*
X128774861Y-97144304D01*
X128727242Y-97191923D01*
X128632004Y-97239542D01*
X128441528Y-97287161D01*
X128203433Y-97287161D01*
X128012957Y-97239542D01*
X127917719Y-97191923D01*
X127870100Y-97144304D01*
X127822480Y-97049066D01*
X127822480Y-95810971D02*
X127822480Y-96287161D01*
X128298671Y-96334780D01*
X128251052Y-96287161D01*
X128203433Y-96191923D01*
X128203433Y-95953828D01*
X128251052Y-95858590D01*
X128298671Y-95810971D01*
X128393909Y-95763352D01*
X128632004Y-95763352D01*
X128727242Y-95810971D01*
X128774861Y-95858590D01*
X128822480Y-95953828D01*
X128822480Y-96191923D01*
X128774861Y-96287161D01*
X128727242Y-96334780D01*
X133822480Y-99668114D02*
X134536766Y-99668114D01*
X134679623Y-99715733D01*
X134774861Y-99810971D01*
X134822480Y-99953828D01*
X134822480Y-100049066D01*
X134822480Y-99191923D02*
X133822480Y-99191923D01*
X133822480Y-98810971D01*
X133870100Y-98715733D01*
X133917719Y-98668114D01*
X134012957Y-98620495D01*
X134155814Y-98620495D01*
X134251052Y-98668114D01*
X134298671Y-98715733D01*
X134346290Y-98810971D01*
X134346290Y-99191923D01*
X134822480Y-97668114D02*
X134822480Y-98239542D01*
X134822480Y-97953828D02*
X133822480Y-97953828D01*
X133965338Y-98049066D01*
X134060576Y-98144304D01*
X134108195Y-98239542D01*
X133822480Y-97049066D02*
X133822480Y-96953828D01*
X133870100Y-96858590D01*
X133917719Y-96810971D01*
X134012957Y-96763352D01*
X134203433Y-96715733D01*
X134441528Y-96715733D01*
X134632004Y-96763352D01*
X134727242Y-96810971D01*
X134774861Y-96858590D01*
X134822480Y-96953828D01*
X134822480Y-97049066D01*
X134774861Y-97144304D01*
X134727242Y-97191923D01*
X134632004Y-97239542D01*
X134441528Y-97287161D01*
X134203433Y-97287161D01*
X134012957Y-97239542D01*
X133917719Y-97191923D01*
X133870100Y-97144304D01*
X133822480Y-97049066D01*
X133822480Y-96382400D02*
X133822480Y-95715733D01*
X134822480Y-96144304D01*
X121384385Y-83034780D02*
X121384385Y-83749066D01*
X121336766Y-83891923D01*
X121241528Y-83987161D01*
X121098671Y-84034780D01*
X121003433Y-84034780D01*
X121860576Y-84034780D02*
X121860576Y-83034780D01*
X122241528Y-83034780D01*
X122336766Y-83082400D01*
X122384385Y-83130019D01*
X122432004Y-83225257D01*
X122432004Y-83368114D01*
X122384385Y-83463352D01*
X122336766Y-83510971D01*
X122241528Y-83558590D01*
X121860576Y-83558590D01*
X123384385Y-84034780D02*
X122812957Y-84034780D01*
X123098671Y-84034780D02*
X123098671Y-83034780D01*
X123003433Y-83177638D01*
X122908195Y-83272876D01*
X122812957Y-83320495D01*
X124003433Y-83034780D02*
X124098671Y-83034780D01*
X124193909Y-83082400D01*
X124241528Y-83130019D01*
X124289147Y-83225257D01*
X124336766Y-83415733D01*
X124336766Y-83653828D01*
X124289147Y-83844304D01*
X124241528Y-83939542D01*
X124193909Y-83987161D01*
X124098671Y-84034780D01*
X124003433Y-84034780D01*
X123908195Y-83987161D01*
X123860576Y-83939542D01*
X123812957Y-83844304D01*
X123765338Y-83653828D01*
X123765338Y-83415733D01*
X123812957Y-83225257D01*
X123860576Y-83130019D01*
X123908195Y-83082400D01*
X124003433Y-83034780D01*
X124908195Y-83463352D02*
X124812957Y-83415733D01*
X124765338Y-83368114D01*
X124717719Y-83272876D01*
X124717719Y-83225257D01*
X124765338Y-83130019D01*
X124812957Y-83082400D01*
X124908195Y-83034780D01*
X125098671Y-83034780D01*
X125193909Y-83082400D01*
X125241528Y-83130019D01*
X125289147Y-83225257D01*
X125289147Y-83272876D01*
X125241528Y-83368114D01*
X125193909Y-83415733D01*
X125098671Y-83463352D01*
X124908195Y-83463352D01*
X124812957Y-83510971D01*
X124765338Y-83558590D01*
X124717719Y-83653828D01*
X124717719Y-83844304D01*
X124765338Y-83939542D01*
X124812957Y-83987161D01*
X124908195Y-84034780D01*
X125098671Y-84034780D01*
X125193909Y-83987161D01*
X125241528Y-83939542D01*
X125289147Y-83844304D01*
X125289147Y-83653828D01*
X125241528Y-83558590D01*
X125193909Y-83510971D01*
X125098671Y-83463352D01*
X135251052Y-87034780D02*
X134917719Y-86558590D01*
X134679623Y-87034780D02*
X134679623Y-86034780D01*
X135060576Y-86034780D01*
X135155814Y-86082400D01*
X135203433Y-86130019D01*
X135251052Y-86225257D01*
X135251052Y-86368114D01*
X135203433Y-86463352D01*
X135155814Y-86510971D01*
X135060576Y-86558590D01*
X134679623Y-86558590D01*
X136203433Y-87034780D02*
X135632004Y-87034780D01*
X135917719Y-87034780D02*
X135917719Y-86034780D01*
X135822480Y-86177638D01*
X135727242Y-86272876D01*
X135632004Y-86320495D01*
X136822480Y-86034780D02*
X136917719Y-86034780D01*
X137012957Y-86082400D01*
X137060576Y-86130019D01*
X137108195Y-86225257D01*
X137155814Y-86415733D01*
X137155814Y-86653828D01*
X137108195Y-86844304D01*
X137060576Y-86939542D01*
X137012957Y-86987161D01*
X136917719Y-87034780D01*
X136822480Y-87034780D01*
X136727242Y-86987161D01*
X136679623Y-86939542D01*
X136632004Y-86844304D01*
X136584385Y-86653828D01*
X136584385Y-86415733D01*
X136632004Y-86225257D01*
X136679623Y-86130019D01*
X136727242Y-86082400D01*
X136822480Y-86034780D01*
X138108195Y-87034780D02*
X137536766Y-87034780D01*
X137822480Y-87034780D02*
X137822480Y-86034780D01*
X137727242Y-86177638D01*
X137632004Y-86272876D01*
X137536766Y-86320495D01*
X135251052Y-88334780D02*
X134917719Y-87858590D01*
X134679623Y-88334780D02*
X134679623Y-87334780D01*
X135060576Y-87334780D01*
X135155814Y-87382400D01*
X135203433Y-87430019D01*
X135251052Y-87525257D01*
X135251052Y-87668114D01*
X135203433Y-87763352D01*
X135155814Y-87810971D01*
X135060576Y-87858590D01*
X134679623Y-87858590D01*
X136203433Y-88334780D02*
X135632004Y-88334780D01*
X135917719Y-88334780D02*
X135917719Y-87334780D01*
X135822480Y-87477638D01*
X135727242Y-87572876D01*
X135632004Y-87620495D01*
X136822480Y-87334780D02*
X136917719Y-87334780D01*
X137012957Y-87382400D01*
X137060576Y-87430019D01*
X137108195Y-87525257D01*
X137155814Y-87715733D01*
X137155814Y-87953828D01*
X137108195Y-88144304D01*
X137060576Y-88239542D01*
X137012957Y-88287161D01*
X136917719Y-88334780D01*
X136822480Y-88334780D01*
X136727242Y-88287161D01*
X136679623Y-88239542D01*
X136632004Y-88144304D01*
X136584385Y-87953828D01*
X136584385Y-87715733D01*
X136632004Y-87525257D01*
X136679623Y-87430019D01*
X136727242Y-87382400D01*
X136822480Y-87334780D01*
X137536766Y-87430019D02*
X137584385Y-87382400D01*
X137679623Y-87334780D01*
X137917719Y-87334780D01*
X138012957Y-87382400D01*
X138060576Y-87430019D01*
X138108195Y-87525257D01*
X138108195Y-87620495D01*
X138060576Y-87763352D01*
X137489147Y-88334780D01*
X138108195Y-88334780D01*
X122822480Y-94501447D02*
X122346290Y-94834780D01*
X122822480Y-95072876D02*
X121822480Y-95072876D01*
X121822480Y-94691923D01*
X121870100Y-94596685D01*
X121917719Y-94549066D01*
X122012957Y-94501447D01*
X122155814Y-94501447D01*
X122251052Y-94549066D01*
X122298671Y-94596685D01*
X122346290Y-94691923D01*
X122346290Y-95072876D01*
X122822480Y-93549066D02*
X122822480Y-94120495D01*
X122822480Y-93834780D02*
X121822480Y-93834780D01*
X121965338Y-93930019D01*
X122060576Y-94025257D01*
X122108195Y-94120495D01*
X121822480Y-92930019D02*
X121822480Y-92834780D01*
X121870100Y-92739542D01*
X121917719Y-92691923D01*
X122012957Y-92644304D01*
X122203433Y-92596685D01*
X122441528Y-92596685D01*
X122632004Y-92644304D01*
X122727242Y-92691923D01*
X122774861Y-92739542D01*
X122822480Y-92834780D01*
X122822480Y-92930019D01*
X122774861Y-93025257D01*
X122727242Y-93072876D01*
X122632004Y-93120495D01*
X122441528Y-93168114D01*
X122203433Y-93168114D01*
X122012957Y-93120495D01*
X121917719Y-93072876D01*
X121870100Y-93025257D01*
X121822480Y-92930019D01*
X122155814Y-91739542D02*
X122822480Y-91739542D01*
X121774861Y-91977638D02*
X122489147Y-92215733D01*
X122489147Y-91596685D01*
X155334385Y-75287161D02*
X155477242Y-75334780D01*
X155715338Y-75334780D01*
X155810576Y-75287161D01*
X155858195Y-75239542D01*
X155905814Y-75144304D01*
X155905814Y-75049066D01*
X155858195Y-74953828D01*
X155810576Y-74906209D01*
X155715338Y-74858590D01*
X155524861Y-74810971D01*
X155429623Y-74763352D01*
X155382004Y-74715733D01*
X155334385Y-74620495D01*
X155334385Y-74525257D01*
X155382004Y-74430019D01*
X155429623Y-74382400D01*
X155524861Y-74334780D01*
X155762957Y-74334780D01*
X155905814Y-74382400D01*
X156239147Y-74334780D02*
X156477242Y-75334780D01*
X156667719Y-74620495D01*
X156858195Y-75334780D01*
X157096290Y-74334780D01*
X158001052Y-75334780D02*
X157429623Y-75334780D01*
X157715338Y-75334780D02*
X157715338Y-74334780D01*
X157620100Y-74477638D01*
X157524861Y-74572876D01*
X157429623Y-74620495D01*
X158620100Y-74334780D02*
X158715338Y-74334780D01*
X158810576Y-74382400D01*
X158858195Y-74430019D01*
X158905814Y-74525257D01*
X158953433Y-74715733D01*
X158953433Y-74953828D01*
X158905814Y-75144304D01*
X158858195Y-75239542D01*
X158810576Y-75287161D01*
X158715338Y-75334780D01*
X158620100Y-75334780D01*
X158524861Y-75287161D01*
X158477242Y-75239542D01*
X158429623Y-75144304D01*
X158382004Y-74953828D01*
X158382004Y-74715733D01*
X158429623Y-74525257D01*
X158477242Y-74430019D01*
X158524861Y-74382400D01*
X158620100Y-74334780D01*
X159905814Y-75334780D02*
X159334385Y-75334780D01*
X159620100Y-75334780D02*
X159620100Y-74334780D01*
X159524861Y-74477638D01*
X159429623Y-74572876D01*
X159334385Y-74620495D01*
X125334385Y-75287161D02*
X125477242Y-75334780D01*
X125715338Y-75334780D01*
X125810576Y-75287161D01*
X125858195Y-75239542D01*
X125905814Y-75144304D01*
X125905814Y-75049066D01*
X125858195Y-74953828D01*
X125810576Y-74906209D01*
X125715338Y-74858590D01*
X125524861Y-74810971D01*
X125429623Y-74763352D01*
X125382004Y-74715733D01*
X125334385Y-74620495D01*
X125334385Y-74525257D01*
X125382004Y-74430019D01*
X125429623Y-74382400D01*
X125524861Y-74334780D01*
X125762957Y-74334780D01*
X125905814Y-74382400D01*
X126239147Y-74334780D02*
X126477242Y-75334780D01*
X126667719Y-74620495D01*
X126858195Y-75334780D01*
X127096290Y-74334780D01*
X128001052Y-75334780D02*
X127429623Y-75334780D01*
X127715338Y-75334780D02*
X127715338Y-74334780D01*
X127620100Y-74477638D01*
X127524861Y-74572876D01*
X127429623Y-74620495D01*
X128620100Y-74334780D02*
X128715338Y-74334780D01*
X128810576Y-74382400D01*
X128858195Y-74430019D01*
X128905814Y-74525257D01*
X128953433Y-74715733D01*
X128953433Y-74953828D01*
X128905814Y-75144304D01*
X128858195Y-75239542D01*
X128810576Y-75287161D01*
X128715338Y-75334780D01*
X128620100Y-75334780D01*
X128524861Y-75287161D01*
X128477242Y-75239542D01*
X128429623Y-75144304D01*
X128382004Y-74953828D01*
X128382004Y-74715733D01*
X128429623Y-74525257D01*
X128477242Y-74430019D01*
X128524861Y-74382400D01*
X128620100Y-74334780D01*
X129334385Y-74430019D02*
X129382004Y-74382400D01*
X129477242Y-74334780D01*
X129715338Y-74334780D01*
X129810576Y-74382400D01*
X129858195Y-74430019D01*
X129905814Y-74525257D01*
X129905814Y-74620495D01*
X129858195Y-74763352D01*
X129286766Y-75334780D01*
X129905814Y-75334780D01*
X126655814Y-83334780D02*
X126655814Y-84144304D01*
X126703433Y-84239542D01*
X126751052Y-84287161D01*
X126846290Y-84334780D01*
X127036766Y-84334780D01*
X127132004Y-84287161D01*
X127179623Y-84239542D01*
X127227242Y-84144304D01*
X127227242Y-83334780D01*
X128227242Y-84334780D02*
X127655814Y-84334780D01*
X127941528Y-84334780D02*
X127941528Y-83334780D01*
X127846290Y-83477638D01*
X127751052Y-83572876D01*
X127655814Y-83620495D01*
X128846290Y-83334780D02*
X128941528Y-83334780D01*
X129036766Y-83382400D01*
X129084385Y-83430019D01*
X129132004Y-83525257D01*
X129179623Y-83715733D01*
X129179623Y-83953828D01*
X129132004Y-84144304D01*
X129084385Y-84239542D01*
X129036766Y-84287161D01*
X128941528Y-84334780D01*
X128846290Y-84334780D01*
X128751052Y-84287161D01*
X128703433Y-84239542D01*
X128655814Y-84144304D01*
X128608195Y-83953828D01*
X128608195Y-83715733D01*
X128655814Y-83525257D01*
X128703433Y-83430019D01*
X128751052Y-83382400D01*
X128846290Y-83334780D01*
X129512957Y-83334780D02*
X130132004Y-83334780D01*
X129798671Y-83715733D01*
X129941528Y-83715733D01*
X130036766Y-83763352D01*
X130084385Y-83810971D01*
X130132004Y-83906209D01*
X130132004Y-84144304D01*
X130084385Y-84239542D01*
X130036766Y-84287161D01*
X129941528Y-84334780D01*
X129655814Y-84334780D01*
X129560576Y-84287161D01*
X129512957Y-84239542D01*
X135251052Y-89634780D02*
X134917719Y-89158590D01*
X134679623Y-89634780D02*
X134679623Y-88634780D01*
X135060576Y-88634780D01*
X135155814Y-88682400D01*
X135203433Y-88730019D01*
X135251052Y-88825257D01*
X135251052Y-88968114D01*
X135203433Y-89063352D01*
X135155814Y-89110971D01*
X135060576Y-89158590D01*
X134679623Y-89158590D01*
X136203433Y-89634780D02*
X135632004Y-89634780D01*
X135917719Y-89634780D02*
X135917719Y-88634780D01*
X135822480Y-88777638D01*
X135727242Y-88872876D01*
X135632004Y-88920495D01*
X136822480Y-88634780D02*
X136917719Y-88634780D01*
X137012957Y-88682400D01*
X137060576Y-88730019D01*
X137108195Y-88825257D01*
X137155814Y-89015733D01*
X137155814Y-89253828D01*
X137108195Y-89444304D01*
X137060576Y-89539542D01*
X137012957Y-89587161D01*
X136917719Y-89634780D01*
X136822480Y-89634780D01*
X136727242Y-89587161D01*
X136679623Y-89539542D01*
X136632004Y-89444304D01*
X136584385Y-89253828D01*
X136584385Y-89015733D01*
X136632004Y-88825257D01*
X136679623Y-88730019D01*
X136727242Y-88682400D01*
X136822480Y-88634780D01*
X137489147Y-88634780D02*
X138108195Y-88634780D01*
X137774861Y-89015733D01*
X137917719Y-89015733D01*
X138012957Y-89063352D01*
X138060576Y-89110971D01*
X138108195Y-89206209D01*
X138108195Y-89444304D01*
X138060576Y-89539542D01*
X138012957Y-89587161D01*
X137917719Y-89634780D01*
X137632004Y-89634780D01*
X137536766Y-89587161D01*
X137489147Y-89539542D01*
X130822480Y-99668114D02*
X131536766Y-99668114D01*
X131679623Y-99715733D01*
X131774861Y-99810971D01*
X131822480Y-99953828D01*
X131822480Y-100049066D01*
X131822480Y-99191923D02*
X130822480Y-99191923D01*
X130822480Y-98810971D01*
X130870100Y-98715733D01*
X130917719Y-98668114D01*
X131012957Y-98620495D01*
X131155814Y-98620495D01*
X131251052Y-98668114D01*
X131298671Y-98715733D01*
X131346290Y-98810971D01*
X131346290Y-99191923D01*
X131822480Y-97668114D02*
X131822480Y-98239542D01*
X131822480Y-97953828D02*
X130822480Y-97953828D01*
X130965338Y-98049066D01*
X131060576Y-98144304D01*
X131108195Y-98239542D01*
X130822480Y-97049066D02*
X130822480Y-96953828D01*
X130870100Y-96858590D01*
X130917719Y-96810971D01*
X131012957Y-96763352D01*
X131203433Y-96715733D01*
X131441528Y-96715733D01*
X131632004Y-96763352D01*
X131727242Y-96810971D01*
X131774861Y-96858590D01*
X131822480Y-96953828D01*
X131822480Y-97049066D01*
X131774861Y-97144304D01*
X131727242Y-97191923D01*
X131632004Y-97239542D01*
X131441528Y-97287161D01*
X131203433Y-97287161D01*
X131012957Y-97239542D01*
X130917719Y-97191923D01*
X130870100Y-97144304D01*
X130822480Y-97049066D01*
X130822480Y-95858590D02*
X130822480Y-96049066D01*
X130870100Y-96144304D01*
X130917719Y-96191923D01*
X131060576Y-96287161D01*
X131251052Y-96334780D01*
X131632004Y-96334780D01*
X131727242Y-96287161D01*
X131774861Y-96239542D01*
X131822480Y-96144304D01*
X131822480Y-95953828D01*
X131774861Y-95858590D01*
X131727242Y-95810971D01*
X131632004Y-95763352D01*
X131393909Y-95763352D01*
X131298671Y-95810971D01*
X131251052Y-95858590D01*
X131203433Y-95953828D01*
X131203433Y-96144304D01*
X131251052Y-96239542D01*
X131298671Y-96287161D01*
X131393909Y-96334780D01*
X118834385Y-58584780D02*
X118834385Y-59299066D01*
X118786766Y-59441923D01*
X118691528Y-59537161D01*
X118548671Y-59584780D01*
X118453433Y-59584780D01*
X119834385Y-59584780D02*
X119262957Y-59584780D01*
X119548671Y-59584780D02*
X119548671Y-58584780D01*
X119453433Y-58727638D01*
X119358195Y-58822876D01*
X119262957Y-58870495D01*
X120453433Y-58584780D02*
X120548671Y-58584780D01*
X120643909Y-58632400D01*
X120691528Y-58680019D01*
X120739147Y-58775257D01*
X120786766Y-58965733D01*
X120786766Y-59203828D01*
X120739147Y-59394304D01*
X120691528Y-59489542D01*
X120643909Y-59537161D01*
X120548671Y-59584780D01*
X120453433Y-59584780D01*
X120358195Y-59537161D01*
X120310576Y-59489542D01*
X120262957Y-59394304D01*
X120215338Y-59203828D01*
X120215338Y-58965733D01*
X120262957Y-58775257D01*
X120310576Y-58680019D01*
X120358195Y-58632400D01*
X120453433Y-58584780D01*
X121167719Y-58680019D02*
X121215338Y-58632400D01*
X121310576Y-58584780D01*
X121548671Y-58584780D01*
X121643909Y-58632400D01*
X121691528Y-58680019D01*
X121739147Y-58775257D01*
X121739147Y-58870495D01*
X121691528Y-59013352D01*
X121120100Y-59584780D01*
X121739147Y-59584780D01*
X126905814Y-59584780D02*
X126905814Y-60394304D01*
X126953433Y-60489542D01*
X127001052Y-60537161D01*
X127096290Y-60584780D01*
X127286766Y-60584780D01*
X127382004Y-60537161D01*
X127429623Y-60489542D01*
X127477242Y-60394304D01*
X127477242Y-59584780D01*
X128477242Y-60584780D02*
X127905814Y-60584780D01*
X128191528Y-60584780D02*
X128191528Y-59584780D01*
X128096290Y-59727638D01*
X128001052Y-59822876D01*
X127905814Y-59870495D01*
X129096290Y-59584780D02*
X129191528Y-59584780D01*
X129286766Y-59632400D01*
X129334385Y-59680019D01*
X129382004Y-59775257D01*
X129429623Y-59965733D01*
X129429623Y-60203828D01*
X129382004Y-60394304D01*
X129334385Y-60489542D01*
X129286766Y-60537161D01*
X129191528Y-60584780D01*
X129096290Y-60584780D01*
X129001052Y-60537161D01*
X128953433Y-60489542D01*
X128905814Y-60394304D01*
X128858195Y-60203828D01*
X128858195Y-59965733D01*
X128905814Y-59775257D01*
X128953433Y-59680019D01*
X129001052Y-59632400D01*
X129096290Y-59584780D01*
X130286766Y-59918114D02*
X130286766Y-60584780D01*
X130048671Y-59537161D02*
X129810576Y-60251447D01*
X130429623Y-60251447D01*
X124849623Y-45084780D02*
X124849623Y-44084780D01*
X125087719Y-44084780D01*
X125230576Y-44132400D01*
X125325814Y-44227638D01*
X125373433Y-44322876D01*
X125421052Y-44513352D01*
X125421052Y-44656209D01*
X125373433Y-44846685D01*
X125325814Y-44941923D01*
X125230576Y-45037161D01*
X125087719Y-45084780D01*
X124849623Y-45084780D01*
X126373433Y-45084780D02*
X125802004Y-45084780D01*
X126087719Y-45084780D02*
X126087719Y-44084780D01*
X125992480Y-44227638D01*
X125897242Y-44322876D01*
X125802004Y-44370495D01*
X127325814Y-45084780D02*
X126754385Y-45084780D01*
X127040100Y-45084780D02*
X127040100Y-44084780D01*
X126944861Y-44227638D01*
X126849623Y-44322876D01*
X126754385Y-44370495D01*
X128182957Y-44418114D02*
X128182957Y-45084780D01*
X127944861Y-44037161D02*
X127706766Y-44751447D01*
X128325814Y-44751447D01*
X131358195Y-49684780D02*
X131358195Y-48684780D01*
X131929623Y-49684780D02*
X131501052Y-49113352D01*
X131929623Y-48684780D02*
X131358195Y-49256209D01*
X133679623Y-65584780D02*
X133679623Y-64584780D01*
X133917719Y-64584780D01*
X134060576Y-64632400D01*
X134155814Y-64727638D01*
X134203433Y-64822876D01*
X134251052Y-65013352D01*
X134251052Y-65156209D01*
X134203433Y-65346685D01*
X134155814Y-65441923D01*
X134060576Y-65537161D01*
X133917719Y-65584780D01*
X133679623Y-65584780D01*
X135203433Y-65584780D02*
X134632004Y-65584780D01*
X134917719Y-65584780D02*
X134917719Y-64584780D01*
X134822480Y-64727638D01*
X134727242Y-64822876D01*
X134632004Y-64870495D01*
X135822480Y-64584780D02*
X135917719Y-64584780D01*
X136012957Y-64632400D01*
X136060576Y-64680019D01*
X136108195Y-64775257D01*
X136155814Y-64965733D01*
X136155814Y-65203828D01*
X136108195Y-65394304D01*
X136060576Y-65489542D01*
X136012957Y-65537161D01*
X135917719Y-65584780D01*
X135822480Y-65584780D01*
X135727242Y-65537161D01*
X135679623Y-65489542D01*
X135632004Y-65394304D01*
X135584385Y-65203828D01*
X135584385Y-64965733D01*
X135632004Y-64775257D01*
X135679623Y-64680019D01*
X135727242Y-64632400D01*
X135822480Y-64584780D01*
X137108195Y-65584780D02*
X136536766Y-65584780D01*
X136822480Y-65584780D02*
X136822480Y-64584780D01*
X136727242Y-64727638D01*
X136632004Y-64822876D01*
X136536766Y-64870495D01*
X138679623Y-65584780D02*
X138679623Y-64584780D01*
X138917719Y-64584780D01*
X139060576Y-64632400D01*
X139155814Y-64727638D01*
X139203433Y-64822876D01*
X139251052Y-65013352D01*
X139251052Y-65156209D01*
X139203433Y-65346685D01*
X139155814Y-65441923D01*
X139060576Y-65537161D01*
X138917719Y-65584780D01*
X138679623Y-65584780D01*
X140203433Y-65584780D02*
X139632004Y-65584780D01*
X139917719Y-65584780D02*
X139917719Y-64584780D01*
X139822480Y-64727638D01*
X139727242Y-64822876D01*
X139632004Y-64870495D01*
X140822480Y-64584780D02*
X140917719Y-64584780D01*
X141012957Y-64632400D01*
X141060576Y-64680019D01*
X141108195Y-64775257D01*
X141155814Y-64965733D01*
X141155814Y-65203828D01*
X141108195Y-65394304D01*
X141060576Y-65489542D01*
X141012957Y-65537161D01*
X140917719Y-65584780D01*
X140822480Y-65584780D01*
X140727242Y-65537161D01*
X140679623Y-65489542D01*
X140632004Y-65394304D01*
X140584385Y-65203828D01*
X140584385Y-64965733D01*
X140632004Y-64775257D01*
X140679623Y-64680019D01*
X140727242Y-64632400D01*
X140822480Y-64584780D01*
X141536766Y-64680019D02*
X141584385Y-64632400D01*
X141679623Y-64584780D01*
X141917719Y-64584780D01*
X142012957Y-64632400D01*
X142060576Y-64680019D01*
X142108195Y-64775257D01*
X142108195Y-64870495D01*
X142060576Y-65013352D01*
X141489147Y-65584780D01*
X142108195Y-65584780D01*
X143679623Y-65584780D02*
X143679623Y-64584780D01*
X143917719Y-64584780D01*
X144060576Y-64632400D01*
X144155814Y-64727638D01*
X144203433Y-64822876D01*
X144251052Y-65013352D01*
X144251052Y-65156209D01*
X144203433Y-65346685D01*
X144155814Y-65441923D01*
X144060576Y-65537161D01*
X143917719Y-65584780D01*
X143679623Y-65584780D01*
X145203433Y-65584780D02*
X144632004Y-65584780D01*
X144917719Y-65584780D02*
X144917719Y-64584780D01*
X144822480Y-64727638D01*
X144727242Y-64822876D01*
X144632004Y-64870495D01*
X145822480Y-64584780D02*
X145917719Y-64584780D01*
X146012957Y-64632400D01*
X146060576Y-64680019D01*
X146108195Y-64775257D01*
X146155814Y-64965733D01*
X146155814Y-65203828D01*
X146108195Y-65394304D01*
X146060576Y-65489542D01*
X146012957Y-65537161D01*
X145917719Y-65584780D01*
X145822480Y-65584780D01*
X145727242Y-65537161D01*
X145679623Y-65489542D01*
X145632004Y-65394304D01*
X145584385Y-65203828D01*
X145584385Y-64965733D01*
X145632004Y-64775257D01*
X145679623Y-64680019D01*
X145727242Y-64632400D01*
X145822480Y-64584780D01*
X146489147Y-64584780D02*
X147108195Y-64584780D01*
X146774861Y-64965733D01*
X146917719Y-64965733D01*
X147012957Y-65013352D01*
X147060576Y-65060971D01*
X147108195Y-65156209D01*
X147108195Y-65394304D01*
X147060576Y-65489542D01*
X147012957Y-65537161D01*
X146917719Y-65584780D01*
X146632004Y-65584780D01*
X146536766Y-65537161D01*
X146489147Y-65489542D01*
X148679623Y-65584780D02*
X148679623Y-64584780D01*
X148917719Y-64584780D01*
X149060576Y-64632400D01*
X149155814Y-64727638D01*
X149203433Y-64822876D01*
X149251052Y-65013352D01*
X149251052Y-65156209D01*
X149203433Y-65346685D01*
X149155814Y-65441923D01*
X149060576Y-65537161D01*
X148917719Y-65584780D01*
X148679623Y-65584780D01*
X150203433Y-65584780D02*
X149632004Y-65584780D01*
X149917719Y-65584780D02*
X149917719Y-64584780D01*
X149822480Y-64727638D01*
X149727242Y-64822876D01*
X149632004Y-64870495D01*
X150822480Y-64584780D02*
X150917719Y-64584780D01*
X151012957Y-64632400D01*
X151060576Y-64680019D01*
X151108195Y-64775257D01*
X151155814Y-64965733D01*
X151155814Y-65203828D01*
X151108195Y-65394304D01*
X151060576Y-65489542D01*
X151012957Y-65537161D01*
X150917719Y-65584780D01*
X150822480Y-65584780D01*
X150727242Y-65537161D01*
X150679623Y-65489542D01*
X150632004Y-65394304D01*
X150584385Y-65203828D01*
X150584385Y-64965733D01*
X150632004Y-64775257D01*
X150679623Y-64680019D01*
X150727242Y-64632400D01*
X150822480Y-64584780D01*
X152012957Y-64918114D02*
X152012957Y-65584780D01*
X151774861Y-64537161D02*
X151536766Y-65251447D01*
X152155814Y-65251447D01*
X125084385Y-112434780D02*
X125084385Y-113149066D01*
X125036766Y-113291923D01*
X124941528Y-113387161D01*
X124798671Y-113434780D01*
X124703433Y-113434780D01*
X126084385Y-113434780D02*
X125512957Y-113434780D01*
X125798671Y-113434780D02*
X125798671Y-112434780D01*
X125703433Y-112577638D01*
X125608195Y-112672876D01*
X125512957Y-112720495D01*
X126703433Y-112434780D02*
X126798671Y-112434780D01*
X126893909Y-112482400D01*
X126941528Y-112530019D01*
X126989147Y-112625257D01*
X127036766Y-112815733D01*
X127036766Y-113053828D01*
X126989147Y-113244304D01*
X126941528Y-113339542D01*
X126893909Y-113387161D01*
X126798671Y-113434780D01*
X126703433Y-113434780D01*
X126608195Y-113387161D01*
X126560576Y-113339542D01*
X126512957Y-113244304D01*
X126465338Y-113053828D01*
X126465338Y-112815733D01*
X126512957Y-112625257D01*
X126560576Y-112530019D01*
X126608195Y-112482400D01*
X126703433Y-112434780D01*
X127989147Y-113434780D02*
X127417719Y-113434780D01*
X127703433Y-113434780D02*
X127703433Y-112434780D01*
X127608195Y-112577638D01*
X127512957Y-112672876D01*
X127417719Y-112720495D01*
X142084385Y-112434780D02*
X142084385Y-113149066D01*
X142036766Y-113291923D01*
X141941528Y-113387161D01*
X141798671Y-113434780D01*
X141703433Y-113434780D01*
X143084385Y-113434780D02*
X142512957Y-113434780D01*
X142798671Y-113434780D02*
X142798671Y-112434780D01*
X142703433Y-112577638D01*
X142608195Y-112672876D01*
X142512957Y-112720495D01*
X143703433Y-112434780D02*
X143798671Y-112434780D01*
X143893909Y-112482400D01*
X143941528Y-112530019D01*
X143989147Y-112625257D01*
X144036766Y-112815733D01*
X144036766Y-113053828D01*
X143989147Y-113244304D01*
X143941528Y-113339542D01*
X143893909Y-113387161D01*
X143798671Y-113434780D01*
X143703433Y-113434780D01*
X143608195Y-113387161D01*
X143560576Y-113339542D01*
X143512957Y-113244304D01*
X143465338Y-113053828D01*
X143465338Y-112815733D01*
X143512957Y-112625257D01*
X143560576Y-112530019D01*
X143608195Y-112482400D01*
X143703433Y-112434780D01*
X144370100Y-112434780D02*
X144989147Y-112434780D01*
X144655814Y-112815733D01*
X144798671Y-112815733D01*
X144893909Y-112863352D01*
X144941528Y-112910971D01*
X144989147Y-113006209D01*
X144989147Y-113244304D01*
X144941528Y-113339542D01*
X144893909Y-113387161D01*
X144798671Y-113434780D01*
X144512957Y-113434780D01*
X144417719Y-113387161D01*
X144370100Y-113339542D01*
X135822480Y-77311447D02*
X135346290Y-77644780D01*
X135822480Y-77882876D02*
X134822480Y-77882876D01*
X134822480Y-77501923D01*
X134870100Y-77406685D01*
X134917719Y-77359066D01*
X135012957Y-77311447D01*
X135155814Y-77311447D01*
X135251052Y-77359066D01*
X135298671Y-77406685D01*
X135346290Y-77501923D01*
X135346290Y-77882876D01*
X135822480Y-76359066D02*
X135822480Y-76930495D01*
X135822480Y-76644780D02*
X134822480Y-76644780D01*
X134965338Y-76740019D01*
X135060576Y-76835257D01*
X135108195Y-76930495D01*
X134822480Y-75740019D02*
X134822480Y-75644780D01*
X134870100Y-75549542D01*
X134917719Y-75501923D01*
X135012957Y-75454304D01*
X135203433Y-75406685D01*
X135441528Y-75406685D01*
X135632004Y-75454304D01*
X135727242Y-75501923D01*
X135774861Y-75549542D01*
X135822480Y-75644780D01*
X135822480Y-75740019D01*
X135774861Y-75835257D01*
X135727242Y-75882876D01*
X135632004Y-75930495D01*
X135441528Y-75978114D01*
X135203433Y-75978114D01*
X135012957Y-75930495D01*
X134917719Y-75882876D01*
X134870100Y-75835257D01*
X134822480Y-75740019D01*
X134822480Y-74501923D02*
X134822480Y-74978114D01*
X135298671Y-75025733D01*
X135251052Y-74978114D01*
X135203433Y-74882876D01*
X135203433Y-74644780D01*
X135251052Y-74549542D01*
X135298671Y-74501923D01*
X135393909Y-74454304D01*
X135632004Y-74454304D01*
X135727242Y-74501923D01*
X135774861Y-74549542D01*
X135822480Y-74644780D01*
X135822480Y-74882876D01*
X135774861Y-74978114D01*
X135727242Y-75025733D01*
X140822480Y-77311447D02*
X140346290Y-77644780D01*
X140822480Y-77882876D02*
X139822480Y-77882876D01*
X139822480Y-77501923D01*
X139870100Y-77406685D01*
X139917719Y-77359066D01*
X140012957Y-77311447D01*
X140155814Y-77311447D01*
X140251052Y-77359066D01*
X140298671Y-77406685D01*
X140346290Y-77501923D01*
X140346290Y-77882876D01*
X140822480Y-76359066D02*
X140822480Y-76930495D01*
X140822480Y-76644780D02*
X139822480Y-76644780D01*
X139965338Y-76740019D01*
X140060576Y-76835257D01*
X140108195Y-76930495D01*
X139822480Y-75740019D02*
X139822480Y-75644780D01*
X139870100Y-75549542D01*
X139917719Y-75501923D01*
X140012957Y-75454304D01*
X140203433Y-75406685D01*
X140441528Y-75406685D01*
X140632004Y-75454304D01*
X140727242Y-75501923D01*
X140774861Y-75549542D01*
X140822480Y-75644780D01*
X140822480Y-75740019D01*
X140774861Y-75835257D01*
X140727242Y-75882876D01*
X140632004Y-75930495D01*
X140441528Y-75978114D01*
X140203433Y-75978114D01*
X140012957Y-75930495D01*
X139917719Y-75882876D01*
X139870100Y-75835257D01*
X139822480Y-75740019D01*
X139822480Y-74549542D02*
X139822480Y-74740019D01*
X139870100Y-74835257D01*
X139917719Y-74882876D01*
X140060576Y-74978114D01*
X140251052Y-75025733D01*
X140632004Y-75025733D01*
X140727242Y-74978114D01*
X140774861Y-74930495D01*
X140822480Y-74835257D01*
X140822480Y-74644780D01*
X140774861Y-74549542D01*
X140727242Y-74501923D01*
X140632004Y-74454304D01*
X140393909Y-74454304D01*
X140298671Y-74501923D01*
X140251052Y-74549542D01*
X140203433Y-74644780D01*
X140203433Y-74835257D01*
X140251052Y-74930495D01*
X140298671Y-74978114D01*
X140393909Y-75025733D01*
X145822480Y-77311447D02*
X145346290Y-77644780D01*
X145822480Y-77882876D02*
X144822480Y-77882876D01*
X144822480Y-77501923D01*
X144870100Y-77406685D01*
X144917719Y-77359066D01*
X145012957Y-77311447D01*
X145155814Y-77311447D01*
X145251052Y-77359066D01*
X145298671Y-77406685D01*
X145346290Y-77501923D01*
X145346290Y-77882876D01*
X145822480Y-76359066D02*
X145822480Y-76930495D01*
X145822480Y-76644780D02*
X144822480Y-76644780D01*
X144965338Y-76740019D01*
X145060576Y-76835257D01*
X145108195Y-76930495D01*
X144822480Y-75740019D02*
X144822480Y-75644780D01*
X144870100Y-75549542D01*
X144917719Y-75501923D01*
X145012957Y-75454304D01*
X145203433Y-75406685D01*
X145441528Y-75406685D01*
X145632004Y-75454304D01*
X145727242Y-75501923D01*
X145774861Y-75549542D01*
X145822480Y-75644780D01*
X145822480Y-75740019D01*
X145774861Y-75835257D01*
X145727242Y-75882876D01*
X145632004Y-75930495D01*
X145441528Y-75978114D01*
X145203433Y-75978114D01*
X145012957Y-75930495D01*
X144917719Y-75882876D01*
X144870100Y-75835257D01*
X144822480Y-75740019D01*
X144822480Y-75073352D02*
X144822480Y-74406685D01*
X145822480Y-74835257D01*
X150822480Y-77311447D02*
X150346290Y-77644780D01*
X150822480Y-77882876D02*
X149822480Y-77882876D01*
X149822480Y-77501923D01*
X149870100Y-77406685D01*
X149917719Y-77359066D01*
X150012957Y-77311447D01*
X150155814Y-77311447D01*
X150251052Y-77359066D01*
X150298671Y-77406685D01*
X150346290Y-77501923D01*
X150346290Y-77882876D01*
X150822480Y-76359066D02*
X150822480Y-76930495D01*
X150822480Y-76644780D02*
X149822480Y-76644780D01*
X149965338Y-76740019D01*
X150060576Y-76835257D01*
X150108195Y-76930495D01*
X149822480Y-75740019D02*
X149822480Y-75644780D01*
X149870100Y-75549542D01*
X149917719Y-75501923D01*
X150012957Y-75454304D01*
X150203433Y-75406685D01*
X150441528Y-75406685D01*
X150632004Y-75454304D01*
X150727242Y-75501923D01*
X150774861Y-75549542D01*
X150822480Y-75644780D01*
X150822480Y-75740019D01*
X150774861Y-75835257D01*
X150727242Y-75882876D01*
X150632004Y-75930495D01*
X150441528Y-75978114D01*
X150203433Y-75978114D01*
X150012957Y-75930495D01*
X149917719Y-75882876D01*
X149870100Y-75835257D01*
X149822480Y-75740019D01*
X150251052Y-74835257D02*
X150203433Y-74930495D01*
X150155814Y-74978114D01*
X150060576Y-75025733D01*
X150012957Y-75025733D01*
X149917719Y-74978114D01*
X149870100Y-74930495D01*
X149822480Y-74835257D01*
X149822480Y-74644780D01*
X149870100Y-74549542D01*
X149917719Y-74501923D01*
X150012957Y-74454304D01*
X150060576Y-74454304D01*
X150155814Y-74501923D01*
X150203433Y-74549542D01*
X150251052Y-74644780D01*
X150251052Y-74835257D01*
X150298671Y-74930495D01*
X150346290Y-74978114D01*
X150441528Y-75025733D01*
X150632004Y-75025733D01*
X150727242Y-74978114D01*
X150774861Y-74930495D01*
X150822480Y-74835257D01*
X150822480Y-74644780D01*
X150774861Y-74549542D01*
X150727242Y-74501923D01*
X150632004Y-74454304D01*
X150441528Y-74454304D01*
X150346290Y-74501923D01*
X150298671Y-74549542D01*
X150251052Y-74644780D01*
X138322480Y-94311447D02*
X137846290Y-94644780D01*
X138322480Y-94882876D02*
X137322480Y-94882876D01*
X137322480Y-94501923D01*
X137370100Y-94406685D01*
X137417719Y-94359066D01*
X137512957Y-94311447D01*
X137655814Y-94311447D01*
X137751052Y-94359066D01*
X137798671Y-94406685D01*
X137846290Y-94501923D01*
X137846290Y-94882876D01*
X138322480Y-93359066D02*
X138322480Y-93930495D01*
X138322480Y-93644780D02*
X137322480Y-93644780D01*
X137465338Y-93740019D01*
X137560576Y-93835257D01*
X137608195Y-93930495D01*
X137322480Y-92740019D02*
X137322480Y-92644780D01*
X137370100Y-92549542D01*
X137417719Y-92501923D01*
X137512957Y-92454304D01*
X137703433Y-92406685D01*
X137941528Y-92406685D01*
X138132004Y-92454304D01*
X138227242Y-92501923D01*
X138274861Y-92549542D01*
X138322480Y-92644780D01*
X138322480Y-92740019D01*
X138274861Y-92835257D01*
X138227242Y-92882876D01*
X138132004Y-92930495D01*
X137941528Y-92978114D01*
X137703433Y-92978114D01*
X137512957Y-92930495D01*
X137417719Y-92882876D01*
X137370100Y-92835257D01*
X137322480Y-92740019D01*
X138322480Y-91930495D02*
X138322480Y-91740019D01*
X138274861Y-91644780D01*
X138227242Y-91597161D01*
X138084385Y-91501923D01*
X137893909Y-91454304D01*
X137512957Y-91454304D01*
X137417719Y-91501923D01*
X137370100Y-91549542D01*
X137322480Y-91644780D01*
X137322480Y-91835257D01*
X137370100Y-91930495D01*
X137417719Y-91978114D01*
X137512957Y-92025733D01*
X137751052Y-92025733D01*
X137846290Y-91978114D01*
X137893909Y-91930495D01*
X137941528Y-91835257D01*
X137941528Y-91644780D01*
X137893909Y-91549542D01*
X137846290Y-91501923D01*
X137751052Y-91454304D01*
X147192480Y-94311447D02*
X146716290Y-94644780D01*
X147192480Y-94882876D02*
X146192480Y-94882876D01*
X146192480Y-94501923D01*
X146240100Y-94406685D01*
X146287719Y-94359066D01*
X146382957Y-94311447D01*
X146525814Y-94311447D01*
X146621052Y-94359066D01*
X146668671Y-94406685D01*
X146716290Y-94501923D01*
X146716290Y-94882876D01*
X147192480Y-93359066D02*
X147192480Y-93930495D01*
X147192480Y-93644780D02*
X146192480Y-93644780D01*
X146335338Y-93740019D01*
X146430576Y-93835257D01*
X146478195Y-93930495D01*
X147192480Y-92406685D02*
X147192480Y-92978114D01*
X147192480Y-92692400D02*
X146192480Y-92692400D01*
X146335338Y-92787638D01*
X146430576Y-92882876D01*
X146478195Y-92978114D01*
X146192480Y-91787638D02*
X146192480Y-91692400D01*
X146240100Y-91597161D01*
X146287719Y-91549542D01*
X146382957Y-91501923D01*
X146573433Y-91454304D01*
X146811528Y-91454304D01*
X147002004Y-91501923D01*
X147097242Y-91549542D01*
X147144861Y-91597161D01*
X147192480Y-91692400D01*
X147192480Y-91787638D01*
X147144861Y-91882876D01*
X147097242Y-91930495D01*
X147002004Y-91978114D01*
X146811528Y-92025733D01*
X146573433Y-92025733D01*
X146382957Y-91978114D01*
X146287719Y-91930495D01*
X146240100Y-91882876D01*
X146192480Y-91787638D01*
X132061052Y-109464780D02*
X131727719Y-108988590D01*
X131489623Y-109464780D02*
X131489623Y-108464780D01*
X131870576Y-108464780D01*
X131965814Y-108512400D01*
X132013433Y-108560019D01*
X132061052Y-108655257D01*
X132061052Y-108798114D01*
X132013433Y-108893352D01*
X131965814Y-108940971D01*
X131870576Y-108988590D01*
X131489623Y-108988590D01*
X133013433Y-109464780D02*
X132442004Y-109464780D01*
X132727719Y-109464780D02*
X132727719Y-108464780D01*
X132632480Y-108607638D01*
X132537242Y-108702876D01*
X132442004Y-108750495D01*
X133965814Y-109464780D02*
X133394385Y-109464780D01*
X133680100Y-109464780D02*
X133680100Y-108464780D01*
X133584861Y-108607638D01*
X133489623Y-108702876D01*
X133394385Y-108750495D01*
X134918195Y-109464780D02*
X134346766Y-109464780D01*
X134632480Y-109464780D02*
X134632480Y-108464780D01*
X134537242Y-108607638D01*
X134442004Y-108702876D01*
X134346766Y-108750495D01*
X149061052Y-109464780D02*
X148727719Y-108988590D01*
X148489623Y-109464780D02*
X148489623Y-108464780D01*
X148870576Y-108464780D01*
X148965814Y-108512400D01*
X149013433Y-108560019D01*
X149061052Y-108655257D01*
X149061052Y-108798114D01*
X149013433Y-108893352D01*
X148965814Y-108940971D01*
X148870576Y-108988590D01*
X148489623Y-108988590D01*
X150013433Y-109464780D02*
X149442004Y-109464780D01*
X149727719Y-109464780D02*
X149727719Y-108464780D01*
X149632480Y-108607638D01*
X149537242Y-108702876D01*
X149442004Y-108750495D01*
X150965814Y-109464780D02*
X150394385Y-109464780D01*
X150680100Y-109464780D02*
X150680100Y-108464780D01*
X150584861Y-108607638D01*
X150489623Y-108702876D01*
X150394385Y-108750495D01*
X151346766Y-108560019D02*
X151394385Y-108512400D01*
X151489623Y-108464780D01*
X151727719Y-108464780D01*
X151822957Y-108512400D01*
X151870576Y-108560019D01*
X151918195Y-108655257D01*
X151918195Y-108750495D01*
X151870576Y-108893352D01*
X151299147Y-109464780D01*
X151918195Y-109464780D01*
X160572480Y-53168114D02*
X161286766Y-53168114D01*
X161429623Y-53215733D01*
X161524861Y-53310971D01*
X161572480Y-53453828D01*
X161572480Y-53549066D01*
X161572480Y-52168114D02*
X161572480Y-52739542D01*
X161572480Y-52453828D02*
X160572480Y-52453828D01*
X160715338Y-52549066D01*
X160810576Y-52644304D01*
X160858195Y-52739542D01*
X160572480Y-51549066D02*
X160572480Y-51453828D01*
X160620100Y-51358590D01*
X160667719Y-51310971D01*
X160762957Y-51263352D01*
X160953433Y-51215733D01*
X161191528Y-51215733D01*
X161382004Y-51263352D01*
X161477242Y-51310971D01*
X161524861Y-51358590D01*
X161572480Y-51453828D01*
X161572480Y-51549066D01*
X161524861Y-51644304D01*
X161477242Y-51691923D01*
X161382004Y-51739542D01*
X161191528Y-51787161D01*
X160953433Y-51787161D01*
X160762957Y-51739542D01*
X160667719Y-51691923D01*
X160620100Y-51644304D01*
X160572480Y-51549066D01*
X160572480Y-50310971D02*
X160572480Y-50787161D01*
X161048671Y-50834780D01*
X161001052Y-50787161D01*
X160953433Y-50691923D01*
X160953433Y-50453828D01*
X161001052Y-50358590D01*
X161048671Y-50310971D01*
X161143909Y-50263352D01*
X161382004Y-50263352D01*
X161477242Y-50310971D01*
X161524861Y-50358590D01*
X161572480Y-50453828D01*
X161572480Y-50691923D01*
X161524861Y-50787161D01*
X161477242Y-50834780D01*
X135492480Y-105286685D02*
X136302004Y-105286685D01*
X136397242Y-105239066D01*
X136444861Y-105191447D01*
X136492480Y-105096209D01*
X136492480Y-104905733D01*
X136444861Y-104810495D01*
X136397242Y-104762876D01*
X136302004Y-104715257D01*
X135492480Y-104715257D01*
X136492480Y-103715257D02*
X136492480Y-104286685D01*
X136492480Y-104000971D02*
X135492480Y-104000971D01*
X135635338Y-104096209D01*
X135730576Y-104191447D01*
X135778195Y-104286685D01*
X135492480Y-103096209D02*
X135492480Y-103000971D01*
X135540100Y-102905733D01*
X135587719Y-102858114D01*
X135682957Y-102810495D01*
X135873433Y-102762876D01*
X136111528Y-102762876D01*
X136302004Y-102810495D01*
X136397242Y-102858114D01*
X136444861Y-102905733D01*
X136492480Y-103000971D01*
X136492480Y-103096209D01*
X136444861Y-103191447D01*
X136397242Y-103239066D01*
X136302004Y-103286685D01*
X136111528Y-103334304D01*
X135873433Y-103334304D01*
X135682957Y-103286685D01*
X135587719Y-103239066D01*
X135540100Y-103191447D01*
X135492480Y-103096209D01*
X136492480Y-101810495D02*
X136492480Y-102381923D01*
X136492480Y-102096209D02*
X135492480Y-102096209D01*
X135635338Y-102191447D01*
X135730576Y-102286685D01*
X135778195Y-102381923D01*
X114882004Y-60234780D02*
X114882004Y-59234780D01*
X115262957Y-59234780D01*
X115358195Y-59282400D01*
X115405814Y-59330019D01*
X115453433Y-59425257D01*
X115453433Y-59568114D01*
X115405814Y-59663352D01*
X115358195Y-59710971D01*
X115262957Y-59758590D01*
X114882004Y-59758590D01*
X115929623Y-60234780D02*
X116120100Y-60234780D01*
X116215338Y-60187161D01*
X116262957Y-60139542D01*
X116358195Y-59996685D01*
X116405814Y-59806209D01*
X116405814Y-59425257D01*
X116358195Y-59330019D01*
X116310576Y-59282400D01*
X116215338Y-59234780D01*
X116024861Y-59234780D01*
X115929623Y-59282400D01*
X115882004Y-59330019D01*
X115834385Y-59425257D01*
X115834385Y-59663352D01*
X115882004Y-59758590D01*
X115929623Y-59806209D01*
X116024861Y-59853828D01*
X116215338Y-59853828D01*
X116310576Y-59806209D01*
X116358195Y-59758590D01*
X116405814Y-59663352D01*
X160572480Y-58168114D02*
X161286766Y-58168114D01*
X161429623Y-58215733D01*
X161524861Y-58310971D01*
X161572480Y-58453828D01*
X161572480Y-58549066D01*
X161572480Y-57168114D02*
X161572480Y-57739542D01*
X161572480Y-57453828D02*
X160572480Y-57453828D01*
X160715338Y-57549066D01*
X160810576Y-57644304D01*
X160858195Y-57739542D01*
X160572480Y-56549066D02*
X160572480Y-56453828D01*
X160620100Y-56358590D01*
X160667719Y-56310971D01*
X160762957Y-56263352D01*
X160953433Y-56215733D01*
X161191528Y-56215733D01*
X161382004Y-56263352D01*
X161477242Y-56310971D01*
X161524861Y-56358590D01*
X161572480Y-56453828D01*
X161572480Y-56549066D01*
X161524861Y-56644304D01*
X161477242Y-56691923D01*
X161382004Y-56739542D01*
X161191528Y-56787161D01*
X160953433Y-56787161D01*
X160762957Y-56739542D01*
X160667719Y-56691923D01*
X160620100Y-56644304D01*
X160572480Y-56549066D01*
X160905814Y-55358590D02*
X161572480Y-55358590D01*
X160524861Y-55596685D02*
X161239147Y-55834780D01*
X161239147Y-55215733D01*
X159751052Y-82084780D02*
X159417719Y-81608590D01*
X159179623Y-82084780D02*
X159179623Y-81084780D01*
X159560576Y-81084780D01*
X159655814Y-81132400D01*
X159703433Y-81180019D01*
X159751052Y-81275257D01*
X159751052Y-81418114D01*
X159703433Y-81513352D01*
X159655814Y-81560971D01*
X159560576Y-81608590D01*
X159179623Y-81608590D01*
X160703433Y-82084780D02*
X160132004Y-82084780D01*
X160417719Y-82084780D02*
X160417719Y-81084780D01*
X160322480Y-81227638D01*
X160227242Y-81322876D01*
X160132004Y-81370495D01*
X161655814Y-82084780D02*
X161084385Y-82084780D01*
X161370100Y-82084780D02*
X161370100Y-81084780D01*
X161274861Y-81227638D01*
X161179623Y-81322876D01*
X161084385Y-81370495D01*
X161989147Y-81084780D02*
X162608195Y-81084780D01*
X162274861Y-81465733D01*
X162417719Y-81465733D01*
X162512957Y-81513352D01*
X162560576Y-81560971D01*
X162608195Y-81656209D01*
X162608195Y-81894304D01*
X162560576Y-81989542D01*
X162512957Y-82037161D01*
X162417719Y-82084780D01*
X162132004Y-82084780D01*
X162036766Y-82037161D01*
X161989147Y-81989542D01*
X132152480Y-79168114D02*
X132866766Y-79168114D01*
X133009623Y-79215733D01*
X133104861Y-79310971D01*
X133152480Y-79453828D01*
X133152480Y-79549066D01*
X133152480Y-78168114D02*
X133152480Y-78739542D01*
X133152480Y-78453828D02*
X132152480Y-78453828D01*
X132295338Y-78549066D01*
X132390576Y-78644304D01*
X132438195Y-78739542D01*
X132152480Y-77549066D02*
X132152480Y-77453828D01*
X132200100Y-77358590D01*
X132247719Y-77310971D01*
X132342957Y-77263352D01*
X132533433Y-77215733D01*
X132771528Y-77215733D01*
X132962004Y-77263352D01*
X133057242Y-77310971D01*
X133104861Y-77358590D01*
X133152480Y-77453828D01*
X133152480Y-77549066D01*
X133104861Y-77644304D01*
X133057242Y-77691923D01*
X132962004Y-77739542D01*
X132771528Y-77787161D01*
X132533433Y-77787161D01*
X132342957Y-77739542D01*
X132247719Y-77691923D01*
X132200100Y-77644304D01*
X132152480Y-77549066D01*
X132152480Y-76358590D02*
X132152480Y-76549066D01*
X132200100Y-76644304D01*
X132247719Y-76691923D01*
X132390576Y-76787161D01*
X132581052Y-76834780D01*
X132962004Y-76834780D01*
X133057242Y-76787161D01*
X133104861Y-76739542D01*
X133152480Y-76644304D01*
X133152480Y-76453828D01*
X133104861Y-76358590D01*
X133057242Y-76310971D01*
X132962004Y-76263352D01*
X132723909Y-76263352D01*
X132628671Y-76310971D01*
X132581052Y-76358590D01*
X132533433Y-76453828D01*
X132533433Y-76644304D01*
X132581052Y-76739542D01*
X132628671Y-76787161D01*
X132723909Y-76834780D01*
X140655814Y-82084780D02*
X140655814Y-82894304D01*
X140703433Y-82989542D01*
X140751052Y-83037161D01*
X140846290Y-83084780D01*
X141036766Y-83084780D01*
X141132004Y-83037161D01*
X141179623Y-82989542D01*
X141227242Y-82894304D01*
X141227242Y-82084780D01*
X142227242Y-83084780D02*
X141655814Y-83084780D01*
X141941528Y-83084780D02*
X141941528Y-82084780D01*
X141846290Y-82227638D01*
X141751052Y-82322876D01*
X141655814Y-82370495D01*
X142846290Y-82084780D02*
X142941528Y-82084780D01*
X143036766Y-82132400D01*
X143084385Y-82180019D01*
X143132004Y-82275257D01*
X143179623Y-82465733D01*
X143179623Y-82703828D01*
X143132004Y-82894304D01*
X143084385Y-82989542D01*
X143036766Y-83037161D01*
X142941528Y-83084780D01*
X142846290Y-83084780D01*
X142751052Y-83037161D01*
X142703433Y-82989542D01*
X142655814Y-82894304D01*
X142608195Y-82703828D01*
X142608195Y-82465733D01*
X142655814Y-82275257D01*
X142703433Y-82180019D01*
X142751052Y-82132400D01*
X142846290Y-82084780D01*
X143560576Y-82180019D02*
X143608195Y-82132400D01*
X143703433Y-82084780D01*
X143941528Y-82084780D01*
X144036766Y-82132400D01*
X144084385Y-82180019D01*
X144132004Y-82275257D01*
X144132004Y-82370495D01*
X144084385Y-82513352D01*
X143512957Y-83084780D01*
X144132004Y-83084780D01*
X165900100Y-63652400D02*
X163360100Y-63652400D01*
X168440100Y-61112400D02*
X165900100Y-61112400D01*
X168440100Y-119532400D02*
X163360100Y-119532400D01*
X168440100Y-119532400D02*
X168440100Y-61112400D01*
X164630100Y-60832400D02*
X163080100Y-60832400D01*
X163360100Y-119532400D02*
X163360100Y-63652400D01*
X165900100Y-61112400D02*
X165900100Y-63652400D01*
X163080100Y-60832400D02*
X163080100Y-62382400D01*
D11*
X125480100Y-91274564D02*
X125480100Y-91490236D01*
X124760100Y-91274564D02*
X124760100Y-91490236D01*
X128670100Y-93782400D02*
X128070100Y-93782400D01*
X128070100Y-90982400D02*
X128670100Y-90982400D01*
X129370100Y-91682400D02*
X129370100Y-93082400D01*
X127370100Y-93082400D02*
X127370100Y-91682400D01*
X128670100Y-93782400D02*
G75*
G03*
X129370100Y-93082400I0J700000D01*
G01*
X129370100Y-91682400D02*
G75*
G03*
X128670100Y-90982400I-699999J1D01*
G01*
X128070100Y-90982400D02*
G75*
G03*
X127370100Y-91682400I-1J-699999D01*
G01*
X127370100Y-93082400D02*
G75*
G03*
X128070100Y-93782400I700000J0D01*
G01*
X134070100Y-90982400D02*
X134670100Y-90982400D01*
X133370100Y-93082400D02*
X133370100Y-91682400D01*
X135370100Y-91682400D02*
X135370100Y-93082400D01*
X134670100Y-93782400D02*
X134070100Y-93782400D01*
X133370100Y-93082400D02*
G75*
G03*
X134070100Y-93782400I700000J0D01*
G01*
X134670100Y-93782400D02*
G75*
G03*
X135370100Y-93082400I0J700000D01*
G01*
X135370100Y-91682400D02*
G75*
G03*
X134670100Y-90982400I-699999J1D01*
G01*
X134070100Y-90982400D02*
G75*
G03*
X133370100Y-91682400I-1J-699999D01*
G01*
X121370100Y-88082400D02*
X121370100Y-86682400D01*
X123370100Y-86682400D02*
X123370100Y-88082400D01*
X122070100Y-85982400D02*
X122670100Y-85982400D01*
X122670100Y-88782400D02*
X122070100Y-88782400D01*
X122070100Y-85982400D02*
G75*
G03*
X121370100Y-86682400I0J-700000D01*
G01*
X123370100Y-86682400D02*
G75*
G03*
X122670100Y-85982400I-700000J0D01*
G01*
X121370100Y-88082400D02*
G75*
G03*
X122070100Y-88782400I699999J-1D01*
G01*
X122670100Y-88782400D02*
G75*
G03*
X123370100Y-88082400I1J699999D01*
G01*
X133523741Y-87012400D02*
X133216459Y-87012400D01*
X133523741Y-86252400D02*
X133216459Y-86252400D01*
X133523741Y-88262400D02*
X133216459Y-88262400D01*
X133523741Y-87502400D02*
X133216459Y-87502400D01*
X121990100Y-90536041D02*
X121990100Y-90228759D01*
X122750100Y-90536041D02*
X122750100Y-90228759D01*
X158370100Y-65632400D02*
X156870100Y-65632400D01*
X156870100Y-72632400D02*
X158370100Y-72632400D01*
X160870100Y-71382400D02*
X160870100Y-66882400D01*
X154370100Y-66882400D02*
X154370100Y-71382400D01*
X128370100Y-65632400D02*
X126870100Y-65632400D01*
X126870100Y-72632400D02*
X128370100Y-72632400D01*
X130870100Y-71382400D02*
X130870100Y-66882400D01*
X124370100Y-66882400D02*
X124370100Y-71382400D01*
X128370100Y-84822400D02*
X130320100Y-84822400D01*
X128370100Y-84822400D02*
X126420100Y-84822400D01*
X128370100Y-89942400D02*
X126420100Y-89942400D01*
X128370100Y-89942400D02*
X131820100Y-89942400D01*
X133523741Y-89512400D02*
X133216459Y-89512400D01*
X133523741Y-88752400D02*
X133216459Y-88752400D01*
X130370100Y-93082400D02*
X130370100Y-91682400D01*
X131070100Y-90982400D02*
X131670100Y-90982400D01*
X132370100Y-91682400D02*
X132370100Y-93082400D01*
X131670100Y-93782400D02*
X131070100Y-93782400D01*
X130370100Y-93082400D02*
G75*
G03*
X131070100Y-93782400I700000J0D01*
G01*
X131670100Y-93782400D02*
G75*
G03*
X132370100Y-93082400I0J700000D01*
G01*
X132370100Y-91682400D02*
G75*
G03*
X131670100Y-90982400I-699999J1D01*
G01*
X131070100Y-90982400D02*
G75*
G03*
X130370100Y-91682400I-1J-699999D01*
G01*
X121530100Y-52072400D02*
X115210100Y-52072400D01*
X114970100Y-51832400D02*
X114970100Y-52332400D01*
X115770100Y-52072400D02*
X115770100Y-52842400D01*
X115210100Y-56962400D02*
X115210100Y-57732400D01*
X121530100Y-57732400D02*
X115210100Y-57732400D01*
X115210100Y-54422400D02*
X115210100Y-55382400D01*
X115210100Y-52072400D02*
X115210100Y-52842400D01*
X121530100Y-52072400D02*
X121530100Y-57732400D01*
X115710100Y-51832400D02*
X114970100Y-51832400D01*
X115770100Y-56962400D02*
X115770100Y-57732400D01*
X115770100Y-54422400D02*
X115770100Y-55382400D01*
X121070100Y-52072400D02*
X121070100Y-57732400D01*
D10*
X122620100Y-59132400D02*
X134620100Y-59132400D01*
X122620100Y-50632400D02*
X122620100Y-59132400D01*
X134620100Y-50632400D02*
X122620100Y-50632400D01*
X134620100Y-59132400D02*
X134620100Y-50632400D01*
D11*
X130280100Y-47132400D02*
X129260100Y-47132400D01*
X128360100Y-48602400D02*
X128360100Y-45662400D01*
X123820100Y-45662400D02*
X123820100Y-48602400D01*
X129260100Y-45662400D02*
X123820100Y-45662400D01*
X128240100Y-48602400D02*
X128240100Y-45662400D01*
X129260100Y-48602400D02*
X129260100Y-45662400D01*
X123820100Y-48602400D02*
X129260100Y-48602400D01*
X122800100Y-47132400D02*
X123820100Y-47132400D01*
X128480100Y-48602400D02*
X128480100Y-45662400D01*
X134134100Y-69672400D02*
X134290100Y-69672400D01*
X136450100Y-69672400D02*
X136606100Y-69672400D01*
X136605616Y-69672400D02*
G75*
G03*
X136448708Y-66440065I-1235516J1560000D01*
G01*
X134290263Y-67071270D02*
G75*
G03*
X134290100Y-69153361I1079837J-1041130D01*
G01*
X134291492Y-66440065D02*
G75*
G03*
X134134584Y-69672400I1078608J-1672335D01*
G01*
X136450100Y-69153361D02*
G75*
G03*
X136449937Y-67071270I-1080000J1040961D01*
G01*
X141450100Y-69672400D02*
X141606100Y-69672400D01*
X139134100Y-69672400D02*
X139290100Y-69672400D01*
X141605616Y-69672400D02*
G75*
G03*
X141448708Y-66440065I-1235516J1560000D01*
G01*
X141450100Y-69153361D02*
G75*
G03*
X141449937Y-67071270I-1080000J1040961D01*
G01*
X139290263Y-67071270D02*
G75*
G03*
X139290100Y-69153361I1079837J-1041130D01*
G01*
X139291492Y-66440065D02*
G75*
G03*
X139134584Y-69672400I1078608J-1672335D01*
G01*
X144134100Y-69672400D02*
X144290100Y-69672400D01*
X146450100Y-69672400D02*
X146606100Y-69672400D01*
X146605616Y-69672400D02*
G75*
G03*
X146448708Y-66440065I-1235516J1560000D01*
G01*
X146450100Y-69153361D02*
G75*
G03*
X146449937Y-67071270I-1080000J1040961D01*
G01*
X144291492Y-66440065D02*
G75*
G03*
X144134584Y-69672400I1078608J-1672335D01*
G01*
X144290263Y-67071270D02*
G75*
G03*
X144290100Y-69153361I1079837J-1041130D01*
G01*
X151450100Y-69672400D02*
X151606100Y-69672400D01*
X149134100Y-69672400D02*
X149290100Y-69672400D01*
X149290263Y-67071270D02*
G75*
G03*
X149290100Y-69153361I1079837J-1041130D01*
G01*
X149291492Y-66440065D02*
G75*
G03*
X149134584Y-69672400I1078608J-1672335D01*
G01*
X151605616Y-69672400D02*
G75*
G03*
X151448708Y-66440065I-1235516J1560000D01*
G01*
X151450100Y-69153361D02*
G75*
G03*
X151449937Y-67071270I-1080000J1040961D01*
G01*
X135370100Y-114732400D02*
X136370100Y-114732400D01*
X133870100Y-122082400D02*
X133870100Y-123082400D01*
X128870100Y-122082400D02*
X128870100Y-123082400D01*
X133870100Y-123782400D02*
X137870100Y-123782400D01*
X126750100Y-118882400D02*
X129140100Y-118882400D01*
X137870100Y-122082400D02*
X137870100Y-123082400D01*
X128870100Y-123082400D02*
X132870100Y-123082400D01*
X130370100Y-114732400D02*
X130370100Y-117231400D01*
X128870100Y-122082400D02*
X132870100Y-122082400D01*
X126510100Y-128742400D02*
X127510100Y-128742400D01*
X135370100Y-114732400D02*
X135370100Y-117231400D01*
X132870100Y-123782400D02*
X132870100Y-127082400D01*
X126750100Y-128502400D02*
X139291100Y-128502400D01*
X133370100Y-114382400D02*
X138370100Y-114382400D01*
X139291100Y-114262400D02*
X139291100Y-128502400D01*
X136370100Y-114732400D02*
X136370100Y-117231400D01*
X130370100Y-117231400D02*
X131370100Y-117231400D01*
X128870100Y-123782400D02*
X128870100Y-127082400D01*
X133870100Y-127082400D02*
X137870100Y-127082400D01*
X128870100Y-127082400D02*
X132870100Y-127082400D01*
X128370100Y-114382400D02*
X133370100Y-114382400D01*
X133370100Y-114382400D02*
X133370100Y-128382400D01*
X137870100Y-123782400D02*
X137870100Y-127082400D01*
X133870100Y-123082400D02*
X137870100Y-123082400D01*
X126750100Y-114262400D02*
X126750100Y-128502400D01*
X132870100Y-122082400D02*
X132870100Y-123082400D01*
X126510100Y-127502400D02*
X126510100Y-128742400D01*
X136600100Y-118882400D02*
X139291100Y-118882400D01*
X133370100Y-128382400D02*
X138370100Y-128382400D01*
X131600100Y-118882400D02*
X134140100Y-118882400D01*
X128370100Y-128382400D02*
X133370100Y-128382400D01*
X131370100Y-114732400D02*
X131370100Y-117231400D01*
X128870100Y-123782400D02*
X132870100Y-123782400D01*
X133870100Y-122082400D02*
X137870100Y-122082400D01*
X133870100Y-123782400D02*
X133870100Y-127082400D01*
X133370100Y-114382400D02*
X133370100Y-128382400D01*
X126750100Y-114262400D02*
X139291100Y-114262400D01*
X130370100Y-114732400D02*
X131370100Y-114732400D01*
X135370100Y-117231400D02*
X136370100Y-117231400D01*
X126750100Y-121682400D02*
X139291100Y-121682400D01*
X138370100Y-114382400D02*
X138370100Y-128382400D01*
X128370100Y-114382400D02*
X128370100Y-128382400D01*
X126750100Y-127382400D02*
X139291100Y-127382400D01*
X149870100Y-122082400D02*
X149870100Y-123082400D01*
X143750100Y-128502400D02*
X156291100Y-128502400D01*
X145370100Y-114382400D02*
X145370100Y-128382400D01*
X143750100Y-114262400D02*
X143750100Y-128502400D01*
X148600100Y-118882400D02*
X151140100Y-118882400D01*
X150870100Y-127082400D02*
X154870100Y-127082400D01*
X143750100Y-121682400D02*
X156291100Y-121682400D01*
X150370100Y-128382400D02*
X155370100Y-128382400D01*
X155370100Y-114382400D02*
X155370100Y-128382400D01*
X152370100Y-114732400D02*
X153370100Y-114732400D01*
X143510100Y-128742400D02*
X144510100Y-128742400D01*
X150870100Y-123082400D02*
X154870100Y-123082400D01*
X150870100Y-122082400D02*
X150870100Y-123082400D01*
X154870100Y-123782400D02*
X154870100Y-127082400D01*
X150870100Y-123782400D02*
X150870100Y-127082400D01*
X150870100Y-122082400D02*
X154870100Y-122082400D01*
X156291100Y-114262400D02*
X156291100Y-128502400D01*
X153370100Y-114732400D02*
X153370100Y-117231400D01*
X150370100Y-114382400D02*
X150370100Y-128382400D01*
X153600100Y-118882400D02*
X156291100Y-118882400D01*
X150870100Y-123782400D02*
X154870100Y-123782400D01*
X143750100Y-114262400D02*
X156291100Y-114262400D01*
X145870100Y-123782400D02*
X145870100Y-127082400D01*
X152370100Y-114732400D02*
X152370100Y-117231400D01*
X145870100Y-123082400D02*
X149870100Y-123082400D01*
X147370100Y-114732400D02*
X147370100Y-117231400D01*
X148370100Y-114732400D02*
X148370100Y-117231400D01*
X150370100Y-114382400D02*
X155370100Y-114382400D01*
X149870100Y-123782400D02*
X149870100Y-127082400D01*
X143750100Y-118882400D02*
X146140100Y-118882400D01*
X145370100Y-114382400D02*
X150370100Y-114382400D01*
X145870100Y-122082400D02*
X145870100Y-123082400D01*
X143750100Y-127382400D02*
X156291100Y-127382400D01*
X152370100Y-117231400D02*
X153370100Y-117231400D01*
X147370100Y-114732400D02*
X148370100Y-114732400D01*
X154870100Y-122082400D02*
X154870100Y-123082400D01*
X145870100Y-122082400D02*
X149870100Y-122082400D01*
X145870100Y-127082400D02*
X149870100Y-127082400D01*
X143510100Y-127502400D02*
X143510100Y-128742400D01*
X145370100Y-128382400D02*
X150370100Y-128382400D01*
X145870100Y-123782400D02*
X149870100Y-123782400D01*
X150370100Y-114382400D02*
X150370100Y-128382400D01*
X147370100Y-117231400D02*
X148370100Y-117231400D01*
X134000100Y-79462400D02*
X134330100Y-79462400D01*
X134000100Y-72922400D02*
X134000100Y-79462400D01*
X136740100Y-72922400D02*
X136740100Y-79462400D01*
X136410100Y-72922400D02*
X136740100Y-72922400D01*
X136740100Y-79462400D02*
X136410100Y-79462400D01*
X134330100Y-72922400D02*
X134000100Y-72922400D01*
X141740100Y-79462400D02*
X141410100Y-79462400D01*
X139330100Y-72922400D02*
X139000100Y-72922400D01*
X141410100Y-72922400D02*
X141740100Y-72922400D01*
X139000100Y-79462400D02*
X139330100Y-79462400D01*
X139000100Y-72922400D02*
X139000100Y-79462400D01*
X141740100Y-72922400D02*
X141740100Y-79462400D01*
X146740100Y-72922400D02*
X146740100Y-79462400D01*
X144330100Y-72922400D02*
X144000100Y-72922400D01*
X144000100Y-72922400D02*
X144000100Y-79462400D01*
X146410100Y-72922400D02*
X146740100Y-72922400D01*
X146740100Y-79462400D02*
X146410100Y-79462400D01*
X144000100Y-79462400D02*
X144330100Y-79462400D01*
X149000100Y-72922400D02*
X149000100Y-79462400D01*
X151410100Y-72922400D02*
X151740100Y-72922400D01*
X149000100Y-79462400D02*
X149330100Y-79462400D01*
X151740100Y-72922400D02*
X151740100Y-79462400D01*
X151740100Y-79462400D02*
X151410100Y-79462400D01*
X149330100Y-72922400D02*
X149000100Y-72922400D01*
X141740100Y-96462400D02*
X141410100Y-96462400D01*
X139000100Y-89922400D02*
X139000100Y-96462400D01*
X139000100Y-96462400D02*
X139330100Y-96462400D01*
X139330100Y-89922400D02*
X139000100Y-89922400D01*
X141410100Y-89922400D02*
X141740100Y-89922400D01*
X141740100Y-89922400D02*
X141740100Y-96462400D01*
X143000100Y-89922400D02*
X143000100Y-96462400D01*
X145740100Y-89922400D02*
X145740100Y-96462400D01*
X145740100Y-96462400D02*
X145410100Y-96462400D01*
X143000100Y-96462400D02*
X143330100Y-96462400D01*
X143330100Y-89922400D02*
X143000100Y-89922400D01*
X145410100Y-89922400D02*
X145740100Y-89922400D01*
X136450100Y-112752400D02*
X136450100Y-112422400D01*
X129910100Y-110012400D02*
X136450100Y-110012400D01*
X136450100Y-110012400D02*
X136450100Y-110342400D01*
X129910100Y-110342400D02*
X129910100Y-110012400D01*
X129910100Y-112752400D02*
X136450100Y-112752400D01*
X129910100Y-112422400D02*
X129910100Y-112752400D01*
X146910100Y-112422400D02*
X146910100Y-112752400D01*
X153450100Y-112752400D02*
X153450100Y-112422400D01*
X153450100Y-110012400D02*
X153450100Y-110342400D01*
X146910100Y-110342400D02*
X146910100Y-110012400D01*
X146910100Y-110012400D02*
X153450100Y-110012400D01*
X146910100Y-112752400D02*
X153450100Y-112752400D01*
X168530100Y-58442400D02*
X168530100Y-57672400D01*
X168030100Y-58682400D02*
X168770100Y-58682400D01*
X162210100Y-50242400D02*
X168530100Y-50242400D01*
X167970100Y-53552400D02*
X167970100Y-52592400D01*
X167970100Y-56092400D02*
X167970100Y-55132400D01*
X168530100Y-53552400D02*
X168530100Y-52592400D01*
X167970100Y-51012400D02*
X167970100Y-50242400D01*
X162210100Y-58442400D02*
X162210100Y-50242400D01*
X168530100Y-56092400D02*
X168530100Y-55132400D01*
X162210100Y-58442400D02*
X168530100Y-58442400D01*
X168530100Y-51012400D02*
X168530100Y-50242400D01*
X168770100Y-58682400D02*
X168770100Y-58182400D01*
X162670100Y-58442400D02*
X162670100Y-50242400D01*
X167970100Y-58442400D02*
X167970100Y-57672400D01*
X137040100Y-104572400D02*
X137040100Y-106222400D01*
X147320100Y-100922400D02*
X137040100Y-100922400D01*
X137040100Y-106222400D02*
X147320100Y-106222400D01*
X137040100Y-100922400D02*
X137040100Y-102572400D01*
X147320100Y-106222400D02*
X147320100Y-100922400D01*
X137040100Y-104572400D02*
G75*
G03*
X137040100Y-102572400I0J1000000D01*
G01*
D10*
X120180100Y-61112400D02*
X117640100Y-61112400D01*
X116370100Y-60832400D02*
X114820100Y-60832400D01*
X120180100Y-119532400D02*
X120180100Y-61112400D01*
X120180100Y-119532400D02*
X115100100Y-119532400D01*
X114820100Y-60832400D02*
X114820100Y-62382400D01*
X115100100Y-119532400D02*
X115100100Y-63652400D01*
X117640100Y-61112400D02*
X117640100Y-63652400D01*
X117640100Y-63652400D02*
X115100100Y-63652400D01*
D11*
X154270100Y-52632400D02*
X154270100Y-53592400D01*
X154270100Y-55172400D02*
X154270100Y-56132400D01*
X160030100Y-50282400D02*
X160030100Y-58482400D01*
X160030100Y-50282400D02*
X153710100Y-50282400D01*
X160030100Y-58482400D02*
X153710100Y-58482400D01*
X154270100Y-57712400D02*
X154270100Y-58482400D01*
X153710100Y-55172400D02*
X153710100Y-56132400D01*
X154210100Y-50042400D02*
X153470100Y-50042400D01*
X153470100Y-50042400D02*
X153470100Y-50542400D01*
X154270100Y-50282400D02*
X154270100Y-51052400D01*
X159570100Y-50282400D02*
X159570100Y-58482400D01*
X153710100Y-52632400D02*
X153710100Y-53592400D01*
X153710100Y-50282400D02*
X153710100Y-51052400D01*
X153710100Y-57712400D02*
X153710100Y-58482400D01*
X161773741Y-82502400D02*
X161466459Y-82502400D01*
X161773741Y-83262400D02*
X161466459Y-83262400D01*
X131700100Y-76552400D02*
X131700100Y-77882400D01*
X130370100Y-76552400D02*
X131700100Y-76552400D01*
X123960100Y-76552400D02*
X123960100Y-79212400D01*
X129100100Y-76552400D02*
X129100100Y-79212400D01*
X129100100Y-79212400D02*
X123960100Y-79212400D01*
X129100100Y-76552400D02*
X123960100Y-76552400D01*
X141720100Y-86292400D02*
X143020100Y-86292400D01*
X141280100Y-83472400D02*
X143020100Y-83472400D01*
D12*
X164630100Y-62382400D03*
D13*
X167170100Y-62382400D03*
X164630100Y-64922400D03*
X167170100Y-64922400D03*
X164630100Y-67462400D03*
X167170100Y-67462400D03*
X164630100Y-70002400D03*
X167170100Y-70002400D03*
X164630100Y-72542400D03*
X167170100Y-72542400D03*
X164630100Y-75082400D03*
X167170100Y-75082400D03*
X164630100Y-77622400D03*
X167170100Y-77622400D03*
X164630100Y-80162400D03*
X167170100Y-80162400D03*
X164630100Y-82702400D03*
X167170100Y-82702400D03*
X164630100Y-85242400D03*
X167170100Y-85242400D03*
X164630100Y-87782400D03*
X167170100Y-87782400D03*
X164630100Y-90322400D03*
X167170100Y-90322400D03*
X164630100Y-92862400D03*
X167170100Y-92862400D03*
X164630100Y-95402400D03*
X167170100Y-95402400D03*
X164630100Y-97942400D03*
X167170100Y-97942400D03*
X164630100Y-100482400D03*
X167170100Y-100482400D03*
X164630100Y-103022400D03*
X167170100Y-103022400D03*
X164630100Y-105562400D03*
X167170100Y-105562400D03*
X164630100Y-108102400D03*
X167170100Y-108102400D03*
X164630100Y-110642400D03*
X167170100Y-110642400D03*
X164630100Y-113182400D03*
X167170100Y-113182400D03*
X164630100Y-115722400D03*
X167170100Y-115722400D03*
X164630100Y-118262400D03*
X167170100Y-118262400D03*
D12*
X116370100Y-62382400D03*
D13*
X118910100Y-62382400D03*
X116370100Y-64922400D03*
X118910100Y-64922400D03*
X116370100Y-67462400D03*
X118910100Y-67462400D03*
X116370100Y-70002400D03*
X118910100Y-70002400D03*
X116370100Y-72542400D03*
X118910100Y-72542400D03*
X116370100Y-75082400D03*
X118910100Y-75082400D03*
X116370100Y-77622400D03*
X118910100Y-77622400D03*
X116370100Y-80162400D03*
X118910100Y-80162400D03*
X116370100Y-82702400D03*
X118910100Y-82702400D03*
X116370100Y-85242400D03*
X118910100Y-85242400D03*
X116370100Y-87782400D03*
X118910100Y-87782400D03*
X116370100Y-90322400D03*
X118910100Y-90322400D03*
X116370100Y-92862400D03*
X118910100Y-92862400D03*
X116370100Y-95402400D03*
X118910100Y-95402400D03*
X116370100Y-97942400D03*
X118910100Y-97942400D03*
X116370100Y-100482400D03*
X118910100Y-100482400D03*
X116370100Y-103022400D03*
X118910100Y-103022400D03*
X116370100Y-105562400D03*
X118910100Y-105562400D03*
X116370100Y-108102400D03*
X118910100Y-108102400D03*
X116370100Y-110642400D03*
X118910100Y-110642400D03*
X116370100Y-113182400D03*
X118910100Y-113182400D03*
X116370100Y-115722400D03*
X118910100Y-115722400D03*
X116370100Y-118262400D03*
X118910100Y-118262400D03*
%LPC*%
D12*
X164630100Y-62382400D03*
D13*
X167170100Y-62382400D03*
X164630100Y-64922400D03*
X167170100Y-64922400D03*
X164630100Y-67462400D03*
X167170100Y-67462400D03*
X164630100Y-70002400D03*
X167170100Y-70002400D03*
X164630100Y-72542400D03*
X167170100Y-72542400D03*
X164630100Y-75082400D03*
X167170100Y-75082400D03*
X164630100Y-77622400D03*
X167170100Y-77622400D03*
X164630100Y-80162400D03*
X167170100Y-80162400D03*
X164630100Y-82702400D03*
X167170100Y-82702400D03*
X164630100Y-85242400D03*
X167170100Y-85242400D03*
X164630100Y-87782400D03*
X167170100Y-87782400D03*
X164630100Y-90322400D03*
X167170100Y-90322400D03*
X164630100Y-92862400D03*
X167170100Y-92862400D03*
X164630100Y-95402400D03*
X167170100Y-95402400D03*
X164630100Y-97942400D03*
X167170100Y-97942400D03*
X164630100Y-100482400D03*
X167170100Y-100482400D03*
X164630100Y-103022400D03*
X167170100Y-103022400D03*
X164630100Y-105562400D03*
X167170100Y-105562400D03*
X164630100Y-108102400D03*
X167170100Y-108102400D03*
X164630100Y-110642400D03*
X167170100Y-110642400D03*
X164630100Y-113182400D03*
X167170100Y-113182400D03*
X164630100Y-115722400D03*
X167170100Y-115722400D03*
X164630100Y-118262400D03*
X167170100Y-118262400D03*
G36*
G01*
X124950100Y-90622400D02*
X125290100Y-90622400D01*
G75*
G02*
X125430100Y-90762400I0J-140000D01*
G01*
X125430100Y-91042400D01*
G75*
G02*
X125290100Y-91182400I-140000J0D01*
G01*
X124950100Y-91182400D01*
G75*
G02*
X124810100Y-91042400I0J140000D01*
G01*
X124810100Y-90762400D01*
G75*
G02*
X124950100Y-90622400I140000J0D01*
G01*
G37*
G36*
G01*
X124950100Y-91582400D02*
X125290100Y-91582400D01*
G75*
G02*
X125430100Y-91722400I0J-140000D01*
G01*
X125430100Y-92002400D01*
G75*
G02*
X125290100Y-92142400I-140000J0D01*
G01*
X124950100Y-92142400D01*
G75*
G02*
X124810100Y-92002400I0J140000D01*
G01*
X124810100Y-91722400D01*
G75*
G02*
X124950100Y-91582400I140000J0D01*
G01*
G37*
G36*
X127620100Y-92232400D02*
G01*
X127620100Y-91732400D01*
X127625067Y-91732400D01*
X127626532Y-91652459D01*
X127668807Y-91517144D01*
X127747362Y-91399134D01*
X127855881Y-91307914D01*
X127985640Y-91250819D01*
X128120100Y-91233236D01*
X128120100Y-91232400D01*
X128620100Y-91232400D01*
X128620100Y-91233236D01*
X128626209Y-91232437D01*
X128766286Y-91254248D01*
X128894611Y-91314496D01*
X129000869Y-91408340D01*
X129076517Y-91528235D01*
X129115474Y-91664542D01*
X129115059Y-91732400D01*
X129120100Y-91732400D01*
X129120100Y-92232400D01*
X127620100Y-92232400D01*
G37*
G36*
X129115059Y-93032400D02*
G01*
X129114608Y-93106305D01*
X129073989Y-93242126D01*
X128996882Y-93361088D01*
X128889485Y-93453626D01*
X128760433Y-93512303D01*
X128620100Y-93532400D01*
X128120100Y-93532400D01*
X128107884Y-93532251D01*
X127968083Y-93508731D01*
X127840504Y-93446919D01*
X127735400Y-93351784D01*
X127661223Y-93230974D01*
X127623934Y-93094201D01*
X127625067Y-93032400D01*
X127620100Y-93032400D01*
X127620100Y-92532400D01*
X129120100Y-92532400D01*
X129120100Y-93032400D01*
X129115059Y-93032400D01*
G37*
G36*
X133620100Y-92232400D02*
G01*
X133620100Y-91732400D01*
X133625067Y-91732400D01*
X133626532Y-91652459D01*
X133668807Y-91517144D01*
X133747362Y-91399134D01*
X133855881Y-91307914D01*
X133985640Y-91250819D01*
X134120100Y-91233236D01*
X134120100Y-91232400D01*
X134620100Y-91232400D01*
X134620100Y-91233236D01*
X134626209Y-91232437D01*
X134766286Y-91254248D01*
X134894611Y-91314496D01*
X135000869Y-91408340D01*
X135076517Y-91528235D01*
X135115474Y-91664542D01*
X135115059Y-91732400D01*
X135120100Y-91732400D01*
X135120100Y-92232400D01*
X133620100Y-92232400D01*
G37*
G36*
X135115059Y-93032400D02*
G01*
X135114608Y-93106305D01*
X135073989Y-93242126D01*
X134996882Y-93361088D01*
X134889485Y-93453626D01*
X134760433Y-93512303D01*
X134620100Y-93532400D01*
X134120100Y-93532400D01*
X134107884Y-93532251D01*
X133968083Y-93508731D01*
X133840504Y-93446919D01*
X133735400Y-93351784D01*
X133661223Y-93230974D01*
X133623934Y-93094201D01*
X133625067Y-93032400D01*
X133620100Y-93032400D01*
X133620100Y-92532400D01*
X135120100Y-92532400D01*
X135120100Y-93032400D01*
X135115059Y-93032400D01*
G37*
G36*
X123120100Y-87532400D02*
G01*
X123120100Y-88032400D01*
X123115133Y-88032400D01*
X123113668Y-88112341D01*
X123071393Y-88247656D01*
X122992838Y-88365666D01*
X122884319Y-88456886D01*
X122754560Y-88513981D01*
X122620100Y-88531564D01*
X122620100Y-88532400D01*
X122120100Y-88532400D01*
X122120100Y-88531564D01*
X122113991Y-88532363D01*
X121973914Y-88510552D01*
X121845589Y-88450304D01*
X121739331Y-88356460D01*
X121663683Y-88236565D01*
X121624726Y-88100258D01*
X121625141Y-88032400D01*
X121620100Y-88032400D01*
X121620100Y-87532400D01*
X123120100Y-87532400D01*
G37*
G36*
X121625141Y-86732400D02*
G01*
X121625592Y-86658495D01*
X121666211Y-86522674D01*
X121743318Y-86403712D01*
X121850715Y-86311174D01*
X121979767Y-86252497D01*
X122120100Y-86232400D01*
X122620100Y-86232400D01*
X122632316Y-86232549D01*
X122772117Y-86256069D01*
X122899696Y-86317881D01*
X123004800Y-86413016D01*
X123078977Y-86533826D01*
X123116266Y-86670599D01*
X123115133Y-86732400D01*
X123120100Y-86732400D01*
X123120100Y-87232400D01*
X121620100Y-87232400D01*
X121620100Y-86732400D01*
X121625141Y-86732400D01*
G37*
G36*
G01*
X134150100Y-86447400D02*
X134150100Y-86817400D01*
G75*
G02*
X134015100Y-86952400I-135000J0D01*
G01*
X133745100Y-86952400D01*
G75*
G02*
X133610100Y-86817400I0J135000D01*
G01*
X133610100Y-86447400D01*
G75*
G02*
X133745100Y-86312400I135000J0D01*
G01*
X134015100Y-86312400D01*
G75*
G02*
X134150100Y-86447400I0J-135000D01*
G01*
G37*
G36*
G01*
X133130100Y-86447400D02*
X133130100Y-86817400D01*
G75*
G02*
X132995100Y-86952400I-135000J0D01*
G01*
X132725100Y-86952400D01*
G75*
G02*
X132590100Y-86817400I0J135000D01*
G01*
X132590100Y-86447400D01*
G75*
G02*
X132725100Y-86312400I135000J0D01*
G01*
X132995100Y-86312400D01*
G75*
G02*
X133130100Y-86447400I0J-135000D01*
G01*
G37*
G36*
G01*
X134150100Y-87697400D02*
X134150100Y-88067400D01*
G75*
G02*
X134015100Y-88202400I-135000J0D01*
G01*
X133745100Y-88202400D01*
G75*
G02*
X133610100Y-88067400I0J135000D01*
G01*
X133610100Y-87697400D01*
G75*
G02*
X133745100Y-87562400I135000J0D01*
G01*
X134015100Y-87562400D01*
G75*
G02*
X134150100Y-87697400I0J-135000D01*
G01*
G37*
G36*
G01*
X133130100Y-87697400D02*
X133130100Y-88067400D01*
G75*
G02*
X132995100Y-88202400I-135000J0D01*
G01*
X132725100Y-88202400D01*
G75*
G02*
X132590100Y-88067400I0J135000D01*
G01*
X132590100Y-87697400D01*
G75*
G02*
X132725100Y-87562400I135000J0D01*
G01*
X132995100Y-87562400D01*
G75*
G02*
X133130100Y-87697400I0J-135000D01*
G01*
G37*
G36*
G01*
X122555100Y-91162400D02*
X122185100Y-91162400D01*
G75*
G02*
X122050100Y-91027400I0J135000D01*
G01*
X122050100Y-90757400D01*
G75*
G02*
X122185100Y-90622400I135000J0D01*
G01*
X122555100Y-90622400D01*
G75*
G02*
X122690100Y-90757400I0J-135000D01*
G01*
X122690100Y-91027400D01*
G75*
G02*
X122555100Y-91162400I-135000J0D01*
G01*
G37*
G36*
G01*
X122555100Y-90142400D02*
X122185100Y-90142400D01*
G75*
G02*
X122050100Y-90007400I0J135000D01*
G01*
X122050100Y-89737400D01*
G75*
G02*
X122185100Y-89602400I135000J0D01*
G01*
X122555100Y-89602400D01*
G75*
G02*
X122690100Y-89737400I0J-135000D01*
G01*
X122690100Y-90007400D01*
G75*
G02*
X122555100Y-90142400I-135000J0D01*
G01*
G37*
D14*
X155370100Y-65882400D03*
X155370100Y-72382400D03*
X159870100Y-72382400D03*
X159870100Y-65882400D03*
X125370100Y-72382400D03*
X125370100Y-65882400D03*
X129870100Y-65882400D03*
X129870100Y-72382400D03*
G36*
G01*
X131820100Y-89137400D02*
X131820100Y-89437400D01*
G75*
G02*
X131670100Y-89587400I-150000J0D01*
G01*
X130020100Y-89587400D01*
G75*
G02*
X129870100Y-89437400I0J150000D01*
G01*
X129870100Y-89137400D01*
G75*
G02*
X130020100Y-88987400I150000J0D01*
G01*
X131670100Y-88987400D01*
G75*
G02*
X131820100Y-89137400I0J-150000D01*
G01*
G37*
G36*
G01*
X131820100Y-87867400D02*
X131820100Y-88167400D01*
G75*
G02*
X131670100Y-88317400I-150000J0D01*
G01*
X130020100Y-88317400D01*
G75*
G02*
X129870100Y-88167400I0J150000D01*
G01*
X129870100Y-87867400D01*
G75*
G02*
X130020100Y-87717400I150000J0D01*
G01*
X131670100Y-87717400D01*
G75*
G02*
X131820100Y-87867400I0J-150000D01*
G01*
G37*
G36*
G01*
X131820100Y-86597400D02*
X131820100Y-86897400D01*
G75*
G02*
X131670100Y-87047400I-150000J0D01*
G01*
X130020100Y-87047400D01*
G75*
G02*
X129870100Y-86897400I0J150000D01*
G01*
X129870100Y-86597400D01*
G75*
G02*
X130020100Y-86447400I150000J0D01*
G01*
X131670100Y-86447400D01*
G75*
G02*
X131820100Y-86597400I0J-150000D01*
G01*
G37*
G36*
G01*
X131820100Y-85327400D02*
X131820100Y-85627400D01*
G75*
G02*
X131670100Y-85777400I-150000J0D01*
G01*
X130020100Y-85777400D01*
G75*
G02*
X129870100Y-85627400I0J150000D01*
G01*
X129870100Y-85327400D01*
G75*
G02*
X130020100Y-85177400I150000J0D01*
G01*
X131670100Y-85177400D01*
G75*
G02*
X131820100Y-85327400I0J-150000D01*
G01*
G37*
G36*
G01*
X126870100Y-85327400D02*
X126870100Y-85627400D01*
G75*
G02*
X126720100Y-85777400I-150000J0D01*
G01*
X125070100Y-85777400D01*
G75*
G02*
X124920100Y-85627400I0J150000D01*
G01*
X124920100Y-85327400D01*
G75*
G02*
X125070100Y-85177400I150000J0D01*
G01*
X126720100Y-85177400D01*
G75*
G02*
X126870100Y-85327400I0J-150000D01*
G01*
G37*
G36*
G01*
X126870100Y-86597400D02*
X126870100Y-86897400D01*
G75*
G02*
X126720100Y-87047400I-150000J0D01*
G01*
X125070100Y-87047400D01*
G75*
G02*
X124920100Y-86897400I0J150000D01*
G01*
X124920100Y-86597400D01*
G75*
G02*
X125070100Y-86447400I150000J0D01*
G01*
X126720100Y-86447400D01*
G75*
G02*
X126870100Y-86597400I0J-150000D01*
G01*
G37*
G36*
G01*
X126870100Y-87867400D02*
X126870100Y-88167400D01*
G75*
G02*
X126720100Y-88317400I-150000J0D01*
G01*
X125070100Y-88317400D01*
G75*
G02*
X124920100Y-88167400I0J150000D01*
G01*
X124920100Y-87867400D01*
G75*
G02*
X125070100Y-87717400I150000J0D01*
G01*
X126720100Y-87717400D01*
G75*
G02*
X126870100Y-87867400I0J-150000D01*
G01*
G37*
G36*
G01*
X126870100Y-89137400D02*
X126870100Y-89437400D01*
G75*
G02*
X126720100Y-89587400I-150000J0D01*
G01*
X125070100Y-89587400D01*
G75*
G02*
X124920100Y-89437400I0J150000D01*
G01*
X124920100Y-89137400D01*
G75*
G02*
X125070100Y-88987400I150000J0D01*
G01*
X126720100Y-88987400D01*
G75*
G02*
X126870100Y-89137400I0J-150000D01*
G01*
G37*
G36*
G01*
X134150100Y-88947400D02*
X134150100Y-89317400D01*
G75*
G02*
X134015100Y-89452400I-135000J0D01*
G01*
X133745100Y-89452400D01*
G75*
G02*
X133610100Y-89317400I0J135000D01*
G01*
X133610100Y-88947400D01*
G75*
G02*
X133745100Y-88812400I135000J0D01*
G01*
X134015100Y-88812400D01*
G75*
G02*
X134150100Y-88947400I0J-135000D01*
G01*
G37*
G36*
G01*
X133130100Y-88947400D02*
X133130100Y-89317400D01*
G75*
G02*
X132995100Y-89452400I-135000J0D01*
G01*
X132725100Y-89452400D01*
G75*
G02*
X132590100Y-89317400I0J135000D01*
G01*
X132590100Y-88947400D01*
G75*
G02*
X132725100Y-88812400I135000J0D01*
G01*
X132995100Y-88812400D01*
G75*
G02*
X133130100Y-88947400I0J-135000D01*
G01*
G37*
G36*
X130620100Y-92232400D02*
G01*
X130620100Y-91732400D01*
X130625067Y-91732400D01*
X130626532Y-91652459D01*
X130668807Y-91517144D01*
X130747362Y-91399134D01*
X130855881Y-91307914D01*
X130985640Y-91250819D01*
X131120100Y-91233236D01*
X131120100Y-91232400D01*
X131620100Y-91232400D01*
X131620100Y-91233236D01*
X131626209Y-91232437D01*
X131766286Y-91254248D01*
X131894611Y-91314496D01*
X132000869Y-91408340D01*
X132076517Y-91528235D01*
X132115474Y-91664542D01*
X132115059Y-91732400D01*
X132120100Y-91732400D01*
X132120100Y-92232400D01*
X130620100Y-92232400D01*
G37*
G36*
X132115059Y-93032400D02*
G01*
X132114608Y-93106305D01*
X132073989Y-93242126D01*
X131996882Y-93361088D01*
X131889485Y-93453626D01*
X131760433Y-93512303D01*
X131620100Y-93532400D01*
X131120100Y-93532400D01*
X131107884Y-93532251D01*
X130968083Y-93508731D01*
X130840504Y-93446919D01*
X130735400Y-93351784D01*
X130661223Y-93230974D01*
X130623934Y-93094201D01*
X130625067Y-93032400D01*
X130620100Y-93032400D01*
X130620100Y-92532400D01*
X132120100Y-92532400D01*
X132120100Y-93032400D01*
X132115059Y-93032400D01*
G37*
D15*
X115830100Y-53632400D03*
X115830100Y-56172400D03*
D16*
X118370100Y-53632400D03*
D17*
X118370100Y-56172400D03*
D14*
X126080100Y-57132400D03*
X128620100Y-57132400D03*
X131160100Y-57132400D03*
D16*
X131620100Y-47132400D03*
D18*
X121460100Y-47132400D03*
D19*
X135370100Y-69382400D03*
D20*
X135370100Y-66842400D03*
D19*
X140370100Y-69382400D03*
D20*
X140370100Y-66842400D03*
D19*
X145370100Y-69382400D03*
D20*
X145370100Y-66842400D03*
D19*
X150370100Y-69382400D03*
D20*
X150370100Y-66842400D03*
D21*
X130370100Y-119382400D03*
D22*
X135370100Y-119382400D03*
D21*
X147370100Y-119382400D03*
D22*
X152370100Y-119382400D03*
D23*
X135370100Y-72382400D03*
D24*
X135370100Y-80002400D03*
D23*
X140370100Y-72382400D03*
D24*
X140370100Y-80002400D03*
D23*
X145370100Y-72382400D03*
D24*
X145370100Y-80002400D03*
D23*
X150370100Y-72382400D03*
D24*
X150370100Y-80002400D03*
D23*
X140370100Y-89382400D03*
D24*
X140370100Y-97002400D03*
D23*
X144370100Y-89382400D03*
D24*
X144370100Y-97002400D03*
D23*
X129370100Y-111382400D03*
D24*
X136990100Y-111382400D03*
D23*
X146370100Y-111382400D03*
D24*
X153990100Y-111382400D03*
D15*
X167910100Y-51802400D03*
X167910100Y-54342400D03*
X167910100Y-56882400D03*
D16*
X165370100Y-56882400D03*
D17*
X165370100Y-54342400D03*
X165370100Y-51802400D03*
D25*
X138370100Y-107382400D03*
D24*
X140910100Y-107382400D03*
X143450100Y-107382400D03*
X145990100Y-107382400D03*
X145990100Y-99762400D03*
X143450100Y-99762400D03*
X140910100Y-99762400D03*
X138370100Y-99762400D03*
D12*
X116370100Y-62382400D03*
D13*
X118910100Y-62382400D03*
X116370100Y-64922400D03*
X118910100Y-64922400D03*
X116370100Y-67462400D03*
X118910100Y-67462400D03*
X116370100Y-70002400D03*
X118910100Y-70002400D03*
X116370100Y-72542400D03*
X118910100Y-72542400D03*
X116370100Y-75082400D03*
X118910100Y-75082400D03*
X116370100Y-77622400D03*
X118910100Y-77622400D03*
X116370100Y-80162400D03*
X118910100Y-80162400D03*
X116370100Y-82702400D03*
X118910100Y-82702400D03*
X116370100Y-85242400D03*
X118910100Y-85242400D03*
X116370100Y-87782400D03*
X118910100Y-87782400D03*
X116370100Y-90322400D03*
X118910100Y-90322400D03*
X116370100Y-92862400D03*
X118910100Y-92862400D03*
X116370100Y-95402400D03*
X118910100Y-95402400D03*
X116370100Y-97942400D03*
X118910100Y-97942400D03*
X116370100Y-100482400D03*
X118910100Y-100482400D03*
X116370100Y-103022400D03*
X118910100Y-103022400D03*
X116370100Y-105562400D03*
X118910100Y-105562400D03*
X116370100Y-108102400D03*
X118910100Y-108102400D03*
X116370100Y-110642400D03*
X118910100Y-110642400D03*
X116370100Y-113182400D03*
X118910100Y-113182400D03*
X116370100Y-115722400D03*
X118910100Y-115722400D03*
X116370100Y-118262400D03*
X118910100Y-118262400D03*
D15*
X154330100Y-56922400D03*
X154330100Y-51842400D03*
X154330100Y-54382400D03*
D16*
X156870100Y-51842400D03*
D17*
X156870100Y-54382400D03*
X156870100Y-56922400D03*
G36*
G01*
X162400100Y-82697400D02*
X162400100Y-83067400D01*
G75*
G02*
X162265100Y-83202400I-135000J0D01*
G01*
X161995100Y-83202400D01*
G75*
G02*
X161860100Y-83067400I0J135000D01*
G01*
X161860100Y-82697400D01*
G75*
G02*
X161995100Y-82562400I135000J0D01*
G01*
X162265100Y-82562400D01*
G75*
G02*
X162400100Y-82697400I0J-135000D01*
G01*
G37*
G36*
G01*
X161380100Y-82697400D02*
X161380100Y-83067400D01*
G75*
G02*
X161245100Y-83202400I-135000J0D01*
G01*
X160975100Y-83202400D01*
G75*
G02*
X160840100Y-83067400I0J135000D01*
G01*
X160840100Y-82697400D01*
G75*
G02*
X160975100Y-82562400I135000J0D01*
G01*
X161245100Y-82562400D01*
G75*
G02*
X161380100Y-82697400I0J-135000D01*
G01*
G37*
D26*
X130370100Y-77882400D03*
D27*
X127830100Y-77882400D03*
X125290100Y-77882400D03*
D28*
X141195100Y-84132400D03*
X141195100Y-84632400D03*
X141195100Y-85132400D03*
X141195100Y-85632400D03*
X143545100Y-85632400D03*
X143545100Y-85132400D03*
X143545100Y-84632400D03*
X143545100Y-84132400D03*
G36*
X142870100Y-85732400D02*
G01*
X141870100Y-85732400D01*
X141870100Y-84332400D01*
X142170100Y-84032400D01*
X142870100Y-84032400D01*
X142870100Y-85732400D01*
G37*
M02*
